<?xml version="1.0" standalone="no"?>
<!DOCTYPE svg PUBLIC "-//W3C//DTD SVG 1.1//EN" "http://www.w3.org/Graphics/SVG/1.1/DTD/svg11.dtd" >
<svg xmlns="http://www.w3.org/2000/svg" xmlns:xlink="http://www.w3.org/1999/xlink" version="1.1">
<metadata>
Created by FontForge 20201107 at Sat Nov  8 08:16:45 2025
 By 
Copyright (c) 2025 by Khairunnas for Zelowtype. All rights reserved.
</metadata>
<defs>
<font id="ZTNature-ExtraBold" horiz-adv-x="1247" >
  <font-face 
    font-family="ZT Nature ExtBd"
    font-weight="800"
    font-stretch="normal"
    units-per-em="2048"
    panose-1="0 0 0 0 0 0 0 0 0 0"
    ascent="1638"
    descent="-410"
    x-height="1055"
    cap-height="1434"
    bbox="-399 -748 5122 2267"
    underline-thickness="167"
    underline-position="-465"
    unicode-range="U+000A-2913"
  />
<missing-glyph horiz-adv-x="1007" 
d="M326 481q0 -69 40 -117.5t109 -48.5q65 0 108.5 45.5t43.5 110.5l-37 21q-14 8 -33 -3l-8 -8q-7 -6 -18 -6t-19 6l-4 4q-20 16 -37 2l-6 -6q-7 -6 -18.5 -5.5t-18.5 7.5l-10 11q-18 15 -37 2l-21 -17q-18 -11 -34 2zM326 954q0 -69 40 -117.5t109 -48.5q65 0 108.5 45.5
t43.5 110.5l-37 21q-15 9 -33 -2l-8 -9q-7 -6 -18.5 -5.5t-18.5 7.5l-4 2q-7 7 -18.5 8t-18.5 -5l-6 -7q-7 -6 -18.5 -5.5t-18.5 7.5l-10 11q-18 15 -37 2l-21 -15q-17 -14 -34 0zM772 1362h-534v-1290h534v1290zM844 0h-678v1434h678v-1434zM672 309l-47 39
q-59 -76 -154 -76q-79 0 -135.5 56.5t-56.5 136.5q0 79 56.5 135.5t135.5 56.5q51 0 98 -26l39 47q8 8 15 0q3 -2 4 -6.5t-2 -7.5l-37 -46q53 -41 71 -106l60 6q12 0 12 -10t-10 -10l-59 -6q2 -8 2 -27q0 -49 -27 -98l49 -41q3 -1 3.5 -6.5t-1.5 -8.5q-6 -5 -16 -2zM672 784
l-47 37q-59 -76 -154 -76q-79 0 -135.5 56.5t-56.5 136.5t56.5 136t135.5 56q56 0 98 -26l39 47q6 6 15 2q8 -8 2 -16l-37 -45q52 -40 71 -107l60 6q12 0 12 -10t-10 -10l-59 -6q2 -8 2 -27q0 -49 -27 -98l49 -39q6 -6 2 -17q-6 -6 -16 0z" />
    <glyph glyph-name=".notdef" horiz-adv-x="1007" 
d="M326 481q0 -69 40 -117.5t109 -48.5q65 0 108.5 45.5t43.5 110.5l-37 21q-14 8 -33 -3l-8 -8q-7 -6 -18 -6t-19 6l-4 4q-20 16 -37 2l-6 -6q-7 -6 -18.5 -5.5t-18.5 7.5l-10 11q-18 15 -37 2l-21 -17q-18 -11 -34 2zM326 954q0 -69 40 -117.5t109 -48.5q65 0 108.5 45.5
t43.5 110.5l-37 21q-15 9 -33 -2l-8 -9q-7 -6 -18.5 -5.5t-18.5 7.5l-4 2q-7 7 -18.5 8t-18.5 -5l-6 -7q-7 -6 -18.5 -5.5t-18.5 7.5l-10 11q-18 15 -37 2l-21 -15q-17 -14 -34 0zM772 1362h-534v-1290h534v1290zM844 0h-678v1434h678v-1434zM672 309l-47 39
q-59 -76 -154 -76q-79 0 -135.5 56.5t-56.5 136.5q0 79 56.5 135.5t135.5 56.5q51 0 98 -26l39 47q8 8 15 0q3 -2 4 -6.5t-2 -7.5l-37 -46q53 -41 71 -106l60 6q12 0 12 -10t-10 -10l-59 -6q2 -8 2 -27q0 -49 -27 -98l49 -41q3 -1 3.5 -6.5t-1.5 -8.5q-6 -5 -16 -2zM672 784
l-47 37q-59 -76 -154 -76q-79 0 -135.5 56.5t-56.5 136.5t56.5 136t135.5 56q56 0 98 -26l39 47q6 6 15 2q8 -8 2 -16l-37 -45q52 -40 71 -107l60 6q12 0 12 -10t-10 -10l-59 -6q2 -8 2 -27q0 -49 -27 -98l49 -39q6 -6 2 -17q-6 -6 -16 0z" />
    <glyph glyph-name="uni0000" horiz-adv-x="512" 
 />
    <glyph glyph-name="uni0000" horiz-adv-x="512" 
 />
    <glyph glyph-name="uni000D" unicode="&#xd;" horiz-adv-x="1228" 
 />
    <glyph glyph-name="uni000A" unicode="&#xa;" horiz-adv-x="512" 
 />
    <glyph glyph-name="space" unicode=" " horiz-adv-x="428" 
 />
    <glyph glyph-name="exclam" unicode="!" horiz-adv-x="665" 
d="M129 1464h408v-336q-2 -30 -26.5 -342t-27.5 -335h-301q-1 19 -26.5 341.5t-26.5 335.5v336zM147 360h371v-360h-371v360z" />
    <glyph glyph-name="quotedbl" unicode="&#x22;" horiz-adv-x="1099" 
d="M129 1434h363v-670h-316zM608 1434h363l-47 -670h-316v670z" />
    <glyph glyph-name="numbersign" unicode="#" horiz-adv-x="1710" 
d="M1018 856h-289l-39 -278h291zM1036 1149l39 285h346l-37 -285h197v-293h-233l-39 -278h217v-291h-252l-37 -287h-348l37 287h-254l-37 -287h-348l39 287h-197v291h231l39 278h-215v293h250l39 285h346l-37 -285h254z" />
    <glyph glyph-name="dollar" unicode="$" horiz-adv-x="1425" 
d="M557 -219l12 199q-209 34 -337 163t-150 363h391q27 -221 266 -221q45 0 84 10t70 40t31 77q0 20 -6 37t-19.5 30.5t-27 24.5t-35.5 20t-38 15t-42.5 12.5t-40 9.5t-39.5 8t-33 6q-67 13 -113.5 24t-106.5 30t-100.5 40.5t-83 55.5t-68 74.5t-42 96.5t-16.5 124
q0 98 36.5 177t101 130.5t143.5 82.5t173 44l-12 195h313l-12 -197q199 -32 320.5 -151.5t144.5 -327.5h-393q-27 174 -228 174q-72 0 -122 -28.5t-50 -92.5q0 -27 13 -49.5t38.5 -38.5t49 -27t60.5 -19.5t56.5 -12.5t51.5 -9q63 -10 112.5 -21t108 -29.5t102.5 -41
t87 -56.5t70.5 -75.5t44.5 -98t17 -124.5q0 -107 -39 -190t-108.5 -135t-152 -82t-181.5 -42l12 -194h-313z" />
    <glyph glyph-name="percent" unicode="%" horiz-adv-x="1966" 
d="M1315 1434h303l-969 -1434h-303zM459 1257q-65 0 -99 -57.5t-36 -161.5q2 -103 36 -160t99 -57q64 0 98.5 57.5t34.5 159.5q0 104 -34.5 161.5t-98.5 57.5zM459 1464q177 0 277 -114.5t100 -311.5q0 -195 -100 -310.5t-277 -115.5t-277 115.5t-100 310.5q0 197 100 311.5
t277 114.5zM1505 614q-64 0 -98.5 -57.5t-34.5 -161.5q0 -102 34.5 -159.5t98.5 -57.5q65 0 99 57t34 160q0 104 -34 161.5t-99 57.5zM1505 821q177 0 277 -114.5t100 -311.5q0 -195 -100 -310.5t-277 -115.5t-277 115.5t-100 310.5q0 197 100 311.5t277 114.5z" />
    <glyph glyph-name="ampersand" unicode="&#x26;" horiz-adv-x="1548" 
d="M639 287q56 0 115 35l-195 225q-72 -61 -72 -123q0 -67 41.5 -102t110.5 -35zM705 1194q-50 0 -77.5 -30t-27.5 -81q0 -80 76 -168q61 44 96 85.5t35 89.5q0 50 -27.5 77t-74.5 27zM1030 520l387 328l2 -383l-196 -160l272 -305h-467l-70 82q-95 -58 -186 -85.5
t-205 -27.5q-219 0 -352 107.5t-133 304.5q0 238 272 405q-118 150 -118 299q0 79 27.5 143.5t73.5 107.5t108 72.5t129 42.5t139 13q94 0 173 -21t141 -63t97 -111t35 -159q0 -65 -26.5 -128t-71.5 -113.5t-93 -90t-102 -71.5z" />
    <glyph glyph-name="quotesingle" unicode="'" horiz-adv-x="665" 
d="M129 1434h408l-48 -670h-315z" />
    <glyph glyph-name="parenleft" unicode="(" horiz-adv-x="811" 
d="M391 1561h291q-119 -206 -184.5 -451t-65.5 -483q0 -239 65.5 -484.5t184.5 -451.5h-291q-151 205 -237 449t-86 487q0 242 86 485t237 449z" />
    <glyph glyph-name="parenright" unicode=")" horiz-adv-x="811" 
d="M129 1561h291q150 -207 236.5 -450t86.5 -484q0 -242 -86.5 -485.5t-236.5 -450.5h-291q118 205 183 450.5t65 485.5q0 238 -65 483.5t-183 450.5z" />
    <glyph glyph-name="asterisk" unicode="*" horiz-adv-x="1032" 
d="M625 1434l217 -127l-135 -197l237 14v-252l-235 19l129 -201l-215 -123l-109 215l-104 -215l-217 127l135 199l-240 -16l2 251l236 -20l-129 201l213 125l110 -215z" />
    <glyph glyph-name="plus" unicode="+" horiz-adv-x="1339" 
d="M502 1135h334v-381h372v-322h-372v-381h-334v381h-373v322h373v381z" />
    <glyph glyph-name="comma" unicode="," horiz-adv-x="628" 
d="M129 360h371v-245q0 -184 -111.5 -304t-298.5 -147l-47 123q108 28 172.5 82.5t77.5 130.5h-164v360z" />
    <glyph glyph-name="hyphen" unicode="-" horiz-adv-x="1060" 
d="M129 438v312h803v-312h-803z" />
    <glyph glyph-name="period" unicode="." horiz-adv-x="628" 
d="M129 0v360h371v-360h-371z" />
    <glyph glyph-name="slash" unicode="/" horiz-adv-x="1056" 
d="M653 1651h402l-656 -1870h-399z" />
    <glyph glyph-name="zero" unicode="0" horiz-adv-x="1439" 
d="M721 1137q-124 0 -193 -112t-69 -308t69 -308t193 -112q123 0 192.5 112t69.5 308t-69.5 308t-192.5 112zM721 1464q132 0 241 -39t184.5 -107.5t127.5 -163.5t76 -204.5t24 -232.5t-24 -232.5t-76 -204.5t-127.5 -164t-184.5 -108t-241 -39t-241 39t-184.5 108
t-127.5 164t-76 204.5t-24 232.5t24 232.5t76 204.5t127.5 163.5t184.5 107.5t241 39z" />
    <glyph glyph-name="one" unicode="1" horiz-adv-x="919" 
d="M424 1434h326v-1434h-392v870h-290v308h94q131 0 196.5 71t65.5 185z" />
    <glyph glyph-name="two" unicode="2" horiz-adv-x="1304" 
d="M672 1464q87 0 166.5 -16t150 -50.5t121.5 -85.5t81 -126t30 -166q0 -150 -84.5 -255t-245.5 -187q-63 -33 -104 -56t-99 -60t-98 -73.5t-62 -71.5h709v-317h-1167v117q0 100 25 184.5t64.5 147t104 120.5t128 99t151.5 88q14 8 51.5 28t51 28t44.5 26t43.5 27.5t34.5 26
t31.5 29t21 28.5t15.5 32.5t4 34.5q0 65 -48 99t-122 34q-91 0 -147 -55t-64 -146h-391q21 249 184 382.5t420 133.5z" />
    <glyph glyph-name="three" unicode="3" horiz-adv-x="1353" 
d="M688 1483q89 0 169 -15.5t150.5 -48.5t121.5 -81t80.5 -117t29.5 -152q0 -112 -59 -194.5t-158 -120.5q127 -31 195.5 -116.5t68.5 -213.5q0 -92 -34.5 -168.5t-93 -129t-137.5 -88.5t-165 -52.5t-178 -16.5q-278 0 -440 146.5t-170 382.5h374q4 -94 71 -154.5t163 -60.5
q92 0 148.5 45.5t56.5 130.5q0 78 -56.5 118.5t-162.5 40.5h-144v254h119q36 0 71.5 7.5t68.5 23.5t53 45t20 68q0 70 -46 110.5t-134 40.5q-82 0 -133.5 -45t-59.5 -118l-368 -3q17 221 171 351.5t408 130.5z" />
    <glyph glyph-name="four" unicode="4" horiz-adv-x="1421" 
d="M784 586v448l-292 -448h292zM68 500l620 934h488v-848h176v-324h-176v-262h-392v262h-716v238z" />
    <glyph glyph-name="five" unicode="5" horiz-adv-x="1325" 
d="M1186 1434v-318h-658l-32 -244q116 82 290 82q212 0 343 -127.5t131 -351.5q0 -103 -31.5 -187.5t-86 -143t-129.5 -98.5t-161 -58.5t-182 -18.5q-91 0 -173.5 15.5t-158.5 50.5t-132.5 88t-93.5 132.5t-44 178.5h391q26 -158 209 -158q91 0 153 55.5t62 147.5
t-59.5 147.5t-153.5 55.5q-63 0 -118.5 -31t-82.5 -86h-391l108 869h1000z" />
    <glyph glyph-name="six" unicode="6" horiz-adv-x="1331" 
d="M688 666q-82 0 -136 -50t-54 -133q0 -88 52.5 -138t137.5 -50q83 0 134.5 50t51.5 136q0 84 -51.5 134.5t-134.5 50.5zM762 936q219 0 358.5 -122t139.5 -349q0 -116 -45 -211.5t-122 -157t-178 -94.5t-215 -33q-301 0 -466.5 180.5t-165.5 518.5q0 135 22.5 253t72 219
t123 172.5t180.5 112.5t239 41q229 0 373 -115t182 -333h-365q-36 123 -188 123q-114 0 -173.5 -84t-64.5 -215q117 94 293 94z" />
    <glyph glyph-name="seven" unicode="7" horiz-adv-x="1245" 
d="M1176 1434v-291q-233 -251 -338 -521t-105 -622h-407q0 291 117 583.5t321 532.5h-696v318h1108z" />
    <glyph glyph-name="eight" unicode="8" horiz-adv-x="1423" 
d="M711 285q58 0 108.5 15t88.5 55t38 100q0 84 -72 126t-163 42t-162.5 -42t-71.5 -126q0 -60 37.5 -100t88 -55t108.5 -15zM711 1149q-38 0 -71 -7t-64 -22t-49.5 -44.5t-18.5 -69.5q0 -134 203 -134q204 0 204 134q0 40 -18 69.5t-49 44.5t-65 22t-72 7zM711 1464
q90 0 172 -12.5t160 -42.5t134.5 -75.5t91 -116t34.5 -158.5q0 -107 -59.5 -184t-153.5 -113q119 -37 192.5 -134.5t73.5 -226.5q0 -99 -40.5 -176t-104.5 -124t-151.5 -78t-172.5 -42.5t-176 -11.5q-92 0 -177 11.5t-172 42.5t-150.5 78t-103.5 124t-40 176q0 129 73 226.5
t193 134.5q-94 36 -153.5 113t-59.5 184q0 88 34.5 158.5t91 116t134 75.5t159.5 42.5t171 12.5z" />
    <glyph glyph-name="nine" unicode="9" horiz-adv-x="1331" 
d="M643 1141q-83 0 -134.5 -50.5t-51.5 -136.5q0 -85 51.5 -134.5t134.5 -49.5q81 0 134.5 49t53.5 133q0 87 -52 138t-136 51zM631 1466q300 0 465.5 -180.5t165.5 -519.5q0 -169 -37 -310.5t-111.5 -252t-199 -172.5t-287.5 -62q-230 0 -374.5 115.5t-182.5 333.5h364
q39 -125 191 -125q113 0 171.5 84.5t63.5 216.5q-117 -94 -291 -94q-143 0 -253.5 51t-178 159t-67.5 261q0 154 77.5 268.5t203 170.5t280.5 56z" />
    <glyph glyph-name="colon" unicode=":" horiz-adv-x="628" 
d="M129 760v362h371v-362h-371zM129 0v360h371v-360h-371z" />
    <glyph glyph-name="semicolon" unicode=";" horiz-adv-x="628" 
d="M131 1122h369v-360h-369v360zM129 360h371v-245q0 -184 -111.5 -304t-298.5 -147l-47 123q219 57 250 213h-164v360z" />
    <glyph glyph-name="less" unicode="&#x3c;" horiz-adv-x="1157" 
d="M1028 1276v-369l-545 -190l545 -189v-370l-940 403v311z" />
    <glyph glyph-name="equal" unicode="=" horiz-adv-x="1236" 
d="M129 678v287h977v-287h-977zM129 219v287h977v-287h-977z" />
    <glyph glyph-name="greater" unicode="&#x3e;" horiz-adv-x="1157" 
d="M129 1276l940 -404v-311l-940 -403v370l545 189l-545 190v369z" />
    <glyph glyph-name="question" unicode="?" horiz-adv-x="1259" 
d="M653 1464q89 0 167 -14t146.5 -45.5t117.5 -78t77.5 -115.5t28.5 -154q0 -73 -25.5 -129.5t-68.5 -94t-87 -66t-95 -62t-80 -64.5q-56 -56 -56 -139v-58h-329v39q0 219 118 334q33 32 94 71t90 71t29 81q0 55 -41 86t-104 31q-95 0 -141.5 -56.5t-51.5 -148.5h-374
q17 267 164.5 389.5t420.5 122.5zM428 360h369v-360h-369v360z" />
    <glyph glyph-name="at" unicode="@" horiz-adv-x="1896" 
d="M928 811q-79 0 -119.5 -60.5t-40.5 -144.5q0 -80 42 -142.5t118 -62.5q78 0 117.5 61.5t39.5 143.5q0 52 -15 97t-52 76.5t-90 31.5zM874 1036q129 0 203 -86l13 76h231v-448q0 -67 24 -112.5t76 -45.5q50 0 81.5 31t42.5 73t11 94q0 168 -78 307t-214 218.5t-301 79.5
t-302.5 -74t-219 -209.5t-81.5 -304.5q0 -289 172.5 -450.5t468.5 -161.5q207 0 359 92v-260q-166 -74 -383 -74q-195 0 -360 58t-283.5 164.5t-185 265.5t-66.5 354q0 186 69 345t187 267t278 168.5t340 60.5q175 0 332 -61t272 -167t182.5 -259t67.5 -328
q0 -103 -23.5 -187t-72 -149t-129 -101t-188.5 -36q-70 0 -136.5 34.5t-107.5 98.5q-44 -65 -112.5 -99t-151.5 -34q-115 0 -203 62.5t-131 159t-43 208.5q0 85 23.5 161.5t67.5 137t114.5 96t156.5 35.5z" />
    <glyph glyph-name="A" unicode="A" horiz-adv-x="1550" 
d="M926 559l-152 483l-153 -483h305zM20 0l512 1434h486l512 -1434h-432l-80 250h-488l-81 -250h-429z" />
    <glyph glyph-name="B" unicode="B" horiz-adv-x="1394" 
d="M745 588h-223v-301h221q207 0 207 151q0 83 -54.5 116.5t-150.5 33.5zM709 1147h-187v-268h189q176 0 176 133q0 40 -14 67.5t-40 41.5t-56 20t-68 6zM131 1434h690q68 0 130.5 -12t122.5 -41t103.5 -72t70 -110t26.5 -150q0 -105 -51 -186t-146 -120q117 -35 183.5 -123
t66.5 -223q0 -107 -36.5 -186t-102.5 -124t-148 -66t-184 -21h-725v1434z" />
    <glyph glyph-name="C" unicode="C" horiz-adv-x="1546" 
d="M778 1464q300 0 487 -162t212 -450h-394q-14 128 -94 208.5t-213 80.5q-65 0 -118.5 -24.5t-89.5 -65t-61 -95.5t-36.5 -115t-11.5 -124t11.5 -124t36.5 -115t61 -95.5t89.5 -65t118.5 -24.5q133 0 213 80.5t94 210.5h394q-25 -290 -212 -452.5t-487 -162.5
q-165 0 -300 56.5t-224 156.5t-137.5 237t-48.5 298q0 217 83 385t245 265t382 97z" />
    <glyph glyph-name="D" unicode="D" horiz-adv-x="1501" 
d="M657 1116h-137v-799h137q202 0 300 104t98 296q0 191 -98 295t-300 104zM670 1434q170 0 309 -44.5t241 -132t158 -225t56 -315.5t-56 -315.5t-158 -225t-241 -132t-309 -44.5h-541v1434h541z" />
    <glyph glyph-name="E" unicode="E" 
d="M129 1434h1030v-318h-639v-235h596v-320h-596v-244h639v-317h-1030v1434z" />
    <glyph glyph-name="F" unicode="F" 
d="M129 1434h1030v-318h-639v-264h594v-320h-594v-532h-391v1434z" />
    <glyph glyph-name="G" unicode="G" horiz-adv-x="1564" 
d="M760 508v285h737v-793h-250l-26 166q-147 -197 -443 -197q-165 0 -300 56.5t-224 156.5t-137.5 237t-48.5 298q0 217 83 385t245 265t382 97q283 0 468.5 -143.5t221.5 -398.5h-399q-25 104 -101 161.5t-192 57.5q-65 0 -118.5 -24.5t-89.5 -65t-61 -95.5t-36.5 -115
t-11.5 -124t12 -124t38.5 -115t65 -95.5t95.5 -65t127 -24.5q116 0 189 57.5t99 157.5h-325z" />
    <glyph glyph-name="H" unicode="H" horiz-adv-x="1501" 
d="M981 1434h391v-1434h-391v563h-461v-563h-391v1434h391v-551h461v551z" />
    <glyph glyph-name="I" unicode="I" horiz-adv-x="649" 
d="M129 0v1434h391v-1434h-391z" />
    <glyph glyph-name="J" unicode="J" horiz-adv-x="1261" 
d="M762 1434h391v-916q0 -268 -146.5 -408.5t-408.5 -140.5q-251 0 -390.5 145t-139.5 392h356q5 -100 44 -156.5t128 -56.5q87 0 126.5 60t39.5 153v928z" />
    <glyph glyph-name="K" unicode="K" horiz-adv-x="1546" 
d="M1012 0l-336 528l-156 -170v-358h-391v1434h391v-547l453 547h487l-518 -615l535 -819h-465z" />
    <glyph glyph-name="L" unicode="L" horiz-adv-x="1226" 
d="M129 1434h391v-1117h639v-317h-1030v1434z" />
    <glyph glyph-name="M" unicode="M" horiz-adv-x="2017" 
d="M1339 1434h547v-1434h-391v909l-336 -909h-303l-336 909v-909h-391v1434h547l332 -887z" />
    <glyph glyph-name="N" unicode="N" horiz-adv-x="1515" 
d="M995 1434h394v-1434h-420l-449 774v-774h-391v1434h414l452 -818v818z" />
    <glyph glyph-name="O" unicode="O" horiz-adv-x="1589" 
d="M795 1137q-87 0 -153 -34t-105.5 -93t-58.5 -133t-19 -160t19 -160t58.5 -133t105.5 -93t153 -34t153 34t104 93t57 132.5t19 160.5t-19 160.5t-57 132.5t-104 93t-153 34zM795 1464q139 0 256.5 -37.5t203.5 -105t146 -161t89.5 -205.5t29.5 -238q0 -157 -47.5 -292.5
t-137 -237.5t-228.5 -160t-312 -58q-140 0 -258 38t-203.5 105.5t-146 161t-90 206t-29.5 237.5q0 126 29.5 238t90 205.5t146 161t203.5 105t258 37.5z" />
    <glyph glyph-name="P" unicode="P" horiz-adv-x="1388" 
d="M737 1116h-211v-332h211q82 0 136.5 41.5t54.5 124.5q0 84 -52 125t-139 41zM129 1434h623q127 0 229 -28t179 -85t119 -151.5t42 -219.5q0 -102 -28 -183.5t-77.5 -136.5t-121.5 -91.5t-156.5 -53t-185.5 -16.5h-226v-469h-397v1434z" />
    <glyph glyph-name="Q" unicode="Q" horiz-adv-x="1589" 
d="M705 485l239 172l135 -184q49 104 49 244q0 87 -19 160.5t-57 132.5t-104 93t-153 34t-153 -34t-105.5 -93t-58.5 -133t-19 -160t19 -159.5t58.5 -132.5t105.5 -92.5t153 -33.5q29 0 43 2zM1223 -236l-174 242q-112 -37 -254 -37q-140 0 -258 38t-203.5 105.5t-146 161
t-90 206t-29.5 237.5q0 126 29.5 238t90 205.5t146 161t203.5 105t258 37.5q139 0 256.5 -37.5t203.5 -105t146 -161t89.5 -205.5t29.5 -238q0 -169 -54 -313t-159 -246l157 -219z" />
    <glyph glyph-name="R" unicode="R" horiz-adv-x="1386" 
d="M737 1116h-211v-332h211q82 0 136.5 41.5t54.5 124.5q0 84 -52 125t-139 41zM881 0l-248 469h-107v-469h-397v1434h623q127 0 229 -28t179 -85t119 -151.5t42 -219.5q0 -332 -283 -436l283 -514h-440z" />
    <glyph glyph-name="S" unicode="S" horiz-adv-x="1392" 
d="M686 1464q263 0 429 -122.5t190 -368.5h-392q-27 176 -227 176q-73 0 -122.5 -29t-49.5 -94q0 -27 13 -49.5t38 -38.5t49 -27t60.5 -19.5t56 -12.5t51.5 -9q62 -10 112.5 -20.5t108.5 -29t102.5 -41t87.5 -57t70.5 -76t44.5 -98t17 -124.5q0 -101 -36 -180.5t-95 -130
t-140.5 -84t-165.5 -47t-177 -13.5q-133 0 -242 31t-195 94t-139 167.5t-67 244.5h391q27 -219 266 -219q46 0 84 9.5t69 39t31 76.5q0 20 -6 37.5t-19.5 31.5t-26.5 25t-36 20.5t-37.5 15.5t-42.5 12.5t-39.5 9t-39.5 8t-33 6.5q-66 12 -113 23t-107 29.5t-101 40t-83.5 55
t-68 74.5t-42 97.5t-16.5 124.5q0 93 34 168.5t90.5 125.5t133 84t159 49t171.5 15z" />
    <glyph glyph-name="T" unicode="T" horiz-adv-x="1398" 
d="M68 1434h1261v-318h-434v-1116h-393v1116h-434v318z" />
    <glyph glyph-name="U" unicode="U" horiz-adv-x="1449" 
d="M948 1434h391v-899q0 -139 -47.5 -248.5t-131 -178t-194 -104t-241.5 -35.5t-242 35.5t-195 104t-131.5 178t-47.5 248.5v899h391v-883q0 -126 58 -192t167 -66q108 0 165.5 66.5t57.5 191.5v883z" />
    <glyph glyph-name="V" unicode="V" horiz-adv-x="1558" 
d="M1126 1434h412l-487 -1434h-541l-487 1434h411l346 -1035z" />
    <glyph glyph-name="W" unicode="W" horiz-adv-x="2134" 
d="M1708 1434h403l-372 -1434h-463l-209 877l-211 -877h-463l-373 1434h404l223 -961l232 961h374l232 -961z" />
    <glyph glyph-name="X" unicode="X" horiz-adv-x="1640" 
d="M1092 1434h458l-444 -709l450 -725h-458l-277 481l-280 -481h-459l453 725l-445 709h459l272 -469z" />
    <glyph glyph-name="Y" unicode="Y" horiz-adv-x="1447" 
d="M985 1434h440l-505 -969v-465h-392v465l-508 969h441l262 -578z" />
    <glyph glyph-name="Z" unicode="Z" horiz-adv-x="1357" 
d="M115 1434h1134v-306l-676 -811h697v-317h-1182v305l660 811h-633v318z" />
    <glyph glyph-name="bracketleft" unicode="[" horiz-adv-x="841" 
d="M129 1561h584v-304h-215v-1263h215v-303h-584v1870z" />
    <glyph glyph-name="backslash" unicode="\" horiz-adv-x="1056" 
d="M401 1651l654 -1870h-402l-653 1870h401z" />
    <glyph glyph-name="bracketright" unicode="]" horiz-adv-x="841" 
d="M129 1561h584v-1870h-584v303h215v1263h-215v304z" />
    <glyph glyph-name="asciicircum" unicode="^" horiz-adv-x="931" 
d="M311 1434h310l221 -600h-277l-100 335l-98 -335h-279z" />
    <glyph glyph-name="underscore" unicode="_" horiz-adv-x="1138" 
d="M129 -313v282h881v-282h-881z" />
    <glyph glyph-name="grave" unicode="`" horiz-adv-x="720" 
d="M88 1495h332l213 -321h-283z" />
    <glyph glyph-name="a" unicode="a" horiz-adv-x="1257" 
d="M563 399q-73 -15 -112 -39.5t-39 -70.5q0 -94 125 -94q87 0 154 57t67 133v66q-31 -15 -82 -27zM430 602q185 27 246 35q43 8 62.5 20.5t19.5 34.5q0 131 -137 131q-66 0 -107.5 -32t-50.5 -95h-344q55 389 493 389q114 0 200.5 -22t154 -71.5t102.5 -136t35 -208.5v-338
q0 -52 13 -75t54 -23h21v-242h-154q-87 0 -147.5 41t-81.5 123q-75 -90 -167 -127t-206 -37q-78 0 -143.5 17.5t-118 52.5t-82 95t-29.5 140t28.5 139.5t81.5 96.5t114.5 58t142.5 34z" />
    <glyph glyph-name="b" unicode="b" horiz-adv-x="1320" 
d="M690 795q-113 0 -177 -77.5t-64 -189.5q0 -110 63.5 -188t177.5 -78q113 0 175.5 76t62.5 190q0 73 -23.5 131.5t-79 97t-135.5 38.5zM764 1085q120 0 217 -44t158.5 -120.5t94 -176.5t32.5 -216q0 -154 -61 -280.5t-178.5 -202.5t-270.5 -76q-103 0 -187 38t-139 106
l-20 -113h-322v1434h361v-471q58 60 142 91t173 31z" />
    <glyph glyph-name="c" unicode="c" horiz-adv-x="1218" 
d="M623 1085q217 0 360 -113t178 -317h-342q-13 76 -65 117t-131 41q-58 0 -102 -23.5t-69 -65t-37 -90.5t-12 -106q0 -58 12 -107t37 -89.5t68.5 -64t102.5 -23.5q79 0 131 40t65 115h342q-35 -204 -178 -317t-360 -113q-164 0 -293.5 70t-203 198t-73.5 291
q0 246 160.5 401.5t409.5 155.5z" />
    <glyph glyph-name="d" unicode="d" horiz-adv-x="1320" 
d="M629 795q-117 0 -177.5 -77t-60.5 -190q0 -114 62.5 -190t175.5 -76q114 0 178.5 78t64.5 188q0 112 -64 189.5t-179 77.5zM555 1085q89 0 173.5 -31t143.5 -91v471h359v-1434h-322l-20 113q-55 -68 -138.5 -106t-185.5 -38q-154 0 -272 76t-179 202.5t-61 280.5
q0 116 32.5 216t94 176.5t158.5 120.5t217 44z" />
    <glyph glyph-name="e" unicode="e" 
d="M625 815q-83 0 -132 -49t-65 -127h403q-39 176 -206 176zM625 1085q183 0 319.5 -85t200.5 -234q65 -158 37 -338h-756q13 -89 66 -142t147 -53q148 0 197 101h335q-41 -125 -122 -208.5t-183.5 -120t-228.5 -36.5q-166 0 -299 69t-209 197t-76 293q0 245 161 401
t411 156z" />
    <glyph glyph-name="f" unicode="f" horiz-adv-x="796" 
d="M569 1464q90 0 172 -28v-260q-36 12 -86 12q-54 0 -83 -29.5t-29 -71.5v-32h196v-287h-196v-768h-369v768h-154v287h154v61q0 69 21 128.5t65 110t123.5 80t185.5 29.5z" />
    <glyph glyph-name="g" unicode="g" horiz-adv-x="1253" 
d="M600 793q-102 0 -158.5 -70t-56.5 -168q0 -101 56.5 -165t158.5 -64q103 0 159 65.5t56 163.5q0 100 -57 169t-158 69zM539 1085q200 0 299 -124l24 94h301v-955q0 -149 -40 -259t-114.5 -176.5t-174 -98t-226.5 -31.5q-219 0 -362.5 107t-173.5 309h340q11 -68 59 -107
t123 -39q112 0 167.5 65.5t55.5 186.5v70q-108 -96 -272 -96q-223 0 -357.5 148.5t-134.5 375.5q0 104 33.5 199.5t94.5 169t154 117.5t204 44z" />
    <glyph glyph-name="h" unicode="h" horiz-adv-x="1191" 
d="M737 1085q186 0 286.5 -112t100.5 -289v-684h-368v610q0 170 -144 170q-78 0 -115.5 -58.5t-37.5 -148.5v-573h-371v1434h371v-453q98 104 278 104z" />
    <glyph glyph-name="i" unicode="i" horiz-adv-x="544" 
d="M88 1135v299h371v-299h-371zM88 0v1055h371v-1055h-371z" />
    <glyph glyph-name="j" unicode="j" horiz-adv-x="544" 
d="M88 1434h371v-299h-371v299zM88 1055h369v-1063q0 -114 -23 -196.5t-75 -142t-140 -89t-215 -29.5q-47 0 -121 12v297q36 -8 76 -8q56 0 92.5 36t36.5 89v1094z" />
    <glyph glyph-name="k" unicode="k" horiz-adv-x="1275" 
d="M88 1434h371v-678l293 299h460l-419 -414l438 -641h-434l-269 420l-69 -72v-348h-371v1434z" />
    <glyph glyph-name="l" unicode="l" horiz-adv-x="544" 
d="M88 0v1434h371v-1434h-371z" />
    <glyph glyph-name="m" unicode="m" horiz-adv-x="1808" 
d="M729 1085q219 0 311 -161q49 76 129.5 118.5t186.5 42.5q184 0 283.5 -111t99.5 -288v-686h-369v623q0 75 -34.5 116t-102.5 41t-101.5 -57.5t-33.5 -144.5v-578h-369v623q0 157 -135 157q-69 0 -103 -59t-34 -146v-575h-369v1055h322l18 -111q110 141 301 141z" />
    <glyph glyph-name="n" unicode="n" horiz-adv-x="1191" 
d="M737 1085q186 0 286.5 -112t100.5 -289v-684h-368v610q0 170 -144 170q-78 0 -115.5 -58.5t-37.5 -148.5v-573h-371v1055h322l20 -107q106 137 307 137z" />
    <glyph glyph-name="o" unicode="o" horiz-adv-x="1259" 
d="M629 795q-113 0 -168 -77t-55 -190t55 -189.5t168 -76.5q58 0 102 22t69 60.5t37.5 84.5t12.5 99q0 72 -21 130t-72.5 97.5t-127.5 39.5zM629 1085q252 0 413.5 -155.5t161.5 -401.5q0 -247 -161 -403t-414 -156t-414.5 155.5t-161.5 403.5t161.5 402.5t414.5 154.5z" />
    <glyph glyph-name="p" unicode="p" horiz-adv-x="1320" 
d="M688 793q-114 0 -178 -78.5t-64 -188.5q0 -112 64.5 -189t177.5 -77q61 0 108 21.5t74.5 59.5t41.5 84.5t14 100.5q0 113 -62.5 190t-175.5 77zM754 1085q153 0 270.5 -76.5t178.5 -203t61 -279.5q0 -92 -20 -175t-61.5 -153.5t-100.5 -121.5t-141 -80t-179 -29
q-89 0 -173.5 31.5t-142.5 93.5v-526h-360v1489h322l20 -113q55 68 139 105.5t187 37.5z" />
    <glyph glyph-name="q" unicode="q" horiz-adv-x="1323" 
d="M631 793q-113 0 -175.5 -77t-62.5 -190t60.5 -189.5t177.5 -76.5q115 0 179 77t64 189q0 110 -64.5 188.5t-178.5 78.5zM567 1085q102 0 185.5 -37.5t138.5 -105.5l20 113h322v-1489h-359v526q-59 -62 -143.5 -93.5t-173.5 -31.5q-97 0 -179 29t-141 80t-100.5 121.5
t-61.5 153.5t-20 175q0 154 61 280t179 202.5t272 76.5z" />
    <glyph glyph-name="r" unicode="r" horiz-adv-x="870" 
d="M737 1085q24 0 46.5 -1.5t32.5 -3.5l11 -1v-331q-41 6 -84 6q-124 0 -204 -91t-80 -270v-393h-371v1055h322l32 -178q41 100 119.5 154t175.5 54z" />
    <glyph glyph-name="s" unicode="s" horiz-adv-x="1150" 
d="M561 1085q107 0 196.5 -22.5t159 -67.5t110 -118t44.5 -168h-334q-14 137 -172 137q-55 0 -88 -22t-33 -58q0 -32 19.5 -55t59 -37t74 -21t89.5 -14q70 -10 123 -23.5t108.5 -38.5t91.5 -58.5t58.5 -86t22.5 -119.5q0 -75 -28 -134.5t-75 -98t-113.5 -64t-139 -36.5
t-154.5 -11q-106 0 -196.5 23.5t-162 70.5t-113.5 123.5t-45 175.5h353q8 -155 190 -155q57 0 98 20.5t41 63.5q0 23 -10 41t-32 31.5t-41.5 22.5t-54 17t-53.5 11t-54 9q-13 2 -19 3q-64 11 -117 25.5t-105.5 41t-88 60.5t-58 85t-22.5 114q0 86 41.5 152.5t111 104.5
t150 57t168.5 19z" />
    <glyph glyph-name="t" unicode="t" horiz-adv-x="868" 
d="M223 1366h369v-311h231v-287h-231v-346q0 -79 38.5 -111t121.5 -32q23 0 71 6v-299q-107 -17 -200 -17q-208 0 -304 106t-96 318v375h-176v287h57q119 0 119 114v197z" />
    <glyph glyph-name="u" unicode="u" horiz-adv-x="1191" 
d="M735 1055h369v-1055h-322l-20 106q-55 -71 -129 -104t-178 -33q-184 0 -285.5 112.5t-101.5 289.5v684h370v-611q0 -168 142 -168q80 0 117.5 57.5t37.5 147.5v574z" />
    <glyph glyph-name="v" unicode="v" horiz-adv-x="1275" 
d="M862 1055h393l-376 -1055h-484l-375 1055h394l223 -723z" />
    <glyph glyph-name="w" unicode="w" horiz-adv-x="1818" 
d="M1401 1055h397l-297 -1055h-424l-166 641l-168 -641h-424l-299 1055h398l143 -703l160 703h379l157 -703z" />
    <glyph glyph-name="x" unicode="x" horiz-adv-x="1306" 
d="M825 1055h420l-319 -520l327 -535h-413l-183 350l-184 -350h-420l326 535l-320 520h412l178 -334z" />
    <glyph glyph-name="y" unicode="y" horiz-adv-x="1189" 
d="M592 469l180 586h393l-383 -1086q-25 -80 -47.5 -135.5t-53.5 -107.5t-68.5 -85t-89 -58.5t-117.5 -36.5t-152 -11q-32 0 -98 12v295q33 -10 82 -10q69 0 112.5 36t59.5 93l14 39h-31l-373 1055h396z" />
    <glyph glyph-name="z" unicode="z" horiz-adv-x="1087" 
d="M90 1055h920v-277l-488 -491h500v-287h-959v279l474 489h-447v287z" />
    <glyph glyph-name="braceleft" unicode="{" horiz-adv-x="983" 
d="M600 1114v-164q0 -40 -1 -67t-5.5 -63t-12 -60.5t-22.5 -51t-35.5 -42.5t-51.5 -26.5t-71 -10.5q40 -1 71 -11.5t51.5 -27t35.5 -43t22.5 -51t12 -61t5.5 -63.5t1 -67v-162q0 -78 35 -111.5t113 -33.5h106v-303h-178q-445 0 -445 422v200q0 95 -34.5 131.5t-128.5 36.5
v287q94 0 128.5 36t34.5 132v199q0 215 114.5 319.5t330.5 104.5h178v-303h-106q-78 0 -113 -34.5t-35 -111.5z" />
    <glyph glyph-name="bar" unicode="|" horiz-adv-x="624" 
d="M129 -309v1870h369v-1870h-369z" />
    <glyph glyph-name="braceright" unicode="}" horiz-adv-x="983" 
d="M129 1563h178q216 0 330.5 -104.5t114.5 -319.5v-199q0 -96 34.5 -132t128.5 -36v-287q-94 0 -128.5 -36.5t-34.5 -131.5v-200q0 -422 -445 -422h-178v303h107q78 0 112.5 33.5t34.5 111.5v162q0 40 1 67t5.5 63.5t12 61t22.5 51t35.5 43t51.5 27t71 11.5q-40 0 -71 10.5
t-51.5 26.5t-35.5 42.5t-22.5 51t-12 60.5t-5.5 63t-1 67v164q0 77 -34.5 111.5t-112.5 34.5h-107v303z" />
    <glyph glyph-name="asciitilde" unicode="~" horiz-adv-x="1351" 
d="M475 668q-36 0 -60.5 -13t-36.5 -37.5t-17 -51t-5 -62.5h-268q0 68 10.5 130.5t36 122.5t64 104t98.5 70.5t135 26.5q57 0 112 -19.5t97.5 -47.5t81 -56t77.5 -47.5t74 -19.5q69 0 95 43.5t26 116.5h267q0 -68 -10.5 -130.5t-36 -122.5t-63.5 -104t-97.5 -71t-134.5 -27
q-54 0 -109 20t-99.5 48.5t-85.5 57.5t-80.5 49t-70.5 20z" />
    <glyph glyph-name="uni00A0" unicode="&#xa0;" horiz-adv-x="466" 
 />
    <glyph glyph-name="exclamdown" unicode="&#xa1;" horiz-adv-x="665" 
d="M518 1085v-360h-371v360h371zM483 635q1 -19 27 -342t27 -336v-336h-408v336q1 12 25.5 335t25.5 343h303z" />
    <glyph glyph-name="cent" unicode="&#xa2;" horiz-adv-x="1216" 
d="M496 0v174q-199 39 -320 186t-121 359q0 213 121 360.5t320 186.5v168h231v-164q176 -25 291 -134.5t145 -287.5h-342q-15 75 -66.5 115.5t-129.5 40.5q-58 0 -102 -23.5t-68.5 -65t-36.5 -90.5t-12 -106t12 -106t36.5 -90.5t68.5 -65t102 -23.5q78 0 129.5 41t66.5 117
h342q-30 -180 -144.5 -289.5t-291.5 -134.5v-168h-231z" />
    <glyph glyph-name="sterling" unicode="&#xa3;" horiz-adv-x="1406" 
d="M88 563v230h131q-29 107 -29 188q0 230 146.5 356.5t396.5 126.5q271 0 415 -113t165 -374h-428q-6 94 -43 136t-113 42q-65 0 -102 -42.5t-37 -115.5q0 -39 26 -204h293v-230h-282q-16 -149 -121 -241h813v-322h-1231v279q88 38 137 105.5t49 145.5q0 5 -1 16t-1 17
h-184z" />
    <glyph glyph-name="currency" unicode="&#xa4;" horiz-adv-x="1239" 
d="M621 903q-78 0 -133.5 -54.5t-55.5 -131.5q0 -78 55.5 -133.5t133.5 -55.5q77 0 131.5 55.5t54.5 133.5q0 77 -54.5 131.5t-131.5 54.5zM621 1135q115 0 204 -56l164 158l162 -166l-164 -158q51 -91 51 -196q0 -108 -51 -199l164 -158l-162 -165l-164 157
q-93 -55 -204 -55q-113 0 -209 55l-162 -157l-162 165l164 158q-51 86 -51 199q0 110 51 196l-164 158l162 166l162 -158q98 56 209 56z" />
    <glyph glyph-name="yen" unicode="&#xa5;" horiz-adv-x="1447" 
d="M528 385h-227v207h160l-441 842h441l262 -578l262 578h440l-438 -842h158v-207h-225v-82h225v-207h-225v-96h-392v96h-227v207h227v82z" />
    <glyph glyph-name="brokenbar" unicode="&#xa6;" horiz-adv-x="626" 
d="M129 827v824h369v-824h-369zM129 -219v825h369v-825h-369z" />
    <glyph glyph-name="section" unicode="&#xa7;" horiz-adv-x="1155" 
d="M721 623q27 20 27 55q0 20 -8 36.5t-27 28.5t-34.5 20t-47.5 15.5t-48.5 10.5t-53.5 8.5t-48 7.5q-30 4 -47 8q-26 -23 -26 -55q0 -21 8 -37.5t26.5 -28.5t35 -20t47 -15t48 -10.5t53 -8.5t48.5 -7q8 -1 23.5 -4t23.5 -4zM475 422q-85 13 -147.5 34t-113.5 56.5t-77 91.5
t-26 131q0 97 84 174q-107 83 -107 221q0 87 41.5 154t110.5 105.5t150 57.5t169 19q143 0 253.5 -39.5t180 -126.5t74.5 -213h-332q-14 144 -170 144q-54 0 -89.5 -23t-35.5 -65q0 -22 8 -39.5t27 -30t37 -21t51 -16t55.5 -12t63.5 -10.5q174 -27 268 -99t94 -217
q0 -99 -83 -172q106 -82 106 -221q0 -87 -41.5 -154t-110.5 -105.5t-150 -57.5t-169 -19q-144 0 -254 39t-179.5 125.5t-74.5 212.5h332q14 -141 170 -141q54 0 89.5 23t35.5 65q0 21 -8.5 38.5t-26.5 30t-36.5 21.5t-50.5 16.5t-55.5 12t-62.5 10.5z" />
    <glyph glyph-name="dieresis" unicode="&#xa8;" horiz-adv-x="884" 
d="M485 1182v280h310v-280h-310zM88 1182v280h309v-280h-309z" />
    <glyph glyph-name="copyright" unicode="&#xa9;" horiz-adv-x="1671" 
d="M836 1235q-140 0 -259 -69t-188.5 -188.5t-69.5 -260.5q0 -140 69.5 -259t188.5 -188t259 -69q141 0 260 69t187.5 188t68.5 259q0 141 -69 260.5t-188 188.5t-259 69zM846 1114q158 0 255.5 -84.5t119.5 -234.5h-232q-25 120 -149 120q-76 0 -113 -56.5t-37 -141.5
q0 -84 37.5 -140.5t112.5 -56.5q124 0 149 121h232q-22 -150 -120 -236t-255 -86q-175 0 -287.5 110t-112.5 288t112 287.5t288 109.5zM836 1466q153 0 291.5 -59.5t238.5 -159.5t159.5 -238.5t59.5 -291.5q0 -152 -59.5 -290.5t-159.5 -238.5t-239 -159.5t-291 -59.5
q-203 0 -375 100t-272.5 272.5t-100.5 375.5q0 152 59.5 291t159.5 239t238.5 159.5t290.5 59.5z" />
    <glyph glyph-name="ordfeminine" unicode="&#xaa;" horiz-adv-x="1054" 
d="M479 950q-53 -12 -82.5 -31t-29.5 -53q0 -63 90 -63q63 0 114.5 46t51.5 103v35q-11 -6 -71 -21.5t-73 -15.5zM373 1102q11 2 85 12t101 14q35 5 49.5 13.5t14.5 27.5q0 47 -26.5 71t-74.5 24q-102 0 -114 -93h-277q41 293 385 293q89 0 156.5 -16.5t120.5 -53.5
t80.5 -102.5t27.5 -156.5v-250q0 -37 9 -53.5t40 -16.5h17v-186h-123q-62 0 -109 28.5t-67 83.5q-102 -112 -295 -112q-79 0 -141 21t-103 74t-41 132q0 49 15.5 88t41 64.5t63.5 45t77 30.5t88 18z" />
    <glyph glyph-name="guillemotleft" unicode="&#xab;" horiz-adv-x="1691" 
d="M1122 1237h441l-424 -520l424 -522h-441l-426 522zM514 1237h440l-424 -520l424 -522h-440l-426 522z" />
    <glyph glyph-name="logicalnot" unicode="&#xac;" horiz-adv-x="1425" 
d="M1296 750v-641h-315v325h-854v316h1169z" />
    <glyph glyph-name="uni00AD" unicode="&#xad;" horiz-adv-x="837" 
d="M88 479v230h664v-230h-664z" />
    <glyph glyph-name="registered" unicode="&#xae;" horiz-adv-x="1673" 
d="M836 1235q-140 0 -259 -69t-188.5 -188.5t-69.5 -260.5q0 -140 69.5 -259t188.5 -188t259 -69q141 0 260 69t187.5 188t68.5 259q0 141 -69 260.5t-188 188.5t-259 69zM854 879h-92v-109h92q70 0 70 55q0 54 -70 54zM836 1466q153 0 291.5 -59.5t238.5 -159.5
t159.5 -238.5t59.5 -291.5q0 -152 -59.5 -290.5t-159.5 -238.5t-239 -159.5t-291 -59.5q-203 0 -375 100t-272.5 272.5t-100.5 375.5q0 152 59.5 291t159.5 239t238.5 159.5t290.5 59.5zM532 1069h330q140 0 214.5 -60t74.5 -180q0 -139 -104 -202l122 -258h-239l-92 221
h-76v-221h-230v700z" />
    <glyph glyph-name="macron" unicode="&#xaf;" horiz-adv-x="798" 
d="M88 1227v227h623v-227h-623z" />
    <glyph glyph-name="degree" unicode="&#xb0;" horiz-adv-x="860" 
d="M432 1268q-58 0 -91.5 -36.5t-33.5 -94.5q0 -57 33 -93t90 -36t90 36t33 93t-32 94t-89 37zM428 1466q146 0 244 -91.5t98 -237.5q0 -143 -99 -235.5t-243 -92.5q-145 0 -242.5 91.5t-97.5 236.5q0 146 98 237.5t242 91.5z" />
    <glyph glyph-name="plusminus" unicode="&#xb1;" horiz-adv-x="1314" 
d="M487 1495h338v-371h361v-325h-361v-369h-338v369h-358v325h358v371zM129 0v326h1057v-326h-1057z" />
    <glyph glyph-name="twosuperior" unicode="&#xb2;" horiz-adv-x="765" 
d="M393 1651q61 0 115.5 -14t100.5 -43t73 -81t27 -120q0 -30 -7 -57t-16 -47.5t-28.5 -43t-32.5 -35.5t-41.5 -33t-42.5 -29t-47 -30q-41 -24 -61 -37t-48.5 -36.5t-44.5 -47.5h379v-198h-670v75q0 65 17.5 120.5t42.5 93t66 73t72.5 55.5t76.5 44q9 5 26.5 14.5t26 14
t23 13t21.5 13.5t17.5 13t15.5 14t11 14t8 16t2 17q0 31 -23 48t-61 17q-93 0 -104 -111h-240q12 141 104.5 224.5t241.5 83.5z" />
    <glyph glyph-name="threesuperior" unicode="&#xb3;" horiz-adv-x="788" 
d="M399 1651q142 0 228 -63.5t86 -172.5q0 -58 -27.5 -103.5t-77.5 -68.5q62 -22 96.5 -69.5t34.5 -114.5q0 -86 -51 -146.5t-127 -87t-166 -26.5q-153 0 -247.5 81t-100.5 220h227q3 -49 36 -78t83 -29q103 0 103 84q0 78 -109 78h-86v162h72q41 0 72.5 16.5t31.5 52.5
q0 72 -88 72q-42 0 -67 -21.5t-29 -62.5h-223q7 128 96.5 202.5t232.5 74.5z" />
    <glyph glyph-name="acute" unicode="&#xb4;" horiz-adv-x="720" 
d="M299 1495h334l-262 -321h-283z" />
    <glyph glyph-name="paragraph" unicode="&#xb6;" horiz-adv-x="1421" 
d="M598 1434h694v-1434h-338v1098h-90v-1098h-340v510h-22q-56 0 -113 16.5t-111.5 52.5t-96.5 86.5t-67.5 125.5t-25.5 163q0 116 40.5 209t111 151.5t162 89t196.5 30.5z" />
    <glyph glyph-name="periodcentered" unicode="&#xb7;" horiz-adv-x="630" 
d="M129 537v360h371v-360h-371z" />
    <glyph glyph-name="cedilla" unicode="&#xb8;" horiz-adv-x="630" 
d="M365 0l-23 -80q201 -16 201 -188q0 -114 -76 -169t-199 -55q-42 0 -93.5 12t-86.5 31v170q4 -2 21.5 -8t24.5 -9t23 -8.5t26 -8t23.5 -5.5t25 -4.5t22.5 -1.5q92 0 92 64q0 53 -125 53h-59l63 207h140z" />
    <glyph glyph-name="onesuperior" unicode="&#xb9;" horiz-adv-x="542" 
d="M252 1653h201v-854h-238v516h-168v190q42 0 66 1.5t54 9.5t46 23t27.5 43.5t11.5 70.5z" />
    <glyph glyph-name="ordmasculine" unicode="&#xba;" horiz-adv-x="1064" 
d="M532 1237q-79 0 -115 -54t-36 -136q0 -84 36 -137.5t115 -53.5q80 0 116 53.5t36 137.5q0 83 -36.5 136.5t-115.5 53.5zM532 1464q196 0 320.5 -114t124.5 -303q0 -195 -126 -306.5t-319 -111.5q-196 0 -320 113.5t-124 304.5q0 192 126.5 304.5t317.5 112.5z" />
    <glyph glyph-name="guillemotright" unicode="&#xbb;" horiz-adv-x="1691" 
d="M737 1237h441l426 -520l-426 -522h-441l422 522zM129 1237h440l426 -520l-426 -522h-440l422 522z" />
    <glyph glyph-name="onequarter" unicode="&#xbc;" horiz-adv-x="1724" 
d="M1186 317h157v261zM948 117v145l346 555h289v-500h100v-200h-100v-148h-240v148h-395zM252 1466h201v-854h-238v516h-168v191q30 0 47.5 0.5t42 3.5t39 8.5t31 16.5t25 26.5t14.5 38.5t6 53zM143 0l969 1434h303l-971 -1434h-301z" />
    <glyph glyph-name="onehalf" unicode="&#xbd;" horiz-adv-x="1781" 
d="M252 1466h201v-854h-238v516h-168v191q30 0 47.5 0.5t42 3.5t39 8.5t31 16.5t25 26.5t14.5 38.5t6 53zM143 0l969 1434h303l-971 -1434h-301zM1409 821q61 0 115.5 -14t100 -43t72.5 -81t27 -120q0 -35 -7 -64.5t-25.5 -56t-33 -44t-46.5 -41t-48 -34t-55 -34.5
q-39 -23 -60 -36.5t-49 -37t-44 -47.5h379v-199h-670v76q0 65 17.5 120.5t42.5 93t65.5 72.5t72 55t76.5 44q9 5 26.5 14.5t26 14t23 13t22 13.5t18 13t15.5 14.5t11 14t8 15.5t2 17q0 31 -23 48.5t-61 17.5q-93 0 -104 -111h-240q12 141 104.5 224t241.5 83z" />
    <glyph glyph-name="threequarters" unicode="&#xbe;" horiz-adv-x="1970" 
d="M1432 317h157v261zM1194 117v145l346 555h289v-500h100v-200h-100v-148h-240v148h-395zM399 1464q143 0 228.5 -63t85.5 -172q0 -58 -27.5 -103.5t-77.5 -68.5q62 -22 96.5 -70t34.5 -115q0 -86 -51 -146.5t-127 -87t-166 -26.5q-153 0 -247.5 81t-100.5 220h227
q3 -49 36 -77.5t83 -28.5q103 0 103 84q0 78 -109 78h-86v161h72q41 0 72.5 17t31.5 53q0 72 -88 72q-42 0 -67 -21.5t-29 -62.5h-223q7 128 96.5 202t232.5 74zM389 0l969 1434h303l-971 -1434h-301z" />
    <glyph glyph-name="questiondown" unicode="&#xbf;" horiz-adv-x="1290" 
d="M848 1085v-360h-371v360h371zM827 641v-39q0 -221 -122 -336q-33 -31 -93 -70t-88 -70t-28 -79q0 -57 40 -88t103 -31q95 0 141 57t51 150h377q-18 -269 -165.5 -391.5t-421.5 -122.5q-111 0 -205.5 23.5t-170 71t-118.5 127.5t-43 186q0 53 14.5 98t35.5 75.5t55.5 60.5
t63 48t69.5 44.5t65 43.5q111 76 111 185v57h329z" />
    <glyph glyph-name="Agrave" unicode="&#xc0;" horiz-adv-x="1550" 
d="M621 559h305l-152 483zM449 0h-429l512 1434h486l512 -1434h-432l-80 250h-488zM631 1552l-262 322h331l213 -322h-282z" />
    <glyph glyph-name="Aacute" unicode="&#xc1;" horiz-adv-x="1550" 
d="M621 559h305l-152 483zM449 0h-429l512 1434h486l512 -1434h-432l-80 250h-488zM639 1552l211 322h334l-262 -322h-283z" />
    <glyph glyph-name="Acircumflex" unicode="&#xc2;" horiz-adv-x="1550" 
d="M621 559h305l-152 483zM449 0h-429l512 1434h486l512 -1434h-432l-80 250h-488zM403 1552l215 322h316l215 -322h-262l-111 158l-110 -158h-263z" />
    <glyph glyph-name="Atilde" unicode="&#xc3;" horiz-adv-x="1550" 
d="M621 559h305l-152 483zM449 0h-429l512 1434h486l512 -1434h-432l-80 250h-488zM614 1874q58 0 115 -27t104.5 -53.5t81.5 -26.5q74 0 74 99h205q1 -61 -14 -117.5t-45 -104.5t-81 -77t-116 -29q-46 0 -93 17t-78 37.5t-66.5 37.5t-61.5 17q-38 0 -56 -29.5t-18 -71.5
h-209q2 66 17 122t44 103.5t79.5 75t117.5 27.5z" />
    <glyph glyph-name="Adieresis" unicode="&#xc4;" horiz-adv-x="1550" 
d="M621 559h305l-152 483zM449 0h-429l512 1434h486l512 -1434h-432l-80 250h-488zM731 1561h-309v280h309v-280zM1128 1561h-309v280h309v-280z" />
    <glyph glyph-name="Aring" unicode="&#xc5;" horiz-adv-x="1550" 
d="M621 559h305l-152 483zM776 1798q-31 0 -51 -18.5t-20 -50.5q0 -31 20 -50.5t51 -19.5q30 0 49 20t19 50q0 31 -18.5 50t-49.5 19zM449 0h-429l512 1434h486l512 -1434h-432l-80 250h-488zM776 1950q98 0 165 -61.5t67 -159.5q0 -95 -67.5 -157.5t-164.5 -62.5t-165 62
t-68 158q0 97 67.5 159t165.5 62z" />
    <glyph glyph-name="AE" unicode="&#xc6;" horiz-adv-x="2217" 
d="M1098 1100l-307 -541h307v541zM881 1434h1247v-318h-639v-235h596v-320h-596v-244h639v-317h-1030v250h-457l-149 -250h-469z" />
    <glyph glyph-name="Ccedilla" unicode="&#xc7;" horiz-adv-x="1546" 
d="M649 -207l56 178q-297 26 -467 231t-170 515q0 217 83 385t245 265t382 97q300 0 487 -162t212 -450h-394q-14 128 -94 208.5t-213 80.5q-65 0 -118.5 -24.5t-89.5 -65t-61 -95.5t-36.5 -115t-11.5 -124t11.5 -124t36.5 -115t61 -95.5t89.5 -65t118.5 -24.5
q133 0 213 80.5t94 210.5h394q-23 -273 -191.5 -433.5t-441.5 -179.5l-15 -51q201 -16 201 -188q0 -114 -76 -169t-198 -55q-42 0 -94 12t-87 31v170q4 -2 21.5 -8t24.5 -9t23 -8.5t26 -8t23.5 -5.5t25 -4.5t22.5 -1.5q93 0 93 64q0 53 -125 53h-60z" />
    <glyph glyph-name="Egrave" unicode="&#xc8;" 
d="M129 1434h1030v-318h-639v-235h596v-320h-596v-244h639v-317h-1030v1434zM373 1874h332l213 -322h-283z" />
    <glyph glyph-name="Eacute" unicode="&#xc9;" 
d="M129 1434h1030v-318h-639v-235h596v-320h-596v-244h639v-317h-1030v1434zM582 1874h333l-262 -322h-282z" />
    <glyph glyph-name="Ecircumflex" unicode="&#xca;" 
d="M129 1434h1030v-318h-639v-235h596v-320h-596v-244h639v-317h-1030v1434zM487 1874h316l215 -322h-262l-111 158l-110 -158h-263z" />
    <glyph glyph-name="Edieresis" unicode="&#xcb;" 
d="M129 1434h1030v-318h-639v-235h596v-320h-596v-244h639v-317h-1030v1434zM688 1561v280h309v-280h-309zM291 1561v280h309v-280h-309z" />
    <glyph glyph-name="Igrave" unicode="&#xcc;" horiz-adv-x="649" 
d="M129 0v1434h391v-1434h-391zM-76 1874h332l213 -322h-283z" />
    <glyph glyph-name="Iacute" unicode="&#xcd;" horiz-adv-x="649" 
d="M129 0v1434h391v-1434h-391zM395 1874h334l-262 -322h-283z" />
    <glyph glyph-name="Icircumflex" unicode="&#xce;" horiz-adv-x="649" 
d="M129 0v1434h391v-1434h-391zM168 1874h315l215 -322h-262l-110 158l-111 -158h-262z" />
    <glyph glyph-name="Idieresis" unicode="&#xcf;" horiz-adv-x="649" 
d="M129 0v1434h391v-1434h-391zM369 1561v280h309v-280h-309zM-29 1561v280h310v-280h-310z" />
    <glyph glyph-name="Eth" unicode="&#xd0;" horiz-adv-x="1501" 
d="M657 1116h-137v-287h142v-225h-142v-287h137q202 0 300 104t98 296q0 191 -98 295t-300 104zM129 829v605h541q170 0 309 -44.5t241 -132t158 -225t56 -315.5t-56 -315.5t-158 -225t-241 -132t-309 -44.5h-541v604h-90v225h90z" />
    <glyph glyph-name="Ntilde" unicode="&#xd1;" horiz-adv-x="1515" 
d="M995 1434h394v-1434h-420l-449 774v-774h-391v1434h414l452 -818v818zM598 1874q58 0 115 -27t104.5 -53.5t81.5 -26.5q74 0 74 99h205q1 -61 -14 -117.5t-45 -104.5t-81 -77t-116 -29q-46 0 -93 17t-78 37.5t-66.5 37.5t-61.5 17q-38 0 -56 -29.5t-18 -71.5h-209
q2 66 17 122t44 103.5t79.5 75t117.5 27.5z" />
    <glyph glyph-name="Ograve" unicode="&#xd2;" horiz-adv-x="1589" 
d="M795 1137q-87 0 -153 -34t-105.5 -93t-58.5 -133t-19 -160t19 -160t58.5 -133t105.5 -93t153 -34t153 34t104 93t57 132.5t19 160.5t-19 160.5t-57 132.5t-104 93t-153 34zM795 1464q139 0 256.5 -37.5t203.5 -105t146 -161t89.5 -205.5t29.5 -238q0 -157 -47.5 -292.5
t-137 -237.5t-228.5 -160t-312 -58q-140 0 -258 38t-203.5 105.5t-146 161t-90 206t-29.5 237.5q0 126 29.5 238t90 205.5t146 161t203.5 105t258 37.5zM406 1874h331l213 -322h-282z" />
    <glyph glyph-name="Oacute" unicode="&#xd3;" horiz-adv-x="1589" 
d="M795 1137q-87 0 -153 -34t-105.5 -93t-58.5 -133t-19 -160t19 -160t58.5 -133t105.5 -93t153 -34t153 34t104 93t57 132.5t19 160.5t-19 160.5t-57 132.5t-104 93t-153 34zM795 1464q139 0 256.5 -37.5t203.5 -105t146 -161t89.5 -205.5t29.5 -238q0 -157 -47.5 -292.5
t-137 -237.5t-228.5 -160t-312 -58q-140 0 -258 38t-203.5 105.5t-146 161t-90 206t-29.5 237.5q0 126 29.5 238t90 205.5t146 161t203.5 105t258 37.5zM858 1874h334l-262 -322h-283z" />
    <glyph glyph-name="Ocircumflex" unicode="&#xd4;" horiz-adv-x="1589" 
d="M795 1137q-87 0 -153 -34t-105.5 -93t-58.5 -133t-19 -160t19 -160t58.5 -133t105.5 -93t153 -34t153 34t104 93t57 132.5t19 160.5t-19 160.5t-57 132.5t-104 93t-153 34zM795 1464q139 0 256.5 -37.5t203.5 -105t146 -161t89.5 -205.5t29.5 -238q0 -157 -47.5 -292.5
t-137 -237.5t-228.5 -160t-312 -58q-140 0 -258 38t-203.5 105.5t-146 161t-90 206t-29.5 237.5q0 126 29.5 238t90 205.5t146 161t203.5 105t258 37.5zM422 1552l215 322h315l215 -322h-262l-110 158l-111 -158h-262z" />
    <glyph glyph-name="Otilde" unicode="&#xd5;" horiz-adv-x="1589" 
d="M795 1137q-87 0 -153 -34t-105.5 -93t-58.5 -133t-19 -160t19 -160t58.5 -133t105.5 -93t153 -34t153 34t104 93t57 132.5t19 160.5t-19 160.5t-57 132.5t-104 93t-153 34zM795 1464q139 0 256.5 -37.5t203.5 -105t146 -161t89.5 -205.5t29.5 -238q0 -157 -47.5 -292.5
t-137 -237.5t-228.5 -160t-312 -58q-140 0 -258 38t-203.5 105.5t-146 161t-90 206t-29.5 237.5q0 126 29.5 238t90 205.5t146 161t203.5 105t258 37.5zM633 1874q58 0 115 -27t104.5 -53.5t81.5 -26.5q74 0 74 99h204q1 -61 -14 -117.5t-45 -104.5t-81 -77t-116 -29
q-46 0 -93 17t-78 37.5t-66.5 37.5t-61.5 17q-38 0 -55.5 -29.5t-17.5 -71.5h-209q2 66 17 122t44 103.5t79.5 75t117.5 27.5z" />
    <glyph glyph-name="Odieresis" unicode="&#xd6;" horiz-adv-x="1589" 
d="M795 1137q-87 0 -153 -34t-105.5 -93t-58.5 -133t-19 -160t19 -160t58.5 -133t105.5 -93t153 -34t153 34t104 93t57 132.5t19 160.5t-19 160.5t-57 132.5t-104 93t-153 34zM795 1464q139 0 256.5 -37.5t203.5 -105t146 -161t89.5 -205.5t29.5 -238q0 -157 -47.5 -292.5
t-137 -237.5t-228.5 -160t-312 -58q-140 0 -258 38t-203.5 105.5t-146 161t-90 206t-29.5 237.5q0 126 29.5 238t90 205.5t146 161t203.5 105t258 37.5zM838 1561v280h309v-280h-309zM440 1561v280h310v-280h-310z" />
    <glyph glyph-name="multiply" unicode="&#xd7;" horiz-adv-x="1259" 
d="M891 1094l237 -240l-262 -262l264 -260l-237 -240l-262 260l-262 -262l-240 238l264 264l-264 262l238 240l262 -263z" />
    <glyph glyph-name="Oslash" unicode="&#xd8;" horiz-adv-x="1589" 
d="M494 510l450 594q-68 33 -149 33q-87 0 -153 -34t-105.5 -93t-58.5 -133t-19 -160q0 -114 35 -207zM1096 926l-453 -594q62 -35 152 -35q87 0 153 34t104 93t57 132.5t19 160.5q0 121 -32 209zM369 -31h-287l168 221q-182 203 -182 527q0 126 29.5 238t90 205.5t146 161
t203.5 105t258 37.5q207 0 362 -82l64 82h284l-168 -219q183 -204 183 -528q0 -157 -47.5 -292.5t-137 -237.5t-228.5 -160t-312 -58q-210 0 -365 82z" />
    <glyph glyph-name="Ugrave" unicode="&#xd9;" horiz-adv-x="1449" 
d="M948 1434h391v-899q0 -139 -47.5 -248.5t-131 -178t-194 -104t-241.5 -35.5t-242 35.5t-195 104t-131.5 178t-47.5 248.5v899h391v-883q0 -126 58 -192t167 -66q108 0 165.5 66.5t57.5 191.5v883zM453 1874h331l213 -322h-282z" />
    <glyph glyph-name="Uacute" unicode="&#xda;" horiz-adv-x="1449" 
d="M948 1434h391v-899q0 -139 -47.5 -248.5t-131 -178t-194 -104t-241.5 -35.5t-242 35.5t-195 104t-131.5 178t-47.5 248.5v899h391v-883q0 -126 58 -192t167 -66q108 0 165.5 66.5t57.5 191.5v883zM664 1874h333l-262 -322h-282z" />
    <glyph glyph-name="Ucircumflex" unicode="&#xdb;" horiz-adv-x="1449" 
d="M948 1434h391v-899q0 -139 -47.5 -248.5t-131 -178t-194 -104t-241.5 -35.5t-242 35.5t-195 104t-131.5 178t-47.5 248.5v899h391v-883q0 -126 58 -192t167 -66q108 0 165.5 66.5t57.5 191.5v883zM567 1874h316l215 -322h-262l-111 158l-111 -158h-262z" />
    <glyph glyph-name="Udieresis" unicode="&#xdc;" horiz-adv-x="1449" 
d="M948 1434h391v-899q0 -139 -47.5 -248.5t-131 -178t-194 -104t-241.5 -35.5t-242 35.5t-195 104t-131.5 178t-47.5 248.5v899h391v-883q0 -126 58 -192t167 -66q108 0 165.5 66.5t57.5 191.5v883zM768 1561v280h309v-280h-309zM371 1561v280h309v-280h-309z" />
    <glyph glyph-name="Yacute" unicode="&#xdd;" horiz-adv-x="1447" 
d="M985 1434h440l-505 -969v-465h-392v465l-508 969h441l262 -578zM662 1874h333l-262 -322h-282z" />
    <glyph glyph-name="Thorn" unicode="&#xde;" horiz-adv-x="1398" 
d="M752 881h-211v-330h211q81 0 135.5 41.5t54.5 122.5q0 85 -51.5 125.5t-138.5 40.5zM541 1198h225q127 0 229 -28t179 -85t119 -151t42 -219q0 -127 -42 -221t-120 -149.5t-179 -82t-228 -26.5h-225v-236h-398v1434h398v-236z" />
    <glyph glyph-name="germandbls" unicode="&#xdf;" horiz-adv-x="1411" 
d="M721 1464q72 0 143 -12.5t141 -42.5t123 -73.5t86 -110t33 -148.5q0 -114 -50.5 -207t-147.5 -125q299 -67 299 -348q0 -92 -31 -166.5t-81 -122.5t-118 -80t-138 -45.5t-144 -13.5q-159 0 -252 45v285q26 -16 76 -26.5t92 -10.5q97 0 149.5 47.5t52.5 128.5
q0 154 -211 154h-131v289h97q80 0 130 37.5t50 115.5q0 63 -44.5 99t-117.5 36q-92 0 -142 -57t-50 -168v-944h-392v897q0 277 147.5 422t430.5 145z" />
    <glyph glyph-name="agrave" unicode="&#xe0;" horiz-adv-x="1257" 
d="M563 399q-73 -15 -112 -39.5t-39 -70.5q0 -94 125 -94q87 0 154 57t67 133v66q-31 -15 -82 -27zM430 602q185 27 246 35q43 8 62.5 20.5t19.5 34.5q0 131 -137 131q-66 0 -107.5 -32t-50.5 -95h-344q55 389 493 389q114 0 200.5 -22t154 -71.5t102.5 -136t35 -208.5v-338
q0 -52 13 -75t54 -23h21v-242h-154q-87 0 -147.5 41t-81.5 123q-75 -90 -167 -127t-206 -37q-78 0 -143.5 17.5t-118 52.5t-82 95t-29.5 140t28.5 139.5t81.5 96.5t114.5 58t142.5 34zM504 1174l-262 321h331l213 -321h-282z" />
    <glyph glyph-name="aacute" unicode="&#xe1;" horiz-adv-x="1257" 
d="M563 399q-73 -15 -112 -39.5t-39 -70.5q0 -94 125 -94q87 0 154 57t67 133v66q-31 -15 -82 -27zM430 602q185 27 246 35q43 8 62.5 20.5t19.5 34.5q0 131 -137 131q-66 0 -107.5 -32t-50.5 -95h-344q55 389 493 389q114 0 200.5 -22t154 -71.5t102.5 -136t35 -208.5v-338
q0 -52 13 -75t54 -23h21v-242h-154q-87 0 -147.5 41t-81.5 123q-75 -90 -167 -127t-206 -37q-78 0 -143.5 17.5t-118 52.5t-82 95t-29.5 140t28.5 139.5t81.5 96.5t114.5 58t142.5 34zM479 1174l211 321h334l-262 -321h-283z" />
    <glyph glyph-name="acircumflex" unicode="&#xe2;" horiz-adv-x="1257" 
d="M563 399q-73 -15 -112 -39.5t-39 -70.5q0 -94 125 -94q87 0 154 57t67 133v66q-31 -15 -82 -27zM430 602q185 27 246 35q43 8 62.5 20.5t19.5 34.5q0 131 -137 131q-66 0 -107.5 -32t-50.5 -95h-344q55 389 493 389q114 0 200.5 -22t154 -71.5t102.5 -136t35 -208.5v-338
q0 -52 13 -75t54 -23h21v-242h-154q-87 0 -147.5 41t-81.5 123q-75 -90 -167 -127t-206 -37q-78 0 -143.5 17.5t-118 52.5t-82 95t-29.5 140t28.5 139.5t81.5 96.5t114.5 58t142.5 34zM256 1174l215 321h315l215 -321h-262l-110 157l-111 -157h-262z" />
    <glyph glyph-name="atilde" unicode="&#xe3;" horiz-adv-x="1257" 
d="M563 399q-73 -15 -112 -39.5t-39 -70.5q0 -94 125 -94q87 0 154 57t67 133v66q-31 -15 -82 -27zM430 602q185 27 246 35q43 8 62.5 20.5t19.5 34.5q0 131 -137 131q-66 0 -107.5 -32t-50.5 -95h-344q55 389 493 389q114 0 200.5 -22t154 -71.5t102.5 -136t35 -208.5v-338
q0 -52 13 -75t54 -23h21v-242h-154q-87 0 -147.5 41t-81.5 123q-75 -90 -167 -127t-206 -37q-78 0 -143.5 17.5t-118 52.5t-82 95t-29.5 140t28.5 139.5t81.5 96.5t114.5 58t142.5 34zM467 1495q46 0 92 -16.5t77 -36.5t67.5 -36.5t64.5 -16.5q74 0 74 98h205
q1 -61 -14 -117.5t-45 -104.5t-81 -77t-116 -29q-59 0 -116.5 27.5t-104 54.5t-78.5 27q-38 0 -56 -29.5t-18 -71.5h-209q2 66 17 122t44 103.5t79.5 75t117.5 27.5z" />
    <glyph glyph-name="adieresis" unicode="&#xe4;" horiz-adv-x="1257" 
d="M563 399q-73 -15 -112 -39.5t-39 -70.5q0 -94 125 -94q87 0 154 57t67 133v66q-31 -15 -82 -27zM430 602q185 27 246 35q43 8 62.5 20.5t19.5 34.5q0 131 -137 131q-66 0 -107.5 -32t-50.5 -95h-344q55 389 493 389q114 0 200.5 -22t154 -71.5t102.5 -136t35 -208.5v-338
q0 -52 13 -75t54 -23h21v-242h-154q-87 0 -147.5 41t-81.5 123q-75 -90 -167 -127t-206 -37q-78 0 -143.5 17.5t-118 52.5t-82 95t-29.5 140t28.5 139.5t81.5 96.5t114.5 58t142.5 34zM584 1182h-310v280h310v-280zM981 1182h-309v280h309v-280z" />
    <glyph glyph-name="aring" unicode="&#xe5;" horiz-adv-x="1257" 
d="M563 399q-73 -15 -112 -39.5t-39 -70.5q0 -94 125 -94q87 0 154 57t67 133v66q-31 -15 -82 -27zM631 1419q-31 0 -51.5 -18.5t-20.5 -50.5q0 -31 20.5 -50.5t51.5 -19.5q30 0 48.5 20t18.5 50q0 31 -18 50t-49 19zM430 602q185 27 246 35q43 8 62.5 20.5t19.5 34.5
q0 131 -137 131q-66 0 -107.5 -32t-50.5 -95h-344q55 389 493 389q114 0 200.5 -22t154 -71.5t102.5 -136t35 -208.5v-338q0 -52 13 -75t54 -23h21v-242h-154q-87 0 -147.5 41t-81.5 123q-75 -90 -167 -127t-206 -37q-78 0 -143.5 17.5t-118 52.5t-82 95t-29.5 140
t28.5 139.5t81.5 96.5t114.5 58t142.5 34zM631 1571q97 0 164 -61.5t67 -159.5q0 -95 -67 -157.5t-164 -62.5t-165.5 62t-68.5 158q0 97 68 159t166 62z" />
    <glyph glyph-name="ae" unicode="&#xe6;" horiz-adv-x="1941" 
d="M754 449q-32 -16 -78 -25l-113 -25q-73 -15 -112 -39.5t-39 -70.5q0 -94 125 -94q79 0 146.5 52t84.5 124q-12 50 -14 78zM1319 815q-81 0 -130 -49t-65 -127h402q-39 176 -207 176zM1319 1085q184 0 321 -85t199 -234q65 -148 39 -338h-758q14 -89 67.5 -142t145.5 -53
q150 0 199 101h334q-61 -186 -201 -275.5t-332 -89.5q-145 0 -265.5 53.5t-199.5 149.5q-128 -203 -432 -203q-78 0 -143.5 17.5t-118 52.5t-82 95t-29.5 140t28.5 139.5t81.5 96.5t114.5 58t142.5 34q185 27 246 35q43 8 62.5 20.5t19.5 34.5q0 131 -137 131
q-66 0 -107.5 -32t-50.5 -95h-344q55 389 493 389q247 0 363 -100q142 100 344 100z" />
    <glyph glyph-name="ccedilla" unicode="&#xe7;" horiz-adv-x="1218" 
d="M455 -207l57 184q-206 34 -332.5 183.5t-126.5 367.5q0 246 160.5 401.5t409.5 155.5q217 0 360 -113t178 -317h-342q-13 76 -65 117t-131 41q-58 0 -102 -23.5t-69 -65t-37 -90.5t-12 -106q0 -58 12 -107t37 -89.5t68.5 -64t102.5 -23.5q79 0 131 40t65 115h342
q-33 -197 -169.5 -309.5t-342.5 -120.5l-14 -49q201 -16 201 -188q0 -114 -76 -169t-199 -55q-42 0 -93.5 12t-86.5 31v170q4 -2 21.5 -8t24.5 -9t23 -8.5t26 -8t23.5 -5.5t25 -4.5t22.5 -1.5q92 0 92 64q0 53 -125 53h-59z" />
    <glyph glyph-name="egrave" unicode="&#xe8;" 
d="M625 815q-83 0 -132 -49t-65 -127h403q-39 176 -206 176zM625 1085q183 0 319.5 -85t200.5 -234q65 -158 37 -338h-756q13 -89 66 -142t147 -53q148 0 197 101h335q-41 -125 -122 -208.5t-183.5 -120t-228.5 -36.5q-166 0 -299 69t-209 197t-76 293q0 245 161 401
t411 156zM506 1174l-262 321h331l213 -321h-282z" />
    <glyph glyph-name="eacute" unicode="&#xe9;" 
d="M625 815q-83 0 -132 -49t-65 -127h403q-39 176 -206 176zM625 1085q183 0 319.5 -85t200.5 -234q65 -158 37 -338h-756q13 -89 66 -142t147 -53q148 0 197 101h335q-41 -125 -122 -208.5t-183.5 -120t-228.5 -36.5q-166 0 -299 69t-209 197t-76 293q0 245 161 401
t411 156zM481 1174l211 321h334l-262 -321h-283z" />
    <glyph glyph-name="ecircumflex" unicode="&#xea;" 
d="M625 815q-83 0 -132 -49t-65 -127h403q-39 176 -206 176zM625 1085q183 0 319.5 -85t200.5 -234q65 -158 37 -338h-756q13 -89 66 -142t147 -53q148 0 197 101h335q-41 -125 -122 -208.5t-183.5 -120t-228.5 -36.5q-166 0 -299 69t-209 197t-76 293q0 245 161 401
t411 156zM250 1174l215 321h315l215 -321h-262l-110 157l-111 -157h-262z" />
    <glyph glyph-name="edieresis" unicode="&#xeb;" 
d="M625 815q-83 0 -132 -49t-65 -127h403q-39 176 -206 176zM625 1085q183 0 319.5 -85t200.5 -234q65 -158 37 -338h-756q13 -89 66 -142t147 -53q148 0 197 101h335q-41 -125 -122 -208.5t-183.5 -120t-228.5 -36.5q-166 0 -299 69t-209 197t-76 293q0 245 161 401
t411 156zM580 1182h-310v280h310v-280zM977 1182h-309v280h309v-280z" />
    <glyph glyph-name="igrave" unicode="&#xec;" horiz-adv-x="544" 
d="M88 0v1055h369v-1055h-369zM-131 1495h332l213 -321h-283z" />
    <glyph glyph-name="iacute" unicode="&#xed;" horiz-adv-x="544" 
d="M88 0v1055h369v-1055h-369zM332 1495h334l-263 -321h-282z" />
    <glyph glyph-name="icircumflex" unicode="&#xee;" horiz-adv-x="544" 
d="M88 0v1055h369v-1055h-369zM115 1495h315l215 -321h-262l-111 157l-110 -157h-262z" />
    <glyph glyph-name="idieresis" unicode="&#xef;" horiz-adv-x="544" 
d="M88 0v1055h369v-1055h-369zM315 1182v280h310v-280h-310zM-82 1182v280h309v-280h-309z" />
    <glyph glyph-name="eth" unicode="&#xf0;" horiz-adv-x="1341" 
d="M643 721q-98 0 -151.5 -60.5t-53.5 -162.5q0 -96 52 -161t147 -65q96 0 151.5 66t63.5 166q-3 87 -62 152t-147 65zM575 1006q83 0 162.5 -30t132.5 -87q-57 183 -260 272l-98 -127l-113 88l64 84q-93 17 -168 17l2 295q199 0 367 -52l120 160l115 -88l-94 -125
q212 -99 332 -285t120 -448q0 -115 -21 -217.5t-68 -194t-117.5 -157t-176.5 -104t-237 -38.5q-118 0 -220 38t-176.5 107.5t-116.5 171.5t-42 224q0 223 133 359.5t360 136.5z" />
    <glyph glyph-name="ntilde" unicode="&#xf1;" horiz-adv-x="1191" 
d="M737 1085q186 0 286.5 -112t100.5 -289v-684h-368v610q0 170 -144 170q-78 0 -115.5 -58.5t-37.5 -148.5v-573h-371v1055h322l20 -107q106 137 307 137zM434 1495q46 0 92 -16.5t77 -36.5t67.5 -36.5t64.5 -16.5q74 0 74 98h205q1 -61 -14 -117.5t-45 -104.5t-81 -77
t-116 -29q-59 0 -116.5 27.5t-104 54.5t-78.5 27q-38 0 -56 -29.5t-18 -71.5h-209q2 66 17 122t44 103.5t79.5 75t117.5 27.5z" />
    <glyph glyph-name="ograve" unicode="&#xf2;" horiz-adv-x="1259" 
d="M629 795q-113 0 -168 -77t-55 -190t55 -189.5t168 -76.5q58 0 102 22t69 60.5t37.5 84.5t12.5 99q0 72 -21 130t-72.5 97.5t-127.5 39.5zM629 1085q252 0 413.5 -155.5t161.5 -401.5q0 -247 -161 -403t-414 -156t-414.5 155.5t-161.5 403.5t161.5 402.5t414.5 154.5z
M244 1495h331l213 -321h-282z" />
    <glyph glyph-name="oacute" unicode="&#xf3;" horiz-adv-x="1259" 
d="M629 795q-113 0 -168 -77t-55 -190t55 -189.5t168 -76.5q58 0 102 22t69 60.5t37.5 84.5t12.5 99q0 72 -21 130t-72.5 97.5t-127.5 39.5zM629 1085q252 0 413.5 -155.5t161.5 -401.5q0 -247 -161 -403t-414 -156t-414.5 155.5t-161.5 403.5t161.5 402.5t414.5 154.5z
M698 1495h334l-262 -321h-283z" />
    <glyph glyph-name="ocircumflex" unicode="&#xf4;" horiz-adv-x="1259" 
d="M629 795q-113 0 -168 -77t-55 -190t55 -189.5t168 -76.5q58 0 102 22t69 60.5t37.5 84.5t12.5 99q0 72 -21 130t-72.5 97.5t-127.5 39.5zM629 1085q252 0 413.5 -155.5t161.5 -401.5q0 -247 -161 -403t-414 -156t-414.5 155.5t-161.5 403.5t161.5 402.5t414.5 154.5z
M256 1174l215 321h315l215 -321h-262l-110 157l-111 -157h-262z" />
    <glyph glyph-name="otilde" unicode="&#xf5;" horiz-adv-x="1259" 
d="M629 795q-113 0 -168 -77t-55 -190t55 -189.5t168 -76.5q58 0 102 22t69 60.5t37.5 84.5t12.5 99q0 72 -21 130t-72.5 97.5t-127.5 39.5zM629 1085q252 0 413.5 -155.5t161.5 -401.5q0 -247 -161 -403t-414 -156t-414.5 155.5t-161.5 403.5t161.5 402.5t414.5 154.5z
M469 1495q46 0 92 -16.5t77 -36.5t67.5 -36.5t64.5 -16.5q74 0 74 98h205q1 -61 -14 -117.5t-45 -104.5t-81 -77t-116 -29q-59 0 -116.5 27.5t-104 54.5t-78.5 27q-38 0 -56 -29.5t-18 -71.5h-209q2 66 17 122t44 103.5t79.5 75t117.5 27.5z" />
    <glyph glyph-name="odieresis" unicode="&#xf6;" horiz-adv-x="1259" 
d="M629 795q-113 0 -168 -77t-55 -190t55 -189.5t168 -76.5q58 0 102 22t69 60.5t37.5 84.5t12.5 99q0 72 -21 130t-72.5 97.5t-127.5 39.5zM629 1085q252 0 413.5 -155.5t161.5 -401.5q0 -247 -161 -403t-414 -156t-414.5 155.5t-161.5 403.5t161.5 402.5t414.5 154.5z
M674 1182v280h309v-280h-309zM276 1182v280h310v-280h-310z" />
    <glyph glyph-name="divide" unicode="&#xf7;" horiz-adv-x="1331" 
d="M666 1194q74 0 126 -52.5t52 -127.5q0 -74 -52 -126t-126 -52q-75 0 -128 52t-53 126q0 75 53 127.5t128 52.5zM129 756h1073v-326h-1073v326zM666 350q74 0 126 -52.5t52 -127.5q0 -74 -52 -126t-126 -52q-75 0 -128 52.5t-53 127.5q0 74 53 126t128 52z" />
    <glyph glyph-name="oslash" unicode="&#xf8;" horiz-adv-x="1259" 
d="M424 418l276 366q-37 11 -69 11q-113 0 -168 -77t-55 -190q0 -54 16 -110zM838 637l-279 -365q38 -10 72 -10q58 0 102 22t69 60.5t37.5 84.5t12.5 99q0 60 -14 109zM930 1085h250l-127 -163q153 -156 153 -394q0 -247 -161 -403t-414 -156q-143 0 -260 54l-41 -54h-248
l125 166q-152 152 -152 393q0 248 161.5 402.5t414.5 154.5q139 0 260 -51z" />
    <glyph glyph-name="ugrave" unicode="&#xf9;" horiz-adv-x="1191" 
d="M735 1055h369v-1055h-322l-20 106q-55 -71 -129 -104t-178 -33q-184 0 -285.5 112.5t-101.5 289.5v684h370v-611q0 -168 142 -168q80 0 117.5 57.5t37.5 147.5v574zM184 1495h332l213 -321h-283z" />
    <glyph glyph-name="uacute" unicode="&#xfa;" horiz-adv-x="1191" 
d="M735 1055h369v-1055h-322l-20 106q-55 -71 -129 -104t-178 -33q-184 0 -285.5 112.5t-101.5 289.5v684h370v-611q0 -168 142 -168q80 0 117.5 57.5t37.5 147.5v574zM659 1495h334l-262 -321h-282z" />
    <glyph glyph-name="ucircumflex" unicode="&#xfb;" horiz-adv-x="1191" 
d="M735 1055h369v-1055h-322l-20 106q-55 -71 -129 -104t-178 -33q-184 0 -285.5 112.5t-101.5 289.5v684h370v-611q0 -168 142 -168q80 0 117.5 57.5t37.5 147.5v574zM438 1495h316l215 -321h-262l-111 157l-111 -157h-262z" />
    <glyph glyph-name="udieresis" unicode="&#xfc;" horiz-adv-x="1191" 
d="M735 1055h369v-1055h-322l-20 106q-55 -71 -129 -104t-178 -33q-184 0 -285.5 112.5t-101.5 289.5v684h370v-611q0 -168 142 -168q80 0 117.5 57.5t37.5 147.5v574zM639 1182v280h309v-280h-309zM242 1182v280h309v-280h-309z" />
    <glyph glyph-name="yacute" unicode="&#xfd;" horiz-adv-x="1189" 
d="M592 469l180 586h393l-383 -1086q-25 -80 -47.5 -135.5t-53.5 -107.5t-68.5 -85t-89 -58.5t-117.5 -36.5t-152 -11q-32 0 -98 12v295q33 -10 82 -10q69 0 112.5 36t59.5 93l14 39h-31l-373 1055h396zM672 1501h334l-263 -321h-282z" />
    <glyph glyph-name="thorn" unicode="&#xfe;" horiz-adv-x="1333" 
d="M705 262q61 0 107.5 21.5t74 59.5t41.5 84.5t14 100.5q0 112 -62 188.5t-175 76.5q-114 0 -178 -78t-64 -187q0 -113 64 -189.5t178 -76.5zM770 1087q153 0 270.5 -76.5t178.5 -203t61 -279.5q0 -92 -20 -175t-61.5 -153.5t-100.5 -121.5t-141 -80t-179 -29
q-89 0 -173 31t-142 92v-500h-361v1870h361v-501q116 126 307 126z" />
    <glyph glyph-name="ydieresis" unicode="&#xff;" horiz-adv-x="1189" 
d="M592 469l180 586h393l-383 -1086q-25 -80 -47.5 -135.5t-53.5 -107.5t-68.5 -85t-89 -58.5t-117.5 -36.5t-152 -11q-32 0 -98 12v295q33 -10 82 -10q69 0 112.5 36t59.5 93l14 39h-31l-373 1055h396zM639 1182v280h309v-280h-309zM242 1182v280h309v-280h-309z" />
    <glyph glyph-name="Amacron" unicode="&#x100;" horiz-adv-x="1550" 
d="M621 559h305l-152 483zM449 0h-429l512 1434h486l512 -1434h-432l-80 250h-488zM1087 1606h-622v227h622v-227z" />
    <glyph glyph-name="amacron" unicode="&#x101;" horiz-adv-x="1257" 
d="M563 399q-73 -15 -112 -39.5t-39 -70.5q0 -94 125 -94q87 0 154 57t67 133v66q-31 -15 -82 -27zM430 602q185 27 246 35q43 8 62.5 20.5t19.5 34.5q0 131 -137 131q-66 0 -107.5 -32t-50.5 -95h-344q55 389 493 389q114 0 200.5 -22t154 -71.5t102.5 -136t35 -208.5v-338
q0 -52 13 -75t54 -23h21v-242h-154q-87 0 -147.5 41t-81.5 123q-75 -90 -167 -127t-206 -37q-78 0 -143.5 17.5t-118 52.5t-82 95t-29.5 140t28.5 139.5t81.5 96.5t114.5 58t142.5 34zM940 1227h-623v227h623v-227z" />
    <glyph glyph-name="Abreve" unicode="&#x102;" horiz-adv-x="1550" 
d="M621 559h305l-152 483zM449 0h-429l512 1434h486l512 -1434h-432l-80 250h-488zM776 1751q52 0 76 30.5t33 84.5h207q-6 -153 -85.5 -241.5t-230.5 -88.5q-150 0 -229.5 88.5t-85.5 241.5h209q7 -55 29.5 -85t76.5 -30z" />
    <glyph glyph-name="abreve" unicode="&#x103;" horiz-adv-x="1257" 
d="M563 399q-73 -15 -112 -39.5t-39 -70.5q0 -94 125 -94q87 0 154 57t67 133v66q-31 -15 -82 -27zM430 602q185 27 246 35q43 8 62.5 20.5t19.5 34.5q0 131 -137 131q-66 0 -107.5 -32t-50.5 -95h-344q55 389 493 389q114 0 200.5 -22t154 -71.5t102.5 -136t35 -208.5v-338
q0 -52 13 -75t54 -23h21v-242h-154q-87 0 -147.5 41t-81.5 123q-75 -90 -167 -127t-206 -37q-78 0 -143.5 17.5t-118 52.5t-82 95t-29.5 140t28.5 139.5t81.5 96.5t114.5 58t142.5 34zM629 1372q52 0 75.5 30t32.5 85h207q-6 -153 -85.5 -241.5t-229.5 -88.5
q-151 0 -230.5 88.5t-85.5 241.5h209q7 -55 30 -85t77 -30z" />
    <glyph glyph-name="Aogonek" unicode="&#x104;" horiz-adv-x="1550" 
d="M621 559h305l-152 483zM1360 0h-262l-80 250h-488l-81 -250h-429l512 1434h486l512 -1434q-133 -71 -133 -182q0 -29 16.5 -47.5t44.5 -18.5q40 0 74 23l61 -162q-91 -59 -221 -59q-108 0 -176 51t-68 151q0 162 232 244z" />
    <glyph glyph-name="aogonek" unicode="&#x105;" horiz-adv-x="1257" 
d="M563 399q-73 -15 -112 -39.5t-39 -70.5q0 -94 125 -94q87 0 154 57t67 133v66q-31 -15 -82 -27zM930 -10q-96 39 -121 143q-75 -90 -167 -127t-206 -37q-78 0 -143.5 17.5t-118 52.5t-82 95t-29.5 140t28.5 139.5t81.5 96.5t114.5 58t142.5 34q185 27 246 35
q43 8 62.5 20.5t19.5 34.5q0 131 -137 131q-66 0 -107.5 -32t-50.5 -95h-344q55 389 493 389q114 0 200.5 -22t154 -71.5t102.5 -136t35 -208.5v-338q0 -52 13 -75t54 -23h21v-242h-111q-84 -65 -84 -151q0 -29 16.5 -47.5t45.5 -18.5q39 0 74 23l61 -162q-91 -59 -221 -59
q-108 0 -176 51t-68 151q0 152 201 234z" />
    <glyph glyph-name="Cacute" unicode="&#x106;" horiz-adv-x="1546" 
d="M778 1464q300 0 487 -162t212 -450h-394q-14 128 -94 208.5t-213 80.5q-65 0 -118.5 -24.5t-89.5 -65t-61 -95.5t-36.5 -115t-11.5 -124t11.5 -124t36.5 -115t61 -95.5t89.5 -65t118.5 -24.5q133 0 213 80.5t94 210.5h394q-25 -290 -212 -452.5t-487 -162.5
q-165 0 -300 56.5t-224 156.5t-137.5 237t-48.5 298q0 217 83 385t245 265t382 97zM850 1874h334l-262 -322h-283z" />
    <glyph glyph-name="cacute" unicode="&#x107;" horiz-adv-x="1218" 
d="M623 1085q217 0 360 -113t178 -317h-342q-13 76 -65 117t-131 41q-58 0 -102 -23.5t-69 -65t-37 -90.5t-12 -106q0 -58 12 -107t37 -89.5t68.5 -64t102.5 -23.5q79 0 131 40t65 115h342q-35 -204 -178 -317t-360 -113q-164 0 -293.5 70t-203 198t-73.5 291
q0 246 160.5 401.5t409.5 155.5zM698 1495h334l-262 -321h-283z" />
    <glyph glyph-name="Ccircumflex" unicode="&#x108;" horiz-adv-x="1546" 
d="M778 1464q300 0 487 -162t212 -450h-394q-14 128 -94 208.5t-213 80.5q-65 0 -118.5 -24.5t-89.5 -65t-61 -95.5t-36.5 -115t-11.5 -124t11.5 -124t36.5 -115t61 -95.5t89.5 -65t118.5 -24.5q133 0 213 80.5t94 210.5h394q-25 -290 -212 -452.5t-487 -162.5
q-165 0 -300 56.5t-224 156.5t-137.5 237t-48.5 298q0 217 83 385t245 265t382 97zM614 1874h316l215 -322h-262l-111 158l-110 -158h-263z" />
    <glyph glyph-name="ccircumflex" unicode="&#x109;" horiz-adv-x="1218" 
d="M623 1085q217 0 360 -113t178 -317h-342q-13 76 -65 117t-131 41q-58 0 -102 -23.5t-69 -65t-37 -90.5t-12 -106q0 -58 12 -107t37 -89.5t68.5 -64t102.5 -23.5q79 0 131 40t65 115h342q-35 -204 -178 -317t-360 -113q-164 0 -293.5 70t-203 198t-73.5 291
q0 246 160.5 401.5t409.5 155.5zM451 1495h315l215 -321h-262l-111 157l-110 -157h-262z" />
    <glyph glyph-name="Cdotaccent" unicode="&#x10a;" horiz-adv-x="1546" 
d="M778 1464q300 0 487 -162t212 -450h-394q-14 128 -94 208.5t-213 80.5q-65 0 -118.5 -24.5t-89.5 -65t-61 -95.5t-36.5 -115t-11.5 -124t11.5 -124t36.5 -115t61 -95.5t89.5 -65t118.5 -24.5q133 0 213 80.5t94 210.5h394q-25 -290 -212 -452.5t-487 -162.5
q-165 0 -300 56.5t-224 156.5t-137.5 237t-48.5 298q0 217 83 385t245 265t382 97zM618 1561v280h310v-280h-310z" />
    <glyph glyph-name="cdotaccent" unicode="&#x10b;" horiz-adv-x="1218" 
d="M623 1085q217 0 360 -113t178 -317h-342q-13 76 -65 117t-131 41q-58 0 -102 -23.5t-69 -65t-37 -90.5t-12 -106q0 -58 12 -107t37 -89.5t68.5 -64t102.5 -23.5q79 0 131 40t65 115h342q-35 -204 -178 -317t-360 -113q-164 0 -293.5 70t-203 198t-73.5 291
q0 246 160.5 401.5t409.5 155.5zM455 1182v280h309v-280h-309z" />
    <glyph glyph-name="Ccaron" unicode="&#x10c;" horiz-adv-x="1546" 
d="M778 1464q300 0 487 -162t212 -450h-394q-14 128 -94 208.5t-213 80.5q-65 0 -118.5 -24.5t-89.5 -65t-61 -95.5t-36.5 -115t-11.5 -124t11.5 -124t36.5 -115t61 -95.5t89.5 -65t118.5 -24.5q133 0 213 80.5t94 210.5h394q-25 -290 -212 -452.5t-487 -162.5
q-165 0 -300 56.5t-224 156.5t-137.5 237t-48.5 298q0 217 83 385t245 265t382 97zM883 1878h262l-215 -322h-316l-215 322h263l110 -160z" />
    <glyph glyph-name="ccaron" unicode="&#x10d;" horiz-adv-x="1218" 
d="M623 1085q217 0 360 -113t178 -317h-342q-13 76 -65 117t-131 41q-58 0 -102 -23.5t-69 -65t-37 -90.5t-12 -106q0 -58 12 -107t37 -89.5t68.5 -64t102.5 -23.5q79 0 131 40t65 115h342q-35 -204 -178 -317t-360 -113q-164 0 -293.5 70t-203 198t-73.5 291
q0 246 160.5 401.5t409.5 155.5zM719 1499h262l-215 -321h-315l-215 321h262l110 -160z" />
    <glyph glyph-name="Dcaron" unicode="&#x10e;" horiz-adv-x="1501" 
d="M657 1116h-137v-799h137q202 0 300 104t98 296q0 191 -98 295t-300 104zM129 1434h541q170 0 309 -44.5t241 -132t158 -225t56 -315.5t-56 -315.5t-158 -225t-241 -132t-309 -44.5h-541v1434zM750 1718l110 160h262l-215 -322h-315l-215 322h262z" />
    <glyph glyph-name="dcaron" unicode="&#x10f;" horiz-adv-x="1671" 
d="M629 795q-117 0 -177.5 -77t-60.5 -190q0 -114 62.5 -190t175.5 -76q114 0 178.5 78t64.5 188q0 112 -64 189.5t-179 77.5zM555 1085q89 0 173.5 -31t143.5 -91v471h359v-1434h-322l-20 113q-55 -68 -138.5 -106t-185.5 -38q-154 0 -272 76t-179 202.5t-61 280.5
q0 116 32.5 216t94 176.5t158.5 120.5t217 44zM1315 1051l61 383h295l-112 -383h-244z" />
    <glyph glyph-name="Dcroat" unicode="&#x110;" horiz-adv-x="1501" 
d="M657 1116h-137v-287h142v-225h-142v-287h137q202 0 300 104t98 296q0 191 -98 295t-300 104zM129 829v605h541q170 0 309 -44.5t241 -132t158 -225t56 -315.5t-56 -315.5t-158 -225t-241 -132t-309 -44.5h-541v604h-90v225h90z" />
    <glyph glyph-name="dcroat" unicode="&#x111;" horiz-adv-x="1320" 
d="M629 795q-117 0 -177.5 -77t-60.5 -190q0 -114 62.5 -190t175.5 -76q114 0 178.5 78t64.5 188q0 112 -64 189.5t-179 77.5zM555 1085q89 0 173.5 -31t143.5 -91v161h-172v228h172v82h359v-82h90v-228h-90v-1124h-322l-20 113q-55 -68 -138.5 -106t-185.5 -38
q-154 0 -272 76t-179 202.5t-61 280.5q0 116 32.5 216t94 176.5t158.5 120.5t217 44z" />
    <glyph glyph-name="Emacron" unicode="&#x112;" 
d="M129 1434h1030v-318h-639v-235h596v-320h-596v-244h639v-317h-1030v1434zM334 1606v227h622v-227h-622z" />
    <glyph glyph-name="emacron" unicode="&#x113;" 
d="M625 815q-83 0 -132 -49t-65 -127h403q-39 176 -206 176zM625 1085q183 0 319.5 -85t200.5 -234q65 -158 37 -338h-756q13 -89 66 -142t147 -53q148 0 197 101h335q-41 -125 -122 -208.5t-183.5 -120t-228.5 -36.5q-166 0 -299 69t-209 197t-76 293q0 245 161 401
t411 156zM936 1227h-623v227h623v-227z" />
    <glyph glyph-name="Ebreve" unicode="&#x114;" 
d="M129 1434h1030v-318h-639v-235h596v-320h-596v-244h639v-317h-1030v1434zM645 1751q52 0 76 30.5t33 84.5h207q-6 -153 -85.5 -241.5t-230.5 -88.5q-150 0 -229.5 88.5t-85.5 241.5h209q7 -55 29.5 -85t76.5 -30z" />
    <glyph glyph-name="ebreve" unicode="&#x115;" 
d="M625 815q-83 0 -132 -49t-65 -127h403q-39 176 -206 176zM625 1085q183 0 319.5 -85t200.5 -234q65 -158 37 -338h-756q13 -89 66 -142t147 -53q148 0 197 101h335q-41 -125 -122 -208.5t-183.5 -120t-228.5 -36.5q-166 0 -299 69t-209 197t-76 293q0 245 161 401
t411 156zM623 1372q52 0 75.5 30t32.5 85h207q-6 -153 -85.5 -241.5t-229.5 -88.5q-151 0 -230.5 88.5t-85.5 241.5h209q7 -55 30 -85t77 -30z" />
    <glyph glyph-name="Edotaccent" unicode="&#x116;" 
d="M129 1434h1030v-318h-639v-235h596v-320h-596v-244h639v-317h-1030v1434zM489 1561v280h310v-280h-310z" />
    <glyph glyph-name="edotaccent" unicode="&#x117;" 
d="M625 815q-83 0 -132 -49t-65 -127h403q-39 176 -206 176zM625 1085q183 0 319.5 -85t200.5 -234q65 -158 37 -338h-756q13 -89 66 -142t147 -53q148 0 197 101h335q-41 -125 -122 -208.5t-183.5 -120t-228.5 -36.5q-166 0 -299 69t-209 197t-76 293q0 245 161 401
t411 156zM778 1182h-309v280h309v-280z" />
    <glyph glyph-name="Eogonek" unicode="&#x118;" 
d="M1163 -225l60 -162q-91 -59 -222 -59q-106 0 -173.5 51.5t-67.5 150.5q0 163 231 244h-862v1434h1030v-318h-639v-235h596v-320h-596v-244h639v-317q-133 -71 -133 -182q0 -29 17 -47.5t47 -18.5q35 0 73 23z" />
    <glyph glyph-name="eogonek" unicode="&#x119;" 
d="M625 815q-83 0 -132 -49t-65 -127h403q-39 176 -206 176zM602 -31q-241 12 -395 165.5t-154 393.5q0 245 161 401t411 156q183 0 319.5 -85t200.5 -234q65 -158 37 -338h-756q13 -89 66 -142t147 -53q148 0 197 101h335q-84 -260 -331 -336q-129 -71 -129 -180
q0 -29 16.5 -47.5t44.5 -18.5q40 0 74 23l61 -162q-91 -59 -221 -59q-108 0 -176 51t-68 151q0 137 160 213z" />
    <glyph glyph-name="Ecaron" unicode="&#x11a;" 
d="M129 1434h1030v-318h-639v-235h596v-320h-596v-244h639v-317h-1030v1434zM754 1878h262l-215 -322h-316l-215 322h262l111 -160z" />
    <glyph glyph-name="ecaron" unicode="&#x11b;" 
d="M625 815q-83 0 -132 -49t-65 -127h403q-39 176 -206 176zM625 1085q183 0 319.5 -85t200.5 -234q65 -158 37 -338h-756q13 -89 66 -142t147 -53q148 0 197 101h335q-41 -125 -122 -208.5t-183.5 -120t-228.5 -36.5q-166 0 -299 69t-209 197t-76 293q0 245 161 401
t411 156zM623 1339l110 160h262l-215 -321h-315l-215 321h262z" />
    <glyph glyph-name="Gcircumflex" unicode="&#x11c;" horiz-adv-x="1564" 
d="M760 508v285h737v-793h-250l-26 166q-147 -197 -443 -197q-165 0 -300 56.5t-224 156.5t-137.5 237t-48.5 298q0 217 83 385t245 265t382 97q283 0 468.5 -143.5t221.5 -398.5h-399q-25 104 -101 161.5t-192 57.5q-65 0 -118.5 -24.5t-89.5 -65t-61 -95.5t-36.5 -115
t-11.5 -124t12 -124t38.5 -115t65 -95.5t95.5 -65t127 -24.5q116 0 189 57.5t99 157.5h-325zM625 1874h315l215 -322h-262l-111 158l-110 -158h-262z" />
    <glyph glyph-name="gcircumflex" unicode="&#x11d;" horiz-adv-x="1253" 
d="M600 793q-102 0 -158.5 -70t-56.5 -168q0 -101 56.5 -165t158.5 -64q103 0 159 65.5t56 163.5q0 100 -57 169t-158 69zM539 1085q200 0 299 -124l24 94h301v-955q0 -149 -40 -259t-114.5 -176.5t-174 -98t-226.5 -31.5q-219 0 -362.5 107t-173.5 309h340q11 -68 59 -107
t123 -39q112 0 167.5 65.5t55.5 186.5v70q-108 -96 -272 -96q-223 0 -357.5 148.5t-134.5 375.5q0 104 33.5 199.5t94.5 169t154 117.5t204 44zM254 1174l215 321h315l215 -321h-262l-110 157l-111 -157h-262z" />
    <glyph glyph-name="Gbreve" unicode="&#x11e;" horiz-adv-x="1564" 
d="M760 508v285h737v-793h-250l-26 166q-147 -197 -443 -197q-165 0 -300 56.5t-224 156.5t-137.5 237t-48.5 298q0 217 83 385t245 265t382 97q283 0 468.5 -143.5t221.5 -398.5h-399q-25 104 -101 161.5t-192 57.5q-65 0 -118.5 -24.5t-89.5 -65t-61 -95.5t-36.5 -115
t-11.5 -124t12 -124t38.5 -115t65 -95.5t95.5 -65t127 -24.5q116 0 189 57.5t99 157.5h-325zM782 1751q52 0 76 30.5t33 84.5h207q-6 -153 -85.5 -241.5t-230.5 -88.5q-150 0 -229.5 88.5t-85.5 241.5h209q7 -55 29.5 -85t76.5 -30z" />
    <glyph glyph-name="gbreve" unicode="&#x11f;" horiz-adv-x="1253" 
d="M600 793q-102 0 -158.5 -70t-56.5 -168q0 -101 56.5 -165t158.5 -64q103 0 159 65.5t56 163.5q0 100 -57 169t-158 69zM539 1085q200 0 299 -124l24 94h301v-955q0 -149 -40 -259t-114.5 -176.5t-174 -98t-226.5 -31.5q-219 0 -362.5 107t-173.5 309h340q11 -68 59 -107
t123 -39q112 0 167.5 65.5t55.5 186.5v70q-108 -96 -272 -96q-223 0 -357.5 148.5t-134.5 375.5q0 104 33.5 199.5t94.5 169t154 117.5t204 44zM627 1372q52 0 75.5 30t32.5 85h207q-6 -153 -85.5 -241.5t-229.5 -88.5q-151 0 -230.5 88.5t-85.5 241.5h209q7 -55 30 -85
t77 -30z" />
    <glyph glyph-name="Gdotaccent" unicode="&#x120;" horiz-adv-x="1564" 
d="M760 508v285h737v-793h-250l-26 166q-147 -197 -443 -197q-165 0 -300 56.5t-224 156.5t-137.5 237t-48.5 298q0 217 83 385t245 265t382 97q283 0 468.5 -143.5t221.5 -398.5h-399q-25 104 -101 161.5t-192 57.5q-65 0 -118.5 -24.5t-89.5 -65t-61 -95.5t-36.5 -115
t-11.5 -124t12 -124t38.5 -115t65 -95.5t95.5 -65t127 -24.5q116 0 189 57.5t99 157.5h-325zM627 1561v280h309v-280h-309z" />
    <glyph glyph-name="gdotaccent" unicode="&#x121;" horiz-adv-x="1253" 
d="M600 793q-102 0 -158.5 -70t-56.5 -168q0 -101 56.5 -165t158.5 -64q103 0 159 65.5t56 163.5q0 100 -57 169t-158 69zM539 1085q200 0 299 -124l24 94h301v-955q0 -149 -40 -259t-114.5 -176.5t-174 -98t-226.5 -31.5q-219 0 -362.5 107t-173.5 309h340q11 -68 59 -107
t123 -39q112 0 167.5 65.5t55.5 186.5v70q-108 -96 -272 -96q-223 0 -357.5 148.5t-134.5 375.5q0 104 33.5 199.5t94.5 169t154 117.5t204 44zM780 1182h-309v280h309v-280z" />
    <glyph glyph-name="uni0122" unicode="&#x122;" horiz-adv-x="1564" 
d="M760 508v285h737v-793h-250l-26 166q-147 -197 -443 -197q-165 0 -300 56.5t-224 156.5t-137.5 237t-48.5 298q0 217 83 385t245 265t382 97q283 0 468.5 -143.5t221.5 -398.5h-399q-25 104 -101 161.5t-192 57.5q-65 0 -118.5 -24.5t-89.5 -65t-61 -95.5t-36.5 -115
t-11.5 -124t12 -124t38.5 -115t65 -95.5t95.5 -65t127 -24.5q116 0 189 57.5t99 157.5h-325zM592 -748l-21 89q79 14 136.5 56.5t64.5 102.5h-162v314h348v-201q0 -134 -100.5 -236t-265.5 -125z" />
    <glyph glyph-name="uni0123" unicode="&#x123;" horiz-adv-x="1253" 
d="M600 793q-102 0 -158.5 -70t-56.5 -168q0 -101 56.5 -165t158.5 -64q103 0 159 65.5t56 163.5q0 100 -57 169t-158 69zM539 1085q200 0 299 -124l24 94h301v-955q0 -149 -40 -259t-114.5 -176.5t-174 -98t-226.5 -31.5q-219 0 -362.5 107t-173.5 309h340q11 -68 59 -107
t123 -39q112 0 167.5 65.5t55.5 186.5v70q-108 -96 -272 -96q-223 0 -357.5 148.5t-134.5 375.5q0 104 33.5 199.5t94.5 169t154 117.5t204 44zM752 1767l22 -90q-79 -15 -136.5 -56t-64.5 -101h160v-316h-346v203q0 134 100 235.5t265 124.5z" />
    <glyph glyph-name="Hcircumflex" unicode="&#x124;" horiz-adv-x="1501" 
d="M981 1434h391v-1434h-391v563h-461v-563h-391v1434h391v-551h461v551zM592 1874h315l215 -322h-262l-110 158l-111 -158h-262z" />
    <glyph glyph-name="hcircumflex" unicode="&#x125;" horiz-adv-x="1191" 
d="M737 1085q186 0 286.5 -112t100.5 -289v-684h-368v610q0 170 -144 170q-78 0 -115.5 -58.5t-37.5 -148.5v-573h-371v1434h371v-453q98 104 278 104zM98 1874h316l215 -322h-262l-111 158l-111 -158h-262z" />
    <glyph glyph-name="Hbar" unicode="&#x126;" horiz-adv-x="1501" 
d="M979 883v161h-459v-161h459zM979 1272v162h391v-162h94v-228h-94v-1044h-391v563h-459v-563h-391v1044h-94v228h94v162h391v-162h459z" />
    <glyph glyph-name="hbar" unicode="&#x127;" horiz-adv-x="1191" 
d="M737 1085q186 0 286.5 -112t100.5 -289v-684h-368v610q0 170 -144 170q-79 0 -116 -58.5t-37 -148.5v-573h-371v1124h-80v228h80v82h371v-82h172v-228h-172v-143q98 104 278 104z" />
    <glyph glyph-name="Itilde" unicode="&#x128;" horiz-adv-x="649" 
d="M129 0v1434h391v-1434h-391zM164 1874q58 0 115 -27t104.5 -53.5t81.5 -26.5q74 0 74 99h204q1 -61 -14 -117.5t-45 -104.5t-81 -77t-116 -29q-46 0 -93 17t-78 37.5t-66.5 37.5t-61.5 17q-38 0 -55.5 -29.5t-17.5 -71.5h-209q2 66 17 122t44 103.5t79.5 75t117.5 27.5z
" />
    <glyph glyph-name="itilde" unicode="&#x129;" horiz-adv-x="544" 
d="M88 0v1055h369v-1055h-369zM113 1495q46 0 92 -16.5t77 -36.5t67.5 -36.5t64.5 -16.5q73 0 73 98h205q1 -61 -14 -117.5t-45 -104.5t-81 -77t-116 -29q-59 0 -116.5 27.5t-104 54.5t-78.5 27q-38 0 -56 -29.5t-18 -71.5h-208q2 66 17 122t44 103.5t79.5 75t117.5 27.5z
" />
    <glyph glyph-name="Imacron" unicode="&#x12a;" horiz-adv-x="649" 
d="M129 0v1434h391v-1434h-391zM14 1606v227h623v-227h-623z" />
    <glyph glyph-name="imacron" unicode="&#x12b;" horiz-adv-x="544" 
d="M88 0v1055h369v-1055h-369zM-39 1227v227h623v-227h-623z" />
    <glyph glyph-name="Ibreve" unicode="&#x12c;" horiz-adv-x="649" 
d="M129 0v1434h391v-1434h-391zM326 1751q52 0 75.5 30t32.5 85h207q-6 -153 -85.5 -241.5t-229.5 -88.5q-151 0 -230.5 88.5t-85.5 241.5h209q7 -55 30 -85t77 -30z" />
    <glyph glyph-name="ibreve" unicode="&#x12d;" horiz-adv-x="544" 
d="M88 0v1055h369v-1055h-369zM272 1372q52 0 76 30.5t33 84.5h207q-6 -153 -85.5 -241.5t-230.5 -88.5q-150 0 -229.5 88.5t-85.5 241.5h209q7 -55 29.5 -85t76.5 -30z" />
    <glyph glyph-name="Iogonek" unicode="&#x12e;" horiz-adv-x="649" 
d="M352 0h-223v1434h391v-1434h2q-133 -71 -133 -182q0 -29 16.5 -47.5t45.5 -18.5q39 0 73 23l62 -162q-91 -59 -221 -59q-108 0 -176 51t-68 151q0 163 231 244z" />
    <glyph glyph-name="iogonek" unicode="&#x12f;" horiz-adv-x="544" 
d="M289 0h-201v1055h371v-1055q-133 -71 -133 -182q0 -29 16.5 -47.5t44.5 -18.5q39 0 74 23l61 -162q-91 -59 -221 -59q-108 0 -176 51t-68 151q0 162 232 244zM459 1135h-371v299h371v-299z" />
    <glyph glyph-name="Idotaccent" unicode="&#x130;" horiz-adv-x="649" 
d="M129 0v1434h391v-1434h-391zM170 1561v280h309v-280h-309z" />
    <glyph glyph-name="dotlessi" unicode="&#x131;" horiz-adv-x="544" 
d="M88 0v1055h369v-1055h-369z" />
    <glyph glyph-name="IJ" unicode="&#x132;" horiz-adv-x="1873" 
d="M129 0v1434h391v-1434h-391zM1374 1434h391v-916q0 -268 -146.5 -408.5t-408.5 -140.5q-251 0 -390.5 145t-139.5 392h356q5 -100 44 -156.5t128 -56.5q87 0 126.5 60t39.5 153v928z" />
    <glyph glyph-name="ij" unicode="&#x133;" horiz-adv-x="1091" 
d="M88 1135v299h371v-299h-371zM88 0v1055h371v-1055h-371zM633 1434h371v-299h-371v299zM633 1055h368v-1063q0 -114 -23 -196.5t-74.5 -142t-139.5 -89t-215 -29.5q-47 0 -121 12v297q36 -8 76 -8q56 0 92.5 36t36.5 89v1094z" />
    <glyph glyph-name="Jcircumflex" unicode="&#x134;" horiz-adv-x="1261" 
d="M762 1434h391v-916q0 -268 -146.5 -408.5t-408.5 -140.5q-251 0 -390.5 145t-139.5 392h356q5 -100 44 -156.5t128 -56.5q87 0 126.5 60t39.5 153v928zM797 1874h315l215 -322h-262l-111 158l-110 -158h-262z" />
    <glyph glyph-name="jcircumflex" unicode="&#x135;" horiz-adv-x="544" 
d="M88 -39v1094h369v-1063q0 -114 -23 -196.5t-75 -142t-140 -89t-215 -29.5q-47 0 -121 12v297q36 -8 76 -8q56 0 92.5 36t36.5 89zM115 1495h315l215 -321h-262l-111 157l-110 -157h-262z" />
    <glyph glyph-name="uni0136" unicode="&#x136;" horiz-adv-x="1546" 
d="M1012 0l-336 528l-156 -170v-358h-391v1434h391v-547l453 547h487l-518 -615l535 -819h-465zM530 -748l-20 89q79 14 136.5 56.5t64.5 102.5h-162v314h348v-201q0 -133 -101 -235.5t-266 -125.5z" />
    <glyph glyph-name="uni0137" unicode="&#x137;" horiz-adv-x="1275" 
d="M88 1434h371v-678l293 299h460l-419 -414l438 -641h-434l-269 420l-69 -72v-348h-371v1434zM428 -748l-20 89q78 14 135.5 56.5t64.5 102.5h-162v314h349v-201q0 -133 -101 -235.5t-266 -125.5z" />
    <glyph glyph-name="kgreenlandic" unicode="&#x138;" horiz-adv-x="1275" 
d="M88 1055h371v-299l293 299h460l-419 -414l438 -641h-434l-269 420l-69 -72v-348h-371v1055z" />
    <glyph glyph-name="Lacute" unicode="&#x139;" horiz-adv-x="1226" 
d="M129 1434h391v-1117h639v-317h-1030v1434zM389 1874h334l-262 -322h-283z" />
    <glyph glyph-name="lacute" unicode="&#x13a;" horiz-adv-x="544" 
d="M88 0v1434h371v-1434h-371zM344 1874h334l-262 -322h-283z" />
    <glyph glyph-name="uni013B" unicode="&#x13b;" horiz-adv-x="1226" 
d="M129 1434h391v-1117h639v-317h-1030v1434zM455 -748l-21 89q79 14 136.5 56.5t64.5 102.5h-162v314h348v-201q0 -134 -100.5 -236t-265.5 -125z" />
    <glyph glyph-name="uni013C" unicode="&#x13c;" horiz-adv-x="544" 
d="M88 0v1434h371v-1434h-371zM80 -748l-21 89q79 14 136.5 56.5t64.5 102.5h-162v314h348v-201q0 -134 -100.5 -236t-265.5 -125z" />
    <glyph glyph-name="Lcaron" unicode="&#x13d;" horiz-adv-x="1226" 
d="M766 1434h295l-113 -383h-243zM129 1434h391v-1117h639v-317h-1030v1434z" />
    <glyph glyph-name="lcaron" unicode="&#x13e;" horiz-adv-x="897" 
d="M602 1434h295l-113 -383h-243zM88 0v1434h371v-1434h-371z" />
    <glyph glyph-name="Ldot" unicode="&#x13f;" horiz-adv-x="1226" 
d="M694 575v283h310v-283h-310zM129 1434h391v-1117h639v-317h-1030v1434z" />
    <glyph glyph-name="ldot" unicode="&#x140;" horiz-adv-x="970" 
d="M575 575v283h310v-283h-310zM88 0v1434h371v-1434h-371z" />
    <glyph glyph-name="Lslash" unicode="&#x141;" horiz-adv-x="1226" 
d="M129 713v721h391v-506l107 59l110 -201l-217 -118v-351h639v-317h-1030v453l-63 -35l-109 200z" />
    <glyph glyph-name="lslash" unicode="&#x142;" horiz-adv-x="544" 
d="M459 0h-371v471l-96 -53l-109 200l205 113v703h371v-500l94 53l111 -201l-205 -112v-674z" />
    <glyph glyph-name="Nacute" unicode="&#x143;" horiz-adv-x="1515" 
d="M995 1434h394v-1434h-420l-449 774v-774h-391v1434h414l452 -818v818zM848 1874h334l-262 -322h-283z" />
    <glyph glyph-name="nacute" unicode="&#x144;" horiz-adv-x="1191" 
d="M737 1085q186 0 286.5 -112t100.5 -289v-684h-368v610q0 170 -144 170q-78 0 -115.5 -58.5t-37.5 -148.5v-573h-371v1055h322l20 -107q106 137 307 137zM748 1495h333l-262 -321h-282z" />
    <glyph glyph-name="uni0145" unicode="&#x145;" horiz-adv-x="1515" 
d="M995 1434h394v-1434h-420l-449 774v-774h-391v1434h414l452 -818v818zM567 -748l-20 89q79 14 136.5 56.5t64.5 102.5h-162v314h348v-201q0 -133 -101 -235.5t-266 -125.5z" />
    <glyph glyph-name="uni0146" unicode="&#x146;" horiz-adv-x="1191" 
d="M737 1085q186 0 286.5 -112t100.5 -289v-684h-368v610q0 170 -144 170q-78 0 -115.5 -58.5t-37.5 -148.5v-573h-371v1055h322l20 -107q106 137 307 137zM432 -748l-20 89q78 14 135.5 56.5t64.5 102.5h-161v314h348v-201q0 -133 -101 -235.5t-266 -125.5z" />
    <glyph glyph-name="Ncaron" unicode="&#x147;" horiz-adv-x="1515" 
d="M995 1434h394v-1434h-420l-449 774v-774h-391v1434h414l452 -818v818zM868 1878h262l-215 -322h-315l-215 322h262l111 -160z" />
    <glyph glyph-name="ncaron" unicode="&#x148;" horiz-adv-x="1191" 
d="M737 1085q186 0 286.5 -112t100.5 -289v-684h-368v610q0 170 -144 170q-78 0 -115.5 -58.5t-37.5 -148.5v-573h-371v1055h322l20 -107q106 137 307 137zM707 1499h262l-215 -321h-316l-215 321h262l111 -160z" />
    <glyph glyph-name="napostrophe" unicode="&#x149;" horiz-adv-x="1644" 
d="M1190 1085q184 0 285.5 -112t101.5 -289v-684h-371v610q0 170 -141 170q-80 0 -118 -58.5t-38 -148.5v-573h-370v1055h323l19 -107q57 72 131.5 104.5t177.5 32.5zM125 1073v361h369v-248q0 -186 -109 -305t-295 -144l-47 123q219 57 246 213h-164z" />
    <glyph glyph-name="Eng" unicode="&#x14a;" horiz-adv-x="1515" 
d="M995 -57v10l-475 821v-774h-391v1434h414l452 -816v816h394v-1467q0 -549 -601 -549l-2 318q65 0 108.5 16t64.5 47.5t28.5 64.5t7.5 79z" />
    <glyph glyph-name="eng" unicode="&#x14b;" horiz-adv-x="1191" 
d="M737 1085q186 0 286.5 -112t100.5 -289v-692q0 -114 -23 -196.5t-74.5 -142t-139.5 -89t-215 -29.5q-47 0 -121 12v297q36 -8 76 -8q56 0 92.5 36t36.5 89v647q0 170 -144 170q-78 0 -115.5 -57.5t-37.5 -147.5v-573h-371v1055h322l20 -107q106 137 307 137z" />
    <glyph glyph-name="Omacron" unicode="&#x14c;" horiz-adv-x="1589" 
d="M795 1137q-87 0 -153 -34t-105.5 -93t-58.5 -133t-19 -160t19 -160t58.5 -133t105.5 -93t153 -34t153 34t104 93t57 132.5t19 160.5t-19 160.5t-57 132.5t-104 93t-153 34zM795 1464q139 0 256.5 -37.5t203.5 -105t146 -161t89.5 -205.5t29.5 -238q0 -157 -47.5 -292.5
t-137 -237.5t-228.5 -160t-312 -58q-140 0 -258 38t-203.5 105.5t-146 161t-90 206t-29.5 237.5q0 126 29.5 238t90 205.5t146 161t203.5 105t258 37.5zM483 1606v227h623v-227h-623z" />
    <glyph glyph-name="omacron" unicode="&#x14d;" horiz-adv-x="1259" 
d="M629 795q-113 0 -168 -77t-55 -190t55 -189.5t168 -76.5q58 0 102 22t69 60.5t37.5 84.5t12.5 99q0 72 -21 130t-72.5 97.5t-127.5 39.5zM629 1085q252 0 413.5 -155.5t161.5 -401.5q0 -247 -161 -403t-414 -156t-414.5 155.5t-161.5 403.5t161.5 402.5t414.5 154.5z
M319 1227v227h623v-227h-623z" />
    <glyph glyph-name="Obreve" unicode="&#x14e;" horiz-adv-x="1589" 
d="M795 1137q-87 0 -153 -34t-105.5 -93t-58.5 -133t-19 -160t19 -160t58.5 -133t105.5 -93t153 -34t153 34t104 93t57 132.5t19 160.5t-19 160.5t-57 132.5t-104 93t-153 34zM795 1464q139 0 256.5 -37.5t203.5 -105t146 -161t89.5 -205.5t29.5 -238q0 -157 -47.5 -292.5
t-137 -237.5t-228.5 -160t-312 -58q-140 0 -258 38t-203.5 105.5t-146 161t-90 206t-29.5 237.5q0 126 29.5 238t90 205.5t146 161t203.5 105t258 37.5zM795 1751q52 0 75.5 30t32.5 85h207q-6 -153 -85.5 -241.5t-229.5 -88.5q-151 0 -230.5 88.5t-85.5 241.5h209
q7 -55 30 -85t77 -30z" />
    <glyph glyph-name="obreve" unicode="&#x14f;" horiz-adv-x="1259" 
d="M629 795q-113 0 -168 -77t-55 -190t55 -189.5t168 -76.5q58 0 102 22t69 60.5t37.5 84.5t12.5 99q0 72 -21 130t-72.5 97.5t-127.5 39.5zM629 1085q252 0 413.5 -155.5t161.5 -401.5q0 -247 -161 -403t-414 -156t-414.5 155.5t-161.5 403.5t161.5 402.5t414.5 154.5z
M629 1372q52 0 75.5 30t32.5 85h207q-6 -153 -85.5 -241.5t-229.5 -88.5q-151 0 -230.5 88.5t-85.5 241.5h209q7 -55 30 -85t77 -30z" />
    <glyph glyph-name="Ohungarumlaut" unicode="&#x150;" horiz-adv-x="1589" 
d="M795 1137q-87 0 -153 -34t-105.5 -93t-58.5 -133t-19 -160t19 -160t58.5 -133t105.5 -93t153 -34t153 34t104 93t57 132.5t19 160.5t-19 160.5t-57 132.5t-104 93t-153 34zM795 1464q139 0 256.5 -37.5t203.5 -105t146 -161t89.5 -205.5t29.5 -238q0 -157 -47.5 -292.5
t-137 -237.5t-228.5 -160t-312 -58q-140 0 -258 38t-203.5 105.5t-146 161t-90 206t-29.5 237.5q0 126 29.5 238t90 205.5t146 161t203.5 105t258 37.5zM883 1892h309l-193 -321h-268zM514 1892h309l-155 -321h-269z" />
    <glyph glyph-name="ohungarumlaut" unicode="&#x151;" horiz-adv-x="1259" 
d="M629 795q-113 0 -168 -77t-55 -190t55 -189.5t168 -76.5q58 0 102 22t69 60.5t37.5 84.5t12.5 99q0 72 -21 130t-72.5 97.5t-127.5 39.5zM629 1085q252 0 413.5 -155.5t161.5 -401.5q0 -247 -161 -403t-414 -156t-414.5 155.5t-161.5 403.5t161.5 402.5t414.5 154.5z
M717 1513h309l-192 -321h-269zM348 1513h309l-155 -321h-269z" />
    <glyph glyph-name="OE" unicode="&#x152;" horiz-adv-x="2117" 
d="M795 297q124 0 202 72v698q-80 70 -202 70q-87 0 -153 -34t-105.5 -93t-58.5 -133t-19 -160t19 -160t58.5 -133t105.5 -93t153 -34zM1026 1434h1004v-318h-641v-235h596v-320h-596v-242h641v-319h-1004q-109 -31 -231 -31q-140 0 -258 38t-203.5 105.5t-146 161t-90 206
t-29.5 237.5q0 126 29.5 238t90 205.5t146 161t203.5 105t258 37.5q126 0 231 -30z" />
    <glyph glyph-name="oe" unicode="&#x153;" horiz-adv-x="2048" 
d="M631 795q-113 0 -168 -77t-55 -190t55 -189.5t168 -76.5q58 0 102 22t69 60.5t37.5 84.5t12.5 99q0 72 -21 130t-72.5 97.5t-127.5 39.5zM1425 815q-81 0 -129.5 -49t-64.5 -127h401q-16 82 -67 129t-140 47zM1425 1085q184 0 321.5 -85t201.5 -234q66 -156 37 -338h-756
q13 -88 66 -141.5t145 -53.5q149 0 198 101h334q-61 -186 -200.5 -275.5t-331.5 -89.5q-246 0 -408 146q-159 -146 -401 -146q-253 0 -414.5 155.5t-161.5 403.5t161.5 402.5t414.5 154.5q242 0 399 -141q157 141 395 141z" />
    <glyph glyph-name="Racute" unicode="&#x154;" horiz-adv-x="1386" 
d="M737 1116h-211v-332h211q82 0 136.5 41.5t54.5 124.5q0 84 -52 125t-139 41zM1321 0h-440l-248 469h-107v-469h-397v1434h623q127 0 229 -28t179 -85t119 -151.5t42 -219.5q0 -332 -283 -436zM420 1552l211 322h334l-263 -322h-282z" />
    <glyph glyph-name="racute" unicode="&#x155;" horiz-adv-x="870" 
d="M737 1085q24 0 46.5 -1.5t32.5 -3.5l11 -1v-331q-41 6 -84 6q-124 0 -204 -91t-80 -270v-393h-371v1055h322l32 -178q41 100 119.5 154t175.5 54zM506 1495h334l-262 -321h-283z" />
    <glyph glyph-name="uni0156" unicode="&#x156;" horiz-adv-x="1386" 
d="M737 1116h-211v-332h211q82 0 136.5 41.5t54.5 124.5q0 84 -52 125t-139 41zM1321 0h-440l-248 469h-107v-469h-397v1434h623q127 0 229 -28t179 -85t119 -151.5t42 -219.5q0 -332 -283 -436zM535 -748l-21 89q79 14 136.5 56.5t64.5 102.5h-162v314h348v-201
q0 -134 -100.5 -236t-265.5 -125z" />
    <glyph glyph-name="uni0157" unicode="&#x157;" horiz-adv-x="870" 
d="M737 1085q24 0 46.5 -1.5t32.5 -3.5l11 -1v-331q-41 6 -84 6q-124 0 -204 -91t-80 -270v-393h-371v1055h322l32 -178q41 100 119.5 154t175.5 54zM76 -748l-21 89q79 14 136.5 56.5t64.5 102.5h-162v314h348v-201q0 -134 -100.5 -236t-265.5 -125z" />
    <glyph glyph-name="Rcaron" unicode="&#x158;" horiz-adv-x="1386" 
d="M737 1116h-211v-332h211q82 0 136.5 41.5t54.5 124.5q0 84 -52 125t-139 41zM1321 0h-440l-248 469h-107v-469h-397v1434h623q127 0 229 -28t179 -85t119 -151.5t42 -219.5q0 -332 -283 -436zM692 1718l111 160h262l-215 -322h-315l-216 322h263z" />
    <glyph glyph-name="rcaron" unicode="&#x159;" horiz-adv-x="870" 
d="M737 1085q24 0 46.5 -1.5t32.5 -3.5l11 -1v-331q-41 6 -84 6q-124 0 -204 -91t-80 -270v-393h-371v1055h322l32 -178q41 100 119.5 154t175.5 54zM545 1499h262l-215 -321h-316l-215 321h263l110 -160z" />
    <glyph glyph-name="Sacute" unicode="&#x15a;" horiz-adv-x="1392" 
d="M686 1464q263 0 429 -122.5t190 -368.5h-392q-27 176 -227 176q-73 0 -122.5 -29t-49.5 -94q0 -27 13 -49.5t38 -38.5t49 -27t60.5 -19.5t56 -12.5t51.5 -9q62 -10 112.5 -20.5t108.5 -29t102.5 -41t87.5 -57t70.5 -76t44.5 -98t17 -124.5q0 -101 -36 -180.5t-95 -130
t-140.5 -84t-165.5 -47t-177 -13.5q-133 0 -242 31t-195 94t-139 167.5t-67 244.5h391q27 -219 266 -219q46 0 84 9.5t69 39t31 76.5q0 20 -6 37.5t-19.5 31.5t-26.5 25t-36 20.5t-37.5 15.5t-42.5 12.5t-39.5 9t-39.5 8t-33 6.5q-66 12 -113 23t-107 29.5t-101 40t-83.5 55
t-68 74.5t-42 97.5t-16.5 124.5q0 93 34 168.5t90.5 125.5t133 84t159 49t171.5 15zM748 1874h333l-262 -322h-282z" />
    <glyph glyph-name="sacute" unicode="&#x15b;" horiz-adv-x="1150" 
d="M561 1085q107 0 196.5 -22.5t159 -67.5t110 -118t44.5 -168h-334q-14 137 -172 137q-55 0 -88 -22t-33 -58q0 -32 19.5 -55t59 -37t74 -21t89.5 -14q70 -10 123 -23.5t108.5 -38.5t91.5 -58.5t58.5 -86t22.5 -119.5q0 -75 -28 -134.5t-75 -98t-113.5 -64t-139 -36.5
t-154.5 -11q-106 0 -196.5 23.5t-162 70.5t-113.5 123.5t-45 175.5h353q8 -155 190 -155q57 0 98 20.5t41 63.5q0 23 -10 41t-32 31.5t-41.5 22.5t-54 17t-53.5 11t-54 9q-13 2 -19 3q-64 11 -117 25.5t-105.5 41t-88 60.5t-58 85t-22.5 114q0 86 41.5 152.5t111 104.5
t150 57t168.5 19zM629 1495h334l-263 -321h-282z" />
    <glyph glyph-name="Scircumflex" unicode="&#x15c;" horiz-adv-x="1392" 
d="M686 1464q263 0 429 -122.5t190 -368.5h-392q-27 176 -227 176q-73 0 -122.5 -29t-49.5 -94q0 -27 13 -49.5t38 -38.5t49 -27t60.5 -19.5t56 -12.5t51.5 -9q62 -10 112.5 -20.5t108.5 -29t102.5 -41t87.5 -57t70.5 -76t44.5 -98t17 -124.5q0 -101 -36 -180.5t-95 -130
t-140.5 -84t-165.5 -47t-177 -13.5q-133 0 -242 31t-195 94t-139 167.5t-67 244.5h391q27 -219 266 -219q46 0 84 9.5t69 39t31 76.5q0 20 -6 37.5t-19.5 31.5t-26.5 25t-36 20.5t-37.5 15.5t-42.5 12.5t-39.5 9t-39.5 8t-33 6.5q-66 12 -113 23t-107 29.5t-101 40t-83.5 55
t-68 74.5t-42 97.5t-16.5 124.5q0 93 34 168.5t90.5 125.5t133 84t159 49t171.5 15zM539 1874h315l215 -322h-262l-111 158l-110 -158h-262z" />
    <glyph glyph-name="scircumflex" unicode="&#x15d;" horiz-adv-x="1150" 
d="M561 1085q107 0 196.5 -22.5t159 -67.5t110 -118t44.5 -168h-334q-14 137 -172 137q-55 0 -88 -22t-33 -58q0 -32 19.5 -55t59 -37t74 -21t89.5 -14q70 -10 123 -23.5t108.5 -38.5t91.5 -58.5t58.5 -86t22.5 -119.5q0 -75 -28 -134.5t-75 -98t-113.5 -64t-139 -36.5
t-154.5 -11q-106 0 -196.5 23.5t-162 70.5t-113.5 123.5t-45 175.5h353q8 -155 190 -155q57 0 98 20.5t41 63.5q0 23 -10 41t-32 31.5t-41.5 22.5t-54 17t-53.5 11t-54 9q-13 2 -19 3q-64 11 -117 25.5t-105.5 41t-88 60.5t-58 85t-22.5 114q0 86 41.5 152.5t111 104.5
t150 57t168.5 19zM418 1495h315l215 -321h-262l-111 157l-110 -157h-262z" />
    <glyph glyph-name="Scedilla" unicode="&#x15e;" horiz-adv-x="1392" 
d="M543 -207l55 182q-227 24 -366.5 155.5t-163.5 375.5h391q27 -219 266 -219q46 0 84 9.5t69 39t31 76.5q0 20 -6 37.5t-19.5 31.5t-26.5 25t-36 20.5t-37.5 15.5t-42.5 12.5t-39.5 9t-39.5 8t-33 6.5q-66 12 -113 23t-107 29.5t-101 40t-83.5 55t-68 74.5t-42 97.5
t-16.5 124.5q0 93 34 168.5t90.5 125.5t133 84t159 49t171.5 15q263 0 429 -122.5t190 -368.5h-392q-27 176 -227 176q-73 0 -122.5 -29t-49.5 -94q0 -27 13 -49.5t38 -38.5t49 -27t60.5 -19.5t56 -12.5t51.5 -9q62 -10 112.5 -20.5t108.5 -29t102.5 -41t87.5 -57t70.5 -76
t44.5 -98t17 -124.5q0 -98 -34 -176t-90.5 -128.5t-134 -84.5t-158.5 -49t-171 -17l-14 -49q201 -16 201 -188q0 -114 -76 -169t-199 -55q-42 0 -93.5 12t-86.5 31v170q4 -2 21.5 -8t24.5 -9t23 -8.5t26 -8t23.5 -5.5t25 -4.5t22.5 -1.5q92 0 92 64q0 53 -125 53h-59z" />
    <glyph glyph-name="scedilla" unicode="&#x15f;" horiz-adv-x="1150" 
d="M422 -207l55 182q-182 22 -296 119.5t-118 267.5h353q8 -155 190 -155q57 0 98 20.5t41 63.5q0 23 -10 41t-32 31.5t-41.5 22.5t-54 17t-53.5 11t-54 9q-13 2 -19 3q-64 11 -117 25.5t-105.5 41t-88 60.5t-58 85t-22.5 114q0 86 41.5 152.5t111 104.5t150 57t168.5 19
q107 0 196.5 -22.5t159 -67.5t110 -118t44.5 -168h-334q-14 137 -172 137q-55 0 -88 -22t-33 -58q0 -32 19.5 -55t59 -37t74 -21t89.5 -14q70 -10 123 -23.5t108.5 -38.5t91.5 -58.5t58.5 -86t22.5 -119.5q0 -72 -25.5 -129.5t-69 -96t-105 -64.5t-129 -39t-145.5 -15
l-14 -49q201 -16 201 -188q0 -114 -76 -169t-199 -55q-42 0 -93.5 12t-86.5 31v170q122 -45 166 -45q92 0 92 64q0 53 -125 53h-59z" />
    <glyph glyph-name="Scaron" unicode="&#x160;" horiz-adv-x="1392" 
d="M686 1464q263 0 429 -122.5t190 -368.5h-392q-27 176 -227 176q-73 0 -122.5 -29t-49.5 -94q0 -27 13 -49.5t38 -38.5t49 -27t60.5 -19.5t56 -12.5t51.5 -9q62 -10 112.5 -20.5t108.5 -29t102.5 -41t87.5 -57t70.5 -76t44.5 -98t17 -124.5q0 -101 -36 -180.5t-95 -130
t-140.5 -84t-165.5 -47t-177 -13.5q-133 0 -242 31t-195 94t-139 167.5t-67 244.5h391q27 -219 266 -219q46 0 84 9.5t69 39t31 76.5q0 20 -6 37.5t-19.5 31.5t-26.5 25t-36 20.5t-37.5 15.5t-42.5 12.5t-39.5 9t-39.5 8t-33 6.5q-66 12 -113 23t-107 29.5t-101 40t-83.5 55
t-68 74.5t-42 97.5t-16.5 124.5q0 93 34 168.5t90.5 125.5t133 84t159 49t171.5 15zM807 1878h262l-215 -322h-315l-215 322h262l110 -160z" />
    <glyph glyph-name="scaron" unicode="&#x161;" horiz-adv-x="1150" 
d="M561 1085q107 0 196.5 -22.5t159 -67.5t110 -118t44.5 -168h-334q-14 137 -172 137q-55 0 -88 -22t-33 -58q0 -32 19.5 -55t59 -37t74 -21t89.5 -14q70 -10 123 -23.5t108.5 -38.5t91.5 -58.5t58.5 -86t22.5 -119.5q0 -75 -28 -134.5t-75 -98t-113.5 -64t-139 -36.5
t-154.5 -11q-106 0 -196.5 23.5t-162 70.5t-113.5 123.5t-45 175.5h353q8 -155 190 -155q57 0 98 20.5t41 63.5q0 23 -10 41t-32 31.5t-41.5 22.5t-54 17t-53.5 11t-54 9q-13 2 -19 3q-64 11 -117 25.5t-105.5 41t-88 60.5t-58 85t-22.5 114q0 86 41.5 152.5t111 104.5
t150 57t168.5 19zM686 1499h262l-215 -321h-315l-215 321h262l110 -160z" />
    <glyph glyph-name="uni0162" unicode="&#x162;" horiz-adv-x="1398" 
d="M68 1116v318h1261v-318h-434v-1116h-133l-23 -80q201 -16 201 -188q0 -114 -76.5 -169t-197.5 -55q-42 0 -94 12t-87 31v170q5 -2 25 -9.5t28.5 -10.5t27 -9t30.5 -8.5t27 -5t28 -2.5q90 0 90 64q0 53 -123 53h-59l64 207h-121v1116h-434z" />
    <glyph glyph-name="uni0163" unicode="&#x163;" horiz-adv-x="868" 
d="M223 1169v197h369v-311h231v-287h-231v-346q0 -79 38.5 -111t121.5 -32q23 0 71 6v-299q-62 -12 -127 -15l-14 -51q98 -8 149.5 -52t51.5 -136q0 -114 -76 -169t-199 -55q-42 0 -93.5 12t-86.5 31v170q122 -45 168 -45q90 0 90 64q0 53 -125 53h-59l55 178
q-174 17 -254 122t-80 300v375h-176v287h57q119 0 119 114z" />
    <glyph glyph-name="Tcaron" unicode="&#x164;" horiz-adv-x="1398" 
d="M68 1434h1261v-318h-434v-1116h-393v1116h-434v318zM809 1878h262l-215 -322h-315l-215 322h262l110 -160z" />
    <glyph glyph-name="tcaron" unicode="&#x165;" horiz-adv-x="868" 
d="M748 1552h294l-110 -383h-246zM223 1169v197h369v-311h231v-287h-231v-346q0 -79 38.5 -111t121.5 -32q23 0 71 6v-299q-107 -17 -200 -17q-208 0 -304 106t-96 318v375h-176v287h57q119 0 119 114z" />
    <glyph glyph-name="Tbar" unicode="&#x166;" horiz-adv-x="1398" 
d="M502 598h-115v227h115v291h-434v318h1261v-318h-434v-291h115v-227h-115v-598h-393v598z" />
    <glyph glyph-name="tbar" unicode="&#x167;" horiz-adv-x="868" 
d="M223 1169v197h369v-311h231v-287h-231v-94h231v-215h-231v-49q0 -72 40.5 -101.5t119.5 -29.5q23 0 71 6v-299q-107 -17 -200 -17q-208 0 -304 103.5t-96 310.5v76h-176v215h176v94h-176v287h57q119 0 119 114z" />
    <glyph glyph-name="Utilde" unicode="&#x168;" horiz-adv-x="1449" 
d="M948 1434h391v-899q0 -139 -47.5 -248.5t-131 -178t-194 -104t-241.5 -35.5t-242 35.5t-195 104t-131.5 178t-47.5 248.5v899h391v-883q0 -126 58 -192t167 -66q108 0 165.5 66.5t57.5 191.5v883zM563 1874q58 0 115 -27t104.5 -53.5t81.5 -26.5q74 0 74 99h205
q1 -61 -14 -117.5t-45 -104.5t-81 -77t-116 -29q-46 0 -93 17t-78 37.5t-66.5 37.5t-61.5 17q-38 0 -56 -29.5t-18 -71.5h-209q2 66 17 122t44 103.5t79.5 75t117.5 27.5z" />
    <glyph glyph-name="utilde" unicode="&#x169;" horiz-adv-x="1191" 
d="M735 1055h369v-1055h-322l-20 106q-55 -71 -129 -104t-178 -33q-184 0 -285.5 112.5t-101.5 289.5v684h370v-611q0 -168 142 -168q80 0 117.5 57.5t37.5 147.5v574zM434 1495q46 0 92 -16.5t77 -36.5t67.5 -36.5t64.5 -16.5q74 0 74 98h205q1 -61 -14 -117.5t-45 -104.5
t-81 -77t-116 -29q-59 0 -116.5 27.5t-104 54.5t-78.5 27q-38 0 -56 -29.5t-18 -71.5h-209q2 66 17 122t44 103.5t79.5 75t117.5 27.5z" />
    <glyph glyph-name="Umacron" unicode="&#x16a;" horiz-adv-x="1449" 
d="M948 1434h391v-899q0 -139 -47.5 -248.5t-131 -178t-194 -104t-241.5 -35.5t-242 35.5t-195 104t-131.5 178t-47.5 248.5v899h391v-883q0 -126 58 -192t167 -66q108 0 165.5 66.5t57.5 191.5v883zM414 1606v227h622v-227h-622z" />
    <glyph glyph-name="umacron" unicode="&#x16b;" horiz-adv-x="1191" 
d="M735 1055h369v-1055h-322l-20 106q-55 -71 -129 -104t-178 -33q-184 0 -285.5 112.5t-101.5 289.5v684h370v-611q0 -168 142 -168q80 0 117.5 57.5t37.5 147.5v574zM285 1227v227h622v-227h-622z" />
    <glyph glyph-name="Ubreve" unicode="&#x16c;" horiz-adv-x="1449" 
d="M948 1434h391v-899q0 -139 -47.5 -248.5t-131 -178t-194 -104t-241.5 -35.5t-242 35.5t-195 104t-131.5 178t-47.5 248.5v899h391v-883q0 -126 58 -192t167 -66q108 0 165.5 66.5t57.5 191.5v883zM725 1751q52 0 76 30.5t33 84.5h206q-6 -153 -85.5 -241.5t-229.5 -88.5
t-229.5 88.5t-85.5 241.5h208q7 -55 30 -85t77 -30z" />
    <glyph glyph-name="ubreve" unicode="&#x16d;" horiz-adv-x="1191" 
d="M735 1055h369v-1055h-322l-20 106q-55 -71 -129 -104t-178 -33q-184 0 -285.5 112.5t-101.5 289.5v684h370v-611q0 -168 142 -168q80 0 117.5 57.5t37.5 147.5v574zM596 1372q52 0 76 30.5t33 84.5h206q-6 -153 -85.5 -241.5t-229.5 -88.5t-229.5 88.5t-85.5 241.5h208
q7 -55 30 -85t77 -30z" />
    <glyph glyph-name="Uring" unicode="&#x16e;" horiz-adv-x="1449" 
d="M725 1798q-31 0 -51.5 -18.5t-20.5 -50.5q0 -31 20.5 -50.5t51.5 -19.5q30 0 49 20t19 50q0 31 -18.5 50t-49.5 19zM948 551v883h391v-899q0 -139 -47.5 -248.5t-131 -178t-194 -104t-241.5 -35.5t-242 35.5t-195 104t-131.5 178t-47.5 248.5v899h391v-883
q0 -126 58 -192t167 -66q108 0 165.5 66.5t57.5 191.5zM725 1950q97 0 164 -61.5t67 -159.5q0 -95 -67 -157.5t-164 -62.5t-165 62t-68 158q0 97 67.5 159t165.5 62z" />
    <glyph glyph-name="uring" unicode="&#x16f;" horiz-adv-x="1191" 
d="M598 1419q-31 0 -51.5 -18.5t-20.5 -50.5q0 -31 20.5 -50.5t51.5 -19.5q30 0 49 20t19 50q0 31 -18.5 50t-49.5 19zM735 481v574h369v-1055h-322l-20 106q-55 -71 -129 -104t-178 -33q-184 0 -285.5 112.5t-101.5 289.5v684h370v-611q0 -168 142 -168q80 0 117.5 57.5
t37.5 147.5zM598 1571q97 0 164 -61.5t67 -159.5q0 -95 -67 -157.5t-164 -62.5t-165 62t-68 158q0 97 67.5 159t165.5 62z" />
    <glyph glyph-name="Uhungarumlaut" unicode="&#x170;" horiz-adv-x="1449" 
d="M948 1434h391v-899q0 -139 -47.5 -248.5t-131 -178t-194 -104t-241.5 -35.5t-242 35.5t-195 104t-131.5 178t-47.5 248.5v899h391v-883q0 -126 58 -192t167 -66q108 0 165.5 66.5t57.5 191.5v883zM813 1892h309l-192 -321h-268zM444 1892h310l-156 -321h-268z" />
    <glyph glyph-name="uhungarumlaut" unicode="&#x171;" horiz-adv-x="1191" 
d="M735 1055h369v-1055h-322l-20 106q-55 -71 -129 -104t-178 -33q-184 0 -285.5 112.5t-101.5 289.5v684h370v-611q0 -168 142 -168q80 0 117.5 57.5t37.5 147.5v574zM684 1513h309l-192 -321h-269zM315 1513h310l-156 -321h-268z" />
    <glyph glyph-name="Uogonek" unicode="&#x172;" horiz-adv-x="1449" 
d="M702 -31q-127 3 -234 40t-187.5 105.5t-126 176.5t-45.5 244v899h391v-883q0 -126 58 -192t167 -66q108 0 165.5 66.5t57.5 191.5v883h391v-899q0 -215 -107.5 -352.5t-291.5 -186.5q-127 -71 -127 -178q0 -29 16.5 -47.5t44.5 -18.5q40 0 74 23l62 -162
q-91 -59 -222 -59q-107 0 -175 51t-68 151q0 133 157 213z" />
    <glyph glyph-name="uogonek" unicode="&#x173;" horiz-adv-x="1191" 
d="M936 0h-154l-20 106q-55 -71 -129 -104t-178 -33q-184 0 -285.5 112.5t-101.5 289.5v684h370v-611q0 -168 142 -168q80 0 117.5 57.5t37.5 147.5v574h369v-1055h2q-133 -71 -133 -182q0 -29 16.5 -47.5t44.5 -18.5q40 0 74 23l61 -162q-91 -59 -221 -59q-107 0 -175 51
t-68 151q0 163 231 244z" />
    <glyph glyph-name="Wcircumflex" unicode="&#x174;" horiz-adv-x="2134" 
d="M1708 1434h403l-372 -1434h-463l-209 877l-211 -877h-463l-373 1434h404l223 -961l232 961h374l232 -961zM909 1874h316l215 -322h-262l-111 158l-111 -158h-262z" />
    <glyph glyph-name="wcircumflex" unicode="&#x175;" horiz-adv-x="1818" 
d="M1401 1055h397l-297 -1055h-424l-166 641l-168 -641h-424l-299 1055h398l143 -703l160 703h379l157 -703zM752 1495h315l215 -321h-262l-111 157l-110 -157h-262z" />
    <glyph glyph-name="Ycircumflex" unicode="&#x176;" horiz-adv-x="1447" 
d="M985 1434h440l-505 -969v-465h-392v465l-508 969h441l262 -578zM565 1874h316l215 -322h-262l-111 158l-111 -158h-262z" />
    <glyph glyph-name="ycircumflex" unicode="&#x177;" horiz-adv-x="1189" 
d="M592 469l180 586h393l-383 -1086q-25 -80 -47.5 -135.5t-53.5 -107.5t-68.5 -85t-89 -58.5t-117.5 -36.5t-152 -11q-32 0 -98 12v295q33 -10 82 -10q69 0 112.5 36t59.5 93l14 39h-31l-373 1055h396zM436 1495h316l215 -321h-262l-111 157l-111 -157h-262z" />
    <glyph glyph-name="Ydieresis" unicode="&#x178;" horiz-adv-x="1447" 
d="M985 1434h440l-505 -969v-465h-392v465l-508 969h441l262 -578zM768 1561v280h309v-280h-309zM371 1561v280h309v-280h-309z" />
    <glyph glyph-name="Zacute" unicode="&#x179;" horiz-adv-x="1357" 
d="M115 1434h1134v-306l-676 -811h697v-317h-1182v305l660 811h-633v318zM729 1878h334l-262 -322h-283z" />
    <glyph glyph-name="zacute" unicode="&#x17a;" horiz-adv-x="1087" 
d="M90 1055h920v-277l-488 -491h500v-287h-959v279l474 489h-447v287zM598 1495h334l-262 -321h-283z" />
    <glyph glyph-name="Zdotaccent" unicode="&#x17b;" horiz-adv-x="1357" 
d="M115 1434h1134v-306l-676 -811h697v-317h-1182v305l660 811h-633v318zM524 1561v280h310v-280h-310z" />
    <glyph glyph-name="zdotaccent" unicode="&#x17c;" horiz-adv-x="1087" 
d="M90 1055h920v-277l-488 -491h500v-287h-959v279l474 489h-447v287zM389 1182v280h309v-280h-309z" />
    <glyph glyph-name="Zcaron" unicode="&#x17d;" horiz-adv-x="1357" 
d="M115 1434h1134v-306l-676 -811h697v-317h-1182v305l660 811h-633v318zM788 1878h263l-215 -322h-316l-215 322h262l111 -160z" />
    <glyph glyph-name="zcaron" unicode="&#x17e;" horiz-adv-x="1087" 
d="M90 1055h920v-277l-488 -491h500v-287h-959v279l474 489h-447v287zM653 1499h262l-215 -321h-315l-215 321h262l111 -160z" />
    <glyph glyph-name="uni018F" unicode="&#x18f;" horiz-adv-x="1554" 
d="M1065 520h-592q35 -107 107 -167t178 -60q122 0 198 61.5t109 165.5zM1487 717q0 -130 -28 -243t-86.5 -206t-143.5 -159.5t-204 -103t-263 -36.5q-221 0 -379 105.5t-236.5 292.5t-78.5 438h1022q-10 69 -33 127.5t-60.5 106t-94 75t-126.5 27.5q-114 0 -190.5 -57.5
t-102.5 -161.5h-397q36 255 221.5 398.5t468.5 143.5q220 0 382.5 -97t245.5 -265t83 -385z" />
    <glyph glyph-name="florin" unicode="&#x192;" horiz-adv-x="974" 
d="M143 655v234h193l24 231q6 55 23.5 104t51.5 93.5t82.5 76.5t119.5 51t158 19q75 0 143 -20v-299q-36 12 -82 12q-58 0 -93 -34t-40 -81l-16 -153h223v-234h-246l-74 -716q-7 -70 -33.5 -129.5t-75.5 -109t-131 -78t-190 -28.5q-71 0 -143 21v297q3 0 17 -3.5t31 -6
t34 -2.5q57 0 89.5 33.5t37.5 80.5l67 641h-170z" />
    <glyph glyph-name="uni01F4" unicode="&#x1f4;" horiz-adv-x="1564" 
d="M760 508v285h737v-793h-250l-26 166q-147 -197 -443 -197q-165 0 -300 56.5t-224 156.5t-137.5 237t-48.5 298q0 217 83 385t245 265t382 97q283 0 468.5 -143.5t221.5 -398.5h-399q-25 104 -101 161.5t-192 57.5q-65 0 -118.5 -24.5t-89.5 -65t-61 -95.5t-36.5 -115
t-11.5 -124t12 -124t38.5 -115t65 -95.5t95.5 -65t127 -24.5q116 0 189 57.5t99 157.5h-325zM858 1874h334l-262 -322h-283z" />
    <glyph glyph-name="uni01F5" unicode="&#x1f5;" horiz-adv-x="1253" 
d="M600 793q-102 0 -158.5 -70t-56.5 -168q0 -101 56.5 -165t158.5 -64q103 0 159 65.5t56 163.5q0 100 -57 169t-158 69zM539 1085q200 0 299 -124l24 94h301v-955q0 -149 -40 -259t-114.5 -176.5t-174 -98t-226.5 -31.5q-219 0 -362.5 107t-173.5 309h340q11 -68 59 -107
t123 -39q112 0 167.5 65.5t55.5 186.5v70q-108 -96 -272 -96q-223 0 -357.5 148.5t-134.5 375.5q0 104 33.5 199.5t94.5 169t154 117.5t204 44zM354 1174l211 321h334l-262 -321h-283z" />
    <glyph glyph-name="Aringacute" unicode="&#x1fa;" horiz-adv-x="1550" 
d="M621 559h305l-152 483zM776 1755q-31 0 -51 -18.5t-20 -50.5q0 -31 20 -50.5t51 -19.5q30 0 49 20t19 50q0 31 -18.5 50t-49.5 19zM449 0h-429l512 1434h486l512 -1434h-432l-80 250h-488zM776 1907q98 0 165 -61.5t67 -159.5q0 -95 -67.5 -157.5t-164.5 -62.5t-165 62
t-68 158q0 97 67.5 159t165.5 62zM625 1946l211 321h333l-262 -321h-282z" />
    <glyph glyph-name="aringacute" unicode="&#x1fb;" horiz-adv-x="1257" 
d="M563 399q-73 -15 -112 -39.5t-39 -70.5q0 -94 125 -94q87 0 154 57t67 133v66q-31 -15 -82 -27zM631 1419q-31 0 -51.5 -18.5t-20.5 -50.5q0 -31 20.5 -50.5t51.5 -19.5q30 0 48.5 20t18.5 50q0 31 -18 50t-49 19zM430 602q185 27 246 35q43 8 62.5 20.5t19.5 34.5
q0 131 -137 131q-66 0 -107.5 -32t-50.5 -95h-344q55 389 493 389q114 0 200.5 -22t154 -71.5t102.5 -136t35 -208.5v-338q0 -52 13 -75t54 -23h21v-242h-154q-87 0 -147.5 41t-81.5 123q-75 -90 -167 -127t-206 -37q-78 0 -143.5 17.5t-118 52.5t-82 95t-29.5 140
t28.5 139.5t81.5 96.5t114.5 58t142.5 34zM631 1571q97 0 164 -61.5t67 -159.5q0 -95 -67 -157.5t-164 -62.5t-165.5 62t-68.5 158q0 97 68 159t166 62zM483 1622l211 322h334l-262 -322h-283z" />
    <glyph glyph-name="AEacute" unicode="&#x1fc;" horiz-adv-x="2217" 
d="M1098 559v541l-307 -541h307zM23 0l858 1434h1247v-318h-639v-235h596v-320h-596v-244h639v-317h-1030v250h-457l-149 -250h-469zM932 1552l211 322h334l-263 -322h-282z" />
    <glyph glyph-name="aeacute" unicode="&#x1fd;" horiz-adv-x="1941" 
d="M754 449q-32 -16 -78 -25l-113 -25q-73 -15 -112 -39.5t-39 -70.5q0 -94 125 -94q79 0 146.5 52t84.5 124q-12 50 -14 78zM1319 815q-81 0 -130 -49t-65 -127h402q-39 176 -207 176zM1319 1085q184 0 321 -85t199 -234q65 -148 39 -338h-758q14 -89 67.5 -142t145.5 -53
q150 0 199 101h334q-61 -186 -201 -275.5t-332 -89.5q-145 0 -265.5 53.5t-199.5 149.5q-128 -203 -432 -203q-78 0 -143.5 17.5t-118 52.5t-82 95t-29.5 140t28.5 139.5t81.5 96.5t114.5 58t142.5 34q185 27 246 35q43 8 62.5 20.5t19.5 34.5q0 131 -137 131
q-66 0 -107.5 -32t-50.5 -95h-344q55 389 493 389q247 0 363 -100q142 100 344 100zM819 1174l211 321h334l-262 -321h-283z" />
    <glyph glyph-name="Oslashacute" unicode="&#x1fe;" horiz-adv-x="1589" 
d="M494 510l450 594q-68 33 -149 33q-87 0 -153 -34t-105.5 -93t-58.5 -133t-19 -160q0 -114 35 -207zM1096 926l-453 -594q62 -35 152 -35q87 0 153 34t104 93t57 132.5t19 160.5q0 121 -32 209zM369 -31h-287l168 221q-182 203 -182 527q0 126 29.5 238t90 205.5t146 161
t203.5 105t258 37.5q207 0 362 -82l64 82h284l-168 -219q183 -204 183 -528q0 -157 -47.5 -292.5t-137 -237.5t-228.5 -160t-312 -58q-210 0 -365 82zM522 1552l211 322h334l-262 -322h-283z" />
    <glyph glyph-name="oslashacute" unicode="&#x1ff;" horiz-adv-x="1259" 
d="M424 418l276 366q-37 11 -69 11q-113 0 -168 -77t-55 -190q0 -54 16 -110zM838 637l-279 -365q38 -10 72 -10q58 0 102 22t69 60.5t37.5 84.5t12.5 99q0 60 -14 109zM930 1085h250l-127 -163q153 -156 153 -394q0 -247 -161 -403t-414 -156q-143 0 -260 54l-41 -54h-248
l125 166q-152 152 -152 393q0 248 161.5 402.5t414.5 154.5q139 0 260 -51zM483 1174l211 321h334l-262 -321h-283z" />
    <glyph glyph-name="uni0218" unicode="&#x218;" horiz-adv-x="1392" 
d="M686 1464q263 0 429 -122.5t190 -368.5h-392q-27 176 -227 176q-73 0 -122.5 -29t-49.5 -94q0 -27 13 -49.5t38 -38.5t49 -27t60.5 -19.5t56 -12.5t51.5 -9q62 -10 112.5 -20.5t108.5 -29t102.5 -41t87.5 -57t70.5 -76t44.5 -98t17 -124.5q0 -101 -36 -180.5t-95 -130
t-140.5 -84t-165.5 -47t-177 -13.5q-133 0 -242 31t-195 94t-139 167.5t-67 244.5h391q27 -219 266 -219q46 0 84 9.5t69 39t31 76.5q0 20 -6 37.5t-19.5 31.5t-26.5 25t-36 20.5t-37.5 15.5t-42.5 12.5t-39.5 9t-39.5 8t-33 6.5q-66 12 -113 23t-107 29.5t-101 40t-83.5 55
t-68 74.5t-42 97.5t-16.5 124.5q0 93 34 168.5t90.5 125.5t133 84t159 49t171.5 15zM512 -748l-20 89q78 14 135.5 56.5t64.5 102.5h-162v314h349v-201q0 -133 -101 -235.5t-266 -125.5z" />
    <glyph glyph-name="uni0219" unicode="&#x219;" horiz-adv-x="1150" 
d="M561 1085q107 0 196.5 -22.5t159 -67.5t110 -118t44.5 -168h-334q-14 137 -172 137q-55 0 -88 -22t-33 -58q0 -32 19.5 -55t59 -37t74 -21t89.5 -14q70 -10 123 -23.5t108.5 -38.5t91.5 -58.5t58.5 -86t22.5 -119.5q0 -75 -28 -134.5t-75 -98t-113.5 -64t-139 -36.5
t-154.5 -11q-106 0 -196.5 23.5t-162 70.5t-113.5 123.5t-45 175.5h353q8 -155 190 -155q57 0 98 20.5t41 63.5q0 23 -10 41t-32 31.5t-41.5 22.5t-54 17t-53.5 11t-54 9q-13 2 -19 3q-64 11 -117 25.5t-105.5 41t-88 60.5t-58 85t-22.5 114q0 86 41.5 152.5t111 104.5
t150 57t168.5 19zM365 -748l-21 89q79 14 136.5 56.5t64.5 102.5h-162v314h348v-201q0 -134 -100.5 -236t-265.5 -125z" />
    <glyph glyph-name="uni021A" unicode="&#x21a;" horiz-adv-x="1398" 
d="M68 1434h1261v-318h-434v-1116h-393v1116h-434v318zM508 -748l-21 89q79 14 136.5 56.5t64.5 102.5h-162v314h348v-201q0 -134 -100.5 -236t-265.5 -125z" />
    <glyph glyph-name="uni021B" unicode="&#x21b;" horiz-adv-x="868" 
d="M223 1366h369v-311h231v-287h-231v-346q0 -79 38.5 -111t121.5 -32q23 0 71 6v-299q-107 -17 -200 -17q-208 0 -304 106t-96 318v375h-176v287h57q119 0 119 114v197zM385 -748l-20 89q78 14 135.5 56.5t64.5 102.5h-162v314h349v-201q0 -133 -101 -235.5t-266 -125.5z
" />
    <glyph glyph-name="uni0232" unicode="&#x232;" horiz-adv-x="1447" 
d="M985 1434h440l-505 -969v-465h-392v465l-508 969h441l262 -578zM414 1606v227h622v-227h-622z" />
    <glyph glyph-name="uni0233" unicode="&#x233;" horiz-adv-x="1189" 
d="M592 469l180 586h393l-383 -1086q-25 -80 -47.5 -135.5t-53.5 -107.5t-68.5 -85t-89 -58.5t-117.5 -36.5t-152 -11q-32 0 -98 12v295q33 -10 82 -10q69 0 112.5 36t59.5 93l14 39h-31l-373 1055h396zM285 1227v227h622v-227h-622z" />
    <glyph glyph-name="uni0237" unicode="&#x237;" horiz-adv-x="544" 
d="M88 -39v1094h369v-1063q0 -114 -23 -196.5t-75 -142t-140 -89t-215 -29.5q-47 0 -121 12v297q36 -8 76 -8q56 0 92.5 36t36.5 89z" />
    <glyph glyph-name="uni0259" unicode="&#x259;" 
d="M621 242q83 0 131.5 48t64.5 128h-403q39 -176 207 -176zM621 -31q-183 0 -320 85.5t-201 234.5q-65 158 -37 340h756q-13 87 -66 140.5t-147 53.5q-146 0 -196 -102h-336q41 126 122 209t183.5 119t228.5 36q166 0 299 -68.5t209 -196t76 -292.5q0 -163 -73 -290.5
t-203.5 -198t-294.5 -70.5z" />
    <glyph glyph-name="circumflex" unicode="&#x2c6;" horiz-adv-x="921" 
d="M303 1495h315l216 -321h-263l-110 157l-111 -157h-262z" />
    <glyph glyph-name="caron" unicode="&#x2c7;" horiz-adv-x="921" 
d="M571 1499h263l-216 -321h-315l-215 321h262l111 -160z" />
    <glyph glyph-name="breve" unicode="&#x2d8;" horiz-adv-x="806" 
d="M403 1372q52 0 76 30.5t33 84.5h207q-6 -153 -85.5 -241.5t-230.5 -88.5q-150 0 -229.5 88.5t-85.5 241.5h209q7 -55 29.5 -85t76.5 -30z" />
    <glyph glyph-name="dotaccent" unicode="&#x2d9;" horiz-adv-x="569" 
d="M129 1182v280h309v-280h-309z" />
    <glyph glyph-name="ring" unicode="&#x2da;" horiz-adv-x="641" 
d="M322 1419q-31 0 -51.5 -18.5t-20.5 -50.5q0 -31 20.5 -50.5t51.5 -19.5q30 0 48.5 20t18.5 50q0 31 -18 50t-49 19zM322 1571q97 0 164 -61.5t67 -159.5q0 -95 -67 -157.5t-164 -62.5t-165.5 62t-68.5 158q0 97 68 159t166 62z" />
    <glyph glyph-name="ogonek" unicode="&#x2db;" horiz-adv-x="638" 
d="M381 18l108 -18q-133 -71 -133 -182q0 -29 16.5 -47.5t45.5 -18.5q40 0 74 23l61 -162q-91 -59 -221 -59q-108 0 -176 51t-68 151q0 46 19.5 85.5t48.5 67t70 50t77.5 36t77.5 23.5z" />
    <glyph glyph-name="tilde" unicode="&#x2dc;" horiz-adv-x="1013" 
d="M346 1495q46 0 92 -16.5t77 -36.5t67.5 -36.5t64.5 -16.5q74 0 74 98h205q1 -61 -14 -117.5t-45 -104.5t-81 -77t-116 -29q-59 0 -116.5 27.5t-104 54.5t-78.5 27q-38 0 -56 -29.5t-18 -71.5h-209q2 66 17 122t44 103.5t79.5 75t117.5 27.5z" />
    <glyph glyph-name="hungarumlaut" unicode="&#x2dd;" horiz-adv-x="968" 
d="M571 1513h310l-193 -321h-268zM203 1513h309l-156 -321h-268z" />
    <glyph glyph-name="uni0307" unicode="&#x307;" horiz-adv-x="569" 
d="M129 1182v280h309v-280h-309z" />
    <glyph glyph-name="uni0312" unicode="&#x312;" horiz-adv-x="0" 
d="M115 1511h182l-70 -368h-221z" />
    <glyph glyph-name="uni0326" unicode="&#x326;" horiz-adv-x="0" 
d="M-37 -748l-20 89q78 14 135.5 56.5t64.5 102.5h-161v314h348v-201q0 -133 -101 -235.5t-266 -125.5z" />
    <glyph glyph-name="uni0394" unicode="&#x394;" horiz-adv-x="1728" 
d="M1159 317l-297 738l-299 -738h596zM23 0l632 1464h420l633 -1464h-1685z" />
    <glyph glyph-name="uni03A9" unicode="&#x3a9;" horiz-adv-x="1665" 
d="M831 1464q209 0 377.5 -80t268.5 -234.5t100 -358.5q0 -125 -55 -253.5t-162 -220.5h176v-317h-631v303q119 57 190.5 177.5t71.5 262.5q0 181 -84.5 286.5t-251.5 105.5q-166 0 -250.5 -105.5t-84.5 -286.5q0 -144 69 -263.5t187 -176.5v-303h-625v317h176
q-107 92 -161 220t-54 254q0 204 99.5 358.5t267 234.5t376.5 80z" />
    <glyph glyph-name="uni03BC" unicode="&#x3bc;" horiz-adv-x="1243" 
d="M403 -358h-301v1413h371v-611q0 -170 141 -170q80 0 118 58.5t38 148.5v574h369v-1055h-322l-16 90q-73 -121 -223 -121q-113 0 -175 62v-389z" />
    <glyph glyph-name="pi" unicode="&#x3c0;" horiz-adv-x="1447" 
d="M784 426v313h-155v-739h-369v739h-172v318h1255v-318h-188v-344q0 -53 35.5 -89t93.5 -36q31 0 76 9v-297q-80 -13 -121 -13q-248 0 -351.5 113t-103.5 344z" />
    <glyph glyph-name="uni0E3F" unicode="&#xe3f;" horiz-adv-x="1394" 
d="M586 287v301h-66v-301h66zM791 586v-297q157 16 157 149q0 134 -157 148zM586 879v268h-66v-268h66zM791 1139v-252q96 28 96 125q0 103 -96 127zM586 1434v219h205v-219h30q67 0 129.5 -12t122.5 -41t104 -72.5t70.5 -110.5t26.5 -151q0 -103 -51 -184t-146 -120
q117 -37 183.5 -124.5t66.5 -221.5q0 -86 -24.5 -154t-67 -113t-102.5 -75t-128.5 -42.5t-148.5 -12.5h-65v-219h-205v219h-457v1434h457z" />
    <glyph glyph-name="uni1E44" unicode="&#x1e44;" horiz-adv-x="1515" 
d="M995 1434h394v-1434h-420l-449 774v-774h-391v1434h414l452 -818v818zM604 1561v280h309v-280h-309z" />
    <glyph glyph-name="uni1E45" unicode="&#x1e45;" horiz-adv-x="1191" 
d="M737 1085q186 0 286.5 -112t100.5 -289v-684h-368v610q0 170 -144 170q-78 0 -115.5 -58.5t-37.5 -148.5v-573h-371v1055h322l20 -107q106 137 307 137zM440 1182v280h310v-280h-310z" />
    <glyph glyph-name="Wgrave" unicode="&#x1e80;" horiz-adv-x="2134" 
d="M1708 1434h403l-372 -1434h-463l-209 877l-211 -877h-463l-373 1434h404l223 -961l232 961h374l232 -961zM680 1874h332l213 -322h-283z" />
    <glyph glyph-name="wgrave" unicode="&#x1e81;" horiz-adv-x="1818" 
d="M1401 1055h397l-297 -1055h-424l-166 641l-168 -641h-424l-299 1055h398l143 -703l160 703h379l157 -703zM512 1495h332l213 -321h-283z" />
    <glyph glyph-name="Wacute" unicode="&#x1e82;" horiz-adv-x="2134" 
d="M1708 1434h403l-372 -1434h-463l-209 877l-211 -877h-463l-373 1434h404l223 -961l232 961h374l232 -961zM1145 1874h334l-262 -322h-283z" />
    <glyph glyph-name="wacute" unicode="&#x1e83;" horiz-adv-x="1818" 
d="M1401 1055h397l-297 -1055h-424l-166 641l-168 -641h-424l-299 1055h398l143 -703l160 703h379l157 -703zM983 1495h334l-262 -321h-283z" />
    <glyph glyph-name="Wdieresis" unicode="&#x1e84;" horiz-adv-x="2134" 
d="M1708 1434h403l-372 -1434h-463l-209 877l-211 -877h-463l-373 1434h404l223 -961l232 961h374l232 -961zM1110 1561v280h309v-280h-309zM713 1561v280h309v-280h-309z" />
    <glyph glyph-name="wdieresis" unicode="&#x1e85;" horiz-adv-x="1818" 
d="M1401 1055h397l-297 -1055h-424l-166 641l-168 -641h-424l-299 1055h398l143 -703l160 703h379l157 -703zM952 1182v280h310v-280h-310zM555 1182v280h309v-280h-309z" />
    <glyph glyph-name="Germandbls" unicode="&#x1e9e;" horiz-adv-x="1406" 
d="M707 1464q85 0 162.5 -18.5t134 -46.5t104 -66t77 -73.5t48.5 -71.5v-148l-232 -245q166 -31 249 -139.5t83 -258.5q0 -92 -31 -166.5t-81 -122.5t-118 -80t-138 -45.5t-144 -13.5q-159 0 -252 45v285q26 -16 76 -26.5t92 -10.5q97 0 150 47.5t53 128.5q0 48 -23.5 80.5
t-67 47.5t-87.5 20.5t-103 5.5v289l205 219q-88 69 -162 69q-89 0 -135.5 -56.5t-46.5 -158.5v-954h-391v905q0 276 146.5 417.5t431.5 141.5z" />
    <glyph glyph-name="uni1EB8" unicode="&#x1eb8;" 
d="M129 1434h1030v-320h-639v-235h596v-318h-596v-244h639v-317h-1030v1434zM489 -473v280h310v-280h-310z" />
    <glyph glyph-name="uni1EB9" unicode="&#x1eb9;" 
d="M625 815q-83 0 -132 -48.5t-65 -127.5h403q-39 176 -206 176zM625 1087q183 0 320 -85.5t200 -235.5q66 -156 37 -338h-756q13 -89 66 -142t147 -53q147 0 197 103h335q-41 -126 -122 -210t-183.5 -120.5t-228.5 -36.5q-166 0 -299 69t-209 197t-76 293q0 163 73.5 290.5
t204 198t294.5 70.5zM776 -471h-309v281h309v-281z" />
    <glyph glyph-name="uni1EBC" unicode="&#x1ebc;" 
d="M129 1434h1030v-318h-639v-235h596v-320h-596v-244h639v-317h-1030v1434zM483 1874q58 0 115 -27t104.5 -53.5t81.5 -26.5q74 0 74 99h205q1 -61 -14 -117.5t-45 -104.5t-81 -77t-116 -29q-46 0 -93 17t-78 37.5t-66.5 37.5t-61.5 17q-38 0 -56 -29.5t-18 -71.5h-209
q2 66 17 122t44 103.5t79.5 75t117.5 27.5z" />
    <glyph glyph-name="uni1EBD" unicode="&#x1ebd;" 
d="M625 815q-83 0 -132 -49t-65 -127h403q-39 176 -206 176zM625 1085q183 0 319.5 -85t200.5 -234q65 -158 37 -338h-756q13 -89 66 -142t147 -53q148 0 197 101h335q-41 -125 -122 -208.5t-183.5 -120t-228.5 -36.5q-166 0 -299 69t-209 197t-76 293q0 245 161 401
t411 156zM463 1495q46 0 92 -16.5t77 -36.5t67.5 -36.5t64.5 -16.5q74 0 74 98h204q1 -61 -14 -117.5t-45 -104.5t-81 -77t-116 -29q-59 0 -116.5 27.5t-104 54.5t-78.5 27q-38 0 -55.5 -29.5t-17.5 -71.5h-209q2 66 17 122t44 103.5t79.5 75t117.5 27.5z" />
    <glyph glyph-name="uni1ECA" unicode="&#x1eca;" horiz-adv-x="649" 
d="M170 -473v280h309v-280h-309zM129 0v1434h391v-1434h-391z" />
    <glyph glyph-name="uni1ECB" unicode="&#x1ecb;" horiz-adv-x="544" 
d="M119 -473v280h309v-280h-309zM88 1135v299h371v-299h-371zM88 0v1055h371v-1055h-371z" />
    <glyph glyph-name="uni1ECC" unicode="&#x1ecc;" horiz-adv-x="1589" 
d="M639 -473v280h309v-280h-309zM795 1137q-87 0 -153 -34t-105.5 -93t-58.5 -133t-19 -160t19 -160t58.5 -133t105.5 -93t153 -34t153 34t104 93t57 132.5t19 160.5t-19 160.5t-57 132.5t-104 93t-153 34zM795 1464q173 0 312 -58t228.5 -159.5t137 -237t47.5 -292.5
q0 -158 -47.5 -293.5t-137 -238t-228.5 -160.5t-312 -58q-174 0 -313.5 58t-229 160.5t-137 238t-47.5 293.5q0 157 47.5 292.5t137 237t229 159.5t313.5 58z" />
    <glyph glyph-name="uni1ECD" unicode="&#x1ecd;" horiz-adv-x="1259" 
d="M473 -473v280h309v-280h-309zM629 793q-113 0 -168 -77t-55 -190q0 -112 55 -188t168 -76q58 0 102 22t69 60.5t37.5 84t12.5 97.5q0 72 -21 130t-72.5 97.5t-127.5 39.5zM629 1085q166 0 296.5 -70t204.5 -197.5t74 -291.5q0 -247 -161 -403t-414 -156t-414.5 156
t-161.5 403q0 248 161.5 403.5t414.5 155.5z" />
    <glyph glyph-name="uni1EE4" unicode="&#x1ee4;" horiz-adv-x="1449" 
d="M569 -473v280h310v-280h-310zM948 549v885h391v-899q0 -139 -47.5 -248.5t-131 -178.5t-194 -105t-241.5 -36t-241.5 35.5t-195 104t-132 178.5t-47.5 250v899h391v-885q0 -124 58 -190t167 -66t166 65.5t57 190.5z" />
    <glyph glyph-name="uni1EE5" unicode="&#x1ee5;" horiz-adv-x="1191" 
d="M432 -473v280h309v-280h-309zM735 481v574h369v-1055h-322l-20 106q-55 -71 -129 -104t-178 -33q-185 0 -286 112t-101 290v684h370v-611q0 -170 142 -170q79 0 117 58.5t38 148.5z" />
    <glyph glyph-name="Ygrave" unicode="&#x1ef2;" horiz-adv-x="1447" 
d="M985 1434h440l-505 -969v-465h-392v465l-508 969h441l262 -578zM326 1874h331l213 -322h-282z" />
    <glyph glyph-name="ygrave" unicode="&#x1ef3;" horiz-adv-x="1189" 
d="M592 469l180 586h393l-383 -1086q-25 -80 -47.5 -135.5t-53.5 -107.5t-68.5 -85t-89 -58.5t-117.5 -36.5t-152 -11q-32 0 -98 12v295q33 -10 82 -10q69 0 112.5 36t59.5 93l14 39h-31l-373 1055h396zM186 1495h332l213 -321h-282z" />
    <glyph glyph-name="uni1EF8" unicode="&#x1ef8;" horiz-adv-x="1447" 
d="M985 1434h440l-505 -969v-465h-392v465l-508 969h441l262 -578zM563 1874q58 0 115 -27t104.5 -53.5t81.5 -26.5q74 0 74 99h205q1 -61 -14 -117.5t-45 -104.5t-81 -77t-116 -29q-46 0 -93 17t-78 37.5t-66.5 37.5t-61.5 17q-38 0 -56 -29.5t-18 -71.5h-209q2 66 17 122
t44 103.5t79.5 75t117.5 27.5z" />
    <glyph glyph-name="uni1EF9" unicode="&#x1ef9;" horiz-adv-x="1189" 
d="M592 469l180 586h393l-383 -1086q-25 -80 -47.5 -135.5t-53.5 -107.5t-68.5 -85t-89 -58.5t-117.5 -36.5t-152 -11q-32 0 -98 12v295q33 -10 82 -10q69 0 112.5 36t59.5 93l14 39h-31l-373 1055h396zM434 1495q46 0 92 -16.5t77 -36.5t67.5 -36.5t64.5 -16.5q74 0 74 98
h205q1 -61 -14 -117.5t-45 -104.5t-81 -77t-116 -29q-59 0 -116.5 27.5t-104 54.5t-78.5 27q-38 0 -56 -29.5t-18 -71.5h-209q2 66 17 122t44 103.5t79.5 75t117.5 27.5z" />
    <glyph glyph-name="endash" unicode="&#x2013;" horiz-adv-x="1062" 
d="M129 436v318h805v-318h-805z" />
    <glyph glyph-name="emdash" unicode="&#x2014;" horiz-adv-x="1423" 
d="M0 436v316h1421v-316h-1421z" />
    <glyph glyph-name="uni2015" unicode="&#x2015;" horiz-adv-x="1896" 
d="M0 436v316h1894v-316h-1894z" />
    <glyph glyph-name="quoteleft" unicode="&#x2018;" horiz-adv-x="622" 
d="M535 1434l45 -123q-217 -56 -244 -213h164v-361h-371v248q0 186 109.5 305t296.5 144z" />
    <glyph glyph-name="quoteright" unicode="&#x2019;" horiz-adv-x="622" 
d="M125 1432h369v-248q0 -184 -109 -303t-295 -146l-47 123q218 57 246 213h-164v361z" />
    <glyph glyph-name="quotesinglbase" unicode="&#x201a;" horiz-adv-x="622" 
d="M125 360h369v-247q0 -184 -109 -303t-295 -146l-47 123q218 57 246 213h-164v360z" />
    <glyph glyph-name="quotedblleft" unicode="&#x201c;" horiz-adv-x="1081" 
d="M535 1432l45 -123q-217 -56 -244 -213h164v-361h-371v248q0 186 109.5 305t296.5 144zM993 1432l45 -123q-216 -56 -243 -213h163v-361h-370v248q0 186 109.5 305t295.5 144z" />
    <glyph glyph-name="quotedblright" unicode="&#x201d;" horiz-adv-x="1081" 
d="M584 1432h368v-248q0 -185 -108.5 -304t-296.5 -145l-45 123q215 56 243 213h-161v361zM125 1432h369v-248q0 -184 -109 -303t-295 -146l-47 123q218 57 246 213h-164v361z" />
    <glyph glyph-name="quotedblbase" unicode="&#x201e;" horiz-adv-x="1081" 
d="M584 360h368v-247q0 -185 -108.5 -304t-296.5 -145l-45 123q215 56 243 213h-161v360zM125 360h369v-247q0 -184 -109 -303t-295 -146l-47 123q218 57 246 213h-164v360z" />
    <glyph glyph-name="dagger" unicode="&#x2020;" horiz-adv-x="1064" 
d="M346 1464h371v-358h258v-311h-258v-826h-371v826h-258v311h258v358z" />
    <glyph glyph-name="daggerdbl" unicode="&#x2021;" horiz-adv-x="1062" 
d="M346 1464h371v-266h258v-311h-258v-340h258v-311h-258v-267h-371v267h-258v311h258v340h-258v311h258v266z" />
    <glyph glyph-name="bullet" unicode="&#x2022;" horiz-adv-x="749" 
d="M614 717q0 -100 -70 -171t-169 -71q-100 0 -171 71t-71 171q0 99 71 169t171 70t169.5 -69.5t69.5 -169.5z" />
    <glyph glyph-name="ellipsis" unicode="&#x2026;" horiz-adv-x="1624" 
d="M129 0v360h369v-360h-369zM627 0v360h370v-360h-370zM1126 0v360h369v-360h-369z" />
    <glyph glyph-name="perthousand" unicode="&#x2030;" horiz-adv-x="2797" 
d="M1325 1434h303l-971 -1434h-301zM465 1245q-127 0 -127 -207t127 -207q129 0 129 207t-129 207zM465 1464q181 0 280 -114t99 -312t-100 -312t-279 -114t-278 114.5t-99 311.5t99 311.5t278 114.5zM1513 602q-127 0 -127 -207t127 -207q129 0 129 207t-129 207zM1513 821
q181 0 280 -114t99 -312t-100 -312t-279 -114t-277.5 115t-98.5 311q0 198 98.5 312t277.5 114zM2331 602q-127 0 -127 -207t127 -207q129 0 129 207t-129 207zM2331 821q181 0 280 -114t99 -312t-100 -312t-279 -114t-278 115t-99 311q0 197 99 311.5t278 114.5z" />
    <glyph glyph-name="guilsinglleft" unicode="&#x2039;" horiz-adv-x="1083" 
d="M514 1237h438l-422 -520l422 -522h-438l-426 522z" />
    <glyph glyph-name="guilsinglright" unicode="&#x203a;" horiz-adv-x="1081" 
d="M129 1237h440l426 -520l-426 -522h-440l422 522z" />
    <glyph glyph-name="uni203D" unicode="&#x203d;" horiz-adv-x="1288" 
d="M436 0v360h369v-360h-369zM662 1464q89 0 167 -14t146.5 -45.5t117.5 -78t77 -115.5t28 -154q0 -57 -18.5 -105t-47.5 -80t-69 -63.5t-77 -53.5t-77 -52t-65 -58q-58 -61 -58 -143v-60h-374l-64 576h328v-125q29 19 45 31t34 30t25.5 39t7.5 47q0 56 -41.5 89.5
t-103.5 33.5q-136 0 -174 -110h-381q23 201 176 306t398 105z" />
    <glyph glyph-name="fraction" unicode="&#x2044;" horiz-adv-x="473" 
d="M569 1434h303l-970 -1434h-301z" />
    <glyph glyph-name="uni2070" unicode="&#x2070;" horiz-adv-x="841" 
d="M420 1448q-64 0 -98.5 -61t-34.5 -162q0 -100 34.5 -162t98.5 -62q65 0 100 61.5t35 162.5q0 102 -34.5 162.5t-100.5 60.5zM420 1653q176 0 275.5 -116.5t99.5 -311.5q0 -193 -99.5 -309.5t-275.5 -116.5q-175 0 -274 116.5t-99 309.5q0 195 99 311.5t274 116.5z" />
    <glyph glyph-name="uni2074" unicode="&#x2074;" horiz-adv-x="811" 
d="M430 1151v260l-158 -260h158zM35 1096l346 555h289v-500h100v-201h-100v-147h-240v147h-395v146z" />
    <glyph glyph-name="uni2075" unicode="&#x2075;" horiz-adv-x="778" 
d="M690 1653v-199h-366l-15 -127q56 39 152 39q123 0 196.5 -75.5t73.5 -200.5q0 -75 -29 -133t-78.5 -91.5t-108 -50t-124.5 -16.5q-151 0 -242.5 70.5t-101.5 197.5h240q14 -76 104 -76q43 0 76 27.5t33 75.5q0 43 -30 71.5t-77 28.5q-31 0 -60 -16t-42 -45h-240l64 520
h575z" />
    <glyph glyph-name="uni2076" unicode="&#x2076;" horiz-adv-x="782" 
d="M403 1198q-42 0 -72 -26.5t-30 -71.5q0 -49 29 -74t71 -25q43 0 72 25.5t29 73.5q0 44 -27.5 71t-71.5 27zM446 1354q131 0 208 -73.5t77 -197.5q0 -55 -20 -105t-58 -90.5t-101 -64.5t-142 -24q-175 0 -269 105.5t-94 293.5q0 211 94.5 333t270.5 122q137 0 219 -68
t102 -201h-223q-16 72 -96 72q-59 0 -89 -45t-32 -104q62 47 153 47z" />
    <glyph glyph-name="uni2077" unicode="&#x2077;" horiz-adv-x="710" 
d="M670 1653v-178q-244 -267 -244 -676h-248q0 160 63 341.5t169 313.5h-375v199h635z" />
    <glyph glyph-name="uni2078" unicode="&#x2078;" horiz-adv-x="831" 
d="M416 987q13 0 29 3t38.5 10.5t37 26.5t14.5 46q0 45 -37.5 66.5t-81.5 21.5t-81.5 -21.5t-37.5 -66.5q0 -27 14.5 -46t36.5 -26.5t38 -10.5t30 -3zM416 1464q-23 0 -43.5 -4.5t-40 -22t-19.5 -46.5q0 -26 21.5 -47t81.5 -21q100 0 100 68q0 41 -30 57t-70 16zM416 1653
q157 0 247.5 -63t90.5 -175q0 -54 -29 -96.5t-80 -67.5q64 -26 100.5 -80t36.5 -122q0 -64 -29.5 -112t-71 -73.5t-96 -41t-93.5 -19.5t-76 -4q-42 0 -84.5 4.5t-96 20.5t-93.5 42t-67.5 73.5t-27.5 109.5q0 68 37.5 121.5t101.5 80.5q-53 25 -81.5 67.5t-28.5 96.5
q0 112 91 175t249 63z" />
    <glyph glyph-name="uni2079" unicode="&#x2079;" horiz-adv-x="782" 
d="M379 1450q-43 0 -71.5 -25t-28.5 -73q0 -44 27.5 -71.5t72.5 -27.5q41 0 71.5 27t30.5 72q0 48 -29.5 73t-72.5 25zM373 1653q173 0 266.5 -106.5t93.5 -295.5q0 -209 -94.5 -330.5t-269.5 -121.5q-137 0 -219.5 67t-102.5 199h223q20 -70 99 -70q60 0 88 46.5t30 101.5
q-59 -47 -153 -47q-131 0 -208 73t-77 197q0 118 84 202.5t240 84.5z" />
    <glyph glyph-name="uni2080" unicode="&#x2080;" horiz-adv-x="841" 
d="M420 317q-64 0 -98.5 -61t-34.5 -162q0 -100 34.5 -161.5t98.5 -61.5q65 0 100 61.5t35 161.5q0 102 -34.5 162.5t-100.5 60.5zM420 522q176 0 275.5 -116.5t99.5 -311.5q0 -193 -99.5 -309.5t-275.5 -116.5q-175 0 -274 116.5t-99 309.5q0 195 99 311.5t274 116.5z" />
    <glyph glyph-name="uni2081" unicode="&#x2081;" horiz-adv-x="542" 
d="M252 522h201v-854h-238v516h-168v191q30 0 47.5 0.5t42 3.5t39 8.5t31 16.5t25 26.5t14.5 38.5t6 53z" />
    <glyph glyph-name="uni2082" unicode="&#x2082;" horiz-adv-x="765" 
d="M393 520q61 0 115.5 -14t100.5 -43t73 -81t27 -120q0 -35 -7 -64.5t-25.5 -56t-33 -44t-46.5 -41t-48 -34t-55 -34.5q-41 -24 -61 -37t-48.5 -36.5t-44.5 -47.5h379v-199h-670v76q0 65 18 120.5t42.5 93t65.5 72.5t72.5 55t76.5 44q9 5 26.5 14.5t26 14t23 13t21.5 13.5
t17.5 13t15.5 14t11 14t8 16t2 17q0 31 -23 48.5t-61 17.5q-93 0 -104 -111h-240q12 141 104.5 224t241.5 83z" />
    <glyph glyph-name="uni2083" unicode="&#x2083;" horiz-adv-x="788" 
d="M399 520q143 0 228.5 -63t85.5 -172q0 -58 -27.5 -103.5t-77.5 -68.5q62 -22 96.5 -70t34.5 -115q0 -86 -51 -146.5t-127 -87t-166 -26.5q-153 0 -247.5 81t-100.5 220h227q3 -49 36 -77.5t83 -28.5q103 0 103 84q0 78 -109 78h-86v161h72q41 0 72.5 17t31.5 53
q0 72 -88 72q-42 0 -67 -21.5t-29 -62.5h-223q7 128 96.5 202t232.5 74z" />
    <glyph glyph-name="uni2084" unicode="&#x2084;" horiz-adv-x="811" 
d="M430 23v260l-158 -260h158zM35 -33l346 555h289v-499h100v-201h-100v-148h-240v148h-395v145z" />
    <glyph glyph-name="uni2085" unicode="&#x2085;" horiz-adv-x="778" 
d="M690 522v-198h-366l-15 -127q56 39 152 39q123 0 196.5 -76t73.5 -201q0 -75 -29 -133t-78.5 -91.5t-108 -50t-124.5 -16.5q-151 0 -242.5 71t-101.5 198h240q14 -76 104 -76q43 0 76 27t33 75q0 43 -30 71.5t-77 28.5q-31 0 -60 -16t-42 -45h-240l64 520h575z" />
    <glyph glyph-name="uni2086" unicode="&#x2086;" horiz-adv-x="782" 
d="M403 68q-42 0 -72 -27t-30 -72q0 -49 29 -73.5t71 -24.5q43 0 72 25t29 73q0 44 -27.5 71.5t-71.5 27.5zM446 223q131 0 208 -73t77 -197q0 -118 -83 -201.5t-238 -83.5q-175 0 -269 106t-94 294q0 211 94.5 332.5t270.5 121.5q137 0 219 -67.5t102 -200.5h-223
q-16 72 -96 72q-59 0 -89 -45.5t-32 -104.5q62 47 153 47z" />
    <glyph glyph-name="uni2087" unicode="&#x2087;" horiz-adv-x="710" 
d="M670 522v-178q-244 -267 -244 -676h-248q0 161 63 342.5t169 313.5h-375v198h635z" />
    <glyph glyph-name="uni2088" unicode="&#x2088;" horiz-adv-x="831" 
d="M416 -143q13 0 29 3t38.5 10.5t37 26.5t14.5 46q0 45 -37.5 66.5t-81.5 21.5t-81.5 -21.5t-37.5 -66.5q0 -27 14.5 -46t36.5 -26.5t38 -10.5t30 -3zM416 334q-23 0 -44 -5t-40 -22.5t-19 -46.5q0 -67 103 -67q100 0 100 67q0 41 -30 57.5t-70 16.5zM416 522
q158 0 248 -62.5t90 -174.5q0 -54 -29 -96.5t-80 -67.5q63 -26 100 -80t37 -123q0 -64 -29.5 -112t-71 -73.5t-96 -41t-93.5 -19.5t-76 -4q-42 0 -84.5 4.5t-96 20.5t-93.5 42t-67.5 73.5t-27.5 109.5q0 68 37.5 122t101.5 81q-53 25 -81.5 67.5t-28.5 96.5q0 112 91 174.5
t249 62.5z" />
    <glyph glyph-name="uni2089" unicode="&#x2089;" horiz-adv-x="782" 
d="M379 319q-43 0 -71.5 -25t-28.5 -73q0 -44 27 -71t73 -27q41 0 71.5 26.5t30.5 71.5q0 48 -29.5 73t-72.5 25zM373 522q173 0 266.5 -106t93.5 -295q0 -210 -94.5 -331.5t-269.5 -121.5q-137 0 -219.5 67t-102.5 199h223q19 -69 99 -69q60 0 88 46t30 101
q-59 -47 -153 -47q-131 0 -208 73.5t-77 197.5q0 118 84 202t240 84z" />
    <glyph glyph-name="colonmonetary" unicode="&#x20a1;" horiz-adv-x="1548" 
d="M469 606l184 508q-96 -45 -145 -155t-49 -242q0 -49 10 -111zM653 317l287 783q-38 22 -80 33l-278 -764q32 -32 71 -52zM657 -219h-198l80 221q-34 12 -80 31l-92 -252h-199l129 356q-111 102 -170 251t-59 329q0 218 84 386.5t247 264.5t383 96l68 189h199l-76 -209
q21 -4 84 -23l84 232h198l-114 -318q109 -79 174 -202t78 -281h-394q-3 32 -12 63l-225 -616q103 20 164.5 96.5t72.5 186.5h394q-25 -288 -212 -450.5t-487 -162.5h-51z" />
    <glyph glyph-name="franc" unicode="&#x20a3;" horiz-adv-x="1339" 
d="M162 174h-146v229h146v1031h1030v-318h-639v-264h596v-320h-596v-129h274v-229h-274v-174h-391v174z" />
    <glyph glyph-name="lira" unicode="&#x20a4;" horiz-adv-x="1406" 
d="M733 1464q271 0 415 -113t165 -374h-428q-6 94 -43 136t-113 42q-65 0 -102 -42.5t-37 -115.5q0 -24 8 -90h283v-207h-252q2 -23 2 -65v-14h250v-209h-301q-30 -52 -74 -90h813v-322h-1231v279q104 45 154 133h-154v209h176q-2 14 -9 40.5t-9 38.5h-158v207h107
q-5 63 -5 74q0 230 146.5 356.5t396.5 126.5z" />
    <glyph glyph-name="uni20A6" unicode="&#x20a6;" horiz-adv-x="1779" 
d="M651 600h101l-101 174v-174zM1126 834h-120l120 -218v218zM260 391h-172v209h172v234h-172v208h172v392h412l219 -392h235v392h392v-392h174v-208h-174v-234h174v-209h-174v-391h-418l-228 391h-221v-391h-391v391z" />
    <glyph glyph-name="peseta" unicode="&#x20a7;" horiz-adv-x="3393" 
d="M737 1116h-211v-332h211q82 0 136.5 41.5t54.5 124.5q0 84 -52 125t-139 41zM129 0v1434h623q127 0 229 -28t179 -85t119 -151.5t42 -219.5q0 -102 -28 -183.5t-77.5 -136.5t-121.5 -91.5t-156.5 -53t-185.5 -16.5h-226v-469h-397zM1612 1169v197h368v-311h232v-287h-232
v-346q0 -79 38.5 -111t121.5 -32q24 0 72 6v-299q-107 -17 -201 -17q-208 0 -303.5 106t-95.5 318v375h-176v287h57q119 0 119 114zM2804 1085q107 0 196.5 -22.5t159 -67.5t110 -118t44.5 -168h-334q-14 137 -172 137q-55 0 -88 -22t-33 -58q0 -32 19.5 -55t59 -37t74 -21
t89.5 -14q70 -10 123 -23.5t108 -38.5t91 -58.5t58.5 -86t22.5 -119.5q0 -75 -28 -134.5t-75 -98t-113.5 -64t-139 -36.5t-154.5 -11q-106 0 -196.5 23.5t-161.5 70.5t-113 123.5t-45 175.5h352q8 -155 191 -155q57 0 98 20.5t41 63.5q0 23 -10 41t-32 31.5t-41.5 22.5
t-54 17t-53.5 11t-54 9q-13 2 -19 3q-64 11 -117 25.5t-105.5 41t-88 60.5t-58 85t-22.5 114q0 86 41.5 152.5t111 104.5t150 57t168.5 19z" />
    <glyph glyph-name="uni20A9" unicode="&#x20a9;" horiz-adv-x="2267" 
d="M684 602h61l54 221h-166zM1067 602h131l-53 221h-25zM1520 602h61l51 221h-166zM356 395h-268v207h215l-57 221h-158v207h105l-105 404h404l92 -404h264l96 404h377l96 -404h264l93 404h405l-106 -404h106v-207h-160l-57 -221h217v-207h-270l-103 -395h-465l-94 395h-229
l-94 -395h-463z" />
    <glyph glyph-name="Euro" unicode="&#x20ac;" horiz-adv-x="1236" 
d="M842 1464q186 0 311 -73v-349q-51 46 -126.5 75.5t-143.5 29.5q-96 0 -166 -48t-113 -128h281v-209h-336v-45q0 -31 2 -47h334v-209h-279q42 -79 112 -125.5t165 -46.5q69 0 144 28t126 74v-348q-131 -74 -311 -74q-257 0 -425.5 132.5t-228.5 359.5h-147v209h117
q-2 16 -2 47t2 45h-117v209h145q62 228 230.5 360.5t425.5 132.5z" />
    <glyph glyph-name="uni20AD" unicode="&#x20ad;" horiz-adv-x="1708" 
d="M272 614h-184v228h184v592h392v-547l452 547h488l-500 -592h512v-228h-397l401 -614h-465l-336 528l-155 -170v-358h-392v614z" />
    <glyph glyph-name="uni20AE" unicode="&#x20ae;" horiz-adv-x="1396" 
d="M893 874l233 72v-217l-233 -72v-96l233 72v-219l-233 -70v-344h-391v227l-234 -71v217l234 71v97l-234 -72v219l234 70v358h-434v318h1261v-318h-436v-242z" />
    <glyph glyph-name="uni20B2" unicode="&#x20b2;" horiz-adv-x="1564" 
d="M666 317v803q-102 -42 -154.5 -154.5t-52.5 -248.5q0 -133 52 -244t155 -156zM895 508v-203q150 43 190 203h-190zM666 1456v195h229v-195q236 -28 388 -167t185 -367h-399q-35 149 -174 200v-329h602v-793h-250l-26 166q-115 -156 -326 -189v-196h-229v194
q-186 24 -322.5 125.5t-206 260t-69.5 356.5q0 300 159 502t439 237z" />
    <glyph glyph-name="uni20B4" unicode="&#x20b4;" horiz-adv-x="1685" 
d="M645 317q0 -47 35.5 -77.5t80.5 -41t97 -10.5q225 0 500 88v-321q-244 -80 -512 -80q-93 0 -178 13.5t-166.5 47t-140.5 84t-95.5 130t-36.5 180.5q0 43 11 96h-172v209h1550v-209h-875q-98 -43 -98 -109zM1618 788h-1550v209h852q120 42 120 123q0 65 -50.5 95
t-135.5 30q-211 0 -498 -90v322q241 79 514 79q89 0 171.5 -15t158.5 -49t132.5 -84t90 -125.5t33.5 -168.5q0 -64 -12 -117h174v-209z" />
    <glyph glyph-name="uni20B8" unicode="&#x20b8;" horiz-adv-x="1396" 
d="M68 993h1261v-319h-436v-674h-391v674h-434v319zM68 1116v318h1261v-318h-1261z" />
    <glyph glyph-name="uni20B9" unicode="&#x20b9;" horiz-adv-x="1292" 
d="M571 0l-202 385h-281v315h320q125 0 184 84h-504v258h500q-63 76 -180 76h-320v316h1116v-260h-252q33 -65 47 -132h205v-258h-203q-45 -223 -239 -327l252 -457h-443z" />
    <glyph glyph-name="uni20BD" unicode="&#x20bd;" horiz-adv-x="1536" 
d="M883 1116h-209v-332h209q83 0 137.5 41.5t54.5 124.5q0 84 -52 125t-140 41zM903 395v-280h-229v-115h-398v115h-188v280h188v92h-188v281h188v666h623q127 0 229 -28t179 -85t119 -151.5t42 -219.5q0 -102 -28 -183.5t-77.5 -136.5t-121.5 -91.5t-156.5 -53
t-185.5 -16.5h-225v-74h229z" />
    <glyph glyph-name="uni20BF" unicode="&#x20bf;" horiz-adv-x="1394" 
d="M743 588h-223v-301h223q205 0 205 151q0 83 -54 116.5t-151 33.5zM707 1147h-187v-268h191q176 0 176 133q0 41 -14 68.5t-40.5 41.5t-56 19.5t-69.5 5.5zM635 -219v219h-72v-219h-229v219h-205v1434h205v215h229v-215h72v215h229v-217q80 -5 150 -28t130 -66.5t95 -118
t35 -170.5q0 -105 -51 -186t-146 -120q116 -35 183 -123.5t67 -222.5q0 -106 -36 -184t-101 -123.5t-146 -67t-180 -22.5v-219h-229z" />
    <glyph glyph-name="uni2113" unicode="&#x2113;" horiz-adv-x="1034" 
d="M618 1174q-32 0 -43.5 -27t-11.5 -78v-289q55 48 83 123t28 158q0 52 -11.5 82.5t-44.5 30.5zM590 1466q176 0 265 -103t89 -278q0 -194 -101 -348t-280 -241v-144q0 -49 32 -79.5t89 -30.5q50 0 92 12v-256q-89 -29 -180 -29q-109 0 -189 29.5t-125 80.5t-66 112
t-21 133v84q-110 -9 -148 -9v209q75 3 148 15v374q0 103 22.5 186.5t69 148t123.5 99.5t180 35z" />
    <glyph glyph-name="uni2116" unicode="&#x2116;" horiz-adv-x="2480" 
d="M1964 1053q-73 0 -106 -51t-33 -125t33 -123t106 -49t105 49t32 123q0 75 -32 125.5t-105 50.5zM2365 0h-804v303h804v-303zM1010 616v818h393v-1434h-420l-448 774v-774h-392v1434h414zM1964 1294q197 0 319.5 -114.5t122.5 -302.5q0 -191 -124.5 -303.5t-317.5 -112.5
q-199 0 -321.5 114t-122.5 302q0 191 124.5 304t319.5 113z" />
    <glyph glyph-name="trademark" unicode="&#x2122;" horiz-adv-x="1970" 
d="M129 1434h713v-189h-240v-624h-235v624h-238v189zM893 1434h301l174 -496l172 496h301v-813h-237v430l-152 -430h-170l-152 430v-430h-237v813z" />
    <glyph glyph-name="estimated" unicode="&#x212e;" horiz-adv-x="1609" 
d="M313 1051v-303h985v299q0 57 -30 104q-182 264 -463 264q-284 0 -463 -266q-29 -47 -29 -98zM1487 717v-29h-1174v-299q0 -63 33 -110q91 -129 202 -195t257 -66q272 0 436 236h111q-91 -133 -230.5 -209t-316.5 -76q-156 0 -286 61.5t-215 165.5t-132 238.5t-47 282.5
q0 149 47 284t132 238.5t215 165t286 61.5q157 0 287.5 -61.5t215.5 -165t132 -238.5t47 -284z" />
    <glyph glyph-name="uni2150" unicode="&#x2150;" horiz-adv-x="1820" 
d="M162 0l968 1434h304l-969 -1434h-303zM1137 823h635v-178q-244 -267 -244 -676h-248q0 161 62.5 342.5t168.5 313.5h-374v198zM252 1466h201v-854h-238v516h-168v191q30 0 47.5 0.5t42 3.5t39 8.5t31 16.5t25 26.5t14.5 38.5t6 53z" />
    <glyph glyph-name="uni2151" unicode="&#x2151;" horiz-adv-x="1759" 
d="M1356 637q-43 0 -72 -25t-29 -73q0 -44 27.5 -71.5t73.5 -27.5q41 0 71.5 27t30.5 72q0 48 -29.5 73t-72.5 25zM1350 840q173 0 266.5 -106.5t93.5 -295.5q0 -210 -94.5 -331t-269.5 -121q-137 0 -219.5 67t-102.5 199h223q20 -70 99 -70q60 0 88 46.5t30 101.5
q-59 -47 -153 -47q-131 0 -208 73t-77 197q0 118 84 202.5t240 84.5zM252 1466h201v-854h-238v516h-168v191q30 0 47.5 0.5t42 3.5t39 8.5t31 16.5t25 26.5t14.5 38.5t6 53zM143 0l969 1434h303l-969 -1434h-303z" />
    <glyph glyph-name="uni2152" unicode="&#x2152;" horiz-adv-x="2371" 
d="M1950 618q-64 0 -98.5 -61t-34.5 -162q0 -100 34.5 -161.5t98.5 -61.5q65 0 100 61.5t35 161.5q0 102 -34.5 162.5t-100.5 60.5zM1249 823h201v-854h-238v516h-168v191q30 0 47.5 0.5t42 3.5t39 8.5t31 16.5t25 26.5t14.5 38.5t6 53zM1950 823q176 0 275 -116.5
t99 -311.5q0 -194 -99 -310t-275 -116q-175 0 -274 116.5t-99 309.5q0 195 99 311.5t274 116.5zM252 1466h201v-854h-238v516h-168v191q30 0 47.5 0.5t42 3.5t39 8.5t31 16.5t25 26.5t14.5 38.5t6 53zM160 0l968 1434h304l-969 -1434h-303z" />
    <glyph glyph-name="onethird" unicode="&#x2153;" horiz-adv-x="1802" 
d="M252 1466h201v-854h-238v516h-168v191q30 0 47.5 0.5t42 3.5t39 8.5t31 16.5t25 26.5t14.5 38.5t6 53zM143 0l969 1434h303l-971 -1434h-301zM1415 821q143 0 228.5 -63t85.5 -172q0 -58 -27.5 -103.5t-77.5 -68.5q62 -22 96.5 -70t34.5 -115q0 -86 -51 -146.5t-127 -87
t-166 -26.5q-153 0 -247.5 81t-100.5 220h227q3 -49 36 -77.5t83 -28.5q102 0 102 84q0 78 -108 78h-86v161h72q41 0 72.5 17t31.5 53q0 72 -88 72q-42 0 -67 -21.5t-29 -62.5h-224q7 128 96.5 202t233.5 74z" />
    <glyph glyph-name="twothirds" unicode="&#x2154;" horiz-adv-x="2027" 
d="M393 1464q61 0 115.5 -14t100.5 -43t73 -81t27 -120q0 -35 -7 -64.5t-25.5 -56t-33 -44t-46.5 -41t-48 -34t-55 -34.5q-41 -24 -61 -37t-48.5 -36.5t-44.5 -47.5h379v-199h-670v76q0 65 18 120.5t42.5 93t65.5 72.5t72.5 55t76.5 44q9 5 26.5 14.5t26 14t23 13t21.5 13.5
t17.5 13t15.5 14t11 14t8 16t2 17q0 31 -23 48.5t-61 17.5q-93 0 -104 -111h-240q12 141 104.5 224t241.5 83zM367 0l968 1434h303l-970 -1434h-301zM1638 821q143 0 228.5 -63t85.5 -172q0 -58 -27.5 -103.5t-77.5 -68.5q62 -22 96.5 -70t34.5 -115q0 -86 -51 -146.5
t-127 -87t-166 -26.5q-153 0 -247.5 81t-100.5 220h227q3 -49 36 -77.5t83 -28.5q103 0 103 84q0 78 -109 78h-86v161h72q41 0 72.5 17t31.5 53q0 72 -88 72q-42 0 -67 -21.5t-29 -62.5h-223q7 128 96.5 202t232.5 74z" />
    <glyph glyph-name="uni2155" unicode="&#x2155;" horiz-adv-x="1792" 
d="M252 1466h201v-854h-238v516h-168v191q30 0 47.5 0.5t42 3.5t39 8.5t31 16.5t25 26.5t14.5 38.5t6 53zM143 0l969 1434h303l-971 -1434h-301zM1130 823h576v-198h-367l-14 -127q56 39 152 39q123 0 196.5 -76t73.5 -201q0 -75 -29 -133t-78.5 -91.5t-108 -50
t-124.5 -16.5q-151 0 -242.5 71t-101.5 198h240q14 -76 104 -76q43 0 76 27t33 75q0 43 -30 72t-77 29q-31 0 -60 -16.5t-42 -45.5h-240z" />
    <glyph glyph-name="uni2156" unicode="&#x2156;" horiz-adv-x="2017" 
d="M393 1464q61 0 115.5 -14t100.5 -43t73 -81t27 -120q0 -35 -7 -64.5t-25.5 -56t-33 -44t-46.5 -41t-48 -34t-55 -34.5q-41 -24 -61 -37t-48.5 -36.5t-44.5 -47.5h379v-199h-670v76q0 65 18 120.5t42.5 93t65.5 72.5t72.5 55t76.5 44q9 5 26.5 14.5t26 14t23 13t21.5 13.5
t17.5 13t15.5 14t11 14t8 16t2 17q0 31 -23 48.5t-61 17.5q-93 0 -104 -111h-240q12 141 104.5 224t241.5 83zM367 0l968 1434h303l-970 -1434h-301zM1354 823h575v-198h-366l-15 -127q56 39 152 39q123 0 196.5 -76t73.5 -201q0 -75 -29 -133t-78.5 -91.5t-108 -50
t-124.5 -16.5q-151 0 -242.5 71t-101.5 198h240q14 -76 104 -76q43 0 76 27t33 75q0 43 -30 72t-77 29q-31 0 -60 -16.5t-42 -45.5h-240z" />
    <glyph glyph-name="uni2157" unicode="&#x2157;" horiz-adv-x="2037" 
d="M399 1464q143 0 228.5 -63t85.5 -172q0 -58 -27.5 -103.5t-77.5 -68.5q62 -22 96.5 -70t34.5 -115q0 -86 -51 -146.5t-127 -87t-166 -26.5q-153 0 -247.5 81t-100.5 220h227q3 -49 36 -77.5t83 -28.5q103 0 103 84q0 78 -109 78h-86v161h72q41 0 72.5 17t31.5 53
q0 72 -88 72q-42 0 -67 -21.5t-29 -62.5h-223q7 128 96.5 202t232.5 74zM389 0l969 1434h303l-971 -1434h-301zM1376 823h576v-198h-367l-14 -127q56 39 151 39q123 0 197 -76t74 -201q0 -75 -29 -133t-78.5 -91.5t-108 -50t-124.5 -16.5q-151 0 -242.5 71t-101.5 198h239
q14 -76 105 -76q43 0 75.5 27t32.5 75q0 43 -29.5 72t-76.5 29q-31 0 -60.5 -16.5t-42.5 -45.5h-239z" />
    <glyph glyph-name="uni2158" unicode="&#x2158;" horiz-adv-x="2093" 
d="M272 965h158v260zM35 764v145l346 555h289v-499h100v-201h-100v-148h-240v148h-395zM442 0l969 1434h303l-971 -1434h-301zM1430 823h575v-198h-367l-14 -127q56 39 152 39q123 0 196.5 -76t73.5 -201q0 -75 -29 -133t-78.5 -91.5t-108 -50t-124.5 -16.5
q-151 0 -242.5 71t-101.5 198h240q14 -76 104 -76q43 0 76 27t33 75q0 43 -30 72t-77 29q-31 0 -60 -16.5t-42 -45.5h-240z" />
    <glyph glyph-name="uni2159" unicode="&#x2159;" horiz-adv-x="1796" 
d="M1419 369q-42 0 -72 -27t-30 -72q0 -49 29 -73.5t71 -24.5q43 0 72 25t29 73q0 44 -27.5 71.5t-71.5 27.5zM1462 524q131 0 208 -73t77 -197q0 -55 -20 -105t-58.5 -91t-101.5 -65t-142 -24q-175 0 -268.5 106t-93.5 294q0 211 94.5 332.5t269.5 121.5q137 0 219.5 -67.5
t102.5 -200.5h-223q-16 72 -96 72q-59 0 -89 -45.5t-32 -104.5q62 47 153 47zM252 1466h201v-854h-238v516h-168v191q30 0 47.5 0.5t42 3.5t39 8.5t31 16.5t25 26.5t14.5 38.5t6 53zM143 0l969 1434h303l-971 -1434h-301z" />
    <glyph glyph-name="uni215A" unicode="&#x215a;" horiz-adv-x="2031" 
d="M1655 369q-42 0 -72.5 -27t-30.5 -72q0 -49 29.5 -73.5t71.5 -24.5q43 0 71.5 25t28.5 73q0 44 -27 71.5t-71 27.5zM1698 524q131 0 207.5 -73t76.5 -197q0 -55 -20 -105t-58 -91t-101 -65t-142 -24q-175 0 -269 106t-94 294q0 211 94.5 332.5t270.5 121.5
q137 0 219.5 -67.5t102.5 -200.5h-224q-16 72 -96 72q-59 0 -89 -45.5t-32 -104.5q62 47 154 47zM115 1466h575v-198h-366l-15 -127q56 39 152 39q123 0 196.5 -76t73.5 -201q0 -75 -29 -133t-78.5 -91.5t-108 -50t-124.5 -16.5q-151 0 -242.5 71t-101.5 198h240
q14 -76 104 -76q43 0 76 27t33 75q0 43 -30 72t-77 29q-31 0 -60 -16.5t-42 -45.5h-240zM379 0l969 1434h303l-971 -1434h-301z" />
    <glyph glyph-name="oneeighth" unicode="&#x215b;" horiz-adv-x="1845" 
d="M1432 635q-23 0 -44 -5t-40 -22.5t-19 -46.5q0 -67 103 -67q100 0 100 67q0 41 -30 57.5t-70 16.5zM1432 158q13 0 29 3t38 10.5t36.5 26.5t14.5 46q0 45 -37 66.5t-81 21.5t-81.5 -21.5t-37.5 -66.5q0 -27 14.5 -46t36.5 -26.5t38 -10.5t30 -3zM1432 823
q158 0 247.5 -62.5t89.5 -174.5q0 -54 -28.5 -96.5t-79.5 -67.5q63 -26 100 -80t37 -123q0 -64 -29.5 -112t-71 -73.5t-96 -41t-93.5 -19.5t-76 -4q-42 0 -84.5 4.5t-96 20.5t-93.5 42t-67.5 73.5t-27.5 109.5q0 68 37.5 122t101.5 81q-53 25 -81.5 67.5t-28.5 96.5
q0 112 91 174.5t249 62.5zM252 1466h201v-854h-238v516h-168v191q30 0 47.5 0.5t42 3.5t39 8.5t31 16.5t25 26.5t14.5 38.5t6 53zM143 0l969 1434h303l-971 -1434h-301z" />
    <glyph glyph-name="threeeighths" unicode="&#x215c;" horiz-adv-x="2091" 
d="M1677 635q-16 0 -32 -3t-32.5 -10t-27 -23t-10.5 -38q0 -67 102 -67q101 0 101 67q0 41 -30.5 57.5t-70.5 16.5zM1677 158q13 0 29 3t38.5 10.5t37 26.5t14.5 46q0 45 -37.5 66.5t-81.5 21.5t-81 -21.5t-37 -66.5q0 -27 14 -46t36 -26.5t38 -10.5t30 -3zM1677 823
q158 0 248 -62.5t90 -174.5q0 -54 -28.5 -96.5t-79.5 -67.5q63 -26 100 -80t37 -123q0 -54 -20 -96.5t-54.5 -68.5t-72.5 -44t-82.5 -26.5t-76.5 -11.5t-61 -3q-42 0 -84.5 4.5t-96 20.5t-93 42t-67 73.5t-27.5 109.5q0 68 37.5 122t101.5 81q-53 25 -82 67.5t-29 96.5
q0 112 91 174.5t249 62.5zM399 1464q143 0 228.5 -63t85.5 -172q0 -58 -27.5 -103.5t-77.5 -68.5q62 -22 96.5 -70t34.5 -115q0 -86 -51 -146.5t-127 -87t-166 -26.5q-153 0 -247.5 81t-100.5 220h227q3 -49 36 -77.5t83 -28.5q103 0 103 84q0 78 -109 78h-86v161h72
q41 0 72.5 17t31.5 53q0 72 -88 72q-42 0 -67 -21.5t-29 -62.5h-223q7 128 96.5 202t232.5 74zM389 0l969 1434h303l-971 -1434h-301z" />
    <glyph glyph-name="fiveeighths" unicode="&#x215d;" horiz-adv-x="2080" 
d="M1667 635q-16 0 -32 -3t-32.5 -10t-27 -23t-10.5 -38q0 -67 102 -67q100 0 100 67q0 41 -30 57.5t-70 16.5zM1667 158q13 0 29 3t38.5 10.5t37 26.5t14.5 46q0 45 -37.5 66.5t-81.5 21.5t-81.5 -21.5t-37.5 -66.5q0 -27 14.5 -46t36.5 -26.5t38 -10.5t30 -3zM1667 823
q158 0 248 -62.5t90 -174.5q0 -54 -29 -96.5t-80 -67.5q64 -26 101 -80.5t37 -122.5q0 -54 -20 -96.5t-54.5 -68.5t-72.5 -44t-82.5 -26.5t-76.5 -11.5t-61 -3q-42 0 -84.5 4.5t-96 20.5t-93.5 42t-67.5 73.5t-27.5 109.5q0 68 38 122t102 81q-53 25 -82 67.5t-29 96.5
q0 112 91 174.5t249 62.5zM115 1466h575v-198h-366l-15 -127q56 39 152 39q123 0 196.5 -76t73.5 -201q0 -75 -29 -133t-78.5 -91.5t-108 -50t-124.5 -16.5q-151 0 -242.5 71t-101.5 198h240q14 -76 104 -76q43 0 76 27t33 75q0 43 -30 72t-77 29q-31 0 -60 -16.5t-42 -45.5
h-240zM379 0l969 1434h303l-971 -1434h-301z" />
    <glyph glyph-name="seveneighths" unicode="&#x215e;" horiz-adv-x="1933" 
d="M1520 635q-23 0 -44 -5t-40 -22.5t-19 -46.5q0 -67 103 -67q100 0 100 67q0 41 -30 57.5t-70 16.5zM1520 158q13 0 29 3t38 10.5t36.5 26.5t14.5 46q0 45 -37 66.5t-81 21.5t-81.5 -21.5t-37.5 -66.5q0 -27 14.5 -46t36.5 -26.5t38 -10.5t30 -3zM1520 823
q158 0 248 -62.5t90 -174.5q0 -54 -29 -96.5t-80 -67.5q63 -26 100 -80t37 -123q0 -64 -29.5 -112t-71 -73.5t-96 -41t-93.5 -19.5t-76 -4q-42 0 -84.5 4.5t-96 20.5t-93.5 42t-67.5 73.5t-27.5 109.5q0 68 37.5 122t101.5 81q-53 25 -81.5 67.5t-28.5 96.5q0 112 91 174.5
t249 62.5zM35 1464h635v-178q-244 -267 -244 -676h-248q0 161 63 342.5t169 313.5h-375v198zM229 0l969 1434h303l-971 -1434h-301z" />
    <glyph glyph-name="uni215F" unicode="&#x215f;" horiz-adv-x="1015" 
d="M252 1466h201v-854h-238v516h-168v191q30 0 47.5 0.5t42 3.5t39 8.5t31 16.5t25 26.5t14.5 38.5t6 53zM1112 1434h303l-971 -1434h-301z" />
    <glyph glyph-name="uni2189" unicode="&#x2189;" horiz-adv-x="2058" 
d="M420 1262q-64 0 -98.5 -61.5t-34.5 -162.5q0 -100 34.5 -161.5t98.5 -61.5q65 0 100 61.5t35 161.5q0 102 -34.5 163t-100.5 61zM406 0l968 1434h303l-968 -1434h-303zM1671 821q143 0 228.5 -63t85.5 -172q0 -58 -27.5 -103.5t-77.5 -68.5q62 -22 96.5 -70t34.5 -115
q0 -86 -51 -146.5t-127 -87t-166 -26.5q-153 0 -247.5 81t-100.5 220h227q3 -49 36 -77.5t83 -28.5q102 0 102 84q0 78 -108 78h-86v161h72q41 0 72.5 17t31.5 53q0 72 -88 72q-42 0 -67 -21.5t-29 -62.5h-224q7 128 96.5 202t233.5 74zM420 1466q176 0 275.5 -116.5
t99.5 -311.5q0 -193 -99.5 -309.5t-275.5 -116.5q-175 0 -274 116.5t-99 309.5q0 195 99 311.5t274 116.5z" />
    <glyph glyph-name="arrowleft" unicode="&#x2190;" horiz-adv-x="1748" 
d="M20 719l730 727l229 -232l-332 -333h1014v-326h-1014l332 -334l-229 -231z" />
    <glyph glyph-name="arrowup" unicode="&#x2191;" horiz-adv-x="1497" 
d="M20 737l730 727l727 -727l-232 -231l-334 332v-992h-325v992l-334 -332z" />
    <glyph glyph-name="arrowright" unicode="&#x2192;" horiz-adv-x="1748" 
d="M768 1214l231 232l727 -727l-727 -729l-231 231l332 334h-1014v326h1014z" />
    <glyph glyph-name="arrowdown" unicode="&#x2193;" horiz-adv-x="1497" 
d="M252 928l334 -332v991h325v-991l334 332l232 -230l-727 -729l-730 729z" />
    <glyph glyph-name="arrowboth" unicode="&#x2194;" horiz-adv-x="2664" 
d="M1681 1214l232 232l729 -727l-729 -729l-232 231l334 334h-1368l332 -334l-229 -231l-730 729l730 727l229 -232l-332 -333h1368z" />
    <glyph glyph-name="arrowupdn" unicode="&#x2195;" horiz-adv-x="1497" 
d="M252 381l334 -332v1368l-334 -334l-232 232l730 729l727 -729l-232 -232l-334 334v-1368l334 332l232 -229l-727 -730l-730 730z" />
    <glyph glyph-name="uni2196" unicode="&#x2196;" horiz-adv-x="1435" 
d="M88 27v1028h1030v-326h-471l701 -702l-232 -232l-700 701v-469h-328z" />
    <glyph glyph-name="uni2197" unicode="&#x2197;" horiz-adv-x="1435" 
d="M319 727v328h1029v-1030h-326v473l-703 -703l-231 232l700 700h-469z" />
    <glyph glyph-name="uni2198" unicode="&#x2198;" horiz-adv-x="1435" 
d="M1020 559v471h328v-1030h-1031v328h471l-700 700l229 232z" />
    <glyph glyph-name="uni2199" unicode="&#x2199;" horiz-adv-x="1435" 
d="M88 0v1030h326v-471l702 701l232 -232l-703 -700h471v-328h-1028z" />
    <glyph glyph-name="uni21A9" unicode="&#x21a9;" horiz-adv-x="2185" 
d="M649 881h914q86 0 146 61t60 148q0 85 -60 145.5t-146 60.5h-136v326h136q145 0 268 -71t194.5 -193.5t71.5 -267.5q0 -222 -156.5 -378.5t-377.5 -156.5h-914l332 -334l-229 -231l-729 729l729 727l229 -232z" />
    <glyph glyph-name="uni21AA" unicode="&#x21aa;" horiz-adv-x="2185" 
d="M1536 555h-913q-109 0 -208 42t-170.5 113.5t-114 171t-42.5 208.5q0 145 71.5 267.5t195 193.5t268.5 71h135v-326h-135q-86 0 -146.5 -60.5t-60.5 -145.5q0 -86 60.5 -147.5t146.5 -61.5h913l-334 333l232 232l729 -727l-729 -729l-232 231z" />
    <glyph glyph-name="arrowdblleft" unicode="&#x21d0;" horiz-adv-x="1820" 
d="M20 717l760 760l232 -232l-160 -160h881v-325h-1207l-43 -43l43 -43h1207v-328h-881l160 -158l-232 -231z" />
    <glyph glyph-name="arrowdblright" unicode="&#x21d2;" horiz-adv-x="1820" 
d="M809 1245l231 232l760 -760l-760 -760l-231 231l160 158h-881v328h1208l41 43l-41 43h-1208v325h881z" />
    <glyph glyph-name="arrowdblboth" unicode="&#x21d4;" horiz-adv-x="2824" 
d="M2339 717l-43 43h-1770l-43 -43l43 -43h1770zM1810 1245l232 232l760 -760l-760 -760l-232 231l160 158h-1118l160 -158l-232 -231l-760 760l760 760l232 -232l-160 -160h1118z" />
    <glyph glyph-name="partialdiff" unicode="&#x2202;" horiz-adv-x="1351" 
d="M649 721q-98 0 -151.5 -60.5t-53.5 -162.5q0 -96 52 -161t147 -65q96 0 151.5 66t63.5 166q-3 87 -62 152t-147 65zM582 1006q83 0 162.5 -30t132.5 -87q-35 113 -129 190.5t-207.5 110.5t-239.5 33l2 295q160 0 303.5 -33t264 -102t208 -167t136.5 -235.5t49 -300.5
q0 -115 -21 -217.5t-68.5 -194t-118 -157t-176.5 -104t-237 -38.5q-118 0 -220 38t-176.5 107.5t-116.5 171.5t-42 224q0 223 133 359.5t361 136.5z" />
    <glyph glyph-name="product" unicode="&#x220f;" horiz-adv-x="1540" 
d="M129 1434h1282v-1434h-391v1114h-500v-1114h-391v1434z" />
    <glyph glyph-name="summation" unicode="&#x2211;" horiz-adv-x="1501" 
d="M129 1434h1243v-318h-682l426 -399l-409 -400h665v-317h-1243v285l492 432l-492 432v285z" />
    <glyph glyph-name="minus" unicode="&#x2212;" horiz-adv-x="1062" 
d="M129 436v318h805v-318h-805z" />
    <glyph glyph-name="uni2215" unicode="&#x2215;" horiz-adv-x="1271" 
d="M969 1434h303l-971 -1434h-301z" />
    <glyph glyph-name="radical" unicode="&#x221a;" horiz-adv-x="1755" 
d="M1067 1841h668v-319h-385l-463 -1553h-436l-394 1272h408l207 -762z" />
    <glyph glyph-name="infinity" unicode="&#x221e;" horiz-adv-x="2000" 
d="M582 891q-71 0 -117.5 -51t-46.5 -123q0 -71 47 -122.5t117 -51.5q80 0 137 46t115 128q-58 82 -115 128t-137 46zM1419 891q-80 0 -137 -46t-115 -128q58 -82 115 -128t137 -46q69 0 115.5 51.5t46.5 122.5q0 72 -46.5 123t-115.5 51zM553 1176q262 0 446 -222
q187 222 449 222q197 0 331 -129.5t134 -329.5q0 -199 -134 -328t-331 -129q-265 0 -449 221q-181 -221 -446 -221q-197 0 -331 129t-134 328q0 200 134 329.5t331 129.5z" />
    <glyph glyph-name="integral" unicode="&#x222b;" horiz-adv-x="974" 
d="M795 1464q75 0 143 -20v-299q-36 12 -82 12q-58 0 -93 -34t-40 -81l-113 -1103q-7 -70 -33.5 -129.5t-75.5 -109t-131 -78t-190 -28.5q-71 0 -143 21v297q3 0 17 -3.5t31 -6t34 -2.5q57 0 89.5 33.5t37.5 80.5l114 1106q6 55 23.5 104t51.5 93.5t82.5 76.5t119.5 51
t158 19z" />
    <glyph glyph-name="approxequal" unicode="&#x2248;" horiz-adv-x="1433" 
d="M516 813q-36 0 -60.5 -13t-36.5 -37.5t-17 -51t-5 -62.5h-268q0 87 18 164t56 145t107.5 108t162.5 40q57 0 112 -20t97.5 -48t81 -56.5t77.5 -48.5t74 -20q69 0 95 43.5t26 116.5h267q0 -68 -10.5 -130.5t-36 -122.5t-63.5 -104t-97.5 -71t-134.5 -27q-54 0 -109 20
t-99.5 49t-85.5 57.5t-80.5 48.5t-70.5 20zM516 276q-69 0 -94 -44t-25 -119h-268q0 68 10.5 130.5t36 122.5t64 104t98.5 70.5t135 26.5q57 0 112 -19.5t97.5 -47.5t81 -56t77.5 -47.5t74 -19.5q69 0 95 43.5t26 116.5h267q0 -68 -10.5 -130.5t-36 -122.5t-63.5 -104
t-97.5 -71t-134.5 -27q-66 0 -135.5 30.5t-117.5 66.5t-101 66.5t-91 30.5z" />
    <glyph glyph-name="notequal" unicode="&#x2260;" horiz-adv-x="1318" 
d="M762 973l125 184h301l-123 -184h102v-291h-299l-114 -168h413v-291h-610l-125 -184h-303l125 184h-102v291h299l114 168h-413v291h610z" />
    <glyph glyph-name="lessequal" unicode="&#x2264;" horiz-adv-x="1155" 
d="M1028 1411v-330l-518 -190l518 -193v-327l-940 350v338zM1028 315v-315h-940v315h940z" />
    <glyph glyph-name="greaterequal" unicode="&#x2265;" horiz-adv-x="1185" 
d="M129 1411l940 -352v-338l-940 -350v327l516 193l-516 190v330zM129 315h940v-315h-940v315z" />
    <glyph glyph-name="uni2460" unicode="&#x2460;" horiz-adv-x="1568" 
d="M784 1249q-146 0 -268.5 -72t-193 -194t-70.5 -266q0 -145 72 -267.5t194.5 -193t265.5 -70.5q109 0 207.5 42.5t169 113.5t112.5 169.5t42 205.5q0 145 -72 267.5t-194.5 193.5t-264.5 71zM729 1143h201v-852h-238v516h-168v190q42 0 66 1.5t54 9.5t46 23t27.5 43
t11.5 69zM784 1434q145 0 278 -57t229 -153t153 -229t57 -278t-57 -278t-153 -229t-229 -153t-278 -57q-146 0 -279 57t-228.5 153t-152 228.5t-56.5 278.5t56.5 278.5t152 228.5t228.5 153t279 57z" />
    <glyph glyph-name="uni2461" unicode="&#x2461;" horiz-adv-x="1568" 
d="M784 1249q-146 0 -268.5 -72t-193 -194t-70.5 -266q0 -145 72 -267.5t194.5 -193t265.5 -70.5q109 0 207.5 42.5t169 113.5t112.5 169.5t42 205.5q0 145 -72 267.5t-194.5 193.5t-264.5 71zM784 1434q145 0 278 -57t229 -153t153 -229t57 -278t-57 -278t-153 -229
t-229 -153t-278 -57q-146 0 -279 57t-228.5 153t-152 228.5t-56.5 278.5t56.5 278.5t152 228.5t228.5 153t279 57zM803 1143q48 0 92 -8.5t85 -28.5t71.5 -49t48.5 -73t18 -99q0 -51 -16.5 -92t-53.5 -76t-65 -54.5t-82 -52.5q-79 -46 -102 -82h327v-198h-667v35
q-1 65 16.5 121t42.5 93.5t65.5 73t71.5 55.5t76 44q9 5 26.5 14.5t26 14t23 13t22 13.5t18 13t15.5 14.5t11 14t8 15.5t2 17q0 30 -22.5 47.5t-59.5 17.5q-93 0 -107 -112h-239q12 142 104.5 225.5t243.5 83.5z" />
    <glyph glyph-name="uni2462" unicode="&#x2462;" horiz-adv-x="1568" 
d="M784 1249q-146 0 -268.5 -72t-193 -194t-70.5 -266q0 -145 72 -267.5t194.5 -193t265.5 -70.5q109 0 207.5 42.5t169 113.5t112.5 169.5t42 205.5q0 145 -72 267.5t-194.5 193.5t-264.5 71zM784 1434q145 0 278 -57t229 -153t153 -229t57 -278t-57 -278t-153 -229
t-229 -153t-278 -57q-146 0 -279 57t-228.5 153t-152 228.5t-56.5 278.5t56.5 278.5t152 228.5t228.5 153t279 57zM788 1143q143 0 229.5 -63.5t86.5 -172.5q0 -58 -28.5 -103.5t-78.5 -70.5q62 -20 96.5 -67.5t34.5 -114.5q0 -65 -29 -116t-78 -82t-109.5 -46.5
t-127.5 -15.5q-153 0 -247.5 81t-98.5 220h228q1 -49 34.5 -79t83.5 -30q101 0 101 86q0 78 -109 78h-86v162h74q39 0 71.5 17t32.5 53q0 69 -90 69q-40 0 -65.5 -21.5t-28.5 -60.5h-225q9 128 98 202.5t231 74.5z" />
    <glyph glyph-name="uni2463" unicode="&#x2463;" horiz-adv-x="1568" 
d="M797 643v260l-160 -260h160zM784 1249q-146 0 -268.5 -72t-193 -194t-70.5 -266q0 -145 72 -267.5t194.5 -193t265.5 -70.5q109 0 207.5 42.5t169 113.5t112.5 169.5t42 205.5q0 145 -72 267.5t-194.5 193.5t-264.5 71zM399 588l346 555h289v-500h101v-201h-101v-147
h-237v147h-398v146zM784 1434q145 0 278 -57t229 -153t153 -229t57 -278t-57 -278t-153 -229t-229 -153t-278 -57q-146 0 -279 57t-228.5 153t-152 228.5t-56.5 278.5t56.5 278.5t152 228.5t228.5 153t279 57z" />
    <glyph glyph-name="uni2464" unicode="&#x2464;" horiz-adv-x="1568" 
d="M784 1249q-146 0 -268.5 -72t-193 -194t-70.5 -266q0 -145 72 -267.5t194.5 -193t265.5 -70.5q109 0 207.5 42.5t169 113.5t112.5 169.5t42 205.5q0 145 -72 267.5t-194.5 193.5t-264.5 71zM784 1434q145 0 278 -57t229 -153t153 -229t57 -278t-57 -278t-153 -229
t-229 -153t-278 -57q-146 0 -279 57t-228.5 153t-152 228.5t-56.5 278.5t56.5 278.5t152 228.5t228.5 153t279 57zM446 625l64 495h575v-198h-370l-10 -103q56 39 149 39q124 0 197 -75.5t73 -200.5q0 -75 -29 -133t-78 -91.5t-107.5 -50t-123.5 -16.5q-151 0 -242.5 70.5
t-101.5 197.5h240q14 -76 102 -76q45 0 77 26.5t32 74.5q0 45 -29 73.5t-76 28.5q-32 0 -61 -16t-43 -45h-238z" />
    <glyph glyph-name="uni2465" unicode="&#x2465;" horiz-adv-x="1568" 
d="M784 1249q-146 0 -268.5 -72t-193 -194t-70.5 -266q0 -145 72 -267.5t194.5 -193t265.5 -70.5q109 0 207.5 42.5t169 113.5t112.5 169.5t42 205.5q0 145 -72 267.5t-194.5 193.5t-264.5 71zM797 690q-43 0 -73 -26.5t-30 -73.5q0 -48 29.5 -73t71.5 -25q43 0 71.5 26
t28.5 74q0 43 -27 70.5t-71 27.5zM784 1434q145 0 278 -57t229 -153t153 -229t57 -278t-57 -278t-153 -229t-229 -153t-278 -57q-146 0 -279 57t-228.5 153t-152 228.5t-56.5 278.5t56.5 278.5t152 228.5t228.5 153t279 57zM840 846q130 0 207 -73t77 -198q0 -118 -83 -201
t-238 -83q-175 0 -269 105.5t-94 293.5q0 211 94.5 332t270.5 121q138 0 219.5 -67t101.5 -199h-223q-18 69 -98 69q-58 0 -87.5 -44t-31.5 -103q62 47 154 47z" />
    <glyph glyph-name="uni2466" unicode="&#x2466;" horiz-adv-x="1568" 
d="M784 1249q-146 0 -268.5 -72t-193 -194t-70.5 -266q0 -145 72 -267.5t194.5 -193t265.5 -70.5q109 0 207.5 42.5t169 113.5t112.5 169.5t42 205.5q0 145 -72 267.5t-194.5 193.5t-264.5 71zM784 1434q145 0 278 -57t229 -153t153 -229t57 -278t-57 -278t-153 -229
t-229 -153t-278 -57q-146 0 -279 57t-228.5 153t-152 228.5t-56.5 278.5t56.5 278.5t152 228.5t228.5 153t279 57zM467 1110h633v-143q-242 -265 -242 -676h-250q0 150 55.5 319t151.5 301h-348v199z" />
    <glyph glyph-name="uni2467" unicode="&#x2467;" horiz-adv-x="1568" 
d="M782 956q-19 0 -39 -4.5t-40.5 -22t-20.5 -46.5q0 -68 100 -68q60 0 81.5 21t21.5 47q0 73 -103 73zM784 1249q-146 0 -268.5 -72t-193 -194t-70.5 -266q0 -145 72 -267.5t194.5 -193t265.5 -70.5q109 0 207.5 42.5t169 113.5t112.5 169.5t42 205.5q0 145 -72 267.5
t-194.5 193.5t-264.5 71zM782 479q14 0 30 3t38 10.5t36.5 26.5t14.5 46q0 45 -37.5 66.5t-81.5 21.5q-42 0 -79 -21.5t-37 -66.5q0 -27 14 -46t36 -26.5t37.5 -10.5t28.5 -3zM784 1434q145 0 278 -57t229 -153t153 -229t57 -278t-57 -278t-153 -229t-229 -153t-278 -57
q-146 0 -279 57t-228.5 153t-152 228.5t-56.5 278.5t56.5 278.5t152 228.5t228.5 153t279 57zM782 1143q159 0 249.5 -62t90.5 -174q0 -54 -28.5 -96.5t-81.5 -67.5q64 -27 101.5 -80.5t37.5 -121.5q0 -54 -20 -96.5t-54.5 -68.5t-73 -44t-83 -26.5t-76.5 -11.5t-62 -3
q-42 0 -83.5 4.5t-95 20.5t-93 42t-67 73.5t-27.5 109.5q0 69 37 122.5t102 79.5q-53 25 -82 67.5t-29 96.5q0 112 90 174t248 62z" />
    <glyph glyph-name="uni2468" unicode="&#x2468;" horiz-adv-x="1568" 
d="M784 1249q-146 0 -268.5 -72t-193 -194t-70.5 -266q0 -145 72 -267.5t194.5 -193t265.5 -70.5q109 0 207.5 42.5t169 113.5t112.5 169.5t42 205.5q0 145 -72 267.5t-194.5 193.5t-264.5 71zM793 942q-42 0 -71.5 -26t-29.5 -74q0 -43 28 -71t73 -28q42 0 72 27t30 74
q0 48 -29.5 73t-72.5 25zM784 1434q145 0 278 -57t229 -153t153 -229t57 -278t-57 -278t-153 -229t-229 -153t-278 -57q-146 0 -279 57t-228.5 153t-152 228.5t-56.5 278.5t56.5 278.5t152 228.5t228.5 153t279 57zM786 1143q175 0 269 -106t94 -294q0 -209 -95 -330.5
t-270 -121.5q-138 0 -220.5 67t-102.5 199h223q19 -70 98 -70q62 0 90.5 47t28.5 101q-59 -47 -151 -47q-132 0 -208.5 72.5t-76.5 197.5q0 56 19.5 106t57.5 90.5t101 64.5t143 24z" />
    <glyph glyph-name="uni24EA" unicode="&#x24ea;" horiz-adv-x="1568" 
d="M782 940q-64 0 -98.5 -61t-34.5 -162t34.5 -162t98.5 -61q66 0 101 61t35 162t-35 162t-101 61zM782 1143q176 0 275.5 -115.5t99.5 -310.5q0 -193 -99.5 -309.5t-275.5 -116.5q-174 0 -273 116.5t-99 309.5q0 195 98.5 310.5t273.5 115.5zM784 1434q145 0 278 -57
t229 -153t153 -229t57 -278t-57 -278t-153 -229t-229 -153t-278 -57q-146 0 -279 57t-228.5 153t-152 228.5t-56.5 278.5t56.5 278.5t152 228.5t228.5 153t279 57zM784 1249q-146 0 -268.5 -72t-193 -194t-70.5 -266q0 -145 72 -267.5t194.5 -193t265.5 -70.5
q109 0 207.5 42.5t169 113.5t112.5 169.5t42 205.5q0 145 -72 267.5t-194.5 193.5t-264.5 71z" />
    <glyph glyph-name="uni24FF" unicode="&#x24ff;" horiz-adv-x="1568" 
d="M784 1434q145 0 278 -57t229 -153t153 -229t57 -278t-57 -278t-153 -229t-229 -153t-278 -57q-146 0 -279 57t-228.5 153t-152 228.5t-56.5 278.5t56.5 278.5t152 228.5t228.5 153t279 57zM782 1143q-175 0 -273.5 -115.5t-98.5 -310.5q0 -193 99 -309.5t273 -116.5
q176 0 275.5 116.5t99.5 309.5q0 195 -99.5 310.5t-275.5 115.5zM782 940q66 0 101 -61t35 -162t-35 -162t-101 -61q-64 0 -98.5 61t-34.5 162t34.5 162t98.5 61z" />
    <glyph glyph-name="filledbox" unicode="&#x25a0;" horiz-adv-x="1689" 
d="M129 0v1434h1432v-1434h-1432z" />
    <glyph glyph-name="uni25A1" unicode="&#x25a1;" horiz-adv-x="1689" 
d="M129 0v1434h1432v-1434h-1432zM498 1063v-692h694v692h-694z" />
    <glyph glyph-name="triagup" unicode="&#x25b2;" horiz-adv-x="1658" 
d="M827 1442l809 -1442h-1616z" />
    <glyph glyph-name="uni25B3" unicode="&#x25b3;" horiz-adv-x="1648" 
d="M823 1460l803 -1460h-1606zM823 725l-200 -371h401z" />
    <glyph glyph-name="uni25B7" unicode="&#x25b7;" horiz-adv-x="1609" 
d="M129 1528l1458 -803l-1458 -803v1606zM483 926v-402l371 201z" />
    <glyph glyph-name="triagrt" unicode="&#x25ba;" horiz-adv-x="1609" 
d="M129 1528l1458 -803l-1458 -803v1606z" />
    <glyph glyph-name="triagdn" unicode="&#x25bc;" horiz-adv-x="1648" 
d="M23 1434h1605l-803 -1461z" />
    <glyph glyph-name="uni25BD" unicode="&#x25bd;" horiz-adv-x="1648" 
d="M20 1434h1606l-803 -1461zM621 1077l202 -370l201 370h-403z" />
    <glyph glyph-name="uni25C0" unicode="&#x25c0;" horiz-adv-x="1609" 
d="M1481 1528v-1606l-1458 803z" />
    <glyph glyph-name="uni25C1" unicode="&#x25c1;" horiz-adv-x="1609" 
d="M1481 1528v-1606l-1458 803zM756 725l370 -201v402z" />
    <glyph glyph-name="lozenge" unicode="&#x25ca;" horiz-adv-x="1376" 
d="M938 717l-250 424l-248 -424l248 -424zM68 717l442 747h356l445 -747l-445 -748h-356z" />
    <glyph glyph-name="circle" unicode="&#x25cb;" horiz-adv-x="1566" 
d="M782 1063q-142 0 -244 -101.5t-102 -244.5t102 -244.5t244 -101.5q144 0 246 101.5t102 244.5t-102 244.5t-246 101.5zM782 1434q146 0 279 -57t229 -153t152.5 -228.5t56.5 -278.5t-56.5 -278.5t-152.5 -228.5t-229 -153t-279 -57q-145 0 -277.5 57t-228 153t-152 228.5
t-56.5 278.5t56.5 278.5t152 228.5t228 153t277.5 57z" />
    <glyph glyph-name="uni25CF" unicode="&#x25cf;" horiz-adv-x="1568" 
d="M784 0q-145 0 -278 57t-228.5 153t-152.5 228.5t-57 278.5t57 278.5t152.5 228.5t228.5 153t278 57t278 -57t229 -153t153 -229t57 -278t-57 -278t-153 -229t-229 -153t-278 -57z" />
    <glyph glyph-name="uni2776" unicode="&#x2776;" horiz-adv-x="1568" 
d="M930 1143h-201q0 -41 -11.5 -69t-27.5 -43t-46 -23t-54 -9.5t-66 -1.5v-190h168v-516h238v852zM784 1434q145 0 278 -57t229 -153t153 -229t57 -278t-57 -278t-153 -229t-229 -153t-278 -57q-146 0 -279 57t-228.5 153t-152 228.5t-56.5 278.5t56.5 278.5t152 228.5
t228.5 153t279 57z" />
    <glyph glyph-name="uni2777" unicode="&#x2777;" horiz-adv-x="1568" 
d="M795 1143q-151 0 -243 -83.5t-103 -225.5h239q11 112 105 112q37 0 59 -17.5t22 -47.5q0 -33 -32 -58t-99 -61q-13 -6 -20 -10q-45 -24 -76 -44t-71.5 -55.5t-65.5 -73t-42.5 -93.5t-16.5 -121v-35h667v198h-327q23 36 102 82q53 32 82.5 52.5t65.5 54.5t52.5 75.5
t16.5 92.5q0 68 -27 119.5t-72.5 80.5t-100 43.5t-115.5 14.5zM784 1434q145 0 278 -57t229 -153t153 -229t57 -278t-57 -278t-153 -229t-229 -153t-278 -57q-146 0 -279 57t-228.5 153t-152 228.5t-56.5 278.5t56.5 278.5t152 228.5t228.5 153t279 57z" />
    <glyph glyph-name="uni2778" unicode="&#x2778;" horiz-adv-x="1568" 
d="M784 291q67 0 127.5 15.5t109.5 46.5t78 82t29 116q0 67 -34.5 114.5t-96.5 67.5q50 25 78.5 70.5t28.5 103.5q0 109 -86.5 172.5t-229.5 63.5q-142 0 -231 -74.5t-98 -202.5h225q3 39 28.5 60.5t65.5 21.5q90 0 90 -69q0 -36 -32.5 -53t-71.5 -17h-74v-162h86
q109 0 109 -78q0 -86 -101 -86q-50 0 -83.5 30t-34.5 79h-228q4 -139 98.5 -220t247.5 -81zM784 1434q145 0 278 -57t229 -153t153 -229t57 -278t-57 -278t-153 -229t-229 -153t-278 -57q-146 0 -279 57t-228.5 153t-152 228.5t-56.5 278.5t56.5 278.5t152 228.5t228.5 153
t279 57z" />
    <glyph glyph-name="uni2779" unicode="&#x2779;" horiz-adv-x="1568" 
d="M1034 1143h-289l-346 -555v-146h396v-147h239v147h101v201h-101v500zM637 643l158 260v-260h-158zM784 1434q145 0 278 -57t229 -153t153 -229t57 -278t-57 -278t-153 -229t-229 -153t-278 -57q-146 0 -279 57t-228.5 153t-152 228.5t-56.5 278.5t56.5 278.5t152 228.5
t228.5 153t279 57z" />
    <glyph glyph-name="uni277A" unicode="&#x277a;" horiz-adv-x="1568" 
d="M1085 1120h-575l-64 -495h238q14 29 43 45t61 16q47 0 76 -28.5t29 -73.5q0 -48 -32 -74.5t-77 -26.5q-88 0 -102 76h-240q10 -127 101.5 -197.5t242.5 -70.5q65 0 123.5 16.5t107.5 50t78 91.5t29 133q0 125 -73 200.5t-197 75.5q-93 0 -149 -39l10 103h370v198z
M784 1434q145 0 278 -57t229 -153t153 -229t57 -278t-57 -278t-153 -229t-229 -153t-278 -57q-146 0 -279 57t-228.5 153t-152 228.5t-56.5 278.5t56.5 278.5t152 228.5t228.5 153t279 57z" />
    <glyph glyph-name="uni277B" unicode="&#x277b;" horiz-adv-x="1568" 
d="M840 846q-92 0 -154 -47q2 59 31.5 103t87.5 44q80 0 98 -69h223q-20 132 -101.5 199t-219.5 67q-176 0 -270.5 -121t-94.5 -332q0 -188 94 -293.5t269 -105.5q155 0 238 83t83 201q0 125 -77 198t-207 73zM784 1434q145 0 278 -57t229 -153t153 -229t57 -278t-57 -278
t-153 -229t-229 -153t-278 -57q-146 0 -279 57t-228.5 153t-152 228.5t-56.5 278.5t56.5 278.5t152 228.5t228.5 153t279 57zM795 492q-42 0 -71.5 25t-29.5 73q0 47 30 73.5t73 26.5q44 0 71 -27.5t27 -70.5q0 -48 -28.5 -74t-71.5 -26z" />
    <glyph glyph-name="uni277C" unicode="&#x277c;" horiz-adv-x="1568" 
d="M1100 967v143h-633v-199h348q-96 -132 -151.5 -301t-55.5 -319h248q0 409 244 676zM784 1434q145 0 278 -57t229 -153t153 -229t57 -278t-57 -278t-153 -229t-229 -153t-278 -57q-146 0 -279 57t-228.5 153t-152 228.5t-56.5 278.5t56.5 278.5t152 228.5t228.5 153
t279 57z" />
    <glyph glyph-name="uni277D" unicode="&#x277d;" horiz-adv-x="1568" 
d="M782 1143q-158 0 -248 -62t-90 -174q0 -54 29 -96.5t82 -67.5q-65 -26 -102 -79.5t-37 -122.5q0 -62 27.5 -109.5t67 -73.5t93 -42t95 -20.5t83.5 -4.5q30 0 62 3t76.5 11.5t83 26.5t73 44t54.5 68.5t20 96.5q0 68 -37.5 121.5t-101.5 80.5q53 25 81.5 67.5t28.5 96.5
q0 112 -90.5 174t-249.5 62zM782 956q103 0 103 -73q0 -26 -21.5 -47t-81.5 -21q-100 0 -100 68q0 29 19 46.5t39 22t42 4.5zM784 1434q145 0 278 -57t229 -153t153 -229t57 -278t-57 -278t-153 -229t-229 -153t-278 -57q-146 0 -279 57t-228.5 153t-152 228.5t-56.5 278.5
t56.5 278.5t152 228.5t228.5 153t279 57zM782 479q-13 0 -28.5 3t-37.5 10.5t-36 26.5t-14 46q0 45 37 66.5t79 21.5q44 0 81.5 -21.5t37.5 -66.5q0 -27 -14.5 -46t-36.5 -26.5t-38 -10.5t-30 -3z" />
    <glyph glyph-name="uni277E" unicode="&#x277e;" horiz-adv-x="1568" 
d="M786 1143q-80 0 -143 -24t-101 -64.5t-57.5 -90.5t-19.5 -106q0 -125 76.5 -197.5t208.5 -72.5q92 0 151 47q0 -54 -28.5 -101t-90.5 -47q-79 0 -98 70h-223q20 -132 102.5 -199t220.5 -67q175 0 270 121.5t95 330.5q0 188 -94 294t-269 106zM784 1434q145 0 278 -57
t229 -153t153 -229t57 -278t-57 -278t-153 -229t-229 -153t-278 -57q-146 0 -279 57t-228.5 153t-152 228.5t-56.5 278.5t56.5 278.5t152 228.5t228.5 153t279 57zM793 942q43 0 72.5 -25t29.5 -73q0 -47 -30 -74t-72 -27q-45 0 -73 28t-28 71q0 48 29.5 74t71.5 26z" />
    <glyph glyph-name="uni27F5" unicode="&#x27f5;" horiz-adv-x="2484" 
d="M20 719l730 727l229 -232l-332 -333h1749v-326h-1749l332 -334l-229 -231z" />
    <glyph glyph-name="uni27F6" unicode="&#x27f6;" horiz-adv-x="2484" 
d="M1505 1214l232 232l727 -727l-727 -729l-232 231l334 334h-1751v326h1749z" />
    <glyph glyph-name="uni27F7" unicode="&#x27f7;" horiz-adv-x="3454" 
d="M20 719l730 727l229 -232l-332 -333h2159l-334 333l231 232l729 -727l-729 -729l-231 231l334 334h-2159l332 -334l-229 -231z" />
    <glyph glyph-name="uni27F8" unicode="&#x27f8;" horiz-adv-x="2586" 
d="M20 717l760 760l232 -232l-160 -160h1647v-325h-1973l-43 -43l43 -43h1973v-328h-1647l160 -158l-232 -231z" />
    <glyph glyph-name="uni27F9" unicode="&#x27f9;" horiz-adv-x="2588" 
d="M1577 1245l231 232l758 -760l-758 -760l-231 231l158 158h-1647v328h1974l41 43l-41 43h-1974v325h1647z" />
    <glyph glyph-name="uni27FA" unicode="&#x27fa;" horiz-adv-x="3688" 
d="M3203 717l-43 43h-2634l-43 -43l43 -43h2634zM2675 1245l231 232l760 -760l-760 -760l-231 231l159 158h-1982l160 -158l-232 -231l-760 760l760 760l232 -232l-160 -160h1982z" />
    <glyph glyph-name="uni2913" unicode="&#x2913;" horiz-adv-x="1630" 
d="M1427 0h-1224v328h1224v-328zM317 1360l334 -334v549h328v-549l334 334l229 -232l-727 -729l-727 729z" />
    <glyph glyph-name="zero.numr" horiz-adv-x="841" 
d="M420 1262q-64 0 -98.5 -61.5t-34.5 -162.5q0 -100 34.5 -161.5t98.5 -61.5q65 0 100 61.5t35 161.5q0 102 -34.5 163t-100.5 61zM420 1466q176 0 275.5 -116.5t99.5 -311.5q0 -193 -99.5 -309.5t-275.5 -116.5q-175 0 -274 116.5t-99 309.5q0 195 99 311.5t274 116.5z
" />
    <glyph glyph-name="five.numr" horiz-adv-x="778" 
d="M690 1466v-198h-366l-15 -127q56 39 152 39q123 0 196.5 -76t73.5 -201q0 -75 -29 -133t-78.5 -91.5t-108 -50t-124.5 -16.5q-151 0 -242.5 71t-101.5 198h240q14 -76 104 -76q43 0 76 27t33 75q0 43 -30 72t-77 29q-31 0 -60 -16.5t-42 -45.5h-240l64 520h575z" />
    <glyph glyph-name="six.numr" horiz-adv-x="782" 
d="M403 1010q-42 0 -72 -27t-30 -72q0 -49 29 -73.5t71 -24.5q43 0 72 25t29 73q0 44 -27.5 71.5t-71.5 27.5zM446 1165q131 0 208 -73t77 -197q0 -55 -20 -105t-58 -91t-101 -65t-142 -24q-175 0 -269 106t-94 294q0 211 94.5 332.5t270.5 121.5q137 0 219 -67.5
t102 -200.5h-223q-16 72 -96 72q-59 0 -89 -45.5t-32 -104.5q62 47 153 47z" />
    <glyph glyph-name="seven.numr" horiz-adv-x="710" 
d="M670 1464v-178q-244 -267 -244 -676h-248q0 161 63 342.5t169 313.5h-375v198h635z" />
    <glyph glyph-name="eight.numr" horiz-adv-x="831" 
d="M416 799q13 0 29 3t38.5 10.5t37 26.5t14.5 46q0 45 -37.5 66.5t-81.5 21.5t-81.5 -21.5t-37.5 -66.5q0 -27 14.5 -46t36.5 -26.5t38 -10.5t30 -3zM416 1276q-23 0 -44 -5t-40 -22.5t-19 -46.5q0 -67 103 -67q100 0 100 67q0 41 -30 57.5t-70 16.5zM416 1464
q158 0 248 -62.5t90 -174.5q0 -54 -29 -96.5t-80 -67.5q63 -26 100 -80t37 -123q0 -64 -29.5 -112t-71 -73.5t-96 -41t-93.5 -19.5t-76 -4q-42 0 -84.5 4.5t-96 20.5t-93.5 42t-67.5 73.5t-27.5 109.5q0 68 37.5 122t101.5 81q-53 25 -81.5 67.5t-28.5 96.5q0 112 91 174.5
t249 62.5z" />
    <glyph glyph-name="nine.numr" horiz-adv-x="782" 
d="M379 1262q-43 0 -71.5 -25.5t-28.5 -73.5q0 -44 27 -71t73 -27q41 0 71.5 26.5t30.5 71.5q0 48 -29.5 73.5t-72.5 25.5zM373 1464q173 0 266.5 -106t93.5 -295q0 -210 -94.5 -331.5t-269.5 -121.5q-136 0 -219 67.5t-103 199.5h223q20 -70 99 -70q60 0 88 46t30 101
q-59 -47 -153 -47q-131 0 -208 73.5t-77 197.5q0 118 84 202t240 84z" />
    <glyph glyph-name="one.numr" horiz-adv-x="542" 
d="M252 1466h201v-854h-238v516h-168v191q30 0 47.5 0.5t42 3.5t39 8.5t31 16.5t25 26.5t14.5 38.5t6 53z" />
    <glyph glyph-name="two.numr" horiz-adv-x="765" 
d="M393 1464q61 0 115.5 -14t100.5 -43t73 -81t27 -120q0 -35 -7 -64.5t-25.5 -56t-33 -44t-46.5 -41t-48 -34t-55 -34.5q-41 -24 -61 -37t-48.5 -36.5t-44.5 -47.5h379v-199h-670v76q0 65 18 120.5t42.5 93t65.5 72.5t72.5 55t76.5 44q9 5 26.5 14.5t26 14t23 13t21.5 13.5
t17.5 13t15.5 14t11 14t8 16t2 17q0 31 -23 48.5t-61 17.5q-93 0 -104 -111h-240q12 141 104.5 224t241.5 83z" />
    <glyph glyph-name="three.numr" horiz-adv-x="788" 
d="M399 1464q143 0 228.5 -63t85.5 -172q0 -58 -27.5 -103.5t-77.5 -68.5q62 -22 96.5 -70t34.5 -115q0 -86 -51 -146.5t-127 -87t-166 -26.5q-153 0 -247.5 81t-100.5 220h227q3 -49 36 -77.5t83 -28.5q103 0 103 84q0 78 -109 78h-86v161h72q41 0 72.5 17t31.5 53
q0 72 -88 72q-42 0 -67 -21.5t-29 -62.5h-223q7 128 96.5 202t232.5 74z" />
    <glyph glyph-name="four.numr" horiz-adv-x="811" 
d="M430 965v260l-158 -260h158zM35 909l346 555h289v-499h100v-201h-100v-148h-240v148h-395v145z" />
    <glyph glyph-name="dngb_check" horiz-adv-x="1630" 
d="M1303 1321l262 -262l-947 -946l-550 546l260 263l288 -287z" />
    <glyph glyph-name="dngb_ballotx" horiz-adv-x="1298" 
d="M649 979l320 319l262 -262l-320 -319l320 -320l-262 -262l-320 320l-319 -320l-262 262l319 320l-319 319l262 262z" />
    <glyph glyph-name="zero.dnom" horiz-adv-x="841" 
d="M420 618q-64 0 -98.5 -61t-34.5 -162q0 -100 34.5 -161.5t98.5 -61.5q65 0 100 61.5t35 161.5q0 102 -34.5 162.5t-100.5 60.5zM420 823q176 0 275.5 -116.5t99.5 -311.5q0 -193 -99.5 -309.5t-275.5 -116.5q-175 0 -274 116.5t-99 309.5q0 195 99 311.5t274 116.5z" />
    <glyph glyph-name="one.dnom" horiz-adv-x="542" 
d="M252 823h201v-854h-238v516h-168v191q30 0 47.5 0.5t42 3.5t39 8.5t31 16.5t25 26.5t14.5 38.5t6 53z" />
    <glyph glyph-name="two.dnom" horiz-adv-x="765" 
d="M393 821q61 0 115.5 -14t100.5 -43t73 -81t27 -120q0 -35 -7 -64.5t-25.5 -56t-33 -44t-46.5 -41t-48 -34t-55 -34.5q-41 -24 -61 -37t-48.5 -36.5t-44.5 -47.5h379v-199h-670v76q0 65 18 120.5t42.5 93t65.5 72.5t72.5 55t76.5 44q9 5 26.5 14.5t26 14t23 13t21.5 13.5
t17.5 13t15.5 14t11 14t8 16t2 17q0 31 -23 48.5t-61 17.5q-93 0 -104 -111h-240q12 141 104.5 224t241.5 83z" />
    <glyph glyph-name="three.dnom" horiz-adv-x="788" 
d="M399 821q143 0 228.5 -63t85.5 -172q0 -58 -27.5 -103.5t-77.5 -68.5q62 -22 96.5 -70t34.5 -115q0 -86 -51 -146.5t-127 -87t-166 -26.5q-153 0 -247.5 81t-100.5 220h227q3 -49 36 -77.5t83 -28.5q103 0 103 84q0 78 -109 78h-86v161h72q41 0 72.5 17t31.5 53
q0 72 -88 72q-42 0 -67 -21.5t-29 -62.5h-223q7 128 96.5 202t232.5 74z" />
    <glyph glyph-name="four.dnom" horiz-adv-x="811" 
d="M430 317v261l-158 -261h158zM35 262l346 555h289v-500h100v-200h-100v-148h-240v148h-395v145z" />
    <glyph glyph-name="five.dnom" horiz-adv-x="778" 
d="M690 823v-198h-366l-15 -127q56 39 152 39q123 0 196.5 -76t73.5 -201q0 -75 -29 -133t-78.5 -91.5t-108 -50t-124.5 -16.5q-151 0 -242.5 71t-101.5 198h240q14 -76 104 -76q43 0 76 27t33 75q0 43 -30 72t-77 29q-31 0 -60 -16.5t-42 -45.5h-240l64 520h575z" />
    <glyph glyph-name="six.dnom" horiz-adv-x="782" 
d="M403 369q-42 0 -72 -27t-30 -72q0 -49 29 -73.5t71 -24.5q43 0 72 25t29 73q0 44 -27.5 71.5t-71.5 27.5zM446 524q131 0 208 -73t77 -197q0 -55 -20 -105t-58 -91t-101 -65t-142 -24q-175 0 -269 106t-94 294q0 211 94.5 332.5t270.5 121.5q137 0 219 -67.5t102 -200.5
h-223q-16 72 -96 72q-59 0 -89 -45.5t-32 -104.5q62 47 153 47z" />
    <glyph glyph-name="seven.dnom" horiz-adv-x="710" 
d="M670 823v-178q-244 -267 -244 -676h-248q0 161 63 342.5t169 313.5h-375v198h635z" />
    <glyph glyph-name="eight.dnom" horiz-adv-x="831" 
d="M416 158q13 0 29 3t38.5 10.5t37 26.5t14.5 46q0 45 -37.5 66.5t-81.5 21.5t-81.5 -21.5t-37.5 -66.5q0 -27 14.5 -46t36.5 -26.5t38 -10.5t30 -3zM416 635q-23 0 -44 -5t-40 -22.5t-19 -46.5q0 -67 103 -67q100 0 100 67q0 41 -30 57.5t-70 16.5zM416 823
q158 0 248 -62.5t90 -174.5q0 -54 -29 -96.5t-80 -67.5q63 -26 100 -80t37 -123q0 -64 -29.5 -112t-71 -73.5t-96 -41t-93.5 -19.5t-76 -4q-42 0 -84.5 4.5t-96 20.5t-93.5 42t-67.5 73.5t-27.5 109.5q0 68 37.5 122t101.5 81q-53 25 -81.5 67.5t-28.5 96.5q0 112 91 174.5
t249 62.5z" />
    <glyph glyph-name="nine.dnom" horiz-adv-x="782" 
d="M379 621q-43 0 -71.5 -25.5t-28.5 -73.5q0 -44 27 -71t73 -27q41 0 71.5 26.5t30.5 71.5q0 48 -29.5 73.5t-72.5 25.5zM373 823q173 0 266.5 -106t93.5 -295q0 -210 -94.5 -331.5t-269.5 -121.5q-136 0 -219 67.5t-103 199.5h223q20 -70 99 -70q60 0 88 46t30 101
q-59 -47 -153 -47q-131 0 -208 73.5t-77 197.5q0 118 84 202t240 84z" />
    <glyph glyph-name="leftLongArrow2" horiz-adv-x="5146" 
d="M20 719l730 727l229 -232l-332 -333h4410v-326h-4410l332 -334l-229 -231z" />
    <glyph glyph-name="rightLongArrow2" horiz-adv-x="5146" 
d="M4164 1214l231 232l727 -727l-727 -729l-231 231l333 334h-4411v326h4409z" />
    <glyph glyph-name="uni2197.case" horiz-adv-x="1435" 
d="M319 727v328h1029v-1030h-326v473l-703 -703l-231 232l700 700h-469z" />
    <glyph glyph-name="uni2198.case" horiz-adv-x="1435" 
d="M1020 559v471h328v-1030h-1031v328h471l-700 700l229 232z" />
    <glyph glyph-name="uni2199.case" horiz-adv-x="1435" 
d="M88 0v1030h326v-471l702 701l232 -232l-703 -700h471v-328h-1028z" />
    <glyph glyph-name="uni2196.case" horiz-adv-x="1435" 
d="M88 27v1028h1030v-326h-471l701 -702l-232 -232l-700 701v-469h-328z" />
    </font>
</defs>
</svg>
