<?xml version="1.0" standalone="no"?>
<!DOCTYPE svg PUBLIC "-//W3C//DTD SVG 1.1//EN" "http://www.w3.org/Graphics/SVG/1.1/DTD/svg11.dtd" >
<svg xmlns="http://www.w3.org/2000/svg" xmlns:xlink="http://www.w3.org/1999/xlink" version="1.1">
<metadata>
Created by FontForge 20201107 at Sat Nov  8 08:16:45 2025
 By 
Copyright (c) 2025 by Khairunnas for Zelowtype. All rights reserved.
</metadata>
<defs>
<font id="ZTNature-ExtraLight" horiz-adv-x="1630" >
  <font-face 
    font-family="ZT Nature ExtLt"
    font-weight="200"
    font-stretch="normal"
    units-per-em="2048"
    panose-1="0 0 0 0 0 0 0 0 0 0"
    ascent="1638"
    descent="-410"
    x-height="1055"
    cap-height="1434"
    bbox="-324 -578 5001 2066"
    underline-thickness="75"
    underline-position="-388"
    unicode-range="U+000A-2913"
  />
<missing-glyph horiz-adv-x="1005" 
d="M324 481q0 -69 40 -117.5t109 -48.5q65 0 108.5 45.5t43.5 110.5l-37 21q-14 8 -33 -3l-8 -8q-7 -6 -18 -6t-19 6l-4 4q-20 16 -37 2l-6 -6q-7 -6 -18.5 -5.5t-18.5 7.5l-10 11q-18 15 -37 2l-21 -17q-18 -11 -34 2zM324 954q0 -69 40 -117.5t109 -48.5q65 0 108.5 45.5
t43.5 110.5l-37 21q-15 9 -33 -2l-8 -9q-7 -6 -18.5 -5.5t-18.5 7.5l-4 2q-7 7 -18.5 8t-18.5 -5l-6 -7q-7 -6 -18.5 -5.5t-18.5 7.5l-10 11q-18 15 -37 2l-21 -15q-17 -14 -34 0zM770 1362h-534v-1290h534v1290zM842 0h-678v1434h678v-1434zM670 309l-47 39
q-59 -76 -154 -76q-79 0 -136 57t-57 136t56.5 135.5t136.5 56.5q51 0 98 -26l39 47q8 8 15 0q3 -2 4 -6.5t-2 -7.5l-37 -46q53 -41 71 -106l60 6q12 0 12 -10t-10 -10l-60 -6q3 -12 3 -27q0 -49 -27 -98l49 -41q3 -1 3.5 -6.5t-1.5 -8.5q-6 -5 -16 -2zM670 784l-47 37
q-59 -76 -154 -76q-79 0 -136 56.5t-57 136.5q0 79 56.5 135.5t136.5 56.5q56 0 98 -26l39 47q6 6 15 2q8 -8 2 -16l-37 -45q52 -40 71 -107l60 6q12 0 12 -10t-10 -10l-60 -6q3 -12 3 -27q0 -49 -27 -98l49 -39q6 -6 2 -17q-6 -6 -16 0z" />
    <glyph glyph-name=".notdef" horiz-adv-x="1005" 
d="M324 481q0 -69 40 -117.5t109 -48.5q65 0 108.5 45.5t43.5 110.5l-37 21q-14 8 -33 -3l-8 -8q-7 -6 -18 -6t-19 6l-4 4q-20 16 -37 2l-6 -6q-7 -6 -18.5 -5.5t-18.5 7.5l-10 11q-18 15 -37 2l-21 -17q-18 -11 -34 2zM324 954q0 -69 40 -117.5t109 -48.5q65 0 108.5 45.5
t43.5 110.5l-37 21q-15 9 -33 -2l-8 -9q-7 -6 -18.5 -5.5t-18.5 7.5l-4 2q-7 7 -18.5 8t-18.5 -5l-6 -7q-7 -6 -18.5 -5.5t-18.5 7.5l-10 11q-18 15 -37 2l-21 -15q-17 -14 -34 0zM770 1362h-534v-1290h534v1290zM842 0h-678v1434h678v-1434zM670 309l-47 39
q-59 -76 -154 -76q-79 0 -136 57t-57 136t56.5 135.5t136.5 56.5q51 0 98 -26l39 47q8 8 15 0q3 -2 4 -6.5t-2 -7.5l-37 -46q53 -41 71 -106l60 6q12 0 12 -10t-10 -10l-60 -6q3 -12 3 -27q0 -49 -27 -98l49 -41q3 -1 3.5 -6.5t-1.5 -8.5q-6 -5 -16 -2zM670 784l-47 37
q-59 -76 -154 -76q-79 0 -136 56.5t-57 136.5q0 79 56.5 135.5t136.5 56.5q56 0 98 -26l39 47q6 6 15 2q8 -8 2 -16l-37 -45q52 -40 71 -107l60 6q12 0 12 -10t-10 -10l-60 -6q3 -12 3 -27q0 -49 -27 -98l49 -39q6 -6 2 -17q-6 -6 -16 0z" />
    <glyph glyph-name="uni0000" horiz-adv-x="0" 
 />
    <glyph glyph-name="uni0000" horiz-adv-x="0" 
 />
    <glyph glyph-name="uni000D" unicode="&#xd;" horiz-adv-x="1228" 
 />
    <glyph glyph-name="uni000A" unicode="&#xa;" horiz-adv-x="0" 
 />
    <glyph glyph-name="space" unicode=" " horiz-adv-x="428" 
 />
    <glyph glyph-name="exclam" unicode="!" horiz-adv-x="477" 
d="M182 1464h115v-487q0 -77 -16 -549h-82q-17 502 -17 549v487zM160 166h157v-166h-157v166z" />
    <glyph glyph-name="quotedbl" unicode="&#x22;" horiz-adv-x="708" 
d="M160 1434h112v-527h-94zM436 1434h111l-17 -527h-94v527z" />
    <glyph glyph-name="numbersign" unicode="#" horiz-adv-x="1564" 
d="M1034 907h-450l-62 -379h453zM1047 997l69 437h96l-71 -437h264v-90h-279l-59 -379h246v-90h-258l-72 -438h-96l71 438h-446l-70 -438h-96l70 438h-256v90h270l59 379h-239v90h252l71 437h97l-72 -437h449z" />
    <glyph glyph-name="dollar" unicode="$" horiz-adv-x="1277" 
d="M614 -219l2 188q-222 12 -354 129.5t-164 339.5h113q56 -372 461 -372q59 0 113.5 10t106.5 33t90.5 57t61.5 86t23 117q0 40 -9.5 74.5t-24 61t-39 49.5t-48.5 39.5t-59 31.5t-62.5 24t-67.5 18t-66.5 14t-65.5 11q-88 14 -154 30.5t-132 47t-108 72t-68 105t-26 145.5
q0 73 24.5 134t67 103t101 72t124 45t138.5 18l-2 187h98l-2 -189q189 -15 312.5 -122t150.5 -293h-111q-34 159 -138.5 240t-272.5 81q-74 0 -138.5 -14.5t-119.5 -45t-87 -85.5t-32 -129q0 -68 26.5 -119.5t59 -81t99 -53.5t106 -32.5t120.5 -22.5q3 -1 5 -1
q60 -10 104.5 -19.5t101.5 -27t97.5 -37.5t83 -51.5t68.5 -69.5t42.5 -91t16.5 -117q0 -81 -27 -147.5t-72 -111.5t-106.5 -76.5t-127 -47t-136.5 -19.5l2 -188h-99z" />
    <glyph glyph-name="percent" unicode="%" horiz-adv-x="1843" 
d="M1360 1436h102l-958 -1436h-107zM455 1384q-252 0 -252 -344q0 -346 252 -346t252 346q0 344 -252 344zM455 1466q91 0 158.5 -33.5t106.5 -93.5t58 -134.5t19 -164.5t-19 -164.5t-58 -134.5t-106.5 -93.5t-158.5 -33.5t-158.5 33.5t-106.5 93.5t-58 134.5t-19 164.5
t19 164.5t58 134.5t106.5 93.5t158.5 33.5zM1386 741q-251 0 -251 -344q0 -346 251 -346q252 0 252 346q0 344 -252 344zM1386 823q91 0 158.5 -33.5t107 -93.5t58.5 -134.5t19 -164.5t-19 -164.5t-58.5 -134.5t-107 -93.5t-158.5 -33.5t-158.5 33.5t-106.5 93.5t-58 134.5
t-19 164.5t19 164.5t58 134.5t106.5 93.5t158.5 33.5z" />
    <glyph glyph-name="ampersand" unicode="&#x26;" horiz-adv-x="1308" 
d="M514 59q101 0 185 52t167 143l-381 469q-278 -175 -278 -371q0 -137 89 -215t218 -78zM567 1376q-98 0 -157.5 -58t-59.5 -155q0 -54 29 -117.5t50.5 -93.5t76.5 -98q8 -11 12 -16q50 31 78 50.5t69.5 53.5t64 63.5t39.5 70.5t17 85q0 97 -60.5 156t-158.5 59zM938 330
l242 264l2 -131l-185 -205l211 -258h-137l-145 180q-98 -103 -195 -158t-221 -55q-80 0 -152.5 23.5t-131.5 68.5t-93.5 119.5t-34.5 167.5q0 74 27 140.5t78 122.5t102.5 97t122.5 87l-2 2q-93 121 -123 173q-59 103 -59 195q0 141 91 220t234 79q142 0 231 -77t89 -218
q0 -53 -18.5 -103t-46 -88t-72.5 -77.5t-83.5 -67t-93.5 -61.5z" />
    <glyph glyph-name="quotesingle" unicode="'" horiz-adv-x="438" 
d="M160 1434h119l-13 -527h-94z" />
    <glyph glyph-name="parenleft" unicode="(" horiz-adv-x="684" 
d="M434 1561h90q-321 -412 -321 -934q0 -524 321 -936h-90q-162 195 -249 437.5t-87 498.5q0 255 87 497t249 437z" />
    <glyph glyph-name="parenright" unicode=")" horiz-adv-x="684" 
d="M160 1561h90q162 -195 249 -437t87 -497q0 -256 -87 -498.5t-249 -437.5h-90q323 414 323 936q0 520 -323 934z" />
    <glyph glyph-name="asterisk" unicode="*" horiz-adv-x="968" 
d="M635 1434l80 -48l-154 -249l289 2v-90l-289 2l154 -250l-80 -47l-152 264l-149 -264l-80 47l154 250l-289 -2v92l289 -4l-154 249l80 48l151 -265z" />
    <glyph glyph-name="plus" unicode="+" horiz-adv-x="1320" 
d="M612 1094h97v-453h452v-96h-452v-453h-97v453h-452v96h452v453z" />
    <glyph glyph-name="comma" unicode="," horiz-adv-x="477" 
d="M160 168h157v-107q0 -103 -59.5 -175t-161.5 -111l-22 47q153 69 166 178h-80v168z" />
    <glyph glyph-name="hyphen" unicode="-" horiz-adv-x="958" 
d="M160 549v98h639v-98h-639z" />
    <glyph glyph-name="period" unicode="." horiz-adv-x="477" 
d="M160 0v168h157v-168h-157z" />
    <glyph glyph-name="slash" unicode="/" horiz-adv-x="759" 
d="M645 1651h115l-645 -1870h-113z" />
    <glyph glyph-name="zero" unicode="0" horiz-adv-x="1318" 
d="M659 1366q-99 0 -178 -39.5t-128.5 -103t-82.5 -150t-46 -174.5t-13 -182t13 -182t46 -174.5t82.5 -150t128.5 -103t178 -39.5t178 39.5t129 103t82.5 150t46 174.5t13.5 182t-13.5 182t-46 174.5t-82.5 150t-129 103t-178 39.5zM659 1464q122 0 220 -44.5t160.5 -117
t104.5 -171.5t59.5 -201.5t17.5 -212.5t-17.5 -212.5t-59.5 -201.5t-104.5 -172t-160.5 -117.5t-220 -44.5q-102 0 -187.5 31t-145.5 85.5t-105 125.5t-71.5 156.5t-39 172t-12.5 177.5q0 77 9 151.5t29 149.5t50 140t75.5 122t102 97.5t132 63.5t163.5 23z" />
    <glyph glyph-name="one" unicode="1" horiz-adv-x="710" 
d="M412 1434h98v-1434h-109v1096h-303v92h117q49 0 85.5 14.5t57.5 37.5t33.5 56.5t16.5 65.5t4 72z" />
    <glyph glyph-name="two" unicode="2" horiz-adv-x="1208" 
d="M633 1464q92 0 175 -24t150 -71t106.5 -124.5t39.5 -175.5q0 -66 -24 -127t-59.5 -106t-93.5 -92.5t-107.5 -80t-119.5 -76.5q-24 -15 -36 -22q-48 -31 -64.5 -41.5t-62.5 -41t-66 -46t-58.5 -46.5t-57.5 -52t-46.5 -53t-41.5 -60t-27 -62t-17 -69h887v-94h-1012v39
q0 49 10 95.5t23.5 84t41 77.5t49.5 68t62 63.5t65 56t73 53t71.5 47.5t73.5 46q5 3 8 5q26 16 74 45.5t75.5 47t69 46t66 49.5t53.5 51t44.5 58t26.5 62.5t11 70.5q0 76 -30 135.5t-81.5 95.5t-115 54t-135.5 18q-172 0 -285.5 -91.5t-134.5 -258.5h-113q14 137 88 239.5
t189 154.5t256 52z" />
    <glyph glyph-name="three" unicode="3" horiz-adv-x="1214" 
d="M616 1464q92 0 173 -23t144 -67.5t99.5 -116t36.5 -161.5q0 -125 -73.5 -208.5t-190.5 -119.5q151 -42 232 -135t81 -234q0 -105 -43 -188.5t-115.5 -135.5t-163 -79t-190.5 -27t-188.5 26.5t-158.5 76t-113 128.5t-48 177l101 2q11 -106 72 -180t147 -107t188 -33
q81 0 152 22t127 64.5t88.5 111.5t32.5 155q0 80 -35.5 142t-95.5 99t-131.5 55.5t-149.5 18.5h-135v78h131q72 0 136 15t118 46.5t85.5 86.5t31.5 128q0 142 -97 216.5t-252 74.5q-86 0 -159.5 -27t-127 -87.5t-65.5 -145.5l-104 -2q25 171 151.5 262.5t308.5 91.5z" />
    <glyph glyph-name="four" unicode="4" horiz-adv-x="1292" 
d="M870 455v845l-647 -845h647zM98 432l754 1002h127v-979h215v-97h-215v-358h-109v358h-772v74z" />
    <glyph glyph-name="five" unicode="5" horiz-adv-x="1204" 
d="M1014 1434v-95h-709l-65 -553q59 89 165 138t216 49q221 0 354 -136t133 -362q0 -224 -140 -365t-370 -141q-94 0 -178 24t-154 71t-115 126t-53 181h105q10 -102 67.5 -174t142 -105t185.5 -33q178 0 289.5 115.5t111.5 300.5q0 187 -104.5 300.5t-288.5 113.5
q-125 0 -219 -60t-145 -165h-125l90 770h807z" />
    <glyph glyph-name="six" unicode="6" horiz-adv-x="1214" 
d="M627 883q-170 0 -285 -105t-115 -278q0 -187 107 -310.5t291 -123.5q177 0 278 117.5t101 301.5q0 175 -101.5 286.5t-275.5 111.5zM631 973q222 0 353.5 -135.5t131.5 -354.5q0 -225 -134.5 -369.5t-354.5 -144.5q-115 0 -206 35t-150.5 95.5t-99 145t-56.5 179
t-17 203.5q0 82 7 161t25 163.5t45.5 158t71.5 140t100 113.5t134 75t170 28q178 0 295 -93t152 -261h-111q-29 124 -117 190t-219 66q-98 0 -175 -42t-123 -106t-77.5 -153.5t-44.5 -170t-18 -169.5q57 118 169.5 182t248.5 64z" />
    <glyph glyph-name="seven" unicode="7" horiz-adv-x="1167" 
d="M1067 1434v-91q-242 -282 -378 -631t-136 -712h-115q0 348 138.5 705.5t371.5 633.5h-850v95h969z" />
    <glyph glyph-name="eight" unicode="8" horiz-adv-x="1267" 
d="M633 59q87 0 161.5 18.5t136.5 57.5t97 107t35 159q0 70 -24.5 127.5t-65.5 95.5t-97 64t-116.5 37.5t-126.5 11.5q-65 0 -125.5 -11.5t-116 -38t-96.5 -64.5t-65.5 -95t-24.5 -127q0 -91 35 -159t96.5 -107t135.5 -57.5t161 -18.5zM633 1374q-73 0 -136 -16.5
t-115 -49.5t-82 -91t-30 -134q0 -73 30.5 -128t83.5 -85.5t115 -45.5t134 -15t135 15t115.5 45.5t83 85.5t30.5 128q0 61 -20 111t-54.5 83t-81.5 55t-98.5 32t-109.5 10zM633 1464q93 0 175 -22t149 -65.5t106 -118t39 -171.5q0 -227 -246 -309q141 -38 227 -139.5
t86 -245.5q0 -87 -30 -158.5t-81 -120t-120 -82t-145.5 -48.5t-159.5 -15q-104 0 -197.5 25t-170 75t-122 133.5t-45.5 190.5q0 143 87.5 245t228.5 140q-248 83 -248 309q0 95 38 169t103.5 118.5t148 67t177.5 22.5z" />
    <glyph glyph-name="nine" unicode="9" horiz-adv-x="1214" 
d="M590 1368q-177 0 -278 -117.5t-101 -300.5q0 -175 101.5 -287t275.5 -112q170 0 284.5 106t114.5 279q0 186 -106.5 309t-290.5 123zM588 1466q115 0 205.5 -35t150.5 -95t99 -145t56 -179t17 -203q0 -83 -7 -162t-25 -164t-45.5 -158t-71.5 -140t-100 -114t-134 -74.5
t-170 -27.5q-178 0 -294.5 92.5t-151.5 260.5h110q29 -123 117 -188.5t219 -65.5q98 0 175 42t123 106t77.5 153t44.5 169t18 169q-57 -117 -169 -180.5t-248 -63.5q-223 0 -354.5 134.5t-131.5 354.5q0 224 135 369t355 145z" />
    <glyph glyph-name="colon" unicode=":" horiz-adv-x="477" 
d="M160 842v166h157v-166h-157zM160 0v168h157v-168h-157z" />
    <glyph glyph-name="semicolon" unicode=";" horiz-adv-x="483" 
d="M166 1008h158v-166h-158v166zM160 168h157v-107q0 -103 -59.5 -175t-161.5 -111l-22 47q153 69 166 178h-80v168z" />
    <glyph glyph-name="less" unicode="&#x3c;" horiz-adv-x="1208" 
d="M1047 1231v-103l-820 -411l820 -410v-104l-930 469v90z" />
    <glyph glyph-name="equal" unicode="=" horiz-adv-x="1239" 
d="M160 762v94h919v-94h-919zM160 332v94h919v-94h-919z" />
    <glyph glyph-name="greater" unicode="&#x3e;" horiz-adv-x="1210" 
d="M160 1231l930 -469v-90l-930 -469v104l819 410l-819 411v103z" />
    <glyph glyph-name="question" unicode="?" horiz-adv-x="1091" 
d="M569 1464q114 0 210 -44t155 -128.5t59 -193.5q0 -39 -6.5 -74.5t-15 -62t-28 -55t-33 -45.5t-42.5 -43t-45 -38.5t-53 -40.5t-53 -41q-71 -54 -102 -118.5t-31 -157.5v-47h-99v45q0 117 39 193.5t127 144.5q108 83 135 109q80 79 92 181q3 23 3 48q0 127 -92.5 202.5
t-223.5 75.5q-163 0 -251.5 -92.5t-108.5 -251.5h-107q22 206 142.5 320t328.5 114zM455 166h157v-166h-157v166z" />
    <glyph glyph-name="at" unicode="@" horiz-adv-x="1865" 
d="M905 952q-87 0 -150.5 -51t-91.5 -125t-28 -158q0 -133 71.5 -233t200.5 -100q86 0 146.5 50t87 123t26.5 158q0 62 -15.5 120t-46 107.5t-82.5 79t-118 29.5zM893 1038q88 0 159.5 -42.5t112.5 -118.5l13 151h79v-516q0 -88 51.5 -156.5t131.5 -68.5q233 0 233 354
q0 161 -57 298t-156.5 232.5t-237.5 149t-296 53.5q-206 0 -373 -98.5t-261.5 -270t-94.5 -380.5q0 -161 55 -301t151.5 -240t233 -157.5t293.5 -57.5q224 0 405 111v-97q-182 -102 -409 -102q-175 0 -328.5 64t-263 175.5t-173 268t-63.5 334.5q0 176 63.5 332t173 267.5
t263 176.5t326.5 65q176 0 330 -59t267 -164t178.5 -259t65.5 -335q0 -68 -9 -128t-32 -120.5t-59 -103t-94.5 -69.5t-134.5 -27q-87 0 -155.5 58.5t-90.5 148.5q-40 -97 -118.5 -152t-176.5 -55q-84 0 -152 36t-111 95.5t-66 133t-23 152.5t23 153.5t65.5 135t110.5 97
t151 36.5z" />
    <glyph glyph-name="A" unicode="A" horiz-adv-x="1308" 
d="M946 557l-293 739l-293 -739h586zM20 0l574 1434h119l573 -1434h-121l-184 463h-655l-185 -463h-121z" />
    <glyph glyph-name="B" unicode="B" horiz-adv-x="1255" 
d="M680 711h-408v-619h404q155 0 259.5 80.5t104.5 230.5q0 147 -96.5 227.5t-263.5 80.5zM655 1343h-385v-542h402q146 0 225.5 69.5t79.5 200.5q0 69 -26.5 122.5t-72.5 85.5t-102.5 48t-120.5 16zM160 1434h512q66 0 126 -13t113 -41t92 -69t61.5 -101t22.5 -133
q0 -223 -196 -319q126 -40 196 -133t70 -224q0 -102 -39 -180.5t-106 -126t-150.5 -71t-179.5 -23.5h-522v1434z" />
    <glyph glyph-name="C" unicode="C" horiz-adv-x="1536" 
d="M784 1464q255 0 433 -142.5t219 -375.5h-117q-35 191 -181 305.5t-356 114.5q-131 0 -240.5 -54.5t-180.5 -145.5t-109.5 -207t-38.5 -242t38.5 -242t109.5 -207t180.5 -145.5t240.5 -54.5q210 0 356 114t181 305h117q-41 -233 -219 -375.5t-433 -142.5q-127 0 -237 39.5
t-191.5 109t-140 163.5t-88 205t-29.5 231q0 150 47 285t133 238t217 163.5t289 60.5z" />
    <glyph glyph-name="D" unicode="D" horiz-adv-x="1400" 
d="M586 1337h-314v-1241h314q177 0 316 80t215.5 221.5t76.5 319.5t-76.5 319.5t-215.5 221t-316 79.5zM590 1434q204 0 366.5 -91.5t254.5 -255.5t92 -370t-92 -370t-254.5 -255.5t-366.5 -91.5h-430v1434h430z" />
    <glyph glyph-name="E" unicode="E" horiz-adv-x="1175" 
d="M160 1434h897v-97h-785v-567h719v-94h-719v-580h785v-96h-897v1434z" />
    <glyph glyph-name="F" unicode="F" horiz-adv-x="1175" 
d="M160 1434h897v-97h-785v-571h719v-94h-719v-672h-112v1434z" />
    <glyph glyph-name="G" unicode="G" horiz-adv-x="1548" 
d="M780 600v98h670v-698h-94l-8 373q-65 -183 -209 -293.5t-355 -110.5q-127 0 -237 39.5t-191.5 109t-140 163.5t-88 205t-29.5 231q0 150 47 285t133 238t217 163.5t289 60.5q252 0 430.5 -140t221.5 -368h-119q-37 187 -182.5 298.5t-352.5 111.5q-131 0 -240.5 -54.5
t-180.5 -145.5t-109.5 -207t-38.5 -242q0 -100 24 -195t72.5 -177t116 -144t160.5 -97.5t200 -35.5q118 0 214 41t161.5 114t106 168.5t53.5 208.5h-541z" />
    <glyph glyph-name="H" unicode="H" horiz-adv-x="1349" 
d="M1079 1434h113v-1434h-113v670h-807v-670h-112v1434h112v-668h807v668z" />
    <glyph glyph-name="I" unicode="I" horiz-adv-x="432" 
d="M160 0v1434h112v-1434h-112z" />
    <glyph glyph-name="J" unicode="J" horiz-adv-x="1118" 
d="M868 1434h111v-959q0 -113 -25.5 -203.5t-78 -159t-139 -106t-201.5 -37.5q-110 0 -194.5 38.5t-136.5 106t-78.5 154.5t-27.5 189h111q2 -81 20.5 -148t55.5 -121.5t100.5 -85t149.5 -30.5q92 0 158.5 31t103.5 88t54 126.5t17 155.5v961z" />
    <glyph glyph-name="K" unicode="K" horiz-adv-x="1282" 
d="M1051 0l-527 721l-252 -275v-446h-112v1434h112v-834l754 834h143l-571 -631l586 -803h-133z" />
    <glyph glyph-name="L" unicode="L" horiz-adv-x="1155" 
d="M160 1434h112v-1338h785v-96h-897v1434z" />
    <glyph glyph-name="M" unicode="M" horiz-adv-x="1804" 
d="M1516 1434h126v-1434h-112v1217l-594 -1217h-72l-592 1217v-1217h-112v1434h127l614 -1258z" />
    <glyph glyph-name="N" unicode="N" horiz-adv-x="1355" 
d="M1085 1434h113v-1434h-125l-801 1253v-1253h-112v1434h127l798 -1256v1256z" />
    <glyph glyph-name="O" unicode="O" horiz-adv-x="1570" 
d="M786 1366q-134 0 -244 -54t-180.5 -145t-108.5 -207t-38 -243t38 -242.5t108.5 -206t180.5 -144.5t244 -54q133 0 243 54t180.5 144.5t108.5 206t38 242.5t-38 243t-108.5 207t-180.5 145t-243 54zM786 1464q158 0 289.5 -61t217.5 -164t133 -237.5t47 -284.5t-47 -284.5
t-133 -238t-217.5 -164.5t-289.5 -61q-159 0 -290.5 61t-217.5 164.5t-133 238t-47 284.5t47 284.5t133 237.5t217.5 164t290.5 61z" />
    <glyph glyph-name="P" unicode="P" horiz-adv-x="1224" 
d="M682 1339h-408v-626h408q149 0 247.5 81.5t98.5 231.5q0 147 -97 230t-249 83zM160 1434h514q208 0 337.5 -105t129.5 -303q0 -103 -36.5 -182.5t-101.5 -128t-148 -73t-181 -24.5h-400v-618h-114v1434z" />
    <glyph glyph-name="Q" unicode="Q" horiz-adv-x="1572" 
d="M823 455l80 59l240 -315q103 91 158 228t55 290q0 127 -38 243t-108.5 207t-180.5 145t-243 54q-134 0 -244 -54t-180.5 -145t-108.5 -207t-38 -243t38 -242.5t108.5 -206t180.5 -144.5t244 -54q152 0 275 71zM1319 -203l-195 258q-150 -86 -338 -86q-128 0 -238.5 39.5
t-192 110t-140 164.5t-88 204.5t-29.5 229.5q0 150 47 285t133 238.5t217.5 164.5t290.5 61q158 0 289.5 -61t217.5 -164.5t133 -238.5t47 -285q0 -183 -69 -341.5t-196 -262.5l193 -254z" />
    <glyph glyph-name="R" unicode="R" horiz-adv-x="1228" 
d="M682 1339h-408v-626h408q149 0 247.5 81.5t98.5 231.5q0 147 -97 230t-249 83zM1012 0l-355 618h-383v-618h-114v1434h514q208 0 337.5 -105t129.5 -303q0 -175 -98.5 -274.5t-262.5 -124.5l361 -627h-129z" />
    <glyph glyph-name="S" unicode="S" horiz-adv-x="1277" 
d="M627 1464q212 0 352 -107.5t170 -309.5h-111q-71 321 -411 321q-75 0 -139 -14t-119 -44.5t-87 -85t-32 -128.5q0 -39 8.5 -72.5t21 -59t35.5 -47.5t43 -37.5t54 -29.5t58 -22t64.5 -17t65 -13.5t66.5 -11.5q60 -10 105 -20t101.5 -27t97.5 -37.5t83 -52t68 -70
t42.5 -91.5t16.5 -117q0 -85 -30 -154.5t-79.5 -115t-116.5 -76t-138 -43.5t-146 -13q-246 0 -392.5 117.5t-179.5 353.5h113q56 -374 461 -374q58 0 112.5 10t106.5 33t90.5 57t62 86t23.5 117q0 59 -18.5 107t-55 80.5t-75 55t-96 38.5t-98 24.5t-99.5 17.5
q-88 14 -154 30.5t-132 47t-108 72t-68 105t-26 145.5q0 96 40.5 169.5t110.5 116.5t155.5 64.5t183.5 21.5z" />
    <glyph glyph-name="T" unicode="T" horiz-adv-x="1300" 
d="M82 1434h1135v-95h-512v-1339h-113v1339h-510v95z" />
    <glyph glyph-name="U" unicode="U" horiz-adv-x="1296" 
d="M1047 1434h110v-969q0 -217 -144.5 -356.5t-363.5 -139.5q-142 0 -258 60.5t-184 174.5t-68 261v969h113v-957q0 -183 110 -296t287 -113q179 0 288.5 115.5t109.5 293.5v957z" />
    <glyph glyph-name="V" unicode="V" horiz-adv-x="1275" 
d="M1135 1434h118l-551 -1434h-131l-551 1434h121l498 -1293z" />
    <glyph glyph-name="W" unicode="W" horiz-adv-x="1927" 
d="M1790 1434h115l-443 -1434h-116l-381 1264l-385 -1264h-115l-445 1434h117l385 -1272l385 1272h111l385 -1272z" />
    <glyph glyph-name="X" unicode="X" horiz-adv-x="1323" 
d="M1114 1434h129l-500 -701l512 -733h-133l-454 659l-471 -659h-129l526 727l-508 707h133l451 -633z" />
    <glyph glyph-name="Y" unicode="Y" horiz-adv-x="1220" 
d="M1071 1434h127l-532 -914v-520h-113v520l-533 914h127l461 -795z" />
    <glyph glyph-name="Z" unicode="Z" horiz-adv-x="1245" 
d="M135 1434h981v-74l-848 -1264h858v-96h-1007v74l846 1263h-830v97z" />
    <glyph glyph-name="bracketleft" unicode="[" horiz-adv-x="735" 
d="M160 1563h415v-88h-313v-1692h313v-90h-415v1870z" />
    <glyph glyph-name="backslash" unicode="\" horiz-adv-x="757" 
d="M115 1651l643 -1870h-113l-645 1870h115z" />
    <glyph glyph-name="bracketright" unicode="]" horiz-adv-x="737" 
d="M160 1563h415v-1870h-415v90h313v1692h-313v88z" />
    <glyph glyph-name="asciicircum" unicode="^" horiz-adv-x="858" 
d="M362 1434h134l243 -600h-102l-207 524l-207 -524h-104z" />
    <glyph glyph-name="underscore" unicode="_" horiz-adv-x="1157" 
d="M160 -127v94h837v-94h-837z" />
    <glyph glyph-name="grave" unicode="`" horiz-adv-x="507" 
d="M119 1470h110l160 -251h-90z" />
    <glyph glyph-name="a" unicode="a" horiz-adv-x="1189" 
d="M453 489q-44 -8 -78 -17t-71 -26.5t-61.5 -39.5t-40.5 -57t-16 -79q0 -211 283 -211q101 0 196 41.5t160 122t68 180.5v177q-18 -19 -84 -29zM418 571q317 50 385 62q90 12 90 80q0 131 -82 205.5t-244 74.5q-143 0 -242 -68t-112 -194h-109q15 116 81 197.5t162.5 119
t217.5 37.5q206 0 319 -100t113 -301v-473q0 -79 18 -119.5t75 -40.5h18v-82h-47q-47 0 -79.5 18.5t-49.5 52.5t-24.5 73t-8.5 90q-63 -107 -186.5 -170.5t-253.5 -63.5q-172 0 -275.5 73t-103.5 222q0 72 27.5 127.5t76.5 91t106.5 56.5t127.5 32z" />
    <glyph glyph-name="b" unicode="b" horiz-adv-x="1241" 
d="M653 995q-130 0 -229.5 -64.5t-150 -170t-50.5 -232.5q0 -97 30 -182t84.5 -148.5t136.5 -100t179 -36.5q131 0 226.5 66.5t140.5 170.5t45 230q0 129 -46.5 233.5t-141.5 169t-224 64.5zM662 1085q117 0 213.5 -43.5t161 -119t99.5 -177t35 -217.5q0 -114 -34 -214.5
t-97 -177.5t-160.5 -122t-217.5 -45q-149 0 -265 71.5t-176 199.5l-12 -240h-90v1434h104v-619q60 127 175.5 198.5t263.5 71.5z" />
    <glyph glyph-name="c" unicode="c" horiz-adv-x="1167" 
d="M604 1085q183 0 315.5 -102.5t178.5 -277.5h-109q-39 129 -144 209.5t-241 80.5q-128 0 -227.5 -65.5t-151 -171t-51.5 -230.5q0 -128 52.5 -234.5t151.5 -170.5t226 -64q137 0 241 80t144 211h109q-46 -177 -178.5 -279t-315.5 -102q-152 0 -274.5 74t-191 202
t-68.5 283q0 152 67 279t190 202.5t277 75.5z" />
    <glyph glyph-name="d" unicode="d" horiz-adv-x="1241" 
d="M588 995q-192 0 -303 -134t-111 -333q0 -126 45 -230t141 -170.5t228 -66.5q97 0 179 36.5t136.5 100t84.5 148.5t30 182q0 127 -50.5 232.5t-150 170t-229.5 64.5zM580 1085q148 0 263 -71.5t175 -198.5v619h104v-1434h-92l-10 240q-60 -128 -175.5 -199.5t-264.5 -71.5
q-159 0 -276.5 77.5t-175.5 203t-58 278.5q0 156 60 281.5t177.5 200.5t272.5 75z" />
    <glyph glyph-name="e" unicode="e" horiz-adv-x="1171" 
d="M588 997q-169 0 -279.5 -115.5t-128.5 -279.5h815q-21 170 -130.5 282.5t-276.5 112.5zM588 1085q135 0 246.5 -65t179.5 -176q98 -154 86 -334h-924q2 -124 56 -227t153 -164.5t223 -61.5q123 0 221.5 64t147.5 176h110q-55 -151 -185 -239.5t-292 -88.5q-154 0 -278 73
t-193 200.5t-69 285.5q0 148 63.5 274.5t183.5 204.5t271 78z" />
    <glyph glyph-name="f" unicode="f" horiz-adv-x="618" 
d="M446 1464q49 0 103 -18v-92l-5 2q-5 1 -13.5 3.5t-19 5t-26 4t-30.5 1.5q-65 0 -97 -39t-32 -98v-178h221v-92h-221v-963h-109v963h-164v92h164v186q0 102 62 162.5t167 60.5z" />
    <glyph glyph-name="g" unicode="g" horiz-adv-x="1198" 
d="M584 993q-185 0 -297.5 -126.5t-112.5 -309.5q0 -185 112.5 -308.5t293.5 -123.5q122 0 214 60.5t137.5 158t45.5 215.5q0 119 -46.5 217t-137.5 157.5t-209 59.5zM563 1087q135 0 246.5 -66.5t169.5 -186.5l10 221h88v-996q0 -234 -132.5 -373t-356.5 -139
q-119 0 -219.5 38.5t-174 120.5t-98.5 196h105q32 -132 135 -197t246 -65q182 0 287.5 112t105.5 301v223q-58 -117 -167.5 -181t-244.5 -64q-143 0 -256.5 71.5t-175 191.5t-61.5 265q0 141 59.5 261t173.5 193.5t260 73.5z" />
    <glyph glyph-name="h" unicode="h" horiz-adv-x="1079" 
d="M596 1085q178 0 281.5 -111.5t103.5 -285.5v-688h-107v680q0 139 -77.5 228t-218.5 89q-81 0 -148.5 -37.5t-111 -99t-67.5 -137t-24 -154.5v-569h-108v1434h108v-586q52 109 150 173t219 64z" />
    <glyph glyph-name="i" unicode="i" horiz-adv-x="350" 
d="M119 1266v168h112v-168h-112zM123 0v1055h106v-1055h-106z" />
    <glyph glyph-name="j" unicode="j" horiz-adv-x="372" 
d="M141 1434h113v-166h-113v166zM143 1055h107v-1272q0 -115 -62.5 -175.5t-173.5 -60.5q-45 0 -96 17v94q2 -2 12.5 -5.5t32.5 -7t45 -3.5q67 0 101 39.5t34 99.5v1274z" />
    <glyph glyph-name="k" unicode="k" horiz-adv-x="1044" 
d="M119 1434h108v-885l543 506h137l-438 -406l500 -649h-129l-447 582l-166 -154v-428h-108v1434z" />
    <glyph glyph-name="l" unicode="l" horiz-adv-x="346" 
d="M119 0v1434h108v-1434h-108z" />
    <glyph glyph-name="m" unicode="m" horiz-adv-x="1720" 
d="M567 1085q125 0 212.5 -64t121.5 -179q46 107 139.5 175t210.5 68q166 0 268.5 -107.5t102.5 -270.5v-707h-106v696q0 127 -79.5 214t-207.5 87q-72 0 -131.5 -36.5t-95.5 -95t-56 -127t-22 -138.5v-600h-107v696q0 129 -72 215t-202 86q-75 0 -137 -38t-100 -99
t-58.5 -132.5t-20.5 -143.5v-584h-106v1055h90l8 -209q46 111 138 175t210 64z" />
    <glyph glyph-name="n" unicode="n" horiz-adv-x="1079" 
d="M596 1085q178 0 281.5 -111.5t103.5 -285.5v-688h-107v680q0 139 -77.5 228t-218.5 89q-81 0 -148.5 -37.5t-111 -99t-67.5 -137t-24 -154.5v-569h-108v1055h90l12 -213q52 111 152 177t223 66z" />
    <glyph glyph-name="o" unicode="o" horiz-adv-x="1230" 
d="M614 995q-124 0 -225.5 -65t-157 -171.5t-55.5 -230.5t56 -231t157 -171.5t225 -64.5t226 66.5t157.5 173t55.5 227.5q0 122 -56.5 229t-158 172.5t-224.5 65.5zM614 1085q152 0 277.5 -74.5t196.5 -202t71 -280.5q0 -151 -69.5 -279t-195.5 -204t-280 -76
q-153 0 -278 74t-195.5 202t-70.5 283q0 154 70.5 281.5t195.5 201.5t278 74z" />
    <glyph glyph-name="p" unicode="p" horiz-adv-x="1241" 
d="M653 995q-97 0 -179 -36.5t-136.5 -100t-84.5 -148.5t-30 -182q0 -128 50.5 -234t150 -170.5t229.5 -64.5q129 0 224 65t141.5 170t46.5 234q0 126 -45 230t-140.5 170.5t-226.5 66.5zM662 1085q120 0 217.5 -44.5t160.5 -121t97 -177t34 -214.5q0 -117 -35 -218.5
t-99.5 -177.5t-161 -119.5t-213.5 -43.5q-148 0 -263.5 72.5t-175.5 200.5v-664h-104v1477h90l12 -240q60 128 176 199t265 71z" />
    <glyph glyph-name="q" unicode="q" horiz-adv-x="1241" 
d="M588 995q-132 0 -228 -66.5t-141 -170.5t-45 -230q0 -129 47 -234t142.5 -170t224.5 -65q130 0 229.5 64.5t150 170.5t50.5 234q0 97 -30 182t-84.5 148.5t-136.5 100t-179 36.5zM580 1085q149 0 264.5 -71t175.5 -199l10 240h92v-1477h-104v664q-62 -129 -176 -201
t-262 -72q-155 0 -272.5 75t-177.5 201t-60 283q0 153 58 278t175.5 202t276.5 77z" />
    <glyph glyph-name="r" unicode="r" horiz-adv-x="663" 
d="M551 1085l53 -4v-102q-26 4 -55 4q-95 0 -169 -58t-113.5 -157t-39.5 -221v-547h-108v1055h90l14 -248q31 118 119 198t209 80z" />
    <glyph glyph-name="s" unicode="s" horiz-adv-x="1024" 
d="M498 1085q81 0 152 -18.5t129.5 -55t97.5 -98.5t51 -143h-103q-51 227 -329 227q-113 0 -200 -53t-87 -151q0 -46 22.5 -81.5t48 -54.5t79.5 -35t80.5 -20.5t88.5 -13.5q18 -3 27 -4q70 -11 120 -22.5t104.5 -35.5t88.5 -56.5t56 -84t22 -119.5q0 -76 -37.5 -135.5
t-99 -93.5t-132 -51t-145.5 -17q-119 0 -217.5 38.5t-163.5 121t-73 197.5h106q5 -88 57.5 -150t128 -89.5t165.5 -27.5q54 0 105.5 10.5t99.5 32.5t77 63t29 95q0 41 -13 74.5t-32 56.5t-53 41.5t-61.5 29t-73 20t-72.5 13t-74 9.5q-58 8 -104.5 19.5t-96 33.5t-82.5 51.5
t-54 76.5t-21 106q0 74 35.5 132t93 92.5t124.5 52t136 17.5z" />
    <glyph glyph-name="t" unicode="t" horiz-adv-x="657" 
d="M242 1366h108v-311h225v-92h-225v-756q0 -63 33.5 -102t103.5 -39q15 0 29.5 1.5t25 3.5t18.5 4t13 3l5 2v-94q-68 -17 -107 -17q-106 0 -167.5 59.5t-61.5 172.5v762h-181v92h68q56 0 84.5 25.5t28.5 88.5v197z" />
    <glyph glyph-name="u" unicode="u" horiz-adv-x="1079" 
d="M854 1055h107v-1055h-91l-12 213q-52 -111 -151.5 -177.5t-221.5 -66.5q-178 0 -282.5 112t-104.5 286v688h109v-680q0 -139 77 -227.5t218 -88.5q107 0 189 64t122.5 160t40.5 202v570z" />
    <glyph glyph-name="v" unicode="v" horiz-adv-x="1081" 
d="M946 1055h115l-469 -1055h-103l-469 1055h115l406 -924z" />
    <glyph glyph-name="w" unicode="w" horiz-adv-x="1587" 
d="M1452 1055h113l-367 -1055h-94l-311 901l-312 -901h-92l-369 1055h115l305 -912l308 912h90l309 -912z" />
    <glyph glyph-name="x" unicode="x" horiz-adv-x="1153" 
d="M928 1055h127l-408 -506l428 -549h-129l-368 481l-373 -481h-127l428 545l-410 510h129l353 -445z" />
    <glyph glyph-name="y" unicode="y" horiz-adv-x="1036" 
d="M528 115l373 940h115l-514 -1274q-45 -119 -119.5 -176.5t-187.5 -57.5q-41 0 -72 7v88q54 -9 74 -9q72 0 122.5 42.5t75.5 105.5l88 219h-16l-444 1055h116z" />
    <glyph glyph-name="z" unicode="z" horiz-adv-x="1007" 
d="M102 1055h822v-70l-697 -895h699v-90h-846v70l694 893h-672v92z" />
    <glyph glyph-name="braceleft" unicode="{" horiz-adv-x="860" 
d="M414 1217v-287q0 -45 -4 -83t-16.5 -78t-33.5 -68.5t-56.5 -49.5t-82.5 -26q59 -6 99 -34t59.5 -73.5t27 -91.5t7.5 -104v-287q0 -254 254 -254h32v-90h-43q-164 0 -255 86.5t-91 255.5v309q0 120 -48 179t-165 59v92q117 0 165 58.5t48 178.5v310q0 169 91 255.5
t255 86.5h43v-91h-32q-254 0 -254 -253z" />
    <glyph glyph-name="bar" unicode="|" horiz-adv-x="421" 
d="M160 -307v1870h102v-1870h-102z" />
    <glyph glyph-name="braceright" unicode="}" horiz-adv-x="860" 
d="M160 1563h41q166 0 257 -86.5t91 -255.5v-310q0 -120 48 -178.5t165 -58.5v-92q-117 0 -165 -59t-48 -179v-309q0 -169 -91 -255.5t-257 -86.5h-41v90h33q253 0 253 254v287q0 58 7.5 104t27 91.5t59.5 73.5t99 34q-47 5 -82.5 26t-56.5 49.5t-33.5 68.5t-16.5 78t-4 83
v287q0 254 -253 254h-33v90z" />
    <glyph glyph-name="asciitilde" unicode="~" horiz-adv-x="1300" 
d="M389 784q-180 0 -180 -223h-90q0 138 68.5 228t197.5 90q59 0 119.5 -23.5t111.5 -57t101 -67t104.5 -57t104.5 -23.5q89 0 131 63t39 156h86q3 -133 -60.5 -222t-189.5 -89q-58 0 -119 23t-112.5 56.5t-101.5 66.5t-105 56t-105 23z" />
    <glyph glyph-name="uni00A0" unicode="&#xa0;" horiz-adv-x="561" 
 />
    <glyph glyph-name="exclamdown" unicode="&#xa1;" horiz-adv-x="477" 
d="M317 1085v-165h-157v165h157zM279 657q16 -472 16 -548v-488h-115v488q0 46 17 548h82z" />
    <glyph glyph-name="cent" unicode="&#xa2;" horiz-adv-x="1167" 
d="M553 0v162q-211 19 -347 176t-136 379q0 221 135 379t348 178v160h88v-160q169 -11 291.5 -112.5t165.5 -268.5h-109q-39 129 -143.5 210t-239.5 81q-129 0 -228.5 -65t-150.5 -170.5t-51 -231.5q0 -128 52.5 -234t151.5 -169.5t226 -63.5q137 0 240.5 79.5t142.5 209.5
h109q-43 -167 -165.5 -267.5t-291.5 -111.5v-160h-88z" />
    <glyph glyph-name="sterling" unicode="&#xa3;" horiz-adv-x="1296" 
d="M119 641v84h243q-4 17 -16 61.5t-17.5 67.5t-13.5 60t-11 69t-3 64q0 181 111.5 299t292.5 118q192 0 304.5 -96.5t131.5 -284.5h-121q-37 281 -315 281q-129 0 -209 -93t-80 -227q0 -45 9 -94t28.5 -123t25.5 -102h395v-84h-378q6 -44 6 -86q0 -149 -51 -255t-172 -202
h899v-98h-1059v90q136 87 206 189t70 241q0 43 -12 121h-264z" />
    <glyph glyph-name="currency" unicode="&#xa4;" horiz-adv-x="1200" 
d="M600 1051q-138 0 -236 -98t-98 -236q0 -137 98 -234.5t236 -97.5q136 0 234 97.5t98 234.5q0 138 -97.5 236t-234.5 98zM600 1137q149 0 266 -99l154 150l61 -64l-153 -147q90 -114 90 -260q0 -144 -90 -258l153 -150l-61 -61l-154 149q-112 -98 -266 -98q-149 0 -268 98
l-154 -149l-59 61l153 150q-92 112 -92 258q0 148 92 260l-153 147l59 64l154 -150q120 99 268 99z" />
    <glyph glyph-name="yen" unicode="&#xa5;" horiz-adv-x="1220" 
d="M553 489h-360v89h327l-500 856h127l461 -795l463 795h127l-500 -856h328v-89h-360v-155h360v-86h-360v-248h-113v248h-360v86h360v155z" />
    <glyph glyph-name="brokenbar" unicode="&#xa6;" horiz-adv-x="421" 
d="M160 903v748h102v-748h-102zM160 -219v747h102v-747h-102z" />
    <glyph glyph-name="section" unicode="&#xa7;" horiz-adv-x="1056" 
d="M731 516q92 63 92 150q0 92 -70.5 134.5t-252.5 78.5q-133 28 -174 41q-93 -67 -93 -150q0 -94 70 -136.5t252 -78.5q118 -21 176 -39zM504 479q-190 36 -276.5 98t-86.5 187q0 115 107 188q-129 70 -129 217q0 62 23.5 113t62 84.5t90 56.5t105 33t108.5 10
q170 0 288 -79t142 -238h-100q-51 233 -328 233q-51 0 -100 -12t-93 -35.5t-71 -66.5t-27 -99q0 -36 10.5 -64.5t32 -48.5t46.5 -34t62 -25t71 -18.5t80 -16.5q21 -4 32 -6q190 -36 276 -97.5t86 -188.5q0 -55 -28 -104t-78 -83q129 -70 129 -217q0 -77 -35 -136.5
t-93.5 -93t-125 -50.5t-137.5 -17q-169 0 -286.5 79.5t-141.5 238.5h100q51 -234 328 -234q52 0 100.5 11.5t92.5 35.5t71 67t27 99q0 43 -17 75.5t-42 52.5t-69 35.5t-82 24.5t-97 20q-18 3 -27 5z" />
    <glyph glyph-name="dieresis" unicode="&#xa8;" horiz-adv-x="632" 
d="M406 1243v166h106v-166h-106zM119 1243v166h108v-166h-108z" />
    <glyph glyph-name="copyright" unicode="&#xa9;" horiz-adv-x="1732" 
d="M866 1380q-179 0 -330.5 -87t-241 -239.5t-89.5 -334.5q0 -109 33.5 -211t95 -183t143 -141.5t182 -93.5t207.5 -33q182 0 334.5 89.5t240 241.5t87.5 331q0 181 -89.5 333.5t-241.5 240t-331 87.5zM864 1139q134 0 234 -76.5t135 -206.5h-90q-32 96 -105 149.5
t-174 53.5q-140 0 -226.5 -98t-86.5 -244q0 -143 87.5 -242.5t225.5 -99.5q101 0 174 53t105 150h90q-35 -130 -135 -206.5t-234 -76.5q-175 0 -290 120t-115 302q0 181 114.5 301.5t290.5 120.5zM866 1466q151 0 289.5 -59t239.5 -159t161 -239t60 -292q0 -201 -100 -373
t-273 -273.5t-377 -101.5q-151 0 -288.5 59t-238 158.5t-160.5 238.5t-60 292t60 292t160.5 239t238.5 159t288 59z" />
    <glyph glyph-name="ordfeminine" unicode="&#xaa;" horiz-adv-x="956" 
d="M383 1053q-174 -30 -174 -146q0 -72 49 -106.5t135 -34.5q107 0 194 75.5t87 180.5v90q-1 0 -7 -3t-12.5 -6t-20 -6.5t-28.5 -6.5q-155 -23 -223 -37zM352 1114q9 1 120.5 18.5t137.5 20.5q64 12 64 55q0 87 -57.5 136t-161.5 49q-97 0 -159 -43t-71 -129h-88
q14 119 102 181t216 62q149 0 228 -68.5t79 -207.5v-318q0 -34 3 -52t17.5 -32t42.5 -14h13v-70h-39q-65 0 -91.5 43t-29.5 117q-50 -81 -131 -120.5t-176 -39.5q-110 0 -181 52t-71 151q0 170 233 209z" />
    <glyph glyph-name="guillemotleft" unicode="&#xab;" horiz-adv-x="1232" 
d="M938 1196h135l-438 -479l438 -479h-135l-436 479zM557 1196h135l-438 -479l438 -479h-135l-438 479z" />
    <glyph glyph-name="logicalnot" unicode="&#xac;" horiz-adv-x="1292" 
d="M1133 647v-393h-91v295h-882v98h973z" />
    <glyph glyph-name="uni00AD" unicode="&#xad;" horiz-adv-x="808" 
d="M102 571v56h605v-56h-605z" />
    <glyph glyph-name="registered" unicode="&#xae;" horiz-adv-x="1734" 
d="M866 1380q-179 0 -330.5 -87t-241 -239.5t-89.5 -334.5q0 -109 33.5 -211t95 -183t143 -141.5t182 -93.5t207.5 -33q182 0 334.5 89.5t240 241.5t87.5 331q0 181 -89.5 333.5t-241.5 240t-331 87.5zM920 1010h-224v-281h224q155 0 155 141q0 140 -155 140zM866 1466
q151 0 289.5 -59t239.5 -159t161 -239t60 -292q0 -201 -100 -373t-273 -273.5t-377 -101.5q-151 0 -288.5 59t-238 158.5t-160.5 238.5t-60 292t60 292t160.5 239t238.5 159t288 59zM610 1090h312q108 0 175.5 -57.5t67.5 -162.5q0 -70 -35 -125t-98 -79l162 -295h-94
l-150 276h-254v-276h-86v719z" />
    <glyph glyph-name="macron" unicode="&#xaf;" horiz-adv-x="724" 
d="M119 1272v78h487v-78h-487z" />
    <glyph glyph-name="degree" unicode="&#xb0;" horiz-adv-x="806" 
d="M403 1389q-86 0 -144 -60t-58 -145t58 -143t144 -58t144.5 57.5t58.5 143.5q0 85 -58.5 145t-144.5 60zM403 1466q123 0 203 -80t80 -202q0 -120 -82.5 -199.5t-200.5 -79.5q-120 0 -202 80.5t-82 198.5q0 122 81.5 202t202.5 80z" />
    <glyph glyph-name="plusminus" unicode="&#xb1;" horiz-adv-x="1130" 
d="M516 1186h100v-375h357v-98h-357v-375h-100v375h-356v98h356v375zM160 0v96h813v-96h-813z" />
    <glyph glyph-name="twosuperior" unicode="&#xb2;" horiz-adv-x="731" 
d="M375 1653q120 0 195 -59.5t75 -178.5q0 -40 -14 -76t-31.5 -61t-53 -54t-58.5 -44t-68 -43l-50 -30t-45 -29t-44.5 -32.5t-36 -33.5t-32 -39.5t-19.5 -43t-11 -50.5h471v-80h-575v32q-1 60 16 112t41 87t65 69.5t73 54t81 46.5q44 25 63 36t52.5 34.5t48 41.5t27 45.5
t12.5 57.5q0 81 -49.5 119.5t-132.5 38.5q-176 0 -205 -195h-90q14 128 90.5 201.5t204.5 73.5z" />
    <glyph glyph-name="threesuperior" unicode="&#xb3;" horiz-adv-x="757" 
d="M383 1653q116 0 191 -51t75 -158q0 -67 -37 -117t-100 -74q77 -21 122.5 -74t45.5 -132q0 -122 -84.5 -185t-212.5 -63q-132 0 -213 59t-92 184h88q11 -91 67.5 -129.5t149.5 -38.5q94 0 150.5 42t56.5 133q0 81 -57.5 124.5t-145.5 43.5h-63v69h61q79 0 127.5 39
t48.5 115q0 135 -180 135q-172 0 -186 -148h-89q7 108 85.5 167t191.5 59z" />
    <glyph glyph-name="acute" unicode="&#xb4;" horiz-adv-x="507" 
d="M276 1470h113l-180 -251h-90z" />
    <glyph glyph-name="paragraph" unicode="&#xb6;" horiz-adv-x="1196" 
d="M541 1434h495v-1434h-102v1331h-176v-1331h-105v621h-127q-173 0 -290 113t-117 292q0 183 121.5 295.5t300.5 112.5z" />
    <glyph glyph-name="periodcentered" unicode="&#xb7;" horiz-adv-x="477" 
d="M160 633v168h157v-168h-157z" />
    <glyph glyph-name="cedilla" unicode="&#xb8;" horiz-adv-x="610" 
d="M330 0l-37 -119q87 -5 143 -45.5t56 -122.5q0 -90 -64.5 -135t-153.5 -45q-76 0 -155 47v82q72 -55 153 -55q57 0 97.5 27.5t40.5 82.5q0 40 -27.5 65t-61 32.5t-75.5 7.5h-39l53 178h70z" />
    <glyph glyph-name="onesuperior" unicode="&#xb9;" horiz-adv-x="483" 
d="M295 1651h70v-850h-86v618h-201v68q40 0 69.5 3t59 13t47.5 27.5t29.5 48t11.5 72.5z" />
    <glyph glyph-name="ordmasculine" unicode="&#xba;" horiz-adv-x="954" 
d="M477 1386q-60 0 -107 -18.5t-76.5 -48t-48.5 -69.5t-26.5 -80.5t-7.5 -84.5t7.5 -84.5t26.5 -80.5t48.5 -69.5t76.5 -48t107 -18.5q75 0 129 27.5t82 73.5t40.5 95.5t12.5 104.5q0 56 -13 105.5t-41 95.5t-82 73t-128 27zM477 1466q75 0 136 -21.5t102 -58t68.5 -86
t40 -103.5t12.5 -112t-12.5 -112.5t-41 -103.5t-69.5 -85t-101.5 -57.5t-134.5 -21.5q-92 0 -162.5 32.5t-112 87.5t-62.5 121t-21 139q0 74 21 140t62.5 121t112 87.5t162.5 32.5z" />
    <glyph glyph-name="guillemotright" unicode="&#xbb;" horiz-adv-x="1232" 
d="M543 1196h133l438 -479l-438 -479h-133l436 479zM160 1196h135l438 -479l-438 -479h-135l438 479z" />
    <glyph glyph-name="onequarter" unicode="&#xbc;" horiz-adv-x="1482" 
d="M901 254h309v461zM807 178v58l393 587h96v-569h129v-76h-129v-209h-86v209h-403zM295 1464h70v-850h-86v619h-201v67q40 0 69.5 3t59 13t47.5 27.5t29.5 48t11.5 72.5zM160 0l975 1434h100l-973 -1434h-102z" />
    <glyph glyph-name="onehalf" unicode="&#xbd;" horiz-adv-x="1644" 
d="M295 1464h70v-850h-86v619h-201v67q40 0 69.5 3t59 13t47.5 27.5t29.5 48t11.5 72.5zM160 0l975 1434h100l-973 -1434h-102zM1288 823q120 0 195.5 -59.5t75.5 -177.5q0 -40 -14 -76.5t-31.5 -61t-53.5 -53.5t-59 -44.5t-68 -43.5q-47 -28 -69.5 -42t-59.5 -41.5t-55 -50
t-34 -55.5t-19 -69h471v-80h-576v33q-1 60 16 112t41 87t65.5 69.5t73 54t81.5 46.5q44 24 63.5 35.5t52 35t47 41.5t27 45.5t12.5 57.5q0 81 -49.5 119t-132.5 38q-176 0 -205 -194h-90q14 128 90.5 201t204.5 73z" />
    <glyph glyph-name="threequarters" unicode="&#xbe;" horiz-adv-x="1757" 
d="M1176 254h309v461zM1081 178v58l394 587h96v-569h129v-76h-129v-209h-86v209h-404zM383 1466q116 0 191 -51t75 -158q0 -67 -37 -116.5t-100 -73.5q77 -21 122.5 -74.5t45.5 -132.5q0 -122 -84.5 -185t-212.5 -63q-131 0 -212 59.5t-93 184.5h88q11 -91 67.5 -129.5
t149.5 -38.5q94 0 150.5 41.5t56.5 132.5q0 81 -57.5 124.5t-145.5 43.5h-63v70h61q79 0 127.5 38.5t48.5 114.5q0 73 -50.5 104.5t-129.5 31.5q-172 0 -186 -148h-89q7 108 85.5 166.5t191.5 58.5zM434 0l975 1434h100l-972 -1434h-103z" />
    <glyph glyph-name="questiondown" unicode="&#xbf;" horiz-adv-x="1091" 
d="M637 1085v-165h-158v165h158zM604 711v-45q0 -117 -38.5 -192.5t-127.5 -145.5l-27 -21q-46 -35 -67.5 -53.5t-52.5 -50.5t-45 -59t-24.5 -67t-10.5 -87q0 -127 92 -203t221 -76q164 0 253.5 93t109.5 251h106q-24 -206 -144 -320t-327 -114q-114 0 -210 44t-155 129
t-59 194q0 40 6.5 75t14.5 61t28 55t32.5 45.5t43 43t45 38t53.5 41t54 40.5q72 55 102.5 119.5t30.5 157.5v47h96z" />
    <glyph glyph-name="Agrave" unicode="&#xc0;" horiz-adv-x="1308" 
d="M360 557h586l-293 739zM141 0h-121l574 1434h119l573 -1434h-121l-184 463h-655zM606 1597l-180 252h111l159 -252h-90z" />
    <glyph glyph-name="Aacute" unicode="&#xc1;" horiz-adv-x="1308" 
d="M360 557h586l-293 739zM141 0h-121l574 1434h119l573 -1434h-121l-184 463h-655zM612 1597l158 252h113l-181 -252h-90z" />
    <glyph glyph-name="Acircumflex" unicode="&#xc2;" horiz-adv-x="1308" 
d="M360 557h586l-293 739zM141 0h-121l574 1434h119l573 -1434h-121l-184 463h-655zM432 1597l178 252h88l176 -252h-90l-131 185l-131 -185h-90z" />
    <glyph glyph-name="Atilde" unicode="&#xc3;" horiz-adv-x="1308" 
d="M360 557h586l-293 739zM141 0h-121l574 1434h119l573 -1434h-121l-184 463h-655zM516 1767q38 0 78.5 -18t69.5 -39t65.5 -39t67.5 -18q42 0 62 29.5t18 72.5h71q5 -73 -35 -125.5t-112 -52.5q-37 0 -77.5 18t-70 39.5t-66.5 39.5t-67 18q-45 0 -65.5 -29.5t-20.5 -77.5
h-74q2 80 41.5 131t114.5 51z" />
    <glyph glyph-name="Adieresis" unicode="&#xc4;" horiz-adv-x="1308" 
d="M360 557h586l-293 739zM141 0h-121l574 1434h119l573 -1434h-121l-184 463h-655zM565 1622h-108v166h108v-166zM850 1622h-107v166h107v-166z" />
    <glyph glyph-name="Aring" unicode="&#xc5;" horiz-adv-x="1308" 
d="M360 557h586l-293 739zM655 1825q-42 0 -66 -24t-24 -66q0 -41 24.5 -65.5t65.5 -24.5t65.5 25t24.5 65q0 41 -24.5 65.5t-65.5 24.5zM141 0h-121l574 1434h119l573 -1434h-121l-184 463h-655zM655 1894q71 0 116.5 -44.5t45.5 -114.5q0 -69 -45.5 -113.5t-114.5 -44.5
q-71 0 -117 44t-46 114t45.5 114.5t115.5 44.5z" />
    <glyph glyph-name="AE" unicode="&#xc6;" horiz-adv-x="2048" 
d="M1032 1290l-500 -733h500v733zM997 1434h932v-97h-784v-567h719v-94h-719v-580h784v-96h-897v463h-559l-315 -463h-135z" />
    <glyph glyph-name="Ccedilla" unicode="&#xc7;" horiz-adv-x="1536" 
d="M707 -178l45 147q-150 7 -275 70t-207 165t-127 234.5t-45 278.5q0 150 47 285t133 238t217 163.5t289 60.5q255 0 433 -142.5t219 -375.5h-117q-35 191 -181 305.5t-356 114.5q-131 0 -240.5 -54.5t-180.5 -145.5t-109.5 -207t-38.5 -242t38.5 -242t109.5 -207
t180.5 -145.5t240.5 -54.5q210 0 356 114t181 305h117q-40 -225 -207 -366.5t-410 -151.5l-26 -88q87 -5 142.5 -45.5t55.5 -122.5q0 -90 -64 -135t-153 -45q-77 0 -156 47v82q72 -55 154 -55q57 0 97 27.5t40 82.5q0 40 -27.5 65t-61 32.5t-75.5 7.5h-38z" />
    <glyph glyph-name="Egrave" unicode="&#xc8;" horiz-adv-x="1175" 
d="M160 1434h897v-97h-785v-567h719v-94h-719v-580h785v-96h-897v1434zM473 1849h111l159 -252h-90z" />
    <glyph glyph-name="Eacute" unicode="&#xc9;" horiz-adv-x="1175" 
d="M160 1434h897v-97h-785v-567h719v-94h-719v-580h785v-96h-897v1434zM631 1849h112l-180 -252h-90z" />
    <glyph glyph-name="Ecircumflex" unicode="&#xca;" horiz-adv-x="1175" 
d="M160 1434h897v-97h-785v-567h719v-94h-719v-580h785v-96h-897v1434zM565 1849h88l176 -252h-90l-131 185l-131 -185h-90z" />
    <glyph glyph-name="Edieresis" unicode="&#xcb;" horiz-adv-x="1175" 
d="M160 1434h897v-97h-785v-567h719v-94h-719v-580h785v-96h-897v1434zM698 1622v166h107v-166h-107zM412 1622v166h108v-166h-108z" />
    <glyph glyph-name="Igrave" unicode="&#xcc;" horiz-adv-x="432" 
d="M160 0v1434h112v-1434h-112zM-12 1849h110l160 -252h-90z" />
    <glyph glyph-name="Iacute" unicode="&#xcd;" horiz-adv-x="432" 
d="M160 0v1434h112v-1434h-112zM328 1849h112l-180 -252h-90z" />
    <glyph glyph-name="Icircumflex" unicode="&#xce;" horiz-adv-x="432" 
d="M160 0v1434h112v-1434h-112zM172 1849h88l176 -252h-90l-131 185l-131 -185h-90z" />
    <glyph glyph-name="Idieresis" unicode="&#xcf;" horiz-adv-x="432" 
d="M160 0v1434h112v-1434h-112zM305 1622v166h107v-166h-107zM18 1622v166h109v-166h-109z" />
    <glyph glyph-name="Eth" unicode="&#xd0;" horiz-adv-x="1400" 
d="M586 1337h-314v-581h285v-78h-285v-582h314q177 0 316 80t215.5 221.5t76.5 319.5t-76.5 319.5t-215.5 221t-316 79.5zM160 756v678h430q204 0 366.5 -91.5t254.5 -255.5t92 -370t-92 -370t-254.5 -255.5t-366.5 -91.5h-430v678h-90v78h90z" />
    <glyph glyph-name="Ntilde" unicode="&#xd1;" horiz-adv-x="1355" 
d="M1085 1434h113v-1434h-125l-801 1253v-1253h-112v1434h127l798 -1256v1256zM541 1767q48 0 98 -28.5t96.5 -57t85.5 -28.5q42 0 62 29.5t18 72.5h72q5 -73 -35.5 -125.5t-112.5 -52.5q-37 0 -77.5 18t-69.5 39.5t-66 39.5t-67 18q-45 0 -65.5 -29.5t-20.5 -77.5h-74
q2 80 41.5 131t114.5 51z" />
    <glyph glyph-name="Ograve" unicode="&#xd2;" horiz-adv-x="1570" 
d="M786 1366q-134 0 -244 -54t-180.5 -145t-108.5 -207t-38 -243t38 -242.5t108.5 -206t180.5 -144.5t244 -54q133 0 243 54t180.5 144.5t108.5 206t38 242.5t-38 243t-108.5 207t-180.5 145t-243 54zM786 1464q158 0 289.5 -61t217.5 -164t133 -237.5t47 -284.5t-47 -284.5
t-133 -238t-217.5 -164.5t-289.5 -61q-159 0 -290.5 61t-217.5 164.5t-133 238t-47 284.5t47 284.5t133 237.5t217.5 164t290.5 61zM565 1849h111l160 -252h-91z" />
    <glyph glyph-name="Oacute" unicode="&#xd3;" horiz-adv-x="1570" 
d="M786 1366q-134 0 -244 -54t-180.5 -145t-108.5 -207t-38 -243t38 -242.5t108.5 -206t180.5 -144.5t244 -54q133 0 243 54t180.5 144.5t108.5 206t38 242.5t-38 243t-108.5 207t-180.5 145t-243 54zM786 1464q158 0 289.5 -61t217.5 -164t133 -237.5t47 -284.5t-47 -284.5
t-133 -238t-217.5 -164.5t-289.5 -61q-159 0 -290.5 61t-217.5 164.5t-133 238t-47 284.5t47 284.5t133 237.5t217.5 164t290.5 61zM897 1849h113l-181 -252h-90z" />
    <glyph glyph-name="Ocircumflex" unicode="&#xd4;" horiz-adv-x="1570" 
d="M786 1366q-134 0 -244 -54t-180.5 -145t-108.5 -207t-38 -243t38 -242.5t108.5 -206t180.5 -144.5t244 -54q133 0 243 54t180.5 144.5t108.5 206t38 242.5t-38 243t-108.5 207t-180.5 145t-243 54zM786 1464q158 0 289.5 -61t217.5 -164t133 -237.5t47 -284.5t-47 -284.5
t-133 -238t-217.5 -164.5t-289.5 -61q-159 0 -290.5 61t-217.5 164.5t-133 238t-47 284.5t47 284.5t133 237.5t217.5 164t290.5 61zM563 1597l178 252h88l177 -252h-91l-131 185l-131 -185h-90z" />
    <glyph glyph-name="Otilde" unicode="&#xd5;" horiz-adv-x="1570" 
d="M786 1366q-134 0 -244 -54t-180.5 -145t-108.5 -207t-38 -243t38 -242.5t108.5 -206t180.5 -144.5t244 -54q133 0 243 54t180.5 144.5t108.5 206t38 242.5t-38 243t-108.5 207t-180.5 145t-243 54zM786 1464q158 0 289.5 -61t217.5 -164t133 -237.5t47 -284.5t-47 -284.5
t-133 -238t-217.5 -164.5t-289.5 -61q-159 0 -290.5 61t-217.5 164.5t-133 238t-47 284.5t47 284.5t133 237.5t217.5 164t290.5 61zM647 1767q38 0 78.5 -18t69.5 -39t65.5 -39t67.5 -18q42 0 62 29.5t18 72.5h71q5 -73 -35 -125.5t-112 -52.5q-37 0 -77.5 18t-70 39.5
t-66.5 39.5t-67 18q-45 0 -65.5 -29.5t-20.5 -77.5h-73q2 80 41.5 131t113.5 51z" />
    <glyph glyph-name="Odieresis" unicode="&#xd6;" horiz-adv-x="1570" 
d="M786 1366q-134 0 -244 -54t-180.5 -145t-108.5 -207t-38 -243t38 -242.5t108.5 -206t180.5 -144.5t244 -54q133 0 243 54t180.5 144.5t108.5 206t38 242.5t-38 243t-108.5 207t-180.5 145t-243 54zM786 1464q158 0 289.5 -61t217.5 -164t133 -237.5t47 -284.5t-47 -284.5
t-133 -238t-217.5 -164.5t-289.5 -61q-159 0 -290.5 61t-217.5 164.5t-133 238t-47 284.5t47 284.5t133 237.5t217.5 164t290.5 61zM874 1622v166h107v-166h-107zM588 1622v166h108v-166h-108z" />
    <glyph glyph-name="multiply" unicode="&#xd7;" horiz-adv-x="964" 
d="M737 918l70 -70l-254 -254l254 -254l-70 -70l-254 254l-254 -254l-69 70l254 254l-254 254l69 70l254 -254z" />
    <glyph glyph-name="Oslash" unicode="&#xd8;" horiz-adv-x="1570" 
d="M379 248l756 993q-144 125 -349 125q-134 0 -244 -54t-180.5 -145t-108.5 -207t-38 -243q0 -133 42.5 -256t121.5 -213zM1192 1186l-756 -993q146 -123 350 -123q133 0 243 54t180.5 144.5t108.5 206t38 242.5q0 134 -42.5 256.5t-121.5 212.5zM266 -31h-98l143 189
q-102 105 -157.5 251t-55.5 308q0 150 47 284.5t133 237.5t217.5 164t290.5 61q240 0 414 -137l105 137h98l-143 -188q102 -104 157.5 -250t55.5 -309q0 -150 -47 -284.5t-133 -238t-217.5 -164.5t-289.5 -61q-241 0 -415 137z" />
    <glyph glyph-name="Ugrave" unicode="&#xd9;" horiz-adv-x="1296" 
d="M1047 1434h110v-969q0 -217 -144.5 -356.5t-363.5 -139.5q-142 0 -258 60.5t-184 174.5t-68 261v969h113v-957q0 -183 110 -296t287 -113q179 0 288.5 115.5t109.5 293.5v957zM512 1849h111l159 -252h-90z" />
    <glyph glyph-name="Uacute" unicode="&#xda;" horiz-adv-x="1296" 
d="M1047 1434h110v-969q0 -217 -144.5 -356.5t-363.5 -139.5q-142 0 -258 60.5t-184 174.5t-68 261v969h113v-957q0 -183 110 -296t287 -113q179 0 288.5 115.5t109.5 293.5v957zM670 1849h112l-180 -252h-90z" />
    <glyph glyph-name="Ucircumflex" unicode="&#xdb;" horiz-adv-x="1296" 
d="M1047 1434h110v-969q0 -217 -144.5 -356.5t-363.5 -139.5q-142 0 -258 60.5t-184 174.5t-68 261v969h113v-957q0 -183 110 -296t287 -113q179 0 288.5 115.5t109.5 293.5v957zM604 1849h88l176 -252h-90l-131 185l-131 -185h-90z" />
    <glyph glyph-name="Udieresis" unicode="&#xdc;" horiz-adv-x="1296" 
d="M1047 1434h110v-969q0 -217 -144.5 -356.5t-363.5 -139.5q-142 0 -258 60.5t-184 174.5t-68 261v969h113v-957q0 -183 110 -296t287 -113q179 0 288.5 115.5t109.5 293.5v957zM737 1622v166h107v-166h-107zM451 1622v166h108v-166h-108z" />
    <glyph glyph-name="Yacute" unicode="&#xdd;" horiz-adv-x="1220" 
d="M1071 1434h127l-532 -914v-520h-113v520l-533 914h127l461 -795zM633 1849h112l-180 -252h-90z" />
    <glyph glyph-name="Thorn" unicode="&#xde;" horiz-adv-x="1216" 
d="M680 1030h-408v-627h408q149 0 247.5 82t98.5 232q0 148 -96 230.5t-250 82.5zM272 1124h402q208 0 336.5 -104.5t128.5 -302.5q0 -103 -36.5 -182.5t-101 -128t-147.5 -73t-180 -24.5h-402v-309h-112v1434h112v-310z" />
    <glyph glyph-name="germandbls" unicode="&#xdf;" horiz-adv-x="1177" 
d="M592 1464q181 0 299.5 -96t118.5 -270q0 -121 -65.5 -205.5t-182.5 -120.5q152 -34 244 -131.5t92 -247.5q0 -105 -36.5 -187t-101 -133t-148 -77.5t-181.5 -26.5q-130 0 -228 49v95q93 -52 215 -52q164 0 265.5 88t101.5 250q0 82 -34 146.5t-92.5 103t-131 58.5
t-154.5 20h-106v86h102q146 0 240 70t94 209q0 134 -84.5 207t-226.5 73q-153 0 -238.5 -104t-85.5 -264v-1004h-108v991q0 208 113 340.5t319 132.5z" />
    <glyph glyph-name="agrave" unicode="&#xe0;" horiz-adv-x="1189" 
d="M453 489q-44 -8 -78 -17t-71 -26.5t-61.5 -39.5t-40.5 -57t-16 -79q0 -211 283 -211q101 0 196 41.5t160 122t68 180.5v177q-18 -19 -84 -29zM418 571q317 50 385 62q90 12 90 80q0 131 -82 205.5t-244 74.5q-143 0 -242 -68t-112 -194h-109q15 116 81 197.5t162.5 119
t217.5 37.5q206 0 319 -100t113 -301v-473q0 -79 18 -119.5t75 -40.5h18v-82h-47q-47 0 -79.5 18.5t-49.5 52.5t-24.5 73t-8.5 90q-63 -107 -186.5 -170.5t-253.5 -63.5q-172 0 -275.5 73t-103.5 222q0 72 27.5 127.5t76.5 91t106.5 56.5t127.5 32zM522 1219l-180 251h111
l159 -251h-90z" />
    <glyph glyph-name="aacute" unicode="&#xe1;" horiz-adv-x="1189" 
d="M453 489q-44 -8 -78 -17t-71 -26.5t-61.5 -39.5t-40.5 -57t-16 -79q0 -211 283 -211q101 0 196 41.5t160 122t68 180.5v177q-18 -19 -84 -29zM418 571q317 50 385 62q90 12 90 80q0 131 -82 205.5t-244 74.5q-143 0 -242 -68t-112 -194h-109q15 116 81 197.5t162.5 119
t217.5 37.5q206 0 319 -100t113 -301v-473q0 -79 18 -119.5t75 -40.5h18v-82h-47q-47 0 -79.5 18.5t-49.5 52.5t-24.5 73t-8.5 90q-63 -107 -186.5 -170.5t-253.5 -63.5q-172 0 -275.5 73t-103.5 222q0 72 27.5 127.5t76.5 91t106.5 56.5t127.5 32zM518 1219l158 251h112
l-180 -251h-90z" />
    <glyph glyph-name="acircumflex" unicode="&#xe2;" horiz-adv-x="1189" 
d="M453 489q-44 -8 -78 -17t-71 -26.5t-61.5 -39.5t-40.5 -57t-16 -79q0 -211 283 -211q101 0 196 41.5t160 122t68 180.5v177q-18 -19 -84 -29zM418 571q317 50 385 62q90 12 90 80q0 131 -82 205.5t-244 74.5q-143 0 -242 -68t-112 -194h-109q15 116 81 197.5t162.5 119
t217.5 37.5q206 0 319 -100t113 -301v-473q0 -79 18 -119.5t75 -40.5h18v-82h-47q-47 0 -79.5 18.5t-49.5 52.5t-24.5 73t-8.5 90q-63 -107 -186.5 -170.5t-253.5 -63.5q-172 0 -275.5 73t-103.5 222q0 72 27.5 127.5t76.5 91t106.5 56.5t127.5 32zM373 1219l178 251h88
l176 -251h-90l-131 184l-131 -184h-90z" />
    <glyph glyph-name="atilde" unicode="&#xe3;" horiz-adv-x="1189" 
d="M453 489q-44 -8 -78 -17t-71 -26.5t-61.5 -39.5t-40.5 -57t-16 -79q0 -211 283 -211q101 0 196 41.5t160 122t68 180.5v177q-18 -19 -84 -29zM418 571q317 50 385 62q90 12 90 80q0 131 -82 205.5t-244 74.5q-143 0 -242 -68t-112 -194h-109q15 116 81 197.5t162.5 119
t217.5 37.5q206 0 319 -100t113 -301v-473q0 -79 18 -119.5t75 -40.5h18v-82h-47q-47 0 -79.5 18.5t-49.5 52.5t-24.5 73t-8.5 90q-63 -107 -186.5 -170.5t-253.5 -63.5q-172 0 -275.5 73t-103.5 222q0 72 27.5 127.5t76.5 91t106.5 56.5t127.5 32zM457 1389q38 0 78 -18
t69 -39.5t65.5 -39.5t67.5 -18q42 0 62 29.5t18 72.5h72q5 -73 -35.5 -125.5t-112.5 -52.5q-37 0 -77.5 18t-69.5 39.5t-66 39.5t-67 18q-45 0 -65.5 -29.5t-20.5 -77.5h-74q2 80 42 131.5t114 51.5z" />
    <glyph glyph-name="adieresis" unicode="&#xe4;" horiz-adv-x="1189" 
d="M453 489q-44 -8 -78 -17t-71 -26.5t-61.5 -39.5t-40.5 -57t-16 -79q0 -211 283 -211q101 0 196 41.5t160 122t68 180.5v177q-18 -19 -84 -29zM418 571q317 50 385 62q90 12 90 80q0 131 -82 205.5t-244 74.5q-143 0 -242 -68t-112 -194h-109q15 116 81 197.5t162.5 119
t217.5 37.5q206 0 319 -100t113 -301v-473q0 -79 18 -119.5t75 -40.5h18v-82h-47q-47 0 -79.5 18.5t-49.5 52.5t-24.5 73t-8.5 90q-63 -107 -186.5 -170.5t-253.5 -63.5q-172 0 -275.5 73t-103.5 222q0 72 27.5 127.5t76.5 91t106.5 56.5t127.5 32zM506 1243h-109v166h109
v-166zM791 1243h-107v166h107v-166z" />
    <glyph glyph-name="aring" unicode="&#xe5;" horiz-adv-x="1189" 
d="M453 489q-44 -8 -78 -17t-71 -26.5t-61.5 -39.5t-40.5 -57t-16 -79q0 -211 283 -211q101 0 196 41.5t160 122t68 180.5v177q-18 -19 -84 -29zM596 1446q-42 0 -66 -24t-24 -66q0 -41 24.5 -65.5t65.5 -24.5t65.5 25t24.5 65q0 41 -24.5 65.5t-65.5 24.5zM418 571
q317 50 385 62q90 12 90 80q0 131 -82 205.5t-244 74.5q-143 0 -242 -68t-112 -194h-109q15 116 81 197.5t162.5 119t217.5 37.5q206 0 319 -100t113 -301v-473q0 -79 18 -119.5t75 -40.5h18v-82h-47q-47 0 -79.5 18.5t-49.5 52.5t-24.5 73t-8.5 90q-63 -107 -186.5 -170.5
t-253.5 -63.5q-172 0 -275.5 73t-103.5 222q0 72 27.5 127.5t76.5 91t106.5 56.5t127.5 32zM596 1516q71 0 116.5 -45t45.5 -115q0 -69 -45.5 -113.5t-114.5 -44.5q-71 0 -117.5 44t-46.5 114t46 115t116 45z" />
    <glyph glyph-name="ae" unicode="&#xe6;" horiz-adv-x="1984" 
d="M885 571q-29 -12 -76 -20l-356 -62q-44 -8 -78 -17t-71 -26.5t-61.5 -39.5t-40.5 -57t-16 -79q0 -211 283 -211q93 0 179.5 33t157 105.5t97.5 173.5q-20 70 -20 157q0 29 2 43zM1401 997q-169 0 -279.5 -115.5t-128.5 -279.5h815q-19 170 -129.5 282.5t-277.5 112.5z
M1401 1085q137 0 248.5 -65t179.5 -176q96 -153 84 -334h-924q2 -124 56 -227t153 -164.5t223 -61.5t221.5 63.5t147.5 176.5h111q-53 -151 -184 -239.5t-294 -88.5q-160 0 -286.5 78.5t-192.5 212.5q-36 -77 -94.5 -135.5t-126 -91t-134 -48.5t-130.5 -16q-172 0 -275.5 73
t-103.5 222q0 72 27.5 127.5t76.5 91t106.5 56.5t127.5 32q317 50 385 62q90 12 90 80q0 131 -82 205.5t-244 74.5q-143 0 -242 -68t-112 -194h-109q15 116 81 197.5t162.5 119t217.5 37.5q328 0 408 -237q68 109 179 173t249 64z" />
    <glyph glyph-name="ccedilla" unicode="&#xe7;" horiz-adv-x="1167" 
d="M485 -178l45 151q-203 28 -331.5 183t-128.5 372q0 152 67 279t190 202.5t277 75.5q183 0 315.5 -102.5t178.5 -277.5h-109q-39 129 -144 209.5t-241 80.5q-128 0 -227.5 -65.5t-151 -171t-51.5 -230.5q0 -128 52.5 -234.5t151.5 -170.5t226 -64q137 0 241 80t144 211
h109q-47 -180 -180 -280.5t-320 -100.5l-27 -88q87 -5 143 -45.5t56 -122.5q0 -90 -64 -135t-153 -45q-77 0 -156 47v82q72 -55 154 -55q57 0 97 27.5t40 82.5q0 40 -27.5 65t-61 32.5t-75.5 7.5h-39z" />
    <glyph glyph-name="egrave" unicode="&#xe8;" horiz-adv-x="1171" 
d="M588 997q-169 0 -279.5 -115.5t-128.5 -279.5h815q-21 170 -130.5 282.5t-276.5 112.5zM588 1085q135 0 246.5 -65t179.5 -176q98 -154 86 -334h-924q2 -124 56 -227t153 -164.5t223 -61.5q123 0 221.5 64t147.5 176h110q-55 -151 -185 -239.5t-292 -88.5q-154 0 -278 73
t-193 200.5t-69 285.5q0 148 63.5 274.5t183.5 204.5t271 78zM545 1219l-180 251h110l160 -251h-90z" />
    <glyph glyph-name="eacute" unicode="&#xe9;" horiz-adv-x="1171" 
d="M588 997q-169 0 -279.5 -115.5t-128.5 -279.5h815q-21 170 -130.5 282.5t-276.5 112.5zM588 1085q135 0 246.5 -65t179.5 -176q98 -154 86 -334h-924q2 -124 56 -227t153 -164.5t223 -61.5q123 0 221.5 64t147.5 176h110q-55 -151 -185 -239.5t-292 -88.5q-154 0 -278 73
t-193 200.5t-69 285.5q0 148 63.5 274.5t183.5 204.5t271 78zM541 1219l157 251h113l-180 -251h-90z" />
    <glyph glyph-name="ecircumflex" unicode="&#xea;" horiz-adv-x="1171" 
d="M588 997q-169 0 -279.5 -115.5t-128.5 -279.5h815q-21 170 -130.5 282.5t-276.5 112.5zM588 1085q135 0 246.5 -65t179.5 -176q98 -154 86 -334h-924q2 -124 56 -227t153 -164.5t223 -61.5q123 0 221.5 64t147.5 176h110q-55 -151 -185 -239.5t-292 -88.5q-154 0 -278 73
t-193 200.5t-69 285.5q0 148 63.5 274.5t183.5 204.5t271 78zM365 1219l178 251h88l176 -251h-90l-131 184l-131 -184h-90z" />
    <glyph glyph-name="edieresis" unicode="&#xeb;" horiz-adv-x="1171" 
d="M588 997q-169 0 -279.5 -115.5t-128.5 -279.5h815q-21 170 -130.5 282.5t-276.5 112.5zM588 1085q135 0 246.5 -65t179.5 -176q98 -154 86 -334h-924q2 -124 56 -227t153 -164.5t223 -61.5q123 0 221.5 64t147.5 176h110q-55 -151 -185 -239.5t-292 -88.5q-154 0 -278 73
t-193 200.5t-69 285.5q0 148 63.5 274.5t183.5 204.5t271 78zM498 1243h-109v166h109v-166zM782 1243h-106v166h106v-166z" />
    <glyph glyph-name="igrave" unicode="&#xec;" horiz-adv-x="350" 
d="M121 0v1055h106v-1055h-106zM-53 1470h110l160 -251h-90z" />
    <glyph glyph-name="iacute" unicode="&#xed;" horiz-adv-x="350" 
d="M121 0v1055h106v-1055h-106zM291 1470h112l-180 -251h-90z" />
    <glyph glyph-name="icircumflex" unicode="&#xee;" horiz-adv-x="350" 
d="M121 0v1055h106v-1055h-106zM131 1470h88l176 -251h-90l-131 184l-131 -184h-90z" />
    <glyph glyph-name="idieresis" unicode="&#xef;" horiz-adv-x="350" 
d="M121 0v1055h106v-1055h-106zM264 1243v166h107v-166h-107zM-23 1243v166h109v-166h-109z" />
    <glyph glyph-name="eth" unicode="&#xf0;" horiz-adv-x="1212" 
d="M588 825q-175 0 -272 -109.5t-97 -283.5q0 -164 96 -268.5t256 -104.5q301 0 385 320q16 109 -26.5 212t-134.5 168.5t-207 65.5zM575 911q134 0 246 -72.5t166 -201.5q1 235 -89 404.5t-261 256.5l-168 -260l-59 39l159 252q-142 53 -323 53v91q209 0 377 -62l135 213
l59 -41l-129 -201q197 -95 303.5 -281t106.5 -450q0 -107 -15 -200.5t-52.5 -184t-95.5 -155t-150.5 -103.5t-211.5 -39q-207 0 -333.5 131t-126.5 344q0 207 125 337t337 130z" />
    <glyph glyph-name="ntilde" unicode="&#xf1;" horiz-adv-x="1079" 
d="M596 1085q178 0 281.5 -111.5t103.5 -285.5v-688h-107v680q0 139 -77.5 228t-218.5 89q-81 0 -148.5 -37.5t-111 -99t-67.5 -137t-24 -154.5v-569h-108v1055h90l12 -213q52 111 152 177t223 66zM401 1389q38 0 78.5 -18t69.5 -39.5t65.5 -39.5t67.5 -18q42 0 62 29.5
t18 72.5h72q5 -73 -35.5 -125.5t-112.5 -52.5q-37 0 -77.5 18t-69.5 39.5t-66 39.5t-67 18q-45 0 -66 -29.5t-21 -77.5h-73q2 80 41.5 131.5t113.5 51.5z" />
    <glyph glyph-name="ograve" unicode="&#xf2;" horiz-adv-x="1230" 
d="M614 995q-124 0 -225.5 -65t-157 -171.5t-55.5 -230.5t56 -231t157 -171.5t225 -64.5t226 66.5t157.5 173t55.5 227.5q0 122 -56.5 229t-158 172.5t-224.5 65.5zM614 1085q152 0 277.5 -74.5t196.5 -202t71 -280.5q0 -151 -69.5 -279t-195.5 -204t-280 -76
q-153 0 -278 74t-195.5 202t-70.5 283q0 154 70.5 281.5t195.5 201.5t278 74zM397 1470h111l160 -251h-90z" />
    <glyph glyph-name="oacute" unicode="&#xf3;" horiz-adv-x="1230" 
d="M614 995q-124 0 -225.5 -65t-157 -171.5t-55.5 -230.5t56 -231t157 -171.5t225 -64.5t226 66.5t157.5 173t55.5 227.5q0 122 -56.5 229t-158 172.5t-224.5 65.5zM614 1085q152 0 277.5 -74.5t196.5 -202t71 -280.5q0 -151 -69.5 -279t-195.5 -204t-280 -76
q-153 0 -278 74t-195.5 202t-70.5 283q0 154 70.5 281.5t195.5 201.5t278 74zM727 1470h113l-181 -251h-90z" />
    <glyph glyph-name="ocircumflex" unicode="&#xf4;" horiz-adv-x="1230" 
d="M614 995q-124 0 -225.5 -65t-157 -171.5t-55.5 -230.5t56 -231t157 -171.5t225 -64.5t226 66.5t157.5 173t55.5 227.5q0 122 -56.5 229t-158 172.5t-224.5 65.5zM614 1085q152 0 277.5 -74.5t196.5 -202t71 -280.5q0 -151 -69.5 -279t-195.5 -204t-280 -76
q-153 0 -278 74t-195.5 202t-70.5 283q0 154 70.5 281.5t195.5 201.5t278 74zM393 1219l178 251h88l177 -251h-91l-131 184l-131 -184h-90z" />
    <glyph glyph-name="otilde" unicode="&#xf5;" horiz-adv-x="1230" 
d="M614 995q-124 0 -225.5 -65t-157 -171.5t-55.5 -230.5t56 -231t157 -171.5t225 -64.5t226 66.5t157.5 173t55.5 227.5q0 122 -56.5 229t-158 172.5t-224.5 65.5zM614 1085q152 0 277.5 -74.5t196.5 -202t71 -280.5q0 -151 -69.5 -279t-195.5 -204t-280 -76
q-153 0 -278 74t-195.5 202t-70.5 283q0 154 70.5 281.5t195.5 201.5t278 74zM477 1389q38 0 78.5 -18t69.5 -39.5t65.5 -39.5t67.5 -18q42 0 62 29.5t18 72.5h71q5 -73 -35 -125.5t-112 -52.5q-47 0 -98 29t-98 57.5t-85 28.5q-45 0 -65.5 -29.5t-20.5 -77.5h-73
q2 80 41.5 131.5t113.5 51.5z" />
    <glyph glyph-name="odieresis" unicode="&#xf6;" horiz-adv-x="1230" 
d="M614 995q-124 0 -225.5 -65t-157 -171.5t-55.5 -230.5t56 -231t157 -171.5t225 -64.5t226 66.5t157.5 173t55.5 227.5q0 122 -56.5 229t-158 172.5t-224.5 65.5zM614 1085q152 0 277.5 -74.5t196.5 -202t71 -280.5q0 -151 -69.5 -279t-195.5 -204t-280 -76
q-153 0 -278 74t-195.5 202t-70.5 283q0 154 70.5 281.5t195.5 201.5t278 74zM705 1243v166h106v-166h-106zM418 1243v166h108v-166h-108z" />
    <glyph glyph-name="divide" unicode="&#xf7;" horiz-adv-x="1257" 
d="M627 1049q37 0 62.5 -25.5t25.5 -60.5q0 -37 -25.5 -63t-62.5 -26q-35 0 -60.5 26t-25.5 63q0 35 25.5 60.5t60.5 25.5zM160 647h936v-104h-936v104zM627 315q37 0 62.5 -25.5t25.5 -62.5q0 -35 -25.5 -60.5t-62.5 -25.5q-35 0 -60.5 25.5t-25.5 62.5q0 35 25.5 60.5
t60.5 25.5z" />
    <glyph glyph-name="oslash" unicode="&#xf8;" horiz-adv-x="1230" 
d="M309 190l551 725q-114 80 -246 80q-124 0 -225.5 -65t-157 -171.5t-55.5 -230.5q0 -96 35 -184t98 -154zM920 864l-551 -725q111 -78 245 -78q124 0 226 66.5t157.5 173t55.5 227.5q0 94 -35 181.5t-98 154.5zM989 1085h98l-106 -141q84 -76 131 -184.5t47 -231.5
q0 -151 -69.5 -279t-195.5 -204t-280 -76q-171 0 -305 92l-69 -92h-99l107 142q-84 76 -131 184t-47 233q0 154 70.5 281.5t195.5 201.5t278 74q172 0 306 -92z" />
    <glyph glyph-name="ugrave" unicode="&#xf9;" horiz-adv-x="1079" 
d="M854 1055h107v-1055h-91l-12 213q-52 -111 -151.5 -177.5t-221.5 -66.5q-178 0 -282.5 112t-104.5 286v688h109v-680q0 -139 77 -227.5t218 -88.5q107 0 189 64t122.5 160t40.5 202v570zM315 1470h111l160 -251h-90z" />
    <glyph glyph-name="uacute" unicode="&#xfa;" horiz-adv-x="1079" 
d="M854 1055h107v-1055h-91l-12 213q-52 -111 -151.5 -177.5t-221.5 -66.5q-178 0 -282.5 112t-104.5 286v688h109v-680q0 -139 77 -227.5t218 -88.5q107 0 189 64t122.5 160t40.5 202v570zM645 1470h113l-180 -251h-91z" />
    <glyph glyph-name="ucircumflex" unicode="&#xfb;" horiz-adv-x="1079" 
d="M854 1055h107v-1055h-91l-12 213q-52 -111 -151.5 -177.5t-221.5 -66.5q-178 0 -282.5 112t-104.5 286v688h109v-680q0 -139 77 -227.5t218 -88.5q107 0 189 64t122.5 160t40.5 202v570zM496 1470h88l176 -251h-90l-131 184l-131 -184h-91z" />
    <glyph glyph-name="udieresis" unicode="&#xfc;" horiz-adv-x="1079" 
d="M854 1055h107v-1055h-91l-12 213q-52 -111 -151.5 -177.5t-221.5 -66.5q-178 0 -282.5 112t-104.5 286v688h109v-680q0 -139 77 -227.5t218 -88.5q107 0 189 64t122.5 160t40.5 202v570zM629 1243v166h106v-166h-106zM342 1243v166h109v-166h-109z" />
    <glyph glyph-name="yacute" unicode="&#xfd;" horiz-adv-x="1036" 
d="M528 115l373 940h115l-514 -1274q-45 -119 -119.5 -176.5t-187.5 -57.5q-41 0 -72 7v88q54 -9 74 -9q72 0 122.5 42.5t75.5 105.5l88 219h-16l-444 1055h116zM633 1470h112l-180 -251h-90z" />
    <glyph glyph-name="thorn" unicode="&#xfe;" horiz-adv-x="1239" 
d="M653 59q129 0 224 64.5t141.5 169t46.5 233.5q0 126 -45 230t-140.5 170.5t-226.5 66.5q-97 0 -179 -36.5t-136.5 -100t-84.5 -148.5t-30 -182q0 -128 50.5 -233.5t150 -169.5t229.5 -64zM662 1085q120 0 217.5 -45t160.5 -122t97 -177.5t34 -214.5q0 -116 -35 -217.5
t-99.5 -177.5t-161 -120t-213.5 -44q-148 0 -263.5 72.5t-175.5 200.5v-650h-104v1870h104v-645q60 127 176 198.5t263 71.5z" />
    <glyph glyph-name="ydieresis" unicode="&#xff;" horiz-adv-x="1036" 
d="M528 115l373 940h115l-514 -1274q-45 -119 -119.5 -176.5t-187.5 -57.5q-41 0 -72 7v88q54 -9 74 -9q72 0 122.5 42.5t75.5 105.5l88 219h-16l-444 1055h116zM608 1243v166h107v-166h-107zM322 1243v166h108v-166h-108z" />
    <glyph glyph-name="Amacron" unicode="&#x100;" horiz-adv-x="1308" 
d="M360 557h586l-293 739zM141 0h-121l574 1434h119l573 -1434h-121l-184 463h-655zM899 1651h-487v78h487v-78z" />
    <glyph glyph-name="amacron" unicode="&#x101;" horiz-adv-x="1189" 
d="M453 489q-44 -8 -78 -17t-71 -26.5t-61.5 -39.5t-40.5 -57t-16 -79q0 -211 283 -211q101 0 196 41.5t160 122t68 180.5v177q-18 -19 -84 -29zM418 571q317 50 385 62q90 12 90 80q0 131 -82 205.5t-244 74.5q-143 0 -242 -68t-112 -194h-109q15 116 81 197.5t162.5 119
t217.5 37.5q206 0 319 -100t113 -301v-473q0 -79 18 -119.5t75 -40.5h18v-82h-47q-47 0 -79.5 18.5t-49.5 52.5t-24.5 73t-8.5 90q-63 -107 -186.5 -170.5t-253.5 -63.5q-172 0 -275.5 73t-103.5 222q0 72 27.5 127.5t76.5 91t106.5 56.5t127.5 32zM840 1272h-488v78h488
v-78z" />
    <glyph glyph-name="Abreve" unicode="&#x102;" horiz-adv-x="1308" 
d="M360 557h586l-293 739zM141 0h-121l574 1434h119l573 -1434h-121l-184 463h-655zM655 1657q80 0 128.5 47t60.5 127h78q-14 -116 -83 -185t-184 -69t-182.5 68.5t-83.5 185.5h78q11 -80 59.5 -127t128.5 -47z" />
    <glyph glyph-name="abreve" unicode="&#x103;" horiz-adv-x="1189" 
d="M453 489q-44 -8 -78 -17t-71 -26.5t-61.5 -39.5t-40.5 -57t-16 -79q0 -211 283 -211q101 0 196 41.5t160 122t68 180.5v177q-18 -19 -84 -29zM418 571q317 50 385 62q90 12 90 80q0 131 -82 205.5t-244 74.5q-143 0 -242 -68t-112 -194h-109q15 116 81 197.5t162.5 119
t217.5 37.5q206 0 319 -100t113 -301v-473q0 -79 18 -119.5t75 -40.5h18v-82h-47q-47 0 -79.5 18.5t-49.5 52.5t-24.5 73t-8.5 90q-63 -107 -186.5 -170.5t-253.5 -63.5q-172 0 -275.5 73t-103.5 222q0 72 27.5 127.5t76.5 91t106.5 56.5t127.5 32zM596 1278
q79 0 127.5 46.5t60.5 127.5h78q-14 -116 -82.5 -185t-183.5 -69t-182.5 68.5t-83.5 185.5h78q11 -80 59.5 -127t128.5 -47z" />
    <glyph glyph-name="Aogonek" unicode="&#x104;" horiz-adv-x="1308" 
d="M360 557h586l-293 739zM1212 0h-47l-184 463h-655l-185 -463h-121l574 1434h119l573 -1434q-79 -56 -115 -107t-36 -114q0 -38 25 -63t65 -25q47 0 100 39l35 -64q-77 -53 -148 -53q-74 0 -119.5 40.5t-45.5 115.5q0 122 165 231z" />
    <glyph glyph-name="aogonek" unicode="&#x105;" horiz-adv-x="1189" 
d="M453 489q-44 -8 -78 -17t-71 -26.5t-61.5 -39.5t-40.5 -57t-16 -79q0 -211 283 -211q101 0 196 41.5t160 122t68 180.5v177q-18 -19 -84 -29zM963 2q-60 53 -64 201q-63 -107 -186.5 -170.5t-253.5 -63.5q-172 0 -275.5 73t-103.5 222q0 72 27.5 127.5t76.5 91
t106.5 56.5t127.5 32q317 50 385 62q90 12 90 80q0 131 -82 205.5t-244 74.5q-143 0 -242 -68t-112 -194h-109q15 116 81 197.5t162.5 119t217.5 37.5q206 0 319 -100t113 -301v-473q0 -79 18 -119.5t75 -40.5h18v-82h-47q-36 0 -57 8q-63 -48 -92 -94.5t-29 -103.5
q0 -38 25 -63t65 -25q47 0 100 39l35 -64q-77 -53 -147 -53q-74 0 -120 40.5t-46 115.5q0 124 168 233z" />
    <glyph glyph-name="Cacute" unicode="&#x106;" horiz-adv-x="1536" 
d="M784 1464q255 0 433 -142.5t219 -375.5h-117q-35 191 -181 305.5t-356 114.5q-131 0 -240.5 -54.5t-180.5 -145.5t-109.5 -207t-38.5 -242t38.5 -242t109.5 -207t180.5 -145.5t240.5 -54.5q210 0 356 114t181 305h117q-41 -233 -219 -375.5t-433 -142.5q-127 0 -237 39.5
t-191.5 109t-140 163.5t-88 205t-29.5 231q0 150 47 285t133 238t217 163.5t289 60.5zM895 1849h113l-181 -252h-90z" />
    <glyph glyph-name="cacute" unicode="&#x107;" horiz-adv-x="1167" 
d="M604 1085q183 0 315.5 -102.5t178.5 -277.5h-109q-39 129 -144 209.5t-241 80.5q-128 0 -227.5 -65.5t-151 -171t-51.5 -230.5q0 -128 52.5 -234.5t151.5 -170.5t226 -64q137 0 241 80t144 211h109q-46 -177 -178.5 -279t-315.5 -102q-152 0 -274.5 74t-191 202
t-68.5 283q0 152 67 279t190 202.5t277 75.5zM723 1470h113l-181 -251h-90z" />
    <glyph glyph-name="Ccircumflex" unicode="&#x108;" horiz-adv-x="1536" 
d="M784 1464q255 0 433 -142.5t219 -375.5h-117q-35 191 -181 305.5t-356 114.5q-131 0 -240.5 -54.5t-180.5 -145.5t-109.5 -207t-38.5 -242t38.5 -242t109.5 -207t180.5 -145.5t240.5 -54.5q210 0 356 114t181 305h117q-41 -233 -219 -375.5t-433 -142.5q-127 0 -237 39.5
t-191.5 109t-140 163.5t-88 205t-29.5 231q0 150 47 285t133 238t217 163.5t289 60.5zM725 1849h88l176 -252h-90l-131 185l-131 -185h-90z" />
    <glyph glyph-name="ccircumflex" unicode="&#x109;" horiz-adv-x="1167" 
d="M604 1085q183 0 315.5 -102.5t178.5 -277.5h-109q-39 129 -144 209.5t-241 80.5q-128 0 -227.5 -65.5t-151 -171t-51.5 -230.5q0 -128 52.5 -234.5t151.5 -170.5t226 -64q137 0 241 80t144 211h109q-46 -177 -178.5 -279t-315.5 -102q-152 0 -274.5 74t-191 202
t-68.5 283q0 152 67 279t190 202.5t277 75.5zM541 1470h88l176 -251h-90l-131 184l-131 -184h-91z" />
    <glyph glyph-name="Cdotaccent" unicode="&#x10a;" horiz-adv-x="1536" 
d="M784 1464q255 0 433 -142.5t219 -375.5h-117q-35 191 -181 305.5t-356 114.5q-131 0 -240.5 -54.5t-180.5 -145.5t-109.5 -207t-38.5 -242t38.5 -242t109.5 -207t180.5 -145.5t240.5 -54.5q210 0 356 114t181 305h117q-41 -233 -219 -375.5t-433 -142.5q-127 0 -237 39.5
t-191.5 109t-140 163.5t-88 205t-29.5 231q0 150 47 285t133 238t217 163.5t289 60.5zM715 1620v166h108v-166h-108z" />
    <glyph glyph-name="cdotaccent" unicode="&#x10b;" horiz-adv-x="1167" 
d="M604 1085q183 0 315.5 -102.5t178.5 -277.5h-109q-39 129 -144 209.5t-241 80.5q-128 0 -227.5 -65.5t-151 -171t-51.5 -230.5q0 -128 52.5 -234.5t151.5 -170.5t226 -64q137 0 241 80t144 211h109q-46 -177 -178.5 -279t-315.5 -102q-152 0 -274.5 74t-191 202
t-68.5 283q0 152 67 279t190 202.5t277 75.5zM528 1241v166h109v-166h-109z" />
    <glyph glyph-name="Ccaron" unicode="&#x10c;" horiz-adv-x="1536" 
d="M784 1464q255 0 433 -142.5t219 -375.5h-117q-35 191 -181 305.5t-356 114.5q-131 0 -240.5 -54.5t-180.5 -145.5t-109.5 -207t-38.5 -242t38.5 -242t109.5 -207t180.5 -145.5t240.5 -54.5q210 0 356 114t181 305h117q-41 -233 -219 -375.5t-433 -142.5q-127 0 -237 39.5
t-191.5 109t-140 163.5t-88 205t-29.5 231q0 150 47 285t133 238t217 163.5t289 60.5zM899 1849h90l-176 -252h-88l-178 252h90l131 -182z" />
    <glyph glyph-name="ccaron" unicode="&#x10d;" horiz-adv-x="1167" 
d="M604 1085q183 0 315.5 -102.5t178.5 -277.5h-109q-39 129 -144 209.5t-241 80.5q-128 0 -227.5 -65.5t-151 -171t-51.5 -230.5q0 -128 52.5 -234.5t151.5 -170.5t226 -64q137 0 241 80t144 211h109q-46 -177 -178.5 -279t-315.5 -102q-152 0 -274.5 74t-191 202
t-68.5 283q0 152 67 279t190 202.5t277 75.5zM715 1470h90l-176 -251h-88l-179 251h91l131 -182z" />
    <glyph glyph-name="Dcaron" unicode="&#x10e;" horiz-adv-x="1400" 
d="M586 1337h-314v-1241h314q177 0 316 80t215.5 221.5t76.5 319.5t-76.5 319.5t-215.5 221t-316 79.5zM160 1434h430q204 0 366.5 -91.5t254.5 -255.5t92 -370t-92 -370t-254.5 -255.5t-366.5 -91.5h-430v1434zM700 1667l131 182h91l-177 -252h-88l-178 252h90z" />
    <glyph glyph-name="dcaron" unicode="&#x10f;" horiz-adv-x="1413" 
d="M588 995q-192 0 -303 -134t-111 -333q0 -126 45 -230t141 -170.5t228 -66.5q97 0 179 36.5t136.5 100t84.5 148.5t30 182q0 127 -50.5 232.5t-150 170t-229.5 64.5zM580 1085q148 0 263 -71.5t175 -198.5v619h104v-1434h-92l-10 240q-60 -128 -175.5 -199.5t-264.5 -71.5
q-159 0 -276.5 77.5t-175.5 203t-58 278.5q0 156 60 281.5t177.5 200.5t272.5 75zM1253 1165l47 269h113l-70 -269h-90z" />
    <glyph glyph-name="Dcroat" unicode="&#x110;" horiz-adv-x="1400" 
d="M586 1337h-314v-581h285v-78h-285v-582h314q177 0 316 80t215.5 221.5t76.5 319.5t-76.5 319.5t-215.5 221t-316 79.5zM160 756v678h430q204 0 366.5 -91.5t254.5 -255.5t92 -370t-92 -370t-254.5 -255.5t-366.5 -91.5h-430v678h-90v78h90z" />
    <glyph glyph-name="dcroat" unicode="&#x111;" horiz-adv-x="1241" 
d="M588 995q-192 0 -303 -134t-111 -333q0 -126 45 -230t141 -170.5t228 -66.5q97 0 179 36.5t136.5 100t84.5 148.5t30 182q0 127 -50.5 232.5t-150 170t-229.5 64.5zM580 1085q148 0 263 -71.5t175 -198.5v383h-293v78h293v158h104v-158h90v-78h-90v-1198h-92l-10 240
q-60 -128 -175.5 -199.5t-264.5 -71.5q-159 0 -276.5 77.5t-175.5 203t-58 278.5q0 156 60 281.5t177.5 200.5t272.5 75z" />
    <glyph glyph-name="Emacron" unicode="&#x112;" horiz-adv-x="1175" 
d="M160 1434h897v-97h-785v-567h719v-94h-719v-580h785v-96h-897v1434zM365 1651v78h487v-78h-487z" />
    <glyph glyph-name="emacron" unicode="&#x113;" horiz-adv-x="1171" 
d="M588 997q-169 0 -279.5 -115.5t-128.5 -279.5h815q-21 170 -130.5 282.5t-276.5 112.5zM588 1085q135 0 246.5 -65t179.5 -176q98 -154 86 -334h-924q2 -124 56 -227t153 -164.5t223 -61.5q123 0 221.5 64t147.5 176h110q-55 -151 -185 -239.5t-292 -88.5q-154 0 -278 73
t-193 200.5t-69 285.5q0 148 63.5 274.5t183.5 204.5t271 78zM829 1272h-487v78h487v-78z" />
    <glyph glyph-name="Ebreve" unicode="&#x114;" horiz-adv-x="1175" 
d="M160 1434h897v-97h-785v-567h719v-94h-719v-580h785v-96h-897v1434zM608 1657q80 0 128.5 47t60.5 127h77q-14 -116 -82.5 -185t-183.5 -69t-182.5 68.5t-83.5 185.5h78q11 -80 59.5 -127t128.5 -47z" />
    <glyph glyph-name="ebreve" unicode="&#x115;" horiz-adv-x="1171" 
d="M588 997q-169 0 -279.5 -115.5t-128.5 -279.5h815q-21 170 -130.5 282.5t-276.5 112.5zM588 1085q135 0 246.5 -65t179.5 -176q98 -154 86 -334h-924q2 -124 56 -227t153 -164.5t223 -61.5q123 0 221.5 64t147.5 176h110q-55 -151 -185 -239.5t-292 -88.5q-154 0 -278 73
t-193 200.5t-69 285.5q0 148 63.5 274.5t183.5 204.5t271 78zM586 1278q79 0 127.5 46.5t60.5 127.5h78q-14 -116 -82.5 -185t-183.5 -69t-183 68.5t-84 185.5h78q11 -80 60 -127t129 -47z" />
    <glyph glyph-name="Edotaccent" unicode="&#x116;" horiz-adv-x="1175" 
d="M160 1434h897v-97h-785v-567h719v-94h-719v-580h785v-96h-897v1434zM555 1620v166h109v-166h-109z" />
    <glyph glyph-name="edotaccent" unicode="&#x117;" horiz-adv-x="1171" 
d="M588 997q-169 0 -279.5 -115.5t-128.5 -279.5h815q-21 170 -130.5 282.5t-276.5 112.5zM588 1085q135 0 246.5 -65t179.5 -176q98 -154 86 -334h-924q2 -124 56 -227t153 -164.5t223 -61.5q123 0 221.5 64t147.5 176h110q-55 -151 -185 -239.5t-292 -88.5q-154 0 -278 73
t-193 200.5t-69 285.5q0 148 63.5 274.5t183.5 204.5t271 78zM641 1241h-109v166h109v-166z" />
    <glyph glyph-name="Eogonek" unicode="&#x118;" horiz-adv-x="1175" 
d="M1098 -270l32 -64q-74 -53 -147 -53q-74 0 -120 40.5t-46 115.5q0 121 166 231h-823v1434h897v-97h-785v-567h719v-94h-719v-580h785v-96q-78 -57 -115 -108t-37 -113q0 -38 25 -63t67 -25q44 0 101 39z" />
    <glyph glyph-name="eogonek" unicode="&#x119;" horiz-adv-x="1171" 
d="M588 997q-169 0 -279.5 -115.5t-128.5 -279.5h815q-21 170 -130.5 282.5t-276.5 112.5zM674 -27q-40 -4 -64 -4q-154 0 -278 73t-193 200.5t-69 285.5q0 148 63.5 274.5t183.5 204.5t271 78q135 0 246.5 -65t179.5 -176q98 -154 86 -334h-924q2 -124 56 -227t153 -164.5
t223 -61.5q123 0 221.5 64t147.5 176h110q-39 -108 -119.5 -185.5t-185.5 -113.5q-77 -56 -112 -106.5t-35 -112.5q0 -38 25 -63t65 -25q47 0 100 39l35 -64q-77 -53 -147 -53q-74 0 -120 40.5t-46 115.5q0 108 127 204z" />
    <glyph glyph-name="Ecaron" unicode="&#x11a;" horiz-adv-x="1175" 
d="M160 1434h897v-97h-785v-567h719v-94h-719v-580h785v-96h-897v1434zM739 1849h90l-176 -252h-88l-178 252h90l131 -182z" />
    <glyph glyph-name="ecaron" unicode="&#x11b;" horiz-adv-x="1171" 
d="M588 997q-169 0 -279.5 -115.5t-128.5 -279.5h815q-21 170 -130.5 282.5t-276.5 112.5zM588 1085q135 0 246.5 -65t179.5 -176q98 -154 86 -334h-924q2 -124 56 -227t153 -164.5t223 -61.5q123 0 221.5 64t147.5 176h110q-55 -151 -185 -239.5t-292 -88.5q-154 0 -278 73
t-193 200.5t-69 285.5q0 148 63.5 274.5t183.5 204.5t271 78zM586 1288l131 182h90l-176 -251h-88l-178 251h90z" />
    <glyph glyph-name="Gcircumflex" unicode="&#x11c;" horiz-adv-x="1548" 
d="M780 600v98h670v-698h-94l-8 373q-65 -183 -209 -293.5t-355 -110.5q-127 0 -237 39.5t-191.5 109t-140 163.5t-88 205t-29.5 231q0 150 47 285t133 238t217 163.5t289 60.5q252 0 430.5 -140t221.5 -368h-119q-37 187 -182.5 298.5t-352.5 111.5q-131 0 -240.5 -54.5
t-180.5 -145.5t-109.5 -207t-38.5 -242q0 -100 24 -195t72.5 -177t116 -144t160.5 -97.5t200 -35.5q118 0 214 41t161.5 114t106 168.5t53.5 208.5h-541zM731 1849h88l176 -252h-90l-131 185l-131 -185h-90z" />
    <glyph glyph-name="gcircumflex" unicode="&#x11d;" horiz-adv-x="1198" 
d="M584 993q-185 0 -297.5 -126.5t-112.5 -309.5q0 -185 112.5 -308.5t293.5 -123.5q122 0 214 60.5t137.5 158t45.5 215.5q0 119 -46.5 217t-137.5 157.5t-209 59.5zM563 1087q135 0 246.5 -66.5t169.5 -186.5l10 221h88v-996q0 -234 -132.5 -373t-356.5 -139
q-119 0 -219.5 38.5t-174 120.5t-98.5 196h105q32 -132 135 -197t246 -65q182 0 287.5 112t105.5 301v223q-58 -117 -167.5 -181t-244.5 -64q-143 0 -256.5 71.5t-175 191.5t-61.5 265q0 141 59.5 261t173.5 193.5t260 73.5zM377 1219l178 251h88l176 -251h-90l-131 184
l-131 -184h-90z" />
    <glyph glyph-name="Gbreve" unicode="&#x11e;" horiz-adv-x="1548" 
d="M780 600v98h670v-698h-94l-8 373q-65 -183 -209 -293.5t-355 -110.5q-127 0 -237 39.5t-191.5 109t-140 163.5t-88 205t-29.5 231q0 150 47 285t133 238t217 163.5t289 60.5q252 0 430.5 -140t221.5 -368h-119q-37 187 -182.5 298.5t-352.5 111.5q-131 0 -240.5 -54.5
t-180.5 -145.5t-109.5 -207t-38.5 -242q0 -100 24 -195t72.5 -177t116 -144t160.5 -97.5t200 -35.5q118 0 214 41t161.5 114t106 168.5t53.5 208.5h-541zM774 1657q80 0 128.5 47t60.5 127h77q-14 -116 -82.5 -185t-183.5 -69t-182.5 68.5t-83.5 185.5h78q11 -80 59.5 -127
t128.5 -47z" />
    <glyph glyph-name="gbreve" unicode="&#x11f;" horiz-adv-x="1198" 
d="M584 993q-185 0 -297.5 -126.5t-112.5 -309.5q0 -185 112.5 -308.5t293.5 -123.5q122 0 214 60.5t137.5 158t45.5 215.5q0 119 -46.5 217t-137.5 157.5t-209 59.5zM563 1087q135 0 246.5 -66.5t169.5 -186.5l10 221h88v-996q0 -234 -132.5 -373t-356.5 -139
q-119 0 -219.5 38.5t-174 120.5t-98.5 196h105q32 -132 135 -197t246 -65q182 0 287.5 112t105.5 301v223q-58 -117 -167.5 -181t-244.5 -64q-143 0 -256.5 71.5t-175 191.5t-61.5 265q0 141 59.5 261t173.5 193.5t260 73.5zM600 1278q79 0 127.5 46.5t60.5 127.5h78
q-14 -116 -82.5 -185t-183.5 -69t-182.5 68.5t-83.5 185.5h78q11 -80 59.5 -127t128.5 -47z" />
    <glyph glyph-name="Gdotaccent" unicode="&#x120;" horiz-adv-x="1548" 
d="M780 600v98h670v-698h-94l-8 373q-65 -183 -209 -293.5t-355 -110.5q-127 0 -237 39.5t-191.5 109t-140 163.5t-88 205t-29.5 231q0 150 47 285t133 238t217 163.5t289 60.5q252 0 430.5 -140t221.5 -368h-119q-37 187 -182.5 298.5t-352.5 111.5q-131 0 -240.5 -54.5
t-180.5 -145.5t-109.5 -207t-38.5 -242q0 -100 24 -195t72.5 -177t116 -144t160.5 -97.5t200 -35.5q118 0 214 41t161.5 114t106 168.5t53.5 208.5h-541zM721 1620v166h108v-166h-108z" />
    <glyph glyph-name="gdotaccent" unicode="&#x121;" horiz-adv-x="1198" 
d="M584 993q-185 0 -297.5 -126.5t-112.5 -309.5q0 -185 112.5 -308.5t293.5 -123.5q122 0 214 60.5t137.5 158t45.5 215.5q0 119 -46.5 217t-137.5 157.5t-209 59.5zM563 1087q135 0 246.5 -66.5t169.5 -186.5l10 221h88v-996q0 -234 -132.5 -373t-356.5 -139
q-119 0 -219.5 38.5t-174 120.5t-98.5 196h105q32 -132 135 -197t246 -65q182 0 287.5 112t105.5 301v223q-58 -117 -167.5 -181t-244.5 -64q-143 0 -256.5 71.5t-175 191.5t-61.5 265q0 141 59.5 261t173.5 193.5t260 73.5zM653 1241h-108v166h108v-166z" />
    <glyph glyph-name="uni0122" unicode="&#x122;" horiz-adv-x="1548" 
d="M780 600v98h670v-698h-94l-8 373q-65 -183 -209 -293.5t-355 -110.5q-127 0 -237 39.5t-191.5 109t-140 163.5t-88 205t-29.5 231q0 150 47 285t133 238t217 163.5t289 60.5q252 0 430.5 -140t221.5 -368h-119q-37 187 -182.5 298.5t-352.5 111.5q-131 0 -240.5 -54.5
t-180.5 -145.5t-109.5 -207t-38.5 -242q0 -100 24 -195t72.5 -177t116 -144t160.5 -97.5t200 -35.5q118 0 214 41t161.5 114t106 168.5t53.5 208.5h-541zM670 -578l-19 37q149 69 152 174h-80v181h149v-133q0 -91 -55.5 -157t-146.5 -102z" />
    <glyph glyph-name="uni0123" unicode="&#x123;" horiz-adv-x="1198" 
d="M584 993q-185 0 -297.5 -126.5t-112.5 -309.5q0 -185 112.5 -308.5t293.5 -123.5q122 0 214 60.5t137.5 158t45.5 215.5q0 119 -46.5 217t-137.5 157.5t-209 59.5zM563 1087q135 0 246.5 -66.5t169.5 -186.5l10 221h88v-996q0 -234 -132.5 -373t-356.5 -139
q-119 0 -219.5 38.5t-174 120.5t-98.5 196h105q32 -132 135 -197t246 -65q182 0 287.5 112t105.5 301v223q-58 -117 -167.5 -181t-244.5 -64q-143 0 -256.5 71.5t-175 191.5t-61.5 265q0 141 59.5 261t173.5 193.5t260 73.5zM684 1597l18 -36q-67 -29 -108.5 -74.5
t-42.5 -100.5h80v-180h-150v133q0 90 56 156t147 102z" />
    <glyph glyph-name="Hcircumflex" unicode="&#x124;" horiz-adv-x="1349" 
d="M1079 1434h113v-1434h-113v670h-807v-670h-112v1434h112v-668h807v668zM631 1849h88l176 -252h-90l-131 185l-131 -185h-90z" />
    <glyph glyph-name="hcircumflex" unicode="&#x125;" horiz-adv-x="1079" 
d="M596 1085q178 0 281.5 -111.5t103.5 -285.5v-688h-107v680q0 139 -77.5 228t-218.5 89q-81 0 -148.5 -37.5t-111 -99t-67.5 -137t-24 -154.5v-569h-108v1434h108v-586q52 109 150 173t219 64zM125 1849h88l176 -252h-90l-131 185l-131 -185h-90z" />
    <glyph glyph-name="Hbar" unicode="&#x126;" horiz-adv-x="1349" 
d="M1077 766v352h-805v-352h805zM1077 1196v238h113v-238h94v-78h-94v-1118h-113v670h-805v-670h-112v1118h-94v78h94v238h112v-238h805z" />
    <glyph glyph-name="hbar" unicode="&#x127;" horiz-adv-x="1079" 
d="M594 1085q178 0 282.5 -111.5t104.5 -285.5v-688h-109v680q0 139 -77 228t-217 89q-81 0 -149.5 -37.5t-112 -99t-67.5 -137t-24 -154.5v-569h-108v1198h-86v78h86v158h108v-158h293v-78h-293v-350q52 108 150.5 172.5t218.5 64.5z" />
    <glyph glyph-name="Itilde" unicode="&#x128;" horiz-adv-x="432" 
d="M160 0v1434h112v-1434h-112zM78 1767q48 0 98 -28.5t96.5 -57t85.5 -28.5q42 0 62 29.5t18 72.5h72q5 -73 -35.5 -125.5t-112.5 -52.5q-37 0 -77.5 18t-69.5 39.5t-66 39.5t-67 18q-45 0 -65.5 -29.5t-20.5 -77.5h-74q2 80 41.5 131t114.5 51z" />
    <glyph glyph-name="itilde" unicode="&#x129;" horiz-adv-x="350" 
d="M121 0v1055h106v-1055h-106zM37 1389q38 0 78 -18t69 -39.5t65.5 -39.5t67.5 -18q42 0 62 29.5t18 72.5h72q5 -73 -35 -125.5t-112 -52.5q-47 0 -98 29t-98 57.5t-85 28.5q-45 0 -65.5 -29.5t-20.5 -77.5h-74q2 80 42 131.5t114 51.5z" />
    <glyph glyph-name="Imacron" unicode="&#x12a;" horiz-adv-x="432" 
d="M160 0v1434h112v-1434h-112zM-27 1651v78h488v-78h-488z" />
    <glyph glyph-name="imacron" unicode="&#x12b;" horiz-adv-x="350" 
d="M121 0v1055h106v-1055h-106zM-68 1272v78h488v-78h-488z" />
    <glyph glyph-name="Ibreve" unicode="&#x12c;" horiz-adv-x="432" 
d="M160 0v1434h112v-1434h-112zM217 1657q80 0 128.5 47t60.5 127h77q-14 -116 -82.5 -185t-183.5 -69t-182.5 68.5t-83.5 185.5h78q11 -80 59.5 -127t128.5 -47z" />
    <glyph glyph-name="ibreve" unicode="&#x12d;" horiz-adv-x="350" 
d="M121 0v1055h106v-1055h-106zM176 1278q80 0 128.5 47t60.5 127h77q-14 -116 -82.5 -185t-183.5 -69t-182.5 68.5t-83.5 185.5h78q11 -80 59.5 -127t128.5 -47z" />
    <glyph glyph-name="Iogonek" unicode="&#x12e;" horiz-adv-x="432" 
d="M197 0h-37v1434h112v-1434h-2q-79 -56 -115 -107t-36 -114q0 -38 25 -63t65 -25q47 0 100 39l35 -64q-77 -53 -147 -53q-74 0 -120 40.5t-46 115.5q0 121 166 231z" />
    <glyph glyph-name="iogonek" unicode="&#x12f;" horiz-adv-x="350" 
d="M154 0h-31v1055h106v-1055h-2q-79 -56 -115 -107t-36 -114q0 -38 25 -63t65 -25q47 0 100 39l35 -64q-77 -53 -147 -53q-74 0 -120 40.5t-46 115.5q0 121 166 231zM231 1266h-112v168h112v-168z" />
    <glyph glyph-name="Idotaccent" unicode="&#x130;" horiz-adv-x="432" 
d="M160 0v1434h112v-1434h-112zM162 1620v166h108v-166h-108z" />
    <glyph glyph-name="dotlessi" unicode="&#x131;" horiz-adv-x="350" 
d="M121 0v1055h106v-1055h-106z" />
    <glyph glyph-name="IJ" unicode="&#x132;" horiz-adv-x="1550" 
d="M160 0v1434h112v-1434h-112zM1300 1434h111v-959q0 -113 -25.5 -203.5t-78 -159t-139 -106t-201.5 -37.5q-110 0 -194.5 38.5t-136.5 106t-78.5 154.5t-27.5 189h111q2 -81 20.5 -148t55.5 -121.5t100.5 -85t149.5 -30.5q92 0 158.5 31t103.5 88t54 126.5t17 155.5v961z
" />
    <glyph glyph-name="ij" unicode="&#x133;" horiz-adv-x="686" 
d="M119 1266v168h112v-168h-112zM123 0v1055h106v-1055h-106zM453 1434h112v-166h-112v166zM455 1055h106v-1272q0 -115 -62 -175.5t-173 -60.5q-46 0 -97 17v94q2 -2 12.5 -5.5t32.5 -7t45 -3.5q67 0 101.5 39.5t34.5 99.5v1274z" />
    <glyph glyph-name="Jcircumflex" unicode="&#x134;" horiz-adv-x="1118" 
d="M868 1434h111v-959q0 -113 -25.5 -203.5t-78 -159t-139 -106t-201.5 -37.5q-110 0 -194.5 38.5t-136.5 106t-78.5 154.5t-27.5 189h111q2 -81 20.5 -148t55.5 -121.5t100.5 -85t149.5 -30.5q92 0 158.5 31t103.5 88t54 126.5t17 155.5v961zM883 1849h88l176 -252h-90
l-131 185l-131 -185h-90z" />
    <glyph glyph-name="jcircumflex" unicode="&#x135;" horiz-adv-x="372" 
d="M143 -219v1274h107v-1272q0 -115 -62.5 -175.5t-173.5 -60.5q-45 0 -96 17v94q2 -2 12.5 -5.5t32.5 -7t45 -3.5q67 0 101 39.5t34 99.5zM162 1470h88l176 -251h-90l-131 184l-131 -184h-90z" />
    <glyph glyph-name="uni0136" unicode="&#x136;" horiz-adv-x="1282" 
d="M1051 0l-527 721l-252 -275v-446h-112v1434h112v-834l754 834h143l-571 -631l586 -803h-133zM547 -578l-19 37q149 69 152 174h-80v181h150v-133q0 -90 -56 -156.5t-147 -102.5z" />
    <glyph glyph-name="uni0137" unicode="&#x137;" horiz-adv-x="1044" 
d="M119 1434h108v-885l543 506h137l-438 -406l500 -649h-129l-447 582l-166 -154v-428h-108v1434zM383 -578l-18 37q148 69 151 174h-80v181h150v-133q0 -90 -56 -156.5t-147 -102.5z" />
    <glyph glyph-name="kgreenlandic" unicode="&#x138;" horiz-adv-x="1044" 
d="M119 1055h108v-506l543 506h137l-438 -406l500 -649h-129l-447 582l-166 -154v-428h-108v1055z" />
    <glyph glyph-name="Lacute" unicode="&#x139;" horiz-adv-x="1155" 
d="M160 1434h112v-1338h785v-96h-897v1434zM326 1849h112l-180 -252h-90z" />
    <glyph glyph-name="lacute" unicode="&#x13a;" horiz-adv-x="346" 
d="M119 0v1434h108v-1434h-108zM285 1849h112l-180 -252h-90z" />
    <glyph glyph-name="uni013B" unicode="&#x13b;" horiz-adv-x="1155" 
d="M160 1434h112v-1338h785v-96h-897v1434zM494 -578l-19 37q149 69 152 174h-80v181h149v-133q0 -91 -55.5 -157t-146.5 -102z" />
    <glyph glyph-name="uni013C" unicode="&#x13c;" horiz-adv-x="346" 
d="M119 0v1434h108v-1434h-108zM51 -578l-18 37q148 69 151 174h-80v181h150v-133q0 -90 -56 -156.5t-147 -102.5z" />
    <glyph glyph-name="Lcaron" unicode="&#x13d;" horiz-adv-x="1155" 
d="M651 1434h113l-70 -269h-90zM160 1434h112v-1338h785v-96h-897v1434z" />
    <glyph glyph-name="lcaron" unicode="&#x13e;" horiz-adv-x="518" 
d="M406 1434h112l-69 -269h-91zM119 0v1434h108v-1434h-108z" />
    <glyph glyph-name="Ldot" unicode="&#x13f;" horiz-adv-x="1155" 
d="M582 633v168h108v-168h-108zM160 1434h112v-1338h785v-96h-897v1434z" />
    <glyph glyph-name="ldot" unicode="&#x140;" horiz-adv-x="636" 
d="M412 633v168h108v-168h-108zM119 0v1434h108v-1434h-108z" />
    <glyph glyph-name="Lslash" unicode="&#x141;" horiz-adv-x="1155" 
d="M158 670v764h112v-703l183 100l39 -69l-222 -121v-545h787v-96h-899v580l-95 -52l-36 68z" />
    <glyph glyph-name="lslash" unicode="&#x142;" horiz-adv-x="346" 
d="M227 0h-108v606l-142 -78l-36 68l178 98v740h108v-680l140 77l39 -69l-179 -96v-666z" />
    <glyph glyph-name="Nacute" unicode="&#x143;" horiz-adv-x="1355" 
d="M1085 1434h113v-1434h-125l-801 1253v-1253h-112v1434h127l798 -1256v1256zM838 1849h112l-180 -252h-90z" />
    <glyph glyph-name="nacute" unicode="&#x144;" horiz-adv-x="1079" 
d="M596 1085q178 0 281.5 -111.5t103.5 -285.5v-688h-107v680q0 139 -77.5 228t-218.5 89q-81 0 -148.5 -37.5t-111 -99t-67.5 -137t-24 -154.5v-569h-108v1055h90l12 -213q52 111 152 177t223 66zM711 1470h112l-180 -251h-90z" />
    <glyph glyph-name="uni0145" unicode="&#x145;" horiz-adv-x="1355" 
d="M1085 1434h113v-1434h-125l-801 1253v-1253h-112v1434h127l798 -1256v1256zM563 -578l-18 37q148 69 151 174h-80v181h150v-133q0 -90 -56 -156.5t-147 -102.5z" />
    <glyph glyph-name="uni0146" unicode="&#x146;" horiz-adv-x="1079" 
d="M596 1085q178 0 281.5 -111.5t103.5 -285.5v-688h-107v680q0 139 -77.5 228t-218.5 89q-81 0 -148.5 -37.5t-111 -99t-67.5 -137t-24 -154.5v-569h-108v1055h90l12 -213q52 111 152 177t223 66zM426 -578l-18 37q148 69 151 174h-80v181h150v-133q0 -90 -56 -156.5
t-147 -102.5z" />
    <glyph glyph-name="Ncaron" unicode="&#x147;" horiz-adv-x="1355" 
d="M1085 1434h113v-1434h-125l-801 1253v-1253h-112v1434h127l798 -1256v1256zM809 1849h90l-176 -252h-88l-178 252h90l131 -182z" />
    <glyph glyph-name="ncaron" unicode="&#x148;" horiz-adv-x="1079" 
d="M596 1085q178 0 281.5 -111.5t103.5 -285.5v-688h-107v680q0 139 -77.5 228t-218.5 89q-81 0 -148.5 -37.5t-111 -99t-67.5 -137t-24 -154.5v-569h-108v1055h90l12 -213q52 111 152 177t223 66zM672 1470h90l-176 -251h-88l-179 251h91l131 -182z" />
    <glyph glyph-name="napostrophe" unicode="&#x149;" horiz-adv-x="1312" 
d="M827 1085q178 0 282.5 -111.5t104.5 -285.5v-688h-108v680q0 139 -77.5 228t-217.5 89q-107 0 -189.5 -64.5t-122.5 -160.5t-40 -203v-569h-109v1055h90l13 -213q53 112 152 177.5t222 65.5zM127 1268v166h156v-117q0 -107 -45 -173.5t-142 -103.5l-22 50q66 30 98 72.5
t33 105.5h-78z" />
    <glyph glyph-name="Eng" unicode="&#x14a;" horiz-adv-x="1355" 
d="M1087 -31v11l-815 1275v-1255h-112v1434h127l798 -1254v1254h113v-1450q0 -113 -24.5 -203t-76 -159t-138.5 -106.5t-205 -37.5v102q333 0 333 389z" />
    <glyph glyph-name="eng" unicode="&#x14b;" horiz-adv-x="1079" 
d="M596 1087q177 0 281 -112t104 -287v-905q0 -115 -62.5 -175.5t-173.5 -60.5q-45 0 -96 17v94q2 -2 12.5 -5.5t33 -7t46.5 -3.5q65 0 99 39.5t34 99.5v899q0 139 -77.5 228t-218.5 89q-81 0 -148.5 -37.5t-111 -98t-67.5 -136t-24 -154.5v-571h-108v1055h90l12 -213
q52 112 152 178.5t223 66.5z" />
    <glyph glyph-name="Omacron" unicode="&#x14c;" horiz-adv-x="1570" 
d="M786 1366q-134 0 -244 -54t-180.5 -145t-108.5 -207t-38 -243t38 -242.5t108.5 -206t180.5 -144.5t244 -54q133 0 243 54t180.5 144.5t108.5 206t38 242.5t-38 243t-108.5 207t-180.5 145t-243 54zM786 1464q158 0 289.5 -61t217.5 -164t133 -237.5t47 -284.5t-47 -284.5
t-133 -238t-217.5 -164.5t-289.5 -61q-159 0 -290.5 61t-217.5 164.5t-133 238t-47 284.5t47 284.5t133 237.5t217.5 164t290.5 61zM543 1651v78h487v-78h-487z" />
    <glyph glyph-name="omacron" unicode="&#x14d;" horiz-adv-x="1230" 
d="M614 995q-124 0 -225.5 -65t-157 -171.5t-55.5 -230.5t56 -231t157 -171.5t225 -64.5t226 66.5t157.5 173t55.5 227.5q0 122 -56.5 229t-158 172.5t-224.5 65.5zM614 1085q152 0 277.5 -74.5t196.5 -202t71 -280.5q0 -151 -69.5 -279t-195.5 -204t-280 -76
q-153 0 -278 74t-195.5 202t-70.5 283q0 154 70.5 281.5t195.5 201.5t278 74zM373 1272v78h487v-78h-487z" />
    <glyph glyph-name="Obreve" unicode="&#x14e;" horiz-adv-x="1570" 
d="M786 1366q-134 0 -244 -54t-180.5 -145t-108.5 -207t-38 -243t38 -242.5t108.5 -206t180.5 -144.5t244 -54q133 0 243 54t180.5 144.5t108.5 206t38 242.5t-38 243t-108.5 207t-180.5 145t-243 54zM786 1464q158 0 289.5 -61t217.5 -164t133 -237.5t47 -284.5t-47 -284.5
t-133 -238t-217.5 -164.5t-289.5 -61q-159 0 -290.5 61t-217.5 164.5t-133 238t-47 284.5t47 284.5t133 237.5t217.5 164t290.5 61zM786 1657q80 0 128.5 47t60.5 127h78q-14 -116 -83 -185t-184 -69t-182.5 68.5t-83.5 185.5h78q11 -80 59.5 -127t128.5 -47z" />
    <glyph glyph-name="obreve" unicode="&#x14f;" horiz-adv-x="1230" 
d="M614 995q-124 0 -225.5 -65t-157 -171.5t-55.5 -230.5t56 -231t157 -171.5t225 -64.5t226 66.5t157.5 173t55.5 227.5q0 122 -56.5 229t-158 172.5t-224.5 65.5zM614 1085q152 0 277.5 -74.5t196.5 -202t71 -280.5q0 -151 -69.5 -279t-195.5 -204t-280 -76
q-153 0 -278 74t-195.5 202t-70.5 283q0 154 70.5 281.5t195.5 201.5t278 74zM616 1278q80 0 128.5 47t60.5 127h78q-14 -116 -83 -185t-184 -69t-182.5 68.5t-83.5 185.5h78q11 -80 59.5 -127t128.5 -47z" />
    <glyph glyph-name="Ohungarumlaut" unicode="&#x150;" horiz-adv-x="1570" 
d="M786 1366q-134 0 -244 -54t-180.5 -145t-108.5 -207t-38 -243t38 -242.5t108.5 -206t180.5 -144.5t244 -54q133 0 243 54t180.5 144.5t108.5 206t38 242.5t-38 243t-108.5 207t-180.5 145t-243 54zM786 1464q158 0 289.5 -61t217.5 -164t133 -237.5t47 -284.5t-47 -284.5
t-133 -238t-217.5 -164.5t-289.5 -61q-159 0 -290.5 61t-217.5 164.5t-133 238t-47 284.5t47 284.5t133 237.5t217.5 164t290.5 61zM915 1849h107l-170 -252h-88zM692 1849h109l-164 -252h-88z" />
    <glyph glyph-name="ohungarumlaut" unicode="&#x151;" horiz-adv-x="1230" 
d="M614 995q-124 0 -225.5 -65t-157 -171.5t-55.5 -230.5t56 -231t157 -171.5t225 -64.5t226 66.5t157.5 173t55.5 227.5q0 122 -56.5 229t-158 172.5t-224.5 65.5zM614 1085q152 0 277.5 -74.5t196.5 -202t71 -280.5q0 -151 -69.5 -279t-195.5 -204t-280 -76
q-153 0 -278 74t-195.5 202t-70.5 283q0 154 70.5 281.5t195.5 201.5t278 74zM745 1470h107l-170 -251h-88zM522 1470h109l-164 -251h-88z" />
    <glyph glyph-name="OE" unicode="&#x152;" horiz-adv-x="2000" 
d="M786 70q108 0 197 39v1218q-89 39 -197 39q-134 0 -244 -54t-180.5 -145t-108.5 -207t-38 -243t38 -242.5t108.5 -206t180.5 -144.5t244 -54zM997 1434h885v-97h-786v-567h721v-94h-721v-580h786v-96h-885q-102 -31 -211 -31q-159 0 -290.5 61t-217.5 164.5t-133 238
t-47 284.5t47 284.5t133 237.5t217.5 164t290.5 61q112 0 211 -30z" />
    <glyph glyph-name="oe" unicode="&#x153;" horiz-adv-x="2156" 
d="M614 995q-124 0 -225.5 -65t-157 -171.5t-55.5 -230.5t56 -231t157 -171.5t225 -64.5t226 66.5t157.5 173t55.5 227.5q0 122 -56.5 229t-158 172.5t-224.5 65.5zM1571 997q-168 0 -279 -116t-127 -279h813q-19 170 -129 282.5t-278 112.5zM1571 1087q136 0 248 -65.5
t180 -177.5q96 -148 84 -334h-922q2 -190 122.5 -321.5t307.5 -131.5q124 0 222.5 63.5t148.5 176.5h109q-54 -151 -183.5 -239.5t-292.5 -88.5q-166 0 -295.5 84.5t-193.5 227.5q-66 -140 -197.5 -226t-294.5 -86q-153 0 -278 74t-195.5 202t-70.5 283q0 154 70.5 281.5
t195.5 201.5t278 74q163 0 294 -84t198 -225q62 140 184 225.5t281 85.5z" />
    <glyph glyph-name="Racute" unicode="&#x154;" horiz-adv-x="1228" 
d="M682 1339h-408v-626h408q149 0 247.5 81.5t98.5 231.5q0 147 -97 230t-249 83zM1141 0h-129l-355 618h-383v-618h-114v1434h514q208 0 337.5 -105t129.5 -303q0 -175 -98.5 -274.5t-262.5 -124.5zM479 1597l158 252h113l-181 -252h-90z" />
    <glyph glyph-name="racute" unicode="&#x155;" horiz-adv-x="663" 
d="M551 1085l53 -4v-102q-26 4 -55 4q-95 0 -169 -58t-113.5 -157t-39.5 -221v-547h-108v1055h90l14 -248q31 118 119 198t209 80zM532 1470h113l-180 -251h-90z" />
    <glyph glyph-name="uni0156" unicode="&#x156;" horiz-adv-x="1228" 
d="M682 1339h-408v-626h408q149 0 247.5 81.5t98.5 231.5q0 147 -97 230t-249 83zM1141 0h-129l-355 618h-383v-618h-114v1434h514q208 0 337.5 -105t129.5 -303q0 -175 -98.5 -274.5t-262.5 -124.5zM535 -578l-19 37q149 69 152 174h-80v181h149v-133q0 -91 -55.5 -157
t-146.5 -102z" />
    <glyph glyph-name="uni0157" unicode="&#x157;" horiz-adv-x="663" 
d="M551 1085l53 -4v-102q-26 4 -55 4q-95 0 -169 -58t-113.5 -157t-39.5 -221v-547h-108v1055h90l14 -248q31 118 119 198t209 80zM47 -578l-18 37q148 69 151 174h-80v181h150v-133q0 -90 -56 -156.5t-147 -102.5z" />
    <glyph glyph-name="Rcaron" unicode="&#x158;" horiz-adv-x="1228" 
d="M682 1339h-408v-626h408q149 0 247.5 81.5t98.5 231.5q0 147 -97 230t-249 83zM1141 0h-129l-355 618h-383v-618h-114v1434h514q208 0 337.5 -105t129.5 -303q0 -175 -98.5 -274.5t-262.5 -124.5zM614 1667l131 182h91l-177 -252h-88l-178 252h90z" />
    <glyph glyph-name="rcaron" unicode="&#x159;" horiz-adv-x="663" 
d="M551 1085l53 -4v-102q-26 4 -55 4q-95 0 -169 -58t-113.5 -157t-39.5 -221v-547h-108v1055h90l14 -248q31 118 119 198t209 80zM463 1470h90l-176 -251h-88l-178 251h90l131 -182z" />
    <glyph glyph-name="Sacute" unicode="&#x15a;" horiz-adv-x="1277" 
d="M627 1464q212 0 352 -107.5t170 -309.5h-111q-71 321 -411 321q-75 0 -139 -14t-119 -44.5t-87 -85t-32 -128.5q0 -39 8.5 -72.5t21 -59t35.5 -47.5t43 -37.5t54 -29.5t58 -22t64.5 -17t65 -13.5t66.5 -11.5q60 -10 105 -20t101.5 -27t97.5 -37.5t83 -52t68 -70
t42.5 -91.5t16.5 -117q0 -85 -30 -154.5t-79.5 -115t-116.5 -76t-138 -43.5t-146 -13q-246 0 -392.5 117.5t-179.5 353.5h113q56 -374 461 -374q58 0 112.5 10t106.5 33t90.5 57t62 86t23.5 117q0 59 -18.5 107t-55 80.5t-75 55t-96 38.5t-98 24.5t-99.5 17.5
q-88 14 -154 30.5t-132 47t-108 72t-68 105t-26 145.5q0 96 40.5 169.5t110.5 116.5t155.5 64.5t183.5 21.5zM729 1849h113l-180 -252h-91z" />
    <glyph glyph-name="sacute" unicode="&#x15b;" horiz-adv-x="1024" 
d="M498 1085q81 0 152 -18.5t129.5 -55t97.5 -98.5t51 -143h-103q-51 227 -329 227q-113 0 -200 -53t-87 -151q0 -46 22.5 -81.5t48 -54.5t79.5 -35t80.5 -20.5t88.5 -13.5q18 -3 27 -4q70 -11 120 -22.5t104.5 -35.5t88.5 -56.5t56 -84t22 -119.5q0 -76 -37.5 -135.5
t-99 -93.5t-132 -51t-145.5 -17q-119 0 -217.5 38.5t-163.5 121t-73 197.5h106q5 -88 57.5 -150t128 -89.5t165.5 -27.5q54 0 105.5 10.5t99.5 32.5t77 63t29 95q0 41 -13 74.5t-32 56.5t-53 41.5t-61.5 29t-73 20t-72.5 13t-74 9.5q-58 8 -104.5 19.5t-96 33.5t-82.5 51.5
t-54 76.5t-21 106q0 74 35.5 132t93 92.5t124.5 52t136 17.5zM608 1470h113l-180 -251h-90z" />
    <glyph glyph-name="Scircumflex" unicode="&#x15c;" horiz-adv-x="1277" 
d="M627 1464q212 0 352 -107.5t170 -309.5h-111q-71 321 -411 321q-75 0 -139 -14t-119 -44.5t-87 -85t-32 -128.5q0 -39 8.5 -72.5t21 -59t35.5 -47.5t43 -37.5t54 -29.5t58 -22t64.5 -17t65 -13.5t66.5 -11.5q60 -10 105 -20t101.5 -27t97.5 -37.5t83 -52t68 -70
t42.5 -91.5t16.5 -117q0 -85 -30 -154.5t-79.5 -115t-116.5 -76t-138 -43.5t-146 -13q-246 0 -392.5 117.5t-179.5 353.5h113q56 -374 461 -374q58 0 112.5 10t106.5 33t90.5 57t62 86t23.5 117q0 59 -18.5 107t-55 80.5t-75 55t-96 38.5t-98 24.5t-99.5 17.5
q-88 14 -154 30.5t-132 47t-108 72t-68 105t-26 145.5q0 96 40.5 169.5t110.5 116.5t155.5 64.5t183.5 21.5zM596 1849h88l176 -252h-90l-131 185l-131 -185h-90z" />
    <glyph glyph-name="scircumflex" unicode="&#x15d;" horiz-adv-x="1024" 
d="M498 1085q81 0 152 -18.5t129.5 -55t97.5 -98.5t51 -143h-103q-51 227 -329 227q-113 0 -200 -53t-87 -151q0 -46 22.5 -81.5t48 -54.5t79.5 -35t80.5 -20.5t88.5 -13.5q18 -3 27 -4q70 -11 120 -22.5t104.5 -35.5t88.5 -56.5t56 -84t22 -119.5q0 -76 -37.5 -135.5
t-99 -93.5t-132 -51t-145.5 -17q-119 0 -217.5 38.5t-163.5 121t-73 197.5h106q5 -88 57.5 -150t128 -89.5t165.5 -27.5q54 0 105.5 10.5t99.5 32.5t77 63t29 95q0 41 -13 74.5t-32 56.5t-53 41.5t-61.5 29t-73 20t-72.5 13t-74 9.5q-58 8 -104.5 19.5t-96 33.5t-82.5 51.5
t-54 76.5t-21 106q0 74 35.5 132t93 92.5t124.5 52t136 17.5zM469 1470h88l176 -251h-90l-131 184l-131 -184h-90z" />
    <glyph glyph-name="Scedilla" unicode="&#x15e;" horiz-adv-x="1277" 
d="M543 -178l45 151q-210 19 -335 135.5t-155 331.5h113q56 -374 461 -374q58 0 112.5 10t106.5 33t90.5 57t62 86t23.5 117q0 59 -18.5 107t-55 80.5t-75 55t-96 38.5t-98 24.5t-99.5 17.5q-88 14 -154 30.5t-132 47t-108 72t-68 105t-26 145.5q0 96 40.5 169.5
t110.5 116.5t155.5 64.5t183.5 21.5q212 0 352 -107.5t170 -309.5h-111q-71 321 -411 321q-75 0 -139 -14t-119 -44.5t-87 -85t-32 -128.5q0 -39 8.5 -72.5t21 -59t35.5 -47.5t43 -37.5t54 -29.5t58 -22t64.5 -17t65 -13.5t66.5 -11.5q60 -10 105 -20t101.5 -27t97.5 -37.5
t83 -52t68 -70t42.5 -91.5t16.5 -117q0 -87 -30.5 -156.5t-80.5 -114.5t-119 -75t-142 -43t-153 -13l-26 -88q87 -5 142.5 -45.5t55.5 -122.5q0 -90 -64 -135t-153 -45q-76 0 -155 47v82q72 -55 153 -55q57 0 97 27.5t40 82.5q0 40 -27 65t-60.5 32.5t-75.5 7.5h-39z" />
    <glyph glyph-name="scedilla" unicode="&#x15f;" horiz-adv-x="1024" 
d="M414 -178l45 151q-159 18 -265 109t-116 244h106q5 -88 57.5 -150t128 -89.5t165.5 -27.5q54 0 105.5 10.5t99.5 32.5t77 63t29 95q0 41 -13 74.5t-32 56.5t-53 41.5t-61.5 29t-73 20t-72.5 13t-74 9.5q-58 8 -104.5 19.5t-96 33.5t-82.5 51.5t-54 76.5t-21 106
q0 74 35.5 132t93 92.5t124.5 52t136 17.5q81 0 152 -18.5t129.5 -55t97.5 -98.5t51 -143h-103q-51 227 -329 227q-113 0 -200 -53t-87 -151q0 -46 22.5 -81.5t48 -54.5t79.5 -35t80.5 -20.5t88.5 -13.5q18 -3 27 -4q70 -11 120 -22.5t104.5 -35.5t88.5 -56.5t56 -84
t22 -119.5q0 -79 -39 -139t-103 -93t-134 -49t-144 -16l-26 -88q87 -5 142.5 -45.5t55.5 -122.5q0 -90 -64 -135t-153 -45q-76 0 -155 47v82q72 -55 153 -55q57 0 97 27.5t40 82.5q0 40 -27 65t-60.5 32.5t-75.5 7.5h-39z" />
    <glyph glyph-name="Scaron" unicode="&#x160;" horiz-adv-x="1277" 
d="M627 1464q212 0 352 -107.5t170 -309.5h-111q-71 321 -411 321q-75 0 -139 -14t-119 -44.5t-87 -85t-32 -128.5q0 -39 8.5 -72.5t21 -59t35.5 -47.5t43 -37.5t54 -29.5t58 -22t64.5 -17t65 -13.5t66.5 -11.5q60 -10 105 -20t101.5 -27t97.5 -37.5t83 -52t68 -70
t42.5 -91.5t16.5 -117q0 -85 -30 -154.5t-79.5 -115t-116.5 -76t-138 -43.5t-146 -13q-246 0 -392.5 117.5t-179.5 353.5h113q56 -374 461 -374q58 0 112.5 10t106.5 33t90.5 57t62 86t23.5 117q0 59 -18.5 107t-55 80.5t-75 55t-96 38.5t-98 24.5t-99.5 17.5
q-88 14 -154 30.5t-132 47t-108 72t-68 105t-26 145.5q0 96 40.5 169.5t110.5 116.5t155.5 64.5t183.5 21.5zM770 1849h90l-176 -252h-88l-178 252h90l131 -182z" />
    <glyph glyph-name="scaron" unicode="&#x161;" horiz-adv-x="1024" 
d="M498 1085q81 0 152 -18.5t129.5 -55t97.5 -98.5t51 -143h-103q-51 227 -329 227q-113 0 -200 -53t-87 -151q0 -46 22.5 -81.5t48 -54.5t79.5 -35t80.5 -20.5t88.5 -13.5q18 -3 27 -4q70 -11 120 -22.5t104.5 -35.5t88.5 -56.5t56 -84t22 -119.5q0 -76 -37.5 -135.5
t-99 -93.5t-132 -51t-145.5 -17q-119 0 -217.5 38.5t-163.5 121t-73 197.5h106q5 -88 57.5 -150t128 -89.5t165.5 -27.5q54 0 105.5 10.5t99.5 32.5t77 63t29 95q0 41 -13 74.5t-32 56.5t-53 41.5t-61.5 29t-73 20t-72.5 13t-74 9.5q-58 8 -104.5 19.5t-96 33.5t-82.5 51.5
t-54 76.5t-21 106q0 74 35.5 132t93 92.5t124.5 52t136 17.5zM643 1470h90l-176 -251h-88l-178 251h90l131 -182z" />
    <glyph glyph-name="uni0162" unicode="&#x162;" horiz-adv-x="1300" 
d="M82 1337v97h1135v-97h-512v-1337h-23l-37 -119q87 -5 143 -45.5t56 -122.5q0 -90 -63.5 -135t-151.5 -45q-80 0 -156 47v82q72 -55 154 -55q55 0 95 28t40 82q0 31 -15 52.5t-40.5 32.5t-51.5 15.5t-55 4.5h-39l53 178h-22v1337h-510z" />
    <glyph glyph-name="uni0163" unicode="&#x163;" horiz-adv-x="657" 
d="M242 1169v197h108v-311h225v-92h-225v-756q0 -64 33.5 -104t103.5 -40q15 0 29.5 2t25 4.5t18.5 4.5t13 4l5 2v-94q-59 -15 -86 -17l-27 -88q87 -5 143 -45.5t56 -122.5q0 -90 -63.5 -135t-151.5 -45q-79 0 -158 47v82q75 -55 155 -55q55 0 95.5 28t40.5 82
q0 31 -15 52.5t-40.5 32.5t-51.5 15.5t-55 4.5h-39l45 149q-87 12 -135.5 70.5t-48.5 159.5v762h-181v92h68q56 0 84.5 25.5t28.5 88.5z" />
    <glyph glyph-name="Tcaron" unicode="&#x164;" horiz-adv-x="1300" 
d="M82 1434h1135v-95h-512v-1339h-113v1339h-510v95zM780 1849h90l-176 -252h-88l-178 252h90l131 -182z" />
    <glyph glyph-name="tcaron" unicode="&#x165;" horiz-adv-x="657" 
d="M537 1438h112l-69 -269h-91zM242 1169v197h108v-311h225v-92h-225v-756q0 -63 33.5 -102t103.5 -39q15 0 29.5 1.5t25 3.5t18.5 4t13 3l5 2v-94q-68 -17 -107 -17q-106 0 -167.5 59.5t-61.5 172.5v762h-181v92h68q56 0 84.5 25.5t28.5 88.5z" />
    <glyph glyph-name="Tbar" unicode="&#x166;" horiz-adv-x="1300" 
d="M592 672h-186v78h186v589h-510v95h1135v-95h-512v-589h188v-78h-188v-672h-113v672z" />
    <glyph glyph-name="tbar" unicode="&#x167;" horiz-adv-x="657" 
d="M242 1169v197h108v-311h225v-92h-225v-347h225v-77h-225v-332q0 -63 33.5 -102t103.5 -39q15 0 29.5 1.5t25 3.5t18.5 4t13 3l5 2v-94q-68 -17 -107 -17q-106 0 -167.5 59.5t-61.5 172.5v338h-181v77h181v347h-181v92h68q56 0 84.5 25.5t28.5 88.5z" />
    <glyph glyph-name="Utilde" unicode="&#x168;" horiz-adv-x="1296" 
d="M1047 1434h110v-969q0 -217 -144.5 -356.5t-363.5 -139.5q-142 0 -258 60.5t-184 174.5t-68 261v969h113v-957q0 -183 110 -296t287 -113q179 0 288.5 115.5t109.5 293.5v957zM510 1767q38 0 78.5 -18t69.5 -39t65.5 -39t67.5 -18q42 0 61.5 29t17.5 73h72
q5 -73 -35 -125.5t-112 -52.5q-37 0 -77.5 18t-70 39.5t-66.5 39.5t-67 18q-45 0 -65.5 -29.5t-20.5 -77.5h-74q2 80 41.5 131t114.5 51z" />
    <glyph glyph-name="utilde" unicode="&#x169;" horiz-adv-x="1079" 
d="M854 1055h107v-1055h-91l-12 213q-52 -111 -151.5 -177.5t-221.5 -66.5q-178 0 -282.5 112t-104.5 286v688h109v-680q0 -139 77 -227.5t218 -88.5q107 0 189 64t122.5 160t40.5 202v570zM401 1389q38 0 78.5 -18t69.5 -39.5t65.5 -39.5t67.5 -18q42 0 62 29.5t18 72.5h72
q5 -73 -35.5 -125.5t-112.5 -52.5q-37 0 -77.5 18t-69.5 39.5t-66 39.5t-67 18q-45 0 -66 -29.5t-21 -77.5h-73q2 80 41.5 131.5t113.5 51.5z" />
    <glyph glyph-name="Umacron" unicode="&#x16a;" horiz-adv-x="1296" 
d="M1047 1434h110v-969q0 -217 -144.5 -356.5t-363.5 -139.5q-142 0 -258 60.5t-184 174.5t-68 261v969h113v-957q0 -183 110 -296t287 -113q179 0 288.5 115.5t109.5 293.5v957zM406 1651v78h487v-78h-487z" />
    <glyph glyph-name="umacron" unicode="&#x16b;" horiz-adv-x="1079" 
d="M854 1055h107v-1055h-91l-12 213q-52 -111 -151.5 -177.5t-221.5 -66.5q-178 0 -282.5 112t-104.5 286v688h109v-680q0 -139 77 -227.5t218 -88.5q107 0 189 64t122.5 160t40.5 202v570zM297 1272v78h487v-78h-487z" />
    <glyph glyph-name="Ubreve" unicode="&#x16c;" horiz-adv-x="1296" 
d="M1047 1434h110v-969q0 -217 -144.5 -356.5t-363.5 -139.5q-142 0 -258 60.5t-184 174.5t-68 261v969h113v-957q0 -183 110 -296t287 -113q179 0 288.5 115.5t109.5 293.5v957zM649 1657q80 0 128.5 47t60.5 127h77q-14 -116 -82.5 -185t-183.5 -69t-182.5 68.5
t-83.5 185.5h78q11 -80 59.5 -127t128.5 -47z" />
    <glyph glyph-name="ubreve" unicode="&#x16d;" horiz-adv-x="1079" 
d="M854 1055h107v-1055h-91l-12 213q-52 -111 -151.5 -177.5t-221.5 -66.5q-178 0 -282.5 112t-104.5 286v688h109v-680q0 -139 77 -227.5t218 -88.5q107 0 189 64t122.5 160t40.5 202v570zM541 1278q79 0 127.5 46.5t60.5 127.5h78q-14 -116 -82.5 -185t-183.5 -69
t-183 68.5t-84 185.5h78q11 -80 60 -127t129 -47z" />
    <glyph glyph-name="Uring" unicode="&#x16e;" horiz-adv-x="1296" 
d="M649 1825q-42 0 -66 -24t-24 -66q0 -41 24.5 -65.5t65.5 -24.5t65.5 25t24.5 65q0 41 -24.5 65.5t-65.5 24.5zM1047 477v957h110v-969q0 -217 -144.5 -356.5t-363.5 -139.5q-142 0 -258 60.5t-184 174.5t-68 261v969h113v-957q0 -183 110 -296t287 -113
q179 0 288.5 115.5t109.5 293.5zM649 1894q71 0 116.5 -44.5t45.5 -114.5q0 -69 -45.5 -113.5t-114.5 -44.5q-71 0 -117.5 44t-46.5 114t46 114.5t116 44.5z" />
    <glyph glyph-name="uring" unicode="&#x16f;" horiz-adv-x="1079" 
d="M541 1446q-42 0 -66 -24t-24 -66q0 -41 24.5 -65.5t65.5 -24.5t65.5 25t24.5 65q0 41 -24.5 65.5t-65.5 24.5zM854 485v570h107v-1055h-91l-12 213q-52 -111 -151.5 -177.5t-221.5 -66.5q-178 0 -282.5 112t-104.5 286v688h109v-680q0 -139 77 -227.5t218 -88.5
q107 0 189 64t122.5 160t40.5 202zM541 1516q71 0 116 -45t45 -115q0 -69 -45 -113.5t-114 -44.5q-71 0 -117.5 44t-46.5 114t46 115t116 45z" />
    <glyph glyph-name="Uhungarumlaut" unicode="&#x170;" horiz-adv-x="1296" 
d="M1047 1434h110v-969q0 -217 -144.5 -356.5t-363.5 -139.5q-142 0 -258 60.5t-184 174.5t-68 261v969h113v-957q0 -183 110 -296t287 -113q179 0 288.5 115.5t109.5 293.5v957zM778 1849h107l-170 -252h-88zM555 1849h109l-164 -252h-88z" />
    <glyph glyph-name="uhungarumlaut" unicode="&#x171;" horiz-adv-x="1079" 
d="M854 1055h107v-1055h-91l-12 213q-52 -111 -151.5 -177.5t-221.5 -66.5q-178 0 -282.5 112t-104.5 286v688h109v-680q0 -139 77 -227.5t218 -88.5q107 0 189 64t122.5 160t40.5 202v570zM670 1470h106l-170 -251h-88zM446 1470h109l-164 -251h-88z" />
    <glyph glyph-name="Uogonek" unicode="&#x172;" horiz-adv-x="1296" 
d="M715 -27q-46 -4 -66 -4q-142 0 -258 60.5t-184 174.5t-68 261v969h113v-957q0 -183 110 -296t287 -113q179 0 288.5 115.5t109.5 293.5v957h110v-969q0 -170 -92 -295.5t-246 -173.5q-74 -54 -108.5 -105t-34.5 -112q0 -38 25 -63t65 -25q47 0 100 39l35 -64
q-77 -53 -147 -53q-74 0 -120 40.5t-46 115.5q0 108 127 204z" />
    <glyph glyph-name="uogonek" unicode="&#x173;" horiz-adv-x="1079" 
d="M887 0h-17l-12 213q-52 -111 -151.5 -177.5t-221.5 -66.5q-178 0 -282.5 112t-104.5 286v688h109v-680q0 -139 77 -227.5t218 -88.5q107 0 189 64t122.5 160t40.5 202v570h107v-1055q-79 -56 -115.5 -107t-36.5 -114q0 -38 25 -63t65 -25q47 0 100 39l35 -64
q-77 -53 -147 -53q-74 0 -120 40.5t-46 115.5q0 121 166 231z" />
    <glyph glyph-name="Wcircumflex" unicode="&#x174;" horiz-adv-x="1927" 
d="M1790 1434h115l-443 -1434h-116l-381 1264l-385 -1264h-115l-445 1434h117l385 -1272l385 1272h111l385 -1272zM920 1849h88l176 -252h-90l-131 185l-132 -185h-90z" />
    <glyph glyph-name="wcircumflex" unicode="&#x175;" horiz-adv-x="1587" 
d="M1452 1055h113l-367 -1055h-94l-311 901l-312 -901h-92l-369 1055h115l305 -912l308 912h90l309 -912zM750 1470h88l176 -251h-90l-131 184l-131 -184h-91z" />
    <glyph glyph-name="Ycircumflex" unicode="&#x176;" horiz-adv-x="1220" 
d="M1071 1434h127l-532 -914v-520h-113v520l-533 914h127l461 -795zM567 1849h88l176 -252h-90l-131 185l-131 -185h-90z" />
    <glyph glyph-name="ycircumflex" unicode="&#x177;" horiz-adv-x="1036" 
d="M528 115l373 940h115l-514 -1274q-45 -119 -119.5 -176.5t-187.5 -57.5q-41 0 -72 7v88q54 -9 74 -9q72 0 122.5 42.5t75.5 105.5l88 219h-16l-444 1055h116zM475 1470h88l176 -251h-90l-131 184l-131 -184h-90z" />
    <glyph glyph-name="Ydieresis" unicode="&#x178;" horiz-adv-x="1220" 
d="M1071 1434h127l-532 -914v-520h-113v520l-533 914h127l461 -795zM700 1622v166h107v-166h-107zM414 1622v166h108v-166h-108z" />
    <glyph glyph-name="Zacute" unicode="&#x179;" horiz-adv-x="1245" 
d="M135 1434h981v-74l-848 -1264h858v-96h-1007v74l846 1263h-830v97zM731 1851h113l-180 -252h-91z" />
    <glyph glyph-name="zacute" unicode="&#x17a;" horiz-adv-x="1007" 
d="M102 1055h822v-70l-697 -895h699v-90h-846v70l694 893h-672v92zM616 1470h113l-180 -251h-90z" />
    <glyph glyph-name="Zdotaccent" unicode="&#x17b;" horiz-adv-x="1245" 
d="M135 1434h981v-74l-848 -1264h858v-96h-1007v74l846 1263h-830v97zM567 1620v166h109v-166h-109z" />
    <glyph glyph-name="zdotaccent" unicode="&#x17c;" horiz-adv-x="1007" 
d="M102 1055h822v-70l-697 -895h699v-90h-846v70l694 893h-672v92zM449 1241v166h108v-166h-108z" />
    <glyph glyph-name="Zcaron" unicode="&#x17d;" horiz-adv-x="1245" 
d="M135 1434h981v-74l-848 -1264h858v-96h-1007v74l846 1263h-830v97zM754 1849h90l-176 -252h-88l-179 252h91l131 -182z" />
    <glyph glyph-name="zcaron" unicode="&#x17e;" horiz-adv-x="1007" 
d="M102 1055h822v-70l-697 -895h699v-90h-846v70l694 893h-672v92zM635 1470h90l-176 -251h-88l-178 251h90l131 -182z" />
    <glyph glyph-name="uni018F" unicode="&#x18f;" horiz-adv-x="1564" 
d="M1350 639h-1133q11 -116 54 -218.5t113.5 -181.5t173 -125t224.5 -46t225.5 46.5t173.5 126t113.5 181.5t55.5 217zM1468 717q0 -120 -29.5 -231t-88 -205t-140 -163.5t-191.5 -109t-237 -39.5q-157 0 -287.5 61.5t-216.5 167t-133 244t-47 293.5h1254q-2 123 -42 236
t-111 201.5t-179.5 141t-237.5 52.5q-206 0 -351 -111.5t-183 -298.5h-117q43 228 221 368t430 140q158 0 289 -60.5t217 -163.5t133 -238t47 -285z" />
    <glyph glyph-name="florin" unicode="&#x192;" horiz-adv-x="862" 
d="M236 813v92h180l35 340q10 103 78 161t173 58q56 0 93 -14v-96l-5 2q-4 1 -12 3.5t-18 5t-25 4t-30 1.5q-69 0 -105 -39.5t-43 -99.5l-33 -326h211v-92h-221l-102 -997q-12 -105 -79.5 -163.5t-172.5 -58.5q-52 0 -92 15v96l4 -1q5 -2 13 -4.5t18.5 -5t25 -4t29.5 -1.5
q69 0 104.5 39.5t40.5 99.5l103 985h-170z" />
    <glyph glyph-name="uni01F4" unicode="&#x1f4;" horiz-adv-x="1548" 
d="M780 600v98h670v-698h-94l-8 373q-65 -183 -209 -293.5t-355 -110.5q-127 0 -237 39.5t-191.5 109t-140 163.5t-88 205t-29.5 231q0 150 47 285t133 238t217 163.5t289 60.5q252 0 430.5 -140t221.5 -368h-119q-37 187 -182.5 298.5t-352.5 111.5q-131 0 -240.5 -54.5
t-180.5 -145.5t-109.5 -207t-38.5 -242q0 -100 24 -195t72.5 -177t116 -144t160.5 -97.5t200 -35.5q118 0 214 41t161.5 114t106 168.5t53.5 208.5h-541zM893 1849h113l-181 -252h-90z" />
    <glyph glyph-name="uni01F5" unicode="&#x1f5;" horiz-adv-x="1198" 
d="M584 993q-185 0 -297.5 -126.5t-112.5 -309.5q0 -185 112.5 -308.5t293.5 -123.5q122 0 214 60.5t137.5 158t45.5 215.5q0 119 -46.5 217t-137.5 157.5t-209 59.5zM563 1087q135 0 246.5 -66.5t169.5 -186.5l10 221h88v-996q0 -234 -132.5 -373t-356.5 -139
q-119 0 -219.5 38.5t-174 120.5t-98.5 196h105q32 -132 135 -197t246 -65q182 0 287.5 112t105.5 301v223q-58 -117 -167.5 -181t-244.5 -64q-143 0 -256.5 71.5t-175 191.5t-61.5 265q0 141 59.5 261t173.5 193.5t260 73.5zM463 1219l158 251h112l-180 -251h-90z" />
    <glyph glyph-name="Aringacute" unicode="&#x1fa;" horiz-adv-x="1308" 
d="M360 557h586l-293 739zM653 1718q-42 0 -66 -24t-24 -66q0 -41 24.5 -65.5t65.5 -24.5t65.5 25t24.5 65q0 41 -24.5 65.5t-65.5 24.5zM141 0h-121l574 1434h119l573 -1434h-121l-184 463h-655zM653 1788q71 0 116.5 -45t45.5 -115q0 -69 -45.5 -113.5t-114.5 -44.5
q-71 0 -117 44t-46 114t46 115t115 45zM604 1815l158 251h112l-180 -251h-90z" />
    <glyph glyph-name="aringacute" unicode="&#x1fb;" horiz-adv-x="1189" 
d="M453 489q-44 -8 -78 -17t-71 -26.5t-61.5 -39.5t-40.5 -57t-16 -79q0 -211 283 -211q101 0 196 41.5t160 122t68 180.5v177q-18 -19 -84 -29zM596 1446q-42 0 -66 -24t-24 -66q0 -41 24.5 -65.5t65.5 -24.5t65.5 25t24.5 65q0 41 -24.5 65.5t-65.5 24.5zM418 571
q317 50 385 62q90 12 90 80q0 131 -82 205.5t-244 74.5q-143 0 -242 -68t-112 -194h-109q15 116 81 197.5t162.5 119t217.5 37.5q206 0 319 -100t113 -301v-473q0 -79 18 -119.5t75 -40.5h18v-82h-47q-47 0 -79.5 18.5t-49.5 52.5t-24.5 73t-8.5 90q-63 -107 -186.5 -170.5
t-253.5 -63.5q-172 0 -275.5 73t-103.5 222q0 72 27.5 127.5t76.5 91t106.5 56.5t127.5 32zM596 1516q71 0 116.5 -45t45.5 -115q0 -69 -45.5 -113.5t-114.5 -44.5q-71 0 -117.5 44t-46.5 114t46 115t116 45zM549 1589l158 252h112l-180 -252h-90z" />
    <glyph glyph-name="AEacute" unicode="&#x1fc;" horiz-adv-x="2048" 
d="M1032 557v733l-500 -733h500zM23 0l974 1434h932v-97h-784v-567h719v-94h-719v-580h784v-96h-897v463h-559l-315 -463h-135zM1075 1597l158 252h113l-181 -252h-90z" />
    <glyph glyph-name="aeacute" unicode="&#x1fd;" horiz-adv-x="1984" 
d="M885 571q-29 -12 -76 -20l-356 -62q-44 -8 -78 -17t-71 -26.5t-61.5 -39.5t-40.5 -57t-16 -79q0 -211 283 -211q93 0 179.5 33t157 105.5t97.5 173.5q-20 70 -20 157q0 29 2 43zM1401 997q-169 0 -279.5 -115.5t-128.5 -279.5h815q-19 170 -129.5 282.5t-277.5 112.5z
M1401 1085q137 0 248.5 -65t179.5 -176q96 -153 84 -334h-924q2 -124 56 -227t153 -164.5t223 -61.5t221.5 63.5t147.5 176.5h111q-53 -151 -184 -239.5t-294 -88.5q-160 0 -286.5 78.5t-192.5 212.5q-36 -77 -94.5 -135.5t-126 -91t-134 -48.5t-130.5 -16q-172 0 -275.5 73
t-103.5 222q0 72 27.5 127.5t76.5 91t106.5 56.5t127.5 32q317 50 385 62q90 12 90 80q0 131 -82 205.5t-244 74.5q-143 0 -242 -68t-112 -194h-109q15 116 81 197.5t162.5 119t217.5 37.5q328 0 408 -237q68 109 179 173t249 64zM932 1219l158 251h112l-180 -251h-90z" />
    <glyph glyph-name="Oslashacute" unicode="&#x1fe;" horiz-adv-x="1570" 
d="M379 248l756 993q-144 125 -349 125q-134 0 -244 -54t-180.5 -145t-108.5 -207t-38 -243q0 -133 42.5 -256t121.5 -213zM1192 1186l-756 -993q146 -123 350 -123q133 0 243 54t180.5 144.5t108.5 206t38 242.5q0 134 -42.5 256.5t-121.5 212.5zM266 -31h-98l143 189
q-102 105 -157.5 251t-55.5 308q0 150 47 284.5t133 237.5t217.5 164t290.5 61q240 0 414 -137l105 137h98l-143 -188q102 -104 157.5 -250t55.5 -309q0 -150 -47 -284.5t-133 -238t-217.5 -164.5t-289.5 -61q-241 0 -415 137zM649 1597l158 252h113l-181 -252h-90z" />
    <glyph glyph-name="oslashacute" unicode="&#x1ff;" horiz-adv-x="1230" 
d="M309 190l551 725q-114 80 -246 80q-124 0 -225.5 -65t-157 -171.5t-55.5 -230.5q0 -96 35 -184t98 -154zM920 864l-551 -725q111 -78 245 -78q124 0 226 66.5t157.5 173t55.5 227.5q0 94 -35 181.5t-98 154.5zM989 1085h98l-106 -141q84 -76 131 -184.5t47 -231.5
q0 -151 -69.5 -279t-195.5 -204t-280 -76q-171 0 -305 92l-69 -92h-99l107 142q-84 76 -131 184t-47 233q0 154 70.5 281.5t195.5 201.5t278 74q172 0 306 -92zM565 1219l158 251h113l-181 -251h-90z" />
    <glyph glyph-name="uni0218" unicode="&#x218;" horiz-adv-x="1277" 
d="M627 1464q212 0 352 -107.5t170 -309.5h-111q-71 321 -411 321q-75 0 -139 -14t-119 -44.5t-87 -85t-32 -128.5q0 -39 8.5 -72.5t21 -59t35.5 -47.5t43 -37.5t54 -29.5t58 -22t64.5 -17t65 -13.5t66.5 -11.5q60 -10 105 -20t101.5 -27t97.5 -37.5t83 -52t68 -70
t42.5 -91.5t16.5 -117q0 -85 -30 -154.5t-79.5 -115t-116.5 -76t-138 -43.5t-146 -13q-246 0 -392.5 117.5t-179.5 353.5h113q56 -374 461 -374q58 0 112.5 10t106.5 33t90.5 57t62 86t23.5 117q0 59 -18.5 107t-55 80.5t-75 55t-96 38.5t-98 24.5t-99.5 17.5
q-88 14 -154 30.5t-132 47t-108 72t-68 105t-26 145.5q0 96 40.5 169.5t110.5 116.5t155.5 64.5t183.5 21.5zM551 -578l-19 37q149 69 152 174h-80v181h150v-133q0 -90 -56 -156.5t-147 -102.5z" />
    <glyph glyph-name="uni0219" unicode="&#x219;" horiz-adv-x="1024" 
d="M498 1085q81 0 152 -18.5t129.5 -55t97.5 -98.5t51 -143h-103q-51 227 -329 227q-113 0 -200 -53t-87 -151q0 -46 22.5 -81.5t48 -54.5t79.5 -35t80.5 -20.5t88.5 -13.5q18 -3 27 -4q70 -11 120 -22.5t104.5 -35.5t88.5 -56.5t56 -84t22 -119.5q0 -76 -37.5 -135.5
t-99 -93.5t-132 -51t-145.5 -17q-119 0 -217.5 38.5t-163.5 121t-73 197.5h106q5 -88 57.5 -150t128 -89.5t165.5 -27.5q54 0 105.5 10.5t99.5 32.5t77 63t29 95q0 41 -13 74.5t-32 56.5t-53 41.5t-61.5 29t-73 20t-72.5 13t-74 9.5q-58 8 -104.5 19.5t-96 33.5t-82.5 51.5
t-54 76.5t-21 106q0 74 35.5 132t93 92.5t124.5 52t136 17.5zM399 -578l-18 37q148 69 151 174h-79v181h149v-133q0 -90 -56 -156.5t-147 -102.5z" />
    <glyph glyph-name="uni021A" unicode="&#x21a;" horiz-adv-x="1300" 
d="M82 1434h1135v-95h-512v-1339h-113v1339h-510v95zM532 -578l-18 37q149 69 152 174h-80v181h149v-133q0 -90 -56 -156.5t-147 -102.5z" />
    <glyph glyph-name="uni021B" unicode="&#x21b;" horiz-adv-x="657" 
d="M242 1366h108v-311h225v-92h-225v-756q0 -63 33.5 -102t103.5 -39q15 0 29.5 1.5t25 3.5t18.5 4t13 3l5 2v-94q-68 -17 -107 -17q-106 0 -167.5 59.5t-61.5 172.5v762h-181v92h68q56 0 84.5 25.5t28.5 88.5v197zM322 -578l-19 37q149 69 152 174h-80v181h149v-133
q0 -91 -55.5 -157t-146.5 -102z" />
    <glyph glyph-name="uni0232" unicode="&#x232;" horiz-adv-x="1220" 
d="M1071 1434h127l-532 -914v-520h-113v520l-533 914h127l461 -795zM367 1651v78h487v-78h-487z" />
    <glyph glyph-name="uni0233" unicode="&#x233;" horiz-adv-x="1036" 
d="M528 115l373 940h115l-514 -1274q-45 -119 -119.5 -176.5t-187.5 -57.5q-41 0 -72 7v88q54 -9 74 -9q72 0 122.5 42.5t75.5 105.5l88 219h-16l-444 1055h116zM274 1272v78h488v-78h-488z" />
    <glyph glyph-name="uni0237" unicode="&#x237;" horiz-adv-x="372" 
d="M143 -219v1274h107v-1272q0 -115 -62.5 -175.5t-173.5 -60.5q-45 0 -96 17v94q2 -2 12.5 -5.5t32.5 -7t45 -3.5q67 0 101 39.5t34 99.5z" />
    <glyph glyph-name="uni0259" unicode="&#x259;" horiz-adv-x="1171" 
d="M586 57q169 0 279 116t128 282h-815q19 -172 129.5 -285t278.5 -113zM586 -31q-136 0 -248 65t-180 177q-96 156 -84 336h923q-2 123 -56 226t-153 164.5t-223 61.5t-222 -64t-148 -175h-109q53 151 183 238t294 87q153 0 277 -72.5t194 -200t70 -284.5
q0 -149 -63.5 -276t-183.5 -205t-271 -78z" />
    <glyph glyph-name="circumflex" unicode="&#x2c6;" horiz-adv-x="681" 
d="M297 1470h88l176 -251h-90l-131 184l-131 -184h-90z" />
    <glyph glyph-name="caron" unicode="&#x2c7;" horiz-adv-x="679" 
d="M471 1470h90l-176 -251h-88l-178 251h90l131 -182z" />
    <glyph glyph-name="breve" unicode="&#x2d8;" horiz-adv-x="768" 
d="M385 1278q79 0 127.5 46.5t60.5 127.5h78q-14 -116 -82.5 -185t-183.5 -69t-182.5 68.5t-83.5 185.5h78q11 -80 59.5 -127t128.5 -47z" />
    <glyph glyph-name="dotaccent" unicode="&#x2d9;" horiz-adv-x="428" 
d="M160 1241v166h108v-166h-108z" />
    <glyph glyph-name="ring" unicode="&#x2da;" horiz-adv-x="559" 
d="M281 1446q-42 0 -66.5 -24t-24.5 -66q0 -41 25 -65.5t66 -24.5t65.5 25t24.5 65q0 41 -24.5 65.5t-65.5 24.5zM281 1516q71 0 116 -45t45 -115q0 -69 -45 -113.5t-114 -44.5q-71 0 -117.5 44t-46.5 114t46 115t116 45z" />
    <glyph glyph-name="ogonek" unicode="&#x2db;" horiz-adv-x="550" 
d="M313 18l45 -18q-79 -56 -115 -107t-36 -114q0 -38 25 -63t65 -25q47 0 100 39l35 -64q-77 -53 -147 -53q-74 0 -120 40.5t-46 115.5q0 133 194 249z" />
    <glyph glyph-name="tilde" unicode="&#x2dc;" horiz-adv-x="825" 
d="M274 1389q38 0 78.5 -18t69.5 -39.5t65.5 -39.5t67.5 -18q42 0 62 29.5t18 72.5h72q5 -73 -35.5 -125.5t-112.5 -52.5q-37 0 -77.5 18t-69.5 39.5t-66 39.5t-67 18q-45 0 -65.5 -29.5t-20.5 -77.5h-74q2 80 41.5 131.5t113.5 51.5z" />
    <glyph glyph-name="hungarumlaut" unicode="&#x2dd;" horiz-adv-x="710" 
d="M485 1470h107l-170 -251h-88zM262 1470h109l-164 -251h-88z" />
    <glyph glyph-name="uni0307" unicode="&#x307;" horiz-adv-x="428" 
d="M160 1241v166h108v-166h-108z" />
    <glyph glyph-name="uni0312" unicode="&#x312;" horiz-adv-x="0" 
d="M117 1458h41l-58 -315h-77z" />
    <glyph glyph-name="uni0326" unicode="&#x326;" horiz-adv-x="0" 
d="M6 -578l-18 37q148 69 151 174h-80v181h150v-133q0 -90 -56 -156.5t-147 -102.5z" />
    <glyph glyph-name="uni0394" unicode="&#x394;" horiz-adv-x="1368" 
d="M1188 96l-504 1266l-506 -1266h1010zM20 0l592 1464h144l592 -1464h-1328z" />
    <glyph glyph-name="uni03A9" unicode="&#x3a9;" horiz-adv-x="1615" 
d="M807 1464q160 0 291.5 -56.5t218 -154t133.5 -228.5t47 -280q0 -210 -104.5 -380.5t-288.5 -268.5h313v-96h-497v106q206 73 332 235.5t126 397.5q0 128 -37 240t-106.5 198.5t-180 136.5t-247.5 50t-246.5 -50t-179 -136.5t-106.5 -198.5t-37 -240q0 -236 125 -398
t331 -235v-106h-495v96h311q-182 98 -286.5 268.5t-104.5 380.5q0 149 47 279.5t133 228.5t217 154.5t291 56.5z" />
    <glyph glyph-name="uni03BC" unicode="&#x3bc;" horiz-adv-x="1099" 
d="M217 -322h-98v1379h108v-682q0 -138 77 -227t218 -89q107 0 189 64t122.5 160t40.5 202v572h107v-1057h-90l-12 213q-52 -112 -148.5 -178t-216.5 -66q-97 0 -173.5 35.5t-123.5 101.5v-428z" />
    <glyph glyph-name="pi" unicode="&#x3c0;" horiz-adv-x="1331" 
d="M881 205v756h-488v-961h-106v961h-168v96h1055v-96h-189v-758q0 -60 35 -100t102 -40q23 0 45 4t32.5 7.5t12.5 5.5v-94q-51 -17 -96 -17q-110 0 -172.5 60.5t-62.5 175.5z" />
    <glyph glyph-name="uni0E3F" unicode="&#xe3f;" horiz-adv-x="1255" 
d="M494 92v619h-222v-619h222zM584 711v-619h92q101 0 181.5 32.5t131.5 104.5t51 174q0 146 -96.5 227t-263.5 81h-96zM494 801v542h-224v-542h224zM584 1343v-542h88q147 0 226 68.5t79 201.5q0 134 -92.5 203t-229.5 69h-71zM494 1434v219h90v-219h88q66 0 126 -13
t113 -41t92 -69t61.5 -101t22.5 -133q0 -224 -194 -319q125 -40 194.5 -133t69.5 -224q0 -102 -39 -180.5t-106 -126t-150 -71t-178 -23.5h-100v-219h-90v219h-334v1434h334z" />
    <glyph glyph-name="uni1E44" unicode="&#x1e44;" horiz-adv-x="1355" 
d="M1085 1434h113v-1434h-125l-801 1253v-1253h-112v1434h127l798 -1256v1256zM625 1620v166h108v-166h-108z" />
    <glyph glyph-name="uni1E45" unicode="&#x1e45;" horiz-adv-x="1079" 
d="M596 1085q178 0 281.5 -111.5t103.5 -285.5v-688h-107v680q0 139 -77.5 228t-218.5 89q-81 0 -148.5 -37.5t-111 -99t-67.5 -137t-24 -154.5v-569h-108v1055h90l12 -213q52 111 152 177t223 66zM485 1241v166h109v-166h-109z" />
    <glyph glyph-name="Wgrave" unicode="&#x1e80;" horiz-adv-x="1927" 
d="M1790 1434h115l-443 -1434h-116l-381 1264l-385 -1264h-115l-445 1434h117l385 -1272l385 1272h111l385 -1272zM743 1849h111l160 -252h-90z" />
    <glyph glyph-name="wgrave" unicode="&#x1e81;" horiz-adv-x="1587" 
d="M1452 1055h113l-367 -1055h-94l-311 901l-312 -901h-92l-369 1055h115l305 -912l308 912h90l309 -912zM563 1470h111l160 -251h-91z" />
    <glyph glyph-name="Wacute" unicode="&#x1e82;" horiz-adv-x="1927" 
d="M1790 1434h115l-443 -1434h-116l-381 1264l-385 -1264h-115l-445 1434h117l385 -1272l385 1272h111l385 -1272zM1081 1849h113l-180 -252h-90z" />
    <glyph glyph-name="wacute" unicode="&#x1e83;" horiz-adv-x="1587" 
d="M1452 1055h113l-367 -1055h-94l-311 901l-312 -901h-92l-369 1055h115l305 -912l308 912h90l309 -912zM913 1470h113l-180 -251h-90z" />
    <glyph glyph-name="Wdieresis" unicode="&#x1e84;" horiz-adv-x="1927" 
d="M1790 1434h115l-443 -1434h-116l-381 1264l-385 -1264h-115l-445 1434h117l385 -1272l385 1272h111l385 -1272zM1053 1622v166h106v-166h-106zM766 1622v166h108v-166h-108z" />
    <glyph glyph-name="wdieresis" unicode="&#x1e85;" horiz-adv-x="1587" 
d="M1452 1055h113l-367 -1055h-94l-311 901l-312 -901h-92l-369 1055h115l305 -912l308 912h90l309 -912zM883 1243v166h106v-166h-106zM596 1243v166h109v-166h-109z" />
    <glyph glyph-name="Germandbls" unicode="&#x1e9e;" horiz-adv-x="1216" 
d="M592 1464q71 0 139.5 -22t114.5 -51t85.5 -64t56 -54.5t22.5 -29.5v-45l-338 -399q200 -23 313 -135.5t113 -270.5q0 -105 -36.5 -187t-101 -133t-148 -77.5t-181.5 -26.5q-130 0 -228 49v95q93 -52 215 -52q164 0 265.5 88t101.5 250q0 83 -35 147.5t-95 103t-134 58
t-158 19.5v86l340 399l-9 10q-8 9 -23 23t-35.5 31t-47.5 34t-57 31t-67 22.5t-74 8.5q-152 0 -237 -104t-85 -262v-1006h-108v997q0 208 112 337.5t320 129.5z" />
    <glyph glyph-name="uni1EB8" unicode="&#x1eb8;" horiz-adv-x="1175" 
d="M160 1434h897v-99h-785v-567h719v-92h-719v-580h785v-96h-897v1434zM555 -416v166h107v-166h-107z" />
    <glyph glyph-name="uni1EB9" unicode="&#x1eb9;" horiz-adv-x="1171" 
d="M588 995q-114 0 -204.5 -56t-141 -144t-62.5 -195h815q-21 170 -130.5 282.5t-276.5 112.5zM588 1085q135 0 246.5 -65.5t179.5 -175.5q98 -154 86 -336h-924q3 -189 124.5 -321t307.5 -132q123 0 221.5 64t147.5 176h110q-55 -151 -185 -239.5t-292 -88.5
q-154 0 -278 73t-193 200.5t-69 285.5q0 148 63.5 275t183.5 205.5t271 78.5zM639 -416h-109v166h109v-166z" />
    <glyph glyph-name="uni1EBC" unicode="&#x1ebc;" horiz-adv-x="1175" 
d="M160 1434h897v-97h-785v-567h719v-94h-719v-580h785v-96h-897v1434zM469 1767q38 0 78.5 -18t69.5 -39t65.5 -39t67.5 -18q42 0 61.5 29t17.5 73h72q5 -73 -35 -125.5t-112 -52.5q-37 0 -77.5 18t-70 39.5t-66.5 39.5t-67 18q-45 0 -65.5 -29.5t-20.5 -77.5h-74
q2 80 41.5 131t114.5 51z" />
    <glyph glyph-name="uni1EBD" unicode="&#x1ebd;" horiz-adv-x="1171" 
d="M588 997q-169 0 -279.5 -115.5t-128.5 -279.5h815q-21 170 -130.5 282.5t-276.5 112.5zM588 1085q135 0 246.5 -65t179.5 -176q98 -154 86 -334h-924q2 -124 56 -227t153 -164.5t223 -61.5q123 0 221.5 64t147.5 176h110q-55 -151 -185 -239.5t-292 -88.5q-154 0 -278 73
t-193 200.5t-69 285.5q0 148 63.5 274.5t183.5 204.5t271 78zM446 1389q38 0 78.5 -18t69.5 -39.5t65.5 -39.5t67.5 -18q42 0 62 29.5t18 72.5h72q5 -73 -35.5 -125.5t-112.5 -52.5q-37 0 -77.5 18t-69.5 39.5t-66 39.5t-67 18q-45 0 -65.5 -29.5t-20.5 -77.5h-74
q2 80 41.5 131.5t113.5 51.5z" />
    <glyph glyph-name="uni1ECA" unicode="&#x1eca;" horiz-adv-x="432" 
d="M162 -416v166h108v-166h-108zM160 0v1434h112v-1434h-112z" />
    <glyph glyph-name="uni1ECB" unicode="&#x1ecb;" horiz-adv-x="350" 
d="M119 -416v166h108v-166h-108zM117 1266v168h112v-168h-112zM121 0v1055h106v-1055h-106z" />
    <glyph glyph-name="uni1ECC" unicode="&#x1ecc;" horiz-adv-x="1570" 
d="M731 -416v166h109v-166h-109zM786 1364q-134 0 -244 -54t-180.5 -144.5t-108.5 -206t-38 -242.5t38 -243t108.5 -207t180.5 -145t244 -54q133 0 243 54t180.5 145t108.5 207t38 243t-38 242.5t-108.5 206t-180.5 144.5t-243 54zM786 1464q158 0 289.5 -61t217.5 -164
t133 -237.5t47 -284.5q0 -119 -29.5 -230t-88 -205.5t-140 -164.5t-192 -110t-237.5 -40q-159 0 -290.5 61t-217.5 165t-133 239t-47 285t47 284.5t133 237.5t217.5 164t290.5 61z" />
    <glyph glyph-name="uni1ECD" unicode="&#x1ecd;" horiz-adv-x="1230" 
d="M561 -416v166h109v-166h-109zM614 993q-124 0 -225.5 -65t-157 -171.5t-55.5 -230.5t55.5 -230.5t157 -171.5t225.5 -65t226 66.5t157.5 173t55.5 227.5q0 122 -56.5 229t-158 172.5t-224.5 65.5zM614 1085q152 0 277.5 -74.5t196.5 -202.5t71 -282q0 -151 -69.5 -278.5
t-195.5 -204t-280 -76.5q-153 0 -278 74.5t-195.5 202.5t-70.5 282q0 155 70.5 283t195.5 202t278 74z" />
    <glyph glyph-name="uni1EE4" unicode="&#x1ee4;" horiz-adv-x="1296" 
d="M594 -416v166h108v-166h-108zM1047 477v957h110v-971q0 -217 -144.5 -356.5t-363.5 -139.5q-218 0 -364 138t-146 358v971h113v-957q0 -183 110 -296t287 -113q179 0 288.5 115t109.5 294z" />
    <glyph glyph-name="uni1EE5" unicode="&#x1ee5;" horiz-adv-x="1079" 
d="M475 -416v166h109v-166h-109zM854 485v570h107v-1055h-91l-12 213q-52 -111 -151.5 -177.5t-221.5 -66.5q-178 0 -282.5 112t-104.5 286v688h109v-680q0 -140 77 -229t218 -89q107 0 189 64t122.5 160.5t40.5 203.5z" />
    <glyph glyph-name="Ygrave" unicode="&#x1ef2;" horiz-adv-x="1220" 
d="M1071 1434h127l-532 -914v-520h-113v520l-533 914h127l461 -795zM395 1849h111l160 -252h-91z" />
    <glyph glyph-name="ygrave" unicode="&#x1ef3;" horiz-adv-x="1036" 
d="M528 115l373 940h115l-514 -1274q-45 -119 -119.5 -176.5t-187.5 -57.5q-41 0 -72 7v88q54 -9 74 -9q72 0 122.5 42.5t75.5 105.5l88 219h-16l-444 1055h116zM307 1470h111l160 -251h-91z" />
    <glyph glyph-name="uni1EF8" unicode="&#x1ef8;" horiz-adv-x="1220" 
d="M1071 1434h127l-532 -914v-520h-113v520l-533 914h127l461 -795zM471 1767q38 0 78.5 -18t69.5 -39t65.5 -39t67.5 -18q42 0 61.5 29t17.5 73h72q5 -73 -35 -125.5t-112 -52.5q-37 0 -77.5 18t-70 39.5t-66.5 39.5t-67 18q-45 0 -65.5 -29.5t-20.5 -77.5h-74
q2 80 41.5 131t114.5 51z" />
    <glyph glyph-name="uni1EF9" unicode="&#x1ef9;" horiz-adv-x="1036" 
d="M528 115l373 940h115l-514 -1274q-45 -119 -119.5 -176.5t-187.5 -57.5q-41 0 -72 7v88q54 -9 74 -9q72 0 122.5 42.5t75.5 105.5l88 219h-16l-444 1055h116zM381 1389q38 0 78.5 -18t69.5 -39.5t65.5 -39.5t67.5 -18q42 0 61.5 29t17.5 73h72q5 -73 -35 -125.5
t-112 -52.5q-47 0 -98 29t-98 57.5t-85 28.5q-45 0 -65.5 -29.5t-20.5 -77.5h-74q2 80 42 131.5t114 51.5z" />
    <glyph glyph-name="endash" unicode="&#x2013;" horiz-adv-x="960" 
d="M160 549v98h639v-98h-639z" />
    <glyph glyph-name="emdash" unicode="&#x2014;" horiz-adv-x="1382" 
d="M0 549v96h1260v-96h-1260z" />
    <glyph glyph-name="uni2015" unicode="&#x2015;" horiz-adv-x="1779" 
d="M2 551v96h1778v-96h-1778z" />
    <glyph glyph-name="quoteleft" unicode="&#x2018;" horiz-adv-x="444" 
d="M348 1434l21 -50q-64 -30 -96 -72t-33 -104h77v-168h-157v117q0 107 45.5 173.5t142.5 103.5z" />
    <glyph glyph-name="quoteright" unicode="&#x2019;" horiz-adv-x="444" 
d="M127 1434h156v-119q0 -106 -45 -172t-142 -103l-22 47q128 58 131 179h-78v168z" />
    <glyph glyph-name="quotesinglbase" unicode="&#x201a;" horiz-adv-x="444" 
d="M127 168h156v-119q0 -106 -45 -171.5t-142 -102.5l-22 47q128 58 131 178h-78v168z" />
    <glyph glyph-name="quotedblleft" unicode="&#x201c;" horiz-adv-x="704" 
d="M348 1434l21 -50q-64 -30 -96 -72t-33 -104h77v-168h-157v117q0 107 45.5 173.5t142.5 103.5zM608 1434l23 -50q-66 -30 -98 -72t-33 -104h78v-168h-158v117q0 107 45.5 173.5t142.5 103.5z" />
    <glyph glyph-name="quotedblright" unicode="&#x201d;" horiz-adv-x="704" 
d="M387 1434h158v-119q0 -105 -46 -171.5t-143 -103.5l-22 47q128 58 131 179h-78v168zM127 1434h156v-119q0 -106 -45 -172t-142 -103l-22 47q128 58 131 179h-78v168z" />
    <glyph glyph-name="quotedblbase" unicode="&#x201e;" horiz-adv-x="704" 
d="M387 168h158v-119q0 -105 -46 -171t-143 -103l-22 47q128 58 131 178h-78v168zM127 168h156v-119q0 -106 -45 -171.5t-142 -102.5l-22 47q128 58 131 178h-78v168z" />
    <glyph glyph-name="dagger" unicode="&#x2020;" horiz-adv-x="1019" 
d="M459 1464h102v-372h340v-93h-340v-1030h-102v1030h-340v93h340v372z" />
    <glyph glyph-name="daggerdbl" unicode="&#x2021;" horiz-adv-x="1019" 
d="M459 1464h102v-307h340v-90h-340v-700h340v-91h-340v-307h-102v307h-340v91h340v700h-340v90h340v307z" />
    <glyph glyph-name="bullet" unicode="&#x2022;" horiz-adv-x="811" 
d="M645 715q0 -100 -70 -171t-169 -71q-100 0 -171 71t-71 171q0 99 71 169t171 70t169.5 -69.5t69.5 -169.5z" />
    <glyph glyph-name="ellipsis" unicode="&#x2026;" horiz-adv-x="1273" 
d="M160 0v168h155v-168h-155zM557 0v168h158v-168h-158zM958 0v168h156v-168h-156z" />
    <glyph glyph-name="perthousand" unicode="&#x2030;" horiz-adv-x="2641" 
d="M1368 1434h105l-961 -1434h-104zM461 1384q-250 0 -250 -346q0 -344 250 -344q252 0 252 344q0 346 -252 346zM461 1464q75 0 134 -22.5t98 -61t64.5 -93.5t36.5 -116.5t11 -132.5q0 -89 -19 -163.5t-58 -134t-107.5 -93t-159.5 -33.5t-159 34t-107 94t-57.5 134
t-18.5 162q0 71 11 132.5t36.5 116t64 93.5t97.5 61.5t133 22.5zM1395 741q-250 0 -250 -344t250 -344q252 0 252 344t-252 344zM1395 823q93 0 161.5 -34t107 -94.5t57 -134.5t18.5 -163t-19 -163.5t-58 -134.5t-107.5 -94t-159.5 -34t-159 34t-107 94.5t-57.5 134.5
t-18.5 163t18.5 163t57 134.5t106.5 94.5t160 34zM2181 741q-252 0 -252 -344t252 -344q250 0 250 344t-250 344zM2181 823q92 0 160 -34t106.5 -94.5t57 -134.5t18.5 -163t-19 -163.5t-58 -134.5t-106.5 -94t-158.5 -34q-74 0 -133 22.5t-98 61.5t-65 94t-37 116.5
t-11 131.5q0 89 18.5 163t57 134.5t107 94.5t161.5 34z" />
    <glyph glyph-name="guilsinglleft" unicode="&#x2039;" horiz-adv-x="851" 
d="M557 1196h133l-436 -479l436 -479h-133l-438 479z" />
    <glyph glyph-name="guilsinglright" unicode="&#x203a;" horiz-adv-x="851" 
d="M160 1196h135l438 -479l-438 -479h-135l438 479z" />
    <glyph glyph-name="uni203D" unicode="&#x203d;" horiz-adv-x="1128" 
d="M471 0v166h158v-166h-158zM584 1464q177 0 300.5 -101t123.5 -265q0 -39 -6.5 -74.5t-15 -62t-27.5 -55t-32.5 -45.5t-43 -43t-45 -38.5t-52.5 -40.5t-53 -41q-71 -53 -102 -117.5t-31 -156.5v-62h-104l-19 713h105l-7 -405q33 41 93 88q106 83 131 107q81 78 95 178
q3 25 3 53q0 127 -92 202.5t-223 75.5q-305 0 -359 -299h-104q25 185 145 287t320 102z" />
    <glyph glyph-name="fraction" unicode="&#x2044;" horiz-adv-x="430" 
d="M651 1434h101l-973 -1434h-103z" />
    <glyph glyph-name="uni2070" unicode="&#x2070;" horiz-adv-x="796" 
d="M399 1575q-65 0 -112.5 -32t-72 -85.5t-35.5 -110.5t-11 -120q0 -64 11 -122t35.5 -112t72 -86.5t112.5 -32.5q64 0 111.5 32.5t72.5 87t36.5 112.5t11.5 121t-11 120t-36 110.5t-72.5 85.5t-112.5 32zM399 1653q70 0 125.5 -24.5t91.5 -65t60.5 -96.5t34.5 -115.5
t10 -124.5t-10.5 -124.5t-34.5 -115.5t-60.5 -97t-92 -66t-124.5 -25q-68 0 -123.5 25t-91 66t-59.5 97t-34.5 115.5t-10.5 124.5t10 124.5t34 115.5t59.5 96.5t91 65t124.5 24.5z" />
    <glyph glyph-name="uni2074" unicode="&#x2074;" horiz-adv-x="733" 
d="M455 1083v461l-310 -461h310zM51 1065l393 588h97v-570h129v-75h-129v-209h-86v209h-404v57z" />
    <glyph glyph-name="uni2075" unicode="&#x2075;" horiz-adv-x="735" 
d="M608 1653v-80h-387l-39 -291q32 42 91 65t118 23q122 0 193 -80t71 -205q0 -129 -84 -207.5t-209 -78.5q-115 0 -190.5 54.5t-93.5 168.5h90q11 -74 64 -109.5t130 -35.5q88 0 147.5 58.5t59.5 149.5t-51 150t-141 59q-140 0 -201 -125h-90l59 484h463z" />
    <glyph glyph-name="uni2076" unicode="&#x2076;" horiz-adv-x="743" 
d="M387 1290q-88 0 -148.5 -60.5t-60.5 -146.5q0 -93 56.5 -151t146.5 -58t143.5 62t53.5 154q0 88 -52.5 144t-138.5 56zM393 1360q121 0 197 -76t76 -197q0 -126 -76.5 -207t-208.5 -81q-82 0 -142.5 30.5t-94.5 85t-50 120.5t-16 147q0 67 9.5 130.5t33 126.5t59 109.5
t92 75.5t127.5 29q107 0 174 -54.5t89 -156.5h-84q-20 71 -63 103t-116 32q-101 0 -163 -94t-68 -250q34 60 94 93.5t131 33.5z" />
    <glyph glyph-name="uni2077" unicode="&#x2077;" horiz-adv-x="653" 
d="M594 1653v-78q-118 -158 -192 -370.5t-74 -405.5h-95q0 184 78.5 399.5t196.5 374.5h-451v80h537z" />
    <glyph glyph-name="uni2078" unicode="&#x2078;" horiz-adv-x="765" 
d="M383 1577q-78 0 -130 -34.5t-52 -108.5q0 -68 53 -105t129 -37t129 37t53 105q0 74 -52 108.5t-130 34.5zM383 872q86 0 152.5 42.5t66.5 127.5q0 82 -67.5 129.5t-151.5 47.5t-151.5 -47.5t-67.5 -129.5q0 -85 66.5 -127.5t152.5 -42.5zM383 1653q116 0 191 -56.5
t75 -160.5q0 -64 -38 -108.5t-105 -67.5q81 -21 131.5 -79.5t50.5 -140.5q0 -50 -18 -91.5t-48 -68.5t-70 -46t-82.5 -27t-86.5 -8q-57 0 -110 14t-97.5 41.5t-71 75.5t-26.5 110q0 82 50.5 140.5t131.5 79.5q-67 23 -105 67.5t-38 108.5q0 104 75.5 160.5t190.5 56.5z" />
    <glyph glyph-name="uni2079" unicode="&#x2079;" horiz-adv-x="743" 
d="M358 1575q-91 0 -144.5 -61t-53.5 -154q0 -86 53 -143.5t139 -57.5q87 0 148 61t61 148q0 91 -56.5 149t-146.5 58zM358 1653q82 0 142.5 -30.5t95 -85.5t50.5 -121.5t16 -147.5q0 -66 -9.5 -129t-33 -126t-59.5 -109.5t-92.5 -75.5t-127.5 -29q-107 0 -173.5 53.5
t-88.5 155.5h84q20 -70 62 -102t114 -32q51 0 91.5 22.5t65.5 57.5t42.5 83t24.5 92t9 90q-33 -61 -93.5 -95t-131.5 -34q-121 0 -196.5 76t-75.5 196q0 128 76 209.5t208 81.5z" />
    <glyph glyph-name="uni2080" unicode="&#x2080;" horiz-adv-x="796" 
d="M397 444q-65 0 -112.5 -32t-72 -85.5t-35.5 -110.5t-11 -120q0 -50 6.5 -96.5t23 -94.5t41.5 -82.5t66.5 -56.5t93.5 -22q64 0 111.5 32.5t72.5 86.5t36.5 112t11.5 121t-11 120t-36 110.5t-72.5 85.5t-112.5 32zM397 522q70 0 125.5 -24.5t91.5 -65t60.5 -96.5
t34.5 -115.5t10 -124.5t-10.5 -124.5t-34.5 -115.5t-60.5 -97t-92 -66t-124.5 -25q-68 0 -123.5 25t-91 66t-59.5 97t-34.5 115.5t-10.5 124.5t10 124.5t34 115.5t59.5 96.5t91 65t124.5 24.5z" />
    <glyph glyph-name="uni2081" unicode="&#x2081;" horiz-adv-x="483" 
d="M295 518h70v-850h-86v619h-201v67q40 0 69.5 3t59 13t47.5 27.5t29.5 48t11.5 72.5z" />
    <glyph glyph-name="uni2082" unicode="&#x2082;" horiz-adv-x="731" 
d="M375 522q120 0 195 -59t75 -178q0 -40 -14 -76.5t-31.5 -61t-53 -53.5t-58.5 -44.5t-68 -43.5l-50 -30t-45 -29t-44.5 -32.5t-36 -33.5t-32 -39.5t-19.5 -43t-11 -50.5h471v-80h-575v33q-1 60 16 112t41 87t65 69.5t73 54t81 46.5q44 25 63 36t52.5 34.5t48 41.5t27 45.5
t12.5 57.5q0 81 -49.5 119t-132.5 38q-176 0 -205 -194h-90q14 128 90.5 201t204.5 73z" />
    <glyph glyph-name="uni2083" unicode="&#x2083;" horiz-adv-x="757" 
d="M383 522q116 0 191 -51t75 -158q0 -67 -37 -116.5t-100 -73.5q77 -21 122.5 -74.5t45.5 -132.5q0 -122 -84.5 -185t-212.5 -63q-131 0 -212 59.5t-93 184.5h88q11 -91 67.5 -129.5t149.5 -38.5q94 0 150.5 41.5t56.5 132.5q0 81 -57.5 124.5t-145.5 43.5h-63v70h61
q79 0 127.5 38.5t48.5 114.5q0 135 -180 135q-172 0 -186 -147h-89q7 108 85.5 166.5t191.5 58.5z" />
    <glyph glyph-name="uni2084" unicode="&#x2084;" horiz-adv-x="733" 
d="M461 -41v461l-309 -461h309zM57 -59l394 587h96v-569h129v-76h-129v-209h-86v209h-404v58z" />
    <glyph glyph-name="uni2085" unicode="&#x2085;" horiz-adv-x="735" 
d="M608 522v-80h-387l-39 -290q32 42 91 65t118 23q122 0 193 -80t71 -205q0 -129 -84 -208t-209 -79q-115 0 -190.5 54.5t-93.5 168.5h90q11 -74 64 -109.5t130 -35.5q87 0 147 59t60 150t-51 150t-141 59q-140 0 -201 -125h-90l59 483h463z" />
    <glyph glyph-name="uni2086" unicode="&#x2086;" horiz-adv-x="743" 
d="M387 160q-88 0 -148.5 -60.5t-60.5 -146.5q0 -93 56.5 -151t146.5 -58t143.5 61.5t53.5 153.5q0 88 -52.5 144.5t-138.5 56.5zM393 229q122 0 197.5 -75.5t75.5 -196.5q0 -126 -76.5 -207.5t-208.5 -81.5q-82 0 -142.5 30.5t-94.5 85t-50 120.5t-16 147q0 67 9.5 130.5
t33 126.5t59 109.5t92 75.5t127.5 29q107 0 174 -54.5t89 -156.5h-84q-20 71 -63 103t-116 32q-101 0 -163 -94t-68 -250q34 60 94 93.5t131 33.5z" />
    <glyph glyph-name="uni2087" unicode="&#x2087;" horiz-adv-x="653" 
d="M594 522v-78q-118 -158 -192 -370.5t-74 -405.5h-95q0 184 78.5 399.5t196.5 374.5h-451v80h537z" />
    <glyph glyph-name="uni2088" unicode="&#x2088;" horiz-adv-x="765" 
d="M383 446q-78 0 -130 -34.5t-52 -108.5q0 -68 53 -104.5t129 -36.5t129 36.5t53 104.5q0 74 -52 108.5t-130 34.5zM383 -258q86 0 152.5 42.5t66.5 127.5q0 82 -67 129t-152 47t-152 -47t-67 -129q0 -85 66.5 -127.5t152.5 -42.5zM383 522q116 0 191 -56.5t75 -160.5
q0 -64 -38 -108.5t-105 -67.5q81 -21 131.5 -79t50.5 -140q0 -62 -27 -110.5t-72 -76t-97.5 -41.5t-108.5 -14q-78 0 -144.5 23.5t-113.5 80t-47 138.5t50.5 140t131.5 79q-67 23 -105 67.5t-38 108.5q0 104 75.5 160.5t190.5 56.5z" />
    <glyph glyph-name="uni2089" unicode="&#x2089;" horiz-adv-x="743" 
d="M362 444q-91 0 -144.5 -61t-53.5 -154q0 -86 53 -143t139 -57q87 0 148 61t61 148q0 91 -56.5 148.5t-146.5 57.5zM362 522q82 0 142.5 -30.5t95 -85.5t50.5 -121.5t16 -147.5q0 -66 -9.5 -129t-33 -126t-59.5 -109.5t-92.5 -75.5t-127.5 -29q-107 0 -173.5 53.5
t-88.5 155.5h84q20 -70 62 -101.5t114 -31.5q63 0 110 33t71.5 87.5t36.5 109.5t15 114q-33 -61 -93.5 -95t-131.5 -34q-121 0 -196.5 76t-75.5 196q0 128 76 209.5t208 81.5z" />
    <glyph glyph-name="colonmonetary" unicode="&#x20a1;" horiz-adv-x="1540" 
d="M338 299l420 1065q-126 -4 -231 -60t-172.5 -146.5t-104.5 -204t-37 -236.5q0 -240 125 -418zM676 78l463 1173q-124 94 -285 111l-451 -1141q114 -114 273 -143zM655 -219h-96l80 203q-154 28 -279 129l-131 -332h-96l158 399q-93 102 -143 241.5t-50 295.5
q0 125 31 238.5t91 206t144 160.5t195.5 105t239.5 37l73 189h97l-78 -195q161 -24 287 -108l118 303h97l-142 -361q148 -138 185 -346h-117q-23 132 -111 238l-440 -1116q212 0 363 108.5t188 310.5h117q-41 -233 -219 -375.5t-433 -142.5q-37 0 -55 2z" />
    <glyph glyph-name="franc" unicode="&#x20a3;" horiz-adv-x="1333" 
d="M276 305h-256v86h256v1043h898v-97h-785v-571h719v-94h-719v-281h309v-86h-309v-305h-113v305z" />
    <glyph glyph-name="lira" unicode="&#x20a4;" horiz-adv-x="1296" 
d="M705 1464q192 0 304.5 -96.5t131.5 -284.5h-121q-37 281 -315 281q-129 0 -209 -93t-80 -227q0 -58 33 -194h344v-86h-322q31 -143 31 -221h291v-86h-297q-13 -108 -65 -193.5t-152 -165.5h899v-98h-1059v90q119 76 187 164t85 203h-272v86h274q-2 77 -41 221h-233v86
h211q-29 114 -29 197q0 181 111.5 299t292.5 118z" />
    <glyph glyph-name="uni20A6" unicode="&#x20a6;" horiz-adv-x="1765" 
d="M436 969h182l-182 284v-284zM436 545h453l-215 338h-238v-338zM1016 545h233v338h-448zM1249 459h-178l178 -281v281zM324 459h-205v86h205v338h-205v86h205v465h127l294 -465h504v465h113v-465h207v-86h-207v-338h207v-86h-207v-459h-123l-293 459h-510v-459h-112v459z
" />
    <glyph glyph-name="peseta" unicode="&#x20a7;" horiz-adv-x="2920" 
d="M713 1339h-408v-626h408q149 0 247.5 81.5t98.5 231.5q0 147 -97 230t-249 83zM190 0v1434h515q208 0 337 -105t129 -303q0 -103 -36.5 -182.5t-101 -128t-147.5 -73t-181 -24.5h-400v-618h-115zM1481 1169v197h108v-311h226v-92h-226v-756q0 -63 33.5 -102t103.5 -39
q15 0 29.5 1.5t25 3.5t18.5 4t13 3l5 2v-94q-68 -17 -107 -17q-106 0 -167.5 59.5t-61.5 172.5v762h-181v92h68q56 0 84.5 25.5t28.5 88.5zM2394 1085q81 0 152 -18.5t129.5 -55t97.5 -98.5t51 -143h-102q-51 227 -330 227q-113 0 -200 -53t-87 -151q0 -46 22.5 -81.5
t48 -54.5t79.5 -35t80.5 -20.5t88.5 -13.5q18 -3 27 -4q49 -7 86.5 -15t80 -21t73.5 -29t61 -40t49 -53.5t30.5 -70t11.5 -89.5q0 -76 -37.5 -135.5t-99 -93.5t-132 -51t-145.5 -17q-120 0 -218 38.5t-163.5 121t-73.5 197.5h107q5 -88 57 -150t127.5 -89.5t165.5 -27.5
q54 0 105.5 10.5t99.5 32.5t77 63t29 95q0 41 -13 74.5t-32 56.5t-53 41.5t-61.5 29t-73 20t-72.5 13t-74 9.5q-58 8 -104.5 19.5t-96 33.5t-82.5 51.5t-54 76.5t-21 106q0 74 35.5 132t93 92.5t124.5 52t136 17.5z" />
    <glyph glyph-name="uni20A9" unicode="&#x20a9;" horiz-adv-x="2125" 
d="M524 494h201l98 323h-397zM698 408h-147l74 -246zM831 494h467l-98 323h-270zM1579 408h-149l75 -246zM1405 494h201l98 323h-397zM956 903h220l-111 361zM440 408h-321v86h295l-101 323h-194v86h168l-164 531h115l161 -531h451l160 531h110l160 -531h451l159 531h117
l-164 -531h164v-86h-190l-101 -323h291v-86h-317l-125 -408h-117l-123 408h-520l-123 -408h-115z" />
    <glyph glyph-name="Euro" unicode="&#x20ac;" horiz-adv-x="1314" 
d="M899 1464q179 0 318 -71v-111q-136 84 -312 84q-197 0 -336 -114.5t-198 -297.5h520v-86h-543q-14 -69 -14 -151q0 -81 14 -150h543v-88h-520q59 -182 198 -296.5t336 -114.5q176 0 312 84v-109q-139 -74 -318 -74q-124 0 -233 39t-190 108t-138.5 161t-87.5 202h-193v88
h174q-12 73 -12 150t12 151h-174v86h193q63 228 233 369t416 141z" />
    <glyph glyph-name="uni20AD" unicode="&#x20ad;" horiz-adv-x="1431" 
d="M500 707h-99v-107zM289 707h-170v84h170v643h112v-643h174l580 643h143l-569 -631l6 -12h563v-84h-499l516 -707h-135l-516 707h-23l-240 -261v-446h-112v707z" />
    <glyph glyph-name="uni20AE" unicode="&#x20ae;" horiz-adv-x="1300" 
d="M705 881l303 84v-91l-303 -83v-269l303 84v-88l-303 -86v-432h-113v401l-303 -84v91l303 84v266l-303 -84v90l303 84v491h-510v95h1135v-95h-512v-458z" />
    <glyph glyph-name="uni20B2" unicode="&#x20b2;" horiz-adv-x="1548" 
d="M735 70v1294q-121 -10 -221.5 -68t-165.5 -147t-100 -200.5t-35 -231.5t35 -231t100 -200t165 -147t222 -69zM825 600v-530q144 9 252 82.5t167 187.5t77 260h-496zM735 1462v191h90v-191q237 -10 403.5 -148.5t207.5 -357.5h-119q-35 178 -167.5 287t-324.5 121v-668
h625v-696h-94l-8 373q-61 -174 -194.5 -283t-328.5 -121v-188h-90v188q-147 9 -268.5 73t-201 166t-123.5 233t-44 276t44 275.5t123.5 232t201 165t268.5 72.5z" />
    <glyph glyph-name="uni20B4" unicode="&#x20b4;" horiz-adv-x="1519" 
d="M301 276q0 -65 23.5 -117t62 -86t90.5 -57t107 -33t114 -10q231 0 492 127v-108q-92 -46 -230 -80.5t-262 -34.5q-75 0 -146 13t-138.5 43.5t-117.5 76t-80 115t-30 154.5q0 108 50 184h-138v88h1323v-88h-1046q-74 -71 -74 -187zM1421 872h-1323v89h883q135 71 135 225
q0 74 -32 129t-86.5 85.5t-118.5 45t-138 14.5q-226 0 -481 -125v109q89 45 224 78.5t257 33.5q98 0 183.5 -21.5t155.5 -65t110.5 -117t40.5 -168.5q0 -140 -74 -223h264v-89z" />
    <glyph glyph-name="uni20B8" unicode="&#x20b8;" horiz-adv-x="1300" 
d="M82 1067h1135v-94h-512v-973h-113v973h-510v94zM82 1339v95h1135v-95h-1135z" />
    <glyph glyph-name="uni20B9" unicode="&#x20b9;" horiz-adv-x="1339" 
d="M834 0l-353 618h-362v95h385q137 0 232.5 69t109.5 197h-727v92h729q-17 128 -110.5 198t-233.5 70h-385v95h1102v-95h-402q127 -94 142 -268h260v-92h-260q-13 -153 -109.5 -241t-249.5 -111l361 -627h-129z" />
    <glyph glyph-name="uni20BD" unicode="&#x20bd;" horiz-adv-x="1443" 
d="M901 1339h-407v-626h407q149 0 247.5 81.5t98.5 231.5q0 147 -96 230t-250 83zM819 410v-95h-325v-315h-115v315h-260v95h260v208h-260v95h260v721h516q207 0 336 -105t129 -303q0 -103 -36.5 -182.5t-101 -128t-147.5 -73t-180 -24.5h-401v-208h325z" />
    <glyph glyph-name="uni20BF" unicode="&#x20bf;" horiz-adv-x="1255" 
d="M680 711h-408v-617h404q156 0 260 79.5t104 229.5q0 147 -96 227.5t-264 80.5zM655 1343h-385v-542h402q147 0 226 69.5t79 202.5q0 134 -92.5 202t-229.5 68zM610 -219v219h-184v-219h-90v219h-176v1434h176v219h90v-219h184v219h90v-219q78 -3 146.5 -26t123 -65
t86 -110.5t31.5 -155.5q0 -226 -194 -317q125 -42 194.5 -135t69.5 -224q0 -99 -37 -176.5t-101.5 -125t-145 -72.5t-173.5 -27v-219h-90z" />
    <glyph glyph-name="uni2113" unicode="&#x2113;" horiz-adv-x="880" 
d="M526 1368q-40 0 -68.5 -18t-44 -49t-22 -65.5t-6.5 -74.5v-577q76 40 132 104t87 142t45.5 160.5t14.5 172.5q0 52 -10.5 95t-43 76.5t-84.5 33.5zM524 1466q62 0 109.5 -26t74.5 -69.5t40.5 -95t13.5 -108.5q0 -109 -21 -209.5t-64.5 -192.5t-118 -165.5t-173.5 -116.5
v-217q0 -209 168 -209q22 0 44 2t38.5 4.5t29 4.5t19.5 4l8 2v-86q-76 -19 -153 -19q-133 0 -196.5 75.5t-63.5 213.5v191q-96 -29 -201 -29v88q106 0 201 33v610q0 64 13.5 118.5t41 99.5t76.5 71t114 26z" />
    <glyph glyph-name="uni2116" unicode="&#x2116;" horiz-adv-x="2236" 
d="M1759 1055q-75 -1 -129 -29t-82 -74t-40.5 -95t-12.5 -103q0 -53 12.5 -102t40.5 -95t82.5 -74t128.5 -28q61 0 108.5 19t76.5 49t48 70.5t26 79.5t7 81t-7 81.5t-26 80t-48 70.5t-76.5 49t-108.5 20zM2081 0h-641v90h641v-90zM1085 178v1256h111v-1434h-123l-801 1253
v-1253h-112v1434h125zM1759 1135q77 0 138.5 -22t102 -59t68 -86.5t39 -103t11.5 -110.5t-12 -110.5t-39.5 -103t-68 -86.5t-102 -59t-137.5 -22q-94 0 -165.5 33.5t-111.5 89.5t-59.5 121t-19.5 137t20.5 137.5t61 121.5t111.5 89t163 33z" />
    <glyph glyph-name="trademark" unicode="&#x2122;" horiz-adv-x="1816" 
d="M160 1434h604v-80h-258v-733h-90v733h-256v80zM889 1434h98l285 -691l284 691h99v-813h-90v628l-258 -628h-70l-258 628v-628h-90v813z" />
    <glyph glyph-name="estimated" unicode="&#x212e;" horiz-adv-x="1609" 
d="M313 1051v-303h985v299q0 57 -30 104q-182 264 -463 264q-284 0 -463 -266q-29 -47 -29 -98zM1487 717v-29h-1174v-299q0 -63 33 -110q91 -129 202 -195t257 -66q272 0 436 236h111q-91 -133 -230.5 -209t-316.5 -76q-156 0 -286 61.5t-215 165.5t-132 238.5t-47 282.5
q0 149 47 284t132 238.5t215 165t286 61.5q157 0 287.5 -61.5t215.5 -165t132 -238.5t47 -284z" />
    <glyph glyph-name="uni2150" unicode="&#x2150;" horiz-adv-x="1599" 
d="M147 0l975 1434h101l-973 -1434h-103zM983 823h537v-78q-118 -159 -192.5 -371t-74.5 -405h-94q0 184 78.5 399.5t196.5 374.5h-451v80zM295 1464h70v-850h-84v619h-203v67q40 0 69.5 3t59 13t47.5 27.5t29.5 48t11.5 72.5z" />
    <glyph glyph-name="uni2151" unicode="&#x2151;" horiz-adv-x="1687" 
d="M1307 745q-91 0 -145 -61t-54 -154q0 -86 53 -143t139 -57q87 0 148 61t61 148q0 91 -56 148.5t-146 57.5zM1307 823q82 0 142.5 -30.5t94.5 -85.5t50 -121.5t16 -147.5q0 -66 -9.5 -129t-33 -126t-59.5 -109.5t-92.5 -75.5t-127.5 -29q-107 0 -173.5 53.5t-88.5 155.5
h84q20 -70 62 -101.5t114 -31.5q63 0 110 33t72 87.5t37 109.5t15 114q-33 -61 -94 -95t-132 -34q-121 0 -196.5 76t-75.5 196q0 128 76.5 209.5t208.5 81.5zM295 1464h70v-850h-84v619h-203v67q40 0 69.5 3t59 13t47.5 27.5t29.5 48t11.5 72.5zM176 0l975 1434h100
l-972 -1434h-103z" />
    <glyph glyph-name="uni2152" unicode="&#x2152;" horiz-adv-x="1986" 
d="M1589 745q-65 0 -112.5 -32t-72 -85.5t-35.5 -110.5t-11 -120q0 -50 6.5 -96.5t23 -94.5t41.5 -82.5t66.5 -56.5t93.5 -22q64 0 111.5 32.5t72.5 86.5t36.5 112t11.5 121t-11 120t-36 110.5t-72.5 85.5t-112.5 32zM1018 819h69v-850h-83v619h-203v67q40 0 69.5 3t59 13
t47.5 27.5t29.5 48t11.5 72.5zM1589 823q70 0 125.5 -24.5t91.5 -65t60.5 -96.5t34.5 -115.5t10 -124.5t-10.5 -124.5t-34.5 -115.5t-60.5 -97t-92 -66t-124.5 -25q-68 0 -123.5 25t-91 66t-59.5 97t-34.5 115.5t-10.5 124.5t10 124.5t34 115.5t59.5 96.5t91 65t124.5 24.5z
M295 1464h70v-850h-84v619h-203v67q40 0 69.5 3t59 13t47.5 27.5t29.5 48t11.5 72.5zM88 0l975 1434h100l-973 -1434h-102z" />
    <glyph glyph-name="onethird" unicode="&#x2153;" horiz-adv-x="1671" 
d="M295 1464h70v-850h-86v619h-201v67q40 0 69.5 3t59 13t47.5 27.5t29.5 48t11.5 72.5zM160 0l975 1434h100l-973 -1434h-102zM1296 823q116 0 191.5 -51t75.5 -158q0 -67 -37.5 -116.5t-100.5 -73.5q77 -21 122.5 -74.5t45.5 -132.5q0 -122 -84.5 -185t-212.5 -63
q-131 0 -212 59.5t-93 184.5h88q11 -91 67.5 -129.5t149.5 -38.5q94 0 150.5 41.5t56.5 132.5q0 81 -57.5 124.5t-145.5 43.5h-63v70h61q79 0 128 38.5t49 114.5q0 135 -181 135q-172 0 -186 -147h-88q7 108 85 166.5t191 58.5z" />
    <glyph glyph-name="twothirds" unicode="&#x2154;" horiz-adv-x="1916" 
d="M375 1466q120 0 195 -59t75 -178q0 -40 -14 -76.5t-31.5 -61t-53 -53.5t-58.5 -44.5t-68 -43.5l-50 -30t-45 -29t-44.5 -32.5t-36 -33.5t-32 -39.5t-19.5 -43t-11 -50.5h471v-80h-575v33q-1 60 16 112t41 87t65 69.5t73 54t81 46.5q44 25 63 36t52.5 34.5t48 41.5
t27 45.5t12.5 57.5q0 81 -49.5 119t-132.5 38q-176 0 -205 -194h-90q14 128 90.5 201t204.5 73zM408 0l974 1434h101l-973 -1434h-102zM1544 823q116 0 191 -51t75 -158q0 -67 -37 -116.5t-100 -73.5q77 -21 122.5 -74.5t45.5 -132.5q0 -122 -84.5 -185t-212.5 -63
q-131 0 -212 59.5t-93 184.5h88q11 -91 67.5 -129.5t149.5 -38.5q94 0 150.5 41.5t56.5 132.5q0 81 -57.5 124.5t-145.5 43.5h-63v70h61q79 0 127.5 38.5t48.5 114.5q0 135 -180 135q-172 0 -186 -147h-88q7 108 85 166.5t191 58.5z" />
    <glyph glyph-name="uni2155" unicode="&#x2155;" horiz-adv-x="1648" 
d="M295 1464h70v-850h-86v619h-201v67q40 0 69.5 3t59 13t47.5 27.5t29.5 48t11.5 72.5zM160 0l975 1434h100l-973 -1434h-102zM1059 823h463v-80h-387l-39 -290q32 42 91 65t118 23q122 0 193 -80t71 -205q0 -129 -84 -208t-209 -79q-115 0 -191 55t-94 169h90
q11 -74 64.5 -110t130.5 -36q87 0 147 59t60 150t-51.5 150t-141.5 59q-139 0 -200 -125h-91z" />
    <glyph glyph-name="uni2156" unicode="&#x2156;" horiz-adv-x="1894" 
d="M375 1466q120 0 195 -59t75 -178q0 -40 -14 -76.5t-31.5 -61t-53 -53.5t-58.5 -44.5t-68 -43.5l-50 -30t-45 -29t-44.5 -32.5t-36 -33.5t-32 -39.5t-19.5 -43t-11 -50.5h471v-80h-575v33q-1 60 16 112t41 87t65 69.5t73 54t81 46.5q44 25 63 36t52.5 34.5t48 41.5
t27 45.5t12.5 57.5q0 81 -49.5 119t-132.5 38q-176 0 -205 -194h-90q14 128 90.5 201t204.5 73zM408 0l974 1434h101l-973 -1434h-102zM1307 823h462v-80h-387l-39 -290q32 42 91 65t118 23q122 0 193.5 -80t71.5 -205q0 -129 -84 -208t-209 -79q-115 0 -191 55t-94 169h90
q11 -74 64.5 -110t130.5 -36q87 0 147 59t60 150t-51.5 150t-141.5 59q-140 0 -201 -125h-90z" />
    <glyph glyph-name="uni2157" unicode="&#x2157;" horiz-adv-x="1921" 
d="M383 1466q116 0 191 -51t75 -158q0 -67 -37 -116.5t-100 -73.5q77 -21 122.5 -74.5t45.5 -132.5q0 -122 -84.5 -185t-212.5 -63q-131 0 -212 59.5t-93 184.5h88q11 -91 67.5 -129.5t149.5 -38.5q94 0 150.5 41.5t56.5 132.5q0 81 -57.5 124.5t-145.5 43.5h-63v70h61
q79 0 127.5 38.5t48.5 114.5q0 73 -50.5 104.5t-129.5 31.5q-172 0 -186 -148h-89q7 108 85.5 166.5t191.5 58.5zM434 0l975 1434h100l-972 -1434h-103zM1333 823h463v-80h-387l-39 -290q32 42 91 65t118 23q122 0 193 -80t71 -205q0 -129 -84 -208t-209 -79
q-115 0 -190.5 55t-93.5 169h90q11 -74 64 -110t130 -36q87 0 147 59t60 150t-51 150t-141 59q-140 0 -201 -125h-90z" />
    <glyph glyph-name="uni2158" unicode="&#x2158;" horiz-adv-x="1898" 
d="M152 897h309v461zM57 821v58l394 587h96v-569h129v-76h-129v-209h-86v209h-404zM410 0l974 1434h101l-973 -1434h-102zM1309 823h463v-80h-388l-38 -290q32 42 90.5 65t117.5 23q122 0 193.5 -80t71.5 -205q0 -129 -84 -208t-209 -79q-115 0 -191 55t-94 169h90
q11 -74 64.5 -110t130.5 -36q87 0 147 59t60 150t-51.5 150t-141.5 59q-140 0 -201 -125h-90z" />
    <glyph glyph-name="uni2159" unicode="&#x2159;" horiz-adv-x="1656" 
d="M1300 461q-88 0 -148 -60.5t-60 -146.5q0 -93 56 -151t146 -58t143.5 61.5t53.5 153.5q0 88 -52.5 144.5t-138.5 56.5zM1307 530q121 0 196.5 -75t75.5 -197q0 -126 -76.5 -207.5t-208.5 -81.5q-82 0 -142.5 30.5t-94.5 85t-50 120.5t-16 147q0 67 9.5 130.5t33 126.5
t59.5 109.5t92.5 75.5t127.5 29q106 0 173 -54.5t89 -156.5h-84q-20 71 -62.5 103.5t-115.5 32.5q-101 0 -163.5 -94.5t-68.5 -250.5q33 60 94 93.5t132 33.5zM295 1464h70v-850h-86v619h-201v67q40 0 69.5 3t59 13t47.5 27.5t29.5 48t11.5 72.5zM160 0l975 1434h100
l-973 -1434h-102z" />
    <glyph glyph-name="uni215A" unicode="&#x215a;" horiz-adv-x="1908" 
d="M1552 461q-88 0 -148.5 -60.5t-60.5 -146.5q0 -93 56.5 -151t146.5 -58t143.5 61.5t53.5 153.5q0 88 -52.5 144.5t-138.5 56.5zM1559 530q121 0 196.5 -75t75.5 -197q0 -126 -76.5 -207.5t-208.5 -81.5q-82 0 -142.5 30.5t-94.5 85t-50 120.5t-16 147q0 67 9.5 130.5
t33 126.5t59.5 109.5t92.5 75.5t127.5 29q106 0 173 -54.5t89 -156.5h-84q-20 71 -62.5 103.5t-115.5 32.5q-101 0 -163.5 -94.5t-68.5 -250.5q33 60 94 93.5t132 33.5zM145 1466h463v-80h-387l-39 -290q32 42 91 65t118 23q122 0 193 -80t71 -205q0 -129 -84 -208t-209 -79
q-115 0 -190.5 55t-93.5 169h90q11 -74 64 -110t130 -36q87 0 147 59t60 150t-51 150t-141 59q-140 0 -201 -125h-90zM412 0l974 1434h101l-973 -1434h-102z" />
    <glyph glyph-name="oneeighth" unicode="&#x215b;" horiz-adv-x="1679" 
d="M1296 748q-77 0 -129.5 -35t-52.5 -109q0 -68 53 -104.5t129 -36.5t129.5 36.5t53.5 104.5q0 74 -53 109t-130 35zM1296 43q54 0 102 16t83 56t35 98q0 82 -67.5 129t-152.5 47t-152 -47t-67 -129q0 -85 66.5 -127.5t152.5 -42.5zM1296 823q116 0 191.5 -56.5
t75.5 -160.5q0 -64 -38.5 -108.5t-105.5 -67.5q81 -21 132 -79t51 -140q0 -62 -27.5 -110.5t-72.5 -76t-97.5 -41.5t-108.5 -14q-78 0 -144.5 23.5t-113.5 80t-47 138.5t51 140t132 79q-67 23 -105.5 67.5t-38.5 108.5q0 104 75.5 160.5t190.5 56.5zM295 1464h70v-850h-86
v619h-201v67q40 0 69.5 3t59 13t47.5 27.5t29.5 48t11.5 72.5zM160 0l975 1434h100l-973 -1434h-102z" />
    <glyph glyph-name="threeeighths" unicode="&#x215c;" horiz-adv-x="1953" 
d="M1571 748q-77 0 -129.5 -35t-52.5 -109q0 -68 53 -104.5t129 -36.5t129 36.5t53 104.5q0 74 -52.5 109t-129.5 35zM1571 43q86 0 152.5 42.5t66.5 127.5q0 82 -67 129t-152 47t-152 -47t-67 -129q0 -85 66.5 -127.5t152.5 -42.5zM1571 823q116 0 191 -56.5t75 -160.5
q0 -64 -38 -108.5t-105 -67.5q81 -21 131.5 -79t50.5 -140q0 -62 -27 -110.5t-72 -76t-97.5 -41.5t-108.5 -14q-78 0 -144.5 23.5t-113.5 80t-47 138.5t50.5 140t131.5 79q-67 23 -105 67.5t-38 108.5q0 104 75.5 160.5t190.5 56.5zM383 1466q116 0 191 -51t75 -158
q0 -67 -37 -116.5t-100 -73.5q77 -21 122.5 -74.5t45.5 -132.5q0 -122 -84.5 -185t-212.5 -63q-131 0 -212 59.5t-93 184.5h88q11 -91 67.5 -129.5t149.5 -38.5q94 0 150.5 41.5t56.5 132.5q0 81 -57.5 124.5t-145.5 43.5h-63v70h61q79 0 127.5 38.5t48.5 114.5
q0 73 -50.5 104.5t-129.5 31.5q-172 0 -186 -148h-89q7 108 85.5 166.5t191.5 58.5zM434 0l975 1434h100l-972 -1434h-103z" />
    <glyph glyph-name="fiveeighths" unicode="&#x215d;" horiz-adv-x="1931" 
d="M1548 748q-77 0 -129.5 -35t-52.5 -109q0 -68 53 -104.5t129 -36.5t129.5 36.5t53.5 104.5q0 74 -53 109t-130 35zM1548 43q86 0 152.5 42.5t66.5 127.5q0 82 -67 129t-152 47t-152 -47t-67 -129q0 -85 66.5 -127.5t152.5 -42.5zM1548 823q116 0 191.5 -56.5t75.5 -160.5
q0 -64 -38.5 -108.5t-105.5 -67.5q81 -21 131.5 -79t50.5 -140q0 -62 -27 -110.5t-72 -76t-97.5 -41.5t-108.5 -14q-78 0 -144.5 23.5t-113.5 80t-47 138.5t50.5 140t131.5 79q-67 23 -105 67.5t-38 108.5q0 104 75.5 160.5t190.5 56.5zM145 1466h463v-80h-387l-39 -290
q32 42 91 65t118 23q122 0 193 -80t71 -205q0 -129 -84 -208t-209 -79q-115 0 -190.5 55t-93.5 169h90q11 -74 64 -110t130 -36q87 0 147 59t60 150t-51 150t-141 59q-140 0 -201 -125h-90zM412 0l974 1434h101l-973 -1434h-102z" />
    <glyph glyph-name="seveneighths" unicode="&#x215e;" horiz-adv-x="1705" 
d="M1323 748q-77 0 -129.5 -35t-52.5 -109q0 -68 53 -104.5t129 -36.5t129 36.5t53 104.5q0 74 -52.5 109t-129.5 35zM1323 43q86 0 152.5 42.5t66.5 127.5q0 82 -67 129t-152 47t-152 -47t-67 -129q0 -85 66.5 -127.5t152.5 -42.5zM1323 823q116 0 191 -56.5t75 -160.5
q0 -64 -38 -108.5t-105 -67.5q81 -21 131.5 -79t50.5 -140q0 -62 -27 -110.5t-72 -76t-97.5 -41.5t-108.5 -14q-78 0 -144.5 23.5t-113.5 80t-47 138.5t50.5 140t131.5 79q-67 23 -105 67.5t-38 108.5q0 104 75.5 160.5t190.5 56.5zM57 1466h537v-77q-118 -158 -192 -371
t-74 -406h-95q0 184 78.5 399.5t196.5 374.5h-451v80zM186 0l975 1434h101l-973 -1434h-103z" />
    <glyph glyph-name="uni215F" unicode="&#x215f;" horiz-adv-x="913" 
d="M295 1464h70v-850h-86v619h-201v67q40 0 69.5 3t59 13t47.5 27.5t29.5 48t11.5 72.5zM1135 1434h100l-973 -1434h-102z" />
    <glyph glyph-name="uni2189" unicode="&#x2189;" horiz-adv-x="1818" 
d="M397 1389q-52 0 -93.5 -22t-66.5 -56.5t-41.5 -81.5t-23 -93.5t-6.5 -95.5q0 -50 6.5 -96.5t23 -94.5t41.5 -82.5t66.5 -56.5t93.5 -22q64 0 111.5 32.5t72.5 86.5t36.5 112t11.5 121t-11 120.5t-36 111t-72.5 85.5t-112.5 32zM375 0l975 1434h100l-973 -1434h-102z
M1444 823q116 0 191 -51t75 -158q0 -67 -37 -116.5t-100 -73.5q77 -21 122.5 -74.5t45.5 -132.5q0 -122 -84.5 -185t-212.5 -63q-131 0 -212 59.5t-93 184.5h88q11 -91 67.5 -129.5t149.5 -38.5q94 0 150.5 41.5t56.5 132.5q0 81 -57.5 124.5t-145.5 43.5h-64v70h62
q79 0 127.5 38.5t48.5 114.5q0 135 -180 135q-173 0 -187 -147h-88q7 108 85.5 166.5t191.5 58.5zM397 1466q70 0 125.5 -24.5t91.5 -65t60.5 -96.5t34.5 -115.5t10 -124.5t-10.5 -124.5t-34.5 -115.5t-60.5 -97t-92 -66t-124.5 -25q-68 0 -123.5 25t-91 66t-59.5 97
t-34.5 115.5t-10.5 124.5t10 124.5t34 115.5t59.5 96.5t91 65t124.5 24.5z" />
    <glyph glyph-name="arrowleft" unicode="&#x2190;" 
d="M23 717l651 653l80 -80l-516 -516h1273v-112h-1273l516 -517l-80 -79z" />
    <glyph glyph-name="arrowup" unicode="&#x2191;" horiz-adv-x="1345" 
d="M20 813l652 651l653 -651l-80 -80l-516 516v-1251h-113v1251l-516 -516z" />
    <glyph glyph-name="arrowright" unicode="&#x2192;" horiz-adv-x="1628" 
d="M874 1290l80 80l652 -653l-652 -651l-80 79l517 517h-1274v112h1274z" />
    <glyph glyph-name="arrowdown" unicode="&#x2193;" horiz-adv-x="1345" 
d="M100 700l516 -516v1252h113v-1252l516 516l80 -79l-653 -652l-652 652z" />
    <glyph glyph-name="arrowboth" unicode="&#x2194;" horiz-adv-x="2359" 
d="M1606 1290l80 80l653 -653l-653 -651l-80 79l516 517h-1886l516 -517l-80 -79l-652 651l652 653l80 -80l-516 -516h1886z" />
    <glyph glyph-name="arrowupdn" unicode="&#x2195;" horiz-adv-x="1345" 
d="M100 289l516 -516v1886l-516 -516l-80 80l652 653l653 -653l-80 -80l-516 516v-1886l516 516l80 -80l-653 -651l-652 651z" />
    <glyph glyph-name="uni2196" unicode="&#x2196;" horiz-adv-x="1312" 
d="M119 131v924h921v-113h-729l885 -885l-80 -80l-885 885v-731h-112z" />
    <glyph glyph-name="uni2197" unicode="&#x2197;" horiz-adv-x="1312" 
d="M272 942v113h924v-924h-113v731l-884 -885l-80 80l885 885h-732z" />
    <glyph glyph-name="uni2198" unicode="&#x2198;" horiz-adv-x="1312" 
d="M1081 193v729h113v-922h-922v113h729l-882 884l78 80z" />
    <glyph glyph-name="uni2199" unicode="&#x2199;" horiz-adv-x="1312" 
d="M119 0v922h112v-729l883 884l80 -80l-885 -884h731v-113h-921z" />
    <glyph glyph-name="uni21A9" unicode="&#x21a9;" horiz-adv-x="1955" 
d="M238 774h1173q129 0 221 92t92 221q0 130 -92 223t-221 93h-135v113h135q177 0 301.5 -125.5t124.5 -303.5q0 -177 -124.5 -301t-301.5 -124h-1173l516 -517l-80 -79l-651 651l651 653l80 -80z" />
    <glyph glyph-name="uni21AA" unicode="&#x21aa;" horiz-adv-x="1955" 
d="M1718 662h-1171q-177 0 -302.5 124t-125.5 301q0 178 125.5 303.5t302.5 125.5h133v-113h-133q-131 0 -223.5 -92.5t-92.5 -223.5q0 -129 93 -221t223 -92h1171l-516 516l80 80l651 -653l-651 -651l-80 79z" />
    <glyph glyph-name="arrowdblleft" unicode="&#x21d0;" 
d="M23 717l651 653l80 -80l-320 -319h1077v-113h-1189l-140 -141l140 -139h1189v-113h-1077l320 -320l-80 -79z" />
    <glyph glyph-name="arrowdblright" unicode="&#x21d2;" 
d="M877 1290l79 80l652 -653l-652 -651l-79 79l319 320h-1077v113h1190l139 139l-139 141h-1190v113h1077z" />
    <glyph glyph-name="arrowdblboth" unicode="&#x21d4;" horiz-adv-x="2406" 
d="M2226 717l-139 141h-1768l-139 -141l139 -139h1768zM1655 1290l78 80l653 -653l-653 -651l-78 79l319 320h-1542l320 -320l-80 -79l-652 651l652 653l80 -80l-320 -319h1542z" />
    <glyph glyph-name="partialdiff" unicode="&#x2202;" horiz-adv-x="1224" 
d="M594 825q-175 0 -272 -109.5t-97 -283.5q0 -164 96.5 -268.5t256.5 -104.5q301 0 385 320q16 109 -27 212t-135 168.5t-207 65.5zM582 911q133 0 245 -72.5t166 -201.5q2 350 -193 547.5t-548 197.5v91q395 0 623.5 -215t228.5 -607q0 -107 -14.5 -200.5t-52 -184
t-95.5 -155t-150.5 -103.5t-211.5 -39q-207 0 -334 131.5t-127 343.5q0 207 125.5 337t337.5 130z" />
    <glyph glyph-name="product" unicode="&#x220f;" horiz-adv-x="1411" 
d="M160 1434h1089v-1434h-112v1333h-867v-1333h-110v1434z" />
    <glyph glyph-name="summation" unicode="&#x2211;" horiz-adv-x="1359" 
d="M160 1434h1040v-97h-893l557 -620l-555 -621h891v-96h-1040v92l565 625l-565 624v93z" />
    <glyph glyph-name="minus" unicode="&#x2212;" horiz-adv-x="958" 
d="M160 549v98h639v-98h-639z" />
    <glyph glyph-name="uni2215" unicode="&#x2215;" horiz-adv-x="1067" 
d="M963 1434h102l-961 -1434h-104z" />
    <glyph glyph-name="radical" unicode="&#x221a;" horiz-adv-x="1419" 
d="M856 1841h543v-100h-459l-401 -1772h-150l-270 1096h112l234 -979z" />
    <glyph glyph-name="infinity" unicode="&#x221e;" horiz-adv-x="1837" 
d="M485 991q-114 0 -189 -81t-75 -193t75 -193.5t189 -81.5q60 0 112 19.5t103 66t76 75.5t76 94q11 13 16 20q-6 8 -19 24q-38 48 -59 73t-60.5 64.5t-72 60t-78.5 36.5t-94 16zM1352 991q-48 0 -94 -16t-78.5 -36.5t-72 -60t-60.5 -64.5t-59 -73q-13 -16 -19 -24
q91 -116 131 -156q120 -119 252 -119q113 0 188.5 82t75.5 193t-75.5 192.5t-188.5 81.5zM481 1087q124 0 236 -82.5t201 -213.5q89 130 201.5 213t236.5 83q155 0 258.5 -106.5t103.5 -263.5t-103.5 -264t-258.5 -107q-125 0 -237.5 83t-200.5 214q-88 -131 -200 -214
t-237 -83q-155 0 -258.5 107t-103.5 264t103.5 263.5t258.5 106.5z" />
    <glyph glyph-name="integral" unicode="&#x222b;" horiz-adv-x="862" 
d="M702 1464q56 0 93 -14v-96l-5 2q-4 1 -12 3.5t-18 5t-25 4t-30 1.5q-69 0 -105 -39.5t-43 -99.5l-145 -1415q-12 -105 -79.5 -163.5t-172.5 -58.5q-52 0 -92 15v96l4 -1q5 -2 13 -4.5t18.5 -5t25 -4t29.5 -1.5q69 0 104.5 39.5t40.5 99.5l148 1417q10 103 78 161t173 58z
" />
    <glyph glyph-name="approxequal" unicode="&#x2248;" horiz-adv-x="1384" 
d="M430 889q-180 0 -180 -223h-90q0 138 68.5 227.5t197.5 89.5q59 0 119.5 -23.5t111.5 -56.5t101 -66.5t104.5 -57t104.5 -23.5q89 0 131 63t39 156h86q3 -133 -60.5 -222t-189.5 -89q-58 0 -119 23t-112.5 56t-101.5 66.5t-105 56.5t-105 23zM430 438q-180 0 -180 -223
h-90q0 138 68.5 227.5t197.5 89.5q59 0 119.5 -23.5t111.5 -57t101 -66.5t104.5 -56.5t104.5 -23.5q89 0 131 63t39 156h86q3 -133 -60.5 -222t-189.5 -89q-58 0 -119 23t-112.5 56t-101.5 66.5t-105 56.5t-105 23z" />
    <glyph glyph-name="notequal" unicode="&#x2260;" horiz-adv-x="1351" 
d="M754 862l200 295h101l-201 -295h233v-96h-299l-227 -334h526v-98h-593l-199 -295h-102l200 295h-233v98h301l227 334h-528v96h594z" />
    <glyph glyph-name="lessequal" unicode="&#x2264;" horiz-adv-x="1208" 
d="M1049 1253v-102l-811 -408l811 -405v-102l-930 458v99zM1049 94v-94h-930v94h930z" />
    <glyph glyph-name="greaterequal" unicode="&#x2265;" horiz-adv-x="1208" 
d="M160 1253l930 -460v-99l-930 -458v102l809 405l-809 408v102zM160 94h930v-94h-930v94z" />
    <glyph glyph-name="uni2460" unicode="&#x2460;" 
d="M815 1358q-132 0 -251 -51.5t-205 -137.5t-136.5 -204.5t-50.5 -247.5q0 -175 87 -322.5t235 -233t321 -85.5q131 0 250 51.5t204.5 137.5t136 204.5t50.5 247.5q0 131 -51.5 250t-137.5 204.5t-204.5 136t-247.5 50.5zM817 1141h68v-850h-84v618h-203v68q41 0 70 3
t59 13t48.5 27.5t30 48t11.5 72.5zM815 1434q145 0 278 -57t229 -153t153 -229t57 -278t-57 -278t-153 -229t-229 -153t-278 -57q-146 0 -279 57t-229 153t-152.5 228.5t-56.5 278.5t56.5 278.5t152.5 228.5t229 153t279 57z" />
    <glyph glyph-name="uni2461" unicode="&#x2461;" 
d="M815 1358q-132 0 -251 -51.5t-205 -137.5t-136.5 -204.5t-50.5 -247.5q0 -175 87 -322.5t235 -233t321 -85.5q131 0 250 51.5t204.5 137.5t136 204.5t50.5 247.5q0 131 -51.5 250t-137.5 204.5t-204.5 136t-247.5 50.5zM823 1143q120 0 195.5 -59t75.5 -177
q0 -29 -7 -56.5t-17 -48t-29.5 -42.5t-34.5 -36t-43.5 -34t-45 -30.5t-49.5 -30.5q-46 -27 -69.5 -41.5t-60 -42.5t-55 -50.5t-34.5 -55t-18 -68.5h471v-80h-576v26q0 60 17 111.5t40.5 86.5t64.5 70.5t71.5 55t79.5 47.5q38 22 54 31t47.5 29t45 34t31 34.5t24.5 43t7 47.5
q0 79 -51 118.5t-134 39.5q-176 0 -205 -195h-90q14 128 90 200.5t205 72.5zM815 1434q145 0 278 -57t229 -153t153 -229t57 -278t-57 -278t-153 -229t-229 -153t-278 -57q-146 0 -279 57t-229 153t-152.5 228.5t-56.5 278.5t56.5 278.5t152.5 228.5t229 153t279 57z" />
    <glyph glyph-name="uni2462" unicode="&#x2462;" 
d="M815 1358q-132 0 -251 -51.5t-205 -137.5t-136.5 -204.5t-50.5 -247.5q0 -175 87 -322.5t235 -233t321 -85.5q131 0 250 51.5t204.5 137.5t136 204.5t50.5 247.5q0 131 -51.5 250t-137.5 204.5t-204.5 136t-247.5 50.5zM815 1434q145 0 278 -57t229 -153t153 -229
t57 -278t-57 -278t-153 -229t-229 -153t-278 -57q-146 0 -279 57t-229 153t-152.5 228.5t-56.5 278.5t56.5 278.5t152.5 228.5t229 153t279 57zM817 1143q116 0 191 -50t75 -157q0 -68 -36.5 -118.5t-100.5 -72.5q77 -23 122.5 -76t45.5 -130q0 -122 -84 -185t-211 -63
q-131 0 -212.5 58.5t-92.5 182.5h88q10 -90 66 -127.5t151 -37.5q93 0 150 41.5t57 132.5q0 81 -58 124.5t-145 43.5h-63v69h61q79 0 126.5 38t47.5 116q0 135 -180 135q-170 0 -184 -147h-90q9 108 86.5 165.5t189.5 57.5z" />
    <glyph glyph-name="uni2463" unicode="&#x2463;" 
d="M866 573v463l-309 -463h309zM815 1358q-132 0 -251 -51.5t-205 -137.5t-136.5 -204.5t-50.5 -247.5q0 -175 87 -322.5t235 -233t321 -85.5q131 0 250 51.5t204.5 137.5t136 204.5t50.5 247.5q0 131 -51.5 250t-137.5 204.5t-204.5 136t-247.5 50.5zM463 555l393 588h96
v-570h129v-75h-129v-207h-86v207h-403v57zM815 1434q145 0 278 -57t229 -153t153 -229t57 -278t-57 -278t-153 -229t-229 -153t-278 -57q-146 0 -279 57t-229 153t-152.5 228.5t-56.5 278.5t56.5 278.5t152.5 228.5t229 153t279 57z" />
    <glyph glyph-name="uni2464" unicode="&#x2464;" 
d="M815 1358q-132 0 -251 -51.5t-205 -137.5t-136.5 -204.5t-50.5 -247.5q0 -175 87 -322.5t235 -233t321 -85.5q131 0 250 51.5t204.5 137.5t136 204.5t50.5 247.5q0 131 -51.5 250t-137.5 204.5t-204.5 136t-247.5 50.5zM815 1434q145 0 278 -57t229 -153t153 -229
t57 -278t-57 -278t-153 -229t-229 -153t-278 -57q-146 0 -279 57t-229 153t-152.5 228.5t-56.5 278.5t56.5 278.5t152.5 228.5t229 153t279 57zM532 662l60 481h465v-78h-389l-37 -293q31 42 89.5 66t117.5 24q123 0 194.5 -80.5t71.5 -206.5q0 -128 -84 -206t-209 -78
q-115 0 -191.5 54.5t-95.5 168.5h90q25 -145 195 -145q87 0 147 59t60 150q0 90 -51.5 149t-139.5 59q-139 0 -202 -124h-91z" />
    <glyph glyph-name="uni2465" unicode="&#x2465;" 
d="M815 1358q-132 0 -251 -51.5t-205 -137.5t-136.5 -204.5t-50.5 -247.5q0 -175 87 -322.5t235 -233t321 -85.5q131 0 250 51.5t204.5 137.5t136 204.5t50.5 247.5q0 131 -51.5 250t-137.5 204.5t-204.5 136t-247.5 50.5zM829 782q-86 0 -147 -60.5t-61 -146.5
q0 -93 56 -150.5t146 -57.5q91 0 144 60.5t53 154.5q0 88 -52.5 144t-138.5 56zM815 1434q145 0 278 -57t229 -153t153 -229t57 -278t-57 -278t-153 -229t-229 -153t-278 -57q-146 0 -279 57t-229 153t-152.5 228.5t-56.5 278.5t56.5 278.5t152.5 228.5t229 153t279 57z
M836 852q121 0 196.5 -76t75.5 -196q0 -126 -76.5 -207.5t-206.5 -81.5q-83 0 -144 30.5t-95 85t-50 120.5t-16 147q0 84 16.5 162t52 149.5t101 114.5t154.5 43q105 0 171.5 -53.5t88.5 -155.5h-84q-20 71 -61.5 102t-114.5 31q-61 0 -107.5 -31.5t-72.5 -84.5t-39 -109.5
t-15 -118.5q33 61 94 95t132 34z" />
    <glyph glyph-name="uni2466" unicode="&#x2466;" 
d="M815 1358q-132 0 -251 -51.5t-205 -137.5t-136.5 -204.5t-50.5 -247.5q0 -175 87 -322.5t235 -233t321 -85.5q131 0 250 51.5t204.5 137.5t136 204.5t50.5 247.5q0 131 -51.5 250t-137.5 204.5t-204.5 136t-247.5 50.5zM815 1434q145 0 278 -57t229 -153t153 -229
t57 -278t-57 -278t-153 -229t-229 -153t-278 -57q-146 0 -279 57t-229 153t-152.5 228.5t-56.5 278.5t56.5 278.5t152.5 228.5t229 153t279 57zM549 1143h536v-76q-118 -158 -192 -371t-74 -405h-92q0 184 78.5 400t195.5 374h-452v78z" />
    <glyph glyph-name="uni2467" unicode="&#x2467;" 
d="M815 1358q-132 0 -251 -51.5t-205 -137.5t-136.5 -204.5t-50.5 -247.5q0 -175 87 -322.5t235 -233t321 -85.5q131 0 250 51.5t204.5 137.5t136 204.5t50.5 247.5q0 131 -51.5 250t-137.5 204.5t-204.5 136t-247.5 50.5zM813 1069q-76 0 -128 -34.5t-52 -108.5
q0 -68 52 -105t128 -37q77 0 129.5 37t52.5 105q0 74 -51.5 108.5t-130.5 34.5zM813 365q88 0 153.5 42t65.5 128q0 82 -67 129t-152 47q-83 0 -150 -47t-67 -129q0 -59 34.5 -99t81.5 -55.5t101 -15.5zM815 1434q145 0 278 -57t229 -153t153 -229t57 -278t-57 -278
t-153 -229t-229 -153t-278 -57q-146 0 -279 57t-229 153t-152.5 228.5t-56.5 278.5t56.5 278.5t152.5 228.5t229 153t279 57zM813 1143q117 0 192.5 -55.5t75.5 -159.5q0 -64 -39 -108.5t-106 -67.5q82 -23 133 -80.5t51 -139.5q0 -50 -18 -91.5t-48 -68.5t-70.5 -46
t-83 -27t-87.5 -8q-57 0 -109.5 13.5t-97 41t-71.5 75.5t-27 111q0 82 50.5 139.5t133.5 80.5q-67 23 -106 67.5t-39 108.5q0 104 75.5 159.5t190.5 55.5z" />
    <glyph glyph-name="uni2468" unicode="&#x2468;" 
d="M815 1358q-132 0 -251 -51.5t-205 -137.5t-136.5 -204.5t-50.5 -247.5q0 -175 87 -322.5t235 -233t321 -85.5q131 0 250 51.5t204.5 137.5t136 204.5t50.5 247.5q0 131 -51.5 250t-137.5 204.5t-204.5 136t-247.5 50.5zM838 1067q-90 0 -143.5 -61t-53.5 -154
q0 -88 52 -144.5t138 -56.5q87 0 148 61t61 148q0 91 -56 149t-146 58zM815 1434q145 0 278 -57t229 -153t153 -229t57 -278t-57 -278t-153 -229t-229 -153t-278 -57q-146 0 -279 57t-229 153t-152.5 228.5t-56.5 278.5t56.5 278.5t152.5 228.5t229 153t279 57zM838 1143
q82 0 142.5 -30.5t94.5 -85t50 -120.5t16 -147q0 -66 -9.5 -129t-33 -126t-59.5 -109.5t-92.5 -75.5t-127.5 -29q-107 0 -173.5 53.5t-88.5 155.5h84q20 -71 62 -103t114 -32q63 0 110 33t72 88t37 110.5t15 114.5q-33 -61 -94 -95t-132 -34q-121 0 -196.5 76t-75.5 196
q0 126 76.5 207.5t208.5 81.5z" />
    <glyph glyph-name="uni24EA" unicode="&#x24ea;" 
d="M813 1067q-64 0 -111.5 -32t-72 -85t-36 -110.5t-11.5 -120.5q0 -50 6.5 -97t23 -94t42 -82t66.5 -57t93 -22t94 22t67.5 57t42.5 82t23.5 94t6.5 97q0 63 -11 120t-36 110.5t-73 85.5t-114 32zM813 1143q70 0 125.5 -24t91.5 -64.5t60.5 -96t34.5 -115t10 -124.5
t-10.5 -124.5t-34.5 -115.5t-60.5 -97t-92 -66t-124.5 -25q-68 0 -123.5 25t-91 66t-59.5 97t-34.5 115.5t-10.5 124.5t10 124.5t34 115t59.5 96t91 64.5t124.5 24zM815 1434q145 0 278 -57t229 -153t153 -229t57 -278t-57 -278t-153 -229t-229 -153t-278 -57
q-146 0 -279 57t-229 153t-152.5 228.5t-56.5 278.5t56.5 278.5t152.5 228.5t229 153t279 57zM815 1358q-132 0 -251 -51.5t-205 -137.5t-136.5 -204.5t-50.5 -247.5q0 -175 87 -322.5t235 -233t321 -85.5q131 0 250 51.5t204.5 137.5t136 204.5t50.5 247.5q0 131 -51.5 250
t-137.5 204.5t-204.5 136t-247.5 50.5z" />
    <glyph glyph-name="uni24FF" unicode="&#x24ff;" 
d="M815 1434q145 0 278 -57t229 -153t153 -229t57 -278t-57 -278t-153 -229t-229 -153t-278 -57q-146 0 -279 57t-229 153t-152.5 228.5t-56.5 278.5t56.5 278.5t152.5 228.5t229 153t279 57zM813 1143q-69 0 -124.5 -24t-91 -64.5t-59.5 -96t-34 -115t-10 -124.5
t10.5 -124.5t34.5 -115.5t59.5 -97t91 -66t123.5 -25q69 0 124.5 25t92 66t60.5 97t34.5 115.5t10.5 124.5t-10 124.5t-34.5 115t-60.5 96t-91.5 64.5t-125.5 24zM813 1067q66 0 114 -32t73 -85.5t36 -110.5t11 -120q0 -50 -6.5 -97t-23.5 -94t-42.5 -82t-67.5 -57t-94 -22
t-93 22t-66.5 57t-42 82t-23 94t-6.5 97q0 63 11.5 120.5t36 110.5t72 85t111.5 32z" />
    <glyph glyph-name="filledbox" unicode="&#x25a0;" horiz-adv-x="1751" 
d="M160 0v1434h1431v-1434h-1431z" />
    <glyph glyph-name="uni25A1" unicode="&#x25a1;" horiz-adv-x="1751" 
d="M160 0v1434h1431v-1434h-1431zM272 1321v-1208h1207v1208h-1207z" />
    <glyph glyph-name="triagup" unicode="&#x25b2;" horiz-adv-x="1536" 
d="M768 1434l745 -1434h-1493z" />
    <glyph glyph-name="uni25B3" unicode="&#x25b3;" horiz-adv-x="1536" 
d="M768 1434l745 -1434h-1493zM768 1190l-561 -1077h1122z" />
    <glyph glyph-name="uni25B7" unicode="&#x25b7;" horiz-adv-x="1615" 
d="M160 1493l1433 -745l-1433 -748v1493zM272 1309v-1123l1078 562z" />
    <glyph glyph-name="triagrt" unicode="&#x25ba;" horiz-adv-x="1615" 
d="M160 1493l1433 -745l-1433 -748v1493z" />
    <glyph glyph-name="triagdn" unicode="&#x25bc;" horiz-adv-x="1536" 
d="M20 1434h1493l-745 -1434z" />
    <glyph glyph-name="uni25BD" unicode="&#x25bd;" horiz-adv-x="1536" 
d="M20 1434h1493l-745 -1434zM207 1321l561 -1077l561 1077h-1122z" />
    <glyph glyph-name="uni25C0" unicode="&#x25c0;" horiz-adv-x="1615" 
d="M1454 1493v-1493l-1434 748z" />
    <glyph glyph-name="uni25C1" unicode="&#x25c1;" horiz-adv-x="1615" 
d="M1454 1493v-1493l-1434 748zM264 748l1077 -562v1123z" />
    <glyph glyph-name="lozenge" unicode="&#x25ca;" horiz-adv-x="1138" 
d="M907 717l-338 639l-340 -639l340 -639zM113 717l399 747h113l399 -747l-399 -748h-113z" />
    <glyph glyph-name="circle" unicode="&#x25cb;" horiz-adv-x="1628" 
d="M813 1321q-122 0 -233 -47.5t-192 -128t-129 -192.5t-48 -236q0 -122 47.5 -233.5t128 -192.5t192 -129.5t234.5 -48.5q164 0 303 80.5t220 219.5t81 304q0 122 -47.5 233.5t-128 192.5t-192.5 129.5t-236 48.5zM813 1434q146 0 279 -57t229 -153t152.5 -228.5
t56.5 -278.5t-56.5 -278.5t-152.5 -228.5t-229 -153t-279 -57q-145 0 -277.5 57t-228.5 153t-152.5 228.5t-56.5 278.5t56.5 278.5t152.5 228.5t228.5 153t277.5 57z" />
    <glyph glyph-name="uni25CF" unicode="&#x25cf;" horiz-adv-x="1628" 
d="M813 0q-145 0 -277.5 57t-228.5 153t-152.5 228.5t-56.5 278.5t56.5 278.5t152.5 228.5t228.5 153t277.5 57q146 0 279 -57t229 -153t152.5 -228.5t56.5 -278.5t-56.5 -278.5t-152.5 -228.5t-229 -153t-279 -57z" />
    <glyph glyph-name="uni2776" unicode="&#x2776;" 
d="M885 1141h-68q0 -42 -11.5 -72.5t-30 -48t-48.5 -27.5t-59 -13t-70 -3v-68h203v-618h84v850zM815 1434q145 0 278 -57t229 -153t153 -229t57 -278t-57 -278t-153 -229t-229 -153t-278 -57q-146 0 -279 57t-229 153t-152.5 228.5t-56.5 278.5t56.5 278.5t152.5 228.5
t229 153t279 57z" />
    <glyph glyph-name="uni2777" unicode="&#x2777;" 
d="M823 1143q-129 0 -205 -72.5t-90 -200.5h90q29 195 205 195q83 0 134 -39.5t51 -118.5q0 -36 -15 -66.5t-47 -56.5t-61 -43.5t-77 -44.5q-10 -5 -15 -8q-61 -35 -99.5 -62t-82.5 -72.5t-65 -106t-20 -136.5v-20h576v80h-471q2 36 18 68.5t34.5 55t55 50.5t60 42.5
t69.5 41.5q33 20 49.5 30.5t45 30.5t43.5 34t34.5 36t29.5 42.5t17 48t7 56.5q0 118 -75.5 177t-195.5 59zM815 1434q145 0 278 -57t229 -153t153 -229t57 -278t-57 -278t-153 -229t-229 -153t-278 -57q-146 0 -279 57t-229 153t-152.5 228.5t-56.5 278.5t56.5 278.5
t152.5 228.5t229 153t279 57z" />
    <glyph glyph-name="uni2778" unicode="&#x2778;" 
d="M819 291q127 0 211 63t84 185q0 77 -46 131t-122 75q64 22 100.5 72.5t36.5 118.5q0 107 -75 157t-191 50q-112 0 -189.5 -57.5t-86.5 -165.5h90q14 147 184 147q180 0 180 -135q0 -78 -47.5 -116t-126.5 -38h-61v-69h63q87 0 145 -43.5t58 -124.5q0 -91 -57 -132.5
t-150 -41.5q-95 0 -151 37.5t-66 127.5h-88q11 -124 92.5 -182.5t212.5 -58.5zM815 1434q145 0 278 -57t229 -153t153 -229t57 -278t-57 -278t-153 -229t-229 -153t-278 -57q-146 0 -279 57t-229 153t-152.5 228.5t-56.5 278.5t56.5 278.5t152.5 228.5t229 153t279 57z" />
    <glyph glyph-name="uni2779" unicode="&#x2779;" 
d="M950 1143h-94l-393 -588v-57h403v-207h84v207h131v75h-131v570zM555 573l311 463v-463h-311zM815 1434q145 0 278 -57t229 -153t153 -229t57 -278t-57 -278t-153 -229t-229 -153t-278 -57q-146 0 -279 57t-229 153t-152.5 228.5t-56.5 278.5t56.5 278.5t152.5 228.5
t229 153t279 57z" />
    <glyph glyph-name="uni277A" unicode="&#x277a;" 
d="M1057 1143h-465l-60 -481h91q63 124 202 124q88 0 139.5 -59t51.5 -149q0 -91 -60 -150t-147 -59q-170 0 -195 145h-90q19 -114 95.5 -168.5t191.5 -54.5q125 0 209 78t84 206q0 126 -71.5 206.5t-194.5 80.5q-59 0 -117.5 -24t-89.5 -66l37 293h389v78zM815 1434
q145 0 278 -57t229 -153t153 -229t57 -278t-57 -278t-153 -229t-229 -153t-278 -57q-146 0 -279 57t-229 153t-152.5 228.5t-56.5 278.5t56.5 278.5t152.5 228.5t229 153t279 57z" />
    <glyph glyph-name="uni277B" unicode="&#x277b;" 
d="M836 852q-71 0 -132 -34t-94 -95q2 62 15 118.5t39 109.5t72.5 84.5t107.5 31.5q73 0 114.5 -31t61.5 -102h84q-22 102 -88.5 155.5t-171.5 53.5q-89 0 -154.5 -43t-101 -114.5t-52 -149.5t-16.5 -162q0 -81 16 -147t50 -120.5t95 -85t144 -30.5q130 0 206.5 81.5
t76.5 207.5q0 120 -75.5 196t-196.5 76zM815 1434q145 0 278 -57t229 -153t153 -229t57 -278t-57 -278t-153 -229t-229 -153t-278 -57q-146 0 -279 57t-229 153t-152.5 228.5t-56.5 278.5t56.5 278.5t152.5 228.5t229 153t279 57zM823 367q-90 0 -146 57.5t-56 150.5
q0 86 61 146.5t147 60.5t138.5 -56t52.5 -144q0 -94 -53 -154.5t-144 -60.5z" />
    <glyph glyph-name="uni277C" unicode="&#x277c;" 
d="M1087 1067v76h-538v-78h452q-117 -158 -195.5 -374t-78.5 -400h92q0 192 74.5 405t193.5 371zM815 1434q145 0 278 -57t229 -153t153 -229t57 -278t-57 -278t-153 -229t-229 -153t-278 -57q-146 0 -279 57t-229 153t-152.5 228.5t-56.5 278.5t56.5 278.5t152.5 228.5
t229 153t279 57z" />
    <glyph glyph-name="uni277D" unicode="&#x277d;" 
d="M813 1143q-115 0 -190.5 -55.5t-75.5 -159.5q0 -64 39 -108.5t106 -67.5q-83 -23 -133.5 -80.5t-50.5 -139.5q0 -63 27 -111t71.5 -75.5t97 -41t109.5 -13.5q45 0 87.5 8t83 27t70.5 46t48 68.5t18 91.5q0 82 -51 139.5t-133 80.5q67 23 106 67.5t39 108.5
q0 104 -75.5 159.5t-192.5 55.5zM815 1434q145 0 278 -57t229 -153t153 -229t57 -278t-57 -278t-153 -229t-229 -153t-278 -57q-146 0 -279 57t-229 153t-152.5 228.5t-56.5 278.5t56.5 278.5t152.5 228.5t229 153t279 57zM813 1069q79 0 130.5 -34.5t51.5 -108.5
q0 -68 -52.5 -105t-129.5 -37q-76 0 -128 37t-52 105q0 74 52 108.5t128 34.5zM813 365q-54 0 -101 15.5t-81.5 55.5t-34.5 99q0 82 67 129t150 47q85 0 152 -47t67 -129q0 -86 -65.5 -128t-153.5 -42z" />
    <glyph glyph-name="uni277E" unicode="&#x277e;" 
d="M838 1143q-132 0 -208.5 -81.5t-76.5 -207.5q0 -120 75.5 -196t196.5 -76q71 0 132 34t94 95q-3 -59 -15 -114.5t-37 -110.5t-72 -88t-110 -33q-72 0 -114 32t-62 103h-84q22 -102 88.5 -155.5t173.5 -53.5q71 0 127.5 29t92.5 75.5t59.5 109.5t33 126t9.5 129
q0 81 -16 147t-50 120.5t-94.5 85t-142.5 30.5zM815 1434q145 0 278 -57t229 -153t153 -229t57 -278t-57 -278t-153 -229t-229 -153t-278 -57q-146 0 -279 57t-229 153t-152.5 228.5t-56.5 278.5t56.5 278.5t152.5 228.5t229 153t279 57zM838 1067q90 0 146 -58t56 -149
q0 -87 -61 -148t-148 -61q-86 0 -138 56.5t-52 144.5q0 93 53.5 154t143.5 61z" />
    <glyph glyph-name="uni27F5" unicode="&#x27f5;" horiz-adv-x="2365" 
d="M23 717l651 653l80 -80l-516 -516h2009v-112h-2009l516 -517l-80 -79z" />
    <glyph glyph-name="uni27F6" unicode="&#x27f6;" horiz-adv-x="2365" 
d="M1612 1290l80 80l651 -653l-651 -651l-80 79l516 517h-2009v112h2009z" />
    <glyph glyph-name="uni27F7" unicode="&#x27f7;" horiz-adv-x="3149" 
d="M20 717l652 653l80 -80l-516 -516h2676l-516 516l80 80l653 -653l-653 -651l-80 79l516 517h-2676l516 -517l-80 -79z" />
    <glyph glyph-name="uni27F8" unicode="&#x27f8;" horiz-adv-x="2357" 
d="M20 717l652 653l80 -80l-320 -319h1806v-113h-1919l-139 -141l139 -139h1919v-113h-1806l320 -320l-80 -79z" />
    <glyph glyph-name="uni27F9" unicode="&#x27f9;" horiz-adv-x="2357" 
d="M1604 1290l79 80l654 -653l-654 -651l-79 79l321 320h-1806v113h1919l139 139l-139 141h-1919v113h1806z" />
    <glyph glyph-name="uni27FA" unicode="&#x27fa;" horiz-adv-x="3231" 
d="M3049 717l-139 141h-2588l-140 -141l140 -139h2588zM2478 1290l80 80l651 -653l-651 -651l-80 79l320 320h-2364l320 -320l-80 -79l-651 651l651 653l80 -80l-320 -319h2364z" />
    <glyph glyph-name="uni2913" unicode="&#x2913;" horiz-adv-x="1540" 
d="M1382 0h-1224v113h1224v-113zM197 1040l518 -516v920h112v-920l516 516l78 -77l-651 -654l-651 654z" />
    <glyph glyph-name="zero.numr" horiz-adv-x="796" 
d="M397 1389q-52 0 -93.5 -22t-66.5 -56.5t-41.5 -81.5t-23 -93.5t-6.5 -95.5q0 -50 6.5 -96.5t23 -94.5t41.5 -82.5t66.5 -56.5t93.5 -22q64 0 111.5 32.5t72.5 86.5t36.5 112t11.5 121t-11 120.5t-36 111t-72.5 85.5t-112.5 32zM397 1466q70 0 125.5 -24.5t91.5 -65
t60.5 -96.5t34.5 -115.5t10 -124.5t-10.5 -124.5t-34.5 -115.5t-60.5 -97t-92 -66t-124.5 -25q-68 0 -123.5 25t-91 66t-59.5 97t-34.5 115.5t-10.5 124.5t10 124.5t34 115.5t59.5 96.5t91 65t124.5 24.5z" />
    <glyph glyph-name="five.numr" horiz-adv-x="735" 
d="M608 1466v-80h-387l-39 -290q32 42 91 65t118 23q122 0 193 -80t71 -205q0 -129 -84 -208t-209 -79q-115 0 -190.5 55t-93.5 169h90q11 -74 64 -110t130 -36q87 0 147 59t60 150t-51 150t-141 59q-140 0 -201 -125h-90l59 483h463z" />
    <glyph glyph-name="six.numr" horiz-adv-x="743" 
d="M387 1104q-88 0 -148.5 -60.5t-60.5 -146.5q0 -93 56.5 -151t146.5 -58t143.5 61.5t53.5 153.5q0 88 -52.5 144.5t-138.5 56.5zM393 1174q121 0 197 -76t76 -197q0 -126 -76.5 -207.5t-208.5 -81.5q-82 0 -142.5 30.5t-94.5 85t-50 120.5t-16 147q0 67 9.5 130.5
t33 126.5t59 109.5t92 75.5t127.5 29q107 0 174 -54.5t89 -156.5h-84q-20 71 -63 103.5t-116 32.5q-101 0 -163 -94t-68 -250q34 60 94 93.5t131 33.5z" />
    <glyph glyph-name="seven.numr" horiz-adv-x="653" 
d="M594 1466v-77q-118 -158 -192 -371t-74 -406h-95q0 184 78.5 399.5t196.5 374.5h-451v80h537z" />
    <glyph glyph-name="eight.numr" horiz-adv-x="765" 
d="M383 1391q-77 0 -129.5 -35t-52.5 -109q0 -68 53 -104.5t129 -36.5t129 36.5t53 104.5q0 74 -52.5 109t-129.5 35zM383 686q86 0 152.5 42.5t66.5 127.5q0 82 -67 129t-152 47t-152 -47t-67 -129q0 -85 66.5 -127.5t152.5 -42.5zM383 1466q116 0 191 -56.5t75 -160.5
q0 -64 -38 -108.5t-105 -67.5q81 -21 131.5 -79t50.5 -140q0 -62 -27 -110.5t-72 -76t-97.5 -41.5t-108.5 -14q-78 0 -144.5 23.5t-113.5 80t-47 138.5t50.5 140t131.5 79q-67 23 -105 67.5t-38 108.5q0 104 75.5 160.5t190.5 56.5z" />
    <glyph glyph-name="nine.numr" horiz-adv-x="743" 
d="M362 1389q-91 0 -144.5 -61t-53.5 -154q0 -86 53 -143.5t139 -57.5q87 0 148 61t61 148q0 91 -56.5 149t-146.5 58zM362 1466q82 0 142.5 -30.5t95 -85.5t50.5 -121.5t16 -147.5q0 -66 -9.5 -129t-33 -126t-59.5 -109.5t-92.5 -75.5t-127.5 -29q-107 0 -173.5 53.5
t-88.5 155.5h84q20 -70 62 -101.5t114 -31.5q63 0 110 33t71.5 87.5t36.5 109.5t15 114q-33 -61 -93.5 -95t-131.5 -34q-121 0 -196.5 76.5t-75.5 196.5q0 128 76 209t208 81z" />
    <glyph glyph-name="one.numr" horiz-adv-x="483" 
d="M295 1464h70v-850h-86v619h-201v67q40 0 69.5 3t59 13t47.5 27.5t29.5 48t11.5 72.5z" />
    <glyph glyph-name="two.numr" horiz-adv-x="731" 
d="M375 1466q120 0 195 -59t75 -178q0 -40 -14 -76.5t-31.5 -61t-53 -53.5t-58.5 -44.5t-68 -43.5l-50 -30t-45 -29t-44.5 -32.5t-36 -33.5t-32 -39.5t-19.5 -43t-11 -50.5h471v-80h-575v33q-1 60 16 112t41 87t65 69.5t73 54t81 46.5q44 25 63 36t52.5 34.5t48 41.5
t27 45.5t12.5 57.5q0 81 -49.5 119t-132.5 38q-176 0 -205 -194h-90q14 128 90.5 201t204.5 73z" />
    <glyph glyph-name="three.numr" horiz-adv-x="757" 
d="M383 1466q116 0 191 -51t75 -158q0 -67 -37 -116.5t-100 -73.5q77 -21 122.5 -74.5t45.5 -132.5q0 -122 -84.5 -185t-212.5 -63q-131 0 -212 59.5t-93 184.5h88q11 -91 67.5 -129.5t149.5 -38.5q94 0 150.5 41.5t56.5 132.5q0 81 -57.5 124.5t-145.5 43.5h-63v70h61
q79 0 127.5 38.5t48.5 114.5q0 73 -50.5 104.5t-129.5 31.5q-172 0 -186 -148h-89q7 108 85.5 166.5t191.5 58.5z" />
    <glyph glyph-name="four.numr" horiz-adv-x="733" 
d="M461 897v461l-309 -461h309zM57 879l394 587h96v-569h129v-76h-129v-209h-86v209h-404v58z" />
    <glyph glyph-name="dngb_check" horiz-adv-x="1509" 
d="M1333 1184l80 -78l-856 -856l-459 457l80 79l379 -376z" />
    <glyph glyph-name="dngb_ballotx" horiz-adv-x="1114" 
d="M557 797l379 379l80 -80l-379 -379l379 -379l-80 -80l-379 379l-379 -379l-80 80l379 379l-379 379l80 80z" />
    <glyph glyph-name="zero.dnom" horiz-adv-x="796" 
d="M397 745q-65 0 -112.5 -32t-72 -85.5t-35.5 -110.5t-11 -120q0 -50 6.5 -96.5t23 -94.5t41.5 -82.5t66.5 -56.5t93.5 -22q64 0 111.5 32.5t72.5 86.5t36.5 112t11.5 121t-11 120t-36 110.5t-72.5 85.5t-112.5 32zM397 823q70 0 125.5 -24.5t91.5 -65t60.5 -96.5
t34.5 -115.5t10 -124.5t-10.5 -124.5t-34.5 -115.5t-60.5 -97t-92 -66t-124.5 -25q-68 0 -123.5 25t-91 66t-59.5 97t-34.5 115.5t-10.5 124.5t10 124.5t34 115.5t59.5 96.5t91 65t124.5 24.5z" />
    <glyph glyph-name="one.dnom" horiz-adv-x="483" 
d="M295 819h70v-850h-86v619h-201v67q40 0 69.5 3t59 13t47.5 27.5t29.5 48t11.5 72.5z" />
    <glyph glyph-name="two.dnom" horiz-adv-x="731" 
d="M375 823q120 0 195 -59t75 -178q0 -40 -14 -76.5t-31.5 -61t-53 -53.5t-58.5 -44.5t-68 -43.5l-50 -30t-45 -29t-44.5 -32.5t-36 -33.5t-32 -39.5t-19.5 -43t-11 -50.5h471v-80h-575v33q-1 60 16 112t41 87t65 69.5t73 54t81 46.5q44 25 63 36t52.5 34.5t48 41.5t27 45.5
t12.5 57.5q0 81 -49.5 119t-132.5 38q-176 0 -205 -194h-90q14 128 90.5 201t204.5 73z" />
    <glyph glyph-name="three.dnom" horiz-adv-x="757" 
d="M383 823q116 0 191 -51t75 -158q0 -67 -37 -116.5t-100 -73.5q77 -21 122.5 -74.5t45.5 -132.5q0 -122 -84.5 -185t-212.5 -63q-131 0 -212 59.5t-93 184.5h88q11 -91 67.5 -129.5t149.5 -38.5q94 0 150.5 41.5t56.5 132.5q0 81 -57.5 124.5t-145.5 43.5h-63v70h61
q79 0 127.5 38.5t48.5 114.5q0 135 -180 135q-172 0 -186 -147h-89q7 108 85.5 166.5t191.5 58.5z" />
    <glyph glyph-name="four.dnom" horiz-adv-x="733" 
d="M461 254v461l-309 -461h309zM57 236l394 587h96v-569h129v-76h-129v-209h-86v209h-404v58z" />
    <glyph glyph-name="five.dnom" horiz-adv-x="735" 
d="M608 823v-80h-387l-39 -290q32 42 91 65t118 23q122 0 193 -80t71 -205q0 -129 -84 -208t-209 -79q-115 0 -190.5 55t-93.5 169h90q11 -74 64 -110t130 -36q87 0 147 59t60 150t-51 150t-141 59q-140 0 -201 -125h-90l59 483h463z" />
    <glyph glyph-name="six.dnom" horiz-adv-x="743" 
d="M387 461q-88 0 -148.5 -60.5t-60.5 -146.5q0 -93 56.5 -151t146.5 -58t143.5 61.5t53.5 153.5q0 88 -52.5 144.5t-138.5 56.5zM393 530q122 0 197.5 -75.5t75.5 -196.5q0 -126 -76.5 -207.5t-208.5 -81.5q-82 0 -142.5 30.5t-94.5 85t-50 120.5t-16 147q0 67 9.5 130.5
t33 126.5t59 109.5t92 75.5t127.5 29q107 0 174 -54.5t89 -156.5h-84q-20 71 -63 103.5t-116 32.5q-100 0 -162.5 -94t-68.5 -251q34 60 94 93.5t131 33.5z" />
    <glyph glyph-name="seven.dnom" horiz-adv-x="653" 
d="M594 823v-78q-118 -158 -192 -370.5t-74 -405.5h-95q0 184 78.5 399.5t196.5 374.5h-451v80h537z" />
    <glyph glyph-name="eight.dnom" horiz-adv-x="765" 
d="M383 748q-77 0 -129.5 -35t-52.5 -109q0 -68 53 -104.5t129 -36.5t129 36.5t53 104.5q0 74 -52.5 109t-129.5 35zM383 43q86 0 152.5 42.5t66.5 127.5q0 82 -67 129t-152 47t-152 -47t-67 -129q0 -85 66.5 -127.5t152.5 -42.5zM383 823q116 0 191 -56.5t75 -160.5
q0 -64 -38 -108.5t-105 -67.5q81 -21 131.5 -79t50.5 -140q0 -62 -27 -110.5t-72 -76t-97.5 -41.5t-108.5 -14q-78 0 -144.5 23.5t-113.5 80t-47 138.5t50.5 140t131.5 79q-67 23 -105 67.5t-38 108.5q0 104 75.5 160.5t190.5 56.5z" />
    <glyph glyph-name="nine.dnom" horiz-adv-x="743" 
d="M362 745q-91 0 -144.5 -61t-53.5 -154q0 -86 53 -143t139 -57q87 0 148 61t61 148q0 91 -56.5 148.5t-146.5 57.5zM362 823q82 0 142.5 -30.5t95 -85.5t50.5 -121.5t16 -147.5q0 -66 -9.5 -129t-33 -126t-59.5 -109.5t-92.5 -75.5t-127.5 -29q-107 0 -173.5 53.5
t-88.5 155.5h84q20 -70 62 -101.5t114 -31.5q63 0 110 33t71.5 87.5t36.5 109.5t15 114q-33 -61 -93.5 -95t-131.5 -34q-121 0 -196.5 76t-75.5 196q0 128 76 209.5t208 81.5z" />
    <glyph glyph-name="leftLongArrow2" horiz-adv-x="5025" 
d="M20 717l652 653l80 -80l-516 -516h4669v-112h-4669l516 -517l-80 -79z" />
    <glyph glyph-name="rightLongArrow2" horiz-adv-x="5025" 
d="M4270 1290l80 80l651 -653l-651 -651l-80 79l516 517h-4669v112h4669z" />
    <glyph glyph-name="uni2197.case" horiz-adv-x="1312" 
d="M272 942v113h924v-924h-113v731l-884 -885l-80 80l885 885h-732z" />
    <glyph glyph-name="uni2198.case" horiz-adv-x="1312" 
d="M1081 193v729h113v-922h-922v113h729l-882 884l78 80z" />
    <glyph glyph-name="uni2199.case" horiz-adv-x="1312" 
d="M119 0v922h112v-729l883 884l80 -80l-885 -884h731v-113h-921z" />
    <glyph glyph-name="uni2196.case" horiz-adv-x="1312" 
d="M119 131v924h921v-113h-729l885 -885l-80 -80l-885 885v-731h-112z" />
    </font>
</defs>
</svg>
