<?xml version="1.0" standalone="no"?>
<!DOCTYPE svg PUBLIC "-//W3C//DTD SVG 1.1//EN" "http://www.w3.org/Graphics/SVG/1.1/DTD/svg11.dtd" >
<svg xmlns="http://www.w3.org/2000/svg" xmlns:xlink="http://www.w3.org/1999/xlink" version="1.1">
<metadata>
Created by FontForge 20201107 at Sat Nov  8 08:16:48 2025
 By 
Copyright (c) 2025 by Khairunnas for Zelowtype. All rights reserved.
</metadata>
<defs>
<font id="ZTNature-Regular" horiz-adv-x="1118" >
  <font-face 
    font-family="ZT Nature"
    font-weight="400"
    font-stretch="normal"
    units-per-em="2048"
    panose-1="0 0 0 0 0 0 0 0 0 0"
    ascent="1638"
    descent="-410"
    x-height="1055"
    cap-height="1434"
    bbox="-354 -623 5057 2138"
    underline-thickness="106"
    underline-position="-415"
    unicode-range="U+000A-2913"
  />
<missing-glyph horiz-adv-x="1007" 
d="M326 481q0 -69 40 -117.5t109 -48.5q65 0 108.5 45.5t43.5 110.5l-37 21q-14 8 -33 -3l-8 -8q-7 -6 -18 -6t-19 6l-4 4q-20 16 -37 2l-6 -6q-7 -6 -18.5 -5.5t-18.5 7.5l-10 11q-18 15 -37 2l-21 -17q-18 -11 -34 2zM326 954q0 -69 40 -117.5t109 -48.5q65 0 108.5 45.5
t43.5 110.5l-37 21q-15 9 -33 -2l-8 -9q-7 -6 -18.5 -5.5t-18.5 7.5l-4 2q-7 7 -18.5 8t-18.5 -5l-6 -7q-7 -6 -18.5 -5.5t-18.5 7.5l-10 11q-18 15 -37 2l-21 -15q-17 -14 -34 0zM772 1362h-534v-1290h534v1290zM844 0h-678v1434h678v-1434zM672 309l-47 39
q-59 -76 -154 -76q-79 0 -135.5 56.5t-56.5 136.5q0 79 56.5 135.5t135.5 56.5q51 0 98 -26l39 47q8 8 15 0q3 -2 4 -6.5t-2 -7.5l-37 -46q53 -41 71 -106l60 6q12 0 12 -10t-10 -10l-59 -6q2 -8 2 -27q0 -49 -27 -98l49 -41q3 -1 3.5 -6.5t-1.5 -8.5q-6 -5 -16 -2zM672 784
l-47 37q-59 -76 -154 -76q-79 0 -135.5 56.5t-56.5 136.5t56.5 136t135.5 56q56 0 98 -26l39 47q6 6 15 2q8 -8 2 -16l-37 -45q52 -40 71 -107l60 6q12 0 12 -10t-10 -10l-59 -6q2 -8 2 -27q0 -49 -27 -98l49 -39q6 -6 2 -17q-6 -6 -16 0z" />
    <glyph glyph-name=".notdef" horiz-adv-x="1007" 
d="M326 481q0 -69 40 -117.5t109 -48.5q65 0 108.5 45.5t43.5 110.5l-37 21q-14 8 -33 -3l-8 -8q-7 -6 -18 -6t-19 6l-4 4q-20 16 -37 2l-6 -6q-7 -6 -18.5 -5.5t-18.5 7.5l-10 11q-18 15 -37 2l-21 -17q-18 -11 -34 2zM326 954q0 -69 40 -117.5t109 -48.5q65 0 108.5 45.5
t43.5 110.5l-37 21q-15 9 -33 -2l-8 -9q-7 -6 -18.5 -5.5t-18.5 7.5l-4 2q-7 7 -18.5 8t-18.5 -5l-6 -7q-7 -6 -18.5 -5.5t-18.5 7.5l-10 11q-18 15 -37 2l-21 -15q-17 -14 -34 0zM772 1362h-534v-1290h534v1290zM844 0h-678v1434h678v-1434zM672 309l-47 39
q-59 -76 -154 -76q-79 0 -135.5 56.5t-56.5 136.5q0 79 56.5 135.5t135.5 56.5q51 0 98 -26l39 47q8 8 15 0q3 -2 4 -6.5t-2 -7.5l-37 -46q53 -41 71 -106l60 6q12 0 12 -10t-10 -10l-59 -6q2 -8 2 -27q0 -49 -27 -98l49 -41q3 -1 3.5 -6.5t-1.5 -8.5q-6 -5 -16 -2zM672 784
l-47 37q-59 -76 -154 -76q-79 0 -135.5 56.5t-56.5 136.5t56.5 136t135.5 56q56 0 98 -26l39 47q6 6 15 2q8 -8 2 -16l-37 -45q52 -40 71 -107l60 6q12 0 12 -10t-10 -10l-59 -6q2 -8 2 -27q0 -49 -27 -98l49 -39q6 -6 2 -17q-6 -6 -16 0z" />
    <glyph glyph-name="uni0000" horiz-adv-x="0" 
 />
    <glyph glyph-name="uni0000" horiz-adv-x="0" 
 />
    <glyph glyph-name="uni000D" unicode="&#xd;" horiz-adv-x="1228" 
 />
    <glyph glyph-name="uni000A" unicode="&#xa;" horiz-adv-x="0" 
 />
    <glyph glyph-name="space" unicode=" " horiz-adv-x="428" 
 />
    <glyph glyph-name="exclam" unicode="!" horiz-adv-x="528" 
d="M158 1464h213v-438q0 -29 -14.5 -304t-14.5 -286h-156q-1 29 -14 299t-14 291v438zM150 231h229v-231h-229v231z" />
    <glyph glyph-name="quotedbl" unicode="&#x22;" horiz-adv-x="837" 
d="M150 1434h196v-574h-168zM494 1434h194l-29 -574h-165v574z" />
    <glyph glyph-name="numbersign" unicode="#" horiz-adv-x="1611" 
d="M1028 891h-397l-53 -346h397zM1044 1047l58 387h180l-59 -387h239v-156h-262l-53 -346h237v-158h-256l-61 -387h-178l59 387h-383l-59 -387h-180l59 387h-235v158h258l51 346h-232v156h252l62 387h180l-62 -387h385z" />
    <glyph glyph-name="dollar" unicode="$" horiz-adv-x="1316" 
d="M590 -219l6 190q-218 21 -348.5 142.5t-159.5 347.5h205q48 -322 395 -322q48 0 93 7.5t88 26t74.5 46t51 69.5t19.5 95q0 33 -8.5 62t-21.5 51t-36 41.5t-43.5 33t-53 26t-55 19.5t-59.5 15.5t-56.5 12t-55.5 9.5q-89 15 -154.5 31.5t-134.5 48t-112 73.5t-71 108.5
t-28 152.5q0 94 37 168t101 120.5t144 72.5t173 32l-7 191h170l-6 -193q192 -21 315 -132t150 -304h-205q-59 270 -350 270q-61 0 -113.5 -11.5t-98 -35.5t-71.5 -69t-26 -105q0 -32 8 -60t19.5 -49t33 -39.5t39.5 -31t49 -24.5t51 -18.5t56.5 -14.5t55 -11.5t55.5 -9.5
q61 -10 107.5 -20t103.5 -27.5t99 -38.5t84.5 -53.5t69.5 -72t43.5 -94.5t16.5 -120q0 -102 -40 -181t-109 -127t-150.5 -74.5t-175.5 -33.5l6 -190h-170z" />
    <glyph glyph-name="percent" unicode="%" horiz-adv-x="1861" 
d="M1327 1434h178l-962 -1434h-181zM446 1331q-206 0 -206 -293t206 -293q205 0 205 293t-205 293zM446 1464q119 0 200 -57t117 -150.5t36 -218.5t-36 -218.5t-117 -150.5t-200 -57q-91 0 -159.5 32t-110.5 90.5t-63 134.5t-21 169t21 169t63 134.5t110.5 90.5t159.5 32z
M1417 688q-207 0 -207 -293t207 -293q205 0 205 293t-205 293zM1417 821q176 0 264 -117t88 -309t-88 -309t-264 -117q-91 0 -159.5 32t-110.5 90.5t-63 134.5t-21 169t21 169t63 134.5t110.5 90.5t159.5 32z" />
    <glyph glyph-name="ampersand" unicode="&#x26;" horiz-adv-x="1388" 
d="M551 135q132 0 280 133l-329 398q-88 -62 -147.5 -137t-59.5 -154q0 -114 73 -177t183 -63zM608 1315q-83 0 -131.5 -49t-48.5 -129q0 -38 10.5 -74t35 -74.5t39.5 -59t48 -61.5q111 73 149 110q78 74 78 159q0 82 -49.5 130t-130.5 48zM965 395l288 281l2 -213
l-188 -187l231 -276h-245l-117 141q-100 -84 -197.5 -129t-214.5 -45q-89 0 -166.5 24.5t-138.5 71.5t-96 122.5t-35 170.5q0 71 25 135t72 117.5t97 94.5t117 85l-2 3q-77 98 -119 178t-42 168q0 105 53 180.5t136 110t187 34.5q160 0 261.5 -81t101.5 -232q0 -66 -26 -125
t-76 -109.5t-96.5 -86t-112.5 -76.5z" />
    <glyph glyph-name="quotesingle" unicode="'" horiz-adv-x="514" 
d="M150 1434h215l-25 -574h-168z" />
    <glyph glyph-name="parenleft" unicode="(" horiz-adv-x="724" 
d="M420 1561h155q-143 -204 -219.5 -443.5t-76.5 -492.5q0 -252 76.5 -491t219.5 -443h-155q-158 198 -245 441t-87 493q0 251 87 493.5t245 442.5z" />
    <glyph glyph-name="parenright" unicode=")" horiz-adv-x="724" 
d="M150 1561h157q157 -200 243.5 -442.5t86.5 -493.5q0 -250 -86.5 -493t-243.5 -441h-157q144 205 221.5 444t77.5 490q0 252 -77.5 491.5t-221.5 444.5z" />
    <glyph glyph-name="asterisk" unicode="*" horiz-adv-x="993" 
d="M633 1434l131 -78l-146 -230l269 7v-150l-269 8l144 -231l-129 -76l-137 246l-134 -246l-129 78l146 229l-270 -6v152l270 -11l-146 232l129 76l138 -246z" />
    <glyph glyph-name="plus" unicode="+" horiz-adv-x="1327" 
d="M575 1108h177v-428h426v-170h-426v-430h-177v430h-425v170h425v428z" />
    <glyph glyph-name="comma" unicode="," horiz-adv-x="528" 
d="M150 231h229v-151q0 -131 -77.5 -220t-207.5 -122l-31 74q175 62 195 188h-108v231z" />
    <glyph glyph-name="hyphen" unicode="-" horiz-adv-x="993" 
d="M150 514v170h694v-170h-694z" />
    <glyph glyph-name="period" unicode="." horiz-adv-x="528" 
d="M150 0v231h229v-231h-229z" />
    <glyph glyph-name="slash" unicode="/" horiz-adv-x="860" 
d="M647 1651h211l-649 -1870h-207z" />
    <glyph glyph-name="zero" unicode="0" horiz-adv-x="1359" 
d="M682 1290q-83 0 -150 -32.5t-111 -87t-73.5 -129t-42 -155t-12.5 -169.5t12.5 -169.5t42 -155.5t73.5 -129.5t111 -87t150 -32.5q82 0 148.5 32.5t110 87t72.5 129.5t41.5 155.5t12.5 169.5t-12.5 169.5t-41.5 155t-72.5 129t-110 87t-148.5 32.5zM682 1464
q125 0 226 -42.5t168 -114t112 -168.5t64.5 -202t19.5 -220t-19.5 -220t-64.5 -202.5t-112 -169t-168 -114t-226 -42.5q-126 0 -228 42.5t-169 114t-112.5 169t-65 202.5t-19.5 220t19.5 220t65 202t112.5 168.5t169 114t228 42.5z" />
    <glyph glyph-name="one" unicode="1" horiz-adv-x="782" 
d="M416 1434h176v-1434h-205v1020h-299v164h109q219 0 219 250z" />
    <glyph glyph-name="two" unicode="2" horiz-adv-x="1239" 
d="M645 1464q78 0 149.5 -15t135.5 -47.5t111 -79.5t74.5 -116t27.5 -153q0 -67 -23.5 -128t-58 -106.5t-93.5 -94t-108 -80.5t-123 -75q-49 -29 -74.5 -45t-72.5 -47t-74 -53t-64 -55t-59 -62t-41.5 -65t-27.5 -72h827v-170h-1063v66q0 66 15 126.5t38 108t62 95t75.5 81.5
t90.5 73t94.5 64t99.5 60q22 13 68.5 41t69.5 42t62 40.5t59.5 44t47 44.5t40 50t23 52.5t9.5 60.5q0 122 -85.5 183.5t-213.5 61.5q-144 0 -237.5 -79t-112.5 -220h-205q14 147 90.5 254.5t196.5 161t270 53.5z" />
    <glyph glyph-name="three" unicode="3" horiz-adv-x="1261" 
d="M641 1464q99 0 185 -24t154 -69.5t107 -120.5t39 -169q0 -114 -63.5 -197t-165.5 -124q134 -40 205.5 -129.5t71.5 -222.5q0 -108 -46 -194t-123.5 -138.5t-173 -79.5t-200.5 -27q-232 0 -383 120.5t-160 328.5h193q12 -135 111.5 -210t238.5 -75q143 0 238.5 76
t95.5 217q0 88 -50.5 149.5t-127 88t-171.5 26.5h-137v131h127q61 0 115.5 13t101 39t74 73t27.5 109q0 117 -79.5 179t-211.5 62q-118 0 -202.5 -59t-98.5 -168l-193 -2q23 187 159.5 292t342.5 105z" />
    <glyph glyph-name="four" unicode="4" horiz-adv-x="1335" 
d="M842 498v714l-531 -714h531zM88 455l709 979h247v-936h201v-170h-201v-328h-202v328h-754v127z" />
    <glyph glyph-name="five" unicode="5" horiz-adv-x="1245" 
d="M1071 1434v-170h-692l-51 -433q64 68 156.5 102t187.5 34q220 0 352.5 -133t132.5 -359q0 -232 -149 -369t-385 -137q-80 0 -153.5 15t-140.5 48t-117.5 81.5t-83.5 120t-40 159.5h201q13 -126 104.5 -194t227.5 -68q149 0 244.5 95.5t95.5 250.5q0 154 -89.5 249
t-244.5 95q-104 0 -186.5 -51t-123.5 -139h-213l97 803h870z" />
    <glyph glyph-name="six" unicode="6" horiz-adv-x="1253" 
d="M645 811q-139 0 -233.5 -87t-94.5 -230q0 -154 88.5 -253.5t239.5 -99.5q145 0 230.5 95.5t85.5 246.5q0 144 -85.5 236t-230.5 92zM666 961q224 0 360.5 -131.5t136.5 -354.5q0 -226 -143.5 -366t-370.5 -140q-144 0 -253 50.5t-175.5 141.5t-99.5 211t-33 267
q0 124 17 236.5t59 222t106.5 189t167 128.5t232.5 49q195 0 319.5 -99.5t161.5 -285.5h-195q-26 104 -101 158.5t-185 54.5q-79 0 -142.5 -32t-103.5 -83t-67.5 -121t-40 -137t-17.5 -141q59 88 156 135.5t211 47.5z" />
    <glyph glyph-name="seven" unicode="7" horiz-adv-x="1193" 
d="M1104 1434v-158q-239 -270 -365.5 -594t-126.5 -682h-211q0 328 131.5 665t354.5 599h-799v170h1016z" />
    <glyph glyph-name="eight" unicode="8" horiz-adv-x="1318" 
d="M659 135q72 0 135 15.5t116 48t83.5 89.5t30.5 132q0 72 -31.5 127.5t-85 87.5t-116 47.5t-132.5 15.5q-69 0 -131.5 -15.5t-115 -47.5t-84 -87.5t-31.5 -127.5q0 -75 30.5 -132t83 -89.5t115 -48t133.5 -15.5zM659 1300q-61 0 -114 -13t-98.5 -40t-72 -75.5
t-26.5 -112.5q0 -60 25 -105t69.5 -71.5t98.5 -39t118 -12.5q65 0 119.5 12.5t98.5 39t69 71.5t25 105q0 64 -26.5 112t-71.5 75.5t-99 40.5t-115 13zM659 1464q80 0 152.5 -13t138.5 -42.5t114 -73t76.5 -109.5t28.5 -147q0 -111 -57.5 -189t-155.5 -116q125 -42 200 -143
t75 -236q0 -90 -33.5 -163.5t-89 -121.5t-130 -80.5t-154.5 -46.5t-165 -14q-108 0 -205.5 23.5t-181.5 72t-134 133.5t-50 197q0 134 76 235.5t201 143.5q-99 41 -157 117t-58 188q0 100 42.5 176t116 120.5t161.5 66.5t189 22z" />
    <glyph glyph-name="nine" unicode="9" horiz-adv-x="1253" 
d="M606 1292q-145 0 -229 -95.5t-84 -246.5q0 -144 84 -234.5t229 -90.5q139 0 233.5 86.5t94.5 228.5q0 154 -88.5 253t-239.5 99zM602 1464q144 0 253.5 -50t176 -141.5t99 -211t32.5 -266.5q0 -102 -12 -197t-38.5 -190t-72 -172.5t-108 -138.5t-152 -94.5t-198.5 -33.5
q-194 0 -319.5 100.5t-162.5 284.5h197q26 -103 100.5 -157t184.5 -54q80 0 143 32t102.5 82t67 120t40 137t17.5 141q-59 -88 -154.5 -134t-211.5 -46q-224 0 -361 130.5t-137 352.5q0 226 144 366t370 140z" />
    <glyph glyph-name="colon" unicode=":" horiz-adv-x="528" 
d="M150 813v234h229v-234h-229zM150 0v231h229v-231h-229z" />
    <glyph glyph-name="semicolon" unicode=";" horiz-adv-x="532" 
d="M154 1047h229v-234h-229v234zM150 231h229v-151q0 -131 -77.5 -220t-207.5 -122l-31 74q176 63 193 188h-106v231z" />
    <glyph glyph-name="less" unicode="&#x3c;" horiz-adv-x="1189" 
d="M1040 1247v-192l-727 -338l727 -336v-193l-934 447v164z" />
    <glyph glyph-name="equal" unicode="=" horiz-adv-x="1234" 
d="M150 735v158h935v-158h-935zM150 295v158h935v-158h-935z" />
    <glyph glyph-name="greater" unicode="&#x3e;" horiz-adv-x="1191" 
d="M150 1247l933 -448v-164l-933 -447v193l727 336l-727 338v192z" />
    <glyph glyph-name="question" unicode="?" horiz-adv-x="1146" 
d="M596 1464q127 0 230.5 -42.5t168 -130.5t64.5 -208q0 -65 -17 -116.5t-52 -91.5t-66.5 -67t-84.5 -65.5t-83 -64.5q-57 -44 -82 -98t-25 -131v-52h-176v45q0 117 37 194.5t115 141.5q20 17 57 45.5t55 43t43 40.5t36.5 47.5t20.5 53t9 67.5q0 103 -74.5 164t-181.5 61
q-142 0 -216.5 -80t-88.5 -216h-197q20 225 150 342.5t358 117.5zM446 231h228v-231h-228v231z" />
    <glyph glyph-name="at" unicode="@" horiz-adv-x="1867" 
d="M907 899q-74 0 -127 -43t-76.5 -106t-23.5 -136q0 -53 14.5 -103t41.5 -91.5t72.5 -66.5t102.5 -25q73 0 125 43.5t74.5 106t22.5 134.5q0 73 -22 135.5t-75 107t-129 44.5zM881 1036q78 0 142 -34t103 -99l13 123h137v-489q0 -77 41.5 -139t112.5 -62q194 0 194 297
q0 148 -53 275.5t-145 217t-219.5 140.5t-272.5 51q-190 0 -346 -90t-245 -247.5t-89 -350.5q0 -156 52 -287.5t144 -222.5t221 -142t281 -51q219 0 387 105v-158q-171 -92 -399 -92q-241 0 -435 104.5t-305.5 297.5t-111.5 440q0 179 65.5 336t178 267t268 173t330.5 63
t330 -58.5t270 -163t181.5 -258.5t66.5 -335q0 -72 -11 -136t-37.5 -123.5t-67 -102.5t-103 -69t-142.5 -26q-83 0 -149.5 50.5t-96.5 130.5q-41 -86 -115.5 -133.5t-166.5 -47.5q-84 0 -154.5 36t-115 96t-69 135t-24.5 155q0 111 39.5 205.5t122 156.5t193.5 62z" />
    <glyph glyph-name="A" unicode="A" horiz-adv-x="1388" 
d="M940 559l-246 653l-245 -653h491zM20 0l553 1434h242l551 -1434h-223l-150 391h-600l-149 -391h-224z" />
    <glyph glyph-name="B" unicode="B" horiz-adv-x="1302" 
d="M700 670h-346v-512h344q137 0 224.5 65.5t87.5 190.5q0 127 -83.5 191.5t-226.5 64.5zM672 1278h-318v-451h330q124 0 193 56.5t69 169.5q0 114 -78 169.5t-196 55.5zM150 1434h571q84 0 158 -21t136 -63.5t98 -115t36 -167.5q0 -101 -47.5 -184t-138.5 -129
q118 -40 183.5 -132t65.5 -223q0 -103 -38 -182t-104.5 -125t-149.5 -69t-181 -23h-589v1434z" />
    <glyph glyph-name="C" unicode="C" horiz-adv-x="1540" 
d="M782 1464q270 0 451.5 -148.5t216.5 -400.5h-209q-30 169 -153.5 272t-307.5 103q-114 0 -208 -48.5t-153.5 -129.5t-91.5 -182.5t-32 -212.5q0 -110 32 -212t91.5 -183t153.5 -130t208 -49q184 0 307.5 103t153.5 272h209q-35 -251 -216.5 -400t-451.5 -149
q-129 0 -240 38.5t-193.5 107t-142 162t-89 205.5t-29.5 235q0 155 47.5 290.5t134.5 237.5t219.5 160.5t292.5 58.5z" />
    <glyph glyph-name="D" unicode="D" horiz-adv-x="1433" 
d="M610 1264h-256v-1094h256q246 0 392.5 151.5t146.5 395.5t-146.5 395.5t-392.5 151.5zM616 1434q211 0 376.5 -86.5t259.5 -250.5t94 -380t-94 -380t-259.5 -250.5t-376.5 -86.5h-466v1434h466z" />
    <glyph glyph-name="E" unicode="E" horiz-adv-x="1200" 
d="M150 1434h942v-170h-738v-457h678v-170h-678v-467h738v-170h-942v1434z" />
    <glyph glyph-name="F" unicode="F" horiz-adv-x="1200" 
d="M150 1434h942v-170h-738v-469h678v-170h-678v-625h-204v1434z" />
    <glyph glyph-name="G" unicode="G" horiz-adv-x="1554" 
d="M774 559v170h692v-729h-159l-23 262q-73 -138 -200 -215.5t-302 -77.5q-129 0 -240 38.5t-193.5 107t-142 162t-89 205.5t-29.5 235q0 154 47.5 289.5t134.5 237.5t219.5 161t292.5 59q262 0 442.5 -140.5t221.5 -377.5h-211q-34 159 -156 251.5t-299 92.5
q-114 0 -208 -48.5t-153.5 -129.5t-91.5 -182.5t-32 -212.5q0 -88 20 -171t61 -156t99 -128t139.5 -87t176.5 -32q188 0 303 113t149 303h-469z" />
    <glyph glyph-name="H" unicode="H" horiz-adv-x="1400" 
d="M1047 1434h204v-1434h-204v635h-693v-635h-204v1434h204v-629h693v629z" />
    <glyph glyph-name="I" unicode="I" horiz-adv-x="503" 
d="M150 0v1434h204v-1434h-204z" />
    <glyph glyph-name="J" unicode="J" horiz-adv-x="1165" 
d="M831 1434h205v-942q0 -245 -121.5 -384t-359.5 -139q-115 0 -204.5 38.5t-146 107t-86 159.5t-30.5 199h193q2 -70 17.5 -127t46.5 -103.5t84.5 -72t125.5 -25.5q76 0 131.5 26.5t86 75t44.5 107t14 131.5v949z" />
    <glyph glyph-name="K" unicode="K" horiz-adv-x="1370" 
d="M1038 0l-465 657l-219 -241v-416h-204v1434h204v-738l656 738h256l-553 -627l569 -807h-244z" />
    <glyph glyph-name="L" unicode="L" horiz-adv-x="1179" 
d="M150 1434h204v-1264h738v-170h-942v1434z" />
    <glyph glyph-name="M" unicode="M" horiz-adv-x="1875" 
d="M1456 1434h268v-1434h-204v1114l-508 -1114h-150l-508 1114v-1114h-204v1434h266l520 -1133z" />
    <glyph glyph-name="N" unicode="N" horiz-adv-x="1411" 
d="M1057 1434h205v-1434h-224l-684 1094v-1094h-204v1434h223l684 -1110v1110z" />
    <glyph glyph-name="O" unicode="O" horiz-adv-x="1576" 
d="M788 1290q-118 0 -213 -47.5t-154.5 -128t-91.5 -182.5t-32 -215t32 -215t91.5 -182t154.5 -127.5t213 -47.5t213 47.5t155 127.5t92 182t32 215t-32 215t-92 182.5t-155 128t-213 47.5zM788 1464q132 0 245 -38.5t196 -107.5t142 -162.5t88.5 -205t29.5 -233.5
q0 -151 -47 -286t-134 -238t-221.5 -163.5t-298.5 -60.5t-298 60.5t-221 163.5t-134 238t-47 286q0 153 47 288t134 237.5t221 162t298 59.5z" />
    <glyph glyph-name="P" unicode="P" horiz-adv-x="1284" 
d="M700 1264h-342v-527h342q127 0 211 68t84 194t-82 195.5t-213 69.5zM150 1434h550q226 0 364 -110t138 -325q0 -110 -39 -194.5t-108 -135t-158.5 -75.5t-196.5 -25h-342v-569h-208v1434z" />
    <glyph glyph-name="Q" unicode="Q" horiz-adv-x="1579" 
d="M782 463l140 102l206 -278q74 81 113 192.5t39 237.5q0 113 -32 215t-92 182t-155 127t-213 47q-95 0 -175.5 -31t-138 -84.5t-98 -126t-60 -156t-19.5 -173.5q0 -113 32 -215t91.5 -182t154.5 -127.5t213 -47.5q111 0 201 41zM1288 -215l-186 250q-138 -66 -314 -66
q-164 0 -298 60t-221 163t-134 238t-47 287t47 287t134 237.5t221 162.5t298 60q132 0 245 -39t196 -108t142 -163t88.5 -205t29.5 -232q0 -176 -63.5 -330.5t-180.5 -257.5l180 -242z" />
    <glyph glyph-name="R" unicode="R" horiz-adv-x="1280" 
d="M700 1264h-342v-527h342q127 0 211 68t84 194t-82 195.5t-213 69.5zM967 0l-316 569h-293v-569h-208v1434h550q226 0 364 -110t138 -325q0 -172 -89.5 -274.5t-244.5 -136.5l334 -588h-235z" />
    <glyph glyph-name="S" unicode="S" horiz-adv-x="1316" 
d="M647 1464q228 0 376.5 -112.5t178.5 -329.5h-205q-28 135 -117 203.5t-233 68.5q-61 0 -113.5 -11.5t-98 -35.5t-71.5 -69t-26 -105q0 -32 8 -60t19 -49t33.5 -40t39 -31t49.5 -24.5t51 -19t57 -15t54.5 -11.5t55.5 -10q61 -10 107.5 -20t103.5 -27.5t99 -38.5
t84.5 -53.5t69.5 -71.5t43.5 -93.5t16.5 -119.5q0 -91 -32 -163.5t-85 -119.5t-125 -78.5t-148 -45t-157 -13.5q-254 0 -408.5 122.5t-185.5 371.5h205q48 -324 395 -324q61 0 116.5 13t104 40.5t77 77t28.5 115.5q0 42 -14 77.5t-34.5 60t-55.5 45.5t-64.5 33t-75 23.5
t-73.5 16.5t-72 12q-63 11 -111.5 22t-102.5 28.5t-94 38.5t-78 52.5t-61.5 70t-38 90.5t-14.5 114q0 102 44 180.5t119 124t165.5 68t193.5 22.5z" />
    <glyph glyph-name="T" unicode="T" horiz-adv-x="1343" 
d="M82 1434h1178v-170h-488v-1264h-205v1264h-485v170z" />
    <glyph glyph-name="U" unicode="U" horiz-adv-x="1347" 
d="M1014 1434h205v-947q0 -156 -72 -275t-195 -181t-278 -62q-154 0 -276.5 60.5t-195.5 179.5t-73 278v947h205v-932q0 -163 93 -261t247 -98q156 0 248 99.5t92 259.5v932z" />
    <glyph glyph-name="V" unicode="V" horiz-adv-x="1370" 
d="M1133 1434h215l-529 -1434h-268l-531 1434h218l448 -1207z" />
    <glyph glyph-name="W" unicode="W" horiz-adv-x="1996" 
d="M1763 1434h211l-420 -1434h-231l-324 1135l-327 -1135h-230l-422 1434h213l332 -1168l332 1168h201l332 -1168z" />
    <glyph glyph-name="X" unicode="X" horiz-adv-x="1439" 
d="M1112 1434h240l-484 -703l492 -731h-240l-397 600l-408 -600h-237l502 725l-488 709h242l391 -578z" />
    <glyph glyph-name="Y" unicode="Y" horiz-adv-x="1296" 
d="M1042 1434h232l-524 -932v-502h-205v502l-525 932h232l395 -723z" />
    <glyph glyph-name="Z" unicode="Z" horiz-adv-x="1284" 
d="M129 1434h1032v-150l-790 -1114h805v-170h-1067v150l782 1114h-762v170z" />
    <glyph glyph-name="bracketleft" unicode="[" horiz-adv-x="770" 
d="M150 1563h471v-162h-281v-1548h281v-160h-471v1870z" />
    <glyph glyph-name="backslash" unicode="\" horiz-adv-x="858" 
d="M209 1651l647 -1870h-209l-647 1870h209z" />
    <glyph glyph-name="bracketright" unicode="]" horiz-adv-x="772" 
d="M150 1563h471v-1870h-471v160h280v1548h-280v162z" />
    <glyph glyph-name="asciicircum" unicode="^" horiz-adv-x="888" 
d="M346 1434h197l237 -600h-168l-168 454l-165 -454h-170z" />
    <glyph glyph-name="underscore" unicode="_" horiz-adv-x="1150" 
d="M150 -197v166h851v-166h-851z" />
    <glyph glyph-name="grave" unicode="`" horiz-adv-x="587" 
d="M109 1485h192l178 -279h-162z" />
    <glyph glyph-name="a" unicode="a" horiz-adv-x="1212" 
d="M492 455q-50 -9 -86.5 -20t-71.5 -30.5t-53.5 -51t-18.5 -74.5q0 -86 55 -124t160 -38q85 0 169.5 35t143.5 102.5t60 148.5v127q-38 -19 -82 -28zM424 586q260 37 338 49q88 14 88 80q0 103 -66.5 160t-197.5 57q-120 0 -200.5 -54.5t-90.5 -158.5h-184
q28 185 153.5 275.5t319.5 90.5q450 0 450 -413v-428q0 -29 1 -46t5.5 -37.5t13.5 -31t25 -18t39 -7.5h19v-135h-82q-86 0 -131.5 53.5t-53.5 145.5q-70 -93 -183 -146t-228 -53q-173 0 -278 75t-105 222q0 74 27.5 132.5t76.5 95.5t109.5 59.5t134.5 32.5z" />
    <glyph glyph-name="b" unicode="b" horiz-adv-x="1269" 
d="M666 930q-111 0 -196.5 -57t-128 -147.5t-42.5 -197.5t42.5 -197t127.5 -146t197 -56q86 0 154.5 32t111.5 87.5t65.5 127t22.5 152.5q0 170 -93.5 286t-260.5 116zM688 1085q159 0 278 -75.5t178.5 -201t59.5 -280.5q0 -156 -59 -281t-178 -201.5t-279 -76.5
q-130 0 -234 54t-165 149l-13 -172h-167v1434h190v-551q60 94 161 148t228 54z" />
    <glyph glyph-name="c" unicode="c" horiz-adv-x="1177" 
d="M600 1085q192 0 329.5 -104.5t182.5 -294.5h-190q-31 111 -116.5 176.5t-203.5 65.5q-111 0 -192.5 -56t-121.5 -146t-40 -200q0 -169 95 -284t259 -115q119 0 204 64.5t116 175.5h190q-45 -189 -182.5 -293.5t-329.5 -104.5q-150 0 -273.5 73t-193.5 201t-70 283
q0 237 154 398t383 161z" />
    <glyph glyph-name="d" unicode="d" horiz-adv-x="1267" 
d="M602 930q-167 0 -260.5 -116t-93.5 -286q0 -81 22.5 -152.5t65.5 -127t111.5 -87.5t154.5 -32q111 0 196 56t128 146t43 197t-42.5 197.5t-128 147.5t-196.5 57zM580 1085q127 0 228 -54t161 -148v551h190v-1434h-168l-12 172q-61 -95 -165 -149t-234 -54
q-160 0 -279 76.5t-178.5 202t-59.5 280.5q0 115 35 216.5t100 177t163.5 119.5t218.5 44z" />
    <glyph glyph-name="e" unicode="e" horiz-adv-x="1187" 
d="M600 934q-142 0 -231 -87.5t-109 -213.5h676q-23 133 -111 217t-225 84zM600 1085q159 0 280.5 -77t182.5 -209q72 -144 57 -322h-868q9 -152 107 -256t253 -104q109 0 193 50t125 142h184q-52 -158 -187 -249t-306 -91q-240 0 -397.5 155.5t-157.5 403.5q0 152 68 279
t191 202.5t275 75.5z" />
    <glyph glyph-name="f" unicode="f" horiz-adv-x="667" 
d="M477 1464q65 0 125 -20v-162q-32 16 -92 16q-63 0 -93 -34.5t-30 -92.5v-116h213v-156h-213v-899h-194v899h-160v156h160v135q0 116 72.5 195t211.5 79z" />
    <glyph glyph-name="g" unicode="g" horiz-adv-x="1216" 
d="M590 928q-157 0 -250.5 -108.5t-93.5 -264.5t94 -259t248 -103q156 0 246 105t90 259q0 156 -90.5 263.5t-243.5 107.5zM557 1087q252 0 379 -192l12 160h160v-977q0 -254 -138 -392.5t-374 -138.5q-196 0 -334 96.5t-172 278.5h182q49 -215 310 -215q164 0 253 90
t89 262v152q-59 -90 -153.5 -135t-211.5 -45q-145 0 -258.5 70.5t-174 190t-60.5 265.5q0 142 58.5 261.5t172 194t260.5 74.5z" />
    <glyph glyph-name="h" unicode="h" 
d="M641 1085q180 0 284.5 -112t104.5 -287v-686h-196v662q0 120 -61.5 194t-182.5 74q-89 0 -155.5 -52.5t-98 -131t-31.5 -168.5v-578h-196v1434h196v-512q57 79 144 121t192 42z" />
    <glyph glyph-name="i" unicode="i" horiz-adv-x="415" 
d="M109 1223v211h198v-211h-198zM111 0v1055h194v-1055h-194z" />
    <glyph glyph-name="j" unicode="j" horiz-adv-x="423" 
d="M117 1434h198v-211h-198v211zM119 1055h192v-1198q0 -310 -307 -310q-23 0 -44.5 3t-38.5 7.5t-21 4.5v162q60 -15 86 -15q63 0 98 39t35 96v1211z" />
    <glyph glyph-name="k" unicode="k" horiz-adv-x="1122" 
d="M109 1434h196v-816l459 437h246l-432 -408l477 -647h-230l-387 526l-133 -125v-401h-196v1434z" />
    <glyph glyph-name="l" unicode="l" horiz-adv-x="413" 
d="M109 0v1434h196v-1434h-196z" />
    <glyph glyph-name="m" unicode="m" horiz-adv-x="1748" 
d="M621 1085q113 0 195.5 -51.5t121.5 -144.5q49 87 141.5 141.5t206.5 54.5q171 0 273 -108.5t102 -276.5v-700h-195v676q0 111 -63 182.5t-172 71.5q-80 0 -138 -51.5t-84.5 -124.5t-27.5 -154v-600h-195v676q0 114 -57 184t-170 70q-81 0 -141.5 -53.5t-87.5 -129.5
t-27 -159v-588h-194v1055h167l11 -158q53 91 142 139.5t192 48.5z" />
    <glyph glyph-name="n" unicode="n" 
d="M641 1085q180 0 284.5 -112t104.5 -287v-686h-196v662q0 120 -61.5 194t-182.5 74q-89 0 -155.5 -52.5t-98 -131t-31.5 -168.5v-578h-196v1055h167l13 -152q56 88 148 135t204 47z" />
    <glyph glyph-name="o" unicode="o" horiz-adv-x="1241" 
d="M621 930q-162 0 -264.5 -119t-102.5 -283t102.5 -281.5t264.5 -117.5q109 0 194 57t128.5 147t43.5 195t-44.5 196.5t-129.5 148.5t-192 57zM621 1085q118 0 221 -42.5t176.5 -116.5t115.5 -177.5t42 -220.5q0 -155 -71 -283t-198.5 -202t-285.5 -74q-118 0 -221 43
t-176.5 117.5t-115.5 178t-42 220.5q0 239 158 398t397 159z" />
    <glyph glyph-name="p" unicode="p" horiz-adv-x="1267" 
d="M666 928q-112 0 -197 -56.5t-127.5 -147t-42.5 -198.5q0 -106 42.5 -196t128 -146.5t196.5 -56.5q112 0 194 55.5t121 144.5t39 199q0 81 -22.5 153t-65.5 128t-111.5 88.5t-154.5 32.5zM688 1085q121 0 219.5 -44t163 -120t99 -177t34.5 -216q0 -156 -59.5 -281.5
t-178.5 -201.5t-278 -76q-127 0 -227.5 55.5t-161.5 149.5v-596h-190v1477h167l13 -172q60 96 164 149t235 53z" />
    <glyph glyph-name="q" unicode="q" horiz-adv-x="1269" 
d="M604 928q-86 0 -154.5 -32.5t-111.5 -88.5t-65.5 -128t-22.5 -153q0 -110 39 -199t121 -144.5t194 -55.5q111 0 196.5 56.5t128 146.5t42.5 196q0 108 -43 198.5t-128 147t-196 56.5zM582 1085q131 0 235 -53t164 -149l12 172h168v-1477h-190v596q-61 -94 -161.5 -149.5
t-227.5 -55.5q-159 0 -278 76t-178.5 201.5t-59.5 281.5q0 115 34.5 216t99 177t163 120t219.5 44z" />
    <glyph glyph-name="r" unicode="r" horiz-adv-x="733" 
d="M612 1085l66 -4v-180q-29 6 -64 6q-137 0 -223 -112.5t-86 -296.5v-498h-196v1055h167l21 -224q34 111 118 182.5t197 71.5z" />
    <glyph glyph-name="s" unicode="s" horiz-adv-x="1056" 
d="M514 1085q187 0 312 -83.5t143 -251.5h-178q-41 184 -283 184q-99 0 -162 -39.5t-63 -108.5q0 -23 5.5 -42t19 -34t26 -26.5t36 -21t39.5 -15.5t45.5 -12t45 -9t48 -8.5t44.5 -7.5q71 -12 123 -25.5t107 -38.5t89 -58.5t56 -85.5t22 -119q0 -80 -37.5 -142t-101.5 -98.5
t-141 -55t-164 -18.5q-134 0 -238 41.5t-168 127t-71 206.5h188q6 -113 88 -168t209 -55q106 0 180 36t74 115q0 50 -26 85.5t-86.5 58.5t-96 31.5t-115.5 23.5q-14 3 -20 4q-62 12 -108 25t-98 36.5t-84.5 54t-54.5 78t-22 107.5q0 79 37.5 140.5t99 97t133.5 53.5t148 18z
" />
    <glyph glyph-name="t" unicode="t" horiz-adv-x="733" 
d="M242 1366h194v-311h230v-156h-230v-620q0 -68 36.5 -105t109.5 -37q20 0 39.5 2.5t31.5 5t13 2.5v-161q-4 -1 -30.5 -6t-53 -8t-54.5 -3q-140 0 -213 74.5t-73 220.5v635h-179v156h66q113 0 113 114v197z" />
    <glyph glyph-name="u" unicode="u" 
d="M813 1055h197v-1055h-168l-13 152q-56 -88 -148.5 -135.5t-203.5 -47.5q-180 0 -284.5 112.5t-104.5 287.5v686h197v-662q0 -121 60.5 -193.5t182.5 -72.5q89 0 155.5 52.5t98 131t31.5 168.5v576z" />
    <glyph glyph-name="v" unicode="v" horiz-adv-x="1146" 
d="M918 1055h206l-436 -1055h-229l-439 1055h207l344 -856z" />
    <glyph glyph-name="w" unicode="w" horiz-adv-x="1665" 
d="M1434 1055h208l-342 -1055h-204l-262 815l-265 -815h-202l-347 1055h209l250 -842l258 842h189l258 -842z" />
    <glyph glyph-name="x" unicode="x" horiz-adv-x="1189" 
d="M881 1055h225l-377 -512l393 -543h-225l-301 430l-305 -430h-223l393 541l-379 514h223l289 -400z" />
    <glyph glyph-name="y" unicode="y" horiz-adv-x="1087" 
d="M549 229l311 826h207l-471 -1207q-36 -106 -82.5 -169.5t-119.5 -97.5t-179 -34q-28 0 -80 9v157q28 -8 76 -8q71 0 119 39.5t71 99.5l62 156h-21l-419 1055h208z" />
    <glyph glyph-name="z" unicode="z" horiz-adv-x="1034" 
d="M98 1055h854v-140l-626 -759h630v-156h-882v139l620 760h-596v156z" />
    <glyph glyph-name="braceleft" unicode="{" horiz-adv-x="901" 
d="M475 1180v-246q0 -49 -3.5 -86.5t-15.5 -80t-32.5 -70.5t-56.5 -48.5t-86 -23.5q50 -3 86 -23.5t56.5 -49.5t32.5 -71t15.5 -80t3.5 -86v-245q0 -220 219 -220h58v-159h-88q-182 0 -280.5 92t-98.5 276v273q0 112 -43.5 163.5t-153.5 51.5v155q110 0 153.5 52t43.5 164
v272q0 184 98.5 276.5t280.5 92.5h88v-160h-58q-219 0 -219 -219z" />
    <glyph glyph-name="bar" unicode="|" horiz-adv-x="489" 
d="M150 -307v1870h190v-1870h-190z" />
    <glyph glyph-name="braceright" unicode="}" horiz-adv-x="899" 
d="M150 1561h88q182 0 280 -92.5t98 -276.5v-272q0 -111 44 -163t153 -52v-156q-109 0 -153 -52t-44 -163v-273q0 -184 -98 -276t-280 -92h-88v160h57q217 0 217 219v245q0 48 3.5 86t16 80t33 71t57.5 49.5t87 23.5q-50 3 -87 23.5t-57.5 49t-33 70.5t-16 79.5t-3.5 86.5
v246q0 219 -217 219h-57v160z" />
    <glyph glyph-name="asciitilde" unicode="~" horiz-adv-x="1320" 
d="M412 739q-82 0 -114 -52.5t-32 -147.5h-157q0 76 17.5 141t53 116.5t93.5 81t133 29.5q60 0 120 -22t108.5 -53.5t94.5 -62.5t95.5 -53t93.5 -22q145 0 141 197h155q0 -72 -16 -136t-48 -117t-87 -83.5t-127 -30.5q-58 0 -118.5 22t-111.5 54t-99.5 63.5t-99.5 53.5
t-95 22z" />
    <glyph glyph-name="uni00A0" unicode="&#xa0;" horiz-adv-x="561" 
 />
    <glyph glyph-name="exclamdown" unicode="&#xa1;" horiz-adv-x="528" 
d="M379 1085v-231h-229v231h229zM340 649q1 -14 15 -288.5t14 -303.5v-436h-211v436q0 29 13 307.5t13 284.5h156z" />
    <glyph glyph-name="cent" unicode="&#xa2;" horiz-adv-x="1177" 
d="M526 0v164q-202 28 -331 182t-129 371q0 215 129.5 370t330.5 183v164h144v-164q167 -18 284 -119.5t158 -273.5h-188q-31 111 -116.5 175t-203.5 64q-111 0 -193 -56t-122.5 -145.5t-40.5 -197.5q0 -170 96 -286t260 -116q118 0 203.5 64.5t116.5 177.5h188
q-41 -172 -158 -274t-284 -121v-162h-144z" />
    <glyph glyph-name="sterling" unicode="&#xa3;" horiz-adv-x="1331" 
d="M109 618v144h202q-47 176 -47 262q0 197 124 318.5t327 121.5q444 0 483 -415h-223q-26 245 -262 245q-108 0 -173 -75.5t-65 -188.5q0 -26 5 -61t10.5 -62t16 -73.5t15.5 -71.5h365v-144h-342q0 -151 -36.5 -252.5t-139.5 -191.5h854v-174h-1114v154q245 140 245 370
q0 32 -8 94h-237z" />
    <glyph glyph-name="currency" unicode="&#xa4;" horiz-adv-x="1218" 
d="M608 995q-116 0 -197 -81.5t-81 -198.5q0 -115 81 -197t197 -82q114 0 196.5 82t82.5 197q0 116 -82 198t-197 82zM608 1135q139 0 244 -82l158 153l100 -102l-158 -152q74 -106 74 -237q0 -130 -74 -236l158 -151l-100 -101l-158 152q-105 -82 -244 -82q-135 0 -243 82
l-158 -152l-98 101l157 151q-78 104 -78 236q0 130 78 237l-157 152l98 102l158 -153q113 82 243 82z" />
    <glyph glyph-name="yen" unicode="&#xa5;" horiz-adv-x="1296" 
d="M545 453h-316v143h263l-472 838h232l395 -723l395 723h232l-471 -838h264v-143h-317v-121h317v-144h-317v-188h-205v188h-316v144h316v121z" />
    <glyph glyph-name="brokenbar" unicode="&#xa6;" horiz-adv-x="489" 
d="M150 879v772h190v-772h-190zM150 -219v772h190v-772h-190z" />
    <glyph glyph-name="section" unicode="&#xa7;" horiz-adv-x="1089" 
d="M729 553q68 54 68 115q0 83 -79 121q-50 24 -204 54q-17 3 -25 5q-79 15 -129 31q-69 -56 -69 -115q0 -35 13.5 -61.5t37 -43.5t61.5 -30.5t79.5 -23t98.5 -20.5q11 -2 17 -3q54 -8 131 -29zM494 457q-92 19 -153 40t-111.5 53.5t-74.5 80.5t-24 114q0 114 102 187
q-124 75 -124 221q0 81 37 143t98.5 97.5t132.5 53t147 17.5q121 0 216.5 -34.5t161 -112t77.5 -191.5h-174q-40 203 -277 203q-59 0 -110.5 -15.5t-90 -56t-38.5 -100.5q0 -35 14 -62t36.5 -44t58 -30t72 -21.5t85.5 -18.5q27 -5 41 -8q91 -18 152.5 -39t111 -53.5
t73 -80.5t23.5 -114q0 -111 -100 -186q123 -77 123 -224q0 -80 -37 -141.5t-98.5 -97t-132.5 -53t-148 -17.5q-89 0 -166 20t-138.5 60t-101 106t-48.5 152h174q40 -205 278 -205q59 0 110.5 15.5t89.5 56t38 100.5q0 89 -89 130q-45 20 -187 49q-17 3 -29 6z" />
    <glyph glyph-name="dieresis" unicode="&#xa8;" horiz-adv-x="729" 
d="M438 1221v209h180v-209h-180zM109 1221v209h184v-209h-184z" />
    <glyph glyph-name="copyright" unicode="&#xa9;" horiz-adv-x="1714" 
d="M856 1325q-165 0 -304 -80.5t-220.5 -220t-81.5 -305.5t81.5 -305.5t220.5 -220t304 -80.5q166 0 305.5 81.5t220 220.5t80.5 304t-81.5 304.5t-221 220.5t-303.5 81zM858 1128q143 0 241.5 -77.5t129.5 -216.5h-142q-55 170 -231 170q-118 0 -186 -83t-68 -204
q0 -120 69 -203.5t185 -83.5q177 0 231 170h142q-31 -139 -129.5 -217t-241.5 -78q-175 0 -289 116t-114 296q0 177 112.5 294t290.5 117zM856 1466q152 0 290.5 -59t239.5 -159t160.5 -239t59.5 -292q0 -202 -100 -374t-273 -273t-377 -101q-151 0 -289 59t-238.5 159
t-160 239t-59.5 291q0 153 59.5 292t160 239t238.5 159t289 59z" />
    <glyph glyph-name="ordfeminine" unicode="&#xaa;" horiz-adv-x="995" 
d="M420 1016q-31 -6 -53.5 -13.5t-47 -21t-38 -36t-13.5 -52.5q0 -58 39 -85.5t105 -27.5q88 0 165.5 64.5t77.5 150.5v72q-24 -13 -90 -27q-54 -10 -145 -24zM360 1110q227 34 232 35q31 3 47 14.5t16 38.5q0 70 -47 109t-129 39q-76 0 -127.5 -36t-58.5 -106h-158
q19 133 111 196.5t231 63.5q338 0 338 -297v-288q0 -23 1.5 -35.5t6.5 -27.5t17 -21.5t32 -6.5h15v-112h-72q-60 0 -95.5 38.5t-45.5 102.5q-100 -141 -301 -141q-116 0 -190 52.5t-74 158.5q0 187 251 223z" />
    <glyph glyph-name="guillemotleft" unicode="&#xab;" horiz-adv-x="1406" 
d="M1008 1210h249l-432 -493l432 -496h-249l-433 496zM543 1210h248l-433 -493l433 -496h-248l-434 496z" />
    <glyph glyph-name="logicalnot" unicode="&#xac;" horiz-adv-x="1343" 
d="M1196 686v-485h-174v307h-872v178h1046z" />
    <glyph glyph-name="uni00AD" unicode="&#xad;" horiz-adv-x="808" 
d="M102 571v56h605v-56h-605z" />
    <glyph glyph-name="registered" unicode="&#xae;" horiz-adv-x="1712" 
d="M856 1325q-165 0 -304 -80.5t-220.5 -220t-81.5 -305.5t81.5 -305.5t220.5 -220t304 -80.5q166 0 305.5 81.5t220 220.5t80.5 304t-81.5 304.5t-221 220.5t-303.5 81zM897 961h-174v-218h174q125 0 125 111q0 107 -125 107zM856 1466q152 0 290.5 -59t239.5 -159
t160.5 -239t59.5 -292q0 -202 -100 -374t-273 -273t-377 -101q-151 0 -289 59t-238.5 159t-160 239t-59.5 291q0 153 59.5 292t160 239t238.5 159t289 59zM582 1081h319q118 0 188 -56.5t70 -170.5q0 -68 -30.5 -122t-90.5 -81l148 -282h-148l-129 256h-186v-256h-141v712z
" />
    <glyph glyph-name="macron" unicode="&#xaf;" horiz-adv-x="755" 
d="M109 1260v135h538v-135h-538z" />
    <glyph glyph-name="degree" unicode="&#xb0;" horiz-adv-x="829" 
d="M416 1343q-74 0 -124 -52.5t-50 -125.5q0 -74 49 -124t125 -50q74 0 123 50t49 124t-49 126t-123 52zM414 1464q132 0 218.5 -84.5t86.5 -214.5q0 -127 -89.5 -212t-215.5 -85q-129 0 -217 85.5t-88 211.5q0 132 87.5 215.5t217.5 83.5z" />
    <glyph glyph-name="plusminus" unicode="&#xb1;" horiz-adv-x="1202" 
d="M506 1303h190v-375h357v-183h-357v-372h-190v372h-356v183h356v375zM150 0v182h903v-182h-903z" />
    <glyph glyph-name="twosuperior" unicode="&#xb2;" horiz-adv-x="741" 
d="M379 1653q125 0 206 -61t81 -183q0 -35 -7.5 -65t-26.5 -56t-34.5 -44.5t-48 -41.5t-50.5 -34t-57 -35q-39 -23 -57.5 -35t-50 -35.5t-48 -42.5t-32.5 -46t-21 -56h441v-119h-606v47q-1 61 16.5 114.5t41.5 89t65 71t72.5 55t78.5 45.5q102 57 130 79q58 48 58 105
q0 65 -41.5 97t-109.5 32q-149 0 -172 -168h-139q14 134 95 210.5t216 76.5z" />
    <glyph glyph-name="threesuperior" unicode="&#xb3;" horiz-adv-x="768" 
d="M385 1653q126 0 204.5 -55t78.5 -162q0 -65 -33.5 -114t-91.5 -73q71 -21 113 -72.5t42 -125.5q0 -123 -90 -187.5t-223 -64.5q-137 0 -223 67t-96 195h135q16 -148 184 -148q76 0 124 34.5t48 111.5q0 65 -46.5 101t-123.5 36h-72v102h66q65 0 107 30.5t42 94.5
q0 113 -149 113q-68 0 -109 -30.5t-47 -94.5h-133q7 114 89 178t204 64z" />
    <glyph glyph-name="acute" unicode="&#xb4;" horiz-adv-x="587" 
d="M285 1485h194l-209 -279h-161z" />
    <glyph glyph-name="paragraph" unicode="&#xb6;" horiz-adv-x="1269" 
d="M559 1434h561v-1434h-180v1253h-147v-1253h-183v584h-92q-108 0 -200 49t-150.5 146.5t-58.5 224.5q0 132 61 231t162.5 149t226.5 50z" />
    <glyph glyph-name="periodcentered" unicode="&#xb7;" horiz-adv-x="528" 
d="M150 600v231h229v-231h-229z" />
    <glyph glyph-name="cedilla" unicode="&#xb8;" horiz-adv-x="620" 
d="M344 0l-31 -104q199 -15 199 -175q0 -99 -69.5 -148.5t-168.5 -49.5q-83 0 -165 45v115q91 -52 159 -52q48 0 83.5 24t35.5 71q0 84 -149 84h-45l55 190h96z" />
    <glyph glyph-name="onesuperior" unicode="&#xb9;" horiz-adv-x="503" 
d="M281 1653h112v-852h-135v585h-190v109q52 0 84.5 4.5t65 19.5t48 48.5t15.5 85.5z" />
    <glyph glyph-name="ordmasculine" unicode="&#xba;" horiz-adv-x="997" 
d="M500 1331q-77 -1 -129 -39t-73.5 -94.5t-21.5 -126.5q0 -53 12.5 -98t38.5 -82t70 -58.5t103 -21.5q80 0 131.5 39t70.5 94.5t19 126.5q0 53 -12 97.5t-37 82t-69 58.5t-103 22zM500 1464q183 0 286 -110.5t103 -282.5q0 -175 -105 -285t-284 -110q-181 0 -286 112
t-105 283q0 173 106 283t285 110z" />
    <glyph glyph-name="guillemotright" unicode="&#xbb;" horiz-adv-x="1406" 
d="M616 1210h248l434 -493l-434 -496h-248l433 496zM150 1210h247l434 -493l-434 -496h-247l432 496z" />
    <glyph glyph-name="onequarter" unicode="&#xbc;" horiz-adv-x="1531" 
d="M969 274h260v396zM827 158v86l379 579h160v-549h121v-116h-121v-189h-137v189h-402zM281 1464h112v-852h-135v586h-190v109q52 0 84.5 4.5t65 19.5t48 48t15.5 85zM150 0l968 1434h176l-966 -1434h-178z" />
    <glyph glyph-name="onehalf" unicode="&#xbd;" horiz-adv-x="1683" 
d="M281 1464h112v-852h-135v586h-190v109q52 0 84.5 4.5t65 19.5t48 48t15.5 85zM150 0l968 1434h176l-966 -1434h-178zM1323 823q125 0 206 -60.5t81 -182.5q0 -41 -14 -78t-31 -61t-53 -53t-58 -43t-68 -42q-38 -23 -57 -35.5t-50.5 -35.5t-48 -42t-32 -46t-20.5 -56h440
v-119h-606v47q-1 61 16.5 114.5t41.5 89t65 71t72.5 55t78.5 45.5q102 57 128 78q61 48 61 106q0 65 -42 97.5t-110 32.5q-149 0 -172 -168h-139q14 134 95 210t216 76z" />
    <glyph glyph-name="threequarters" unicode="&#xbe;" horiz-adv-x="1796" 
d="M1231 274h260v396zM1090 158v86l378 579h160v-549h121v-116h-121v-189h-137v189h-401zM387 1466q126 0 204.5 -55t78.5 -162q0 -65 -33.5 -113.5t-91.5 -72.5q71 -21 113 -72.5t42 -126.5q0 -123 -90 -187.5t-223 -64.5q-137 0 -223 67t-96 195h135q16 -147 184 -147
q76 0 124 34t48 111q0 65 -46.5 101.5t-123.5 36.5h-72v102h66q65 0 107 30.5t42 94.5q0 113 -149 113q-68 0 -109 -30.5t-47 -94.5h-133q7 114 88.5 177.5t204.5 63.5zM414 0l968 1434h177l-967 -1434h-178z" />
    <glyph glyph-name="questiondown" unicode="&#xbf;" horiz-adv-x="1146" 
d="M700 1085v-231h-227v231h227zM674 686v-43q0 -118 -36.5 -194.5t-115.5 -141.5q-20 -17 -57.5 -45.5t-55 -43t-42.5 -40.5t-36.5 -48t-20.5 -53.5t-9 -68.5q0 -103 74.5 -164t181.5 -61q141 0 215.5 80.5t89.5 216.5h197q-22 -226 -151.5 -342.5t-356.5 -116.5
q-127 0 -230.5 42.5t-168 130.5t-64.5 208q0 55 13.5 101t33.5 78t53.5 64.5t62 53.5t71 52.5t69.5 54.5q57 46 82 100t25 129v51h176z" />
    <glyph glyph-name="Agrave" unicode="&#xc0;" horiz-adv-x="1388" 
d="M449 559h491l-246 653zM244 0h-224l553 1434h242l551 -1434h-223l-150 391h-600zM604 1585l-209 279h193l178 -279h-162z" />
    <glyph glyph-name="Aacute" unicode="&#xc1;" horiz-adv-x="1388" 
d="M449 559h491l-246 653zM244 0h-224l553 1434h242l551 -1434h-223l-150 391h-600zM618 1585l177 279h194l-209 -279h-162z" />
    <glyph glyph-name="Acircumflex" unicode="&#xc2;" horiz-adv-x="1388" 
d="M449 559h491l-246 653zM244 0h-224l553 1434h242l551 -1434h-223l-150 391h-600zM416 1585l192 279h172l191 -279h-154l-123 174l-123 -174h-155z" />
    <glyph glyph-name="Atilde" unicode="&#xc3;" horiz-adv-x="1388" 
d="M449 559h491l-246 653zM244 0h-224l553 1434h242l551 -1434h-223l-150 391h-600zM549 1804q49 0 102 -28t101 -56t86 -28q40 0 59 29t16 71h123q5 -93 -46 -163t-142 -70q-39 0 -82 17.5t-74 38.5t-67 38.5t-64 17.5q-43 0 -62.5 -29t-19.5 -75h-125q3 102 51.5 169.5
t143.5 67.5z" />
    <glyph glyph-name="Adieresis" unicode="&#xc4;" horiz-adv-x="1388" 
d="M449 559h491l-246 653zM244 0h-224l553 1434h242l551 -1434h-223l-150 391h-600zM623 1599h-185v209h185v-209zM948 1599h-180v209h180v-209z" />
    <glyph glyph-name="Aring" unicode="&#xc5;" horiz-adv-x="1388" 
d="M449 559h491l-246 653zM694 1825q-37 0 -59.5 -22t-22.5 -60t22 -60t60 -22t60 23t22 59q0 37 -22 59.5t-60 22.5zM244 0h-224l553 1434h242l551 -1434h-223l-150 391h-600zM694 1925q80 0 134.5 -51.5t54.5 -130.5q0 -80 -53.5 -130t-133.5 -50q-82 0 -136 50.5
t-54 129.5q0 83 54 132.5t134 49.5z" />
    <glyph glyph-name="AE" unicode="&#xc6;" horiz-adv-x="2109" 
d="M1057 1223l-434 -664h434v664zM956 1434h1043v-170h-735v-457h678v-170h-678v-467h735v-170h-942v391h-533l-258 -391h-246z" />
    <glyph glyph-name="Ccedilla" unicode="&#xc7;" horiz-adv-x="1540" 
d="M684 -190l47 161q-198 12 -346 116.5t-222.5 268t-74.5 361.5q0 155 47.5 290.5t134.5 237.5t219.5 160.5t292.5 58.5q270 0 451.5 -148.5t216.5 -400.5h-209q-30 169 -153.5 272t-307.5 103q-114 0 -208 -48.5t-153.5 -129.5t-91.5 -182.5t-32 -212.5q0 -110 32 -212
t91.5 -183t153.5 -130t208 -49q184 0 307.5 103t153.5 272h209q-34 -239 -202.5 -387t-420.5 -160l-22 -75q199 -15 199 -175q0 -99 -69.5 -148.5t-168.5 -49.5q-84 0 -166 45v115q91 -52 160 -52q48 0 83.5 24t35.5 71q0 84 -150 84h-45z" />
    <glyph glyph-name="Egrave" unicode="&#xc8;" horiz-adv-x="1200" 
d="M150 1434h942v-170h-738v-457h678v-170h-678v-467h738v-170h-942v1434zM434 1864h193l178 -279h-162z" />
    <glyph glyph-name="Eacute" unicode="&#xc9;" horiz-adv-x="1200" 
d="M150 1434h942v-170h-738v-457h678v-170h-678v-467h738v-170h-942v1434zM610 1864h195l-209 -279h-162z" />
    <glyph glyph-name="Ecircumflex" unicode="&#xca;" horiz-adv-x="1200" 
d="M150 1434h942v-170h-738v-457h678v-170h-678v-467h738v-170h-942v1434zM535 1864h172l190 -279h-154l-122 174l-123 -174h-156z" />
    <glyph glyph-name="Edieresis" unicode="&#xcb;" horiz-adv-x="1200" 
d="M150 1434h942v-170h-738v-457h678v-170h-678v-467h738v-170h-942v1434zM694 1599v209h180v-209h-180zM365 1599v209h184v-209h-184z" />
    <glyph glyph-name="Igrave" unicode="&#xcc;" horiz-adv-x="503" 
d="M150 0v1434h204v-1434h-204zM-39 1864h193l178 -279h-162z" />
    <glyph glyph-name="Iacute" unicode="&#xcd;" horiz-adv-x="503" 
d="M150 0v1434h204v-1434h-204zM350 1864h195l-209 -279h-162z" />
    <glyph glyph-name="Icircumflex" unicode="&#xce;" horiz-adv-x="503" 
d="M150 0v1434h204v-1434h-204zM166 1864h172l190 -279h-153l-123 174l-123 -174h-156z" />
    <glyph glyph-name="Idieresis" unicode="&#xcf;" horiz-adv-x="503" 
d="M150 0v1434h204v-1434h-204zM326 1599v209h180v-209h-180zM-4 1599v209h184v-209h-184z" />
    <glyph glyph-name="Eth" unicode="&#xd0;" horiz-adv-x="1433" 
d="M610 1264h-256v-480h244v-135h-244v-479h256q245 0 392 151.5t147 395.5t-147 395.5t-392 151.5zM150 784v650h466q211 0 376.5 -86.5t259.5 -250.5t94 -380t-94 -380t-259.5 -250.5t-376.5 -86.5h-466v649h-91v135h91z" />
    <glyph glyph-name="Ntilde" unicode="&#xd1;" horiz-adv-x="1411" 
d="M1057 1434h205v-1434h-224l-684 1094v-1094h-204v1434h223l684 -1110v1110zM559 1804q49 0 102 -28t101 -56t86 -28q40 0 59.5 29.5t16.5 70.5h123q5 -93 -46.5 -163t-142.5 -70q-39 0 -82 17.5t-74 38.5t-67 38.5t-64 17.5q-43 0 -62.5 -29t-19.5 -75h-124
q3 102 51 169.5t143 67.5z" />
    <glyph glyph-name="Ograve" unicode="&#xd2;" horiz-adv-x="1576" 
d="M788 1290q-118 0 -213 -47.5t-154.5 -128t-91.5 -182.5t-32 -215t32 -215t91.5 -182t154.5 -127.5t213 -47.5t213 47.5t155 127.5t92 182t32 215t-32 215t-92 182.5t-155 128t-213 47.5zM788 1464q132 0 245 -38.5t196 -107.5t142 -162.5t88.5 -205t29.5 -233.5
q0 -151 -47 -286t-134 -238t-221.5 -163.5t-298.5 -60.5t-298 60.5t-221 163.5t-134 238t-47 286q0 153 47 288t134 237.5t221 162t298 59.5zM506 1864h192l179 -279h-162z" />
    <glyph glyph-name="Oacute" unicode="&#xd3;" horiz-adv-x="1576" 
d="M788 1290q-118 0 -213 -47.5t-154.5 -128t-91.5 -182.5t-32 -215t32 -215t91.5 -182t154.5 -127.5t213 -47.5t213 47.5t155 127.5t92 182t32 215t-32 215t-92 182.5t-155 128t-213 47.5zM788 1464q132 0 245 -38.5t196 -107.5t142 -162.5t88.5 -205t29.5 -233.5
q0 -151 -47 -286t-134 -238t-221.5 -163.5t-298.5 -60.5t-298 60.5t-221 163.5t-134 238t-47 286q0 153 47 288t134 237.5t221 162t298 59.5zM881 1864h194l-209 -279h-161z" />
    <glyph glyph-name="Ocircumflex" unicode="&#xd4;" horiz-adv-x="1576" 
d="M788 1290q-118 0 -213 -47.5t-154.5 -128t-91.5 -182.5t-32 -215t32 -215t91.5 -182t154.5 -127.5t213 -47.5t213 47.5t155 127.5t92 182t32 215t-32 215t-92 182.5t-155 128t-213 47.5zM788 1464q132 0 245 -38.5t196 -107.5t142 -162.5t88.5 -205t29.5 -233.5
q0 -151 -47 -286t-134 -238t-221.5 -163.5t-298.5 -60.5t-298 60.5t-221 163.5t-134 238t-47 286q0 153 47 288t134 237.5t221 162t298 59.5zM510 1585l192 279h172l191 -279h-154l-123 174l-122 -174h-156z" />
    <glyph glyph-name="Otilde" unicode="&#xd5;" horiz-adv-x="1576" 
d="M788 1290q-118 0 -213 -47.5t-154.5 -128t-91.5 -182.5t-32 -215t32 -215t91.5 -182t154.5 -127.5t213 -47.5t213 47.5t155 127.5t92 182t32 215t-32 215t-92 182.5t-155 128t-213 47.5zM788 1464q132 0 245 -38.5t196 -107.5t142 -162.5t88.5 -205t29.5 -233.5
q0 -151 -47 -286t-134 -238t-221.5 -163.5t-298.5 -60.5t-298 60.5t-221 163.5t-134 238t-47 286q0 153 47 288t134 237.5t221 162t298 59.5zM641 1804q49 0 102 -28t101 -56t86 -28q40 0 59.5 29.5t16.5 70.5h122q5 -93 -46 -163t-142 -70q-39 0 -82 17.5t-74 38.5
t-67 38.5t-64 17.5q-43 0 -62.5 -29t-19.5 -75h-125q3 102 51.5 169.5t143.5 67.5z" />
    <glyph glyph-name="Odieresis" unicode="&#xd6;" horiz-adv-x="1576" 
d="M788 1290q-118 0 -213 -47.5t-154.5 -128t-91.5 -182.5t-32 -215t32 -215t91.5 -182t154.5 -127.5t213 -47.5t213 47.5t155 127.5t92 182t32 215t-32 215t-92 182.5t-155 128t-213 47.5zM788 1464q132 0 245 -38.5t196 -107.5t142 -162.5t88.5 -205t29.5 -233.5
q0 -151 -47 -286t-134 -238t-221.5 -163.5t-298.5 -60.5t-298 60.5t-221 163.5t-134 238t-47 286q0 153 47 288t134 237.5t221 162t298 59.5zM862 1599v209h180v-209h-180zM532 1599v209h185v-209h-185z" />
    <glyph glyph-name="multiply" unicode="&#xd7;" horiz-adv-x="1077" 
d="M797 983l133 -133l-258 -256l258 -256l-133 -133l-256 256l-258 -258l-133 133l258 258l-258 256l133 133l258 -256z" />
    <glyph glyph-name="Oslash" unicode="&#xd8;" horiz-adv-x="1576" 
d="M412 332l659 868q-124 90 -283 90q-118 0 -213 -47.5t-154.5 -128t-91.5 -182.5t-32 -215q0 -228 115 -385zM1165 1102l-657 -866q122 -91 280 -91q118 0 213 47.5t155 127.5t92 182t32 215q0 228 -115 385zM305 -31h-170l154 203q-97 102 -149 243.5t-52 301.5
q0 153 47 288t134 237.5t221 162t298 59.5q235 0 398 -114l86 114h170l-154 -200q98 -104 149.5 -245t51.5 -302q0 -151 -47 -286t-134 -238t-221.5 -163.5t-298.5 -60.5q-228 0 -397 115z" />
    <glyph glyph-name="Ugrave" unicode="&#xd9;" horiz-adv-x="1347" 
d="M1014 1434h205v-947q0 -156 -72 -275t-195 -181t-278 -62q-154 0 -276.5 60.5t-195.5 179.5t-73 278v947h205v-932q0 -163 93 -261t247 -98q156 0 248 99.5t92 259.5v932zM487 1864h193l178 -279h-162z" />
    <glyph glyph-name="Uacute" unicode="&#xda;" horiz-adv-x="1347" 
d="M1014 1434h205v-947q0 -156 -72 -275t-195 -181t-278 -62q-154 0 -276.5 60.5t-195.5 179.5t-73 278v947h205v-932q0 -163 93 -261t247 -98q156 0 248 99.5t92 259.5v932zM664 1864h194l-209 -279h-162z" />
    <glyph glyph-name="Ucircumflex" unicode="&#xdb;" horiz-adv-x="1347" 
d="M1014 1434h205v-947q0 -156 -72 -275t-195 -181t-278 -62q-154 0 -276.5 60.5t-195.5 179.5t-73 278v947h205v-932q0 -163 93 -261t247 -98q156 0 248 99.5t92 259.5v932zM588 1864h172l190 -279h-153l-123 174l-123 -174h-156z" />
    <glyph glyph-name="Udieresis" unicode="&#xdc;" horiz-adv-x="1347" 
d="M1014 1434h205v-947q0 -156 -72 -275t-195 -181t-278 -62q-154 0 -276.5 60.5t-195.5 179.5t-73 278v947h205v-932q0 -163 93 -261t247 -98q156 0 248 99.5t92 259.5v932zM748 1599v209h180v-209h-180zM418 1599v209h184v-209h-184z" />
    <glyph glyph-name="Yacute" unicode="&#xdd;" horiz-adv-x="1296" 
d="M1042 1434h232l-524 -932v-502h-205v502l-525 932h232l395 -723zM639 1864h195l-209 -279h-162z" />
    <glyph glyph-name="Thorn" unicode="&#xde;" horiz-adv-x="1267" 
d="M698 979h-342v-526h342q127 0 211 68t84 196q0 126 -82 194t-213 68zM356 1149h344q146 0 256.5 -45.5t177 -144.5t66.5 -242q0 -112 -38.5 -196.5t-107.5 -135t-157.5 -75.5t-196.5 -25h-344v-285h-206v1434h206v-285z" />
    <glyph glyph-name="germandbls" unicode="&#xdf;" horiz-adv-x="1245" 
d="M629 1464q90 0 170.5 -23.5t144.5 -68.5t101.5 -118t37.5 -164q0 -118 -61 -205.5t-170 -120.5q149 -34 236.5 -128t87.5 -241q0 -108 -40 -192t-108.5 -134t-153 -75t-180.5 -25q-138 0 -235 47v160q81 -49 198 -49q142 0 228 75.5t86 211.5q0 91 -50 152.5t-125.5 87.5
t-170.5 26h-113v156h98q125 0 204 58.5t79 176.5q0 112 -70.5 172t-191.5 60q-132 0 -205.5 -88.5t-73.5 -231.5v-983h-202v946q0 232 126 375t353 143z" />
    <glyph glyph-name="agrave" unicode="&#xe0;" horiz-adv-x="1212" 
d="M492 455q-50 -9 -86.5 -20t-71.5 -30.5t-53.5 -51t-18.5 -74.5q0 -86 55 -124t160 -38q85 0 169.5 35t143.5 102.5t60 148.5v127q-38 -19 -82 -28zM424 586q260 37 338 49q88 14 88 80q0 103 -66.5 160t-197.5 57q-120 0 -200.5 -54.5t-90.5 -158.5h-184
q28 185 153.5 275.5t319.5 90.5q450 0 450 -413v-428q0 -29 1 -46t5.5 -37.5t13.5 -31t25 -18t39 -7.5h19v-135h-82q-86 0 -131.5 53.5t-53.5 145.5q-70 -93 -183 -146t-228 -53q-173 0 -278 75t-105 222q0 74 27.5 132.5t76.5 95.5t109.5 59.5t134.5 32.5zM510 1206
l-209 279h193l178 -279h-162z" />
    <glyph glyph-name="aacute" unicode="&#xe1;" horiz-adv-x="1212" 
d="M492 455q-50 -9 -86.5 -20t-71.5 -30.5t-53.5 -51t-18.5 -74.5q0 -86 55 -124t160 -38q85 0 169.5 35t143.5 102.5t60 148.5v127q-38 -19 -82 -28zM424 586q260 37 338 49q88 14 88 80q0 103 -66.5 160t-197.5 57q-120 0 -200.5 -54.5t-90.5 -158.5h-184
q28 185 153.5 275.5t319.5 90.5q450 0 450 -413v-428q0 -29 1 -46t5.5 -37.5t13.5 -31t25 -18t39 -7.5h19v-135h-82q-86 0 -131.5 53.5t-53.5 145.5q-70 -93 -183 -146t-228 -53q-173 0 -278 75t-105 222q0 74 27.5 132.5t76.5 95.5t109.5 59.5t134.5 32.5zM502 1206
l176 279h194l-208 -279h-162z" />
    <glyph glyph-name="acircumflex" unicode="&#xe2;" horiz-adv-x="1212" 
d="M492 455q-50 -9 -86.5 -20t-71.5 -30.5t-53.5 -51t-18.5 -74.5q0 -86 55 -124t160 -38q85 0 169.5 35t143.5 102.5t60 148.5v127q-38 -19 -82 -28zM424 586q260 37 338 49q88 14 88 80q0 103 -66.5 160t-197.5 57q-120 0 -200.5 -54.5t-90.5 -158.5h-184
q28 185 153.5 275.5t319.5 90.5q450 0 450 -413v-428q0 -29 1 -46t5.5 -37.5t13.5 -31t25 -18t39 -7.5h19v-135h-82q-86 0 -131.5 53.5t-53.5 145.5q-70 -93 -183 -146t-228 -53q-173 0 -278 75t-105 222q0 74 27.5 132.5t76.5 95.5t109.5 59.5t134.5 32.5zM328 1206
l192 279h172l191 -279h-154l-123 174l-123 -174h-155z" />
    <glyph glyph-name="atilde" unicode="&#xe3;" horiz-adv-x="1212" 
d="M492 455q-50 -9 -86.5 -20t-71.5 -30.5t-53.5 -51t-18.5 -74.5q0 -86 55 -124t160 -38q85 0 169.5 35t143.5 102.5t60 148.5v127q-38 -19 -82 -28zM424 586q260 37 338 49q88 14 88 80q0 103 -66.5 160t-197.5 57q-120 0 -200.5 -54.5t-90.5 -158.5h-184
q28 185 153.5 275.5t319.5 90.5q450 0 450 -413v-428q0 -29 1 -46t5.5 -37.5t13.5 -31t25 -18t39 -7.5h19v-135h-82q-86 0 -131.5 53.5t-53.5 145.5q-70 -93 -183 -146t-228 -53q-173 0 -278 75t-105 222q0 74 27.5 132.5t76.5 95.5t109.5 59.5t134.5 32.5zM461 1425
q49 0 102 -28t101 -56t86 -28q40 0 59 29t16 71h123q5 -93 -46 -163t-142 -70q-39 0 -82 17.5t-74 38.5t-67 38.5t-64 17.5q-43 0 -62.5 -29t-19.5 -75h-125q3 102 51.5 169.5t143.5 67.5z" />
    <glyph glyph-name="adieresis" unicode="&#xe4;" horiz-adv-x="1212" 
d="M492 455q-50 -9 -86.5 -20t-71.5 -30.5t-53.5 -51t-18.5 -74.5q0 -86 55 -124t160 -38q85 0 169.5 35t143.5 102.5t60 148.5v127q-38 -19 -82 -28zM424 586q260 37 338 49q88 14 88 80q0 103 -66.5 160t-197.5 57q-120 0 -200.5 -54.5t-90.5 -158.5h-184
q28 185 153.5 275.5t319.5 90.5q450 0 450 -413v-428q0 -29 1 -46t5.5 -37.5t13.5 -31t25 -18t39 -7.5h19v-135h-82q-86 0 -131.5 53.5t-53.5 145.5q-70 -93 -183 -146t-228 -53q-173 0 -278 75t-105 222q0 74 27.5 132.5t76.5 95.5t109.5 59.5t134.5 32.5zM535 1221h-185
v209h185v-209zM860 1221h-180v209h180v-209z" />
    <glyph glyph-name="aring" unicode="&#xe5;" horiz-adv-x="1212" 
d="M492 455q-50 -9 -86.5 -20t-71.5 -30.5t-53.5 -51t-18.5 -74.5q0 -86 55 -124t160 -38q85 0 169.5 35t143.5 102.5t60 148.5v127q-38 -19 -82 -28zM606 1446q-37 0 -59.5 -22t-22.5 -60t22 -60t60 -22t60 23t22 59q0 37 -22 59.5t-60 22.5zM424 586q260 37 338 49
q88 14 88 80q0 103 -66.5 160t-197.5 57q-120 0 -200.5 -54.5t-90.5 -158.5h-184q28 185 153.5 275.5t319.5 90.5q450 0 450 -413v-428q0 -29 1 -46t5.5 -37.5t13.5 -31t25 -18t39 -7.5h19v-135h-82q-86 0 -131.5 53.5t-53.5 145.5q-70 -93 -183 -146t-228 -53
q-173 0 -278 75t-105 222q0 74 27.5 132.5t76.5 95.5t109.5 59.5t134.5 32.5zM606 1546q80 0 134.5 -51.5t54.5 -130.5q0 -80 -53.5 -130t-133.5 -50q-82 0 -136 50.5t-54 129.5q0 83 54 132.5t134 49.5z" />
    <glyph glyph-name="ae" unicode="&#xe6;" horiz-adv-x="1968" 
d="M846 526q-29 -14 -78 -24l-276 -47q-50 -9 -86.5 -20t-71.5 -30.5t-53.5 -51t-18.5 -74.5q0 -86 55 -124t160 -38q80 0 157.5 29.5t140.5 91t87 143.5q-16 72 -16 145zM1380 936q-73 0 -134 -25.5t-102.5 -68.5t-67.5 -96.5t-36 -112.5h678q-24 135 -112.5 219t-225.5 84
zM1380 1085q160 0 281 -77t184 -209q71 -148 56 -322h-867q8 -152 106 -256t253 -104q109 0 192.5 49.5t124.5 142.5h186q-53 -158 -188.5 -249t-306.5 -91q-151 0 -274 65t-195 181q-39 -67 -99 -117t-126 -77t-128 -39.5t-120 -12.5q-173 0 -278 75t-105 222
q0 74 27.5 132.5t76.5 95.5t109.5 59.5t134.5 32.5q260 37 338 49q88 14 88 80q0 103 -66.5 160t-197.5 57q-120 0 -200.5 -54.5t-90.5 -158.5h-184q28 185 153.5 275.5t319.5 90.5q295 0 397 -180q74 85 176.5 132.5t222.5 47.5z" />
    <glyph glyph-name="ccedilla" unicode="&#xe7;" horiz-adv-x="1177" 
d="M471 -190l47 165q-199 29 -327 183t-128 368q0 237 154 398t383 161q192 0 329.5 -104.5t182.5 -294.5h-190q-31 111 -116.5 176.5t-203.5 65.5q-111 0 -192.5 -56t-121.5 -146t-40 -200q0 -169 95 -284t259 -115q119 0 204 64.5t116 175.5h190q-44 -186 -178 -290.5
t-320 -107.5l-22 -73q199 -15 199 -175q0 -99 -69.5 -148.5t-168.5 -49.5q-84 0 -166 45v115q91 -52 160 -52q48 0 83.5 24t35.5 71q0 84 -150 84h-45z" />
    <glyph glyph-name="egrave" unicode="&#xe8;" horiz-adv-x="1187" 
d="M600 934q-142 0 -231 -87.5t-109 -213.5h676q-23 133 -111 217t-225 84zM600 1085q159 0 280.5 -77t182.5 -209q72 -144 57 -322h-868q9 -152 107 -256t253 -104q109 0 193 50t125 142h184q-52 -158 -187 -249t-306 -91q-240 0 -397.5 155.5t-157.5 403.5q0 152 68 279
t191 202.5t275 75.5zM526 1206l-209 279h193l178 -279h-162z" />
    <glyph glyph-name="eacute" unicode="&#xe9;" horiz-adv-x="1187" 
d="M600 934q-142 0 -231 -87.5t-109 -213.5h676q-23 133 -111 217t-225 84zM600 1085q159 0 280.5 -77t182.5 -209q72 -144 57 -322h-868q9 -152 107 -256t253 -104q109 0 193 50t125 142h184q-52 -158 -187 -249t-306 -91q-240 0 -397.5 155.5t-157.5 403.5q0 152 68 279
t191 202.5t275 75.5zM516 1206l176 279h195l-209 -279h-162z" />
    <glyph glyph-name="ecircumflex" unicode="&#xea;" horiz-adv-x="1187" 
d="M600 934q-142 0 -231 -87.5t-109 -213.5h676q-23 133 -111 217t-225 84zM600 1085q159 0 280.5 -77t182.5 -209q72 -144 57 -322h-868q9 -152 107 -256t253 -104q109 0 193 50t125 142h184q-52 -158 -187 -249t-306 -91q-240 0 -397.5 155.5t-157.5 403.5q0 152 68 279
t191 202.5t275 75.5zM315 1206l193 279h172l190 -279h-153l-123 174l-123 -174h-156z" />
    <glyph glyph-name="edieresis" unicode="&#xeb;" horiz-adv-x="1187" 
d="M600 934q-142 0 -231 -87.5t-109 -213.5h676q-23 133 -111 217t-225 84zM600 1085q159 0 280.5 -77t182.5 -209q72 -144 57 -322h-868q9 -152 107 -256t253 -104q109 0 193 50t125 142h184q-52 -158 -187 -249t-306 -91q-240 0 -397.5 155.5t-157.5 403.5q0 152 68 279
t191 202.5t275 75.5zM522 1221h-184v209h184v-209zM848 1221h-180v209h180v-209z" />
    <glyph glyph-name="igrave" unicode="&#xec;" horiz-adv-x="415" 
d="M111 0v1055h194v-1055h-194zM-84 1485h193l178 -279h-162z" />
    <glyph glyph-name="iacute" unicode="&#xed;" horiz-adv-x="415" 
d="M111 0v1055h194v-1055h-194zM303 1485h195l-209 -279h-162z" />
    <glyph glyph-name="icircumflex" unicode="&#xee;" horiz-adv-x="415" 
d="M111 0v1055h194v-1055h-194zM123 1485h172l190 -279h-153l-123 174l-123 -174h-156z" />
    <glyph glyph-name="idieresis" unicode="&#xef;" horiz-adv-x="415" 
d="M111 0v1055h194v-1055h-194zM283 1221v209h180v-209h-180zM-47 1221v209h184v-209h-184z" />
    <glyph glyph-name="eth" unicode="&#xf0;" horiz-adv-x="1234" 
d="M596 791q-149 0 -231 -93t-82 -243q0 -142 80.5 -233t218.5 -91q137 0 218.5 77.5t110.5 213.5q10 91 -27.5 175.5t-114.5 139t-173 54.5zM565 942q112 0 211 -50.5t158 -148.5q-17 169 -94.5 294t-204.5 198l-141 -207l-93 64l129 190q-127 47 -278 47v158
q206 0 377 -62l135 199l92 -65l-123 -179q193 -99 300.5 -282t107.5 -436q0 -110 -17 -207t-57.5 -187.5t-103 -155.5t-159.5 -104t-220 -39q-218 0 -355 137.5t-137 360.5q0 212 128 343.5t345 131.5z" />
    <glyph glyph-name="ntilde" unicode="&#xf1;" 
d="M641 1085q180 0 284.5 -112t104.5 -287v-686h-196v662q0 120 -61.5 194t-182.5 74q-89 0 -155.5 -52.5t-98 -131t-31.5 -168.5v-578h-196v1055h167l13 -152q56 88 148 135t204 47zM414 1425q49 0 102 -28t100.5 -56t85.5 -28q40 0 59.5 29.5t16.5 70.5h123
q5 -93 -46 -163t-142 -70q-39 0 -82 17.5t-74 38.5t-67 38.5t-64 17.5q-43 0 -62.5 -29t-19.5 -75h-125q3 102 51.5 169.5t143.5 67.5z" />
    <glyph glyph-name="ograve" unicode="&#xf2;" horiz-adv-x="1241" 
d="M621 930q-162 0 -264.5 -119t-102.5 -283t102.5 -281.5t264.5 -117.5q109 0 194 57t128.5 147t43.5 195t-44.5 196.5t-129.5 148.5t-192 57zM621 1085q118 0 221 -42.5t176.5 -116.5t115.5 -177.5t42 -220.5q0 -155 -71 -283t-198.5 -202t-285.5 -74q-118 0 -221 43
t-176.5 117.5t-115.5 178t-42 220.5q0 239 158 398t397 159zM340 1485h192l179 -279h-162z" />
    <glyph glyph-name="oacute" unicode="&#xf3;" horiz-adv-x="1241" 
d="M621 930q-162 0 -264.5 -119t-102.5 -283t102.5 -281.5t264.5 -117.5q109 0 194 57t128.5 147t43.5 195t-44.5 196.5t-129.5 148.5t-192 57zM621 1085q118 0 221 -42.5t176.5 -116.5t115.5 -177.5t42 -220.5q0 -155 -71 -283t-198.5 -202t-285.5 -74q-118 0 -221 43
t-176.5 117.5t-115.5 178t-42 220.5q0 239 158 398t397 159zM719 1485h194l-208 -279h-162z" />
    <glyph glyph-name="ocircumflex" unicode="&#xf4;" horiz-adv-x="1241" 
d="M621 930q-162 0 -264.5 -119t-102.5 -283t102.5 -281.5t264.5 -117.5q109 0 194 57t128.5 147t43.5 195t-44.5 196.5t-129.5 148.5t-192 57zM621 1085q118 0 221 -42.5t176.5 -116.5t115.5 -177.5t42 -220.5q0 -155 -71 -283t-198.5 -202t-285.5 -74q-118 0 -221 43
t-176.5 117.5t-115.5 178t-42 220.5q0 239 158 398t397 159zM342 1206l193 279h172l190 -279h-154l-122 174l-123 -174h-156z" />
    <glyph glyph-name="otilde" unicode="&#xf5;" horiz-adv-x="1241" 
d="M621 930q-162 0 -264.5 -119t-102.5 -283t102.5 -281.5t264.5 -117.5q109 0 194 57t128.5 147t43.5 195t-44.5 196.5t-129.5 148.5t-192 57zM621 1085q118 0 221 -42.5t176.5 -116.5t115.5 -177.5t42 -220.5q0 -155 -71 -283t-198.5 -202t-285.5 -74q-118 0 -221 43
t-176.5 117.5t-115.5 178t-42 220.5q0 239 158 398t397 159zM473 1425q49 0 102 -28t101 -56t86 -28q40 0 59.5 29.5t16.5 70.5h123q5 -93 -46.5 -163t-142.5 -70q-39 0 -82 17.5t-74 38.5t-67 38.5t-64 17.5q-43 0 -62.5 -29t-19.5 -75h-124q3 102 51 169.5t143 67.5z" />
    <glyph glyph-name="odieresis" unicode="&#xf6;" horiz-adv-x="1241" 
d="M621 930q-162 0 -264.5 -119t-102.5 -283t102.5 -281.5t264.5 -117.5q109 0 194 57t128.5 147t43.5 195t-44.5 196.5t-129.5 148.5t-192 57zM621 1085q118 0 221 -42.5t176.5 -116.5t115.5 -177.5t42 -220.5q0 -155 -71 -283t-198.5 -202t-285.5 -74q-118 0 -221 43
t-176.5 117.5t-115.5 178t-42 220.5q0 239 158 398t397 159zM694 1221v209h180v-209h-180zM365 1221v209h184v-209h-184z" />
    <glyph glyph-name="divide" unicode="&#xf7;" horiz-adv-x="1288" 
d="M643 1102q51 0 86 -35t35 -86t-35 -86t-86 -35q-52 0 -86.5 35t-34.5 86t35 86t86 35zM150 686h987v-184h-987v184zM643 328q51 0 86 -35t35 -86t-35 -86t-86 -35q-52 0 -86.5 35t-34.5 88q0 50 35 84.5t86 34.5z" />
    <glyph glyph-name="oslash" unicode="&#xf8;" horiz-adv-x="1241" 
d="M338 268l465 611q-79 51 -182 51q-162 0 -264.5 -119t-102.5 -283q0 -146 84 -260zM903 786l-465 -610q80 -47 183 -47q109 0 194 57t128.5 147t43.5 195q0 144 -84 258zM961 1085h169l-116 -153q77 -77 119.5 -181t42.5 -223q0 -155 -71 -283t-198.5 -202t-285.5 -74
q-156 0 -285 74l-55 -74h-170l118 156q-163 160 -163 403q0 239 158 398t397 159q160 0 284 -71z" />
    <glyph glyph-name="ugrave" unicode="&#xf9;" 
d="M813 1055h197v-1055h-168l-13 152q-56 -88 -148.5 -135.5t-203.5 -47.5q-180 0 -284.5 112.5t-104.5 287.5v686h197v-662q0 -121 60.5 -193.5t182.5 -72.5q89 0 155.5 52.5t98 131t31.5 168.5v576zM270 1485h193l178 -279h-162z" />
    <glyph glyph-name="uacute" unicode="&#xfa;" 
d="M813 1055h197v-1055h-168l-13 152q-56 -88 -148.5 -135.5t-203.5 -47.5q-180 0 -284.5 112.5t-104.5 287.5v686h197v-662q0 -121 60.5 -193.5t182.5 -72.5q89 0 155.5 52.5t98 131t31.5 168.5v576zM643 1485h195l-209 -279h-162z" />
    <glyph glyph-name="ucircumflex" unicode="&#xfb;" 
d="M813 1055h197v-1055h-168l-13 152q-56 -88 -148.5 -135.5t-203.5 -47.5q-180 0 -284.5 112.5t-104.5 287.5v686h197v-662q0 -121 60.5 -193.5t182.5 -72.5q89 0 155.5 52.5t98 131t31.5 168.5v576zM473 1485h172l191 -279h-154l-123 174l-123 -174h-155z" />
    <glyph glyph-name="udieresis" unicode="&#xfc;" 
d="M813 1055h197v-1055h-168l-13 152q-56 -88 -148.5 -135.5t-203.5 -47.5q-180 0 -284.5 112.5t-104.5 287.5v686h197v-662q0 -121 60.5 -193.5t182.5 -72.5q89 0 155.5 52.5t98 131t31.5 168.5v576zM633 1221v209h180v-209h-180zM303 1221v209h184v-209h-184z" />
    <glyph glyph-name="yacute" unicode="&#xfd;" horiz-adv-x="1087" 
d="M549 229l311 826h207l-471 -1207q-36 -106 -82.5 -169.5t-119.5 -97.5t-179 -34q-28 0 -80 9v157q28 -8 76 -8q71 0 119 39.5t71 99.5l62 156h-21l-419 1055h208zM649 1485h195l-209 -279h-162z" />
    <glyph glyph-name="thorn" unicode="&#xfe;" horiz-adv-x="1261" 
d="M666 125q113 0 194.5 55.5t120.5 145t39 200.5q0 109 -38 198t-120 145.5t-196 56.5q-112 0 -197 -56.5t-127.5 -146.5t-42.5 -197t42.5 -197.5t127.5 -147t197 -56.5zM688 1085q121 0 219.5 -44.5t162.5 -121t99 -177.5t35 -216q0 -156 -59.5 -281.5t-178.5 -201.5
t-278 -76q-127 0 -227.5 55.5t-161.5 149.5v-582h-190v1870h190v-575q62 92 163 146t226 54z" />
    <glyph glyph-name="ydieresis" unicode="&#xff;" horiz-adv-x="1087" 
d="M549 229l311 826h207l-471 -1207q-36 -106 -82.5 -169.5t-119.5 -97.5t-179 -34q-28 0 -80 9v157q28 -8 76 -8q71 0 119 39.5t71 99.5l62 156h-21l-419 1055h208zM616 1221v209h181v-209h-181zM287 1221v209h184v-209h-184z" />
    <glyph glyph-name="Amacron" unicode="&#x100;" horiz-adv-x="1388" 
d="M449 559h491l-246 653zM244 0h-224l553 1434h242l551 -1434h-223l-150 391h-600zM965 1638h-539v136h539v-136z" />
    <glyph glyph-name="amacron" unicode="&#x101;" horiz-adv-x="1212" 
d="M492 455q-50 -9 -86.5 -20t-71.5 -30.5t-53.5 -51t-18.5 -74.5q0 -86 55 -124t160 -38q85 0 169.5 35t143.5 102.5t60 148.5v127q-38 -19 -82 -28zM424 586q260 37 338 49q88 14 88 80q0 103 -66.5 160t-197.5 57q-120 0 -200.5 -54.5t-90.5 -158.5h-184
q28 185 153.5 275.5t319.5 90.5q450 0 450 -413v-428q0 -29 1 -46t5.5 -37.5t13.5 -31t25 -18t39 -7.5h19v-135h-82q-86 0 -131.5 53.5t-53.5 145.5q-70 -93 -183 -146t-228 -53q-173 0 -278 75t-105 222q0 74 27.5 132.5t76.5 95.5t109.5 59.5t134.5 32.5zM877 1260h-539
v135h539v-135z" />
    <glyph glyph-name="Abreve" unicode="&#x102;" horiz-adv-x="1388" 
d="M449 559h491l-246 653zM244 0h-224l553 1434h242l551 -1434h-223l-150 391h-600zM694 1694q69 0 109 40t51 111h125q-12 -131 -84 -206.5t-201 -75.5q-128 0 -200 75t-84 207h127q20 -151 157 -151z" />
    <glyph glyph-name="abreve" unicode="&#x103;" horiz-adv-x="1212" 
d="M492 455q-50 -9 -86.5 -20t-71.5 -30.5t-53.5 -51t-18.5 -74.5q0 -86 55 -124t160 -38q85 0 169.5 35t143.5 102.5t60 148.5v127q-38 -19 -82 -28zM424 586q260 37 338 49q88 14 88 80q0 103 -66.5 160t-197.5 57q-120 0 -200.5 -54.5t-90.5 -158.5h-184
q28 185 153.5 275.5t319.5 90.5q450 0 450 -413v-428q0 -29 1 -46t5.5 -37.5t13.5 -31t25 -18t39 -7.5h19v-135h-82q-86 0 -131.5 53.5t-53.5 145.5q-70 -93 -183 -146t-228 -53q-173 0 -278 75t-105 222q0 74 27.5 132.5t76.5 95.5t109.5 59.5t134.5 32.5zM606 1315
q69 0 109 40t51 111h125q-12 -131 -84 -206.5t-201 -75.5q-128 0 -200 75t-84 207h127q20 -151 157 -151z" />
    <glyph glyph-name="Aogonek" unicode="&#x104;" horiz-adv-x="1388" 
d="M449 559h491l-246 653zM1262 0h-119l-150 391h-600l-149 -391h-224l553 1434h242l551 -1434q-69 -46 -106 -95t-37 -112q0 -36 22 -58t58 -22q44 0 90 33l43 -100q-82 -56 -174 -56q-89 0 -142 44t-53 130q0 137 195 236z" />
    <glyph glyph-name="aogonek" unicode="&#x105;" horiz-adv-x="1212" 
d="M492 455q-50 -9 -86.5 -20t-71.5 -30.5t-53.5 -51t-18.5 -74.5q0 -86 55 -124t160 -38q85 0 169.5 35t143.5 102.5t60 148.5v127q-38 -19 -82 -28zM954 -4q-74 48 -84 172q-70 -93 -183 -146t-228 -53q-173 0 -278 75t-105 222q0 74 27.5 132.5t76.5 95.5t109.5 59.5
t134.5 32.5q260 37 338 49q88 14 88 80q0 103 -66.5 160t-197.5 57q-120 0 -200.5 -54.5t-90.5 -158.5h-184q28 185 153.5 275.5t319.5 90.5q450 0 450 -413v-428q0 -29 1 -46t5.5 -37.5t13.5 -31t25 -18t39 -7.5h19v-135h-82q-19 0 -29 2q-102 -85 -102 -178q0 -36 22 -58
t58 -22q44 0 90 33l43 -100q-82 -56 -174 -56q-89 0 -142 44t-53 130q0 133 186 232z" />
    <glyph glyph-name="Cacute" unicode="&#x106;" horiz-adv-x="1540" 
d="M782 1464q270 0 451.5 -148.5t216.5 -400.5h-209q-30 169 -153.5 272t-307.5 103q-114 0 -208 -48.5t-153.5 -129.5t-91.5 -182.5t-32 -212.5q0 -110 32 -212t91.5 -183t153.5 -130t208 -49q184 0 307.5 103t153.5 272h209q-35 -251 -216.5 -400t-451.5 -149
q-129 0 -240 38.5t-193.5 107t-142 162t-89 205.5t-29.5 235q0 155 47.5 290.5t134.5 237.5t219.5 160.5t292.5 58.5zM877 1864h194l-209 -279h-162z" />
    <glyph glyph-name="cacute" unicode="&#x107;" horiz-adv-x="1177" 
d="M600 1085q192 0 329.5 -104.5t182.5 -294.5h-190q-31 111 -116.5 176.5t-203.5 65.5q-111 0 -192.5 -56t-121.5 -146t-40 -200q0 -169 95 -284t259 -115q119 0 204 64.5t116 175.5h190q-45 -189 -182.5 -293.5t-329.5 -104.5q-150 0 -273.5 73t-193.5 201t-70 283
q0 237 154 398t383 161zM705 1485h194l-209 -279h-162z" />
    <glyph glyph-name="Ccircumflex" unicode="&#x108;" horiz-adv-x="1540" 
d="M782 1464q270 0 451.5 -148.5t216.5 -400.5h-209q-30 169 -153.5 272t-307.5 103q-114 0 -208 -48.5t-153.5 -129.5t-91.5 -182.5t-32 -212.5q0 -110 32 -212t91.5 -183t153.5 -130t208 -49q184 0 307.5 103t153.5 272h209q-35 -251 -216.5 -400t-451.5 -149
q-129 0 -240 38.5t-193.5 107t-142 162t-89 205.5t-29.5 235q0 155 47.5 290.5t134.5 237.5t219.5 160.5t292.5 58.5zM684 1864h172l191 -279h-154l-123 174l-123 -174h-155z" />
    <glyph glyph-name="ccircumflex" unicode="&#x109;" horiz-adv-x="1177" 
d="M600 1085q192 0 329.5 -104.5t182.5 -294.5h-190q-31 111 -116.5 176.5t-203.5 65.5q-111 0 -192.5 -56t-121.5 -146t-40 -200q0 -169 95 -284t259 -115q119 0 204 64.5t116 175.5h190q-45 -189 -182.5 -293.5t-329.5 -104.5q-150 0 -273.5 73t-193.5 201t-70 283
q0 237 154 398t383 161zM504 1485h172l190 -279h-153l-123 174l-123 -174h-156z" />
    <glyph glyph-name="Cdotaccent" unicode="&#x10a;" horiz-adv-x="1540" 
d="M782 1464q270 0 451.5 -148.5t216.5 -400.5h-209q-30 169 -153.5 272t-307.5 103q-114 0 -208 -48.5t-153.5 -129.5t-91.5 -182.5t-32 -212.5q0 -110 32 -212t91.5 -183t153.5 -130t208 -49q184 0 307.5 103t153.5 272h209q-35 -251 -216.5 -400t-451.5 -149
q-129 0 -240 38.5t-193.5 107t-142 162t-89 205.5t-29.5 235q0 155 47.5 290.5t134.5 237.5t219.5 160.5t292.5 58.5zM678 1597v209h184v-209h-184z" />
    <glyph glyph-name="cdotaccent" unicode="&#x10b;" horiz-adv-x="1177" 
d="M600 1085q192 0 329.5 -104.5t182.5 -294.5h-190q-31 111 -116.5 176.5t-203.5 65.5q-111 0 -192.5 -56t-121.5 -146t-40 -200q0 -169 95 -284t259 -115q119 0 204 64.5t116 175.5h190q-45 -189 -182.5 -293.5t-329.5 -104.5q-150 0 -273.5 73t-193.5 201t-70 283
q0 237 154 398t383 161zM498 1219v208h184v-208h-184z" />
    <glyph glyph-name="Ccaron" unicode="&#x10c;" horiz-adv-x="1540" 
d="M782 1464q270 0 451.5 -148.5t216.5 -400.5h-209q-30 169 -153.5 272t-307.5 103q-114 0 -208 -48.5t-153.5 -129.5t-91.5 -182.5t-32 -212.5q0 -110 32 -212t91.5 -183t153.5 -130t208 -49q184 0 307.5 103t153.5 272h209q-35 -251 -216.5 -400t-451.5 -149
q-129 0 -240 38.5t-193.5 107t-142 162t-89 205.5t-29.5 235q0 155 47.5 290.5t134.5 237.5t219.5 160.5t292.5 58.5zM893 1864h156l-193 -279h-172l-192 279h155l123 -174z" />
    <glyph glyph-name="ccaron" unicode="&#x10d;" horiz-adv-x="1177" 
d="M600 1085q192 0 329.5 -104.5t182.5 -294.5h-190q-31 111 -116.5 176.5t-203.5 65.5q-111 0 -192.5 -56t-121.5 -146t-40 -200q0 -169 95 -284t259 -115q119 0 204 64.5t116 175.5h190q-45 -189 -182.5 -293.5t-329.5 -104.5q-150 0 -273.5 73t-193.5 201t-70 283
q0 237 154 398t383 161zM713 1485h155l-192 -279h-172l-193 279h156l123 -174z" />
    <glyph glyph-name="Dcaron" unicode="&#x10e;" horiz-adv-x="1433" 
d="M610 1264h-256v-1094h256q246 0 392.5 151.5t146.5 395.5t-146.5 395.5t-392.5 151.5zM150 1434h466q211 0 376.5 -86.5t259.5 -250.5t94 -380t-94 -380t-259.5 -250.5t-376.5 -86.5h-466v1434zM717 1690l123 174h155l-192 -279h-172l-193 279h156z" />
    <glyph glyph-name="dcaron" unicode="&#x10f;" horiz-adv-x="1521" 
d="M602 930q-167 0 -260.5 -116t-93.5 -286q0 -81 22.5 -152.5t65.5 -127t111.5 -87.5t154.5 -32q111 0 196 56t128 146t43 197t-42.5 197.5t-128 147.5t-196.5 57zM580 1085q127 0 228 -54t161 -148v551h190v-1434h-168l-12 172q-61 -95 -165 -149t-234 -54
q-160 0 -279 76.5t-178.5 202t-59.5 280.5q0 115 35 216.5t100 177t163.5 119.5t218.5 44zM1274 1110l51 324h195l-86 -324h-160z" />
    <glyph glyph-name="Dcroat" unicode="&#x110;" horiz-adv-x="1433" 
d="M610 1264h-256v-480h244v-135h-244v-479h256q245 0 392 151.5t147 395.5t-147 395.5t-392 151.5zM150 784v650h466q211 0 376.5 -86.5t259.5 -250.5t94 -380t-94 -380t-259.5 -250.5t-376.5 -86.5h-466v649h-91v135h91z" />
    <glyph glyph-name="dcroat" unicode="&#x111;" horiz-adv-x="1267" 
d="M602 930q-167 0 -260.5 -116t-93.5 -286q0 -81 22.5 -152.5t65.5 -127t111.5 -87.5t154.5 -32q111 0 196 56t128 146t43 197t-42.5 197.5t-128 147.5t-196.5 57zM580 1085q127 0 228 -54t161 -148v286h-258v136h258v129h190v-129h90v-136h-90v-1169h-168l-12 172
q-61 -95 -165 -149t-234 -54q-160 0 -279 76.5t-178.5 202t-59.5 280.5q0 115 35 216.5t100 177t163.5 119.5t218.5 44z" />
    <glyph glyph-name="Emacron" unicode="&#x112;" horiz-adv-x="1200" 
d="M150 1434h942v-170h-738v-457h678v-170h-678v-467h738v-170h-942v1434zM352 1638v136h539v-136h-539z" />
    <glyph glyph-name="emacron" unicode="&#x113;" horiz-adv-x="1187" 
d="M600 934q-142 0 -231 -87.5t-109 -213.5h676q-23 133 -111 217t-225 84zM600 1085q159 0 280.5 -77t182.5 -209q72 -144 57 -322h-868q9 -152 107 -256t253 -104q109 0 193 50t125 142h184q-52 -158 -187 -249t-306 -91q-240 0 -397.5 155.5t-157.5 403.5q0 152 68 279
t191 202.5t275 75.5zM864 1260h-538v135h538v-135z" />
    <glyph glyph-name="Ebreve" unicode="&#x114;" horiz-adv-x="1200" 
d="M150 1434h942v-170h-738v-457h678v-170h-678v-467h738v-170h-942v1434zM621 1694q69 0 108.5 40t50.5 111h125q-12 -131 -83.5 -206.5t-200.5 -75.5q-128 0 -200.5 75t-84.5 207h127q20 -151 158 -151z" />
    <glyph glyph-name="ebreve" unicode="&#x115;" horiz-adv-x="1187" 
d="M600 934q-142 0 -231 -87.5t-109 -213.5h676q-23 133 -111 217t-225 84zM600 1085q159 0 280.5 -77t182.5 -209q72 -144 57 -322h-868q9 -152 107 -256t253 -104q109 0 193 50t125 142h184q-52 -158 -187 -249t-306 -91q-240 0 -397.5 155.5t-157.5 403.5q0 152 68 279
t191 202.5t275 75.5zM594 1315q69 0 109 40t51 111h125q-12 -131 -84 -206.5t-201 -75.5q-128 0 -200.5 75t-84.5 207h127q20 -151 158 -151z" />
    <glyph glyph-name="Edotaccent" unicode="&#x116;" horiz-adv-x="1200" 
d="M150 1434h942v-170h-738v-457h678v-170h-678v-467h738v-170h-942v1434zM528 1597v209h185v-209h-185z" />
    <glyph glyph-name="edotaccent" unicode="&#x117;" horiz-adv-x="1187" 
d="M600 934q-142 0 -231 -87.5t-109 -213.5h676q-23 133 -111 217t-225 84zM600 1085q159 0 280.5 -77t182.5 -209q72 -144 57 -322h-868q9 -152 107 -256t253 -104q109 0 193 50t125 142h184q-52 -158 -187 -249t-306 -91q-240 0 -397.5 155.5t-157.5 403.5q0 152 68 279
t191 202.5t275 75.5zM686 1219h-184v208h184v-208z" />
    <glyph glyph-name="Eogonek" unicode="&#x118;" horiz-adv-x="1200" 
d="M1118 -254l43 -100q-82 -56 -174 -56q-88 0 -141 44t-53 130q0 76 53 132.5t141 103.5h-837v1434h942v-170h-738v-457h678v-170h-678v-467h738v-170q-70 -47 -108 -95.5t-38 -111.5q0 -35 22.5 -57.5t59.5 -22.5q44 0 90 33z" />
    <glyph glyph-name="eogonek" unicode="&#x119;" horiz-adv-x="1187" 
d="M600 934q-142 0 -231 -87.5t-109 -213.5h676q-23 133 -111 217t-225 84zM641 -31q-255 0 -415 152t-160 407q0 152 68 279t191 202.5t275 75.5q159 0 280.5 -77t182.5 -209q72 -144 57 -322h-868q9 -152 107 -256t253 -104q109 0 193 50t125 142h184
q-38 -116 -123 -197.5t-200 -115.5q-66 -46 -101 -94t-35 -109q0 -36 22 -58t58 -22q44 0 90 33l43 -100q-82 -56 -174 -56q-88 0 -141 44t-53 130q0 116 141 205z" />
    <glyph glyph-name="Ecaron" unicode="&#x11a;" horiz-adv-x="1200" 
d="M150 1434h942v-170h-738v-457h678v-170h-678v-467h738v-170h-942v1434zM743 1864h156l-192 -279h-172l-193 279h156l123 -174z" />
    <glyph glyph-name="ecaron" unicode="&#x11b;" horiz-adv-x="1187" 
d="M600 934q-142 0 -231 -87.5t-109 -213.5h676q-23 133 -111 217t-225 84zM600 1085q159 0 280.5 -77t182.5 -209q72 -144 57 -322h-868q9 -152 107 -256t253 -104q109 0 193 50t125 142h184q-52 -158 -187 -249t-306 -91q-240 0 -397.5 155.5t-157.5 403.5q0 152 68 279
t191 202.5t275 75.5zM594 1311l123 174h155l-192 -279h-172l-193 279h156z" />
    <glyph glyph-name="Gcircumflex" unicode="&#x11c;" horiz-adv-x="1554" 
d="M774 559v170h692v-729h-159l-23 262q-73 -138 -200 -215.5t-302 -77.5q-129 0 -240 38.5t-193.5 107t-142 162t-89 205.5t-29.5 235q0 154 47.5 289.5t134.5 237.5t219.5 161t292.5 59q262 0 442.5 -140.5t221.5 -377.5h-211q-34 159 -156 251.5t-299 92.5
q-114 0 -208 -48.5t-153.5 -129.5t-91.5 -182.5t-32 -212.5q0 -88 20 -171t61 -156t99 -128t139.5 -87t176.5 -32q188 0 303 113t149 303h-469zM690 1864h172l191 -279h-154l-123 174l-123 -174h-155z" />
    <glyph glyph-name="gcircumflex" unicode="&#x11d;" horiz-adv-x="1216" 
d="M590 928q-157 0 -250.5 -108.5t-93.5 -264.5t94 -259t248 -103q156 0 246 105t90 259q0 156 -90.5 263.5t-243.5 107.5zM557 1087q252 0 379 -192l12 160h160v-977q0 -254 -138 -392.5t-374 -138.5q-196 0 -334 96.5t-172 278.5h182q49 -215 310 -215q164 0 253 90
t89 262v152q-59 -90 -153.5 -135t-211.5 -45q-145 0 -258.5 70.5t-174 190t-60.5 265.5q0 142 58.5 261.5t172 194t260.5 74.5zM330 1206l192 279h172l191 -279h-154l-123 174l-123 -174h-155z" />
    <glyph glyph-name="Gbreve" unicode="&#x11e;" horiz-adv-x="1554" 
d="M774 559v170h692v-729h-159l-23 262q-73 -138 -200 -215.5t-302 -77.5q-129 0 -240 38.5t-193.5 107t-142 162t-89 205.5t-29.5 235q0 154 47.5 289.5t134.5 237.5t219.5 161t292.5 59q262 0 442.5 -140.5t221.5 -377.5h-211q-34 159 -156 251.5t-299 92.5
q-114 0 -208 -48.5t-153.5 -129.5t-91.5 -182.5t-32 -212.5q0 -88 20 -171t61 -156t99 -128t139.5 -87t176.5 -32q188 0 303 113t149 303h-469zM778 1694q69 0 109 40t51 111h125q-12 -131 -84 -206.5t-201 -75.5q-128 0 -200 75t-84 207h127q20 -151 157 -151z" />
    <glyph glyph-name="gbreve" unicode="&#x11f;" horiz-adv-x="1216" 
d="M590 928q-157 0 -250.5 -108.5t-93.5 -264.5t94 -259t248 -103q156 0 246 105t90 259q0 156 -90.5 263.5t-243.5 107.5zM557 1087q252 0 379 -192l12 160h160v-977q0 -254 -138 -392.5t-374 -138.5q-196 0 -334 96.5t-172 278.5h182q49 -215 310 -215q164 0 253 90
t89 262v152q-59 -90 -153.5 -135t-211.5 -45q-145 0 -258.5 70.5t-174 190t-60.5 265.5q0 142 58.5 261.5t172 194t260.5 74.5zM608 1315q69 0 109 40t51 111h125q-12 -131 -84 -206.5t-201 -75.5q-128 0 -200 75t-84 207h127q20 -151 157 -151z" />
    <glyph glyph-name="Gdotaccent" unicode="&#x120;" horiz-adv-x="1554" 
d="M774 559v170h692v-729h-159l-23 262q-73 -138 -200 -215.5t-302 -77.5q-129 0 -240 38.5t-193.5 107t-142 162t-89 205.5t-29.5 235q0 154 47.5 289.5t134.5 237.5t219.5 161t292.5 59q262 0 442.5 -140.5t221.5 -377.5h-211q-34 159 -156 251.5t-299 92.5
q-114 0 -208 -48.5t-153.5 -129.5t-91.5 -182.5t-32 -212.5q0 -88 20 -171t61 -156t99 -128t139.5 -87t176.5 -32q188 0 303 113t149 303h-469zM686 1597v209h184v-209h-184z" />
    <glyph glyph-name="gdotaccent" unicode="&#x121;" horiz-adv-x="1216" 
d="M590 928q-157 0 -250.5 -108.5t-93.5 -264.5t94 -259t248 -103q156 0 246 105t90 259q0 156 -90.5 263.5t-243.5 107.5zM557 1087q252 0 379 -192l12 160h160v-977q0 -254 -138 -392.5t-374 -138.5q-196 0 -334 96.5t-172 278.5h182q49 -215 310 -215q164 0 253 90
t89 262v152q-59 -90 -153.5 -135t-211.5 -45q-145 0 -258.5 70.5t-174 190t-60.5 265.5q0 142 58.5 261.5t172 194t260.5 74.5zM700 1219h-184v208h184v-208z" />
    <glyph glyph-name="uni0122" unicode="&#x122;" horiz-adv-x="1554" 
d="M774 559v170h692v-729h-159l-23 262q-73 -138 -200 -215.5t-302 -77.5q-129 0 -240 38.5t-193.5 107t-142 162t-89 205.5t-29.5 235q0 154 47.5 289.5t134.5 237.5t219.5 161t292.5 59q262 0 442.5 -140.5t221.5 -377.5h-211q-34 159 -156 251.5t-299 92.5
q-114 0 -208 -48.5t-153.5 -129.5t-91.5 -182.5t-32 -212.5q0 -88 20 -171t61 -156t99 -128t139.5 -87t176.5 -32q188 0 303 113t149 303h-469zM668 -623l-25 54q72 26 114.5 70t43.5 102h-115v211h209v-154q0 -97 -62.5 -171.5t-164.5 -111.5z" />
    <glyph glyph-name="uni0123" unicode="&#x123;" horiz-adv-x="1216" 
d="M590 928q-157 0 -250.5 -108.5t-93.5 -264.5t94 -259t248 -103q156 0 246 105t90 259q0 156 -90.5 263.5t-243.5 107.5zM557 1087q252 0 379 -192l12 160h160v-977q0 -254 -138 -392.5t-374 -138.5q-196 0 -334 96.5t-172 278.5h182q49 -215 310 -215q164 0 253 90
t89 262v152q-59 -90 -153.5 -135t-211.5 -45q-145 0 -258.5 70.5t-174 190t-60.5 265.5q0 142 58.5 261.5t172 194t260.5 74.5zM690 1645l27 -54q-155 -59 -158 -174h113v-211h-207v154q0 98 61.5 173.5t163.5 111.5z" />
    <glyph glyph-name="Hcircumflex" unicode="&#x124;" horiz-adv-x="1400" 
d="M1047 1434h204v-1434h-204v635h-693v-635h-204v1434h204v-629h693v629zM614 1864h172l191 -279h-154l-123 174l-122 -174h-156z" />
    <glyph glyph-name="hcircumflex" unicode="&#x125;" 
d="M641 1085q180 0 284.5 -112t104.5 -287v-686h-196v662q0 120 -61.5 194t-182.5 74q-89 0 -155.5 -52.5t-98 -131t-31.5 -168.5v-578h-196v1434h196v-512q57 79 144 121t192 42zM115 1864h172l190 -279h-153l-123 174l-123 -174h-156z" />
    <glyph glyph-name="Hbar" unicode="&#x126;" horiz-adv-x="1400" 
d="M1044 805v285h-690v-285h690zM1044 1225v209h207v-209h92v-135h-92v-1090h-207v635h-690v-635h-204v1090h-95v135h95v209h204v-209h690z" />
    <glyph glyph-name="hbar" unicode="&#x127;" 
d="M641 1085q180 0 284.5 -112t104.5 -287v-686h-196v662q0 120 -61.5 194t-182.5 74q-89 0 -155.5 -52.5t-98 -131t-31.5 -168.5v-578h-196v1169h-84v136h84v129h196v-129h258v-136h-258v-247q57 79 144 121t192 42z" />
    <glyph glyph-name="Itilde" unicode="&#x128;" horiz-adv-x="503" 
d="M150 0v1434h204v-1434h-204zM106 1804q49 0 102 -28t101 -56t86 -28q40 0 59.5 29.5t16.5 70.5h123q5 -93 -46 -163t-142 -70q-39 0 -82 17.5t-74 38.5t-67 38.5t-64 17.5q-43 0 -62.5 -29t-19.5 -75h-125q3 102 51 169.5t143 67.5z" />
    <glyph glyph-name="itilde" unicode="&#x129;" horiz-adv-x="415" 
d="M111 0v1055h194v-1055h-194zM61 1425q49 0 102 -28t101 -56t86 -28q40 0 59.5 29.5t16.5 70.5h123q5 -93 -46.5 -163t-142.5 -70q-50 0 -103.5 28t-101 56t-81.5 28q-43 0 -62.5 -29t-19.5 -75h-125q3 102 51 169.5t143 67.5z" />
    <glyph glyph-name="Imacron" unicode="&#x12a;" horiz-adv-x="503" 
d="M150 0v1434h204v-1434h-204zM-16 1638v136h538v-136h-538z" />
    <glyph glyph-name="imacron" unicode="&#x12b;" horiz-adv-x="415" 
d="M111 0v1055h194v-1055h-194zM-61 1260v135h538v-135h-538z" />
    <glyph glyph-name="Ibreve" unicode="&#x12c;" horiz-adv-x="503" 
d="M150 0v1434h204v-1434h-204zM252 1694q69 0 109 40t51 111h125q-12 -131 -84 -206.5t-201 -75.5q-128 0 -200.5 75t-84.5 207h127q20 -151 158 -151z" />
    <glyph glyph-name="ibreve" unicode="&#x12d;" horiz-adv-x="415" 
d="M111 0v1055h194v-1055h-194zM209 1315q69 0 109 40t51 111h125q-12 -131 -84 -206.5t-201 -75.5q-128 0 -200.5 75t-84.5 207h127q20 -151 158 -151z" />
    <glyph glyph-name="Iogonek" unicode="&#x12e;" horiz-adv-x="503" 
d="M248 0h-98v1434h204v-1434h-2q-69 -46 -106 -95t-37 -112q0 -36 22 -58t58 -22q44 0 90 33l43 -100q-82 -56 -174 -56q-89 0 -142 44t-53 130q0 137 195 236z" />
    <glyph glyph-name="iogonek" unicode="&#x12f;" horiz-adv-x="415" 
d="M199 0h-88v1055h194v-1055h-2q-69 -46 -106 -95t-37 -112q0 -36 22 -58t58 -22q44 0 90 33l43 -100q-82 -56 -174 -56q-89 0 -142 44t-53 130q0 137 195 236zM307 1223h-198v211h198v-211z" />
    <glyph glyph-name="Idotaccent" unicode="&#x130;" horiz-adv-x="503" 
d="M150 0v1434h204v-1434h-204zM160 1597v209h184v-209h-184z" />
    <glyph glyph-name="dotlessi" unicode="&#x131;" horiz-adv-x="415" 
d="M111 0v1055h194v-1055h-194z" />
    <glyph glyph-name="IJ" unicode="&#x132;" horiz-adv-x="1671" 
d="M150 0v1434h204v-1434h-204zM1335 1434h205v-942q0 -245 -121.5 -384t-359.5 -139q-115 0 -204.5 38.5t-146 107t-86 159.5t-30.5 199h192q2 -70 18 -127t47 -103.5t84.5 -72t125.5 -25.5q76 0 131.5 26.5t86 75t44.5 107t14 131.5v949z" />
    <glyph glyph-name="ij" unicode="&#x133;" horiz-adv-x="827" 
d="M109 1223v211h198v-211h-198zM111 0v1055h194v-1055h-194zM520 1434h199v-211h-199v211zM522 1055h193v-1198q0 -310 -307 -310q-23 0 -44.5 3t-39 7.5t-21.5 4.5v162q60 -15 86 -15q63 0 98 39t35 96v1211z" />
    <glyph glyph-name="Jcircumflex" unicode="&#x134;" horiz-adv-x="1165" 
d="M831 1434h205v-942q0 -245 -121.5 -384t-359.5 -139q-115 0 -204.5 38.5t-146 107t-86 159.5t-30.5 199h193q2 -70 17.5 -127t46.5 -103.5t84.5 -72t125.5 -25.5q76 0 131.5 26.5t86 75t44.5 107t14 131.5v949zM850 1864h172l190 -279h-153l-123 174l-123 -174h-156z" />
    <glyph glyph-name="jcircumflex" unicode="&#x135;" horiz-adv-x="423" 
d="M119 -156v1211h192v-1198q0 -310 -307 -310q-23 0 -44.5 3t-38.5 7.5t-21 4.5v162q60 -15 86 -15q63 0 98 39t35 96zM133 1485h172l191 -279h-154l-123 174l-123 -174h-155z" />
    <glyph glyph-name="uni0136" unicode="&#x136;" horiz-adv-x="1370" 
d="M1038 0l-465 657l-219 -241v-416h-204v1434h204v-738l656 738h256l-553 -627l569 -807h-244zM573 -623l-24 54q72 26 114.5 70t43.5 102h-115v211h209v-154q0 -97 -63 -171.5t-165 -111.5z" />
    <glyph glyph-name="uni0137" unicode="&#x137;" horiz-adv-x="1122" 
d="M109 1434h196v-816l459 437h246l-432 -408l477 -647h-230l-387 526l-133 -125v-401h-196v1434zM430 -623l-24 54q72 26 114 70t43 102h-114v211h208v-154q0 -97 -62.5 -171.5t-164.5 -111.5z" />
    <glyph glyph-name="kgreenlandic" unicode="&#x138;" horiz-adv-x="1122" 
d="M109 1055h196v-437l459 437h246l-432 -408l477 -647h-230l-387 526l-133 -125v-401h-196v1055z" />
    <glyph glyph-name="Lacute" unicode="&#x139;" horiz-adv-x="1179" 
d="M150 1434h204v-1264h738v-170h-942v1434zM346 1864h195l-209 -279h-162z" />
    <glyph glyph-name="lacute" unicode="&#x13a;" horiz-adv-x="413" 
d="M109 0v1434h196v-1434h-196zM303 1864h195l-209 -279h-162z" />
    <glyph glyph-name="uni013B" unicode="&#x13b;" horiz-adv-x="1179" 
d="M150 1434h204v-1264h738v-170h-942v1434zM508 -623l-25 54q72 26 114.5 70t43.5 102h-115v211h209v-154q0 -97 -62.5 -171.5t-164.5 -111.5z" />
    <glyph glyph-name="uni013C" unicode="&#x13c;" horiz-adv-x="413" 
d="M109 0v1434h196v-1434h-196zM86 -623l-25 54q72 26 114.5 70t43.5 102h-115v211h209v-154q0 -97 -62.5 -171.5t-164.5 -111.5z" />
    <glyph glyph-name="Lcaron" unicode="&#x13d;" horiz-adv-x="1179" 
d="M698 1434h195l-86 -324h-160zM150 1434h204v-1264h738v-170h-942v1434z" />
    <glyph glyph-name="lcaron" unicode="&#x13e;" horiz-adv-x="665" 
d="M471 1434h195l-86 -324h-160zM109 0v1434h196v-1434h-196z" />
    <glyph glyph-name="Ldot" unicode="&#x13f;" horiz-adv-x="1179" 
d="M612 612v209h183v-209h-183zM150 1434h204v-1264h738v-170h-942v1434z" />
    <glyph glyph-name="ldot" unicode="&#x140;" horiz-adv-x="749" 
d="M459 612v209h182v-209h-182zM109 0v1434h196v-1434h-196z" />
    <glyph glyph-name="Lslash" unicode="&#x141;" horiz-adv-x="1179" 
d="M147 698v736h207v-623l125 70l66 -119l-191 -105v-487h736v-170h-943v545l-73 -41l-66 119z" />
    <glyph glyph-name="lslash" unicode="&#x142;" horiz-adv-x="413" 
d="M305 0h-196v561l-105 -57l-65 119l170 92v719h196v-611l105 58l65 -119l-170 -94v-668z" />
    <glyph glyph-name="Nacute" unicode="&#x143;" horiz-adv-x="1411" 
d="M1057 1434h205v-1434h-224l-684 1094v-1094h-204v1434h223l684 -1110v1110zM856 1864h195l-209 -279h-162z" />
    <glyph glyph-name="nacute" unicode="&#x144;" 
d="M641 1085q180 0 284.5 -112t104.5 -287v-686h-196v662q0 120 -61.5 194t-182.5 74q-89 0 -155.5 -52.5t-98 -131t-31.5 -168.5v-578h-196v1055h167l13 -152q56 88 148 135t204 47zM737 1485h195l-209 -279h-162z" />
    <glyph glyph-name="uni0145" unicode="&#x145;" horiz-adv-x="1411" 
d="M1057 1434h205v-1434h-224l-684 1094v-1094h-204v1434h223l684 -1110v1110zM592 -623l-25 54q72 26 114.5 70t43.5 102h-115v211h209v-154q0 -97 -62.5 -171.5t-164.5 -111.5z" />
    <glyph glyph-name="uni0146" unicode="&#x146;" 
d="M641 1085q180 0 284.5 -112t104.5 -287v-686h-196v662q0 120 -61.5 194t-182.5 74q-89 0 -155.5 -52.5t-98 -131t-31.5 -168.5v-578h-196v1055h167l13 -152q56 88 148 135t204 47zM457 -623l-25 54q72 26 114.5 70t43.5 102h-115v211h209v-154q0 -97 -62.5 -171.5
t-164.5 -111.5z" />
    <glyph glyph-name="Ncaron" unicode="&#x147;" horiz-adv-x="1411" 
d="M1057 1434h205v-1434h-224l-684 1094v-1094h-204v1434h223l684 -1110v1110zM829 1864h156l-192 -279h-172l-193 279h156l123 -174z" />
    <glyph glyph-name="ncaron" unicode="&#x148;" 
d="M641 1085q180 0 284.5 -112t104.5 -287v-686h-196v662q0 120 -61.5 194t-182.5 74q-89 0 -155.5 -52.5t-98 -131t-31.5 -168.5v-578h-196v1055h167l13 -152q56 88 148 135t204 47zM682 1485h156l-193 -279h-172l-192 279h155l123 -174z" />
    <glyph glyph-name="napostrophe" unicode="&#x149;" horiz-adv-x="1392" 
d="M915 1085q180 0 285 -112t105 -287v-686h-197v662q0 120 -61.5 194t-182.5 74q-90 0 -156.5 -52.5t-98 -131t-31.5 -168.5v-578h-195v1055h168l10 -152q58 88 150.5 135t203.5 47zM127 1202v232h225v-160q0 -268 -258 -334l-31 74q159 56 170 188h-106z" />
    <glyph glyph-name="Eng" unicode="&#x14a;" horiz-adv-x="1411" 
d="M1057 -45v16l-703 1123v-1094h-204v1434h223l684 -1108v1108h205v-1436q0 -247 -116.5 -383.5t-365.5 -136.5l-2 176q78 0 133 22t86.5 63.5t45.5 94.5t14 121z" />
    <glyph glyph-name="eng" unicode="&#x14b;" 
d="M641 1087q180 0 284.5 -112t104.5 -287v-831q0 -310 -309 -310q-22 0 -43.5 3t-39 7.5t-20.5 4.5v162q45 -15 87 -15q62 0 95.5 39t33.5 96v820q0 119 -61.5 192.5t-182.5 73.5q-89 0 -155.5 -52.5t-98 -131t-31.5 -168.5v-578h-196v1055h167l13 -152q56 90 148 137
t204 47z" />
    <glyph glyph-name="Omacron" unicode="&#x14c;" horiz-adv-x="1576" 
d="M788 1290q-118 0 -213 -47.5t-154.5 -128t-91.5 -182.5t-32 -215t32 -215t91.5 -182t154.5 -127.5t213 -47.5t213 47.5t155 127.5t92 182t32 215t-32 215t-92 182.5t-155 128t-213 47.5zM788 1464q132 0 245 -38.5t196 -107.5t142 -162.5t88.5 -205t29.5 -233.5
q0 -151 -47 -286t-134 -238t-221.5 -163.5t-298.5 -60.5t-298 60.5t-221 163.5t-134 238t-47 286q0 153 47 288t134 237.5t221 162t298 59.5zM520 1638v136h539v-136h-539z" />
    <glyph glyph-name="omacron" unicode="&#x14d;" horiz-adv-x="1241" 
d="M621 930q-162 0 -264.5 -119t-102.5 -283t102.5 -281.5t264.5 -117.5q109 0 194 57t128.5 147t43.5 195t-44.5 196.5t-129.5 148.5t-192 57zM621 1085q118 0 221 -42.5t176.5 -116.5t115.5 -177.5t42 -220.5q0 -155 -71 -283t-198.5 -202t-285.5 -74q-118 0 -221 43
t-176.5 117.5t-115.5 178t-42 220.5q0 239 158 398t397 159zM352 1260v135h539v-135h-539z" />
    <glyph glyph-name="Obreve" unicode="&#x14e;" horiz-adv-x="1576" 
d="M788 1290q-118 0 -213 -47.5t-154.5 -128t-91.5 -182.5t-32 -215t32 -215t91.5 -182t154.5 -127.5t213 -47.5t213 47.5t155 127.5t92 182t32 215t-32 215t-92 182.5t-155 128t-213 47.5zM788 1464q132 0 245 -38.5t196 -107.5t142 -162.5t88.5 -205t29.5 -233.5
q0 -151 -47 -286t-134 -238t-221.5 -163.5t-298.5 -60.5t-298 60.5t-221 163.5t-134 238t-47 286q0 153 47 288t134 237.5t221 162t298 59.5zM788 1694q69 0 109 40t51 111h125q-12 -131 -84 -206.5t-201 -75.5q-128 0 -200 75t-84 207h127q20 -151 157 -151z" />
    <glyph glyph-name="obreve" unicode="&#x14f;" horiz-adv-x="1241" 
d="M621 930q-162 0 -264.5 -119t-102.5 -283t102.5 -281.5t264.5 -117.5q109 0 194 57t128.5 147t43.5 195t-44.5 196.5t-129.5 148.5t-192 57zM621 1085q118 0 221 -42.5t176.5 -116.5t115.5 -177.5t42 -220.5q0 -155 -71 -283t-198.5 -202t-285.5 -74q-118 0 -221 43
t-176.5 117.5t-115.5 178t-42 220.5q0 239 158 398t397 159zM621 1315q69 0 108.5 40t50.5 111h125q-12 -131 -83.5 -206.5t-200.5 -75.5q-128 0 -200.5 75t-84.5 207h127q20 -151 158 -151z" />
    <glyph glyph-name="Ohungarumlaut" unicode="&#x150;" horiz-adv-x="1576" 
d="M788 1290q-118 0 -213 -47.5t-154.5 -128t-91.5 -182.5t-32 -215t32 -215t91.5 -182t154.5 -127.5t213 -47.5t213 47.5t155 127.5t92 182t32 215t-32 215t-92 182.5t-155 128t-213 47.5zM788 1464q132 0 245 -38.5t196 -107.5t142 -162.5t88.5 -205t29.5 -233.5
q0 -151 -47 -286t-134 -238t-221.5 -163.5t-298.5 -60.5t-298 60.5t-221 163.5t-134 238t-47 286q0 153 47 288t134 237.5t221 162t298 59.5zM903 1864h182l-178 -279h-155zM627 1864h182l-160 -279h-155z" />
    <glyph glyph-name="ohungarumlaut" unicode="&#x151;" horiz-adv-x="1241" 
d="M621 930q-162 0 -264.5 -119t-102.5 -283t102.5 -281.5t264.5 -117.5q109 0 194 57t128.5 147t43.5 195t-44.5 196.5t-129.5 148.5t-192 57zM621 1085q118 0 221 -42.5t176.5 -116.5t115.5 -177.5t42 -220.5q0 -155 -71 -283t-198.5 -202t-285.5 -74q-118 0 -221 43
t-176.5 117.5t-115.5 178t-42 220.5q0 239 158 398t397 159zM735 1485h183l-179 -279h-155zM459 1485h182l-160 -279h-155z" />
    <glyph glyph-name="OE" unicode="&#x152;" horiz-adv-x="2037" 
d="M788 145q109 0 197 43v1057q-85 45 -197 45q-118 0 -213 -47.5t-154.5 -128t-91.5 -182.5t-32 -215t32 -215t91.5 -182t154.5 -127.5t213 -47.5zM1008 1434h919v-170h-735v-457h678v-168h-678v-469h735v-170h-919q-102 -31 -220 -31q-164 0 -298 60.5t-221 163.5
t-134 238t-47 286q0 153 47 288t134 237.5t221 162t298 59.5q121 0 220 -30z" />
    <glyph glyph-name="oe" unicode="&#x153;" horiz-adv-x="2109" 
d="M621 930q-162 0 -264.5 -119t-102.5 -283t102.5 -281.5t264.5 -117.5q109 0 194 57t128.5 147t43.5 195t-44.5 196.5t-129.5 148.5t-192 57zM1522 936q-73 0 -134 -25t-102 -68t-67.5 -96.5t-36.5 -113.5h678q-23 134 -111.5 218.5t-226.5 84.5zM1522 1087
q160 0 281.5 -78t183.5 -210q70 -146 55 -322h-866q8 -152 106.5 -256t253.5 -104q107 0 190.5 50t124.5 142h187q-53 -159 -188.5 -249.5t-307.5 -90.5q-148 0 -268.5 62.5t-194.5 173.5q-74 -110 -193.5 -173t-264.5 -63q-118 0 -221 43t-176.5 117.5t-115.5 178
t-42 220.5q0 239 158 398t397 159q145 0 265 -63t195 -172q72 110 187.5 173.5t253.5 63.5z" />
    <glyph glyph-name="Racute" unicode="&#x154;" horiz-adv-x="1280" 
d="M700 1264h-342v-527h342q127 0 211 68t84 194t-82 195.5t-213 69.5zM1202 0h-235l-316 569h-293v-569h-208v1434h550q226 0 364 -110t138 -325q0 -172 -89.5 -274.5t-244.5 -136.5zM453 1585l176 279h194l-209 -279h-161z" />
    <glyph glyph-name="racute" unicode="&#x155;" horiz-adv-x="733" 
d="M612 1085l66 -4v-180q-29 6 -64 6q-137 0 -223 -112.5t-86 -296.5v-498h-196v1055h167l21 -224q34 111 118 182.5t197 71.5zM530 1485h195l-209 -279h-162z" />
    <glyph glyph-name="uni0156" unicode="&#x156;" horiz-adv-x="1280" 
d="M700 1264h-342v-527h342q127 0 211 68t84 194t-82 195.5t-213 69.5zM1202 0h-235l-316 569h-293v-569h-208v1434h550q226 0 364 -110t138 -325q0 -172 -89.5 -274.5t-244.5 -136.5zM563 -623l-24 54q72 26 114 70t43 102h-114v211h209v-154q0 -97 -63 -171.5t-165 -111.5
z" />
    <glyph glyph-name="uni0157" unicode="&#x157;" horiz-adv-x="733" 
d="M612 1085l66 -4v-180q-29 6 -64 6q-137 0 -223 -112.5t-86 -296.5v-498h-196v1055h167l21 -224q34 111 118 182.5t197 71.5zM84 -623l-25 54q72 26 114.5 70t43.5 102h-115v211h209v-154q0 -97 -62.5 -171.5t-164.5 -111.5z" />
    <glyph glyph-name="Rcaron" unicode="&#x158;" horiz-adv-x="1280" 
d="M700 1264h-342v-527h342q127 0 211 68t84 194t-82 195.5t-213 69.5zM1202 0h-235l-316 569h-293v-569h-208v1434h550q226 0 364 -110t138 -325q0 -172 -89.5 -274.5t-244.5 -136.5zM641 1690l123 174h156l-193 -279h-172l-193 279h156z" />
    <glyph glyph-name="rcaron" unicode="&#x159;" horiz-adv-x="733" 
d="M612 1085l66 -4v-180q-29 6 -64 6q-137 0 -223 -112.5t-86 -296.5v-498h-196v1055h167l21 -224q34 111 118 182.5t197 71.5zM489 1485h156l-192 -279h-172l-193 279h156l123 -174z" />
    <glyph glyph-name="Sacute" unicode="&#x15a;" horiz-adv-x="1316" 
d="M647 1464q228 0 376.5 -112.5t178.5 -329.5h-205q-28 135 -117 203.5t-233 68.5q-61 0 -113.5 -11.5t-98 -35.5t-71.5 -69t-26 -105q0 -32 8 -60t19 -49t33.5 -40t39 -31t49.5 -24.5t51 -19t57 -15t54.5 -11.5t55.5 -10q61 -10 107.5 -20t103.5 -27.5t99 -38.5
t84.5 -53.5t69.5 -71.5t43.5 -93.5t16.5 -119.5q0 -91 -32 -163.5t-85 -119.5t-125 -78.5t-148 -45t-157 -13.5q-254 0 -408.5 122.5t-185.5 371.5h205q48 -324 395 -324q61 0 116.5 13t104 40.5t77 77t28.5 115.5q0 42 -14 77.5t-34.5 60t-55.5 45.5t-64.5 33t-75 23.5
t-73.5 16.5t-72 12q-63 11 -111.5 22t-102.5 28.5t-94 38.5t-78 52.5t-61.5 70t-38 90.5t-14.5 114q0 102 44 180.5t119 124t165.5 68t193.5 22.5zM731 1864h195l-209 -279h-162z" />
    <glyph glyph-name="sacute" unicode="&#x15b;" horiz-adv-x="1056" 
d="M514 1085q187 0 312 -83.5t143 -251.5h-178q-41 184 -283 184q-99 0 -162 -39.5t-63 -108.5q0 -23 5.5 -42t19 -34t26 -26.5t36 -21t39.5 -15.5t45.5 -12t45 -9t48 -8.5t44.5 -7.5q71 -12 123 -25.5t107 -38.5t89 -58.5t56 -85.5t22 -119q0 -80 -37.5 -142t-101.5 -98.5
t-141 -55t-164 -18.5q-134 0 -238 41.5t-168 127t-71 206.5h188q6 -113 88 -168t209 -55q106 0 180 36t74 115q0 50 -26 85.5t-86.5 58.5t-96 31.5t-115.5 23.5q-14 3 -20 4q-62 12 -108 25t-98 36.5t-84.5 54t-54.5 78t-22 107.5q0 79 37.5 140.5t99 97t133.5 53.5t148 18z
M608 1485h195l-209 -279h-162z" />
    <glyph glyph-name="Scircumflex" unicode="&#x15c;" horiz-adv-x="1316" 
d="M647 1464q228 0 376.5 -112.5t178.5 -329.5h-205q-28 135 -117 203.5t-233 68.5q-61 0 -113.5 -11.5t-98 -35.5t-71.5 -69t-26 -105q0 -32 8 -60t19 -49t33.5 -40t39 -31t49.5 -24.5t51 -19t57 -15t54.5 -11.5t55.5 -10q61 -10 107.5 -20t103.5 -27.5t99 -38.5
t84.5 -53.5t69.5 -71.5t43.5 -93.5t16.5 -119.5q0 -91 -32 -163.5t-85 -119.5t-125 -78.5t-148 -45t-157 -13.5q-254 0 -408.5 122.5t-185.5 371.5h205q48 -324 395 -324q61 0 116.5 13t104 40.5t77 77t28.5 115.5q0 42 -14 77.5t-34.5 60t-55.5 45.5t-64.5 33t-75 23.5
t-73.5 16.5t-72 12q-63 11 -111.5 22t-102.5 28.5t-94 38.5t-78 52.5t-61.5 70t-38 90.5t-14.5 114q0 102 44 180.5t119 124t165.5 68t193.5 22.5zM571 1864h172l191 -279h-154l-123 174l-122 -174h-156z" />
    <glyph glyph-name="scircumflex" unicode="&#x15d;" horiz-adv-x="1056" 
d="M514 1085q187 0 312 -83.5t143 -251.5h-178q-41 184 -283 184q-99 0 -162 -39.5t-63 -108.5q0 -23 5.5 -42t19 -34t26 -26.5t36 -21t39.5 -15.5t45.5 -12t45 -9t48 -8.5t44.5 -7.5q71 -12 123 -25.5t107 -38.5t89 -58.5t56 -85.5t22 -119q0 -80 -37.5 -142t-101.5 -98.5
t-141 -55t-164 -18.5q-134 0 -238 41.5t-168 127t-71 206.5h188q6 -113 88 -168t209 -55q106 0 180 36t74 115q0 50 -26 85.5t-86.5 58.5t-96 31.5t-115.5 23.5q-14 3 -20 4q-62 12 -108 25t-98 36.5t-84.5 54t-54.5 78t-22 107.5q0 79 37.5 140.5t99 97t133.5 53.5t148 18z
M442 1485h172l191 -279h-154l-123 174l-122 -174h-156z" />
    <glyph glyph-name="Scedilla" unicode="&#x15e;" horiz-adv-x="1316" 
d="M541 -190l47 163q-213 22 -342 143.5t-158 346.5h205q48 -324 395 -324q61 0 116.5 13t104 40.5t77 77t28.5 115.5q0 42 -14 77.5t-34.5 60t-55.5 45.5t-64.5 33t-75 23.5t-73.5 16.5t-72 12q-63 11 -111.5 22t-102.5 28.5t-94 38.5t-78 52.5t-61.5 70t-38 90.5
t-14.5 114q0 102 44 180.5t119 124t165.5 68t193.5 22.5q228 0 376.5 -112.5t178.5 -329.5h-205q-28 135 -117 203.5t-233 68.5q-61 0 -113.5 -11.5t-98 -35.5t-71.5 -69t-26 -105q0 -32 8 -60t19 -49t33.5 -40t39 -31t49.5 -24.5t51 -19t57 -15t54.5 -11.5t55.5 -10
q61 -10 107.5 -20t103.5 -27.5t99 -38.5t84.5 -53.5t69.5 -71.5t43.5 -93.5t16.5 -119.5q0 -91 -32 -163.5t-85 -119.5t-125 -78.5t-147 -45t-156 -13.5l-22 -73q198 -15 198 -175q0 -99 -69 -148.5t-168 -49.5q-84 0 -166 45v115q91 -52 159 -52q48 0 83.5 24t35.5 71
q0 84 -149 84h-45z" />
    <glyph glyph-name="scedilla" unicode="&#x15f;" horiz-adv-x="1056" 
d="M412 -190l47 163q-170 19 -276 114.5t-115 256.5h188q6 -113 88 -168t209 -55q106 0 180 36t74 115q0 50 -26 85.5t-86.5 58.5t-96 31.5t-115.5 23.5q-14 3 -20 4q-62 12 -108 25t-98 36.5t-84.5 54t-54.5 78t-22 107.5q0 79 37.5 140.5t99 97t133.5 53.5t148 18
q187 0 312 -83.5t143 -251.5h-178q-41 184 -283 184q-99 0 -162 -39.5t-63 -108.5q0 -23 5.5 -42t19 -34t26 -26.5t36 -21t39.5 -15.5t45.5 -12t45 -9t48 -8.5t44.5 -7.5q71 -12 123 -25.5t107 -38.5t89 -58.5t56 -85.5t22 -119q0 -78 -36.5 -139.5t-98.5 -98.5t-138 -56
t-161 -20l-23 -73q199 -15 199 -175q0 -99 -69 -148.5t-168 -49.5q-84 0 -166 45v115q91 -52 159 -52q48 0 83.5 24t35.5 71q0 84 -149 84h-45z" />
    <glyph glyph-name="Scaron" unicode="&#x160;" horiz-adv-x="1316" 
d="M647 1464q228 0 376.5 -112.5t178.5 -329.5h-205q-28 135 -117 203.5t-233 68.5q-61 0 -113.5 -11.5t-98 -35.5t-71.5 -69t-26 -105q0 -32 8 -60t19 -49t33.5 -40t39 -31t49.5 -24.5t51 -19t57 -15t54.5 -11.5t55.5 -10q61 -10 107.5 -20t103.5 -27.5t99 -38.5
t84.5 -53.5t69.5 -71.5t43.5 -93.5t16.5 -119.5q0 -91 -32 -163.5t-85 -119.5t-125 -78.5t-148 -45t-157 -13.5q-254 0 -408.5 122.5t-185.5 371.5h205q48 -324 395 -324q61 0 116.5 13t104 40.5t77 77t28.5 115.5q0 42 -14 77.5t-34.5 60t-55.5 45.5t-64.5 33t-75 23.5
t-73.5 16.5t-72 12q-63 11 -111.5 22t-102.5 28.5t-94 38.5t-78 52.5t-61.5 70t-38 90.5t-14.5 114q0 102 44 180.5t119 124t165.5 68t193.5 22.5zM782 1864h156l-193 -279h-172l-192 279h156l122 -174z" />
    <glyph glyph-name="scaron" unicode="&#x161;" horiz-adv-x="1056" 
d="M514 1085q187 0 312 -83.5t143 -251.5h-178q-41 184 -283 184q-99 0 -162 -39.5t-63 -108.5q0 -23 5.5 -42t19 -34t26 -26.5t36 -21t39.5 -15.5t45.5 -12t45 -9t48 -8.5t44.5 -7.5q71 -12 123 -25.5t107 -38.5t89 -58.5t56 -85.5t22 -119q0 -80 -37.5 -142t-101.5 -98.5
t-141 -55t-164 -18.5q-134 0 -238 41.5t-168 127t-71 206.5h188q6 -113 88 -168t209 -55q106 0 180 36t74 115q0 50 -26 85.5t-86.5 58.5t-96 31.5t-115.5 23.5q-14 3 -20 4q-62 12 -108 25t-98 36.5t-84.5 54t-54.5 78t-22 107.5q0 79 37.5 140.5t99 97t133.5 53.5t148 18z
M651 1485h156l-193 -279h-172l-192 279h156l122 -174z" />
    <glyph glyph-name="uni0162" unicode="&#x162;" horiz-adv-x="1343" 
d="M82 1264v170h1178v-170h-488v-1264h-57l-31 -104q91 -7 146 -48.5t55 -126.5q0 -99 -70 -148.5t-170 -49.5q-84 0 -166 45v115q91 -52 160 -52q48 0 83.5 23.5t35.5 69.5q0 86 -148 86h-47l58 190h-54v1264h-485z" />
    <glyph glyph-name="uni0163" unicode="&#x163;" horiz-adv-x="733" 
d="M242 1169v197h194v-311h230v-158h-230v-618q0 -144 146 -144q48 0 84 12v-163q-6 -1 -40.5 -7t-60.5 -8l-22 -73q200 -14 200 -175q0 -99 -69.5 -148.5t-169.5 -49.5q-86 0 -164 45v115q91 -52 158 -52q49 0 83.5 23.5t34.5 69.5q0 86 -147 86h-45l47 161
q-229 31 -229 293v633h-179v158h66q57 0 85 27t28 87z" />
    <glyph glyph-name="Tcaron" unicode="&#x164;" horiz-adv-x="1343" 
d="M82 1434h1178v-170h-488v-1264h-205v1264h-485v170zM795 1864h155l-192 -279h-172l-193 279h156l123 -174z" />
    <glyph glyph-name="tcaron" unicode="&#x165;" horiz-adv-x="733" 
d="M598 1493h195l-86 -324h-162zM242 1169v197h194v-311h230v-156h-230v-620q0 -68 36.5 -105t109.5 -37q20 0 39.5 2.5t31.5 5t13 2.5v-161q-4 -1 -30.5 -6t-53 -8t-54.5 -3q-140 0 -213 74.5t-73 220.5v635h-179v156h66q113 0 113 114z" />
    <glyph glyph-name="Tbar" unicode="&#x166;" horiz-adv-x="1343" 
d="M567 643h-166v135h166v486h-485v170h1178v-170h-488v-486h168v-135h-168v-643h-205v643z" />
    <glyph glyph-name="tbar" unicode="&#x167;" horiz-adv-x="733" 
d="M240 1169v197h194v-311h230v-156h-230v-254h230v-135h-230v-229q0 -144 146 -144q20 0 39.5 2.5t31.5 5t13 2.5v-161q-4 -1 -30.5 -6t-53 -8t-54.5 -3q-140 0 -213 74.5t-73 220.5v246h-179v135h179v254h-179v156h66q113 0 113 114z" />
    <glyph glyph-name="Utilde" unicode="&#x168;" horiz-adv-x="1347" 
d="M1014 1434h205v-947q0 -156 -72 -275t-195 -181t-278 -62q-154 0 -276.5 60.5t-195.5 179.5t-73 278v947h205v-932q0 -163 93 -261t247 -98q156 0 248 99.5t92 259.5v932zM526 1804q49 0 102 -28t101 -56t86 -28q40 0 59.5 29.5t16.5 70.5h123q5 -93 -46.5 -163
t-142.5 -70q-50 0 -103.5 28t-101 56t-81.5 28q-43 0 -62.5 -29t-19.5 -75h-125q3 102 51 169.5t143 67.5z" />
    <glyph glyph-name="utilde" unicode="&#x169;" 
d="M813 1055h197v-1055h-168l-13 152q-56 -88 -148.5 -135.5t-203.5 -47.5q-180 0 -284.5 112.5t-104.5 287.5v686h197v-662q0 -121 60.5 -193.5t182.5 -72.5q89 0 155.5 52.5t98 131t31.5 168.5v576zM414 1425q49 0 102 -28t100.5 -56t85.5 -28q40 0 59.5 29.5t16.5 70.5
h123q5 -93 -46 -163t-142 -70q-39 0 -82 17.5t-74 38.5t-67 38.5t-64 17.5q-43 0 -62.5 -29t-19.5 -75h-125q3 102 51.5 169.5t143.5 67.5z" />
    <glyph glyph-name="Umacron" unicode="&#x16a;" horiz-adv-x="1347" 
d="M1014 1434h205v-947q0 -156 -72 -275t-195 -181t-278 -62q-154 0 -276.5 60.5t-195.5 179.5t-73 278v947h205v-932q0 -163 93 -261t247 -98q156 0 248 99.5t92 259.5v932zM406 1638v136h538v-136h-538z" />
    <glyph glyph-name="umacron" unicode="&#x16b;" 
d="M813 1055h197v-1055h-168l-13 152q-56 -88 -148.5 -135.5t-203.5 -47.5q-180 0 -284.5 112.5t-104.5 287.5v686h197v-662q0 -121 60.5 -193.5t182.5 -72.5q89 0 155.5 52.5t98 131t31.5 168.5v576zM291 1260v135h538v-135h-538z" />
    <glyph glyph-name="Ubreve" unicode="&#x16c;" horiz-adv-x="1347" 
d="M1014 1434h205v-947q0 -156 -72 -275t-195 -181t-278 -62q-154 0 -276.5 60.5t-195.5 179.5t-73 278v947h205v-932q0 -163 93 -261t247 -98q156 0 248 99.5t92 259.5v932zM674 1694q69 0 109 40t51 111h124q-12 -131 -83.5 -206.5t-200.5 -75.5q-128 0 -200.5 75
t-84.5 207h127q20 -151 158 -151z" />
    <glyph glyph-name="ubreve" unicode="&#x16d;" 
d="M813 1055h197v-1055h-168l-13 152q-56 -88 -148.5 -135.5t-203.5 -47.5q-180 0 -284.5 112.5t-104.5 287.5v686h197v-662q0 -121 60.5 -193.5t182.5 -72.5q89 0 155.5 52.5t98 131t31.5 168.5v576zM559 1315q69 0 109 40t51 111h125q-12 -131 -84 -206.5t-201 -75.5
q-128 0 -200.5 75t-84.5 207h127q20 -151 158 -151z" />
    <glyph glyph-name="Uring" unicode="&#x16e;" horiz-adv-x="1347" 
d="M674 1825q-37 0 -59.5 -22t-22.5 -60t22 -60t60 -22t60 23t22 59q0 37 -22 59.5t-60 22.5zM1014 502v932h205v-947q0 -156 -72 -275t-195 -181t-278 -62q-154 0 -276.5 60.5t-195.5 179.5t-73 278v947h205v-932q0 -163 93 -261t247 -98q156 0 248 99.5t92 259.5z
M674 1925q80 0 134 -51.5t54 -130.5q0 -80 -53 -130t-133 -50q-82 0 -136.5 50.5t-54.5 129.5q0 83 54.5 132.5t134.5 49.5z" />
    <glyph glyph-name="uring" unicode="&#x16f;" 
d="M559 1446q-37 0 -59.5 -22t-22.5 -60t22 -60t60 -22t60 23t22 59q0 37 -22 59.5t-60 22.5zM813 479v576h197v-1055h-168l-13 152q-56 -88 -148.5 -135.5t-203.5 -47.5q-180 0 -284.5 112.5t-104.5 287.5v686h197v-662q0 -121 60.5 -193.5t182.5 -72.5q89 0 155.5 52.5
t98 131t31.5 168.5zM559 1546q80 0 134.5 -51.5t54.5 -130.5q0 -80 -53.5 -130t-133.5 -50q-82 0 -136 50.5t-54 129.5q0 83 54 132.5t134 49.5z" />
    <glyph glyph-name="Uhungarumlaut" unicode="&#x170;" horiz-adv-x="1347" 
d="M1014 1434h205v-947q0 -156 -72 -275t-195 -181t-278 -62q-154 0 -276.5 60.5t-195.5 179.5t-73 278v947h205v-932q0 -163 93 -261t247 -98q156 0 248 99.5t92 259.5v932zM788 1864h183l-178 -279h-156zM512 1864h182l-159 -279h-156z" />
    <glyph glyph-name="uhungarumlaut" unicode="&#x171;" 
d="M813 1055h197v-1055h-168l-13 152q-56 -88 -148.5 -135.5t-203.5 -47.5q-180 0 -284.5 112.5t-104.5 287.5v686h197v-662q0 -121 60.5 -193.5t182.5 -72.5q89 0 155.5 52.5t98 131t31.5 168.5v576zM674 1485h182l-178 -279h-156zM397 1485h183l-160 -279h-156z" />
    <glyph glyph-name="Uogonek" unicode="&#x172;" horiz-adv-x="1347" 
d="M705 -31h-31q-154 0 -276.5 60.5t-195.5 179.5t-73 278v947h205v-932q0 -163 93 -261t247 -98q156 0 248 99.5t92 259.5v932h205v-947q0 -186 -100 -316t-267 -177q-133 -93 -133 -201q0 -36 22 -58t58 -22q44 0 90 33l43 -100q-82 -56 -174 -56q-89 0 -142 44t-53 130
q0 116 142 205z" />
    <glyph glyph-name="uogonek" unicode="&#x173;" 
d="M903 0h-61l-13 152q-56 -88 -148.5 -135.5t-203.5 -47.5q-180 0 -284.5 112.5t-104.5 287.5v686h197v-662q0 -121 60.5 -193.5t182.5 -72.5q89 0 155.5 52.5t98 131t31.5 168.5v576h197v-1055h-2q-69 -46 -106.5 -95t-37.5 -112q0 -36 22 -58t58 -22q44 0 90 33l43 -100
q-82 -56 -174 -56q-88 0 -141 44t-53 130q0 137 194 236z" />
    <glyph glyph-name="Wcircumflex" unicode="&#x174;" horiz-adv-x="1996" 
d="M1763 1434h211l-420 -1434h-231l-324 1135l-327 -1135h-230l-422 1434h213l332 -1168l332 1168h201l332 -1168zM913 1864h172l191 -279h-154l-123 174l-122 -174h-156z" />
    <glyph glyph-name="wcircumflex" unicode="&#x175;" horiz-adv-x="1665" 
d="M1434 1055h208l-342 -1055h-204l-262 815l-265 -815h-202l-347 1055h209l250 -842l258 842h189l258 -842zM748 1485h172l190 -279h-154l-122 174l-123 -174h-156z" />
    <glyph glyph-name="Ycircumflex" unicode="&#x176;" horiz-adv-x="1296" 
d="M1042 1434h232l-524 -932v-502h-205v502l-525 932h232l395 -723zM563 1864h172l191 -279h-154l-123 174l-123 -174h-155z" />
    <glyph glyph-name="ycircumflex" unicode="&#x177;" horiz-adv-x="1087" 
d="M549 229l311 826h207l-471 -1207q-36 -106 -82.5 -169.5t-119.5 -97.5t-179 -34q-28 0 -80 9v157q28 -8 76 -8q71 0 119 39.5t71 99.5l62 156h-21l-419 1055h208zM457 1485h172l190 -279h-153l-123 174l-123 -174h-156z" />
    <glyph glyph-name="Ydieresis" unicode="&#x178;" horiz-adv-x="1296" 
d="M1042 1434h232l-524 -932v-502h-205v502l-525 932h232l395 -723zM723 1599v209h180v-209h-180zM393 1599v209h185v-209h-185z" />
    <glyph glyph-name="Zacute" unicode="&#x179;" horiz-adv-x="1284" 
d="M129 1434h1032v-150l-790 -1114h805v-170h-1067v150l782 1114h-762v170zM727 1868h195l-209 -279h-162z" />
    <glyph glyph-name="zacute" unicode="&#x17a;" horiz-adv-x="1034" 
d="M98 1055h854v-140l-626 -759h630v-156h-882v139l620 760h-596v156zM606 1485h195l-209 -279h-162z" />
    <glyph glyph-name="Zdotaccent" unicode="&#x17b;" horiz-adv-x="1284" 
d="M129 1434h1032v-150l-790 -1114h805v-170h-1067v150l782 1114h-762v170zM549 1597v209h184v-209h-184z" />
    <glyph glyph-name="zdotaccent" unicode="&#x17c;" horiz-adv-x="1034" 
d="M98 1055h854v-140l-626 -759h630v-156h-882v139l620 760h-596v156zM424 1219v208h184v-208h-184z" />
    <glyph glyph-name="Zcaron" unicode="&#x17d;" horiz-adv-x="1284" 
d="M129 1434h1032v-150l-790 -1114h805v-170h-1067v150l782 1114h-762v170zM766 1864h156l-193 -279h-172l-192 279h155l123 -174z" />
    <glyph glyph-name="zcaron" unicode="&#x17e;" horiz-adv-x="1034" 
d="M98 1055h854v-140l-626 -759h630v-156h-882v139l620 760h-596v156zM641 1485h156l-193 -279h-172l-192 279h155l123 -174z" />
    <glyph glyph-name="uni018F" unicode="&#x18f;" horiz-adv-x="1560" 
d="M1257 602h-952q14 -97 51.5 -179.5t96.5 -145t143 -98.5t184 -36t184.5 37t143 100.5t96.5 145.5t53 176zM1473 717q0 -123 -30 -235t-89 -205.5t-141.5 -162t-193.5 -107t-239 -38.5q-160 0 -291.5 63t-218.5 172t-134.5 255t-47.5 313h1176q-8 103 -43 195t-94.5 165
t-149 115.5t-197.5 42.5q-177 0 -298.5 -92.5t-155.5 -251.5h-211q41 237 221.5 377.5t441.5 140.5q160 0 292.5 -59t220 -161t135 -237.5t47.5 -289.5z" />
    <glyph glyph-name="florin" unicode="&#x192;" horiz-adv-x="899" 
d="M205 741v158h184l33 303q11 119 91 190.5t220 71.5q42 0 109 -16v-166q-42 14 -88 14q-65 0 -100 -36.5t-42 -92.5l-28 -268h215v-158h-232l-90 -884q-12 -120 -91.5 -191.5t-217.5 -71.5q-58 0 -111 17v164q45 -15 88 -15q65 0 100 37.5t40 93.5l88 850h-168z" />
    <glyph glyph-name="uni01F4" unicode="&#x1f4;" horiz-adv-x="1554" 
d="M774 559v170h692v-729h-159l-23 262q-73 -138 -200 -215.5t-302 -77.5q-129 0 -240 38.5t-193.5 107t-142 162t-89 205.5t-29.5 235q0 154 47.5 289.5t134.5 237.5t219.5 161t292.5 59q262 0 442.5 -140.5t221.5 -377.5h-211q-34 159 -156 251.5t-299 92.5
q-114 0 -208 -48.5t-153.5 -129.5t-91.5 -182.5t-32 -212.5q0 -88 20 -171t61 -156t99 -128t139.5 -87t176.5 -32q188 0 303 113t149 303h-469zM881 1864h194l-209 -279h-161z" />
    <glyph glyph-name="uni01F5" unicode="&#x1f5;" horiz-adv-x="1216" 
d="M590 928q-157 0 -250.5 -108.5t-93.5 -264.5t94 -259t248 -103q156 0 246 105t90 259q0 156 -90.5 263.5t-243.5 107.5zM557 1087q252 0 379 -192l12 160h160v-977q0 -254 -138 -392.5t-374 -138.5q-196 0 -334 96.5t-172 278.5h182q49 -215 310 -215q164 0 253 90
t89 262v152q-59 -90 -153.5 -135t-211.5 -45q-145 0 -258.5 70.5t-174 190t-60.5 265.5q0 142 58.5 261.5t172 194t260.5 74.5zM422 1206l176 279h195l-209 -279h-162z" />
    <glyph glyph-name="Aringacute" unicode="&#x1fa;" horiz-adv-x="1388" 
d="M449 559h491l-246 653zM694 1729q-37 0 -59.5 -22t-22.5 -60t22 -60t60 -22t60 23t22 59q0 37 -22 59.5t-60 22.5zM244 0h-224l553 1434h242l551 -1434h-223l-150 391h-600zM694 1829q80 0 134.5 -51.5t54.5 -130.5q0 -80 -53.5 -130.5t-133.5 -50.5q-82 0 -136 51
t-54 130q0 83 54 132.5t134 49.5zM598 1860l176 278h195l-209 -278h-162z" />
    <glyph glyph-name="aringacute" unicode="&#x1fb;" horiz-adv-x="1212" 
d="M492 455q-50 -9 -86.5 -20t-71.5 -30.5t-53.5 -51t-18.5 -74.5q0 -86 55 -124t160 -38q85 0 169.5 35t143.5 102.5t60 148.5v127q-38 -19 -82 -28zM606 1446q-37 0 -59.5 -22t-22.5 -60t22 -60t60 -22t60 23t22 59q0 37 -22 59.5t-60 22.5zM424 586q260 37 338 49
q88 14 88 80q0 103 -66.5 160t-197.5 57q-120 0 -200.5 -54.5t-90.5 -158.5h-184q28 185 153.5 275.5t319.5 90.5q450 0 450 -413v-428q0 -29 1 -46t5.5 -37.5t13.5 -31t25 -18t39 -7.5h19v-135h-82q-86 0 -131.5 53.5t-53.5 145.5q-70 -93 -183 -146t-228 -53
q-173 0 -278 75t-105 222q0 74 27.5 132.5t76.5 95.5t109.5 59.5t134.5 32.5zM606 1546q80 0 134.5 -51.5t54.5 -130.5q0 -80 -53.5 -130t-133.5 -50q-82 0 -136 50.5t-54 129.5q0 83 54 132.5t134 49.5zM528 1606l177 278h194l-209 -278h-162z" />
    <glyph glyph-name="AEacute" unicode="&#x1fc;" horiz-adv-x="2109" 
d="M1057 559v664l-434 -664h434zM20 0l936 1434h1043v-170h-735v-457h678v-170h-678v-467h735v-170h-942v391h-533l-258 -391h-246zM1032 1585l176 279h195l-209 -279h-162z" />
    <glyph glyph-name="aeacute" unicode="&#x1fd;" horiz-adv-x="1968" 
d="M846 526q-29 -14 -78 -24l-276 -47q-50 -9 -86.5 -20t-71.5 -30.5t-53.5 -51t-18.5 -74.5q0 -86 55 -124t160 -38q80 0 157.5 29.5t140.5 91t87 143.5q-16 72 -16 145zM1380 936q-73 0 -134 -25.5t-102.5 -68.5t-67.5 -96.5t-36 -112.5h678q-24 135 -112.5 219t-225.5 84
zM1380 1085q160 0 281 -77t184 -209q71 -148 56 -322h-867q8 -152 106 -256t253 -104q109 0 192.5 49.5t124.5 142.5h186q-53 -158 -188.5 -249t-306.5 -91q-151 0 -274 65t-195 181q-39 -67 -99 -117t-126 -77t-128 -39.5t-120 -12.5q-173 0 -278 75t-105 222
q0 74 27.5 132.5t76.5 95.5t109.5 59.5t134.5 32.5q260 37 338 49q88 14 88 80q0 103 -66.5 160t-197.5 57q-120 0 -200.5 -54.5t-90.5 -158.5h-184q28 185 153.5 275.5t319.5 90.5q295 0 397 -180q74 85 176.5 132.5t222.5 47.5zM895 1206l176 279h195l-209 -279h-162z" />
    <glyph glyph-name="Oslashacute" unicode="&#x1fe;" horiz-adv-x="1576" 
d="M412 332l659 868q-124 90 -283 90q-118 0 -213 -47.5t-154.5 -128t-91.5 -182.5t-32 -215q0 -228 115 -385zM1165 1102l-657 -866q122 -91 280 -91q118 0 213 47.5t155 127.5t92 182t32 215q0 228 -115 385zM305 -31h-170l154 203q-97 102 -149 243.5t-52 301.5
q0 153 47 288t134 237.5t221 162t298 59.5q235 0 398 -114l86 114h170l-154 -200q98 -104 149.5 -245t51.5 -302q0 -151 -47 -286t-134 -238t-221.5 -163.5t-298.5 -60.5q-228 0 -397 115zM602 1585l176 279h195l-209 -279h-162z" />
    <glyph glyph-name="oslashacute" unicode="&#x1ff;" horiz-adv-x="1241" 
d="M338 268l465 611q-79 51 -182 51q-162 0 -264.5 -119t-102.5 -283q0 -146 84 -260zM903 786l-465 -610q80 -47 183 -47q109 0 194 57t128.5 147t43.5 195q0 144 -84 258zM961 1085h169l-116 -153q77 -77 119.5 -181t42.5 -223q0 -155 -71 -283t-198.5 -202t-285.5 -74
q-156 0 -285 74l-55 -74h-170l118 156q-163 160 -163 403q0 239 158 398t397 159q160 0 284 -71zM535 1206l176 279h194l-209 -279h-161z" />
    <glyph glyph-name="uni0218" unicode="&#x218;" horiz-adv-x="1316" 
d="M647 1464q228 0 376.5 -112.5t178.5 -329.5h-205q-28 135 -117 203.5t-233 68.5q-61 0 -113.5 -11.5t-98 -35.5t-71.5 -69t-26 -105q0 -32 8 -60t19 -49t33.5 -40t39 -31t49.5 -24.5t51 -19t57 -15t54.5 -11.5t55.5 -10q61 -10 107.5 -20t103.5 -27.5t99 -38.5
t84.5 -53.5t69.5 -71.5t43.5 -93.5t16.5 -119.5q0 -91 -32 -163.5t-85 -119.5t-125 -78.5t-148 -45t-157 -13.5q-254 0 -408.5 122.5t-185.5 371.5h205q48 -324 395 -324q61 0 116.5 13t104 40.5t77 77t28.5 115.5q0 42 -14 77.5t-34.5 60t-55.5 45.5t-64.5 33t-75 23.5
t-73.5 16.5t-72 12q-63 11 -111.5 22t-102.5 28.5t-94 38.5t-78 52.5t-61.5 70t-38 90.5t-14.5 114q0 102 44 180.5t119 124t165.5 68t193.5 22.5zM571 -623l-24 54q72 26 114.5 70t43.5 102h-115v211h209v-154q0 -97 -63 -171.5t-165 -111.5z" />
    <glyph glyph-name="uni0219" unicode="&#x219;" horiz-adv-x="1056" 
d="M514 1085q187 0 312 -83.5t143 -251.5h-178q-41 184 -283 184q-99 0 -162 -39.5t-63 -108.5q0 -23 5.5 -42t19 -34t26 -26.5t36 -21t39.5 -15.5t45.5 -12t45 -9t48 -8.5t44.5 -7.5q71 -12 123 -25.5t107 -38.5t89 -58.5t56 -85.5t22 -119q0 -80 -37.5 -142t-101.5 -98.5
t-141 -55t-164 -18.5q-134 0 -238 41.5t-168 127t-71 206.5h188q6 -113 88 -168t209 -55q106 0 180 36t74 115q0 50 -26 85.5t-86.5 58.5t-96 31.5t-115.5 23.5q-14 3 -20 4q-62 12 -108 25t-98 36.5t-84.5 54t-54.5 78t-22 107.5q0 79 37.5 140.5t99 97t133.5 53.5t148 18z
M420 -623l-25 54q72 26 114.5 70t43.5 102h-115v211h209v-154q0 -97 -62.5 -171.5t-164.5 -111.5z" />
    <glyph glyph-name="uni021A" unicode="&#x21a;" horiz-adv-x="1343" 
d="M82 1434h1178v-170h-488v-1264h-205v1264h-485v170zM557 -623l-25 54q72 26 114.5 70t43.5 102h-115v211h209v-154q0 -97 -62.5 -171.5t-164.5 -111.5z" />
    <glyph glyph-name="uni021B" unicode="&#x21b;" horiz-adv-x="733" 
d="M242 1366h194v-311h230v-156h-230v-620q0 -68 36.5 -105t109.5 -37q20 0 39.5 2.5t31.5 5t13 2.5v-161q-4 -1 -30.5 -6t-53 -8t-54.5 -3q-140 0 -213 74.5t-73 220.5v635h-179v156h66q113 0 113 114v197zM367 -623l-25 54q72 26 114.5 70t43.5 102h-115v211h209v-154
q0 -97 -62.5 -171.5t-164.5 -111.5z" />
    <glyph glyph-name="uni0232" unicode="&#x232;" horiz-adv-x="1296" 
d="M1042 1434h232l-524 -932v-502h-205v502l-525 932h232l395 -723zM381 1638v136h539v-136h-539z" />
    <glyph glyph-name="uni0233" unicode="&#x233;" horiz-adv-x="1087" 
d="M549 229l311 826h207l-471 -1207q-36 -106 -82.5 -169.5t-119.5 -97.5t-179 -34q-28 0 -80 9v157q28 -8 76 -8q71 0 119 39.5t71 99.5l62 156h-21l-419 1055h208zM274 1260v135h539v-135h-539z" />
    <glyph glyph-name="uni0237" unicode="&#x237;" horiz-adv-x="423" 
d="M119 -156v1211h192v-1198q0 -310 -307 -310q-23 0 -44.5 3t-38.5 7.5t-21 4.5v162q60 -15 86 -15q63 0 98 39t35 96z" />
    <glyph glyph-name="uni0259" unicode="&#x259;" horiz-adv-x="1187" 
d="M590 121q142 0 231 87.5t109 213.5h-678q23 -133 111.5 -217t226.5 -84zM590 -31q-161 0 -282.5 77.5t-182.5 211.5q-70 143 -55 322h866q-8 151 -106 255.5t-252 104.5q-108 0 -192.5 -51t-125.5 -144h-186q53 158 188.5 249t306.5 91q240 0 397.5 -155.5t157.5 -403.5
q0 -151 -68.5 -278.5t-191.5 -203t-274 -75.5z" />
    <glyph glyph-name="circumflex" unicode="&#x2c6;" horiz-adv-x="774" 
d="M301 1485h172l191 -279h-154l-123 174l-123 -174h-155z" />
    <glyph glyph-name="caron" unicode="&#x2c7;" horiz-adv-x="772" 
d="M510 1485h156l-193 -279h-172l-192 279h155l123 -174z" />
    <glyph glyph-name="breve" unicode="&#x2d8;" horiz-adv-x="786" 
d="M393 1315q69 0 109 40t51 111h125q-12 -131 -84 -206.5t-201 -75.5q-128 0 -200 75t-84 207h127q20 -151 157 -151z" />
    <glyph glyph-name="dotaccent" unicode="&#x2d9;" horiz-adv-x="483" 
d="M150 1219v208h184v-208h-184z" />
    <glyph glyph-name="ring" unicode="&#x2da;" horiz-adv-x="593" 
d="M297 1446q-37 0 -59.5 -22t-22.5 -60t22 -60t60 -22t60 23t22 59q0 37 -22 59.5t-60 22.5zM297 1546q80 0 134 -51.5t54 -130.5q0 -80 -53 -130t-133 -50q-82 0 -136 50.5t-54 129.5q0 83 54 132.5t134 49.5z" />
    <glyph glyph-name="ogonek" unicode="&#x2db;" horiz-adv-x="585" 
d="M340 18l68 -18q-69 -46 -106.5 -95t-37.5 -112q0 -36 22 -58t58 -22q44 0 90 33l43 -100q-82 -56 -174 -56q-88 0 -141 44t-53 130q0 45 19.5 84.5t55 70.5t72 54t84.5 45z" />
    <glyph glyph-name="tilde" unicode="&#x2dc;" horiz-adv-x="899" 
d="M303 1425q49 0 102 -28t101 -56t86 -28q40 0 59.5 29.5t16.5 70.5h123q5 -93 -46.5 -163t-142.5 -70q-39 0 -82 17.5t-74 38.5t-67 38.5t-64 17.5q-43 0 -62.5 -29t-19.5 -75h-124q3 102 51 169.5t143 67.5z" />
    <glyph glyph-name="hungarumlaut" unicode="&#x2dd;" horiz-adv-x="806" 
d="M518 1485h182l-178 -279h-155zM242 1485h182l-160 -279h-155z" />
    <glyph glyph-name="uni0307" unicode="&#x307;" horiz-adv-x="483" 
d="M150 1219v208h184v-208h-184z" />
    <glyph glyph-name="uni0312" unicode="&#x312;" horiz-adv-x="0" 
d="M117 1458h41l-58 -315h-77z" />
    <glyph glyph-name="uni0326" unicode="&#x326;" horiz-adv-x="0" 
d="M12 -623l-24 54q72 26 114 70t43 102h-114v211h209v-154q0 -97 -63 -171.5t-165 -111.5z" />
    <glyph glyph-name="uni0394" unicode="&#x394;" horiz-adv-x="1488" 
d="M1178 170l-437 1090l-434 -1090h871zM20 0l605 1464h237l604 -1464h-1446z" />
    <glyph glyph-name="uni03A9" unicode="&#x3a9;" horiz-adv-x="1630" 
d="M815 1464q211 0 373.5 -92t249 -251.5t86.5 -360.5q0 -176 -81.5 -334t-230.5 -256h244v-170h-538v172q176 67 282.5 214.5t106.5 352.5q0 115 -31.5 214t-91.5 174t-155 118t-214 43t-213.5 -43t-154.5 -118t-91.5 -174t-31.5 -214q0 -205 106.5 -352.5t282.5 -214.5
v-172h-539v170h244q-149 97 -229 255t-80 335q0 201 86 360.5t247.5 251.5t372.5 92z" />
    <glyph glyph-name="uni03BC" unicode="&#x3bc;" horiz-adv-x="1136" 
d="M281 -346h-172v1401h196v-662q0 -121 61 -194.5t183 -73.5q89 0 155.5 52.5t98 131t31.5 168.5v578h196v-1055h-168l-12 152q-55 -89 -139 -136t-187 -47q-156 0 -243 84v-399z" />
    <glyph glyph-name="pi" unicode="&#x3c0;" horiz-adv-x="1370" 
d="M848 279v608h-377v-887h-192v887h-170v170h1120v-170h-187v-621q0 -57 35.5 -95t98.5 -38q48 0 84 12v-161q-3 0 -20 -4.5t-38.5 -7.5t-44.5 -3q-309 0 -309 310z" />
    <glyph glyph-name="uni0E3F" unicode="&#xe3f;" horiz-adv-x="1302" 
d="M526 158v512h-172v-512h172zM670 670v-512h28q137 0 224.5 65t87.5 191t-83 191t-227 65h-30zM526 825v453h-172v-453h172zM670 1278v-453h14q124 0 193 57.5t69 170.5q0 114 -78 169.5t-196 55.5h-2zM526 1434v219h144v-219h51q84 0 158 -21t136 -63.5t98 -115
t36 -167.5q0 -101 -47 -184t-137 -129q118 -40 183.5 -132t65.5 -223q0 -83 -25.5 -150.5t-69 -113t-104 -76.5t-129 -45t-145.5 -14h-71v-219h-144v219h-376v1434h376z" />
    <glyph glyph-name="uni1E44" unicode="&#x1e44;" horiz-adv-x="1411" 
d="M1057 1434h205v-1434h-224l-684 1094v-1094h-204v1434h223l684 -1110v1110zM614 1597v209h185v-209h-185z" />
    <glyph glyph-name="uni1E45" unicode="&#x1e45;" 
d="M641 1085q180 0 284.5 -112t104.5 -287v-686h-196v662q0 120 -61.5 194t-182.5 74q-89 0 -155.5 -52.5t-98 -131t-31.5 -168.5v-578h-196v1055h167l13 -152q56 88 148 135t204 47zM467 1219v208h184v-208h-184z" />
    <glyph glyph-name="Wgrave" unicode="&#x1e80;" horiz-adv-x="1996" 
d="M1763 1434h211l-420 -1434h-231l-324 1135l-327 -1135h-230l-422 1434h213l332 -1168l332 1168h201l332 -1168zM717 1864h192l178 -279h-161z" />
    <glyph glyph-name="wgrave" unicode="&#x1e81;" horiz-adv-x="1665" 
d="M1434 1055h208l-342 -1055h-204l-262 815l-265 -815h-202l-347 1055h209l250 -842l258 842h189l258 -842zM541 1485h192l178 -279h-161z" />
    <glyph glyph-name="Wacute" unicode="&#x1e82;" horiz-adv-x="1996" 
d="M1763 1434h211l-420 -1434h-231l-324 1135l-327 -1135h-230l-422 1434h213l332 -1168l332 1168h201l332 -1168zM1102 1864h194l-209 -279h-161z" />
    <glyph glyph-name="wacute" unicode="&#x1e83;" horiz-adv-x="1665" 
d="M1434 1055h208l-342 -1055h-204l-262 815l-265 -815h-202l-347 1055h209l250 -842l258 842h189l258 -842zM936 1485h194l-208 -279h-162z" />
    <glyph glyph-name="Wdieresis" unicode="&#x1e84;" horiz-adv-x="1996" 
d="M1763 1434h211l-420 -1434h-231l-324 1135l-327 -1135h-230l-422 1434h213l332 -1168l332 1168h201l332 -1168zM1073 1599v209h180v-209h-180zM743 1599v209h185v-209h-185z" />
    <glyph glyph-name="wdieresis" unicode="&#x1e85;" horiz-adv-x="1665" 
d="M1434 1055h208l-342 -1055h-204l-262 815l-265 -815h-202l-347 1055h209l250 -842l258 842h189l258 -842zM907 1221v209h180v-209h-180zM578 1221v209h184v-209h-184z" />
    <glyph glyph-name="Germandbls" unicode="&#x1e9e;" horiz-adv-x="1284" 
d="M629 1464q76 0 147.5 -20.5t121 -49.5t91 -64.5t63 -61t31.5 -43.5v-82l-303 -346q189 -25 292.5 -136t103.5 -266q0 -108 -40 -192t-108.5 -134t-153 -75t-180.5 -25q-138 0 -235 47v160q81 -49 198 -49q141 0 227.5 75t86.5 210q0 72 -31.5 125.5t-86.5 83.5
t-119.5 44.5t-139.5 14.5v156l295 338l-2 2q-14 15 -30.5 29.5t-52 41t-82.5 42.5t-95 16q-130 0 -202.5 -89.5t-72.5 -228.5v-987h-202v967q0 230 123 363.5t356 133.5z" />
    <glyph glyph-name="uni1EB8" unicode="&#x1eb8;" horiz-adv-x="1200" 
d="M150 1434h942v-170h-738v-457h678v-168h-678v-469h738v-170h-942v1434zM528 -436v209h185v-209h-185z" />
    <glyph glyph-name="uni1EB9" unicode="&#x1eb9;" horiz-adv-x="1187" 
d="M600 934q-142 0 -231 -87.5t-109 -213.5h676q-23 133 -111 217t-225 84zM600 1085q159 0 280.5 -77t182.5 -209q72 -144 57 -322h-868q9 -152 107 -256t253 -104q109 0 193 50t125 142h184q-52 -158 -187 -249t-306 -91q-240 0 -397.5 155.5t-157.5 403.5q0 152 68 279
t191 202.5t275 75.5zM686 -436h-184v209h184v-209z" />
    <glyph glyph-name="uni1EBC" unicode="&#x1ebc;" horiz-adv-x="1200" 
d="M150 1434h942v-170h-738v-457h678v-170h-678v-467h738v-170h-942v1434zM475 1804q49 0 102 -28t101 -56t86 -28q40 0 59.5 29.5t16.5 70.5h123q5 -93 -46.5 -163t-142.5 -70q-39 0 -82 17.5t-74 38.5t-67 38.5t-64 17.5q-81 0 -81 -104h-125q3 102 51 169.5t143 67.5z
" />
    <glyph glyph-name="uni1EBD" unicode="&#x1ebd;" horiz-adv-x="1187" 
d="M600 934q-142 0 -231 -87.5t-109 -213.5h676q-23 133 -111 217t-225 84zM600 1085q159 0 280.5 -77t182.5 -209q72 -144 57 -322h-868q9 -152 107 -256t253 -104q109 0 193 50t125 142h184q-52 -158 -187 -249t-306 -91q-240 0 -397.5 155.5t-157.5 403.5q0 152 68 279
t191 202.5t275 75.5zM449 1425q49 0 102 -28t100.5 -56t85.5 -28q40 0 59.5 29.5t16.5 70.5h123q5 -93 -46 -163t-142 -70q-39 0 -82 17.5t-74 38.5t-67 38.5t-64 17.5q-43 0 -62.5 -29t-19.5 -75h-125q3 102 51.5 169.5t143.5 67.5z" />
    <glyph glyph-name="uni1ECA" unicode="&#x1eca;" horiz-adv-x="503" 
d="M160 -436v209h182v-209h-182zM147 0v1434h207v-1434h-207z" />
    <glyph glyph-name="uni1ECB" unicode="&#x1ecb;" horiz-adv-x="415" 
d="M115 -436v209h182v-209h-182zM106 1223v211h199v-211h-199zM109 0v1055h194v-1055h-194z" />
    <glyph glyph-name="uni1ECC" unicode="&#x1ecc;" horiz-adv-x="1576" 
d="M696 -436v209h185v-209h-185zM788 1290q-118 0 -213 -47.5t-154.5 -128t-91.5 -182.5t-32 -215t32 -215t91.5 -182t154.5 -127.5t213 -47.5t213 47.5t155 127.5t92 182t32 215t-32 215t-92 182.5t-155 128t-213 47.5zM788 1464q132 0 245 -38.5t196 -107.5t142 -162.5
t88.5 -205t29.5 -233.5q0 -151 -47 -286t-134 -238t-221.5 -163.5t-298.5 -60.5t-298 60.5t-221 163.5t-134 238t-47 286q0 153 47 288t134 237.5t221 162t298 59.5z" />
    <glyph glyph-name="uni1ECD" unicode="&#x1ecd;" horiz-adv-x="1241" 
d="M528 -436v209h185v-209h-185zM621 930q-162 0 -264.5 -119t-102.5 -283t102.5 -281.5t264.5 -117.5q109 0 194 57t128.5 147t43.5 195t-44.5 196.5t-129.5 148.5t-192 57zM621 1085q118 0 221 -42.5t176.5 -116.5t115.5 -177.5t42 -220.5q0 -155 -71 -283t-198.5 -202
t-285.5 -74q-118 0 -221 43t-176.5 117.5t-115.5 178t-42 220.5q0 239 158 398t397 159z" />
    <glyph glyph-name="uni1EE4" unicode="&#x1ee4;" horiz-adv-x="1347" 
d="M582 -436v209h184v-209h-184zM1014 502v932h205v-947q0 -156 -72 -275t-195 -181t-278 -62q-154 0 -276.5 60.5t-195.5 179.5t-73 278v947h205v-932q0 -163 93 -261t247 -98q156 0 248 99.5t92 259.5z" />
    <glyph glyph-name="uni1EE5" unicode="&#x1ee5;" 
d="M457 -436v209h184v-209h-184zM813 479v576h197v-1055h-168l-13 152q-56 -88 -148.5 -135.5t-203.5 -47.5q-180 0 -284.5 112.5t-104.5 287.5v686h197v-662q0 -121 60.5 -193.5t182.5 -72.5q89 0 155.5 52.5t98 131t31.5 168.5z" />
    <glyph glyph-name="Ygrave" unicode="&#x1ef2;" horiz-adv-x="1296" 
d="M1042 1434h232l-524 -932v-502h-205v502l-525 932h232l395 -723zM371 1864h192l178 -279h-161z" />
    <glyph glyph-name="ygrave" unicode="&#x1ef3;" horiz-adv-x="1087" 
d="M549 229l311 826h207l-471 -1207q-36 -106 -82.5 -169.5t-119.5 -97.5t-179 -34q-28 0 -80 9v157q28 -8 76 -8q71 0 119 39.5t71 99.5l62 156h-21l-419 1055h208zM248 1485h192l178 -279h-161z" />
    <glyph glyph-name="uni1EF8" unicode="&#x1ef8;" horiz-adv-x="1296" 
d="M1042 1434h232l-524 -932v-502h-205v502l-525 932h232l395 -723zM502 1804q49 0 102 -28t101 -56t86 -28q40 0 59 29t16 71h123q5 -93 -46 -163t-142 -70q-39 0 -82 17.5t-74 38.5t-67 38.5t-64 17.5q-43 0 -62.5 -29t-19.5 -75h-125q3 102 51.5 169.5t143.5 67.5z" />
    <glyph glyph-name="uni1EF9" unicode="&#x1ef9;" horiz-adv-x="1087" 
d="M549 229l311 826h207l-471 -1207q-36 -106 -82.5 -169.5t-119.5 -97.5t-179 -34q-28 0 -80 9v157q28 -8 76 -8q71 0 119 39.5t71 99.5l62 156h-21l-419 1055h208zM397 1425q49 0 102 -28t101 -56t86 -28q40 0 59.5 29.5t16.5 70.5h123q5 -93 -46.5 -163t-142.5 -70
q-50 0 -103.5 28t-101 56t-81.5 28q-43 0 -62.5 -29t-19.5 -75h-125q3 102 51 169.5t143 67.5z" />
    <glyph glyph-name="endash" unicode="&#x2013;" horiz-adv-x="1001" 
d="M150 508v182h702v-182h-702z" />
    <glyph glyph-name="emdash" unicode="&#x2014;" horiz-adv-x="1355" 
d="M0 508v178h1313v-178h-1313z" />
    <glyph glyph-name="uni2015" unicode="&#x2015;" horiz-adv-x="1800" 
d="M2 510v178h1798v-178h-1798z" />
    <glyph glyph-name="quoteleft" unicode="&#x2018;" horiz-adv-x="503" 
d="M410 1434l28 -74q-157 -57 -166 -189h107v-231h-229v160q0 267 260 334z" />
    <glyph glyph-name="quoteright" unicode="&#x2019;" horiz-adv-x="503" 
d="M127 1434h225v-160q0 -268 -258 -334l-31 74q158 56 170 188h-106v232z" />
    <glyph glyph-name="quotesinglbase" unicode="&#x201a;" horiz-adv-x="503" 
d="M127 231h225v-159q0 -268 -258 -334l-31 74q158 56 170 188h-106v231z" />
    <glyph glyph-name="quotedblleft" unicode="&#x201c;" horiz-adv-x="829" 
d="M410 1434l28 -74q-157 -57 -166 -189h107v-231h-229v160q0 267 260 334zM735 1434l31 -74q-159 -57 -168 -189h107v-231h-228v160q0 267 258 334z" />
    <glyph glyph-name="quotedblright" unicode="&#x201d;" horiz-adv-x="829" 
d="M453 1434h227v-160q0 -133 -66.5 -217.5t-193.5 -116.5l-29 74q156 57 168 188h-106v232zM127 1434h225v-160q0 -268 -258 -334l-31 74q158 56 170 188h-106v232z" />
    <glyph glyph-name="quotedblbase" unicode="&#x201e;" horiz-adv-x="829" 
d="M453 231h227v-159q0 -133 -66.5 -217.5t-193.5 -116.5l-29 74q156 57 168 188h-106v231zM127 231h225v-159q0 -268 -258 -334l-31 74q158 56 170 188h-106v231z" />
    <glyph glyph-name="dagger" unicode="&#x2020;" horiz-adv-x="1034" 
d="M422 1464h190v-370h314v-164h-314v-961h-190v961h-313v164h313v370z" />
    <glyph glyph-name="daggerdbl" unicode="&#x2021;" horiz-adv-x="1034" 
d="M422 1464h190v-295h314v-163h-314v-580h314v-164h-314v-293h-190v293h-313v164h313v580h-313v163h313v295z" />
    <glyph glyph-name="bullet" unicode="&#x2022;" horiz-adv-x="811" 
d="M645 715q0 -100 -70 -171t-169 -71q-100 0 -171 71t-71 171q0 99 71 169t171 70t169.5 -69.5t69.5 -169.5z" />
    <glyph glyph-name="ellipsis" unicode="&#x2026;" horiz-adv-x="1390" 
d="M150 0v231h227v-231h-227zM580 0v231h229v-231h-229zM1014 0v231h227v-231h-227z" />
    <glyph glyph-name="perthousand" unicode="&#x2030;" horiz-adv-x="2701" 
d="M1354 1434h178l-965 -1434h-178zM465 1331q-205 0 -205 -293t205 -293t205 293t-205 293zM465 1464q94 0 164 -34t111 -94.5t61 -135t20 -162.5q0 -189 -89 -307.5t-267 -118.5q-94 0 -164 34t-111 94.5t-61 135t-20 162.5q0 89 19.5 163t60.5 134.5t111.5 94.5t164.5 34
zM1440 690q-205 0 -205 -293t205 -293q207 0 207 293t-207 293zM1440 823q94 0 164.5 -34t111.5 -94.5t60.5 -134.5t19.5 -163q0 -91 -20.5 -166.5t-62.5 -134.5t-111.5 -92t-161.5 -33q-93 0 -163 34t-111 94.5t-61 135t-20 162.5t19.5 162.5t60.5 135t111 94.5t164 34z
M2238 690q-206 0 -206 -293t206 -293q205 0 205 293t-205 293zM2238 823q94 0 164 -34t111 -94.5t60.5 -135t19.5 -162.5q0 -91 -21 -166.5t-62.5 -134.5t-111 -92t-160.5 -33q-94 0 -164 34t-111 94.5t-61 135t-20 162.5q0 89 19.5 163t60.5 134.5t111.5 94.5t164.5 34z
" />
    <glyph glyph-name="guilsinglleft" unicode="&#x2039;" horiz-adv-x="940" 
d="M541 1210h247l-430 -493l430 -496h-247l-432 496z" />
    <glyph glyph-name="guilsinglright" unicode="&#x203a;" horiz-adv-x="940" 
d="M150 1210h249l432 -493l-432 -496h-249l432 496z" />
    <glyph glyph-name="uni203D" unicode="&#x203d;" horiz-adv-x="1175" 
d="M455 0v231h227v-231h-227zM604 1464q127 0 230.5 -42.5t168 -130.5t64.5 -208q0 -65 -17 -116.5t-52 -91.5t-66.5 -67t-84.5 -65.5t-83 -64.5q-57 -44 -82 -98t-25 -131v-60h-194l-33 668h178l-2 -303q12 12 27 24q21 17 57.5 45.5t55 43.5t43.5 40.5t37 47t21 53t9 67.5
q0 103 -75 164t-183 61q-240 0 -297 -217h-192q26 181 156.5 281t338.5 100z" />
    <glyph glyph-name="fraction" unicode="&#x2044;" horiz-adv-x="440" 
d="M614 1434h177l-967 -1434h-178z" />
    <glyph glyph-name="uni2070" unicode="&#x2070;" horiz-adv-x="811" 
d="M406 1532q-55 0 -95 -26.5t-62 -72t-32 -97t-10 -109.5q0 -59 10 -111t32 -98t62 -73t95 -27q54 0 94 27t61.5 73t32 98t10.5 111q0 58 -10 109.5t-31.5 97t-62 72t-94.5 26.5zM406 1653q86 0 152.5 -35t106 -95t59 -135t19.5 -161t-20 -161.5t-59.5 -136t-106 -95.5
t-151.5 -35t-151.5 35t-106.5 95.5t-60 136t-20 161.5t20 161t59.5 135t106 95t152.5 35z" />
    <glyph glyph-name="uni2074" unicode="&#x2074;" horiz-adv-x="751" 
d="M446 1104v395l-260 -395h260zM45 1073l379 580h160v-549h121v-117h-121v-188h-138v188h-401v86z" />
    <glyph glyph-name="uni2075" unicode="&#x2075;" horiz-adv-x="749" 
d="M637 1653v-121h-383l-29 -236q31 35 83 53.5t106 18.5q122 0 194 -79t72 -204q0 -134 -88.5 -210t-218.5 -76q-127 0 -207.5 59.5t-97.5 177.5h141q17 -121 162 -121q74 0 124 48t50 124t-43.5 125.5t-118.5 49.5q-117 0 -170 -105h-139l61 496h502z" />
    <glyph glyph-name="uni2076" unicode="&#x2076;" horiz-adv-x="753" 
d="M391 1260q-72 0 -123 -49t-51 -121q0 -78 48.5 -125t123.5 -47q73 0 118.5 49.5t45.5 126.5q0 72 -45 119t-117 47zM410 1358q126 0 201 -75t75 -198t-78 -204.5t-217 -81.5q-84 0 -147.5 29.5t-101 83t-56 123t-18.5 153.5q0 91 18.5 171t57 147.5t105 107t154.5 39.5
q117 0 189 -59t92 -171h-129q-17 59 -52.5 86t-99.5 27q-86 0 -137 -77t-57 -202q34 47 87 74t114 27z" />
    <glyph glyph-name="uni2077" unicode="&#x2077;" horiz-adv-x="663" 
d="M616 1653v-111q-120 -151 -190 -350t-70 -393h-143q0 176 73 379.5t187 353.5h-426v121h569z" />
    <glyph glyph-name="uni2078" unicode="&#x2078;" horiz-adv-x="786" 
d="M393 911q43 0 83 12t72 45.5t32 84.5q0 68 -58 107.5t-129 39.5q-70 0 -127 -39.5t-57 -107.5q0 -39 18 -68t47 -44.5t59 -22.5t60 -7zM393 1540q-64 0 -109.5 -29t-45.5 -92q0 -54 43 -86.5t112 -32.5t112.5 32.5t43.5 86.5q0 64 -45 92.5t-111 28.5zM393 1653
q130 0 210.5 -59.5t80.5 -166.5q0 -60 -35.5 -104t-97.5 -66q76 -24 122 -81t46 -134q0 -55 -22 -98t-55.5 -69.5t-78 -44t-86.5 -24.5t-84 -7q-56 0 -109.5 12t-104 38.5t-81 76t-30.5 116.5q0 77 46 134t122 81q-62 22 -97 66t-35 104q0 107 80 166.5t209 59.5z" />
    <glyph glyph-name="uni2079" unicode="&#x2079;" horiz-adv-x="753" 
d="M365 1534q-74 0 -120 -49.5t-46 -126.5q0 -73 44.5 -120.5t116.5 -47.5q71 0 123 49.5t52 122.5q0 76 -48 124t-122 48zM362 1653q163 0 242.5 -107.5t79.5 -283.5q0 -90 -19 -169.5t-57 -147t-105 -107t-155 -39.5q-115 0 -186.5 58t-93.5 169h129q17 -59 53 -86t98 -27
q53 0 92 26.5t60 71.5t30.5 89.5t12.5 93.5q-32 -49 -84.5 -75.5t-116.5 -26.5q-124 0 -200 75t-76 197q0 125 77.5 207t218.5 82z" />
    <glyph glyph-name="uni2080" unicode="&#x2080;" horiz-adv-x="811" 
d="M406 401q-55 0 -95 -26.5t-62 -72t-32 -97t-10 -109.5q0 -59 10 -111t32 -98t62 -73t95 -27q54 0 94 27t61.5 73t32 98t10.5 111q0 58 -10 109.5t-31.5 97t-62 72t-94.5 26.5zM406 522q86 0 152.5 -35t106 -95t59 -135t19.5 -161t-20 -161.5t-59.5 -136t-106 -95.5
t-151.5 -35t-151.5 35t-106.5 95.5t-60 136t-20 161.5t20 161t59.5 135t106 95t152.5 35z" />
    <glyph glyph-name="uni2081" unicode="&#x2081;" horiz-adv-x="503" 
d="M281 520h112v-852h-135v586h-190v108q52 0 84.5 4.5t65 19.5t48 48.5t15.5 85.5z" />
    <glyph glyph-name="uni2082" unicode="&#x2082;" horiz-adv-x="741" 
d="M379 522q125 0 206 -60.5t81 -182.5q0 -41 -14 -78t-31 -61t-53 -53t-58 -43t-68 -42q-39 -23 -57.5 -35t-50 -35.5t-48 -42.5t-32.5 -46t-21 -56h441v-119h-606v47q-1 61 16.5 114.5t41.5 89t65 71t72.5 55t78.5 45.5q102 57 130 79q58 48 58 105q0 65 -41.5 97
t-109.5 32q-149 0 -172 -167h-139q14 134 95 210t216 76z" />
    <glyph glyph-name="uni2083" unicode="&#x2083;" horiz-adv-x="768" 
d="M387 522q126 0 204.5 -55t78.5 -162q0 -65 -33.5 -113.5t-91.5 -72.5q71 -21 113 -72.5t42 -126.5q0 -123 -90 -187.5t-223 -64.5q-137 0 -223 67t-96 195h135q16 -147 184 -147q76 0 124 34t48 111q0 65 -46.5 101.5t-123.5 36.5h-72v102h66q65 0 107 30.5t42 94.5
q0 113 -149 113q-68 0 -109 -30.5t-47 -94.5h-133q7 114 88.5 177.5t204.5 63.5z" />
    <glyph glyph-name="uni2084" unicode="&#x2084;" horiz-adv-x="751" 
d="M449 -20v395l-261 -395h261zM47 -51l379 579h160v-548h121v-117h-121v-189h-137v189h-402v86z" />
    <glyph glyph-name="uni2085" unicode="&#x2085;" horiz-adv-x="749" 
d="M637 522v-121h-383l-29 -235q31 35 83 53.5t106 18.5q122 0 194 -79t72 -204q0 -134 -89 -210.5t-218 -76.5q-127 0 -207.5 60t-97.5 178h141q17 -121 162 -121q74 0 124 48t50 124t-43.5 125t-118.5 49q-118 0 -170 -104h-139l61 495h502z" />
    <glyph glyph-name="uni2086" unicode="&#x2086;" horiz-adv-x="753" 
d="M391 129q-72 0 -123 -49t-51 -123q0 -77 48.5 -123.5t123.5 -46.5q73 0 118.5 49.5t45.5 126.5q0 72 -45 119t-117 47zM410 227q126 0 201 -74.5t75 -197.5t-78 -205t-217 -82q-84 0 -147.5 29.5t-101 83t-56 123t-18.5 153.5q0 91 18.5 171t57 147.5t105 107t154.5 39.5
q117 0 189 -58.5t92 -170.5h-129q-17 59 -52.5 86t-99.5 27q-86 0 -137 -77t-57 -202q34 47 87 73.5t114 26.5z" />
    <glyph glyph-name="uni2087" unicode="&#x2087;" horiz-adv-x="663" 
d="M616 522v-110q-120 -151 -190 -350.5t-70 -393.5h-143q0 176 73 379.5t187 353.5h-426v121h569z" />
    <glyph glyph-name="uni2088" unicode="&#x2088;" horiz-adv-x="786" 
d="M393 -219q31 0 61.5 7t60 22t47.5 44t18 68q0 68 -58.5 108t-128.5 40t-127 -39.5t-57 -108.5q0 -51 32 -84.5t71 -45t81 -11.5zM393 410q-64 0 -109.5 -29t-45.5 -92q0 -54 43 -86.5t112 -32.5t112.5 32.5t43.5 86.5q0 64 -45 92.5t-111 28.5zM393 522q130 0 210.5 -59
t80.5 -166q0 -60 -35.5 -104t-97.5 -66q76 -24 122 -81t46 -134q0 -67 -32 -117.5t-83.5 -76.5t-104.5 -38t-106 -12q-56 0 -109.5 12.5t-103.5 38.5t-81 76t-31 117q0 77 46 134t122 81q-62 22 -97 66t-35 104q0 107 80 166t209 59z" />
    <glyph glyph-name="uni2089" unicode="&#x2089;" horiz-adv-x="753" 
d="M367 403q-74 0 -120 -49.5t-46 -126.5q0 -73 44.5 -120.5t116.5 -47.5q71 0 123 49.5t52 122.5q0 76 -48 124t-122 48zM365 522q163 0 242 -107.5t79 -283.5q0 -90 -19 -169.5t-57 -147t-105 -107t-155 -39.5q-115 0 -186.5 58.5t-93.5 169.5h129q17 -59 53 -86t98 -27
q53 0 92 26.5t60 71.5t30.5 89t12.5 93q-32 -49 -84.5 -75.5t-116.5 -26.5q-124 0 -200 75t-76 197q0 124 78 206.5t219 82.5z" />
    <glyph glyph-name="colonmonetary" unicode="&#x20a1;" horiz-adv-x="1554" 
d="M377 387l336 899q-99 -13 -179.5 -66t-132 -131.5t-79 -174t-27.5 -197.5q0 -181 82 -330zM674 154l393 1050q-83 62 -201 80l-385 -1030q84 -74 193 -100zM688 -219h-153l77 207q-106 23 -200 82l-109 -289h-153l143 383q-99 102 -152 245.5t-53 307.5q0 154 47.5 289.5
t134.5 237.5t219 161t291 59l70 189h156l-76 -201q116 -22 205 -70l100 271h156l-136 -357q160 -145 195 -381h-209q-15 94 -63 170l-353 -942q166 13 278 114.5t138 260.5h209q-35 -251 -216.5 -400t-451.5 -149h-22z" />
    <glyph glyph-name="franc" unicode="&#x20a3;" horiz-adv-x="1331" 
d="M240 256h-220v143h220v1035h942v-170h-738v-469h678v-170h-678v-226h299v-143h-299v-256h-204v256z" />
    <glyph glyph-name="lira" unicode="&#x20a4;" horiz-adv-x="1331" 
d="M715 1464q444 0 483 -415h-223q-26 245 -262 245q-108 0 -173 -75.5t-65 -188.5q0 -49 23 -162h325v-143h-293q15 -92 15 -139h278v-144h-291q-34 -156 -163 -268h854v-174h-1114v154q200 118 237 288h-237v144h241q-8 61 -28 139h-213v143h176q-21 89 -21 156
q0 197 124 318.5t327 121.5z" />
    <glyph glyph-name="uni20A6" unicode="&#x20a6;" horiz-adv-x="1775" 
d="M524 1014h49l-49 80v-80zM524 561h332l-192 309h-140v-309zM1079 561h146v309h-336zM1225 418h-58l58 -94v94zM317 418h-208v143h208v309h-208v144h208v420h224l258 -420h426v420h205v-420h210v-144h-210v-309h210v-143h-210v-418h-224l-260 418h-422v-418h-207v418z" />
    <glyph glyph-name="peseta" unicode="&#x20a7;" horiz-adv-x="3078" 
d="M711 1264h-342v-527h342q127 0 211 68t84 194t-82 195.5t-213 69.5zM160 0v1434h551q109 0 199.5 -26.5t158.5 -78.5t105.5 -136.5t37.5 -193.5q0 -89 -25.5 -161t-70.5 -121.5t-108.5 -83t-137.5 -49t-159 -15.5h-342v-569h-209zM1532 1169v197h194v-311h230v-156h-230
v-620q0 -68 36.5 -105t109.5 -37q20 0 39.5 2.5t31.5 5t13 2.5v-161q-4 -1 -30.5 -6t-52.5 -8t-54 -3q-140 0 -213.5 74.5t-73.5 220.5v635h-178v156h65q113 0 113 114zM2535 1085q187 0 312 -83.5t143 -251.5h-178q-41 184 -283 184q-99 0 -162 -39.5t-63 -108.5
q0 -23 5.5 -42t19 -34t26 -26.5t36 -21t39.5 -15.5t45.5 -12t45 -9t48 -8.5t44.5 -7.5q71 -12 123.5 -25.5t107 -38.5t89 -58t56.5 -85.5t22 -119.5q0 -64 -25 -117t-67.5 -89t-100 -61t-120.5 -36t-132 -11q-134 0 -238 41.5t-168 127t-71 206.5h188q6 -113 88 -168
t209 -55q106 0 180 36t74 115q0 50 -26 85.5t-86.5 58.5t-96 31.5t-115.5 23.5q-14 3 -20 4q-62 12 -108 25t-97.5 36.5t-84.5 54t-54.5 78t-21.5 107.5q0 63 24.5 116t66 88t96 59t112.5 35t118 11z" />
    <glyph glyph-name="uni20A9" unicode="&#x20a9;" horiz-adv-x="2172" 
d="M694 410h-82l41 -144zM571 553h164l76 264h-315zM920 553h333l-75 264h-183zM1038 961h99l-50 174zM1436 553h166l73 264h-313zM1561 410h-84l43 -144zM410 410h-301v143h258l-76 264h-182v144h139l-139 473h213l133 -473h397l135 473h199l135 -473h395l135 473h211
l-137 -473h137v-144h-180l-76 -264h256v-143h-299l-118 -410h-234l-117 410h-415l-117 -410h-232z" />
    <glyph glyph-name="Euro" unicode="&#x20ac;" horiz-adv-x="1277" 
d="M874 1464q179 0 316 -73v-189q-61 42 -139.5 66t-157.5 24q-163 0 -279 -91.5t-172 -239.5h443v-144h-477q-9 -49 -9 -100t9 -101h477v-143h-443q56 -148 172 -240t279 -92q79 0 157.5 24t139.5 66v-188q-133 -74 -316 -74q-245 0 -415 139t-234 365h-178v143h152
q-6 50 -6 101t6 100h-152v144h178q64 226 234 364.5t415 138.5z" />
    <glyph glyph-name="uni20AD" unicode="&#x20ad;" horiz-adv-x="1536" 
d="M295 686h-186v143h186v605h205v-605h118l537 605h256l-532 -605h532v-143h-467l483 -686h-243l-465 657l-219 -241v-416h-205v686z" />
    <glyph glyph-name="uni20AE" unicode="&#x20ae;" horiz-adv-x="1343" 
d="M772 905l279 84v-151l-279 -82v-193l279 82v-149l-279 -84v-412h-205v350l-276 -82v150l276 84v192l-276 -84v152l276 82v420h-485v170h1178v-170h-488v-359z" />
    <glyph glyph-name="uni20B2" unicode="&#x20b2;" horiz-adv-x="1554" 
d="M702 150v1134q-128 -21 -222.5 -107t-139.5 -205t-45 -255q0 -134 44.5 -252.5t139 -205t223.5 -109.5zM846 559v-414q165 18 266 129t131 285h-397zM702 1460v193h144v-191q239 -19 400.5 -156.5t199.5 -359.5h-211q-31 143 -134 233t-255 107v-557h620v-729h-159
l-23 262q-65 -125 -176 -201.5t-262 -89.5v-190h-144v192q-284 29 -449 238t-165 506t165 505.5t449 237.5z" />
    <glyph glyph-name="uni20B4" unicode="&#x20b4;" horiz-adv-x="1521" 
d="M406 293q0 -66 29.5 -115.5t79.5 -77t105.5 -40.5t116.5 -13q208 0 488 127v-186q-83 -44 -224 -77.5t-264 -33.5q-102 0 -194.5 22.5t-173 69.5t-128.5 131.5t-48 196.5q0 71 18 123h-123v143h1346v-143h-985q-43 -53 -43 -127zM1434 829h-1346v146h866q127 62 127 188
q0 80 -46.5 132t-112.5 71.5t-148 19.5q-202 0 -485 -124v184q84 44 223.5 77t261.5 33q103 0 193.5 -22.5t165.5 -68t119 -124t44 -180.5q0 -110 -45 -186h183v-146z" />
    <glyph glyph-name="uni20B8" unicode="&#x20b8;" horiz-adv-x="1343" 
d="M82 1051h1178v-170h-488v-881h-205v881h-485v170zM82 1264v170h1178v-170h-1178z" />
    <glyph glyph-name="uni20B9" unicode="&#x20b9;" horiz-adv-x="1329" 
d="M741 0l-315 569h-317v168h366q104 0 181 46.5t102 134.5h-649v167h649q-26 87 -101.5 133t-181.5 46h-366v170h1112v-170h-324q56 -71 74 -179h250v-167h-250q-21 -136 -107 -218.5t-221 -111.5l334 -588h-236z" />
    <glyph glyph-name="uni20BD" unicode="&#x20bd;" horiz-adv-x="1503" 
d="M920 1264h-342v-527h342q127 0 210.5 68t83.5 194q0 127 -81.5 196t-212.5 69zM901 416v-168h-323v-248h-209v248h-260v168h260v153h-260v168h260v697h551q109 0 199.5 -26.5t158.5 -78.5t105.5 -136.5t37.5 -193.5q0 -111 -38.5 -194.5t-107 -134.5t-158 -76t-197.5 -25
h-342v-153h323z" />
    <glyph glyph-name="uni20BF" unicode="&#x20bf;" horiz-adv-x="1302" 
d="M700 670h-346v-512h344q137 0 224.5 66t87.5 192t-83 190t-227 64zM672 1278h-318v-451h330q125 0 193.5 56.5t68.5 169.5q0 115 -78 170t-196 55zM604 -221v221h-127v-221h-145v221h-182v1434h182v219h145v-219h127v219h146v-219q80 -3 149.5 -26t126.5 -65.5t90 -113
t33 -160.5q0 -102 -47 -185.5t-137 -129.5q118 -39 183.5 -131t65.5 -224q0 -82 -24.5 -148.5t-67 -112t-102 -77t-127 -46t-143.5 -15.5v-221h-146z" />
    <glyph glyph-name="uni2113" unicode="&#x2113;" horiz-adv-x="931" 
d="M555 1305q-60 0 -85.5 -49t-25.5 -123v-478q111 62 164.5 192.5t53.5 285.5q0 172 -107 172zM547 1466q71 0 125 -26.5t85.5 -73t47.5 -103.5t16 -124q0 -106 -21 -202t-65 -183t-118 -156t-173 -111v-192q0 -176 154 -176q29 0 58 3.5t46.5 7t18.5 3.5v-141
q-66 -23 -162 -23q-161 0 -235 84t-74 228v153q-93 -22 -182 -22v141q105 3 182 27v520q0 77 16.5 141.5t51 115.5t93 80t136.5 29z" />
    <glyph glyph-name="uni2116" unicode="&#x2116;" horiz-adv-x="2320" 
d="M1823 1049q-50 0 -89.5 -16t-63.5 -41t-40 -59t-22 -68t-6 -70q0 -37 6 -71t22 -68.5t40 -59.5t63.5 -41t89.5 -16q62 0 107 23t68 62.5t33.5 81.5t10.5 89q0 46 -10.5 88t-33.5 81t-68 62t-107 23zM2171 0h-696v162h696v-162zM1055 324v1110h205v-1434h-222l-684 1094
v-1094h-204v1434h221zM1823 1188q127 0 216.5 -56t130 -143t40.5 -194q0 -81 -24.5 -152t-71 -126t-121.5 -86.5t-170 -31.5q-96 0 -171.5 32t-121.5 87.5t-70 126t-24 150.5t24.5 150t71.5 124.5t122 86.5t169 32z" />
    <glyph glyph-name="trademark" unicode="&#x2122;" horiz-adv-x="1875" 
d="M150 1434h645v-121h-252v-692h-144v692h-249v121zM893 1434h172l244 -619l241 619h176v-813h-145v555l-217 -555h-109l-219 555v-555h-143v813z" />
    <glyph glyph-name="estimated" unicode="&#x212e;" horiz-adv-x="1609" 
d="M313 1051v-303h985v299q0 57 -30 104q-182 264 -463 264q-284 0 -463 -266q-29 -47 -29 -98zM1487 717v-29h-1174v-299q0 -63 33 -110q91 -129 202 -195t257 -66q272 0 436 236h111q-91 -133 -230.5 -209t-316.5 -76q-156 0 -286 61.5t-215 165.5t-132 238.5t-47 282.5
q0 149 47 284t132 238.5t215 165t286 61.5q157 0 287.5 -61.5t215.5 -165t132 -238.5t47 -284z" />
    <glyph glyph-name="uni2150" unicode="&#x2150;" horiz-adv-x="1671" 
d="M150 0l968 1434h176l-966 -1434h-178zM1032 823h570v-110q-121 -151 -191 -350.5t-70 -393.5h-143q0 176 73 379.5t187 353.5h-426v121zM281 1464h112v-852h-135v586h-190v109q52 0 84.5 4.5t65 19.5t48 48t15.5 85z" />
    <glyph glyph-name="uni2151" unicode="&#x2151;" horiz-adv-x="1679" 
d="M1292 705q-74 0 -120 -50t-46 -127q0 -73 44.5 -120.5t117.5 -47.5q71 0 122.5 49.5t51.5 122.5q0 76 -48 124.5t-122 48.5zM1290 823q163 0 242.5 -107.5t79.5 -283.5q0 -90 -19 -169.5t-57 -147t-105 -107t-155 -39.5q-115 0 -187 58.5t-94 169.5h129q17 -59 53 -86
t99 -27q53 0 92 26.5t59.5 71.5t30 89.5t12.5 93.5q-32 -49 -84.5 -76t-115.5 -27q-124 0 -200.5 75.5t-76.5 197.5q0 124 78 206t219 82zM281 1464h112v-852h-135v586h-190v109q52 0 84.5 4.5t65 19.5t48 48t15.5 85zM147 0l969 1434h176l-966 -1434h-179z" />
    <glyph glyph-name="uni2152" unicode="&#x2152;" horiz-adv-x="2115" 
d="M1710 702q-55 0 -95 -26.5t-62 -72t-32 -97t-10 -109.5q0 -59 10 -111t32 -98t62 -73t95 -27q54 0 94 27t62 73t32.5 98t10.5 111q0 58 -10 109.5t-32 97t-62 72t-95 26.5zM1094 821h112v-852h-135v586h-190v109q52 0 84.5 4.5t65 19.5t48 48t15.5 85zM1710 823
q86 0 152.5 -35t106 -95t59.5 -135t20 -161t-20 -161.5t-60 -136t-106.5 -95.5t-151.5 -35t-151.5 35t-106.5 95.5t-60 136t-20 161.5t20 161t59.5 135t106 95t152.5 35zM281 1464h112v-852h-135v586h-190v109q52 0 84.5 4.5t65 19.5t48 48t15.5 85zM98 0l969 1434h176
l-967 -1434h-178z" />
    <glyph glyph-name="onethird" unicode="&#x2153;" horiz-adv-x="1710" 
d="M281 1464h112v-852h-135v586h-190v109q52 0 84.5 4.5t65 19.5t48 48t15.5 85zM150 0l968 1434h176l-966 -1434h-178zM1331 823q126 0 204.5 -55t78.5 -162q0 -65 -33.5 -113.5t-91.5 -72.5q71 -21 113.5 -73t42.5 -126q0 -123 -90.5 -187.5t-223.5 -64.5q-137 0 -223 67
t-96 195h135q16 -147 184 -147q76 0 124 34t48 111q0 65 -46.5 101.5t-123.5 36.5h-71v102h65q65 0 107.5 30.5t42.5 94.5q0 113 -150 113q-68 0 -109 -30.5t-47 -94.5h-133q7 114 88.5 177.5t204.5 63.5z" />
    <glyph glyph-name="twothirds" unicode="&#x2154;" horiz-adv-x="1947" 
d="M379 1466q125 0 206 -60.5t81 -182.5q0 -41 -14 -78t-31 -61t-53 -53t-58 -43t-68 -42q-39 -23 -57.5 -35t-50 -35.5t-48 -42.5t-32.5 -46t-21 -56h441v-119h-606v47q-1 61 16.5 114.5t41.5 89t65 71t72.5 55t78.5 45.5q103 58 132 82q56 47 56 103q0 65 -41.5 97
t-109.5 32q-149 0 -172 -168h-139q14 134 95 210t216 76zM387 0l969 1434h176l-967 -1434h-178zM1567 823q126 0 204 -54.5t78 -162.5q0 -65 -33.5 -113.5t-91.5 -72.5q71 -21 113.5 -73t42.5 -126q0 -123 -90 -187.5t-223 -64.5q-137 0 -223.5 67t-96.5 195h135
q16 -147 185 -147q76 0 124 34t48 111q0 65 -46.5 101.5t-123.5 36.5h-72v102h66q65 0 107 30.5t42 94.5q0 113 -149 113q-68 0 -109 -30.5t-47 -94.5h-133q7 114 88.5 177.5t204.5 63.5z" />
    <glyph glyph-name="uni2155" unicode="&#x2155;" horiz-adv-x="1691" 
d="M281 1464h112v-852h-135v586h-190v109q52 0 84.5 4.5t65 19.5t48 48t15.5 85zM150 0l968 1434h176l-966 -1434h-178zM1079 823h502v-121h-383l-29 -235q31 35 83 53.5t106 18.5q122 0 194 -79t72 -204q0 -134 -89 -210.5t-218 -76.5q-127 0 -207.5 60t-97.5 178h141
q9 -63 52.5 -92t109.5 -29q74 0 124 48t50 124t-43.5 125t-118.5 49q-118 0 -170 -104h-139z" />
    <glyph glyph-name="uni2156" unicode="&#x2156;" horiz-adv-x="1929" 
d="M379 1466q125 0 206 -60.5t81 -182.5q0 -41 -14 -78t-31 -61t-53 -53t-58 -43t-68 -42q-39 -23 -57.5 -35t-50 -35.5t-48 -42.5t-32.5 -46t-21 -56h441v-119h-606v47q-1 61 16.5 114.5t41.5 89t65 71t72.5 55t78.5 45.5q103 58 132 82q56 47 56 103q0 65 -41.5 97
t-109.5 32q-149 0 -172 -168h-139q14 134 95 210t216 76zM387 0l969 1434h176l-967 -1434h-178zM1315 823h502v-121h-383l-29 -235q31 35 82.5 53.5t105.5 18.5q123 0 195 -79t72 -204q0 -134 -89 -210.5t-219 -76.5q-127 0 -207.5 60t-97.5 178h142q17 -121 161 -121
q74 0 124 48t50 124t-43 125t-118 49q-118 0 -170 -104h-140z" />
    <glyph glyph-name="uni2157" unicode="&#x2157;" horiz-adv-x="1955" 
d="M387 1466q126 0 204.5 -55t78.5 -162q0 -65 -33.5 -113.5t-91.5 -72.5q71 -21 113 -72.5t42 -126.5q0 -123 -90 -187.5t-223 -64.5q-137 0 -223 67t-96 195h135q16 -147 184 -147q76 0 124 34t48 111q0 65 -46.5 101.5t-123.5 36.5h-72v102h66q65 0 107 30.5t42 94.5
q0 113 -149 113q-68 0 -109 -30.5t-47 -94.5h-133q7 114 88.5 177.5t204.5 63.5zM414 0l968 1434h177l-967 -1434h-178zM1341 823h502v-121h-383l-28 -235q31 35 82.5 53.5t105.5 18.5q122 0 194 -79t72 -204q0 -134 -89 -210.5t-218 -76.5q-127 0 -207.5 60t-97.5 178h141
q17 -121 162 -121q74 0 124 48t50 124t-43.5 125t-118.5 49q-118 0 -170 -104h-139z" />
    <glyph glyph-name="uni2158" unicode="&#x2158;" horiz-adv-x="1941" 
d="M188 918h261v395zM47 801v86l379 579h160v-548h121v-117h-121v-189h-137v189h-402zM397 0l969 1434h176l-967 -1434h-178zM1327 823h502v-121h-383l-29 -235q31 35 83 53.5t106 18.5q122 0 194 -79t72 -204q0 -134 -89 -210.5t-218 -76.5q-127 0 -207.5 60t-97.5 178h141
q17 -121 162 -121q74 0 124 48t50 124t-43.5 125t-118.5 49q-118 0 -170 -104h-139z" />
    <glyph glyph-name="uni2159" unicode="&#x2159;" horiz-adv-x="1697" 
d="M1335 430q-72 0 -123 -49t-51 -121q0 -78 48.5 -125t123.5 -47q73 0 118.5 49.5t45.5 126.5q0 72 -45 119t-117 47zM1354 528q126 0 201 -74.5t75 -197.5t-78 -205t-217 -82q-84 0 -147.5 29.5t-101 83t-56 123t-18.5 153.5q0 91 19 171t57 147.5t105 107t155 39.5
q117 0 188.5 -58.5t91.5 -170.5h-129q-18 59 -52.5 86t-98.5 27q-87 0 -138 -77.5t-57 -201.5q34 47 87 73.5t114 26.5zM281 1464h112v-852h-135v586h-190v109q52 0 84.5 4.5t65 19.5t48 48t15.5 85zM150 0l968 1434h176l-966 -1434h-178z" />
    <glyph glyph-name="uni215A" unicode="&#x215a;" horiz-adv-x="1943" 
d="M1579 430q-72 0 -123 -49t-51 -121q0 -78 48.5 -125t123.5 -47q73 0 118.5 49.5t45.5 126.5q0 72 -45 119t-117 47zM1597 528q126 0 201.5 -74.5t75.5 -197.5t-78 -205t-217 -82q-84 0 -147.5 29.5t-101.5 83t-56.5 123t-18.5 153.5q0 91 19 171t57 147.5t105 107
t155 39.5q117 0 189 -58.5t92 -170.5h-129q-17 59 -52.5 86t-99.5 27q-86 0 -137 -77t-57 -202q34 47 86.5 73.5t113.5 26.5zM135 1466h502v-120h-383l-29 -236q31 35 83 53.5t106 18.5q122 0 194 -79t72 -204q0 -134 -89 -210.5t-218 -76.5q-127 0 -207.5 60t-97.5 178h141
q17 -121 162 -121q74 0 124 48t50 124t-43.5 125t-118.5 49q-118 0 -170 -104h-139zM395 0l969 1434h176l-967 -1434h-178z" />
    <glyph glyph-name="oneeighth" unicode="&#x215b;" horiz-adv-x="1730" 
d="M1337 711q-64 0 -109.5 -29t-45.5 -92q0 -54 43 -86.5t112 -32.5t112.5 32.5t43.5 86.5q0 64 -45 92.5t-111 28.5zM1337 82q31 0 61.5 7t60 22t47.5 44t18 68q0 68 -58.5 108t-128.5 40t-127 -39.5t-57 -108.5q0 -51 32 -84.5t71 -45t81 -11.5zM1337 823q130 0 210.5 -59
t80.5 -166q0 -60 -35.5 -104t-97.5 -66q76 -24 122 -81t46 -134q0 -67 -32 -117.5t-83.5 -76.5t-104.5 -38t-106 -12q-56 0 -109.5 12.5t-103.5 38.5t-81 76t-31 117q0 77 46 134t122 81q-61 22 -96 66t-35 104q0 107 79.5 166t208.5 59zM281 1464h112v-852h-135v586h-190
v109q52 0 84.5 4.5t65 19.5t48 48t15.5 85zM150 0l968 1434h176l-966 -1434h-178z" />
    <glyph glyph-name="threeeighths" unicode="&#x215c;" horiz-adv-x="1992" 
d="M1599 711q-64 0 -109.5 -29t-45.5 -92q0 -54 43 -86.5t112 -32.5t112.5 32.5t43.5 86.5q0 64 -45 92.5t-111 28.5zM1599 82q31 0 61.5 7t60 22t47.5 44t18 68q0 68 -58.5 108t-128.5 40t-127 -39.5t-57 -108.5q0 -51 32 -84.5t71 -45t81 -11.5zM1599 823q130 0 210.5 -59
t80.5 -166q0 -60 -35.5 -104t-97.5 -66q76 -24 122 -81t46 -134q0 -67 -32 -117.5t-83.5 -76.5t-104.5 -38t-106 -12q-56 0 -109.5 12.5t-103.5 38.5t-81 76t-31 117q0 77 46 134t122 81q-61 22 -96 66t-35 104q0 107 79.5 166t208.5 59zM387 1466q126 0 204.5 -55
t78.5 -162q0 -65 -33.5 -113.5t-91.5 -72.5q71 -21 113 -72.5t42 -126.5q0 -123 -90 -187.5t-223 -64.5q-137 0 -223 67t-96 195h135q16 -147 184 -147q76 0 124 34t48 111q0 65 -46.5 101.5t-123.5 36.5h-72v102h66q65 0 107 30.5t42 94.5q0 113 -149 113q-68 0 -109 -30.5
t-47 -94.5h-133q7 114 88.5 177.5t204.5 63.5zM414 0l968 1434h177l-967 -1434h-178z" />
    <glyph glyph-name="fiveeighths" unicode="&#x215d;" horiz-adv-x="1974" 
d="M1581 711q-64 0 -110 -29t-46 -92q0 -54 43.5 -86.5t112.5 -32.5t112.5 32.5t43.5 86.5q0 64 -45 92.5t-111 28.5zM1581 82q43 0 82.5 11.5t71.5 45t32 84.5q0 68 -58 108t-128 40t-127 -39.5t-57 -108.5q0 -51 32 -84.5t71 -45t81 -11.5zM1581 823q130 0 210.5 -59
t80.5 -166q0 -60 -35.5 -104t-97.5 -66q76 -24 122 -81t46 -134q0 -67 -32 -117.5t-83.5 -76.5t-104.5 -38t-106 -12q-56 0 -109.5 12.5t-104 38.5t-81.5 76t-31 117q0 77 46 134t122 81q-61 22 -96 66t-35 104q0 107 80 166t209 59zM135 1466h502v-120h-383l-29 -236
q31 35 83 53.5t106 18.5q122 0 194 -79t72 -204q0 -134 -89 -210.5t-218 -76.5q-127 0 -207.5 60t-97.5 178h141q17 -121 162 -121q74 0 124 48t50 124t-43.5 125t-118.5 49q-118 0 -170 -104h-139zM395 0l969 1434h176l-967 -1434h-178z" />
    <glyph glyph-name="seveneighths" unicode="&#x215e;" horiz-adv-x="1746" 
d="M1354 711q-64 0 -110 -29t-46 -92q0 -54 43.5 -86.5t112.5 -32.5t112 32.5t43 86.5q0 64 -45 92.5t-110 28.5zM1354 82q43 0 82.5 11.5t71.5 45t32 84.5q0 68 -58 108t-128 40t-127.5 -39.5t-57.5 -108.5q0 -51 32 -84.5t71.5 -45t81.5 -11.5zM1354 823q130 0 210.5 -59
t80.5 -166q0 -60 -36 -104t-98 -66q76 -24 122 -81t46 -134q0 -67 -32 -117.5t-83 -76.5t-104 -38t-106 -12q-56 0 -109.5 12.5t-104 38.5t-81.5 76t-31 117q0 77 46 134t122 81q-61 22 -96 66t-35 104q0 107 80 166t209 59zM47 1466h569v-110q-120 -151 -190 -350.5
t-70 -393.5h-143q0 176 73 380t187 354h-426v120zM166 0l969 1434h176l-967 -1434h-178z" />
    <glyph glyph-name="uni215F" unicode="&#x215f;" horiz-adv-x="944" 
d="M281 1464h112v-852h-135v586h-190v109q52 0 84.5 4.5t65 19.5t48 48t15.5 85zM1118 1434h176l-966 -1434h-178z" />
    <glyph glyph-name="uni2189" unicode="&#x2189;" horiz-adv-x="1931" 
d="M406 1346q-54 0 -94.5 -27t-62.5 -72.5t-32 -97t-10 -109.5q0 -59 10 -111t32 -98t62 -73t95 -27q54 0 94 27t61.5 73t32 98t10.5 111q0 58 -10 109.5t-31.5 97t-62 72.5t-94.5 27zM403 0l969 1434h176l-966 -1434h-179zM1550 823q126 0 204.5 -55t78.5 -162
q0 -65 -33.5 -113.5t-91.5 -72.5q71 -21 113.5 -73t42.5 -126q0 -123 -90.5 -187.5t-223.5 -64.5q-137 0 -223 67t-96 195h135q16 -147 184 -147q76 0 124 34t48 111q0 65 -46.5 101.5t-123.5 36.5h-71v102h65q65 0 107.5 30.5t42.5 94.5q0 113 -150 113q-67 0 -108 -30.5
t-47 -94.5h-134q7 114 88.5 177.5t204.5 63.5zM406 1466q86 0 152.5 -35t106 -95t59 -135t19.5 -161t-20 -161.5t-59.5 -136t-106 -95.5t-151.5 -35t-151.5 35t-106.5 95.5t-60 136t-20 161.5t20 161t59.5 135t106 95t152.5 35z" />
    <glyph glyph-name="arrowleft" unicode="&#x2190;" horiz-adv-x="1685" 
d="M20 717l685 686l145 -146l-436 -436h1161v-207h-1161l436 -436l-145 -145z" />
    <glyph glyph-name="arrowup" unicode="&#x2191;" horiz-adv-x="1411" 
d="M20 780l685 684l686 -684l-146 -145l-436 436v-1139h-207v1139l-436 -436z" />
    <glyph glyph-name="arrowright" unicode="&#x2192;" horiz-adv-x="1683" 
d="M831 1257l146 146l684 -686l-684 -684l-146 145l437 436h-1162v207h1162z" />
    <glyph glyph-name="arrowdown" unicode="&#x2193;" horiz-adv-x="1411" 
d="M166 799l436 -437v1139h207v-1139l436 437l146 -146l-686 -684l-685 684z" />
    <glyph glyph-name="arrowboth" unicode="&#x2194;" horiz-adv-x="2490" 
d="M1638 1257l146 146l686 -686l-686 -684l-146 145l439 436h-1663l436 -436l-145 -145l-685 684l685 686l145 -146l-436 -436h1663z" />
    <glyph glyph-name="arrowupdn" unicode="&#x2195;" horiz-adv-x="1411" 
d="M166 322l436 -437v1663l-436 -438l-146 145l685 687l686 -687l-146 -145l-436 438v-1663l436 437l146 -146l-686 -684l-685 684z" />
    <glyph glyph-name="uni2196" unicode="&#x2196;" horiz-adv-x="1372" 
d="M109 86v969h968v-207h-618l805 -805l-146 -145l-805 804v-616h-204z" />
    <glyph glyph-name="uni2197" unicode="&#x2197;" horiz-adv-x="1372" 
d="M297 850v205h969v-969h-207v619l-805 -805l-145 145l804 805h-616z" />
    <glyph glyph-name="uni2198" unicode="&#x2198;" horiz-adv-x="1372" 
d="M1059 350v619h205v-969h-969v205h618l-804 807l143 145z" />
    <glyph glyph-name="uni2199" unicode="&#x2199;" horiz-adv-x="1372" 
d="M109 0v969h204v-619l805 805l146 -145l-805 -805h618v-205h-968z" />
    <glyph glyph-name="uni21A9" unicode="&#x21a9;" horiz-adv-x="2056" 
d="M414 821h1061q110 0 189 78t79 188q0 112 -78.5 190.5t-189.5 78.5h-136v207h136q195 0 334 -140t139 -336q0 -128 -63.5 -237t-172.5 -172.5t-237 -63.5h-1061l436 -436l-145 -145l-685 684l685 686l145 -146z" />
    <glyph glyph-name="uni21AA" unicode="&#x21aa;" horiz-adv-x="2058" 
d="M1642 614h-1060q-128 0 -237 63.5t-172.5 172.5t-63.5 237q0 196 139 336t334 140h135v-207h-135q-111 0 -190 -78.5t-79 -190.5q0 -110 79 -188t190 -78h1060l-436 436l144 146l686 -686l-686 -684l-144 145z" />
    <glyph glyph-name="arrowdblleft" unicode="&#x21d0;" horiz-adv-x="1685" 
d="M23 717l684 686l145 -146l-240 -241h965v-205h-1171l-93 -94l93 -92h1171v-205h-965l240 -242l-145 -145z" />
    <glyph glyph-name="arrowdblright" unicode="&#x21d2;" horiz-adv-x="1685" 
d="M834 1257l145 146l684 -686l-684 -684l-145 145l239 242h-964v205h1171l92 92l-92 94h-1171v205h964z" />
    <glyph glyph-name="arrowdblboth" unicode="&#x21d4;" horiz-adv-x="2539" 
d="M2226 717l-92 94h-1731l-92 -94l92 -92h1731zM1688 1257l145 146l684 -686l-684 -684l-145 145l239 242h-1317l240 -242l-145 -145l-685 684l685 686l145 -146l-240 -241h1317z" />
    <glyph glyph-name="partialdiff" unicode="&#x2202;" horiz-adv-x="1267" 
d="M612 791q-149 0 -231 -93t-82 -243q0 -142 80.5 -233t218.5 -91q137 0 219 77.5t111 213.5q10 91 -27.5 175.5t-115 139t-173.5 54.5zM582 942q112 0 210.5 -50.5t157.5 -148.5q-18 184 -109.5 317.5t-238.5 201t-334 67.5v158q193 0 355.5 -55t281.5 -157.5
t185.5 -259.5t66.5 -353q0 -110 -17 -207t-57.5 -187.5t-103 -155.5t-159.5 -104t-220 -39q-218 0 -354.5 137.5t-136.5 360.5q0 212 128 343.5t345 131.5z" />
    <glyph glyph-name="product" unicode="&#x220f;" horiz-adv-x="1454" 
d="M150 1434h1155v-1434h-207v1262h-744v-1262h-204v1434z" />
    <glyph glyph-name="summation" unicode="&#x2211;" horiz-adv-x="1406" 
d="M150 1434h1107v-170h-823l514 -547l-506 -547h815v-170h-1107v156l540 561l-540 561v156z" />
    <glyph glyph-name="minus" unicode="&#x2212;" horiz-adv-x="1001" 
d="M150 508v182h702v-182h-702z" />
    <glyph glyph-name="uni2215" unicode="&#x2215;" horiz-adv-x="1142" 
d="M965 1434h178l-965 -1434h-178z" />
    <glyph glyph-name="radical" unicode="&#x221a;" horiz-adv-x="1540" 
d="M936 1841h584v-172h-433l-421 -1700h-246l-311 1155h210l224 -907z" />
    <glyph glyph-name="infinity" unicode="&#x221e;" horiz-adv-x="1892" 
d="M518 958q-99 0 -165 -71t-66 -170q0 -98 66 -170t165 -72q32 0 64 9t55.5 18.5t53 34t44.5 37.5t44.5 48t38 45.5t38.5 49.5q-29 37 -38.5 49t-38 46t-44 47.5t-45 37.5t-53 34t-55.5 18.5t-64 8.5zM1374 958q-38 0 -72.5 -8.5t-68 -30.5t-55.5 -38.5t-54 -53.5
t-44.5 -52.5t-45.5 -57.5q30 -39 38.5 -49.5t38 -45.5t44.5 -48t45 -37.5t53.5 -34t55.5 -18.5t65 -9q99 0 164.5 72t65.5 170q0 99 -65.5 170t-164.5 71zM506 1116q243 0 440 -270q197 270 440 270q169 0 282.5 -114t113.5 -285t-113.5 -285.5t-282.5 -114.5
q-242 0 -440 271q-198 -271 -440 -271q-169 0 -283 114.5t-114 285.5t114 285t283 114z" />
    <glyph glyph-name="integral" unicode="&#x222b;" horiz-adv-x="899" 
d="M733 1464q42 0 109 -16v-166q-42 14 -88 14q-65 0 -100 -36.5t-42 -92.5l-135 -1310q-12 -120 -91.5 -191.5t-217.5 -71.5q-58 0 -111 17v164q45 -15 88 -15q65 0 100 37.5t40 93.5l137 1311q11 119 91 190.5t220 71.5z" />
    <glyph glyph-name="approxequal" unicode="&#x2248;" horiz-adv-x="1404" 
d="M453 860q-82 0 -114 -53t-32 -148h-157q0 103 30 184t98.5 133t167.5 52q60 0 120 -22t108.5 -54t94.5 -63.5t95.5 -53.5t93.5 -22q146 0 142 199h155q0 -73 -16 -137t-48 -116.5t-87 -83t-127 -30.5q-58 0 -118.5 22t-111.5 53.5t-99.5 63.5t-99.5 54t-95 22zM453 377
q-82 0 -114 -53t-32 -148h-157q0 103 30 184t98.5 133t167.5 52q60 0 120 -22t108.5 -53t94.5 -62.5t95.5 -53.5t93.5 -22q146 0 142 196h155q0 -72 -16 -136t-48 -116.5t-87 -83t-127 -30.5q-58 0 -118.5 22t-111.5 54t-99.5 63.5t-99.5 53.5t-95 22z" />
    <glyph glyph-name="notequal" unicode="&#x2260;" horiz-adv-x="1294" 
d="M750 915l172 252h176l-172 -252h184v-170h-299l-184 -272h483v-170h-598l-172 -254h-178l172 254h-184v170h301l184 272h-485v170h600z" />
    <glyph glyph-name="lessequal" unicode="&#x2264;" horiz-adv-x="1189" 
d="M1042 1313v-189l-702 -325l702 -326v-186l-933 418v188zM1042 178v-178h-933v178h933z" />
    <glyph glyph-name="greaterequal" unicode="&#x2265;" horiz-adv-x="1189" 
d="M150 1313l933 -420v-188l-933 -418v186l698 326l-698 325v189zM150 178h933v-178h-933v178z" />
    <glyph glyph-name="uni2460" unicode="&#x2460;" horiz-adv-x="1609" 
d="M805 1315q-123 0 -234.5 -47.5t-191.5 -128t-127 -191t-47 -231.5q0 -123 48 -234t128.5 -190.5t191.5 -126.5t232 -47q122 0 233 47.5t191 128t127 191t47 231.5q0 123 -48 234t-128.5 190.5t-191 126.5t-230.5 47zM793 1143h112v-852h-135v586h-190v108q40 0 67.5 2.5
t57.5 11.5t47.5 25.5t29 46.5t11.5 72zM805 1434q145 0 278 -57t229 -153t153 -229t57 -278t-57 -278t-153 -229t-229 -153t-278 -57q-146 0 -279 57t-229 153t-152.5 228.5t-56.5 278.5t56.5 278.5t152.5 228.5t229 153t279 57z" />
    <glyph glyph-name="uni2461" unicode="&#x2461;" horiz-adv-x="1609" 
d="M805 1315q-123 0 -234.5 -47.5t-191.5 -128t-127 -191t-47 -231.5q0 -123 48 -234t128.5 -190.5t191.5 -126.5t232 -47q122 0 233 47.5t191 128t127 191t47 231.5q0 123 -48 234t-128.5 190.5t-191 126.5t-230.5 47zM813 1143q125 0 206 -60t81 -182q0 -35 -7.5 -64.5
t-26.5 -56.5t-34 -44.5t-48.5 -41.5t-49.5 -35t-57 -36q-46 -26 -72.5 -43.5t-60 -45t-52 -58t-24.5 -66.5h438v-119h-604v43q-1 62 16 115.5t41 89.5t64.5 71t72 55t78.5 46q106 58 138 86q51 46 51 100q0 65 -41 97t-109 32q-149 0 -172 -168h-139q12 132 93.5 208.5
t217.5 76.5zM805 1434q145 0 278 -57t229 -153t153 -229t57 -278t-57 -278t-153 -229t-229 -153t-278 -57q-146 0 -279 57t-229 153t-152.5 228.5t-56.5 278.5t56.5 278.5t152.5 228.5t229 153t279 57z" />
    <glyph glyph-name="uni2462" unicode="&#x2462;" horiz-adv-x="1609" 
d="M805 1315q-123 0 -234.5 -47.5t-191.5 -128t-127 -191t-47 -231.5q0 -123 48 -234t128.5 -190.5t191.5 -126.5t232 -47q122 0 233 47.5t191 128t127 191t47 231.5q0 123 -48 234t-128.5 190.5t-191 126.5t-230.5 47zM805 1434q145 0 278 -57t229 -153t153 -229t57 -278
t-57 -278t-153 -229t-229 -153t-278 -57q-146 0 -279 57t-229 153t-152.5 228.5t-56.5 278.5t56.5 278.5t152.5 228.5t229 153t279 57zM807 1143q128 0 206.5 -54t78.5 -163q0 -63 -34.5 -112t-92.5 -73q71 -21 113 -72.5t42 -125.5q0 -123 -90 -187.5t-223 -64.5
q-137 0 -223.5 66.5t-96.5 195.5h136q16 -147 184 -147q76 0 124 34t48 111q0 65 -46.5 101t-123.5 36h-72v100h66q65 0 107 31.5t42 93.5q0 115 -149 115q-68 0 -109 -31t-45 -96h-135q9 115 90 178.5t203 63.5z" />
    <glyph glyph-name="uni2463" unicode="&#x2463;" horiz-adv-x="1609" 
d="M836 596v395l-258 -395h258zM805 1315q-123 0 -234.5 -47.5t-191.5 -128t-127 -191t-47 -231.5q0 -123 48 -234t128.5 -190.5t191.5 -126.5t232 -47q122 0 233 47.5t191 128t127 191t47 231.5q0 123 -48 234t-128.5 190.5t-191 126.5t-230.5 47zM434 565l379 578h160
v-547h121v-117h-121v-188h-137v188h-402v86zM805 1434q145 0 278 -57t229 -153t153 -229t57 -278t-57 -278t-153 -229t-229 -153t-278 -57q-146 0 -279 57t-229 153t-152.5 228.5t-56.5 278.5t56.5 278.5t152.5 228.5t229 153t279 57z" />
    <glyph glyph-name="uni2464" unicode="&#x2464;" horiz-adv-x="1609" 
d="M805 1315q-123 0 -234.5 -47.5t-191.5 -128t-127 -191t-47 -231.5q0 -123 48 -234t128.5 -190.5t191.5 -126.5t232 -47q122 0 233 47.5t191 128t127 191t47 231.5q0 123 -48 234t-128.5 190.5t-191 126.5t-230.5 47zM805 1434q145 0 278 -57t229 -153t153 -229t57 -278
t-57 -278t-153 -229t-229 -153t-278 -57q-146 0 -279 57t-229 153t-152.5 228.5t-56.5 278.5t56.5 278.5t152.5 228.5t229 153t279 57zM504 649l61 494h500v-119h-381l-29 -236q30 34 82.5 53t106.5 19q123 0 194.5 -78.5t71.5 -203.5q0 -134 -89.5 -210.5t-217.5 -76.5
q-127 0 -207.5 59.5t-97.5 177.5h141q9 -63 52.5 -92.5t109.5 -29.5q73 0 123.5 48.5t50.5 125.5q0 76 -43.5 125t-118.5 49q-117 0 -170 -105h-139z" />
    <glyph glyph-name="uni2465" unicode="&#x2465;" horiz-adv-x="1609" 
d="M805 1315q-123 0 -234.5 -47.5t-191.5 -128t-127 -191t-47 -231.5q0 -123 48 -234t128.5 -190.5t191.5 -126.5t232 -47q122 0 233 47.5t191 128t127 191t47 231.5q0 123 -48 234t-128.5 190.5t-191 126.5t-230.5 47zM819 752q-71 0 -122.5 -49.5t-51.5 -122.5
q0 -77 48 -124.5t122 -47.5t119 50t45 128q0 72 -44 119t-116 47zM805 1434q145 0 278 -57t229 -153t153 -229t57 -278t-57 -278t-153 -229t-229 -153t-278 -57q-146 0 -279 57t-229 153t-152.5 228.5t-56.5 278.5t56.5 278.5t152.5 228.5t229 153t279 57zM838 850
q125 0 200.5 -74.5t75.5 -197.5t-78.5 -205t-216.5 -82q-85 0 -148.5 29.5t-101 83t-55.5 122t-18 152.5q0 92 18.5 172t56.5 147.5t104.5 106.5t155.5 39q118 0 189.5 -58t91.5 -172h-131q-15 59 -51 86t-99 27q-92 0 -140.5 -80t-53.5 -198q32 49 85.5 75.5t115.5 26.5z
" />
    <glyph glyph-name="uni2466" unicode="&#x2466;" horiz-adv-x="1609" 
d="M805 1315q-123 0 -234.5 -47.5t-191.5 -128t-127 -191t-47 -231.5q0 -123 48 -234t128.5 -190.5t191.5 -126.5t232 -47q122 0 233 47.5t191 128t127 191t47 231.5q0 123 -48 234t-128.5 190.5t-191 126.5t-230.5 47zM805 1434q145 0 278 -57t229 -153t153 -229t57 -278
t-57 -278t-153 -229t-229 -153t-278 -57q-146 0 -279 57t-229 153t-152.5 228.5t-56.5 278.5t56.5 278.5t152.5 228.5t229 153t279 57zM520 1143h570v-109q-121 -152 -191 -350.5t-70 -392.5h-143q0 176 73 379.5t187 353.5h-426v119z" />
    <glyph glyph-name="uni2467" unicode="&#x2467;" horiz-adv-x="1609" 
d="M805 1315q-123 0 -234.5 -47.5t-191.5 -128t-127 -191t-47 -231.5q0 -123 48 -234t128.5 -190.5t191.5 -126.5t232 -47q122 0 233 47.5t191 128t127 191t47 231.5q0 123 -48 234t-128.5 190.5t-191 126.5t-230.5 47zM803 401q31 0 61.5 7.5t59.5 23t47 45t18 68.5
q0 68 -57.5 106.5t-128.5 38.5q-70 0 -127.5 -38.5t-57.5 -106.5q0 -51 32 -85t71.5 -46.5t81.5 -12.5zM803 1032q-63 0 -108.5 -29t-45.5 -92q0 -55 42.5 -86.5t111.5 -31.5q71 0 113 31.5t42 86.5q0 64 -45 92.5t-110 28.5zM805 1434q145 0 278 -57t229 -153t153 -229
t57 -278t-57 -278t-153 -229t-229 -153t-278 -57q-146 0 -279 57t-229 153t-152.5 228.5t-56.5 278.5t56.5 278.5t152.5 228.5t229 153t279 57zM803 1143q130 0 210.5 -58t80.5 -165q0 -60 -35 -104t-98 -68q76 -22 122.5 -79t46.5 -134q0 -55 -22 -98.5t-56 -70t-78.5 -44
t-86.5 -24.5t-84 -7q-43 0 -86 7t-87 25t-77.5 44.5t-54.5 70t-21 97.5q0 78 46.5 134.5t123.5 78.5q-63 24 -98 68t-35 104q0 107 80 165t209 58z" />
    <glyph glyph-name="uni2468" unicode="&#x2468;" horiz-adv-x="1609" 
d="M805 1315q-123 0 -234.5 -47.5t-191.5 -128t-127 -191t-47 -231.5q0 -123 48 -234t128.5 -190.5t191.5 -126.5t232 -47q122 0 233 47.5t191 128t127 191t47 231.5q0 123 -48 234t-128.5 190.5t-191 126.5t-230.5 47zM815 1026q-74 0 -119 -49.5t-45 -128.5q0 -72 44 -119
t116 -47q71 0 122.5 49.5t51.5 122.5q0 76 -48 124t-122 48zM805 1434q145 0 278 -57t229 -153t153 -229t57 -278t-57 -278t-153 -229t-229 -153t-278 -57q-146 0 -279 57t-229 153t-152.5 228.5t-56.5 278.5t56.5 278.5t152.5 228.5t229 153t279 57zM813 1143
q163 0 242.5 -107t79.5 -282q0 -72 -11.5 -137t-37 -125.5t-63.5 -104.5t-95.5 -70t-128.5 -26q-115 0 -187 58.5t-94 168.5h129q17 -59 53 -85.5t99 -26.5q43 0 77 18.5t55 47t35 67t20 74t7 73.5q-32 -49 -84.5 -75.5t-115.5 -26.5q-124 0 -200.5 75t-76.5 195
q0 126 78 207.5t219 81.5z" />
    <glyph glyph-name="uni24EA" unicode="&#x24ea;" horiz-adv-x="1609" 
d="M803 1024q-71 0 -117.5 -47.5t-64 -113t-17.5 -144.5q0 -59 10.5 -111.5t32.5 -98.5t62 -73.5t94 -27.5q55 0 95.5 27.5t62.5 73.5t32.5 98.5t10.5 111.5q0 79 -17.5 144.5t-64.5 113t-119 47.5zM803 1143q86 0 152.5 -34.5t106 -94.5t59.5 -134.5t20 -160.5t-20 -161.5
t-59.5 -136t-106 -95.5t-152.5 -35q-69 0 -125.5 23t-95 63t-65 95t-38.5 117t-12 130q0 86 19.5 160.5t58.5 134.5t105.5 94.5t152.5 34.5zM805 1434q145 0 278 -57t229 -153t153 -229t57 -278t-57 -278t-153 -229t-229 -153t-278 -57q-146 0 -279 57t-229 153
t-152.5 228.5t-56.5 278.5t56.5 278.5t152.5 228.5t229 153t279 57zM805 1315q-123 0 -234.5 -47.5t-191.5 -128t-127 -191t-47 -231.5q0 -123 48 -234t128.5 -190.5t191.5 -126.5t232 -47q122 0 233 47.5t191 128t127 191t47 231.5q0 123 -48 234t-128.5 190.5t-191 126.5
t-230.5 47z" />
    <glyph glyph-name="uni24FF" unicode="&#x24ff;" horiz-adv-x="1609" 
d="M805 1434q145 0 278 -57t229 -153t153 -229t57 -278t-57 -278t-153 -229t-229 -153t-278 -57q-146 0 -279 57t-229 153t-152.5 228.5t-56.5 278.5t56.5 278.5t152.5 228.5t229 153t279 57zM803 1143q-86 0 -152.5 -34.5t-105.5 -94.5t-58.5 -134.5t-19.5 -160.5
q0 -68 12 -130t38.5 -117t65 -95t95 -63t125.5 -23q86 0 152.5 35t106 95.5t59.5 136t20 161.5t-20 160.5t-59.5 134.5t-106 94.5t-152.5 34.5zM803 1024q72 0 119 -47.5t64.5 -113t17.5 -144.5q0 -59 -10.5 -111.5t-32.5 -98.5t-62.5 -73.5t-95.5 -27.5q-54 0 -94 27.5
t-62 73.5t-32.5 98.5t-10.5 111.5q0 79 17.5 144.5t64 113t117.5 47.5z" />
    <glyph glyph-name="filledbox" unicode="&#x25a0;" horiz-adv-x="1730" 
d="M150 0v1434h1431v-1434h-1431z" />
    <glyph glyph-name="uni25A1" unicode="&#x25a1;" horiz-adv-x="1730" 
d="M150 0v1434h1431v-1434h-1431zM354 1229v-1024h1022v1024h-1022z" />
    <glyph glyph-name="triagup" unicode="&#x25b2;" horiz-adv-x="1536" 
d="M768 1434l745 -1434h-1493z" />
    <glyph glyph-name="uni25B3" unicode="&#x25b3;" horiz-adv-x="1536" 
d="M768 1434l745 -1434h-1493zM768 989l-410 -784h818z" />
    <glyph glyph-name="uni25B7" unicode="&#x25b7;" horiz-adv-x="1605" 
d="M150 1493l1433 -745l-1433 -748v1493zM354 1155v-817l783 410z" />
    <glyph glyph-name="triagrt" unicode="&#x25ba;" horiz-adv-x="1605" 
d="M150 1493l1433 -745l-1433 -748v1493z" />
    <glyph glyph-name="triagdn" unicode="&#x25bc;" horiz-adv-x="1536" 
d="M20 1434h1493l-745 -1434z" />
    <glyph glyph-name="uni25BD" unicode="&#x25bd;" horiz-adv-x="1536" 
d="M20 1434h1493l-745 -1434zM358 1229l410 -785l408 785h-818z" />
    <glyph glyph-name="uni25C0" unicode="&#x25c0;" horiz-adv-x="1605" 
d="M1454 1493v-1493l-1434 748z" />
    <glyph glyph-name="uni25C1" unicode="&#x25c1;" horiz-adv-x="1605" 
d="M1454 1493v-1493l-1434 748zM465 748l784 -410v817z" />
    <glyph glyph-name="lozenge" unicode="&#x25ca;" horiz-adv-x="1206" 
d="M911 717l-309 567l-309 -567l309 -567zM92 717l414 747h192l416 -747l-416 -748h-192z" />
    <glyph glyph-name="circle" unicode="&#x25cb;" horiz-adv-x="1607" 
d="M803 1229q-138 0 -255.5 -68.5t-186 -186.5t-68.5 -257q0 -138 68 -256t185.5 -187t256.5 -69q212 0 362 150t150 362q0 138 -68 256t-186 187t-258 69zM803 1434q146 0 279 -57t229 -153t152.5 -228.5t56.5 -278.5t-56.5 -278.5t-152.5 -228.5t-229 -153t-279 -57
q-145 0 -277.5 57t-228.5 153t-152.5 228.5t-56.5 278.5t56.5 278.5t152.5 228.5t228.5 153t277.5 57z" />
    <glyph glyph-name="uni25CF" unicode="&#x25cf;" horiz-adv-x="1607" 
d="M803 0q-145 0 -277.5 57t-228.5 153t-152.5 228.5t-56.5 278.5t56.5 278.5t152.5 228.5t228.5 153t277.5 57q146 0 279 -57t229 -153t152.5 -228.5t56.5 -278.5t-56.5 -278.5t-152.5 -228.5t-229 -153t-279 -57z" />
    <glyph glyph-name="uni2776" unicode="&#x2776;" horiz-adv-x="1609" 
d="M905 1143h-112q0 -42 -11.5 -72t-29 -46.5t-47.5 -25.5t-57.5 -11.5t-67.5 -2.5v-108h190v-586h135v852zM805 1434q145 0 278 -57t229 -153t153 -229t57 -278t-57 -278t-153 -229t-229 -153t-278 -57q-146 0 -279 57t-229 153t-152.5 228.5t-56.5 278.5t56.5 278.5
t152.5 228.5t229 153t279 57z" />
    <glyph glyph-name="uni2777" unicode="&#x2777;" horiz-adv-x="1609" 
d="M813 1143q-136 0 -217.5 -76.5t-93.5 -208.5h139q23 168 172 168q68 0 109 -32t41 -97q0 -29 -12 -53t-43 -48.5t-50.5 -36.5t-69.5 -39q-11 -6 -16 -9q-47 -26 -78.5 -46t-72 -55t-64 -71t-40 -89.5t-15.5 -115.5v-43h604v119h-438q6 36 24.5 66.5t52 58t60 45
t72.5 43.5q41 25 57 36t49.5 35t48.5 41.5t34 44.5t26.5 56.5t7.5 64.5q0 122 -81 182t-206 60zM805 1434q145 0 278 -57t229 -153t153 -229t57 -278t-57 -278t-153 -229t-229 -153t-278 -57q-146 0 -279 57t-229 153t-152.5 228.5t-56.5 278.5t56.5 278.5t152.5 228.5
t229 153t279 57z" />
    <glyph glyph-name="uni2778" unicode="&#x2778;" horiz-adv-x="1609" 
d="M807 291q133 0 223 64.5t90 187.5q0 74 -42 125.5t-113 72.5q58 24 92.5 73t34.5 112q0 109 -78.5 163t-206.5 54q-122 0 -203 -63.5t-90 -178.5h135q4 65 45 96t109 31q149 0 149 -115q0 -62 -42 -93.5t-107 -31.5h-66v-100h72q77 0 123.5 -36t46.5 -101q0 -77 -48 -111
t-124 -34q-168 0 -184 147h-136q10 -129 96.5 -195.5t223.5 -66.5zM805 1434q145 0 278 -57t229 -153t153 -229t57 -278t-57 -278t-153 -229t-229 -153t-278 -57q-146 0 -279 57t-229 153t-152.5 228.5t-56.5 278.5t56.5 278.5t152.5 228.5t229 153t279 57z" />
    <glyph glyph-name="uni2779" unicode="&#x2779;" horiz-adv-x="1609" 
d="M971 1143h-158l-379 -578v-86h402v-188h135v188h121v117h-121v547zM575 596l261 395v-395h-261zM805 1434q145 0 278 -57t229 -153t153 -229t57 -278t-57 -278t-153 -229t-229 -153t-278 -57q-146 0 -279 57t-229 153t-152.5 228.5t-56.5 278.5t56.5 278.5t152.5 228.5
t229 153t279 57z" />
    <glyph glyph-name="uni277A" unicode="&#x277a;" horiz-adv-x="1609" 
d="M1065 1143h-500l-61 -494h139q53 105 170 105q75 0 118.5 -49t43.5 -125q0 -77 -50.5 -125.5t-123.5 -48.5q-66 0 -109.5 29.5t-52.5 92.5h-141q17 -118 97.5 -177.5t207.5 -59.5q128 0 217.5 76.5t89.5 210.5q0 125 -71.5 203.5t-194.5 78.5q-54 0 -106.5 -19t-82.5 -53
l29 236h381v119zM805 1434q145 0 278 -57t229 -153t153 -229t57 -278t-57 -278t-153 -229t-229 -153t-278 -57q-146 0 -279 57t-229 153t-152.5 228.5t-56.5 278.5t56.5 278.5t152.5 228.5t229 153t279 57z" />
    <glyph glyph-name="uni277B" unicode="&#x277b;" horiz-adv-x="1609" 
d="M838 850q-62 0 -115.5 -26.5t-85.5 -75.5q5 118 53.5 198t140.5 80q63 0 99 -27t51 -86h131q-20 114 -91.5 172t-189.5 58q-89 0 -155.5 -39t-104.5 -106.5t-56.5 -147.5t-18.5 -172q0 -84 18 -152.5t55.5 -122t101 -83t148.5 -29.5q138 0 216.5 82t78.5 205t-75.5 197.5
t-200.5 74.5zM805 1434q145 0 278 -57t229 -153t153 -229t57 -278t-57 -278t-153 -229t-229 -153t-278 -57q-146 0 -279 57t-229 153t-152.5 228.5t-56.5 278.5t56.5 278.5t152.5 228.5t229 153t279 57zM815 408q-74 0 -122 47.5t-48 124.5q0 73 51.5 122.5t122.5 49.5
q72 0 116 -47t44 -119q0 -78 -45 -128t-119 -50z" />
    <glyph glyph-name="uni277C" unicode="&#x277c;" horiz-adv-x="1609" 
d="M1090 1034v109h-570v-119h426q-114 -150 -187 -353.5t-73 -379.5h143q0 194 70 392.5t191 350.5zM805 1434q145 0 278 -57t229 -153t153 -229t57 -278t-57 -278t-153 -229t-229 -153t-278 -57q-146 0 -279 57t-229 153t-152.5 228.5t-56.5 278.5t56.5 278.5t152.5 228.5
t229 153t279 57z" />
    <glyph glyph-name="uni277D" unicode="&#x277d;" horiz-adv-x="1609" 
d="M803 1143q-129 0 -209 -58t-80 -165q0 -60 35 -104t98 -68q-77 -22 -123.5 -78.5t-46.5 -134.5q0 -54 21 -97.5t54.5 -70t77.5 -44.5t87 -25t86 -7q42 0 84 7t86.5 24.5t78.5 44t56 70t22 98.5q0 77 -46.5 134t-122.5 79q63 24 98 68t35 104q0 107 -80.5 165t-210.5 58z
M805 1434q145 0 278 -57t229 -153t153 -229t57 -278t-57 -278t-153 -229t-229 -153t-278 -57q-146 0 -279 57t-229 153t-152.5 228.5t-56.5 278.5t56.5 278.5t152.5 228.5t229 153t279 57zM803 1032q65 0 110 -28.5t45 -92.5q0 -55 -42 -86.5t-113 -31.5q-69 0 -111.5 31.5
t-42.5 86.5q0 63 45.5 92t108.5 29zM803 401q-42 0 -81.5 12.5t-71.5 46.5t-32 85q0 68 57.5 106.5t127.5 38.5q71 0 128.5 -38.5t57.5 -106.5q0 -39 -18 -68.5t-47 -45t-59.5 -23t-61.5 -7.5z" />
    <glyph glyph-name="uni277E" unicode="&#x277e;" horiz-adv-x="1609" 
d="M813 1143q-141 0 -219 -81.5t-78 -207.5q0 -120 76.5 -195t200.5 -75q63 0 115.5 26.5t84.5 75.5q-1 -38 -7 -73.5t-20 -74t-35 -67t-55 -47t-77 -18.5q-63 0 -99 26.5t-53 85.5h-129q22 -110 94 -168.5t187 -58.5q71 0 128.5 26t95.5 70t63.5 104.5t37 125.5t11.5 137
q0 175 -79.5 282t-242.5 107zM805 1434q145 0 278 -57t229 -153t153 -229t57 -278t-57 -278t-153 -229t-229 -153t-278 -57q-146 0 -279 57t-229 153t-152.5 228.5t-56.5 278.5t56.5 278.5t152.5 228.5t229 153t279 57zM815 1026q74 0 122 -48t48 -124q0 -73 -51.5 -122.5
t-122.5 -49.5q-72 0 -116 47t-44 119q0 79 45 128.5t119 49.5z" />
    <glyph glyph-name="uni27F5" unicode="&#x27f5;" horiz-adv-x="2420" 
d="M20 717l685 686l145 -146l-436 -436h1896v-207h-1896l436 -436l-145 -145z" />
    <glyph glyph-name="uni27F6" unicode="&#x27f6;" horiz-adv-x="2420" 
d="M1569 1257l145 146l684 -686l-684 -684l-145 145l436 436h-1896v207h1896z" />
    <glyph glyph-name="uni27F7" unicode="&#x27f7;" horiz-adv-x="3280" 
d="M20 717l685 686l145 -146l-436 -436h2453l-438 436l145 146l686 -686l-686 -684l-145 145l438 436h-2453l436 -436l-145 -145z" />
    <glyph glyph-name="uni27F8" unicode="&#x27f8;" horiz-adv-x="2412" 
d="M20 717l685 686l145 -146l-240 -241h1694v-205h-1901l-92 -94l92 -92h1901v-205h-1694l240 -242l-145 -145z" />
    <glyph glyph-name="uni27F9" unicode="&#x27f9;" horiz-adv-x="2412" 
d="M1561 1257l145 146l686 -686l-686 -684l-145 145l241 242h-1693v205h1898l94 92l-94 94h-1898v205h1693z" />
    <glyph glyph-name="uni27FA" unicode="&#x27fa;" horiz-adv-x="3360" 
d="M3047 717l-92 94h-2552l-92 -94l92 -92h2552zM2509 1257l145 146l684 -686l-684 -684l-145 145l239 242h-2138l240 -242l-145 -145l-685 684l685 686l145 -146l-240 -241h2138z" />
    <glyph glyph-name="uni2913" unicode="&#x2913;" horiz-adv-x="1585" 
d="M1405 0h-1225v205h1225v-205zM252 1167l438 -438v733h205v-731l438 436l144 -145l-684 -686l-684 686z" />
    <glyph glyph-name="zero.numr" horiz-adv-x="811" 
d="M406 1346q-54 0 -94.5 -27t-62.5 -72.5t-32 -97t-10 -109.5q0 -59 10 -111t32 -98t62 -73t95 -27q54 0 94 27t61.5 73t32 98t10.5 111q0 58 -10 109.5t-31.5 97t-62 72.5t-94.5 27zM406 1466q86 0 152.5 -35t106 -95t59 -135t19.5 -161t-20 -161.5t-59.5 -136t-106 -95.5
t-151.5 -35t-151.5 35t-106.5 95.5t-60 136t-20 161.5t20 161t59.5 135t106 95t152.5 35z" />
    <glyph glyph-name="five.numr" horiz-adv-x="749" 
d="M637 1466v-120h-383l-29 -236q31 35 83 53.5t106 18.5q122 0 194 -79t72 -204q0 -134 -89 -210.5t-218 -76.5q-127 0 -207.5 60t-97.5 178h141q17 -121 162 -121q74 0 124 48t50 124t-43.5 125t-118.5 49q-118 0 -170 -104h-139l61 495h502z" />
    <glyph glyph-name="six.numr" horiz-adv-x="753" 
d="M391 1073q-72 0 -123 -49t-51 -121q0 -78 48.5 -125t123.5 -47q73 0 118.5 49.5t45.5 126.5q0 72 -45 119t-117 47zM410 1171q126 0 201 -74.5t75 -197.5t-78 -205t-217 -82q-84 0 -147.5 29.5t-101 83t-56 123t-18.5 153.5q0 91 18.5 171t57 147.5t105 107t154.5 39.5
q117 0 189 -58.5t92 -170.5h-129q-17 59 -52.5 86t-99.5 27q-86 0 -137 -77t-57 -202q34 47 87 73.5t114 26.5z" />
    <glyph glyph-name="seven.numr" horiz-adv-x="663" 
d="M616 1466v-110q-120 -151 -190 -350.5t-70 -393.5h-143q0 176 73 380t187 354h-426v120h569z" />
    <glyph glyph-name="eight.numr" horiz-adv-x="786" 
d="M393 725q31 0 61.5 7t60 22t47.5 44t18 68q0 68 -58.5 108t-128.5 40t-127 -39.5t-57 -108.5q0 -51 32 -84.5t71 -45t81 -11.5zM393 1354q-64 0 -109.5 -29t-45.5 -92q0 -54 43 -86.5t112 -32.5t112.5 32.5t43.5 86.5q0 64 -45 92.5t-111 28.5zM393 1466q130 0 210.5 -59
t80.5 -166q0 -60 -35.5 -104t-97.5 -66q76 -24 122 -81t46 -134q0 -67 -32 -117.5t-83.5 -76.5t-104.5 -38t-106 -12q-56 0 -109.5 12.5t-103.5 38.5t-81 76t-31 117q0 77 46 134t122 81q-62 22 -97 66t-35 104q0 107 80 166t209 59z" />
    <glyph glyph-name="nine.numr" horiz-adv-x="753" 
d="M367 1348q-74 0 -120 -50t-46 -127q0 -73 44 -120t117 -47q71 0 123 49.5t52 122.5q0 76 -48 124t-122 48zM365 1466q163 0 242 -107.5t79 -283.5q0 -90 -19 -169.5t-57 -147t-105 -107t-155 -39.5q-115 0 -186.5 58.5t-93.5 169.5h129q17 -59 53 -86t98 -27
q53 0 92 26.5t60 71.5t30.5 89.5t12.5 93.5q-32 -49 -85 -76t-116 -27q-124 0 -200 75.5t-76 197.5q0 124 78 206t219 82z" />
    <glyph glyph-name="one.numr" horiz-adv-x="503" 
d="M281 1464h112v-852h-135v586h-190v109q52 0 84.5 4.5t65 19.5t48 48t15.5 85z" />
    <glyph glyph-name="two.numr" horiz-adv-x="741" 
d="M379 1466q125 0 206 -60.5t81 -182.5q0 -41 -14 -78t-31 -61t-53 -53t-58 -43t-68 -42q-39 -23 -57.5 -35t-50 -35.5t-48 -42.5t-32.5 -46t-21 -56h441v-119h-606v47q-1 61 16.5 114.5t41.5 89t65 71t72.5 55t78.5 45.5q103 58 132 82q56 47 56 103q0 65 -41.5 97
t-109.5 32q-149 0 -172 -168h-139q14 134 95 210t216 76z" />
    <glyph glyph-name="three.numr" horiz-adv-x="768" 
d="M387 1466q126 0 204.5 -55t78.5 -162q0 -65 -33.5 -113.5t-91.5 -72.5q71 -21 113 -72.5t42 -126.5q0 -123 -90 -187.5t-223 -64.5q-137 0 -223 67t-96 195h135q16 -147 184 -147q76 0 124 34t48 111q0 65 -46.5 101.5t-123.5 36.5h-72v102h66q65 0 107 30.5t42 94.5
q0 113 -149 113q-68 0 -109 -30.5t-47 -94.5h-133q7 114 88.5 177.5t204.5 63.5z" />
    <glyph glyph-name="four.numr" horiz-adv-x="751" 
d="M449 918v395l-261 -395h261zM47 887l379 579h160v-548h121v-117h-121v-189h-137v189h-402v86z" />
    <glyph glyph-name="dngb_check" horiz-adv-x="1554" 
d="M1323 1235l145 -145l-888 -889l-492 487l145 148l347 -344z" />
    <glyph glyph-name="dngb_ballotx" horiz-adv-x="1196" 
d="M598 862l367 367l145 -146l-367 -366l367 -365l-145 -145l-367 364l-365 -364l-145 145l365 365l-365 366l145 146z" />
    <glyph glyph-name="zero.dnom" horiz-adv-x="811" 
d="M406 702q-55 0 -95 -26.5t-62 -72t-32 -97t-10 -109.5q0 -59 10 -111t32 -98t62 -73t95 -27q54 0 94 27t61.5 73t32 98t10.5 111q0 58 -10 109.5t-31.5 97t-62 72t-94.5 26.5zM406 823q86 0 152.5 -35t106 -95t59 -135t19.5 -161t-20 -161.5t-59.5 -136t-106 -95.5
t-151.5 -35t-151.5 35t-106.5 95.5t-60 136t-20 161.5t20 161t59.5 135t106 95t152.5 35z" />
    <glyph glyph-name="one.dnom" horiz-adv-x="503" 
d="M281 821h112v-852h-135v586h-190v109q52 0 84.5 4.5t65 19.5t48 48t15.5 85z" />
    <glyph glyph-name="two.dnom" horiz-adv-x="741" 
d="M379 823q125 0 206 -60.5t81 -182.5q0 -41 -14 -78t-31 -61t-53 -53t-58 -43t-68 -42q-39 -23 -57.5 -35t-50 -35.5t-48 -42.5t-32.5 -46t-21 -56h441v-119h-606v47q-1 61 16.5 114.5t41.5 89t65 71t72.5 55t78.5 45.5q102 57 130 79q58 48 58 105q0 65 -41.5 97.5
t-109.5 32.5q-149 0 -172 -168h-139q14 134 95 210t216 76z" />
    <glyph glyph-name="three.dnom" horiz-adv-x="768" 
d="M387 823q126 0 204.5 -55t78.5 -162q0 -65 -33.5 -113.5t-91.5 -72.5q71 -21 113 -72.5t42 -126.5q0 -123 -90 -187.5t-223 -64.5q-137 0 -223 67t-96 195h135q16 -147 184 -147q76 0 124 34t48 111q0 65 -46.5 101.5t-123.5 36.5h-72v102h66q65 0 107 30.5t42 94.5
q0 113 -149 113q-68 0 -109 -30.5t-47 -94.5h-133q7 114 88.5 177.5t204.5 63.5z" />
    <glyph glyph-name="four.dnom" horiz-adv-x="751" 
d="M449 274v396l-261 -396h261zM47 244l379 579h160v-549h121v-116h-121v-189h-137v189h-402v86z" />
    <glyph glyph-name="five.dnom" horiz-adv-x="749" 
d="M637 823v-121h-383l-29 -235q31 35 83 53.5t106 18.5q122 0 194 -79t72 -204q0 -134 -89 -210.5t-218 -76.5q-127 0 -207.5 60t-97.5 178h141q17 -121 162 -121q74 0 124 48t50 124t-43.5 125t-118.5 49q-118 0 -170 -104h-139l61 495h502z" />
    <glyph glyph-name="six.dnom" horiz-adv-x="753" 
d="M391 430q-72 0 -123 -49t-51 -121q0 -78 48.5 -125t123.5 -47q73 0 118.5 49.5t45.5 126.5q0 72 -45 119t-117 47zM410 528q126 0 201 -74.5t75 -197.5t-78 -205t-217 -82q-84 0 -147.5 29.5t-101 83t-56 123t-18.5 153.5q0 91 18.5 171t57 147.5t105 107t154.5 39.5
q117 0 189 -58.5t92 -170.5h-129q-17 59 -52.5 86t-99.5 27q-86 0 -137 -77t-57 -202q34 47 87 73.5t114 26.5z" />
    <glyph glyph-name="seven.dnom" horiz-adv-x="663" 
d="M616 823v-110q-120 -151 -190 -350.5t-70 -393.5h-143q0 176 73 379.5t187 353.5h-426v121h569z" />
    <glyph glyph-name="eight.dnom" horiz-adv-x="786" 
d="M393 82q31 0 61.5 7t60 22t47.5 44t18 68q0 68 -58.5 108t-128.5 40t-127 -39.5t-57 -108.5q0 -51 32 -84.5t71 -45t81 -11.5zM393 711q-64 0 -109.5 -29t-45.5 -92q0 -54 43 -86.5t112 -32.5t112.5 32.5t43.5 86.5q0 64 -45 92.5t-111 28.5zM393 823q130 0 210.5 -59
t80.5 -166q0 -60 -35.5 -104t-97.5 -66q76 -24 122 -81t46 -134q0 -67 -32 -117.5t-83.5 -76.5t-104.5 -38t-106 -12q-56 0 -109.5 12.5t-103.5 38.5t-81 76t-31 117q0 77 46 134t122 81q-62 22 -97 66t-35 104q0 107 80 166t209 59z" />
    <glyph glyph-name="nine.dnom" horiz-adv-x="753" 
d="M367 705q-74 0 -120 -50t-46 -127q0 -73 44.5 -120.5t116.5 -47.5q71 0 123 49.5t52 122.5q0 76 -48 124.5t-122 48.5zM365 823q163 0 242 -107.5t79 -283.5q0 -90 -19 -169.5t-57 -147t-105 -107t-155 -39.5q-115 0 -186.5 58.5t-93.5 169.5h129q17 -59 53 -86t98 -27
q53 0 92 26.5t60 71.5t30.5 89.5t12.5 93.5q-32 -49 -85 -76t-116 -27q-124 0 -200 75.5t-76 197.5q0 124 78 206t219 82z" />
    <glyph glyph-name="leftLongArrow2" horiz-adv-x="5081" 
d="M20 717l685 686l145 -146l-436 -436h4556v-207h-4556l436 -436l-145 -145z" />
    <glyph glyph-name="rightLongArrow2" horiz-adv-x="5081" 
d="M4227 1257l145 146l685 -686l-685 -684l-145 145l436 436h-4557v207h4557z" />
    <glyph glyph-name="uni2197.case" horiz-adv-x="1372" 
d="M297 850v205h969v-969h-207v619l-805 -805l-145 145l804 805h-616z" />
    <glyph glyph-name="uni2198.case" horiz-adv-x="1372" 
d="M1059 350v619h205v-969h-969v205h618l-804 807l143 145z" />
    <glyph glyph-name="uni2199.case" horiz-adv-x="1372" 
d="M109 0v969h204v-619l805 805l146 -145l-805 -805h618v-205h-968z" />
    <glyph glyph-name="uni2196.case" horiz-adv-x="1372" 
d="M109 86v969h968v-207h-618l805 -805l-146 -145l-805 804v-616h-204z" />
    </font>
</defs>
</svg>
