<?xml version="1.0" standalone="no"?>
<!DOCTYPE svg PUBLIC "-//W3C//DTD SVG 1.1//EN" "http://www.w3.org/Graphics/SVG/1.1/DTD/svg11.dtd" >
<svg xmlns="http://www.w3.org/2000/svg" xmlns:xlink="http://www.w3.org/1999/xlink" version="1.1">
<metadata>
Created by FontForge 20201107 at Sat Nov  8 08:16:44 2025
 By 
Copyright (c) 2025 by Khairunnas for Zelowtype. All rights reserved.
</metadata>
<defs>
<font id="ZTNature-Bold" horiz-adv-x="1173" >
  <font-face 
    font-family="ZT Nature"
    font-weight="700"
    font-stretch="normal"
    units-per-em="2048"
    panose-1="0 0 0 0 0 0 0 0 0 0"
    ascent="1638"
    descent="-410"
    x-height="1055"
    cap-height="1434"
    bbox="-389 -713 5112 2234"
    underline-thickness="153"
    underline-position="-453"
    unicode-range="U+000A-2913"
  />
<missing-glyph horiz-adv-x="1007" 
d="M326 481q0 -69 40 -117.5t109 -48.5q65 0 108.5 45.5t43.5 110.5l-37 21q-14 8 -33 -3l-8 -8q-7 -6 -18 -6t-19 6l-4 4q-20 16 -37 2l-6 -6q-7 -6 -18.5 -5.5t-18.5 7.5l-10 11q-18 15 -37 2l-21 -17q-18 -11 -34 2zM326 954q0 -69 40 -117.5t109 -48.5q65 0 108.5 45.5
t43.5 110.5l-37 21q-15 9 -33 -2l-8 -9q-7 -6 -18.5 -5.5t-18.5 7.5l-4 2q-7 7 -18.5 8t-18.5 -5l-6 -7q-7 -6 -18.5 -5.5t-18.5 7.5l-10 11q-18 15 -37 2l-21 -15q-17 -14 -34 0zM772 1362h-534v-1290h534v1290zM844 0h-678v1434h678v-1434zM672 309l-47 39
q-59 -76 -154 -76q-79 0 -135.5 56.5t-56.5 136.5q0 79 56.5 135.5t135.5 56.5q51 0 98 -26l39 47q8 8 15 0q3 -2 4 -6.5t-2 -7.5l-37 -46q53 -41 71 -106l60 6q12 0 12 -10t-10 -10l-59 -6q2 -8 2 -27q0 -49 -27 -98l49 -41q3 -1 3.5 -6.5t-1.5 -8.5q-6 -5 -16 -2zM672 784
l-47 37q-59 -76 -154 -76q-79 0 -135.5 56.5t-56.5 136.5t56.5 136t135.5 56q56 0 98 -26l39 47q6 6 15 2q8 -8 2 -16l-37 -45q52 -40 71 -107l60 6q12 0 12 -10t-10 -10l-59 -6q2 -8 2 -27q0 -49 -27 -98l49 -39q6 -6 2 -17q-6 -6 -16 0z" />
    <glyph glyph-name=".notdef" horiz-adv-x="1007" 
d="M326 481q0 -69 40 -117.5t109 -48.5q65 0 108.5 45.5t43.5 110.5l-37 21q-14 8 -33 -3l-8 -8q-7 -6 -18 -6t-19 6l-4 4q-20 16 -37 2l-6 -6q-7 -6 -18.5 -5.5t-18.5 7.5l-10 11q-18 15 -37 2l-21 -17q-18 -11 -34 2zM326 954q0 -69 40 -117.5t109 -48.5q65 0 108.5 45.5
t43.5 110.5l-37 21q-15 9 -33 -2l-8 -9q-7 -6 -18.5 -5.5t-18.5 7.5l-4 2q-7 7 -18.5 8t-18.5 -5l-6 -7q-7 -6 -18.5 -5.5t-18.5 7.5l-10 11q-18 15 -37 2l-21 -15q-17 -14 -34 0zM772 1362h-534v-1290h534v1290zM844 0h-678v1434h678v-1434zM672 309l-47 39
q-59 -76 -154 -76q-79 0 -135.5 56.5t-56.5 136.5q0 79 56.5 135.5t135.5 56.5q51 0 98 -26l39 47q8 8 15 0q3 -2 4 -6.5t-2 -7.5l-37 -46q53 -41 71 -106l60 6q12 0 12 -10t-10 -10l-59 -6q2 -8 2 -27q0 -49 -27 -98l49 -41q3 -1 3.5 -6.5t-1.5 -8.5q-6 -5 -16 -2zM672 784
l-47 37q-59 -76 -154 -76q-79 0 -135.5 56.5t-56.5 136.5t56.5 136t135.5 56q56 0 98 -26l39 47q6 6 15 2q8 -8 2 -16l-37 -45q52 -40 71 -107l60 6q12 0 12 -10t-10 -10l-59 -6q2 -8 2 -27q0 -49 -27 -98l49 -39q6 -6 2 -17q-6 -6 -16 0z" />
    <glyph glyph-name="uni0000" horiz-adv-x="342" 
 />
    <glyph glyph-name="uni0000" horiz-adv-x="342" 
 />
    <glyph glyph-name="uni000D" unicode="&#xd;" horiz-adv-x="1228" 
 />
    <glyph glyph-name="uni000A" unicode="&#xa;" horiz-adv-x="342" 
 />
    <glyph glyph-name="space" unicode=" " horiz-adv-x="428" 
 />
    <glyph glyph-name="exclam" unicode="!" horiz-adv-x="628" 
d="M135 1464h357v-360q0 -22 -23 -334t-23 -321h-266q-1 20 -22.5 329t-22.5 326v360zM145 328h336v-328h-336v328z" />
    <glyph glyph-name="quotedbl" unicode="&#x22;" horiz-adv-x="1034" 
d="M133 1434h322v-646h-279zM578 1434h321l-43 -646h-278v646z" />
    <glyph glyph-name="numbersign" unicode="#" horiz-adv-x="1685" 
d="M1020 866h-315l-43 -297h317zM1038 1122l43 312h305l-43 -312h209v-256h-241l-41 -297h219v-258h-252l-43 -311h-305l43 311h-287l-43 -311h-305l43 311h-207v258h240l41 297h-219v256h251l43 312h306l-43 -312h286z" />
    <glyph glyph-name="dollar" unicode="$" horiz-adv-x="1394" 
d="M567 -219l11 196q-211 31 -340.5 158.5t-153.5 358.5h344q34 -246 299 -246q40 0 76 7.5t69.5 24t53.5 48.5t20 75q0 39 -20.5 70.5t-50.5 50.5t-72 33.5t-77 22t-74 14.5q-9 1 -13 2q-65 12 -113 22.5t-105.5 29t-98.5 40t-82 54.5t-66.5 73t-41 95.5t-15.5 121.5
q0 97 36.5 174.5t101 127.5t144 80.5t172.5 41.5l-10 195h277l-13 -197q197 -30 319.5 -148t145.5 -321h-344q-37 199 -260 199q-86 0 -145.5 -35t-59.5 -113q0 -32 13.5 -58t40.5 -44.5t53 -31.5t65 -22.5t62.5 -14t58.5 -9.5q62 -10 111 -21t107.5 -29.5t102 -40.5
t86.5 -55.5t70.5 -74.5t44.5 -97.5t17 -123.5q0 -85 -26.5 -155t-71 -118.5t-107 -83.5t-130 -54.5t-144.5 -27.5l10 -194h-277z" />
    <glyph glyph-name="percent" unicode="%" horiz-adv-x="1935" 
d="M1315 1434h272l-966 -1434h-275zM453 1274q-74 0 -112 -62t-38 -174q0 -111 38 -172t112 -61t111.5 61t37.5 172q0 112 -37.5 174t-111.5 62zM453 1464q177 0 273.5 -115.5t96.5 -310.5t-96.5 -310.5t-273.5 -115.5t-274 116t-97 310t97 310t274 116zM1481 631
q-74 0 -113 -62t-39 -174q0 -110 39 -171.5t113 -61.5t111.5 61t37.5 172q0 112 -37.5 174t-111.5 62zM1481 821q177 0 273.5 -115.5t96.5 -310.5t-96.5 -310.5t-273.5 -115.5q-178 0 -274.5 115.5t-96.5 310.5t96.5 310.5t274.5 115.5z" />
    <glyph glyph-name="ampersand" unicode="&#x26;" horiz-adv-x="1509" 
d="M616 248q70 0 158 55l-231 272q-107 -87 -107 -165q0 -79 50 -120.5t130 -41.5zM680 1223q-58 0 -91.5 -34.5t-33.5 -92.5q0 -92 90 -193q38 28 58 44t47 42.5t39 53.5t12 57q0 58 -33 90.5t-88 32.5zM1014 489l362 314v-340l-194 -164l264 -299h-412l-82 92
q-97 -63 -190 -94t-207 -31q-137 0 -242.5 45t-168 138.5t-62.5 222.5q0 235 283 411q-132 166 -132 314q0 75 25.5 136.5t69 103t102 70t123 41.5t133.5 13q89 0 164.5 -20.5t134.5 -61.5t92 -108t33 -154q0 -65 -26.5 -127t-72.5 -112.5t-94 -89t-104 -72.5z" />
    <glyph glyph-name="quotesingle" unicode="'" horiz-adv-x="626" 
d="M135 1434h359l-39 -646h-279z" />
    <glyph glyph-name="parenleft" unicode="(" horiz-adv-x="788" 
d="M397 1561h256q-125 -206 -192.5 -448.5t-67.5 -485.5t67.5 -486.5t192.5 -449.5h-256q-152 204 -238.5 447.5t-86.5 488.5q0 244 86 486t239 448z" />
    <glyph glyph-name="parenright" unicode=")" horiz-adv-x="788" 
d="M133 1561h256q153 -206 239.5 -448t86.5 -486t-87 -488t-239 -448h-256q125 206 193.5 450t68.5 486t-68.5 485t-193.5 449z" />
    <glyph glyph-name="asterisk" unicode="*" horiz-adv-x="1024" 
d="M625 1434l198 -115l-137 -205l244 12v-227l-244 16l133 -206l-194 -113l-117 221l-111 -221l-194 115l135 207l-246 -15l2 230l244 -19l-133 209l194 111l115 -220z" />
    <glyph glyph-name="plus" unicode="+" horiz-adv-x="1335" 
d="M522 1126h293v-391h387v-284h-387v-394h-293v394h-387v284h387v391z" />
    <glyph glyph-name="comma" unicode="," horiz-adv-x="604" 
d="M133 330h334v-224q0 -170 -102.5 -282.5t-274.5 -140.5l-43 110q208 58 238 207h-152v330z" />
    <glyph glyph-name="hyphen" unicode="-" horiz-adv-x="1044" 
d="M135 457v276h776v-276h-776z" />
    <glyph glyph-name="period" unicode="." horiz-adv-x="604" 
d="M133 0v328h336v-328h-336z" />
    <glyph glyph-name="slash" unicode="/" horiz-adv-x="1007" 
d="M653 1651h355l-654 -1870h-352z" />
    <glyph glyph-name="zero" unicode="0" horiz-adv-x="1421" 
d="M711 1176q-143 0 -218 -125.5t-75 -333.5q0 -207 75 -332t218 -125q142 0 216.5 125t76.5 332q-2 208 -77 333.5t-216 125.5zM711 1464q130 0 237 -40t180.5 -109t123.5 -164.5t73 -204t23 -229.5q0 -120 -23 -228.5t-73 -204t-123.5 -165.5t-180.5 -110t-237 -40
q-131 0 -238.5 40t-181 109.5t-123.5 165.5t-73 204.5t-23 228.5q0 121 23 229.5t73 204t123.5 164.5t181 109t238.5 40z" />
    <glyph glyph-name="one" unicode="1" horiz-adv-x="886" 
d="M422 1434h289v-1434h-344v909h-295v269h98q129 0 190.5 71.5t61.5 184.5z" />
    <glyph glyph-name="two" unicode="2" horiz-adv-x="1288" 
d="M666 1464q85 0 162 -15.5t146 -50t119 -84.5t79.5 -123.5t29.5 -162.5q0 -79 -25 -146t-74.5 -122t-109 -98t-141.5 -87q-174 -98 -240 -147q-102 -76 -135 -147h737v-281h-1140v102q0 82 16.5 154t50 130.5t73 106t97.5 92t111 78t125 72.5q17 10 49 27.5t48.5 27
t44 25.5t42.5 26.5t36.5 26.5t33 28t26 28t21 31t11.5 33t5 36q0 79 -56.5 119.5t-143.5 40.5q-105 0 -170.5 -60t-77.5 -163h-344q14 162 94 276.5t207.5 170.5t292.5 56z" />
    <glyph glyph-name="three" unicode="3" horiz-adv-x="1331" 
d="M676 1477q86 0 164 -15t146 -47.5t117.5 -79.5t78 -114.5t28.5 -149.5q0 -111 -59 -194t-156 -121q126 -36 194 -122t68 -214q0 -91 -33.5 -167t-90 -127.5t-133 -87.5t-160.5 -52.5t-174 -16.5q-266 0 -425.5 140t-168.5 368h329q6 -104 81 -167.5t182 -63.5
q105 0 171 53t66 152q0 91 -67 137.5t-185 46.5h-141v223h119q59 0 110 14.5t90 53.5t39 98q0 83 -54.5 128.5t-152.5 45.5q-91 0 -150.5 -48.5t-68.5 -131.5h-325q19 212 168.5 335.5t392.5 123.5z" />
    <glyph glyph-name="four" unicode="4" horiz-adv-x="1398" 
d="M799 563v516l-353 -516h353zM72 487l643 947h428v-871h182v-284h-182v-279h-344v279h-727v208z" />
    <glyph glyph-name="five" unicode="5" horiz-adv-x="1306" 
d="M1155 1434v-281h-666l-34 -287q111 90 301 90q215 0 346 -128t131 -353q0 -125 -45.5 -223.5t-125.5 -159t-183.5 -92t-223.5 -31.5q-111 0 -208.5 25.5t-179.5 77.5t-134 142.5t-61 209.5h342q14 -87 75.5 -135.5t163.5 -48.5q106 0 177 65.5t71 173.5t-68 173t-176 65
q-72 0 -134.5 -36t-92.5 -99h-348l106 852h967z" />
    <glyph glyph-name="six" unicode="6" horiz-adv-x="1310" 
d="M676 700q-95 0 -159 -59t-64 -156q0 -103 61 -166t162 -63q98 0 158.5 62t60.5 163q0 99 -60 159t-159 60zM735 942q220 0 360 -124.5t140 -350.5q0 -153 -74.5 -267.5t-198 -172.5t-276.5 -58q-296 0 -455 182t-159 511q0 132 21 248t69 219t119 176.5t176.5 116
t236.5 42.5q222 0 361.5 -110.5t175.5 -321.5h-322q-21 74 -76.5 111t-136.5 37q-68 0 -119.5 -29t-82.5 -80t-47.5 -111.5t-20.5 -130.5q122 113 309 113z" />
    <glyph glyph-name="seven" unicode="7" horiz-adv-x="1232" 
d="M1159 1434v-256q-236 -257 -346.5 -541.5t-110.5 -636.5h-356q0 302 120 606t329 547h-723v281h1087z" />
    <glyph glyph-name="eight" unicode="8" horiz-adv-x="1396" 
d="M698 248q50 0 95 10.5t85 33t63.5 62t23.5 92.5q0 51 -24 90.5t-64 61t-85 32.5t-94 11t-95 -11t-85.5 -32.5t-63.5 -61t-24 -90.5q0 -53 23.5 -92.5t63.5 -62t85.5 -33t95.5 -10.5zM698 1188q-60 0 -109 -14t-85.5 -53.5t-36.5 -100.5q0 -80 61.5 -119t169.5 -39
q106 0 168 39t62 119q0 61 -37 100.5t-85.5 53.5t-107.5 14zM698 1464q87 0 167 -12.5t155 -42.5t129.5 -75t87.5 -114.5t33 -156.5q0 -105 -58.5 -182t-150.5 -115q118 -40 190 -139t72 -228q0 -96 -38.5 -172.5t-100.5 -123.5t-146 -78.5t-167.5 -43.5t-172.5 -12
q-90 0 -174 12t-168 43.5t-145.5 78.5t-100 123.5t-38.5 172.5q0 129 72 228t190 139q-92 37 -149.5 114.5t-57.5 182.5q0 73 22.5 133.5t63.5 103.5t94 75.5t118 51.5t132.5 28t140.5 9z" />
    <glyph glyph-name="nine" unicode="9" horiz-adv-x="1310" 
d="M633 1178q-98 0 -158.5 -61.5t-60.5 -162.5q0 -100 60.5 -160.5t158.5 -60.5q95 0 159 59t64 158q0 103 -61.5 165.5t-161.5 62.5zM623 1464q296 0 455 -180.5t159 -509.5q0 -110 -15 -209.5t-46.5 -190.5t-82 -164t-118 -127.5t-159.5 -84t-202 -29.5q-221 0 -360 111
t-176 321h321q42 -145 213 -145q68 0 120 29t83 80t47.5 111t20.5 130q-121 -112 -310 -112q-144 0 -255 52.5t-177.5 161t-66.5 259.5q0 153 74.5 267.5t198 172t276.5 57.5z" />
    <glyph glyph-name="colon" unicode=":" horiz-adv-x="604" 
d="M133 774v328h336v-328h-336zM133 0v328h336v-328h-336z" />
    <glyph glyph-name="semicolon" unicode=";" horiz-adv-x="606" 
d="M137 1102h334v-328h-334v328zM135 330h334v-224q0 -170 -102.5 -282.5t-274.5 -140.5l-43 110q209 58 236 207h-150v330z" />
    <glyph glyph-name="less" unicode="&#x3c;" horiz-adv-x="1165" 
d="M1030 1270v-326l-590 -227l590 -225v-326l-938 414v274z" />
    <glyph glyph-name="equal" unicode="=" horiz-adv-x="1234" 
d="M135 694v254h967v-254h-967zM135 240v254h967v-254h-967z" />
    <glyph glyph-name="greater" unicode="&#x3e;" horiz-adv-x="1167" 
d="M133 1270l938 -416v-274l-938 -414v326l590 225l-590 227v326z" />
    <glyph glyph-name="question" unicode="?" horiz-adv-x="1230" 
d="M639 1464q85 0 161 -14.5t142 -46t113.5 -77.5t74.5 -113.5t27 -149.5q0 -71 -23.5 -126t-64.5 -93.5t-83 -66.5t-92.5 -62.5t-80.5 -65.5q-68 -65 -68 -160v-57h-290v41q0 122 32.5 200.5t94.5 133.5q30 28 76 61t72 52.5t46.5 53t20.5 75.5q0 66 -50 104.5t-122 38.5
q-108 0 -162 -62t-60 -165h-331q18 256 161.5 377.5t405.5 121.5zM432 328h334v-328h-334v328z" />
    <glyph glyph-name="at" unicode="@" horiz-adv-x="1886" 
d="M922 831q-86 0 -131.5 -66t-45.5 -157q0 -88 46 -155.5t131 -67.5t128.5 66.5t43.5 156.5t-43.5 156.5t-128.5 66.5zM874 1036q139 0 213 -96l13 86h209v-459q0 -68 27.5 -118t84.5 -50q43 0 74 20t46.5 54.5t22.5 71t7 78.5q0 131 -48 247t-130.5 198t-196.5 129.5
t-242 47.5q-171 0 -312.5 -78t-224.5 -219t-83 -315q0 -196 81.5 -339.5t229 -218.5t342.5 -75q213 0 367 96v-237q-172 -78 -387 -78q-191 0 -353.5 58.5t-280.5 165.5t-184.5 266t-66.5 352q0 148 44 280.5t123.5 234t186.5 175.5t238 112.5t274 38.5q175 0 332 -60.5
t272 -166t182.5 -258.5t67.5 -330q0 -100 -22.5 -182.5t-69 -148t-126 -102t-185.5 -36.5q-73 0 -139 38.5t-105 105.5q-44 -70 -113 -107t-153 -37q-115 0 -202.5 62.5t-130 158.5t-42.5 207q0 84 23.5 160.5t67.5 136.5t113.5 95.5t155.5 35.5z" />
    <glyph glyph-name="A" unicode="A" horiz-adv-x="1511" 
d="M930 559l-174 526l-178 -526h352zM20 0l523 1434h424l522 -1434h-379l-98 285h-516l-99 -285h-377z" />
    <glyph glyph-name="B" unicode="B" horiz-adv-x="1372" 
d="M731 608h-254v-354h254q109 0 170.5 44t61.5 134q0 176 -232 176zM698 1180h-221v-314h225q197 0 197 156q0 158 -201 158zM133 1434h662q68 0 130 -12.5t120.5 -41t101 -71.5t68.5 -109t26 -147q0 -102 -49 -183.5t-141 -121.5q115 -38 180 -127.5t65 -223.5
q0 -85 -24.5 -152.5t-67 -113t-102.5 -75.5t-128.5 -43t-148.5 -13h-692v1434z" />
    <glyph glyph-name="C" unicode="C" horiz-adv-x="1544" 
d="M780 1464q292 0 478 -158.5t212 -437.5h-346q-18 138 -109.5 225t-236.5 87q-72 0 -131.5 -26t-101 -70.5t-70 -104.5t-42 -126t-13.5 -136q0 -69 13.5 -135t42 -125.5t70 -104t101.5 -70.5t131 -26q145 0 236.5 86t109.5 225h346q-26 -279 -212 -438.5t-478 -159.5
q-218 0 -379.5 98.5t-244 267t-82.5 382.5t82.5 382t244 266.5t379.5 98.5z" />
    <glyph glyph-name="D" unicode="D" horiz-adv-x="1484" 
d="M645 1153h-168v-872h168q212 0 322 116t110 320t-110 320t-322 116zM655 1434q167 0 305 -46t238.5 -134.5t156.5 -225.5t56 -311t-56 -311t-156.5 -225.5t-238.5 -134.5t-305 -46h-522v1434h522z" />
    <glyph glyph-name="E" unicode="E" horiz-adv-x="1236" 
d="M133 1434h1010v-281h-666v-291h617v-280h-617v-301h666v-281h-1010v1434z" />
    <glyph glyph-name="F" unicode="F" horiz-adv-x="1236" 
d="M133 1434h1010v-281h-666v-315h617v-281h-617v-557h-344v1434z" />
    <glyph glyph-name="G" unicode="G" horiz-adv-x="1562" 
d="M764 518v260h725v-778h-232l-24 178q-154 -209 -455 -209q-218 0 -379.5 98.5t-244 267t-82.5 382.5t82.5 382t244 266.5t379.5 98.5q278 0 462 -142.5t222 -393.5h-352q-28 118 -115.5 185t-218.5 67q-72 0 -131.5 -26t-101 -70.5t-70 -104.5t-42 -126t-13.5 -136
t14 -135.5t44 -125t73 -104t106.5 -70.5t139.5 -26q134 0 217 70t112 192h-360z" />
    <glyph glyph-name="H" unicode="H" horiz-adv-x="1476" 
d="M995 1434h346v-1434h-346v582h-518v-582h-344v1434h344v-572h518v572z" />
    <glyph glyph-name="I" unicode="I" horiz-adv-x="614" 
d="M133 0v1434h344v-1434h-344z" />
    <glyph glyph-name="J" unicode="J" horiz-adv-x="1239" 
d="M780 1434h344v-922q0 -263 -140 -403t-396 -140q-244 0 -378 144.5t-136 384.5h315q11 -242 197 -242q53 0 92 19.5t60.5 54.5t31.5 77t10 93v934z" />
    <glyph glyph-name="K" unicode="K" horiz-adv-x="1501" 
d="M1018 0l-369 561l-172 -188v-373h-344v1434h344v-594l504 594h430l-528 -619l544 -815h-409z" />
    <glyph glyph-name="L" unicode="L" horiz-adv-x="1216" 
d="M133 1434h344v-1153h666v-281h-1010v1434z" />
    <glyph glyph-name="M" unicode="M" horiz-adv-x="1982" 
d="M1368 1434h479v-1434h-346v961l-379 -961h-266l-379 961v-961h-344v1434h477l379 -949z" />
    <glyph glyph-name="N" unicode="N" horiz-adv-x="1490" 
d="M1010 1434h346v-1434h-371l-508 854v-854h-344v1434h365l512 -891v891z" />
    <glyph glyph-name="O" unicode="O" horiz-adv-x="1585" 
d="M791 1176q-94 0 -167.5 -37.5t-117 -102t-66 -145.5t-22.5 -174q0 -74 13.5 -140.5t43 -125t72.5 -100.5t105.5 -66.5t138.5 -24.5q95 0 168.5 37t117.5 101t66 145t22 174t-22 174t-66 145.5t-117.5 102t-168.5 37.5zM791 1464q171 0 309.5 -58.5t227 -160t136 -237
t47.5 -291.5q0 -124 -29.5 -236t-89.5 -205.5t-144.5 -162t-201.5 -106.5t-255 -38q-137 0 -253.5 38t-201.5 106.5t-145 162t-89.5 205.5t-29.5 236q0 156 47.5 291.5t136 237t226.5 160t309 58.5z" />
    <glyph glyph-name="P" unicode="P" horiz-adv-x="1363" 
d="M727 1153h-244v-379h244q94 0 155.5 48t61.5 141q0 94 -60 142t-157 48zM133 1434h606q121 0 220 -27.5t174 -83.5t116 -147.5t41 -212.5q0 -123 -41.5 -215t-117.5 -146t-173.5 -80t-218.5 -26h-256v-496h-350v1434z" />
    <glyph glyph-name="Q" unicode="Q" horiz-adv-x="1587" 
d="M725 479l215 156l156 -213q71 119 71 295q0 93 -22 174t-66 145t-117.5 101t-168.5 37q-76 0 -138.5 -24.5t-105.5 -66.5t-72.5 -100.5t-43 -125t-13.5 -140.5t13.5 -140.5t43 -125t72.5 -100.5t105.5 -66.5t138.5 -24.5q50 0 86 8zM1241 -231l-178 243
q-119 -43 -270 -43q-171 0 -309 58.5t-226.5 160.5t-136 237.5t-47.5 291.5t47.5 291.5t136 237t226.5 160t309 58.5t309.5 -58.5t227 -160t136 -237t47.5 -291.5q0 -172 -56.5 -318.5t-164.5 -246.5l164 -228z" />
    <glyph glyph-name="R" unicode="R" horiz-adv-x="1359" 
d="M727 1153h-244v-379h244q94 0 155.5 48t61.5 141q0 94 -60 142t-157 48zM901 0l-264 496h-154v-496h-350v1434h606q121 0 220 -27.5t174 -83.5t116 -147.5t41 -212.5q0 -171 -77.5 -278t-215.5 -153l293 -532h-389z" />
    <glyph glyph-name="S" unicode="S" horiz-adv-x="1374" 
d="M674 1464q168 0 295 -50t209.5 -159t99.5 -270h-344q-37 199 -260 199q-55 0 -98.5 -12t-75 -46.5t-31.5 -87.5q0 -28 12 -52t27 -40t45 -31t49 -22.5t57.5 -16.5t52.5 -11.5t50 -8.5q62 -10 111 -20.5t107 -29t102 -40.5t86.5 -56t70 -74.5t44.5 -96.5t17 -123
q0 -98 -35 -176.5t-93 -128t-137 -82.5t-161 -46.5t-172 -13.5q-131 0 -238 30.5t-190.5 93t-135.5 164.5t-66 239h344q34 -246 299 -246q40 0 76.5 7.5t70.5 24.5t54 49t20 75q0 47 -27 82t-81 55.5t-88.5 29.5t-96.5 20q-11 2 -16 3q-66 12 -113 23t-105.5 29.5t-99 40
t-82 54.5t-66.5 72.5t-41 95t-16 121.5q0 91 32.5 165t87 123t128.5 82t154.5 47.5t167.5 14.5z" />
    <glyph glyph-name="T" unicode="T" horiz-adv-x="1386" 
d="M72 1434h1241v-281h-449v-1153h-344v1153h-448v281z" />
    <glyph glyph-name="U" unicode="U" horiz-adv-x="1423" 
d="M965 1434h344v-910q0 -134 -46 -241t-127 -175t-189.5 -103.5t-235.5 -35.5t-234.5 35.5t-189.5 103t-128 174.5t-46 242v910h344v-895q0 -135 67 -209t187 -74q122 0 188 74.5t66 208.5v895z" />
    <glyph glyph-name="V" unicode="V" horiz-adv-x="1511" 
d="M1126 1434h363l-498 -1434h-471l-500 1434h365l371 -1078z" />
    <glyph glyph-name="W" unicode="W" horiz-adv-x="2099" 
d="M1722 1434h355l-383 -1434h-408l-237 940l-238 -940h-405l-386 1434h357l250 -1012l256 1012h331l256 -1012z" />
    <glyph glyph-name="X" unicode="X" horiz-adv-x="1593" 
d="M1098 1434h405l-454 -707l460 -727h-405l-305 510l-314 -510h-403l465 725l-455 709h404l303 -496z" />
    <glyph glyph-name="Y" unicode="Y" horiz-adv-x="1411" 
d="M999 1434h390l-512 -961v-473h-345v473l-512 961h388l297 -615z" />
    <glyph glyph-name="Z" unicode="Z" horiz-adv-x="1339" 
d="M117 1434h1110v-267l-707 -886h725v-281h-1153v266l690 887h-665v281z" />
    <glyph glyph-name="bracketleft" unicode="[" horiz-adv-x="823" 
d="M133 1563h555v-267h-231v-1335h231v-268h-555v1870z" />
    <glyph glyph-name="backslash" unicode="\" horiz-adv-x="1007" 
d="M354 1651l652 -1870h-353l-653 1870h354z" />
    <glyph glyph-name="bracketright" unicode="]" horiz-adv-x="825" 
d="M135 1563h555v-1870h-555v268h232v1335h-232v267z" />
    <glyph glyph-name="asciicircum" unicode="^" horiz-adv-x="921" 
d="M322 1434h280l227 -600h-251l-117 364l-113 -364h-254z" />
    <glyph glyph-name="underscore" unicode="_" horiz-adv-x="1142" 
d="M135 -287v256h875v-256h-875z" />
    <glyph glyph-name="grave" unicode="`" horiz-adv-x="690" 
d="M94 1493h299l205 -311h-256z" />
    <glyph glyph-name="a" unicode="a" horiz-adv-x="1247" 
d="M547 412q-82 -16 -127 -43.5t-45 -81.5q0 -109 143 -109q99 0 181.5 63t82.5 150v78q-1 0 -8 -3t-15.5 -6.5t-24.5 -8.5t-34 -9zM430 598q200 29 268 39q43 8 63.5 22t20.5 41q0 150 -170 150q-79 0 -130 -38t-60 -112h-303q55 385 487 385q112 0 197 -22.5t150.5 -71.5
t99.5 -134t34 -204v-360q0 -58 13 -83.5t59 -25.5h21v-215h-138q-85 0 -142.5 43.5t-74.5 126.5q-141 -170 -381 -170q-167 0 -271.5 75.5t-104.5 227.5q0 276 362 326z" />
    <glyph glyph-name="b" unicode="b" horiz-adv-x="1308" 
d="M686 827q-128 0 -201 -87t-73 -212q0 -123 73.5 -211t200.5 -88q126 0 196 86t70 213t-68.5 213t-197.5 86zM743 1085q161 0 278 -76.5t173.5 -201t56.5 -279.5t-60 -281t-178.5 -202t-275.5 -76q-107 0 -195.5 40t-146.5 112l-16 -121h-285v1434h318v-486
q60 66 147 101.5t184 35.5z" />
    <glyph glyph-name="c" unicode="c" horiz-adv-x="1206" 
d="M616 1085q210 0 352.5 -110t180.5 -311h-305q-19 84 -78.5 130t-149.5 46q-124 0 -186.5 -90t-62.5 -224q0 -85 24.5 -153t82.5 -113t142 -45q90 0 149.5 46t78.5 130h305q-38 -201 -180.5 -311.5t-352.5 -110.5q-242 0 -400.5 156.5t-158.5 400.5q0 162 72.5 289.5
t200 198.5t286.5 71z" />
    <glyph glyph-name="d" unicode="d" horiz-adv-x="1308" 
d="M625 827q-131 0 -200 -86t-69 -213t70.5 -213t198.5 -86q126 0 199 88t73 211q0 125 -72.5 212t-199.5 87zM565 1085q97 0 185 -35.5t149 -101.5v486h315v-1434h-282l-19 121q-56 -72 -144.5 -112t-197.5 -40q-156 0 -274.5 76t-179 202t-60.5 281t57 279.5t174 201
t277 76.5z" />
    <glyph glyph-name="e" unicode="e" horiz-adv-x="1230" 
d="M618 844q-97 0 -154.5 -57t-76.5 -146h471q-21 94 -80.5 148.5t-159.5 54.5zM618 1085q181 0 314 -84.5t194 -232.5q64 -147 39 -330h-784q13 -103 77.5 -169t172.5 -66q79 0 139 31t90 94h297q-58 -178 -197 -268.5t-325 -90.5q-251 0 -414.5 154.5t-163.5 404.5
q0 243 159 400t402 157z" />
    <glyph glyph-name="f" unicode="f" horiz-adv-x="761" 
d="M543 1464q86 0 162 -26v-238q-2 0 -12.5 2.5t-20 4.5t-25 3.5t-31.5 1.5q-57 0 -85.5 -30t-28.5 -76v-51h198v-254h-198v-801h-326v801h-156v254h156v78q0 65 20 121.5t61 105t114.5 76.5t171.5 28z" />
    <glyph glyph-name="g" unicode="g" horiz-adv-x="1245" 
d="M598 825q-116 0 -182 -79.5t-66 -190.5q0 -114 66.5 -188t181.5 -74q116 0 181 75.5t65 186.5q0 113 -66 191.5t-180 78.5zM545 1085q213 0 317 -137l23 107h266v-959q0 -283 -145 -420t-400 -137q-213 0 -355.5 104.5t-172.5 301.5h299q15 -77 71.5 -119.5t141.5 -42.5
q127 0 191.5 70t64.5 206v84q-112 -112 -297 -112q-147 0 -260 69.5t-172.5 188t-59.5 266.5q0 105 34 200.5t95 169t154.5 117t204.5 43.5z" />
    <glyph glyph-name="h" unicode="h" 
d="M713 1085q184 0 285.5 -111.5t101.5 -289.5v-684h-326v625q0 192 -168 192q-93 0 -140.5 -70t-47.5 -172v-575h-326v1434h326v-461q106 112 295 112z" />
    <glyph glyph-name="i" unicode="i" horiz-adv-x="514" 
d="M92 1157v277h328v-277h-328zM94 0v1055h324v-1055h-324z" />
    <glyph glyph-name="j" unicode="j" horiz-adv-x="514" 
d="M92 1434h328v-277h-328v277zM94 1055h326v-1096q0 -212 -96.5 -316t-321.5 -104q-24 0 -117 12v263q72 -9 78 -9q59 0 95 36.5t36 90.5v1123z" />
    <glyph glyph-name="k" unicode="k" horiz-adv-x="1239" 
d="M92 1434h326v-711l336 332h407l-424 -412l449 -643h-383l-297 446l-88 -86v-360h-326v1434z" />
    <glyph glyph-name="l" unicode="l" horiz-adv-x="512" 
d="M92 0v1434h326v-1434h-326z" />
    <glyph glyph-name="m" unicode="m" horiz-adv-x="1794" 
d="M702 1085q109 0 188.5 -43t121.5 -122q52 77 135 121t192 44q181 0 281 -110t100 -285v-690h-325v637q0 85 -41 132.5t-121 47.5q-81 0 -122.5 -67.5t-41.5 -163.5v-586h-326v637q0 180 -157 180q-82 0 -125 -69.5t-43 -167.5v-580h-326v1055h285l16 -117q54 71 134 109
t175 38z" />
    <glyph glyph-name="n" unicode="n" 
d="M713 1085q184 0 285.5 -111.5t101.5 -289.5v-684h-326v625q0 192 -168 192q-93 0 -140.5 -70t-47.5 -172v-575h-326v1055h285l16 -111q109 141 320 141z" />
    <glyph glyph-name="o" unicode="o" horiz-adv-x="1255" 
d="M627 827q-84 0 -144 -43.5t-87 -109.5t-27 -146t27 -146t87 -109.5t144 -43.5q85 0 145 44t86.5 110t26.5 145q0 80 -27 146t-87 109.5t-144 43.5zM627 1085q250 0 410.5 -156t160.5 -401q0 -244 -161 -401.5t-410 -157.5q-248 0 -409 157t-161 402t160.5 401t409.5 156z
" />
    <glyph glyph-name="p" unicode="p" horiz-adv-x="1308" 
d="M684 825q-127 0 -200.5 -88t-73.5 -211q0 -125 73 -212t201 -87q129 0 197.5 86t68.5 213t-70 213t-196 86zM735 1085q157 0 275.5 -76t178.5 -202t60 -281t-56.5 -279.5t-173.5 -201t-278 -76.5q-97 0 -184 35.5t-147 101.5v-536h-318v1485h285l16 -121
q58 72 146.5 111.5t195.5 39.5z" />
    <glyph glyph-name="q" unicode="q" horiz-adv-x="1310" 
d="M625 825q-128 0 -198.5 -86t-70.5 -213t69 -213t200 -86q127 0 199.5 87t72.5 212q0 123 -73 211t-199 88zM571 1085q109 0 197.5 -39.5t144.5 -111.5l19 121h282v-1485h-315v536q-61 -66 -149 -101.5t-185 -35.5q-160 0 -277 76.5t-174 201t-57 279.5t60.5 281t179 202
t274.5 76z" />
    <glyph glyph-name="r" unicode="r" horiz-adv-x="837" 
d="M705 1085l83 -4v-297q-36 9 -77 9q-128 0 -210.5 -96.5t-82.5 -276.5v-420h-326v1055h285l29 -191q40 103 119 162t180 59z" />
    <glyph glyph-name="s" unicode="s" horiz-adv-x="1126" 
d="M549 1085q102 0 188 -22t153.5 -65.5t108 -114.5t45.5 -164h-294q-20 145 -203 145q-67 0 -105.5 -25.5t-38.5 -68.5q0 -34 18.5 -57.5t63.5 -39t73 -22t93 -16.5q7 -1 11 -2q70 -11 123.5 -24.5t108.5 -38.5t90.5 -59t58 -86.5t22.5 -119.5q0 -89 -41 -156t-111.5 -105
t-156.5 -56.5t-185 -18.5q-220 0 -361 100t-147 291h312q11 -172 217 -172q71 0 119.5 24t48.5 75q0 17 -5.5 32t-18 27t-24.5 22t-34 18.5t-37 14t-42.5 12t-41.5 9.5t-43 8.5t-39 7.5q-64 12 -115 26.5t-103 40t-86.5 58.5t-56.5 83t-22 112q0 85 40 150t107.5 102.5
t146 56t163.5 18.5z" />
    <glyph glyph-name="t" unicode="t" horiz-adv-x="835" 
d="M227 1366h326v-311h229v-254h-229v-414q0 -76 38.5 -109.5t119.5 -33.5q47 0 71 8v-266q-108 -17 -182 -17q-192 0 -282.5 98t-90.5 295v439h-176v254h60q116 0 116 114v197z" />
    <glyph glyph-name="u" unicode="u" 
d="M754 1055h325v-1055h-282l-17 113q-112 -144 -319 -144q-185 0 -287 112.5t-102 289.5v684h325v-625q0 -192 168 -192q93 0 141 69.5t48 171.5v576z" />
    <glyph glyph-name="v" unicode="v" horiz-adv-x="1245" 
d="M877 1055h346l-392 -1055h-419l-392 1055h349l252 -756z" />
    <glyph glyph-name="w" unicode="w" horiz-adv-x="1781" 
d="M1409 1055h350l-307 -1055h-369l-192 684l-191 -684h-368l-312 1055h351l170 -738l184 738h332l182 -738z" />
    <glyph glyph-name="x" unicode="x" horiz-adv-x="1273" 
d="M838 1055h368l-334 -518l345 -537h-367l-209 369l-215 -369h-369l342 537l-336 518h367l205 -348z" />
    <glyph glyph-name="y" unicode="y" horiz-adv-x="1163" 
d="M582 406l213 649h348l-406 -1114q-28 -88 -54.5 -147t-65.5 -111t-89 -81.5t-119.5 -46t-162.5 -16.5q-44 0 -92 10v261q36 -9 77 -9q70 0 115 36.5t64 94.5l24 68h-28l-383 1055h348z" />
    <glyph glyph-name="z" unicode="z" horiz-adv-x="1073" 
d="M92 1055h905v-244l-522 -557h533v-254h-940v244l510 557h-486v254z" />
    <glyph glyph-name="braceleft" unicode="{" horiz-adv-x="962" 
d="M569 1128v-182q0 -56 -2.5 -92.5t-13.5 -83t-30.5 -74.5t-57.5 -48t-92 -21q54 -2 92 -22.5t57.5 -48.5t30.5 -74.5t13.5 -83t2.5 -91.5v-182q0 -87 39.5 -125.5t126.5 -38.5h94v-268h-155q-207 0 -317.5 100.5t-110.5 308.5v217q0 100 -37 140.5t-135 40.5v252
q98 0 135 41t37 141v217q0 208 110.5 309t317.5 101h155v-269h-94q-87 0 -126.5 -39t-39.5 -125z" />
    <glyph glyph-name="bar" unicode="|" horiz-adv-x="591" 
d="M133 -309v1870h324v-1870h-324z" />
    <glyph glyph-name="braceright" unicode="}" horiz-adv-x="962" 
d="M133 1561h156q207 0 317.5 -101t110.5 -309v-217q0 -100 37 -141t135 -41v-252q-98 0 -135 -40.5t-37 -140.5v-217q0 -208 -110.5 -308.5t-317.5 -100.5h-156v268h94q87 0 126.5 38.5t39.5 125.5v182q0 55 2.5 91.5t13.5 83t31 74.5t58 48.5t92 22.5q-45 1 -79 13.5
t-55 37.5t-34 52t-19 67.5t-8 72t-2 76.5v182q0 86 -39.5 125t-126.5 39h-94v269z" />
    <glyph glyph-name="asciitilde" unicode="~" horiz-adv-x="1345" 
d="M459 684q-37 0 -62 -13t-38 -38t-18 -54t-5 -67h-242q0 67 10.5 128t35.5 118t63 98.5t95.5 66.5t129.5 25q58 0 115 -20t101 -49t84.5 -58t82 -49t78.5 -20q70 0 96.5 45.5t26.5 122.5h241q0 -66 -10.5 -126.5t-35 -117.5t-61.5 -99t-93.5 -67t-126.5 -25
q-55 0 -112 20.5t-103 49.5t-89 58.5t-85.5 50t-77.5 20.5z" />
    <glyph glyph-name="uni00A0" unicode="&#xa0;" horiz-adv-x="497" 
 />
    <glyph glyph-name="exclamdown" unicode="&#xa1;" horiz-adv-x="628" 
d="M481 1085v-329h-336v329h336zM444 637q3 -27 24.5 -325.5t23.5 -329.5v-361h-357v361q0 22 22.5 334.5t22.5 320.5h264z" />
    <glyph glyph-name="cent" unicode="&#xa2;" horiz-adv-x="1206" 
d="M500 0v170q-198 37 -320.5 186.5t-122.5 362.5q0 212 122.5 361t320.5 186v168h213v-164q172 -24 286.5 -131t149.5 -285h-305q-20 85 -79.5 130.5t-148.5 45.5q-85 0 -143.5 -45t-83 -113t-24.5 -153q0 -86 24.5 -154.5t83 -113.5t143.5 -45q89 0 148.5 45.5t79.5 130.5
h305q-35 -176 -149.5 -283.5t-286.5 -132.5v-166h-213z" />
    <glyph glyph-name="sterling" unicode="&#xa3;" horiz-adv-x="1388" 
d="M92 578v210h150q-33 121 -33 203q0 222 141 347.5t379 125.5q258 0 396 -110t159 -359h-377q-9 101 -53 148t-129 47q-75 0 -119.5 -50.5t-44.5 -133.5q0 -27 4 -58t15 -88t14 -72h311v-210h-297q-11 -184 -133 -293h819v-285h-1202v248q96 44 148.5 118t52.5 162
q0 34 -2 50h-199z" />
    <glyph glyph-name="currency" unicode="&#xa4;" horiz-adv-x="1234" 
d="M616 926q-86 0 -147 -61t-61 -148t60.5 -148t147.5 -61t148 61t61 148q0 85 -61.5 147t-147.5 62zM616 1137q117 0 215 -64l162 158l148 -152l-162 -155q55 -94 55 -207q0 -116 -55 -207l162 -158l-148 -149l-162 157q-97 -63 -215 -63t-215 63l-161 -157l-148 149
l162 158q-57 94 -57 207t57 207l-162 155l148 152l161 -158q103 64 215 64z" />
    <glyph glyph-name="yen" unicode="&#xa5;" horiz-adv-x="1411" 
d="M532 399h-249v197h184l-447 838h388l297 -615l294 615h390l-447 -838h184v-197h-249v-86h249v-196h-249v-117h-345v117h-249v196h249v86z" />
    <glyph glyph-name="brokenbar" unicode="&#xa6;" horiz-adv-x="593" 
d="M133 840v811h324v-811h-324zM133 -219v811h324v-811h-324z" />
    <glyph glyph-name="section" unicode="&#xa7;" horiz-adv-x="1138" 
d="M723 606q37 33 37 70q0 19 -7.5 35.5t-17.5 28t-30 21.5t-35.5 15.5t-44 12t-46 9.5t-50.5 8.5t-48 8.5q-12 2 -34 6l-33 6q-37 -30 -37 -67q0 -19 7.5 -35.5t17.5 -28t29.5 -21.5t35.5 -15.5t44 -12t45.5 -9.5t50.5 -8.5t48 -8.5q31 -5 68 -15zM477 430
q-87 16 -148.5 37t-112 56t-76 88t-25.5 126q0 103 90 176q-113 81 -113 224q0 85 40.5 151t108 103.5t145.5 56t163 18.5q212 0 348.5 -93t146.5 -275h-290q-22 157 -199 157q-64 0 -109 -27.5t-45 -80.5q0 -44 37 -73t73 -38.5t124 -26.5q16 -3 24 -5q86 -15 147.5 -36
t112.5 -55.5t77 -88t26 -126.5q0 -102 -90 -178q112 -81 112 -221q0 -85 -40.5 -151t-107.5 -104t-145 -56.5t-163 -18.5q-102 0 -189 22.5t-154.5 66.5t-108 115t-44.5 163h291q23 -158 199 -158q64 0 108.5 28t44.5 83q0 45 -38 73.5t-74.5 38t-125.5 25.5q-13 3 -20 4z
" />
    <glyph glyph-name="dieresis" unicode="&#xa8;" horiz-adv-x="847" 
d="M477 1192v264h279v-264h-279zM94 1192v264h281v-264h-281z" />
    <glyph glyph-name="copyright" unicode="&#xa9;" horiz-adv-x="1683" 
d="M842 1255q-109 0 -208 -42.5t-171.5 -114t-115 -171t-42.5 -208.5q0 -147 72 -271t196 -196t269 -72q147 0 271 72.5t195.5 196.5t71.5 270t-72 269.5t-196 195t-270 71.5zM850 1118q154 0 252 -83.5t121 -231.5h-209q-36 133 -168 133q-87 0 -131.5 -63.5t-44.5 -155.5
q0 -93 45 -155t131 -62q132 0 168 131h209q-23 -147 -121 -230.5t-252 -83.5q-175 0 -287 110.5t-112 289.5q0 177 111 289t288 112zM842 1466q152 0 290.5 -59.5t239 -159.5t160 -239t59.5 -291t-59.5 -290.5t-159.5 -238.5t-239 -159.5t-291 -59.5q-203 0 -375 100
t-272.5 272.5t-100.5 375.5q0 152 59.5 291t159.5 239t238.5 159.5t290.5 59.5z" />
    <glyph glyph-name="ordfeminine" unicode="&#xaa;" horiz-adv-x="1042" 
d="M467 967q-56 -13 -89.5 -33.5t-33.5 -59.5q0 -75 102 -75q68 0 126.5 50.5t58.5 115.5v43q-11 -8 -76 -23.5t-88 -17.5zM371 1106q17 2 90.5 12.5t105.5 14.5q34 5 49 14.5t15 30.5q0 106 -119 106q-54 0 -89.5 -26t-41.5 -78h-248q40 286 375 286q180 0 276.5 -75
t96.5 -248v-258q0 -38 9.5 -56t43.5 -18h14v-170h-110q-61 0 -105.5 30.5t-62.5 88.5q-101 -119 -295 -119q-79 0 -140 21t-101 73.5t-40 130.5q0 59 22.5 103t64 70.5t86.5 41.5t104 25z" />
    <glyph glyph-name="guillemotleft" unicode="&#xab;" horiz-adv-x="1626" 
d="M1096 1231h393l-424 -514l424 -516h-393l-428 516zM520 1231h395l-426 -514l426 -516h-395l-428 516z" />
    <glyph glyph-name="logicalnot" unicode="&#xac;" horiz-adv-x="1406" 
d="M1274 735v-604h-283v322h-858v282h1141z" />
    <glyph glyph-name="uni00AD" unicode="&#xad;" horiz-adv-x="829" 
d="M92 510v172h643v-172h-643z" />
    <glyph glyph-name="registered" unicode="&#xae;" horiz-adv-x="1683" 
d="M840 1255q-109 0 -208 -42.5t-171.5 -114t-115 -171t-42.5 -208.5q0 -147 72 -271t196 -196t269 -72q147 0 271 72.5t195.5 196.5t71.5 270t-72 269.5t-196 195t-270 71.5zM862 897h-110v-133h110q84 0 84 67q0 66 -84 66zM840 1466q152 0 290.5 -59.5t239 -159.5
t160 -239t59.5 -291t-59.5 -290.5t-159.5 -238.5t-239 -159.5t-291 -59.5q-203 0 -375 100t-272.5 272.5t-100.5 375.5q0 152 59.5 291t159.5 239t238.5 159.5t290.5 59.5zM543 1071h327q134 0 207.5 -58t73.5 -177q0 -68 -27 -121t-80 -82l130 -264h-220l-100 229h-102
v-229h-209v702z" />
    <glyph glyph-name="macron" unicode="&#xaf;" horiz-adv-x="788" 
d="M92 1235v207h602v-207h-602z" />
    <glyph glyph-name="degree" unicode="&#xb0;" horiz-adv-x="854" 
d="M428 1284q-60 0 -97.5 -40.5t-37.5 -100.5q0 -62 36.5 -102t98.5 -40q61 0 98 40t37 102q0 61 -36.5 101t-98.5 40zM426 1464q143 0 238.5 -89t95.5 -232q0 -139 -97 -230.5t-237 -91.5q-141 0 -236.5 90.5t-95.5 231.5q0 142 95.5 231.5t236.5 89.5z" />
    <glyph glyph-name="plusminus" unicode="&#xb1;" horiz-adv-x="1288" 
d="M492 1450h303v-371h360v-293h-360v-370h-303v370h-359v293h359v371zM133 0v293h1022v-293h-1022z" />
    <glyph glyph-name="twosuperior" unicode="&#xb2;" horiz-adv-x="759" 
d="M389 1651q60 0 113 -14t97.5 -43t70.5 -79.5t26 -117.5q0 -51 -16.5 -92.5t-52.5 -75.5t-65.5 -54.5t-82.5 -52.5q-44 -27 -68.5 -43t-54.5 -44.5t-45 -57.5h396v-178h-654v67q-1 64 16.5 119.5t42.5 92.5t66 72.5t72.5 55.5t77.5 45q33 17 43 22.5t35.5 20t34.5 23
t23 22t18.5 26.5t4.5 28q0 40 -27 61t-73 21q-107 0 -121 -125h-215q12 139 101 220t237 81z" />
    <glyph glyph-name="threesuperior" unicode="&#xb3;" horiz-adv-x="782" 
d="M395 1653q138 0 222.5 -62t84.5 -170q0 -60 -29.5 -106.5t-80.5 -69.5q64 -22 100.5 -71t36.5 -117q0 -85 -50 -145t-124.5 -86.5t-163.5 -26.5q-148 0 -240.5 77.5t-99.5 215.5h205q4 -57 41 -88t94 -31q49 0 84 22.5t35 77.5q0 41 -29.5 66.5t-93.5 25.5h-84v148h72
q46 0 80 20.5t34 63.5q0 80 -102 80q-48 0 -78 -24t-33 -69h-202q9 125 96 197t225 72z" />
    <glyph glyph-name="acute" unicode="&#xb4;" horiz-adv-x="690" 
d="M297 1493h301l-250 -311h-254z" />
    <glyph glyph-name="paragraph" unicode="&#xb6;" horiz-adv-x="1382" 
d="M588 1434h661v-1434h-299v1137h-104v-1137h-299v528h-41q-73 0 -144.5 28t-132.5 80t-99 138.5t-38 192.5q0 148 68.5 256t179 159.5t248.5 51.5z" />
    <glyph glyph-name="periodcentered" unicode="&#xb7;" horiz-adv-x="604" 
d="M135 553v328h336v-328h-336z" />
    <glyph glyph-name="cedilla" unicode="&#xb8;" horiz-adv-x="630" 
d="M360 0l-24 -84q97 -8 149 -51.5t52 -132.5q0 -76 -38 -126.5t-96 -71.5t-133 -21q-92 0 -176 43v157q110 -45 166 -45q40 0 68 16.5t28 53.5q0 59 -129 59h-57l61 203h129z" />
    <glyph glyph-name="onesuperior" unicode="&#xb9;" horiz-adv-x="532" 
d="M258 1653h180v-854h-213v532h-174v170q41 0 66.5 2t55.5 10t46 23.5t27.5 45t11.5 71.5z" />
    <glyph glyph-name="ordmasculine" unicode="&#xba;" horiz-adv-x="1050" 
d="M524 1260q-85 0 -126.5 -58t-41.5 -149t41.5 -149t126.5 -58q88 0 128 58t40 149q0 92 -40.5 149.5t-127.5 57.5zM524 1466q192 0 312 -113.5t120 -299.5q0 -190 -122 -301t-310 -111q-192 0 -312 113t-120 299q0 189 122 301t310 112z" />
    <glyph glyph-name="guillemotright" unicode="&#xbb;" horiz-adv-x="1626" 
d="M711 1231h395l428 -514l-428 -516h-395l424 516zM135 1231h395l428 -514l-428 -516h-395l426 516z" />
    <glyph glyph-name="onequarter" unicode="&#xbc;" horiz-adv-x="1669" 
d="M1124 307h185v293zM911 127v131l355 561h256v-512h106v-180h-106v-158h-213v158h-398zM258 1466h180v-854h-213v533h-174v170q42 0 66.5 1.5t55 10t46.5 24t27.5 44.5t11.5 71zM143 0l969 1434h272l-968 -1434h-273z" />
    <glyph glyph-name="onehalf" unicode="&#xbd;" horiz-adv-x="1755" 
d="M258 1466h180v-854h-213v533h-174v170q42 0 66.5 1.5t55 10t46.5 24t27.5 44.5t11.5 71zM143 0l969 1434h272l-968 -1434h-273zM1386 821q60 0 113.5 -14t98 -43t70.5 -79.5t26 -117.5q0 -51 -16.5 -92t-52.5 -75.5t-65 -54.5t-83 -52q-43 -26 -68 -43t-55 -45.5
t-45 -57.5h395v-178h-653v68q-1 64 16.5 119.5t42 92.5t65.5 72.5t72.5 55.5t77.5 45q98 51 125 75q35 31 35 66q0 40 -27.5 61t-73.5 21q-106 0 -120 -125h-215q12 140 100.5 220.5t236.5 80.5z" />
    <glyph glyph-name="threequarters" unicode="&#xbe;" horiz-adv-x="1918" 
d="M1374 307h185v293zM1161 127v131l355 561h256v-512h106v-180h-106v-158h-213v158h-398zM397 1466q138 0 223 -61.5t85 -169.5q0 -59 -29.5 -106t-81.5 -70q64 -22 100.5 -71.5t36.5 -117.5q0 -85 -50 -145t-124.5 -86.5t-163.5 -26.5q-148 0 -240.5 77.5t-99.5 215.5h205
q4 -57 41 -88t94 -31q49 0 84 22.5t35 78.5q0 41 -29.5 66.5t-93.5 25.5h-84v147h72q46 0 80.5 20.5t34.5 63.5q0 80 -103 80q-48 0 -77.5 -23.5t-32.5 -68.5h-203q9 125 96 196.5t225 71.5zM393 0l969 1434h272l-968 -1434h-273z" />
    <glyph glyph-name="questiondown" unicode="&#xbf;" horiz-adv-x="1253" 
d="M809 1085v-329h-334v329h334zM786 653v-41q0 -123 -33 -201t-96 -135q-29 -27 -74.5 -59.5t-71.5 -52t-46.5 -53t-20.5 -74.5q0 -67 50.5 -106.5t123.5 -39.5q106 0 159.5 63.5t60.5 166.5h331q-18 -257 -161.5 -378.5t-405.5 -121.5q-84 0 -159.5 14.5t-141.5 46.5
t-114 78t-75.5 113.5t-27.5 149.5q0 64 18.5 115t54.5 88.5t69.5 63t85.5 59t79 54.5q105 78 105 193v57h290z" />
    <glyph glyph-name="Agrave" unicode="&#xc0;" horiz-adv-x="1511" 
d="M578 559h352l-174 526zM397 0h-377l523 1434h424l522 -1434h-379l-98 285h-516zM621 1561l-248 311h299l205 -311h-256z" />
    <glyph glyph-name="Aacute" unicode="&#xc1;" horiz-adv-x="1511" 
d="M578 559h352l-174 526zM397 0h-377l523 1434h424l522 -1434h-379l-98 285h-516zM635 1561l203 311h301l-250 -311h-254z" />
    <glyph glyph-name="Acircumflex" unicode="&#xc2;" horiz-adv-x="1511" 
d="M578 559h352l-174 526zM397 0h-377l523 1434h424l522 -1434h-379l-98 285h-516zM406 1561l210 311h281l209 -311h-236l-114 161l-113 -161h-237z" />
    <glyph glyph-name="Atilde" unicode="&#xc3;" horiz-adv-x="1511" 
d="M578 559h352l-174 526zM397 0h-377l523 1434h424l522 -1434h-379l-98 285h-516zM598 1858q43 0 88 -17t76 -37.5t67.5 -37.5t65.5 -17q76 0 76 100h186q1 -79 -23.5 -146.5t-81.5 -114t-137 -46.5q-57 0 -114 28t-104 55.5t-79 27.5q-38 0 -56.5 -30.5t-18.5 -72.5h-189
q2 62 16 114.5t41.5 97.5t75.5 70.5t111 25.5z" />
    <glyph glyph-name="Adieresis" unicode="&#xc4;" horiz-adv-x="1511" 
d="M578 559h352l-174 526zM397 0h-377l523 1434h424l522 -1434h-379l-98 285h-516zM707 1571h-281v264h281v-264zM1087 1571h-278v264h278v-264z" />
    <glyph glyph-name="Aring" unicode="&#xc5;" horiz-adv-x="1511" 
d="M578 559h352l-174 526zM756 1806q-33 0 -53.5 -19.5t-20.5 -51.5q0 -33 20.5 -53.5t53.5 -20.5q31 0 50 21t19 53q0 31 -18.5 51t-50.5 20zM397 0h-377l523 1434h424l522 -1434h-379l-98 285h-516zM756 1946q94 0 157.5 -58.5t63.5 -152.5t-63.5 -152.5t-157.5 -58.5
t-159 59t-65 152t65 152t159 59z" />
    <glyph glyph-name="AE" unicode="&#xc6;" horiz-adv-x="2191" 
d="M1090 1128l-340 -569h340v569zM899 1434h1200v-281h-665v-291h616v-280h-616v-301h665v-281h-1009v285h-480l-174 -285h-413z" />
    <glyph glyph-name="Ccedilla" unicode="&#xc7;" horiz-adv-x="1544" 
d="M659 -203l54 174q-199 15 -345 117t-220 264t-74 365q0 214 82.5 382t244 266.5t379.5 98.5q292 0 478 -158.5t212 -437.5h-346q-18 138 -109.5 225t-236.5 87q-72 0 -131.5 -26t-101 -70.5t-70 -104.5t-42 -126t-13.5 -136q0 -69 13.5 -135t42 -125.5t70 -104
t101.5 -70.5t131 -26q145 0 236.5 86t109.5 225h346q-25 -264 -192.5 -421.5t-435.5 -174.5l-17 -55q97 -8 149 -51.5t52 -132.5q0 -76 -37.5 -126.5t-95.5 -71.5t-133 -21q-92 0 -176 43v157q110 -45 166 -45q40 0 68 16.5t28 53.5q0 59 -129 59h-58z" />
    <glyph glyph-name="Egrave" unicode="&#xc8;" horiz-adv-x="1236" 
d="M133 1434h1010v-281h-666v-291h617v-280h-617v-301h666v-281h-1010v1434zM387 1872h299l205 -311h-256z" />
    <glyph glyph-name="Eacute" unicode="&#xc9;" horiz-adv-x="1236" 
d="M133 1434h1010v-281h-666v-291h617v-280h-617v-301h666v-281h-1010v1434zM590 1872h301l-250 -311h-254z" />
    <glyph glyph-name="Ecircumflex" unicode="&#xca;" horiz-adv-x="1236" 
d="M133 1434h1010v-281h-666v-291h617v-280h-617v-301h666v-281h-1010v1434zM500 1872h280l209 -311h-235l-115 161l-113 -161h-237z" />
    <glyph glyph-name="Edieresis" unicode="&#xcb;" horiz-adv-x="1236" 
d="M133 1434h1010v-281h-666v-291h617v-280h-617v-301h666v-281h-1010v1434zM692 1571v264h279v-264h-279zM309 1571v264h281v-264h-281z" />
    <glyph glyph-name="Igrave" unicode="&#xcc;" horiz-adv-x="614" 
d="M133 0v1434h344v-1434h-344zM-68 1872h299l205 -311h-256z" />
    <glyph glyph-name="Iacute" unicode="&#xcd;" horiz-adv-x="614" 
d="M133 0v1434h344v-1434h-344zM385 1872h301l-250 -311h-254z" />
    <glyph glyph-name="Icircumflex" unicode="&#xce;" horiz-adv-x="614" 
d="M133 0v1434h344v-1434h-344zM168 1872h281l208 -311h-235l-115 161l-112 -161h-238z" />
    <glyph glyph-name="Idieresis" unicode="&#xcf;" horiz-adv-x="614" 
d="M133 0v1434h344v-1434h-344zM360 1571v264h279v-264h-279zM-23 1571v264h281v-264h-281z" />
    <glyph glyph-name="Eth" unicode="&#xd0;" horiz-adv-x="1484" 
d="M645 1153h-168v-334h168v-205h-168v-333h168q212 0 322 116t110 320t-110 320t-322 116zM133 819v615h522q167 0 304.5 -46t238 -134.5t156 -225.5t55.5 -311t-55.5 -311t-156 -225.5t-238 -134.5t-304.5 -46h-522v614h-90v205h90z" />
    <glyph glyph-name="Ntilde" unicode="&#xd1;" horiz-adv-x="1490" 
d="M1010 1434h346v-1434h-371l-508 854v-854h-344v1434h365l512 -891v891zM588 1858q43 0 88 -17t76 -37.5t67.5 -37.5t65.5 -17q76 0 76 100h186q1 -79 -23.5 -146.5t-81.5 -114t-137 -46.5q-57 0 -114 28t-104 55.5t-79 27.5q-38 0 -57 -30.5t-19 -72.5h-188
q2 62 16 114.5t41.5 97.5t75.5 70.5t111 25.5z" />
    <glyph glyph-name="Ograve" unicode="&#xd2;" horiz-adv-x="1585" 
d="M791 1176q-94 0 -167.5 -37.5t-117 -102t-66 -145.5t-22.5 -174q0 -74 13.5 -140.5t43 -125t72.5 -100.5t105.5 -66.5t138.5 -24.5q95 0 168.5 37t117.5 101t66 145t22 174t-22 174t-66 145.5t-117.5 102t-168.5 37.5zM791 1464q171 0 309.5 -58.5t227 -160t136 -237
t47.5 -291.5q0 -124 -29.5 -236t-89.5 -205.5t-144.5 -162t-201.5 -106.5t-255 -38q-137 0 -253.5 38t-201.5 106.5t-145 162t-89.5 205.5t-29.5 236q0 156 47.5 291.5t136 237t226.5 160t309 58.5zM430 1872h299l205 -311h-256z" />
    <glyph glyph-name="Oacute" unicode="&#xd3;" horiz-adv-x="1585" 
d="M791 1176q-94 0 -167.5 -37.5t-117 -102t-66 -145.5t-22.5 -174q0 -74 13.5 -140.5t43 -125t72.5 -100.5t105.5 -66.5t138.5 -24.5q95 0 168.5 37t117.5 101t66 145t22 174t-22 174t-66 145.5t-117.5 102t-168.5 37.5zM791 1464q171 0 309.5 -58.5t227 -160t136 -237
t47.5 -291.5q0 -124 -29.5 -236t-89.5 -205.5t-144.5 -162t-201.5 -106.5t-255 -38q-137 0 -253.5 38t-201.5 106.5t-145 162t-89.5 205.5t-29.5 236q0 156 47.5 291.5t136 237t226.5 160t309 58.5zM864 1872h301l-250 -311h-253z" />
    <glyph glyph-name="Ocircumflex" unicode="&#xd4;" horiz-adv-x="1585" 
d="M791 1176q-94 0 -167.5 -37.5t-117 -102t-66 -145.5t-22.5 -174q0 -74 13.5 -140.5t43 -125t72.5 -100.5t105.5 -66.5t138.5 -24.5q95 0 168.5 37t117.5 101t66 145t22 174t-22 174t-66 145.5t-117.5 102t-168.5 37.5zM791 1464q171 0 309.5 -58.5t227 -160t136 -237
t47.5 -291.5q0 -124 -29.5 -236t-89.5 -205.5t-144.5 -162t-201.5 -106.5t-255 -38q-137 0 -253.5 38t-201.5 106.5t-145 162t-89.5 205.5t-29.5 236q0 156 47.5 291.5t136 237t226.5 160t309 58.5zM442 1561l211 311h281l209 -311h-236l-114 161l-113 -161h-238z" />
    <glyph glyph-name="Otilde" unicode="&#xd5;" horiz-adv-x="1585" 
d="M791 1176q-94 0 -167.5 -37.5t-117 -102t-66 -145.5t-22.5 -174q0 -74 13.5 -140.5t43 -125t72.5 -100.5t105.5 -66.5t138.5 -24.5q95 0 168.5 37t117.5 101t66 145t22 174t-22 174t-66 145.5t-117.5 102t-168.5 37.5zM791 1464q171 0 309.5 -58.5t227 -160t136 -237
t47.5 -291.5q0 -124 -29.5 -236t-89.5 -205.5t-144.5 -162t-201.5 -106.5t-255 -38q-137 0 -253.5 38t-201.5 106.5t-145 162t-89.5 205.5t-29.5 236q0 156 47.5 291.5t136 237t226.5 160t309 58.5zM635 1858q43 0 88 -17t76 -37.5t67.5 -37.5t65.5 -17q76 0 76 100h186
q1 -79 -23.5 -146.5t-81.5 -114t-137 -46.5q-57 0 -114 28t-104 55.5t-79 27.5q-38 0 -56.5 -30.5t-18.5 -72.5h-189q2 62 16 114.5t41.5 97.5t75.5 70.5t111 25.5z" />
    <glyph glyph-name="Odieresis" unicode="&#xd6;" horiz-adv-x="1585" 
d="M791 1176q-94 0 -167.5 -37.5t-117 -102t-66 -145.5t-22.5 -174q0 -74 13.5 -140.5t43 -125t72.5 -100.5t105.5 -66.5t138.5 -24.5q95 0 168.5 37t117.5 101t66 145t22 174t-22 174t-66 145.5t-117.5 102t-168.5 37.5zM791 1464q171 0 309.5 -58.5t227 -160t136 -237
t47.5 -291.5q0 -124 -29.5 -236t-89.5 -205.5t-144.5 -162t-201.5 -106.5t-255 -38q-137 0 -253.5 38t-201.5 106.5t-145 162t-89.5 205.5t-29.5 236q0 156 47.5 291.5t136 237t226.5 160t309 58.5zM846 1571v264h278v-264h-278zM463 1571v264h280v-264h-280z" />
    <glyph glyph-name="multiply" unicode="&#xd7;" horiz-adv-x="1218" 
d="M870 1069l213 -217l-260 -260l262 -258l-215 -215l-260 260l-260 -262l-215 215l262 260l-262 260l213 217l262 -262z" />
    <glyph glyph-name="Oslash" unicode="&#xd8;" horiz-adv-x="1585" 
d="M469 463l506 665q-76 48 -184 48q-94 0 -167.5 -37.5t-117 -102t-66 -145.5t-22.5 -174q0 -146 51 -254zM1114 971l-506 -666q76 -45 183 -45q95 0 168.5 37t117.5 101t66 145t22 174q0 146 -51 254zM352 -31h-258l164 217q-91 100 -138.5 237t-47.5 294
q0 156 47.5 291.5t136 237t226.5 160t309 58.5q215 0 372 -88l68 88h258l-164 -215q186 -207 186 -532q0 -124 -29.5 -236t-89.5 -205.5t-144.5 -162t-201.5 -106.5t-255 -38q-208 0 -371 88z" />
    <glyph glyph-name="Ugrave" unicode="&#xd9;" horiz-adv-x="1423" 
d="M965 1434h344v-910q0 -134 -46 -241t-127 -175t-189.5 -103.5t-235.5 -35.5t-234.5 35.5t-189.5 103t-128 174.5t-46 242v910h344v-895q0 -135 67 -209t187 -74q122 0 188 74.5t66 208.5v895zM461 1872h299l205 -311h-256z" />
    <glyph glyph-name="Uacute" unicode="&#xda;" horiz-adv-x="1423" 
d="M965 1434h344v-910q0 -134 -46 -241t-127 -175t-189.5 -103.5t-235.5 -35.5t-234.5 35.5t-189.5 103t-128 174.5t-46 242v910h344v-895q0 -135 67 -209t187 -74q122 0 188 74.5t66 208.5v895zM664 1872h301l-250 -311h-254z" />
    <glyph glyph-name="Ucircumflex" unicode="&#xdb;" horiz-adv-x="1423" 
d="M965 1434h344v-910q0 -134 -46 -241t-127 -175t-189.5 -103.5t-235.5 -35.5t-234.5 35.5t-189.5 103t-128 174.5t-46 242v910h344v-895q0 -135 67 -209t187 -74q122 0 188 74.5t66 208.5v895zM573 1872h281l209 -311h-236l-114 161l-113 -161h-238z" />
    <glyph glyph-name="Udieresis" unicode="&#xdc;" horiz-adv-x="1423" 
d="M965 1434h344v-910q0 -134 -46 -241t-127 -175t-189.5 -103.5t-235.5 -35.5t-234.5 35.5t-189.5 103t-128 174.5t-46 242v910h344v-895q0 -135 67 -209t187 -74q122 0 188 74.5t66 208.5v895zM764 1571v264h278v-264h-278zM381 1571v264h281v-264h-281z" />
    <glyph glyph-name="Yacute" unicode="&#xdd;" horiz-adv-x="1411" 
d="M999 1434h390l-512 -961v-473h-345v473l-512 961h388l297 -615zM657 1872h301l-249 -311h-254z" />
    <glyph glyph-name="Thorn" unicode="&#xde;" horiz-adv-x="1363" 
d="M737 905h-243v-379h243q94 0 155.5 49t61.5 142q0 94 -59.5 141t-157.5 47zM494 1186h256q121 0 220 -27.5t173.5 -83.5t115.5 -147t41 -211q0 -124 -41.5 -216t-117 -146.5t-173 -80.5t-218.5 -26h-256v-248h-351v1434h351v-248z" />
    <glyph glyph-name="germandbls" unicode="&#xdf;" horiz-adv-x="1368" 
d="M698 1464q72 0 142 -13.5t136.5 -43.5t117 -73.5t81.5 -109.5t31 -145q0 -114 -53 -205.5t-154 -123.5q145 -32 225.5 -120.5t80.5 -234.5q0 -91 -30 -164.5t-79 -121t-115 -80t-136 -46.5t-144 -14q-149 0 -248 45v254q28 -18 79 -28.5t97 -10.5q107 0 168 54t61 149
q0 97 -67.5 139.5t-177.5 42.5h-125v254h98q90 0 147.5 44t57.5 130q0 75 -51.5 117.5t-137.5 42.5q-101 0 -157 -65t-56 -183v-954h-344v907q0 264 143 410.5t410 146.5z" />
    <glyph glyph-name="agrave" unicode="&#xe0;" horiz-adv-x="1247" 
d="M547 412q-82 -16 -127 -43.5t-45 -81.5q0 -109 143 -109q99 0 181.5 63t82.5 150v78q-1 0 -8 -3t-15.5 -6.5t-24.5 -8.5t-34 -9zM430 598q200 29 268 39q43 8 63.5 22t20.5 41q0 150 -170 150q-79 0 -130 -38t-60 -112h-303q55 385 487 385q112 0 197 -22.5t150.5 -71.5
t99.5 -134t34 -204v-360q0 -58 13 -83.5t59 -25.5h21v-215h-138q-85 0 -142.5 43.5t-74.5 126.5q-141 -170 -381 -170q-167 0 -271.5 75.5t-104.5 227.5q0 276 362 326zM502 1182l-248 311h299l205 -311h-256z" />
    <glyph glyph-name="aacute" unicode="&#xe1;" horiz-adv-x="1247" 
d="M547 412q-82 -16 -127 -43.5t-45 -81.5q0 -109 143 -109q99 0 181.5 63t82.5 150v78q-1 0 -8 -3t-15.5 -6.5t-24.5 -8.5t-34 -9zM430 598q200 29 268 39q43 8 63.5 22t20.5 41q0 150 -170 150q-79 0 -130 -38t-60 -112h-303q55 385 487 385q112 0 197 -22.5t150.5 -71.5
t99.5 -134t34 -204v-360q0 -58 13 -83.5t59 -25.5h21v-215h-138q-85 0 -142.5 43.5t-74.5 126.5q-141 -170 -381 -170q-167 0 -271.5 75.5t-104.5 227.5q0 276 362 326zM485 1182l203 311h301l-250 -311h-254z" />
    <glyph glyph-name="acircumflex" unicode="&#xe2;" horiz-adv-x="1247" 
d="M547 412q-82 -16 -127 -43.5t-45 -81.5q0 -109 143 -109q99 0 181.5 63t82.5 150v78q-1 0 -8 -3t-15.5 -6.5t-24.5 -8.5t-34 -9zM430 598q200 29 268 39q43 8 63.5 22t20.5 41q0 150 -170 150q-79 0 -130 -38t-60 -112h-303q55 385 487 385q112 0 197 -22.5t150.5 -71.5
t99.5 -134t34 -204v-360q0 -58 13 -83.5t59 -25.5h21v-215h-138q-85 0 -142.5 43.5t-74.5 126.5q-141 -170 -381 -170q-167 0 -271.5 75.5t-104.5 227.5q0 276 362 326zM272 1182l211 311h281l209 -311h-236l-114 161l-113 -161h-238z" />
    <glyph glyph-name="atilde" unicode="&#xe3;" horiz-adv-x="1247" 
d="M547 412q-82 -16 -127 -43.5t-45 -81.5q0 -109 143 -109q99 0 181.5 63t82.5 150v78q-1 0 -8 -3t-15.5 -6.5t-24.5 -8.5t-34 -9zM430 598q200 29 268 39q43 8 63.5 22t20.5 41q0 150 -170 150q-79 0 -130 -38t-60 -112h-303q55 385 487 385q112 0 197 -22.5t150.5 -71.5
t99.5 -134t34 -204v-360q0 -58 13 -83.5t59 -25.5h21v-215h-138q-85 0 -142.5 43.5t-74.5 126.5q-141 -170 -381 -170q-167 0 -271.5 75.5t-104.5 227.5q0 276 362 326zM465 1479q43 0 88 -17t76 -37.5t67.5 -37.5t65.5 -17q76 0 76 100h186q1 -79 -23.5 -146.5t-81.5 -114
t-137 -46.5q-45 0 -91 17.5t-77.5 38t-67 38t-61.5 17.5q-38 0 -56.5 -30.5t-18.5 -72.5h-189q2 62 16 114.5t41.5 97.5t75.5 70.5t111 25.5z" />
    <glyph glyph-name="adieresis" unicode="&#xe4;" horiz-adv-x="1247" 
d="M547 412q-82 -16 -127 -43.5t-45 -81.5q0 -109 143 -109q99 0 181.5 63t82.5 150v78q-1 0 -8 -3t-15.5 -6.5t-24.5 -8.5t-34 -9zM430 598q200 29 268 39q43 8 63.5 22t20.5 41q0 150 -170 150q-79 0 -130 -38t-60 -112h-303q55 385 487 385q112 0 197 -22.5t150.5 -71.5
t99.5 -134t34 -204v-360q0 -58 13 -83.5t59 -25.5h21v-215h-138q-85 0 -142.5 43.5t-74.5 126.5q-141 -170 -381 -170q-167 0 -271.5 75.5t-104.5 227.5q0 276 362 326zM573 1192h-280v264h280v-264zM954 1192h-278v264h278v-264z" />
    <glyph glyph-name="aring" unicode="&#xe5;" horiz-adv-x="1247" 
d="M547 412q-82 -16 -127 -43.5t-45 -81.5q0 -109 143 -109q99 0 181.5 63t82.5 150v78q-1 0 -8 -3t-15.5 -6.5t-24.5 -8.5t-34 -9zM623 1427q-33 0 -53.5 -19.5t-20.5 -51.5q0 -33 20.5 -53.5t53.5 -20.5q31 0 50 21t19 53q0 31 -18.5 51t-50.5 20zM430 598q200 29 268 39
q43 8 63.5 22t20.5 41q0 150 -170 150q-79 0 -130 -38t-60 -112h-303q55 385 487 385q112 0 197 -22.5t150.5 -71.5t99.5 -134t34 -204v-360q0 -58 13 -83.5t59 -25.5h21v-215h-138q-85 0 -142.5 43.5t-74.5 126.5q-141 -170 -381 -170q-167 0 -271.5 75.5t-104.5 227.5
q0 276 362 326zM623 1567q94 0 157.5 -58.5t63.5 -152.5t-63.5 -152.5t-157.5 -58.5t-159 59t-65 152t65 152t159 59z" />
    <glyph glyph-name="ae" unicode="&#xe6;" horiz-adv-x="1947" 
d="M778 465q-38 -15 -78 -23l-153 -30q-82 -16 -127 -43.5t-45 -81.5q0 -109 143 -109q91 0 172.5 57t104.5 142q-15 54 -17 88zM1337 844q-98 0 -156 -56.5t-77 -144.5h471q-20 92 -79.5 146.5t-158.5 54.5zM1337 1085q179 0 312.5 -84t195.5 -231q61 -149 39 -332h-784
q13 -103 77 -168t173 -65q169 0 229 123h297q-58 -178 -197.5 -268.5t-326.5 -90.5q-145 0 -265.5 55.5t-197.5 155.5q-39 -61 -95 -105t-118.5 -65.5t-118.5 -31t-113 -9.5q-167 0 -271.5 75.5t-104.5 227.5q0 276 362 326q200 29 268 39q43 8 63.5 22t20.5 41
q0 150 -170 150q-79 0 -130 -38t-60 -112h-303q55 385 487 385q256 0 375 -116q147 116 356 116z" />
    <glyph glyph-name="ccedilla" unicode="&#xe7;" horiz-adv-x="1206" 
d="M459 -203l55 180q-203 33 -330 183.5t-127 365.5q0 162 72.5 289.5t200 198.5t286.5 71q210 0 352.5 -110t180.5 -311h-305q-19 84 -78.5 130t-149.5 46q-124 0 -186.5 -90t-62.5 -224q0 -85 24.5 -153t82.5 -113t142 -45q90 0 149.5 46t78.5 130h305
q-36 -195 -171.5 -305.5t-336.5 -116.5l-16 -53q96 -8 148 -51t52 -133q0 -76 -37.5 -126.5t-95.5 -71.5t-133 -21q-92 0 -176 43v157q110 -45 166 -45q40 0 68 16.5t28 53.5q0 59 -129 59h-57z" />
    <glyph glyph-name="egrave" unicode="&#xe8;" horiz-adv-x="1230" 
d="M618 844q-97 0 -154.5 -57t-76.5 -146h471q-21 94 -80.5 148.5t-159.5 54.5zM618 1085q181 0 314 -84.5t194 -232.5q64 -147 39 -330h-784q13 -103 77.5 -169t172.5 -66q79 0 139 31t90 94h297q-58 -178 -197 -268.5t-325 -90.5q-251 0 -414.5 154.5t-163.5 404.5
q0 243 159 400t402 157zM508 1182l-248 311h299l205 -311h-256z" />
    <glyph glyph-name="eacute" unicode="&#xe9;" horiz-adv-x="1230" 
d="M618 844q-97 0 -154.5 -57t-76.5 -146h471q-21 94 -80.5 148.5t-159.5 54.5zM618 1085q181 0 314 -84.5t194 -232.5q64 -147 39 -330h-784q13 -103 77.5 -169t172.5 -66q79 0 139 31t90 94h297q-58 -178 -197 -268.5t-325 -90.5q-251 0 -414.5 154.5t-163.5 404.5
q0 243 159 400t402 157zM489 1182l203 311h301l-250 -311h-254z" />
    <glyph glyph-name="ecircumflex" unicode="&#xea;" horiz-adv-x="1230" 
d="M618 844q-97 0 -154.5 -57t-76.5 -146h471q-21 94 -80.5 148.5t-159.5 54.5zM618 1085q181 0 314 -84.5t194 -232.5q64 -147 39 -330h-784q13 -103 77.5 -169t172.5 -66q79 0 139 31t90 94h297q-58 -178 -197 -268.5t-325 -90.5q-251 0 -414.5 154.5t-163.5 404.5
q0 243 159 400t402 157zM264 1182l211 311h281l209 -311h-236l-115 161l-112 -161h-238z" />
    <glyph glyph-name="edieresis" unicode="&#xeb;" horiz-adv-x="1230" 
d="M618 844q-97 0 -154.5 -57t-76.5 -146h471q-21 94 -80.5 148.5t-159.5 54.5zM618 1085q181 0 314 -84.5t194 -232.5q64 -147 39 -330h-784q13 -103 77.5 -169t172.5 -66q79 0 139 31t90 94h297q-58 -178 -197 -268.5t-325 -90.5q-251 0 -414.5 154.5t-163.5 404.5
q0 243 159 400t402 157zM565 1192h-280v264h280v-264zM946 1192h-278v264h278v-264z" />
    <glyph glyph-name="igrave" unicode="&#xec;" horiz-adv-x="514" 
d="M92 0v1055h326v-1055h-326zM-119 1493h299l205 -311h-256z" />
    <glyph glyph-name="iacute" unicode="&#xed;" horiz-adv-x="514" 
d="M92 0v1055h326v-1055h-326zM326 1493h301l-250 -311h-254z" />
    <glyph glyph-name="icircumflex" unicode="&#xee;" horiz-adv-x="514" 
d="M92 0v1055h326v-1055h-326zM117 1493h280l209 -311h-235l-115 161l-113 -161h-237z" />
    <glyph glyph-name="idieresis" unicode="&#xef;" horiz-adv-x="514" 
d="M92 0v1055h326v-1055h-326zM309 1192v264h279v-264h-279zM-74 1192v264h281v-264h-281z" />
    <glyph glyph-name="eth" unicode="&#xf0;" horiz-adv-x="1308" 
d="M629 737q-111 0 -171.5 -68.5t-60.5 -181.5q0 -108 59 -179.5t165 -71.5q107 0 168 68.5t75 178.5q2 100 -66 177t-169 77zM571 991q88 0 172 -33.5t140 -99.5q-56 214 -265 318l-108 -146l-113 84l84 111q-99 24 -200 24l2 260q199 0 370 -53l125 168l113 -84l-103 -137
q205 -100 322 -285.5t117 -441.5q0 -114 -20 -215t-66 -192t-114.5 -157t-172.5 -104.5t-233 -38.5q-154 0 -276 64t-192.5 185.5t-70.5 281.5q0 220 131.5 355.5t357.5 135.5z" />
    <glyph glyph-name="ntilde" unicode="&#xf1;" 
d="M713 1085q184 0 285.5 -111.5t101.5 -289.5v-684h-326v625q0 192 -168 192q-93 0 -140.5 -70t-47.5 -172v-575h-326v1055h285l16 -111q109 141 320 141zM428 1479q43 0 88 -17t76 -37.5t67.5 -37.5t65.5 -17q76 0 76 100h186q1 -79 -23.5 -146.5t-81.5 -114t-137 -46.5
q-45 0 -91 17.5t-77 38t-66.5 38t-61.5 17.5q-38 0 -57 -30.5t-19 -72.5h-189q2 62 16 114.5t41.5 97.5t75.5 70.5t111 25.5z" />
    <glyph glyph-name="ograve" unicode="&#xf2;" horiz-adv-x="1255" 
d="M627 827q-84 0 -144 -43.5t-87 -109.5t-27 -146t27 -146t87 -109.5t144 -43.5q85 0 145 44t86.5 110t26.5 145q0 80 -27 146t-87 109.5t-144 43.5zM627 1085q250 0 410.5 -156t160.5 -401q0 -244 -161 -401.5t-410 -157.5q-248 0 -409 157t-161 402t160.5 401t409.5 156z
M268 1493h299l205 -311h-256z" />
    <glyph glyph-name="oacute" unicode="&#xf3;" horiz-adv-x="1255" 
d="M627 827q-84 0 -144 -43.5t-87 -109.5t-27 -146t27 -146t87 -109.5t144 -43.5q85 0 145 44t86.5 110t26.5 145q0 80 -27 146t-87 109.5t-144 43.5zM627 1085q250 0 410.5 -156t160.5 -401q0 -244 -161 -401.5t-410 -157.5q-248 0 -409 157t-161 402t160.5 401t409.5 156z
M707 1493h301l-250 -311h-254z" />
    <glyph glyph-name="ocircumflex" unicode="&#xf4;" horiz-adv-x="1255" 
d="M627 827q-84 0 -144 -43.5t-87 -109.5t-27 -146t27 -146t87 -109.5t144 -43.5q85 0 145 44t86.5 110t26.5 145q0 80 -27 146t-87 109.5t-144 43.5zM627 1085q250 0 410.5 -156t160.5 -401q0 -244 -161 -401.5t-410 -157.5q-248 0 -409 157t-161 402t160.5 401t409.5 156z
M276 1182l211 311h281l209 -311h-236l-114 161l-113 -161h-238z" />
    <glyph glyph-name="otilde" unicode="&#xf5;" horiz-adv-x="1255" 
d="M627 827q-84 0 -144 -43.5t-87 -109.5t-27 -146t27 -146t87 -109.5t144 -43.5q85 0 145 44t86.5 110t26.5 145q0 80 -27 146t-87 109.5t-144 43.5zM627 1085q250 0 410.5 -156t160.5 -401q0 -244 -161 -401.5t-410 -157.5q-248 0 -409 157t-161 402t160.5 401t409.5 156z
M469 1479q43 0 88 -17t76 -37.5t67.5 -37.5t65.5 -17q76 0 76 100h186q1 -79 -23.5 -146.5t-81.5 -114t-137 -46.5q-45 0 -91 17.5t-77.5 38t-67 38t-61.5 17.5q-38 0 -56.5 -30.5t-18.5 -72.5h-189q2 62 16 114.5t41.5 97.5t75.5 70.5t111 25.5z" />
    <glyph glyph-name="odieresis" unicode="&#xf6;" horiz-adv-x="1255" 
d="M627 827q-84 0 -144 -43.5t-87 -109.5t-27 -146t27 -146t87 -109.5t144 -43.5q85 0 145 44t86.5 110t26.5 145q0 80 -27 146t-87 109.5t-144 43.5zM627 1085q250 0 410.5 -156t160.5 -401q0 -244 -161 -401.5t-410 -157.5q-248 0 -409 157t-161 402t160.5 401t409.5 156z
M680 1192v264h278v-264h-278zM297 1192v264h281v-264h-281z" />
    <glyph glyph-name="divide" unicode="&#xf7;" horiz-adv-x="1320" 
d="M659 1171q69 0 117.5 -47t48.5 -116t-48.5 -117.5t-117.5 -48.5t-117 48.5t-48 117.5t48 116t117 47zM133 739h1053v-293h-1053v293zM659 346q69 0 117.5 -48.5t48.5 -117.5t-48.5 -117.5t-117.5 -48.5t-117 48.5t-48 117.5t48 117.5t117 48.5z" />
    <glyph glyph-name="oslash" unicode="&#xf8;" horiz-adv-x="1255" 
d="M397 379l328 432q-46 16 -98 16q-84 0 -144 -43.5t-87 -109.5t-27 -146q0 -79 28 -149zM856 676l-326 -430q49 -17 97 -17q85 0 145 44t86.5 110t26.5 145q0 83 -29 148zM936 1085h233l-125 -163q154 -157 154 -394q0 -244 -161 -401.5t-410 -157.5q-143 0 -265 58
l-43 -58h-233l125 164q-154 157 -154 395q0 245 160.5 401t409.5 156q150 0 266 -55z" />
    <glyph glyph-name="ugrave" unicode="&#xf9;" 
d="M754 1055h325v-1055h-282l-17 113q-112 -144 -319 -144q-185 0 -287 112.5t-102 289.5v684h325v-625q0 -192 168 -192q93 0 141 69.5t48 171.5v576zM207 1493h299l205 -311h-256z" />
    <glyph glyph-name="uacute" unicode="&#xfa;" 
d="M754 1055h325v-1055h-282l-17 113q-112 -144 -319 -144q-185 0 -287 112.5t-102 289.5v684h325v-625q0 -192 168 -192q93 0 141 69.5t48 171.5v576zM655 1493h301l-249 -311h-254z" />
    <glyph glyph-name="ucircumflex" unicode="&#xfb;" 
d="M754 1055h325v-1055h-282l-17 113q-112 -144 -319 -144q-185 0 -287 112.5t-102 289.5v684h325v-625q0 -192 168 -192q93 0 141 69.5t48 171.5v576zM449 1493h280l209 -311h-236l-114 161l-113 -161h-237z" />
    <glyph glyph-name="udieresis" unicode="&#xfc;" 
d="M754 1055h325v-1055h-282l-17 113q-112 -144 -319 -144q-185 0 -287 112.5t-102 289.5v684h325v-625q0 -192 168 -192q93 0 141 69.5t48 171.5v576zM639 1192v264h279v-264h-279zM256 1192v264h281v-264h-281z" />
    <glyph glyph-name="yacute" unicode="&#xfd;" horiz-adv-x="1163" 
d="M582 406l213 649h348l-406 -1114q-28 -88 -54.5 -147t-65.5 -111t-89 -81.5t-119.5 -46t-162.5 -16.5q-44 0 -92 10v261q36 -9 77 -9q70 0 115 36.5t64 94.5l24 68h-28l-383 1055h348zM668 1497h301l-250 -311h-254z" />
    <glyph glyph-name="thorn" unicode="&#xfe;" horiz-adv-x="1312" 
d="M692 225q131 0 200 86t69 215q0 127 -70.5 213t-198.5 86q-126 0 -199 -88t-73 -211q0 -125 73 -213t199 -88zM745 1085q118 0 216 -44t163 -120t100.5 -178t35.5 -217q0 -155 -56.5 -280t-173.5 -202t-278 -77q-97 0 -184.5 36.5t-147.5 102.5v-516h-318v1870h318v-516
q57 66 141 103.5t184 37.5z" />
    <glyph glyph-name="ydieresis" unicode="&#xff;" horiz-adv-x="1163" 
d="M582 406l213 649h348l-406 -1114q-28 -88 -54.5 -147t-65.5 -111t-89 -81.5t-119.5 -46t-162.5 -16.5q-44 0 -92 10v261q36 -9 77 -9q70 0 115 36.5t64 94.5l24 68h-28l-383 1055h348zM635 1192v264h278v-264h-278zM252 1192v264h280v-264h-280z" />
    <glyph glyph-name="Amacron" unicode="&#x100;" horiz-adv-x="1511" 
d="M578 559h352l-174 526zM397 0h-377l523 1434h424l522 -1434h-379l-98 285h-516zM1055 1614h-602v207h602v-207z" />
    <glyph glyph-name="amacron" unicode="&#x101;" horiz-adv-x="1247" 
d="M547 412q-82 -16 -127 -43.5t-45 -81.5q0 -109 143 -109q99 0 181.5 63t82.5 150v78q-1 0 -8 -3t-15.5 -6.5t-24.5 -8.5t-34 -9zM430 598q200 29 268 39q43 8 63.5 22t20.5 41q0 150 -170 150q-79 0 -130 -38t-60 -112h-303q55 385 487 385q112 0 197 -22.5t150.5 -71.5
t99.5 -134t34 -204v-360q0 -58 13 -83.5t59 -25.5h21v-215h-138q-85 0 -142.5 43.5t-74.5 126.5q-141 -170 -381 -170q-167 0 -271.5 75.5t-104.5 227.5q0 276 362 326zM924 1235h-602v207h602v-207z" />
    <glyph glyph-name="Abreve" unicode="&#x102;" horiz-adv-x="1511" 
d="M578 559h352l-174 526zM397 0h-377l523 1434h424l522 -1434h-379l-98 285h-516zM756 1739q56 0 83 33t35 92h189q-8 -149 -84.5 -234.5t-222.5 -85.5t-224 85t-86 235h191q14 -125 119 -125z" />
    <glyph glyph-name="abreve" unicode="&#x103;" horiz-adv-x="1247" 
d="M547 412q-82 -16 -127 -43.5t-45 -81.5q0 -109 143 -109q99 0 181.5 63t82.5 150v78q-1 0 -8 -3t-15.5 -6.5t-24.5 -8.5t-34 -9zM430 598q200 29 268 39q43 8 63.5 22t20.5 41q0 150 -170 150q-79 0 -130 -38t-60 -112h-303q55 385 487 385q112 0 197 -22.5t150.5 -71.5
t99.5 -134t34 -204v-360q0 -58 13 -83.5t59 -25.5h21v-215h-138q-85 0 -142.5 43.5t-74.5 126.5q-141 -170 -381 -170q-167 0 -271.5 75.5t-104.5 227.5q0 276 362 326zM623 1360q56 0 83 33t35 92h189q-8 -149 -84.5 -234.5t-222.5 -85.5t-224 85t-86 235h191
q14 -125 119 -125z" />
    <glyph glyph-name="Aogonek" unicode="&#x104;" horiz-adv-x="1511" 
d="M578 559h352l-174 526zM1335 0h-225l-98 285h-516l-99 -285h-377l523 1434h424l522 -1434h-2q-135 -76 -135 -188q0 -31 17.5 -49.5t47.5 -18.5q36 0 80 23l55 -148q-89 -57 -211 -57q-102 0 -166.5 49.5t-64.5 146.5q0 155 225 242z" />
    <glyph glyph-name="aogonek" unicode="&#x105;" horiz-adv-x="1247" 
d="M547 412q-82 -16 -127 -43.5t-45 -81.5q0 -109 143 -109q99 0 181.5 63t82.5 150v78q-1 0 -8 -3t-15.5 -6.5t-24.5 -8.5t-34 -9zM938 -10q-93 44 -113 149q-141 -170 -381 -170q-167 0 -271.5 75.5t-104.5 227.5q0 276 362 326q200 29 268 39q43 8 63.5 22t20.5 41
q0 150 -170 150q-79 0 -130 -38t-60 -112h-303q55 385 487 385q112 0 197 -22.5t150.5 -71.5t99.5 -134t34 -204v-360q0 -58 13 -83.5t59 -25.5h21v-215h-115q-88 -68 -88 -157q0 -31 17.5 -49.5t47.5 -18.5q36 0 80 23l56 -148q-89 -57 -211 -57q-103 0 -167.5 49.5
t-64.5 146.5q0 149 203 232z" />
    <glyph glyph-name="Cacute" unicode="&#x106;" horiz-adv-x="1544" 
d="M780 1464q292 0 478 -158.5t212 -437.5h-346q-18 138 -109.5 225t-236.5 87q-72 0 -131.5 -26t-101 -70.5t-70 -104.5t-42 -126t-13.5 -136q0 -69 13.5 -135t42 -125.5t70 -104t101.5 -70.5t131 -26q145 0 236.5 86t109.5 225h346q-26 -279 -212 -438.5t-478 -159.5
q-218 0 -379.5 98.5t-244 267t-82.5 382.5t82.5 382t244 266.5t379.5 98.5zM856 1872h301l-250 -311h-254z" />
    <glyph glyph-name="cacute" unicode="&#x107;" horiz-adv-x="1206" 
d="M616 1085q210 0 352.5 -110t180.5 -311h-305q-19 84 -78.5 130t-149.5 46q-124 0 -186.5 -90t-62.5 -224q0 -85 24.5 -153t82.5 -113t142 -45q90 0 149.5 46t78.5 130h305q-38 -201 -180.5 -311.5t-352.5 -110.5q-242 0 -400.5 156.5t-158.5 400.5q0 162 72.5 289.5
t200 198.5t286.5 71zM698 1493h301l-249 -311h-254z" />
    <glyph glyph-name="Ccircumflex" unicode="&#x108;" horiz-adv-x="1544" 
d="M780 1464q292 0 478 -158.5t212 -437.5h-346q-18 138 -109.5 225t-236.5 87q-72 0 -131.5 -26t-101 -70.5t-70 -104.5t-42 -126t-13.5 -136q0 -69 13.5 -135t42 -125.5t70 -104t101.5 -70.5t131 -26q145 0 236.5 86t109.5 225h346q-26 -279 -212 -438.5t-478 -159.5
q-218 0 -379.5 98.5t-244 267t-82.5 382.5t82.5 382t244 266.5t379.5 98.5zM633 1872h280l209 -311h-235l-115 161l-113 -161h-237z" />
    <glyph glyph-name="ccircumflex" unicode="&#x109;" horiz-adv-x="1206" 
d="M616 1085q210 0 352.5 -110t180.5 -311h-305q-19 84 -78.5 130t-149.5 46q-124 0 -186.5 -90t-62.5 -224q0 -85 24.5 -153t82.5 -113t142 -45q90 0 149.5 46t78.5 130h305q-38 -201 -180.5 -311.5t-352.5 -110.5q-242 0 -400.5 156.5t-158.5 400.5q0 162 72.5 289.5
t200 198.5t286.5 71zM465 1493h280l209 -311h-235l-115 161l-112 -161h-238z" />
    <glyph glyph-name="Cdotaccent" unicode="&#x10a;" horiz-adv-x="1544" 
d="M780 1464q292 0 478 -158.5t212 -437.5h-346q-18 138 -109.5 225t-236.5 87q-72 0 -131.5 -26t-101 -70.5t-70 -104.5t-42 -126t-13.5 -136q0 -69 13.5 -135t42 -125.5t70 -104t101.5 -70.5t131 -26q145 0 236.5 86t109.5 225h346q-26 -279 -212 -438.5t-478 -159.5
q-218 0 -379.5 98.5t-244 267t-82.5 382.5t82.5 382t244 266.5t379.5 98.5zM631 1569v264h280v-264h-280z" />
    <glyph glyph-name="cdotaccent" unicode="&#x10b;" horiz-adv-x="1206" 
d="M616 1085q210 0 352.5 -110t180.5 -311h-305q-19 84 -78.5 130t-149.5 46q-124 0 -186.5 -90t-62.5 -224q0 -85 24.5 -153t82.5 -113t142 -45q90 0 149.5 46t78.5 130h305q-38 -201 -180.5 -311.5t-352.5 -110.5q-242 0 -400.5 156.5t-158.5 400.5q0 162 72.5 289.5
t200 198.5t286.5 71zM463 1190v264h280v-264h-280z" />
    <glyph glyph-name="Ccaron" unicode="&#x10c;" horiz-adv-x="1544" 
d="M780 1464q292 0 478 -158.5t212 -437.5h-346q-18 138 -109.5 225t-236.5 87q-72 0 -131.5 -26t-101 -70.5t-70 -104.5t-42 -126t-13.5 -136q0 -69 13.5 -135t42 -125.5t70 -104t101.5 -70.5t131 -26q145 0 236.5 86t109.5 225h346q-26 -279 -212 -438.5t-478 -159.5
q-218 0 -379.5 98.5t-244 267t-82.5 382.5t82.5 382t244 266.5t379.5 98.5zM885 1874h237l-211 -311h-280l-211 311h237l113 -162z" />
    <glyph glyph-name="ccaron" unicode="&#x10d;" horiz-adv-x="1206" 
d="M616 1085q210 0 352.5 -110t180.5 -311h-305q-19 84 -78.5 130t-149.5 46q-124 0 -186.5 -90t-62.5 -224q0 -85 24.5 -153t82.5 -113t142 -45q90 0 149.5 46t78.5 130h305q-38 -201 -180.5 -311.5t-352.5 -110.5q-242 0 -400.5 156.5t-158.5 400.5q0 162 72.5 289.5
t200 198.5t286.5 71zM717 1495h237l-211 -311h-280l-211 311h237l113 -162z" />
    <glyph glyph-name="Dcaron" unicode="&#x10e;" horiz-adv-x="1484" 
d="M645 1153h-168v-872h168q212 0 322 116t110 320t-110 320t-322 116zM133 1434h522q167 0 305 -46t238.5 -134.5t156.5 -225.5t56 -311t-56 -311t-156.5 -225.5t-238.5 -134.5t-305 -46h-522v1434zM739 1712l115 162h238l-211 -311h-281l-211 311h238z" />
    <glyph glyph-name="dcaron" unicode="&#x10f;" horiz-adv-x="1640" 
d="M625 827q-131 0 -200 -86t-69 -213t70.5 -213t198.5 -86q126 0 199 88t73 211q0 125 -72.5 212t-199.5 87zM565 1085q97 0 185 -35.5t149 -101.5v486h315v-1434h-282l-19 121q-56 -72 -144.5 -112t-197.5 -40q-156 0 -274.5 76t-179 202t-60.5 281t57 279.5t174 201
t277 76.5zM1307 1061l57 373h276l-106 -373h-227z" />
    <glyph glyph-name="Dcroat" unicode="&#x110;" horiz-adv-x="1484" 
d="M645 1153h-168v-334h168v-205h-168v-333h168q212 0 322 116t110 320t-110 320t-322 116zM133 819v615h522q167 0 304.5 -46t238 -134.5t156 -225.5t55.5 -311t-55.5 -311t-156 -225.5t-238 -134.5t-304.5 -46h-522v614h-90v205h90z" />
    <glyph glyph-name="dcroat" unicode="&#x111;" horiz-adv-x="1308" 
d="M625 827q-131 0 -200 -86t-69 -213t70.5 -213t198.5 -86q126 0 199 88t73 211q0 125 -72.5 212t-199.5 87zM565 1085q97 0 185 -35.5t149 -101.5v187h-197v206h197v93h315v-93h91v-206h-91v-1135h-282l-19 121q-56 -72 -144.5 -112t-197.5 -40q-156 0 -274.5 76t-179 202
t-60.5 281t57 279.5t174 201t277 76.5z" />
    <glyph glyph-name="Emacron" unicode="&#x112;" horiz-adv-x="1236" 
d="M133 1434h1010v-281h-666v-291h617v-280h-617v-301h666v-281h-1010v1434zM336 1614v207h602v-207h-602z" />
    <glyph glyph-name="emacron" unicode="&#x113;" horiz-adv-x="1230" 
d="M618 844q-97 0 -154.5 -57t-76.5 -146h471q-21 94 -80.5 148.5t-159.5 54.5zM618 1085q181 0 314 -84.5t194 -232.5q64 -147 39 -330h-784q13 -103 77.5 -169t172.5 -66q79 0 139 31t90 94h297q-58 -178 -197 -268.5t-325 -90.5q-251 0 -414.5 154.5t-163.5 404.5
q0 243 159 400t402 157zM915 1235h-602v207h602v-207z" />
    <glyph glyph-name="Ebreve" unicode="&#x114;" horiz-adv-x="1236" 
d="M133 1434h1010v-281h-666v-291h617v-280h-617v-301h666v-281h-1010v1434zM639 1739q101 0 119 125h188q-8 -149 -84.5 -234.5t-222.5 -85.5t-223.5 85t-85.5 235h190q14 -125 119 -125z" />
    <glyph glyph-name="ebreve" unicode="&#x115;" horiz-adv-x="1230" 
d="M618 844q-97 0 -154.5 -57t-76.5 -146h471q-21 94 -80.5 148.5t-159.5 54.5zM618 1085q181 0 314 -84.5t194 -232.5q64 -147 39 -330h-784q13 -103 77.5 -169t172.5 -66q79 0 139 31t90 94h297q-58 -178 -197 -268.5t-325 -90.5q-251 0 -414.5 154.5t-163.5 404.5
q0 243 159 400t402 157zM614 1360q101 0 119 125h189q-8 -148 -85 -234t-223 -86t-223.5 85t-85.5 235h191q7 -59 33.5 -92t84.5 -33z" />
    <glyph glyph-name="Edotaccent" unicode="&#x116;" horiz-adv-x="1236" 
d="M133 1434h1010v-281h-666v-291h617v-280h-617v-301h666v-281h-1010v1434zM498 1569v264h280v-264h-280z" />
    <glyph glyph-name="edotaccent" unicode="&#x117;" horiz-adv-x="1230" 
d="M618 844q-97 0 -154.5 -57t-76.5 -146h471q-21 94 -80.5 148.5t-159.5 54.5zM618 1085q181 0 314 -84.5t194 -232.5q64 -147 39 -330h-784q13 -103 77.5 -169t172.5 -66q79 0 139 31t90 94h297q-58 -178 -197 -268.5t-325 -90.5q-251 0 -414.5 154.5t-163.5 404.5
q0 243 159 400t402 157zM754 1190h-281v264h281v-264z" />
    <glyph glyph-name="Eogonek" unicode="&#x118;" horiz-adv-x="1236" 
d="M1151 -233l55 -148q-86 -57 -209 -57q-102 0 -166.5 49.5t-64.5 146.5q0 156 223 242h-856v1434h1010v-283h-666v-291h617v-280h-617v-299h666v-281q-137 -75 -137 -188q0 -31 17.5 -49.5t49.5 -18.5q40 0 78 23z" />
    <glyph glyph-name="eogonek" unicode="&#x119;" horiz-adv-x="1230" 
d="M618 844q-97 0 -154.5 -57t-76.5 -146h471q-21 94 -80.5 148.5t-159.5 54.5zM612 -31q-243 8 -399 161.5t-156 397.5q0 243 159 400t402 157q181 0 314 -84.5t194 -232.5q64 -147 39 -330h-784q13 -103 77.5 -169t172.5 -66q79 0 139 31t90 94h297q-42 -128 -128 -212
t-204 -120q-129 -76 -129 -184q0 -31 17.5 -49.5t48.5 -18.5q36 0 80 23l55 -148q-89 -57 -211 -57q-102 0 -166.5 49.5t-64.5 146.5q0 131 157 211z" />
    <glyph glyph-name="Ecaron" unicode="&#x11a;" horiz-adv-x="1236" 
d="M133 1434h1010v-281h-666v-291h617v-280h-617v-301h666v-281h-1010v1434zM752 1874h237l-211 -311h-280l-211 311h237l113 -162z" />
    <glyph glyph-name="ecaron" unicode="&#x11b;" horiz-adv-x="1230" 
d="M618 844q-97 0 -154.5 -57t-76.5 -146h471q-21 94 -80.5 148.5t-159.5 54.5zM618 1085q181 0 314 -84.5t194 -232.5q64 -147 39 -330h-784q13 -103 77.5 -169t172.5 -66q79 0 139 31t90 94h297q-58 -178 -197 -268.5t-325 -90.5q-251 0 -414.5 154.5t-163.5 404.5
q0 243 159 400t402 157zM612 1333l115 162h238l-211 -311h-281l-211 311h238z" />
    <glyph glyph-name="Gcircumflex" unicode="&#x11c;" horiz-adv-x="1562" 
d="M764 518v260h725v-778h-232l-24 178q-154 -209 -455 -209q-218 0 -379.5 98.5t-244 267t-82.5 382.5t82.5 382t244 266.5t379.5 98.5q278 0 462 -142.5t222 -393.5h-352q-28 118 -115.5 185t-218.5 67q-72 0 -131.5 -26t-101 -70.5t-70 -104.5t-42 -126t-13.5 -136
t14 -135.5t44 -125t73 -104t106.5 -70.5t139.5 -26q134 0 217 70t112 192h-360zM641 1872h281l208 -311h-235l-115 161l-112 -161h-238z" />
    <glyph glyph-name="gcircumflex" unicode="&#x11d;" horiz-adv-x="1245" 
d="M598 825q-116 0 -182 -79.5t-66 -190.5q0 -114 66.5 -188t181.5 -74q116 0 181 75.5t65 186.5q0 113 -66 191.5t-180 78.5zM545 1085q213 0 317 -137l23 107h266v-959q0 -283 -145 -420t-400 -137q-213 0 -355.5 104.5t-172.5 301.5h299q15 -77 71.5 -119.5t141.5 -42.5
q127 0 191.5 70t64.5 206v84q-112 -112 -297 -112q-147 0 -260 69.5t-172.5 188t-59.5 266.5q0 105 34 200.5t95 169t154.5 117t204.5 43.5zM272 1182l211 311h281l209 -311h-236l-114 161l-113 -161h-238z" />
    <glyph glyph-name="Gbreve" unicode="&#x11e;" horiz-adv-x="1562" 
d="M764 518v260h725v-778h-232l-24 178q-154 -209 -455 -209q-218 0 -379.5 98.5t-244 267t-82.5 382.5t82.5 382t244 266.5t379.5 98.5q278 0 462 -142.5t222 -393.5h-352q-28 118 -115.5 185t-218.5 67q-72 0 -131.5 -26t-101 -70.5t-70 -104.5t-42 -126t-13.5 -136
t14 -135.5t44 -125t73 -104t106.5 -70.5t139.5 -26q134 0 217 70t112 192h-360zM780 1739q101 0 119 125h188q-8 -149 -84.5 -234.5t-222.5 -85.5t-223.5 85t-85.5 235h191q7 -59 33.5 -92t84.5 -33z" />
    <glyph glyph-name="gbreve" unicode="&#x11f;" horiz-adv-x="1245" 
d="M598 825q-116 0 -182 -79.5t-66 -190.5q0 -114 66.5 -188t181.5 -74q116 0 181 75.5t65 186.5q0 113 -66 191.5t-180 78.5zM545 1085q213 0 317 -137l23 107h266v-959q0 -283 -145 -420t-400 -137q-213 0 -355.5 104.5t-172.5 301.5h299q15 -77 71.5 -119.5t141.5 -42.5
q127 0 191.5 70t64.5 206v84q-112 -112 -297 -112q-147 0 -260 69.5t-172.5 188t-59.5 266.5q0 105 34 200.5t95 169t154.5 117t204.5 43.5zM623 1360q56 0 83 33t35 92h189q-8 -149 -84.5 -234.5t-222.5 -85.5t-224 85t-86 235h191q14 -125 119 -125z" />
    <glyph glyph-name="Gdotaccent" unicode="&#x120;" horiz-adv-x="1562" 
d="M764 518v260h725v-778h-232l-24 178q-154 -209 -455 -209q-218 0 -379.5 98.5t-244 267t-82.5 382.5t82.5 382t244 266.5t379.5 98.5q278 0 462 -142.5t222 -393.5h-352q-28 118 -115.5 185t-218.5 67q-72 0 -131.5 -26t-101 -70.5t-70 -104.5t-42 -126t-13.5 -136
t14 -135.5t44 -125t73 -104t106.5 -70.5t139.5 -26q134 0 217 70t112 192h-360zM639 1569v264h281v-264h-281z" />
    <glyph glyph-name="gdotaccent" unicode="&#x121;" horiz-adv-x="1245" 
d="M598 825q-116 0 -182 -79.5t-66 -190.5q0 -114 66.5 -188t181.5 -74q116 0 181 75.5t65 186.5q0 113 -66 191.5t-180 78.5zM545 1085q213 0 317 -137l23 107h266v-959q0 -283 -145 -420t-400 -137q-213 0 -355.5 104.5t-172.5 301.5h299q15 -77 71.5 -119.5t141.5 -42.5
q127 0 191.5 70t64.5 206v84q-112 -112 -297 -112q-147 0 -260 69.5t-172.5 188t-59.5 266.5q0 105 34 200.5t95 169t154.5 117t204.5 43.5zM762 1190h-281v264h281v-264z" />
    <glyph glyph-name="uni0122" unicode="&#x122;" horiz-adv-x="1562" 
d="M764 518v260h725v-778h-232l-24 178q-154 -209 -455 -209q-218 0 -379.5 98.5t-244 267t-82.5 382.5t82.5 382t244 266.5t379.5 98.5q278 0 462 -142.5t222 -393.5h-352q-28 118 -115.5 185t-218.5 67q-72 0 -131.5 -26t-101 -70.5t-70 -104.5t-42 -126t-13.5 -136
t14 -135.5t44 -125t73 -104t106.5 -70.5t139.5 -26q134 0 217 70t112 192h-360zM614 -713l-22 80q77 19 129.5 60.5t58.5 101.5h-151v287h311v-191q0 -123 -89.5 -217.5t-236.5 -120.5z" />
    <glyph glyph-name="uni0123" unicode="&#x123;" horiz-adv-x="1245" 
d="M598 825q-116 0 -182 -79.5t-66 -190.5q0 -114 66.5 -188t181.5 -74q116 0 181 75.5t65 186.5q0 113 -66 191.5t-180 78.5zM545 1085q213 0 317 -137l23 107h266v-959q0 -283 -145 -420t-400 -137q-213 0 -355.5 104.5t-172.5 301.5h299q15 -77 71.5 -119.5t141.5 -42.5
q127 0 191.5 70t64.5 206v84q-112 -112 -297 -112q-147 0 -260 69.5t-172.5 188t-59.5 266.5q0 105 34 200.5t95 169t154.5 117t204.5 43.5zM733 1735l25 -80q-79 -20 -131 -62t-58 -102h152v-285h-311v189q0 123 88.5 218t234.5 122z" />
    <glyph glyph-name="Hcircumflex" unicode="&#x124;" horiz-adv-x="1476" 
d="M995 1434h346v-1434h-346v582h-518v-582h-344v1434h344v-572h518v572zM598 1872h281l208 -311h-235l-115 161l-112 -161h-238z" />
    <glyph glyph-name="hcircumflex" unicode="&#x125;" 
d="M713 1085q184 0 285.5 -111.5t101.5 -289.5v-684h-326v625q0 192 -168 192q-93 0 -140.5 -70t-47.5 -172v-575h-326v1434h326v-461q106 112 295 112zM104 1872h281l209 -311h-236l-114 161l-113 -161h-237z" />
    <glyph glyph-name="Hbar" unicode="&#x126;" horiz-adv-x="1476" 
d="M995 862v193h-518v-193h518zM995 1260v174h344v-174h95v-205h-95v-1055h-344v582h-518v-582h-344v1055h-94v205h94v174h344v-174h518z" />
    <glyph glyph-name="hbar" unicode="&#x127;" 
d="M713 1085q184 0 286.5 -112t102.5 -289v-684h-328v625q0 192 -168 192q-92 0 -139 -69.5t-47 -172.5v-575h-328v1135h-80v204h80v95h328v-95h194v-204h-194v-162q104 112 293 112z" />
    <glyph glyph-name="Itilde" unicode="&#x128;" horiz-adv-x="614" 
d="M133 0v1434h344v-1434h-344zM150 1858q43 0 88 -17t75.5 -37.5t67 -37.5t65.5 -17q76 0 76 100h187q1 -79 -23.5 -146.5t-81.5 -114t-137 -46.5q-57 0 -114 28t-104 55.5t-79 27.5q-38 0 -57 -30.5t-19 -72.5h-188q2 62 16 114.5t41.5 97.5t75.5 70.5t111 25.5z" />
    <glyph glyph-name="itilde" unicode="&#x129;" horiz-adv-x="514" 
d="M92 0v1055h326v-1055h-326zM98 1479q43 0 88 -17t76 -37.5t67.5 -37.5t65.5 -17q76 0 76 100h186q1 -79 -23.5 -146.5t-81 -114t-136.5 -46.5q-45 0 -91 17.5t-77.5 38t-67 38t-61.5 17.5q-38 0 -57 -30.5t-19 -72.5h-188q2 62 16 114.5t41.5 97.5t75 70.5t110.5 25.5z
" />
    <glyph glyph-name="Imacron" unicode="&#x12a;" horiz-adv-x="614" 
d="M133 0v1434h344v-1434h-344zM4 1614v207h602v-207h-602z" />
    <glyph glyph-name="imacron" unicode="&#x12b;" horiz-adv-x="514" 
d="M92 0v1055h326v-1055h-326zM-45 1235v207h602v-207h-602z" />
    <glyph glyph-name="Ibreve" unicode="&#x12c;" horiz-adv-x="614" 
d="M133 0v1434h344v-1434h-344zM307 1739q101 0 119 125h188q-8 -149 -84.5 -234.5t-222.5 -85.5t-223.5 85t-85.5 235h190q14 -125 119 -125z" />
    <glyph glyph-name="ibreve" unicode="&#x12d;" horiz-adv-x="514" 
d="M92 0v1055h326v-1055h-326zM256 1360q101 0 119 125h188q-8 -149 -84.5 -234.5t-222.5 -85.5t-223.5 85t-85.5 235h190q14 -125 119 -125z" />
    <glyph glyph-name="Iogonek" unicode="&#x12e;" horiz-adv-x="614" 
d="M326 0h-193v1434h344v-1434q-135 -76 -135 -188q0 -31 17.5 -49.5t48.5 -18.5q35 0 79 23l56 -148q-89 -57 -211 -57q-103 0 -167.5 49.5t-64.5 146.5q0 155 226 242z" />
    <glyph glyph-name="iogonek" unicode="&#x12f;" horiz-adv-x="514" 
d="M266 0h-172v1055h324v-1055q-135 -76 -135 -188q0 -31 17.5 -49.5t47.5 -18.5q36 0 80 23l55 -148q-89 -57 -211 -57q-102 0 -166.5 49.5t-64.5 146.5q0 155 225 242zM420 1157h-328v277h328v-277z" />
    <glyph glyph-name="Idotaccent" unicode="&#x130;" horiz-adv-x="614" 
d="M133 0v1434h344v-1434h-344zM166 1569v264h280v-264h-280z" />
    <glyph glyph-name="dotlessi" unicode="&#x131;" horiz-adv-x="514" 
d="M92 0v1055h326v-1055h-326z" />
    <glyph glyph-name="IJ" unicode="&#x132;" horiz-adv-x="1826" 
d="M133 0v1434h344v-1434h-344zM1368 1434h344v-922q0 -263 -140 -403t-396 -140q-244 0 -378 144.5t-136 384.5h315q11 -242 197 -242q53 0 92 19.5t60.5 54.5t31.5 77t10 93v934z" />
    <glyph glyph-name="ij" unicode="&#x133;" horiz-adv-x="1026" 
d="M92 1157v277h328v-277h-328zM94 0v1055h324v-1055h-324zM606 1434h328v-277h-328v277zM608 1055h326v-1096q0 -212 -96.5 -316t-321.5 -104q-24 0 -117 12v263q72 -9 78 -9q59 0 95 36.5t36 90.5v1123z" />
    <glyph glyph-name="Jcircumflex" unicode="&#x134;" horiz-adv-x="1239" 
d="M780 1434h344v-922q0 -263 -140 -403t-396 -140q-244 0 -378 144.5t-136 384.5h315q11 -242 197 -242q53 0 92 19.5t60.5 54.5t31.5 77t10 93v934zM809 1872h281l208 -311h-235l-115 161l-112 -161h-238z" />
    <glyph glyph-name="jcircumflex" unicode="&#x135;" horiz-adv-x="514" 
d="M94 -68v1123h326v-1096q0 -212 -96.5 -316t-321.5 -104q-24 0 -117 12v263q72 -9 78 -9q59 0 95 36.5t36 90.5zM117 1493h280l209 -311h-235l-115 161l-113 -161h-237z" />
    <glyph glyph-name="uni0136" unicode="&#x136;" horiz-adv-x="1501" 
d="M1018 0l-369 561l-172 -188v-373h-344v1434h344v-594l504 594h430l-528 -619l544 -815h-409zM549 -713l-23 80q78 19 130.5 60.5t58.5 101.5h-152v287h311v-191q0 -123 -89 -217.5t-236 -120.5z" />
    <glyph glyph-name="uni0137" unicode="&#x137;" horiz-adv-x="1239" 
d="M92 1434h326v-711l336 332h407l-424 -412l449 -643h-383l-297 446l-88 -86v-360h-326v1434zM434 -713l-22 80q77 19 129.5 60.5t58.5 101.5h-151v287h311v-191q0 -123 -89.5 -217.5t-236.5 -120.5z" />
    <glyph glyph-name="kgreenlandic" unicode="&#x138;" horiz-adv-x="1239" 
d="M92 1055h326v-332l336 332h407l-424 -412l449 -643h-383l-297 446l-88 -86v-360h-326v1055z" />
    <glyph glyph-name="Lacute" unicode="&#x139;" horiz-adv-x="1216" 
d="M133 1434h344v-1153h666v-281h-1010v1434zM379 1872h301l-250 -311h-254z" />
    <glyph glyph-name="lacute" unicode="&#x13a;" horiz-adv-x="512" 
d="M92 0v1434h326v-1434h-326zM334 1872h301l-250 -311h-254z" />
    <glyph glyph-name="uni013B" unicode="&#x13b;" horiz-adv-x="1216" 
d="M133 1434h344v-1153h666v-281h-1010v1434zM473 -713l-22 80q77 19 129.5 60.5t58.5 101.5h-152v287h312v-191q0 -123 -89.5 -217.5t-236.5 -120.5z" />
    <glyph glyph-name="uni013C" unicode="&#x13c;" horiz-adv-x="512" 
d="M92 0v1434h326v-1434h-326zM86 -713l-23 80q78 19 130.5 60.5t58.5 101.5h-152v287h312v-191q0 -123 -89.5 -217.5t-236.5 -120.5z" />
    <glyph glyph-name="Lcaron" unicode="&#x13d;" horiz-adv-x="1216" 
d="M750 1434h274l-104 -373h-230zM133 1434h344v-1153h666v-281h-1010v1434z" />
    <glyph glyph-name="lcaron" unicode="&#x13e;" horiz-adv-x="845" 
d="M567 1434h277l-107 -373h-227zM92 0v1434h326v-1434h-326z" />
    <glyph glyph-name="Ldot" unicode="&#x13f;" horiz-adv-x="1216" 
d="M670 584v266h280v-266h-280zM133 1434h344v-1153h666v-281h-1010v1434z" />
    <glyph glyph-name="ldot" unicode="&#x140;" horiz-adv-x="915" 
d="M543 584v266h280v-266h-280zM92 0v1434h326v-1434h-326z" />
    <glyph glyph-name="Lslash" unicode="&#x141;" horiz-adv-x="1216" 
d="M133 713v721h346v-533l105 57l98 -180l-203 -110v-387h664v-281h-1010v477l-63 -35l-99 181z" />
    <glyph glyph-name="lslash" unicode="&#x142;" horiz-adv-x="512" 
d="M418 0h-326v494l-94 -52l-98 181l192 106v705h326v-527l94 51l98 -180l-192 -104v-674z" />
    <glyph glyph-name="Nacute" unicode="&#x143;" horiz-adv-x="1490" 
d="M1010 1434h346v-1434h-371l-508 854v-854h-344v1434h365l512 -891v891zM856 1872h301l-250 -311h-254z" />
    <glyph glyph-name="nacute" unicode="&#x144;" 
d="M713 1085q184 0 285.5 -111.5t101.5 -289.5v-684h-326v625q0 192 -168 192q-93 0 -140.5 -70t-47.5 -172v-575h-326v1055h285l16 -111q109 141 320 141zM750 1493h301l-250 -311h-254z" />
    <glyph glyph-name="uni0145" unicode="&#x145;" horiz-adv-x="1490" 
d="M1010 1434h346v-1434h-371l-508 854v-854h-344v1434h365l512 -891v891zM580 -713l-23 80q77 19 129.5 60.5t58.5 101.5h-151v287h311v-191q0 -123 -89 -217.5t-236 -120.5z" />
    <glyph glyph-name="uni0146" unicode="&#x146;" 
d="M713 1085q184 0 285.5 -111.5t101.5 -289.5v-684h-326v625q0 192 -168 192q-93 0 -140.5 -70t-47.5 -172v-575h-326v1055h285l16 -111q109 141 320 141zM444 -713l-22 80q77 19 129.5 60.5t58.5 101.5h-151v287h311v-191q0 -123 -89.5 -217.5t-236.5 -120.5z" />
    <glyph glyph-name="Ncaron" unicode="&#x147;" horiz-adv-x="1490" 
d="M1010 1434h346v-1434h-371l-508 854v-854h-344v1434h365l512 -891v891zM858 1874h238l-211 -311h-281l-211 311h238l112 -162z" />
    <glyph glyph-name="ncaron" unicode="&#x148;" 
d="M713 1085q184 0 285.5 -111.5t101.5 -289.5v-684h-326v625q0 192 -168 192q-93 0 -140.5 -70t-47.5 -172v-575h-326v1055h285l16 -111q109 141 320 141zM700 1495h238l-211 -311h-281l-210 311h237l113 -162z" />
    <glyph glyph-name="napostrophe" unicode="&#x149;" horiz-adv-x="1572" 
d="M1110 1085q185 0 287 -111.5t102 -289.5v-684h-325v625q0 192 -168 192q-93 0 -141 -70t-48 -172v-575h-325v1055h282l19 -111q109 141 317 141zM125 1106v328h332v-228q0 -170 -98.5 -281t-268.5 -139l-43 113q204 54 225 207h-147z" />
    <glyph glyph-name="Eng" unicode="&#x14a;" horiz-adv-x="1490" 
d="M1010 -57v12l-533 899v-854h-344v1434h365l512 -891v891h346v-1454q0 -543 -565 -543l-3 282q126 0 174 59.5t48 164.5z" />
    <glyph glyph-name="eng" unicode="&#x14b;" 
d="M713 1085q184 0 285.5 -111.5t101.5 -289.5v-725q0 -212 -96 -316t-320 -104q-24 0 -117 12v263q72 -9 78 -9q58 0 93.5 36.5t35.5 90.5v693q0 192 -168 192q-93 0 -140.5 -70t-47.5 -172v-575h-326v1055h285l16 -111q109 141 320 141z" />
    <glyph glyph-name="Omacron" unicode="&#x14c;" horiz-adv-x="1585" 
d="M791 1176q-94 0 -167.5 -37.5t-117 -102t-66 -145.5t-22.5 -174q0 -74 13.5 -140.5t43 -125t72.5 -100.5t105.5 -66.5t138.5 -24.5q95 0 168.5 37t117.5 101t66 145t22 174t-22 174t-66 145.5t-117.5 102t-168.5 37.5zM791 1464q171 0 309.5 -58.5t227 -160t136 -237
t47.5 -291.5q0 -124 -29.5 -236t-89.5 -205.5t-144.5 -162t-201.5 -106.5t-255 -38q-137 0 -253.5 38t-201.5 106.5t-145 162t-89.5 205.5t-29.5 236q0 156 47.5 291.5t136 237t226.5 160t309 58.5zM492 1614v207h602v-207h-602z" />
    <glyph glyph-name="omacron" unicode="&#x14d;" horiz-adv-x="1255" 
d="M627 827q-84 0 -144 -43.5t-87 -109.5t-27 -146t27 -146t87 -109.5t144 -43.5q85 0 145 44t86.5 110t26.5 145q0 80 -27 146t-87 109.5t-144 43.5zM627 1085q250 0 410.5 -156t160.5 -401q0 -244 -161 -401.5t-410 -157.5q-248 0 -409 157t-161 402t160.5 401t409.5 156z
M326 1235v207h602v-207h-602z" />
    <glyph glyph-name="Obreve" unicode="&#x14e;" horiz-adv-x="1585" 
d="M791 1176q-94 0 -167.5 -37.5t-117 -102t-66 -145.5t-22.5 -174q0 -74 13.5 -140.5t43 -125t72.5 -100.5t105.5 -66.5t138.5 -24.5q95 0 168.5 37t117.5 101t66 145t22 174t-22 174t-66 145.5t-117.5 102t-168.5 37.5zM791 1464q171 0 309.5 -58.5t227 -160t136 -237
t47.5 -291.5q0 -124 -29.5 -236t-89.5 -205.5t-144.5 -162t-201.5 -106.5t-255 -38q-137 0 -253.5 38t-201.5 106.5t-145 162t-89.5 205.5t-29.5 236q0 156 47.5 291.5t136 237t226.5 160t309 58.5zM793 1739q56 0 83 33t35 92h189q-8 -149 -84.5 -234.5t-222.5 -85.5
t-224 85t-86 235h191q14 -125 119 -125z" />
    <glyph glyph-name="obreve" unicode="&#x14f;" horiz-adv-x="1255" 
d="M627 827q-84 0 -144 -43.5t-87 -109.5t-27 -146t27 -146t87 -109.5t144 -43.5q85 0 145 44t86.5 110t26.5 145q0 80 -27 146t-87 109.5t-144 43.5zM627 1085q250 0 410.5 -156t160.5 -401q0 -244 -161 -401.5t-410 -157.5q-248 0 -409 157t-161 402t160.5 401t409.5 156z
M627 1360q56 0 83 33t35 92h189q-8 -149 -84.5 -234.5t-222.5 -85.5t-224 85t-86 235h191q14 -125 119 -125z" />
    <glyph glyph-name="Ohungarumlaut" unicode="&#x150;" horiz-adv-x="1585" 
d="M791 1176q-94 0 -167.5 -37.5t-117 -102t-66 -145.5t-22.5 -174q0 -74 13.5 -140.5t43 -125t72.5 -100.5t105.5 -66.5t138.5 -24.5q95 0 168.5 37t117.5 101t66 145t22 174t-22 174t-66 145.5t-117.5 102t-168.5 37.5zM791 1464q171 0 309.5 -58.5t227 -160t136 -237
t47.5 -291.5q0 -124 -29.5 -236t-89.5 -205.5t-144.5 -162t-201.5 -106.5t-255 -38q-137 0 -253.5 38t-201.5 106.5t-145 162t-89.5 205.5t-29.5 236q0 156 47.5 291.5t136 237t226.5 160t309 58.5zM887 1884h278l-188 -311h-242zM539 1884h280l-157 -311h-242z" />
    <glyph glyph-name="ohungarumlaut" unicode="&#x151;" horiz-adv-x="1255" 
d="M627 827q-84 0 -144 -43.5t-87 -109.5t-27 -146t27 -146t87 -109.5t144 -43.5q85 0 145 44t86.5 110t26.5 145q0 80 -27 146t-87 109.5t-144 43.5zM627 1085q250 0 410.5 -156t160.5 -401q0 -244 -161 -401.5t-410 -157.5q-248 0 -409 157t-161 402t160.5 401t409.5 156z
M721 1505h278l-188 -311h-242zM373 1505h280l-157 -311h-242z" />
    <glyph glyph-name="OE" unicode="&#x152;" horiz-adv-x="2097" 
d="M793 260q117 0 202 59v797q-86 60 -202 60q-94 0 -167.5 -37.5t-117 -102t-66 -145.5t-22.5 -174q0 -74 13.5 -140.5t43 -125t72.5 -100.5t105.5 -66.5t138.5 -24.5zM1022 1434h983v-281h-666v-291h617v-280h-617v-301h666v-281h-983q-108 -31 -229 -31q-137 0 -253.5 38
t-201.5 106.5t-145 162t-89.5 205.5t-29.5 236q0 156 47.5 291.5t136 237t226.5 160t309 58.5q124 0 229 -30z" />
    <glyph glyph-name="oe" unicode="&#x153;" horiz-adv-x="2060" 
d="M627 827q-84 0 -144 -43.5t-87 -109.5t-27 -146t27 -146t87 -109.5t144 -43.5q85 0 145 44t86.5 110t26.5 145q0 80 -27 146t-87 109.5t-144 43.5zM1450 844q-98 0 -156 -56.5t-77 -144.5h471q-20 92 -79.5 146.5t-158.5 54.5zM1450 1087q179 0 312.5 -85t195.5 -232
q61 -149 39 -332h-785q13 -103 77 -168t173 -65q170 0 230 123h297q-58 -178 -197.5 -268.5t-327.5 -90.5q-126 0 -234.5 42.5t-187.5 121.5q-76 -78 -183 -121t-232 -43q-248 0 -409 157t-161 402t160.5 401t409.5 156q254 0 415 -161q160 163 408 163z" />
    <glyph glyph-name="Racute" unicode="&#x154;" horiz-adv-x="1359" 
d="M727 1153h-244v-379h244q94 0 155.5 48t61.5 141q0 94 -60 142t-157 48zM1290 0h-389l-264 496h-154v-496h-350v1434h606q121 0 220 -27.5t174 -83.5t116 -147.5t41 -212.5q0 -171 -77.5 -278t-215.5 -153zM428 1561l203 311h301l-250 -311h-254z" />
    <glyph glyph-name="racute" unicode="&#x155;" horiz-adv-x="837" 
d="M705 1085l83 -4v-297q-36 9 -77 9q-128 0 -210.5 -96.5t-82.5 -276.5v-420h-326v1055h285l29 -191q40 103 119 162t180 59zM514 1493h301l-250 -311h-254z" />
    <glyph glyph-name="uni0156" unicode="&#x156;" horiz-adv-x="1359" 
d="M727 1153h-244v-379h244q94 0 155.5 48t61.5 141q0 94 -60 142t-157 48zM1290 0h-389l-264 496h-154v-496h-350v1434h606q121 0 220 -27.5t174 -83.5t116 -147.5t41 -212.5q0 -171 -77.5 -278t-215.5 -153zM547 -713l-23 80q78 19 130.5 60.5t58.5 101.5h-152v287h311
v-191q0 -123 -89 -217.5t-236 -120.5z" />
    <glyph glyph-name="uni0157" unicode="&#x157;" horiz-adv-x="837" 
d="M705 1085l83 -4v-297q-36 9 -77 9q-128 0 -210.5 -96.5t-82.5 -276.5v-420h-326v1055h285l29 -191q40 103 119 162t180 59zM84 -713l-23 80q78 19 130.5 60.5t58.5 101.5h-152v287h312v-191q0 -123 -89.5 -217.5t-236.5 -120.5z" />
    <glyph glyph-name="Rcaron" unicode="&#x158;" horiz-adv-x="1359" 
d="M727 1153h-244v-379h244q94 0 155.5 48t61.5 141q0 94 -60 142t-157 48zM1290 0h-389l-264 496h-154v-496h-350v1434h606q121 0 220 -27.5t174 -83.5t116 -147.5t41 -212.5q0 -171 -77.5 -278t-215.5 -153zM678 1712l115 162h237l-211 -311h-280l-211 311h237z" />
    <glyph glyph-name="rcaron" unicode="&#x159;" horiz-adv-x="837" 
d="M705 1085l83 -4v-297q-36 9 -77 9q-128 0 -210.5 -96.5t-82.5 -276.5v-420h-326v1055h285l29 -191q40 103 119 162t180 59zM530 1495h238l-211 -311h-281l-210 311h237l113 -162z" />
    <glyph glyph-name="Sacute" unicode="&#x15a;" horiz-adv-x="1374" 
d="M674 1464q168 0 295 -50t209.5 -159t99.5 -270h-344q-37 199 -260 199q-55 0 -98.5 -12t-75 -46.5t-31.5 -87.5q0 -28 12 -52t27 -40t45 -31t49 -22.5t57.5 -16.5t52.5 -11.5t50 -8.5q62 -10 111 -20.5t107 -29t102 -40.5t86.5 -56t70 -74.5t44.5 -96.5t17 -123
q0 -98 -35 -176.5t-93 -128t-137 -82.5t-161 -46.5t-172 -13.5q-131 0 -238 30.5t-190.5 93t-135.5 164.5t-66 239h344q34 -246 299 -246q40 0 76.5 7.5t70.5 24.5t54 49t20 75q0 47 -27 82t-81 55.5t-88.5 29.5t-96.5 20q-11 2 -16 3q-66 12 -113 23t-105.5 29.5t-99 40
t-82 54.5t-66.5 72.5t-41 95t-16 121.5q0 91 32.5 165t87 123t128.5 82t154.5 47.5t167.5 14.5zM743 1872h301l-249 -311h-254z" />
    <glyph glyph-name="sacute" unicode="&#x15b;" horiz-adv-x="1126" 
d="M549 1085q102 0 188 -22t153.5 -65.5t108 -114.5t45.5 -164h-294q-20 145 -203 145q-67 0 -105.5 -25.5t-38.5 -68.5q0 -34 18.5 -57.5t63.5 -39t73 -22t93 -16.5q7 -1 11 -2q70 -11 123.5 -24.5t108.5 -38.5t90.5 -59t58 -86.5t22.5 -119.5q0 -89 -41 -156t-111.5 -105
t-156.5 -56.5t-185 -18.5q-220 0 -361 100t-147 291h312q11 -172 217 -172q71 0 119.5 24t48.5 75q0 17 -5.5 32t-18 27t-24.5 22t-34 18.5t-37 14t-42.5 12t-41.5 9.5t-43 8.5t-39 7.5q-64 12 -115 26.5t-103 40t-86.5 58.5t-56.5 83t-22 112q0 85 40 150t107.5 102.5
t146 56t163.5 18.5zM623 1493h301l-250 -311h-254z" />
    <glyph glyph-name="Scircumflex" unicode="&#x15c;" horiz-adv-x="1374" 
d="M674 1464q168 0 295 -50t209.5 -159t99.5 -270h-344q-37 199 -260 199q-55 0 -98.5 -12t-75 -46.5t-31.5 -87.5q0 -28 12 -52t27 -40t45 -31t49 -22.5t57.5 -16.5t52.5 -11.5t50 -8.5q62 -10 111 -20.5t107 -29t102 -40.5t86.5 -56t70 -74.5t44.5 -96.5t17 -123
q0 -98 -35 -176.5t-93 -128t-137 -82.5t-161 -46.5t-172 -13.5q-131 0 -238 30.5t-190.5 93t-135.5 164.5t-66 239h344q34 -246 299 -246q40 0 76.5 7.5t70.5 24.5t54 49t20 75q0 47 -27 82t-81 55.5t-88.5 29.5t-96.5 20q-11 2 -16 3q-66 12 -113 23t-105.5 29.5t-99 40
t-82 54.5t-66.5 72.5t-41 95t-16 121.5q0 91 32.5 165t87 123t128.5 82t154.5 47.5t167.5 14.5zM547 1872h280l209 -311h-235l-115 161l-113 -161h-237z" />
    <glyph glyph-name="scircumflex" unicode="&#x15d;" horiz-adv-x="1126" 
d="M549 1085q102 0 188 -22t153.5 -65.5t108 -114.5t45.5 -164h-294q-20 145 -203 145q-67 0 -105.5 -25.5t-38.5 -68.5q0 -34 18.5 -57.5t63.5 -39t73 -22t93 -16.5q7 -1 11 -2q70 -11 123.5 -24.5t108.5 -38.5t90.5 -59t58 -86.5t22.5 -119.5q0 -89 -41 -156t-111.5 -105
t-156.5 -56.5t-185 -18.5q-220 0 -361 100t-147 291h312q11 -172 217 -172q71 0 119.5 24t48.5 75q0 17 -5.5 32t-18 27t-24.5 22t-34 18.5t-37 14t-42.5 12t-41.5 9.5t-43 8.5t-39 7.5q-64 12 -115 26.5t-103 40t-86.5 58.5t-56.5 83t-22 112q0 85 40 150t107.5 102.5
t146 56t163.5 18.5zM424 1493h281l208 -311h-235l-115 161l-112 -161h-238z" />
    <glyph glyph-name="Scedilla" unicode="&#x15e;" horiz-adv-x="1374" 
d="M543 -203l53 178q-225 23 -362 151t-162 370h344q34 -246 299 -246q40 0 76.5 7.5t70.5 24.5t54 49t20 75q0 47 -27 82t-81 55.5t-88.5 29.5t-96.5 20q-11 2 -16 3q-66 12 -113 23t-105.5 29.5t-99 40t-82 54.5t-66.5 72.5t-41 95t-16 121.5q0 91 32.5 165t87 123
t128.5 82t154.5 47.5t167.5 14.5q168 0 295 -50t209.5 -159t99.5 -270h-344q-37 199 -260 199q-55 0 -98.5 -12t-75 -46.5t-31.5 -87.5q0 -28 12 -52t27 -40t45 -31t49 -22.5t57.5 -16.5t52.5 -11.5t50 -8.5q62 -10 111 -20.5t107 -29t102 -40.5t86.5 -56t70 -74.5
t44.5 -96.5t17 -123q0 -96 -33.5 -173t-88.5 -126.5t-130.5 -83t-155 -48t-167.5 -16.5l-16 -53q96 -8 148 -51t52 -133q0 -76 -37.5 -126.5t-95.5 -71.5t-133 -21q-92 0 -176 43v157q110 -45 166 -45q40 0 68 16.5t28 53.5q0 59 -129 59h-57z" />
    <glyph glyph-name="scedilla" unicode="&#x15f;" horiz-adv-x="1126" 
d="M418 -203l53 178q-180 21 -291 119t-117 266h312q11 -172 217 -172q71 0 119.5 24t48.5 75q0 17 -5.5 32t-18 27t-24.5 22t-34 18.5t-37 14t-42.5 12t-41.5 9.5t-43 8.5t-39 7.5q-64 12 -115 26.5t-103 40t-86.5 58.5t-56.5 83t-22 112q0 85 40 150t107.5 102.5t146 56
t163.5 18.5q102 0 188 -22t153.5 -65.5t108 -114.5t45.5 -164h-294q-20 145 -203 145q-67 0 -105.5 -25.5t-38.5 -68.5q0 -34 18.5 -57.5t63.5 -39t73 -22t93 -16.5q7 -1 11 -2q70 -11 123.5 -24.5t108.5 -38.5t90.5 -59t58 -86.5t22.5 -119.5q0 -86 -38 -151.5t-104.5 -104
t-147 -58.5t-175.5 -22l-16 -53q96 -8 148 -51t52 -133q0 -76 -37.5 -126.5t-95.5 -71.5t-133 -21q-92 0 -176 43v157q110 -45 166 -45q40 0 68 16.5t28 53.5q0 59 -129 59h-57z" />
    <glyph glyph-name="Scaron" unicode="&#x160;" horiz-adv-x="1374" 
d="M674 1464q168 0 295 -50t209.5 -159t99.5 -270h-344q-37 199 -260 199q-55 0 -98.5 -12t-75 -46.5t-31.5 -87.5q0 -28 12 -52t27 -40t45 -31t49 -22.5t57.5 -16.5t52.5 -11.5t50 -8.5q62 -10 111 -20.5t107 -29t102 -40.5t86.5 -56t70 -74.5t44.5 -96.5t17 -123
q0 -98 -35 -176.5t-93 -128t-137 -82.5t-161 -46.5t-172 -13.5q-131 0 -238 30.5t-190.5 93t-135.5 164.5t-66 239h344q34 -246 299 -246q40 0 76.5 7.5t70.5 24.5t54 49t20 75q0 47 -27 82t-81 55.5t-88.5 29.5t-96.5 20q-11 2 -16 3q-66 12 -113 23t-105.5 29.5t-99 40
t-82 54.5t-66.5 72.5t-41 95t-16 121.5q0 91 32.5 165t87 123t128.5 82t154.5 47.5t167.5 14.5zM799 1874h237l-211 -311h-280l-211 311h237l113 -162z" />
    <glyph glyph-name="scaron" unicode="&#x161;" horiz-adv-x="1126" 
d="M549 1085q102 0 188 -22t153.5 -65.5t108 -114.5t45.5 -164h-294q-20 145 -203 145q-67 0 -105.5 -25.5t-38.5 -68.5q0 -34 18.5 -57.5t63.5 -39t73 -22t93 -16.5q7 -1 11 -2q70 -11 123.5 -24.5t108.5 -38.5t90.5 -59t58 -86.5t22.5 -119.5q0 -89 -41 -156t-111.5 -105
t-156.5 -56.5t-185 -18.5q-220 0 -361 100t-147 291h312q11 -172 217 -172q71 0 119.5 24t48.5 75q0 17 -5.5 32t-18 27t-24.5 22t-34 18.5t-37 14t-42.5 12t-41.5 9.5t-43 8.5t-39 7.5q-64 12 -115 26.5t-103 40t-86.5 58.5t-56.5 83t-22 112q0 85 40 150t107.5 102.5
t146 56t163.5 18.5zM676 1495h237l-211 -311h-280l-211 311h238l112 -162z" />
    <glyph glyph-name="uni0162" unicode="&#x162;" horiz-adv-x="1386" 
d="M72 1153v281h1241v-281h-449v-1153h-112l-25 -84q201 -17 201 -184q0 -111 -75 -165t-191 -54q-95 0 -179 43v157q110 -45 166 -45q42 0 69 16.5t27 53.5q0 59 -129 59h-55l60 203h-101v1153h-448z" />
    <glyph glyph-name="uni0163" unicode="&#x163;" horiz-adv-x="835" 
d="M227 1169v197h326v-311h229v-254h-229v-414q0 -76 38.5 -109.5t119.5 -33.5q47 0 71 8v-266q-76 -13 -118 -15l-17 -55q97 -8 149 -51.5t52 -132.5q0 -76 -37.5 -126.5t-95.5 -71.5t-133 -21q-92 0 -176 43v157q110 -45 163 -45q42 0 70.5 16.5t28.5 53.5q0 59 -131 59
h-56l54 176q-308 29 -308 389v439h-176v254h60q116 0 116 114z" />
    <glyph glyph-name="Tcaron" unicode="&#x164;" horiz-adv-x="1386" 
d="M72 1434h1241v-281h-449v-1153h-344v1153h-448v281zM807 1874h237l-210 -311h-281l-211 311h238l112 -162z" />
    <glyph glyph-name="tcaron" unicode="&#x165;" horiz-adv-x="835" 
d="M707 1542h274l-104 -373h-230zM227 1169v197h326v-311h229v-254h-229v-414q0 -76 38.5 -109.5t119.5 -33.5q47 0 71 8v-266q-108 -17 -182 -17q-192 0 -282.5 98t-90.5 295v439h-176v254h60q116 0 116 114z" />
    <glyph glyph-name="Tbar" unicode="&#x166;" horiz-adv-x="1386" 
d="M520 608h-129v205h129v340h-448v281h1241v-281h-449v-340h129v-205h-129v-608h-344v608z" />
    <glyph glyph-name="tbar" unicode="&#x167;" horiz-adv-x="835" 
d="M227 1169v197h326v-311h229v-254h-229v-131h229v-199h-229v-92q0 -71 39.5 -103t118.5 -32q47 0 71 8v-266q-108 -17 -182 -17q-192 0 -282.5 96.5t-90.5 288.5v117h-176v199h176v131h-176v254h60q116 0 116 114z" />
    <glyph glyph-name="Utilde" unicode="&#x168;" horiz-adv-x="1423" 
d="M965 1434h344v-910q0 -134 -46 -241t-127 -175t-189.5 -103.5t-235.5 -35.5t-234.5 35.5t-189.5 103t-128 174.5t-46 242v910h344v-895q0 -135 67 -209t187 -74q122 0 188 74.5t66 208.5v895zM553 1858q43 0 88 -17t76 -37.5t67.5 -37.5t65.5 -17q76 0 76 100h186
q1 -79 -23.5 -146.5t-81.5 -114t-137 -46.5q-57 0 -114 28t-104 55.5t-79 27.5q-38 0 -56.5 -30.5t-18.5 -72.5h-189q2 62 16 114.5t41.5 97.5t75.5 70.5t111 25.5z" />
    <glyph glyph-name="utilde" unicode="&#x169;" 
d="M754 1055h325v-1055h-282l-17 113q-112 -144 -319 -144q-185 0 -287 112.5t-102 289.5v684h325v-625q0 -192 168 -192q93 0 141 69.5t48 171.5v576zM428 1479q43 0 88 -17t76 -37.5t67.5 -37.5t65.5 -17q76 0 76 100h186q1 -79 -23.5 -146.5t-81.5 -114t-137 -46.5
q-45 0 -91 17.5t-77 38t-66.5 38t-61.5 17.5q-38 0 -57 -30.5t-19 -72.5h-189q2 62 16 114.5t41.5 97.5t75.5 70.5t111 25.5z" />
    <glyph glyph-name="Umacron" unicode="&#x16a;" horiz-adv-x="1423" 
d="M965 1434h344v-910q0 -134 -46 -241t-127 -175t-189.5 -103.5t-235.5 -35.5t-234.5 35.5t-189.5 103t-128 174.5t-46 242v910h344v-895q0 -135 67 -209t187 -74q122 0 188 74.5t66 208.5v895zM410 1614v207h602v-207h-602z" />
    <glyph glyph-name="umacron" unicode="&#x16b;" 
d="M754 1055h325v-1055h-282l-17 113q-112 -144 -319 -144q-185 0 -287 112.5t-102 289.5v684h325v-625q0 -192 168 -192q93 0 141 69.5t48 171.5v576zM285 1235v207h602v-207h-602z" />
    <glyph glyph-name="Ubreve" unicode="&#x16c;" horiz-adv-x="1423" 
d="M965 1434h344v-910q0 -134 -46 -241t-127 -175t-189.5 -103.5t-235.5 -35.5t-234.5 35.5t-189.5 103t-128 174.5t-46 242v910h344v-895q0 -135 67 -209t187 -74q122 0 188 74.5t66 208.5v895zM713 1739q56 0 83 33t35 92h189q-8 -149 -84.5 -234.5t-222.5 -85.5t-224 85
t-86 235h191q14 -125 119 -125z" />
    <glyph glyph-name="ubreve" unicode="&#x16d;" 
d="M754 1055h325v-1055h-282l-17 113q-112 -144 -319 -144q-185 0 -287 112.5t-102 289.5v684h325v-625q0 -192 168 -192q93 0 141 69.5t48 171.5v576zM588 1360q101 0 119 125h188q-8 -149 -84.5 -234.5t-222.5 -85.5t-223.5 85t-85.5 235h190q14 -125 119 -125z" />
    <glyph glyph-name="Uring" unicode="&#x16e;" horiz-adv-x="1423" 
d="M713 1806q-33 0 -53.5 -19.5t-20.5 -51.5q0 -33 20.5 -53.5t53.5 -20.5q31 0 50 21t19 53q0 31 -18.5 51t-50.5 20zM965 539v895h344v-910q0 -134 -46 -241t-127 -175t-189.5 -103.5t-235.5 -35.5t-234.5 35.5t-189.5 103t-128 174.5t-46 242v910h344v-895
q0 -135 67 -209t187 -74q122 0 188 74.5t66 208.5zM713 1946q94 0 157.5 -58.5t63.5 -152.5t-63.5 -152.5t-157.5 -58.5t-159 59t-65 152t65 152t159 59z" />
    <glyph glyph-name="uring" unicode="&#x16f;" 
d="M588 1427q-33 0 -53.5 -19.5t-20.5 -51.5q0 -33 20.5 -53.5t53.5 -20.5q31 0 50 21t19 53q0 31 -18.5 51t-50.5 20zM754 479v576h325v-1055h-282l-17 113q-112 -144 -319 -144q-185 0 -287 112.5t-102 289.5v684h325v-625q0 -192 168 -192q93 0 141 69.5t48 171.5z
M588 1567q94 0 157.5 -58.5t63.5 -152.5t-63.5 -152.5t-157.5 -58.5t-158.5 59t-64.5 152t64.5 152t158.5 59z" />
    <glyph glyph-name="Uhungarumlaut" unicode="&#x170;" horiz-adv-x="1423" 
d="M965 1434h344v-910q0 -134 -46 -241t-127 -175t-189.5 -103.5t-235.5 -35.5t-234.5 35.5t-189.5 103t-128 174.5t-46 242v910h344v-895q0 -135 67 -209t187 -74q122 0 188 74.5t66 208.5v895zM805 1884h278l-188 -311h-242zM457 1884h280l-157 -311h-242z" />
    <glyph glyph-name="uhungarumlaut" unicode="&#x171;" 
d="M754 1055h325v-1055h-282l-17 113q-112 -144 -319 -144q-185 0 -287 112.5t-102 289.5v684h325v-625q0 -192 168 -192q93 0 141 69.5t48 171.5v576zM680 1505h278l-188 -311h-242zM332 1505h280l-157 -311h-242z" />
    <glyph glyph-name="Uogonek" unicode="&#x172;" horiz-adv-x="1423" 
d="M700 -31q-124 2 -230 38t-186 103.5t-125.5 174t-45.5 239.5v910h344v-895q0 -135 67 -209t187 -74q122 0 188 74.5t66 208.5v895h344v-910q0 -209 -108 -345t-290 -185q-125 -73 -125 -182q0 -31 17.5 -49.5t48.5 -18.5q36 0 80 23l55 -148q-89 -57 -211 -57
q-102 0 -166.5 49.5t-64.5 146.5q0 130 155 211z" />
    <glyph glyph-name="uogonek" unicode="&#x173;" 
d="M928 0h-131l-17 113q-112 -144 -319 -144q-185 0 -287 112.5t-102 289.5v684h325v-625q0 -192 168 -192q93 0 141 69.5t48 171.5v576h325v-1055q-135 -76 -135 -188q0 -31 17.5 -49.5t48.5 -18.5q36 0 80 23l55 -148q-89 -57 -211 -57q-103 0 -167.5 49.5t-64.5 146.5
q0 155 226 242z" />
    <glyph glyph-name="Wcircumflex" unicode="&#x174;" horiz-adv-x="2099" 
d="M1722 1434h355l-383 -1434h-408l-237 940l-238 -940h-405l-386 1434h357l250 -1012l256 1012h331l256 -1012zM911 1872h281l209 -311h-236l-114 161l-113 -161h-238z" />
    <glyph glyph-name="wcircumflex" unicode="&#x175;" horiz-adv-x="1781" 
d="M1409 1055h350l-307 -1055h-369l-192 684l-191 -684h-368l-312 1055h351l170 -738l184 738h332l182 -738zM752 1493h280l209 -311h-235l-115 161l-113 -161h-237z" />
    <glyph glyph-name="Ycircumflex" unicode="&#x176;" horiz-adv-x="1411" 
d="M999 1434h390l-512 -961v-473h-345v473l-512 961h388l297 -615zM565 1872h281l209 -311h-236l-114 161l-113 -161h-238z" />
    <glyph glyph-name="ycircumflex" unicode="&#x177;" horiz-adv-x="1163" 
d="M582 406l213 649h348l-406 -1114q-28 -88 -54.5 -147t-65.5 -111t-89 -81.5t-119.5 -46t-162.5 -16.5q-44 0 -92 10v261q36 -9 77 -9q70 0 115 36.5t64 94.5l24 68h-28l-383 1055h348zM442 1493h281l209 -311h-236l-114 161l-113 -161h-238z" />
    <glyph glyph-name="Ydieresis" unicode="&#x178;" horiz-adv-x="1411" 
d="M999 1434h390l-512 -961v-473h-345v473l-512 961h388l297 -615zM758 1571v264h278v-264h-278zM375 1571v264h280v-264h-280z" />
    <glyph glyph-name="Zacute" unicode="&#x179;" horiz-adv-x="1339" 
d="M117 1434h1110v-267l-707 -886h725v-281h-1153v266l690 887h-665v281zM729 1876h301l-250 -311h-254z" />
    <glyph glyph-name="zacute" unicode="&#x17a;" horiz-adv-x="1073" 
d="M92 1055h905v-244l-522 -557h533v-254h-940v244l510 557h-486v254zM600 1493h301l-250 -311h-254z" />
    <glyph glyph-name="Zdotaccent" unicode="&#x17b;" horiz-adv-x="1339" 
d="M117 1434h1110v-267l-707 -886h725v-281h-1153v266l690 887h-665v281zM528 1569v264h281v-264h-281z" />
    <glyph glyph-name="zdotaccent" unicode="&#x17c;" horiz-adv-x="1073" 
d="M92 1055h905v-244l-522 -557h533v-254h-940v244l510 557h-486v254zM395 1190v264h281v-264h-281z" />
    <glyph glyph-name="Zcaron" unicode="&#x17d;" horiz-adv-x="1339" 
d="M117 1434h1110v-267l-707 -886h725v-281h-1153v266l690 887h-665v281zM782 1874h238l-211 -311h-281l-211 311h238l113 -162z" />
    <glyph glyph-name="zcaron" unicode="&#x17e;" horiz-adv-x="1073" 
d="M92 1055h905v-244l-522 -557h533v-254h-940v244l510 557h-486v254zM649 1495h238l-211 -311h-281l-211 311h238l113 -162z" />
    <glyph glyph-name="uni018F" unicode="&#x18f;" horiz-adv-x="1556" 
d="M1114 541h-686q37 -133 122 -209t214 -76q141 0 228 78.5t122 206.5zM1483 717q0 -161 -46 -297t-134.5 -237t-226 -157.5t-310.5 -56.5q-218 0 -376.5 107t-238 293t-79.5 430h1058q-10 77 -36 144t-68.5 121t-106.5 85t-143 31q-130 0 -218 -67t-114 -185h-352
q38 251 222 393.5t462 142.5q163 0 297 -57t223.5 -157t138 -236.5t48.5 -296.5z" />
    <glyph glyph-name="florin" unicode="&#x192;" horiz-adv-x="956" 
d="M158 672v219h190l27 250q7 67 33 123t72.5 102t123 72t174.5 26q73 0 135 -20v-264q-1 0 -15.5 3.5t-32 6t-36.5 2.5q-60 0 -94 -34t-41 -85l-18 -182h221v-219h-244l-78 -754q-6 -67 -31.5 -123.5t-72 -102.5t-122 -72t-173.5 -26q-70 0 -135 21v264q42 -14 84 -14
q59 0 92.5 35t38.5 84l70 688h-168z" />
    <glyph glyph-name="uni01F4" unicode="&#x1f4;" horiz-adv-x="1562" 
d="M764 518v260h725v-778h-232l-24 178q-154 -209 -455 -209q-218 0 -379.5 98.5t-244 267t-82.5 382.5t82.5 382t244 266.5t379.5 98.5q278 0 462 -142.5t222 -393.5h-352q-28 118 -115.5 185t-218.5 67q-72 0 -131.5 -26t-101 -70.5t-70 -104.5t-42 -126t-13.5 -136
t14 -135.5t44 -125t73 -104t106.5 -70.5t139.5 -26q134 0 217 70t112 192h-360zM864 1872h301l-250 -311h-253z" />
    <glyph glyph-name="uni01F5" unicode="&#x1f5;" horiz-adv-x="1245" 
d="M598 825q-116 0 -182 -79.5t-66 -190.5q0 -114 66.5 -188t181.5 -74q116 0 181 75.5t65 186.5q0 113 -66 191.5t-180 78.5zM545 1085q213 0 317 -137l23 107h266v-959q0 -283 -145 -420t-400 -137q-213 0 -355.5 104.5t-172.5 301.5h299q15 -77 71.5 -119.5t141.5 -42.5
q127 0 191.5 70t64.5 206v84q-112 -112 -297 -112q-147 0 -260 69.5t-172.5 188t-59.5 266.5q0 105 34 200.5t95 169t154.5 117t204.5 43.5zM371 1182l202 311h301l-249 -311h-254z" />
    <glyph glyph-name="Aringacute" unicode="&#x1fa;" horiz-adv-x="1511" 
d="M578 559h352l-174 526zM756 1747q-32 0 -53 -20t-21 -52q0 -33 20.5 -53t53.5 -20q32 0 50.5 20.5t18.5 52.5q0 31 -18.5 51.5t-50.5 20.5zM397 0h-377l523 1434h424l522 -1434h-379l-98 285h-516zM756 1886q94 0 157.5 -58.5t63.5 -152.5t-63.5 -152.5t-157.5 -58.5
t-159 59t-65 152t65 152t159 59zM614 1923l203 311h301l-250 -311h-254z" />
    <glyph glyph-name="aringacute" unicode="&#x1fb;" horiz-adv-x="1247" 
d="M547 412q-82 -16 -127 -43.5t-45 -81.5q0 -109 143 -109q99 0 181.5 63t82.5 150v78q-1 0 -8 -3t-15.5 -6.5t-24.5 -8.5t-34 -9zM623 1427q-33 0 -53.5 -19.5t-20.5 -51.5q0 -33 20.5 -53.5t53.5 -20.5q31 0 50 21t19 53q0 31 -18.5 51t-50.5 20zM430 598q200 29 268 39
q43 8 63.5 22t20.5 41q0 150 -170 150q-79 0 -130 -38t-60 -112h-303q55 385 487 385q112 0 197 -22.5t150.5 -71.5t99.5 -134t34 -204v-360q0 -58 13 -83.5t59 -25.5h21v-215h-138q-85 0 -142.5 43.5t-74.5 126.5q-141 -170 -381 -170q-167 0 -271.5 75.5t-104.5 227.5
q0 276 362 326zM623 1567q94 0 157.5 -58.5t63.5 -152.5t-63.5 -152.5t-157.5 -58.5t-159 59t-65 152t65 152t159 59zM496 1618l202 311h301l-249 -311h-254z" />
    <glyph glyph-name="AEacute" unicode="&#x1fc;" horiz-adv-x="2191" 
d="M1090 559v569l-340 -569h340zM23 0l876 1434h1200v-281h-665v-291h616v-280h-616v-301h665v-281h-1009v285h-480l-174 -285h-413zM958 1561l203 311h301l-250 -311h-254z" />
    <glyph glyph-name="aeacute" unicode="&#x1fd;" horiz-adv-x="1947" 
d="M778 465q-38 -15 -78 -23l-153 -30q-82 -16 -127 -43.5t-45 -81.5q0 -109 143 -109q91 0 172.5 57t104.5 142q-15 54 -17 88zM1337 844q-98 0 -156 -56.5t-77 -144.5h471q-20 92 -79.5 146.5t-158.5 54.5zM1337 1085q179 0 312.5 -84t195.5 -231q61 -149 39 -332h-784
q13 -103 77 -168t173 -65q169 0 229 123h297q-58 -178 -197.5 -268.5t-326.5 -90.5q-145 0 -265.5 55.5t-197.5 155.5q-39 -61 -95 -105t-118.5 -65.5t-118.5 -31t-113 -9.5q-167 0 -271.5 75.5t-104.5 227.5q0 276 362 326q200 29 268 39q43 8 63.5 22t20.5 41
q0 150 -170 150q-79 0 -130 -38t-60 -112h-303q55 385 487 385q256 0 375 -116q147 116 356 116zM840 1182l202 311h301l-249 -311h-254z" />
    <glyph glyph-name="Oslashacute" unicode="&#x1fe;" horiz-adv-x="1585" 
d="M469 463l506 665q-76 48 -184 48q-94 0 -167.5 -37.5t-117 -102t-66 -145.5t-22.5 -174q0 -146 51 -254zM1114 971l-506 -666q76 -45 183 -45q95 0 168.5 37t117.5 101t66 145t22 174q0 146 -51 254zM352 -31h-258l164 217q-91 100 -138.5 237t-47.5 294
q0 156 47.5 291.5t136 237t226.5 160t309 58.5q215 0 372 -88l68 88h258l-164 -215q186 -207 186 -532q0 -124 -29.5 -236t-89.5 -205.5t-144.5 -162t-201.5 -106.5t-255 -38q-208 0 -371 88zM541 1561l202 311h301l-249 -311h-254z" />
    <glyph glyph-name="oslashacute" unicode="&#x1ff;" horiz-adv-x="1255" 
d="M397 379l328 432q-46 16 -98 16q-84 0 -144 -43.5t-87 -109.5t-27 -146q0 -79 28 -149zM856 676l-326 -430q49 -17 97 -17q85 0 145 44t86.5 110t26.5 145q0 83 -29 148zM936 1085h233l-125 -163q154 -157 154 -394q0 -244 -161 -401.5t-410 -157.5q-143 0 -265 58
l-43 -58h-233l125 164q-154 157 -154 395q0 245 160.5 401t409.5 156q150 0 266 -55zM496 1182l202 311h301l-249 -311h-254z" />
    <glyph glyph-name="uni0218" unicode="&#x218;" horiz-adv-x="1374" 
d="M674 1464q168 0 295 -50t209.5 -159t99.5 -270h-344q-37 199 -260 199q-55 0 -98.5 -12t-75 -46.5t-31.5 -87.5q0 -28 12 -52t27 -40t45 -31t49 -22.5t57.5 -16.5t52.5 -11.5t50 -8.5q62 -10 111 -20.5t107 -29t102 -40.5t86.5 -56t70 -74.5t44.5 -96.5t17 -123
q0 -98 -35 -176.5t-93 -128t-137 -82.5t-161 -46.5t-172 -13.5q-131 0 -238 30.5t-190.5 93t-135.5 164.5t-66 239h344q34 -246 299 -246q40 0 76.5 7.5t70.5 24.5t54 49t20 75q0 47 -27 82t-81 55.5t-88.5 29.5t-96.5 20q-11 2 -16 3q-66 12 -113 23t-105.5 29.5t-99 40
t-82 54.5t-66.5 72.5t-41 95t-16 121.5q0 91 32.5 165t87 123t128.5 82t154.5 47.5t167.5 14.5zM535 -713l-23 80q77 19 129.5 60.5t58.5 101.5h-151v287h311v-191q0 -123 -89 -217.5t-236 -120.5z" />
    <glyph glyph-name="uni0219" unicode="&#x219;" horiz-adv-x="1126" 
d="M549 1085q102 0 188 -22t153.5 -65.5t108 -114.5t45.5 -164h-294q-20 145 -203 145q-67 0 -105.5 -25.5t-38.5 -68.5q0 -34 18.5 -57.5t63.5 -39t73 -22t93 -16.5q7 -1 11 -2q70 -11 123.5 -24.5t108.5 -38.5t90.5 -59t58 -86.5t22.5 -119.5q0 -89 -41 -156t-111.5 -105
t-156.5 -56.5t-185 -18.5q-220 0 -361 100t-147 291h312q11 -172 217 -172q71 0 119.5 24t48.5 75q0 17 -5.5 32t-18 27t-24.5 22t-34 18.5t-37 14t-42.5 12t-41.5 9.5t-43 8.5t-39 7.5q-64 12 -115 26.5t-103 40t-86.5 58.5t-56.5 83t-22 112q0 85 40 150t107.5 102.5
t146 56t163.5 18.5zM385 -713l-23 80q78 19 130.5 60.5t58.5 101.5h-152v287h312v-191q0 -123 -89.5 -217.5t-236.5 -120.5z" />
    <glyph glyph-name="uni021A" unicode="&#x21a;" horiz-adv-x="1386" 
d="M72 1434h1241v-281h-449v-1153h-344v1153h-448v281zM528 -713l-22 80q77 19 129.5 60.5t58.5 101.5h-151v287h311v-191q0 -123 -89.5 -217.5t-236.5 -120.5z" />
    <glyph glyph-name="uni021B" unicode="&#x21b;" horiz-adv-x="835" 
d="M227 1366h326v-311h229v-254h-229v-414q0 -76 38.5 -109.5t119.5 -33.5q47 0 71 8v-266q-108 -17 -182 -17q-192 0 -282.5 98t-90.5 295v439h-176v254h60q116 0 116 114v197zM385 -713l-23 80q78 19 130.5 60.5t58.5 101.5h-152v287h312v-191q0 -123 -89.5 -217.5
t-236.5 -120.5z" />
    <glyph glyph-name="uni0232" unicode="&#x232;" horiz-adv-x="1411" 
d="M999 1434h390l-512 -961v-473h-345v473l-512 961h388l297 -615zM403 1614v207h603v-207h-603z" />
    <glyph glyph-name="uni0233" unicode="&#x233;" horiz-adv-x="1163" 
d="M582 406l213 649h348l-406 -1114q-28 -88 -54.5 -147t-65.5 -111t-89 -81.5t-119.5 -46t-162.5 -16.5q-44 0 -92 10v261q36 -9 77 -9q70 0 115 36.5t64 94.5l24 68h-28l-383 1055h348zM281 1235v207h602v-207h-602z" />
    <glyph glyph-name="uni0237" unicode="&#x237;" horiz-adv-x="514" 
d="M94 -68v1123h326v-1096q0 -212 -96.5 -316t-321.5 -104q-24 0 -117 12v263q72 -9 78 -9q59 0 95 36.5t36 90.5z" />
    <glyph glyph-name="uni0259" unicode="&#x259;" horiz-adv-x="1230" 
d="M612 211q96 0 154.5 57.5t77.5 145.5h-471q20 -94 79.5 -148.5t159.5 -54.5zM612 -31q-181 0 -314 85t-194 233q-63 147 -38 329h784q-14 103 -79 169.5t-173 66.5q-78 0 -138 -31t-89 -94h-297q56 179 195.5 268.5t326.5 89.5q251 0 414.5 -154.5t163.5 -404.5
q0 -241 -159.5 -399t-402.5 -158z" />
    <glyph glyph-name="circumflex" unicode="&#x2c6;" horiz-adv-x="888" 
d="M305 1493h281l209 -311h-236l-115 161l-112 -161h-238z" />
    <glyph glyph-name="caron" unicode="&#x2c7;" horiz-adv-x="888" 
d="M557 1495h238l-211 -311h-281l-211 311h238l112 -162z" />
    <glyph glyph-name="breve" unicode="&#x2d8;" horiz-adv-x="802" 
d="M401 1360q101 0 119 125h189q-8 -148 -85 -234t-223 -86t-223.5 85t-85.5 235h191q7 -59 33.5 -92t84.5 -33z" />
    <glyph glyph-name="dotaccent" unicode="&#x2d9;" horiz-adv-x="548" 
d="M133 1190v264h281v-264h-281z" />
    <glyph glyph-name="ring" unicode="&#x2da;" horiz-adv-x="630" 
d="M315 1427q-32 0 -52.5 -19.5t-20.5 -51.5q0 -34 20 -54t53 -20q32 0 51 21t19 53q0 31 -19 51t-51 20zM315 1567q94 0 158 -58.5t64 -152.5t-64 -152.5t-158 -58.5t-158.5 59t-64.5 152t64.5 152t158.5 59z" />
    <glyph glyph-name="ogonek" unicode="&#x2db;" horiz-adv-x="628" 
d="M371 18l98 -18q-135 -76 -135 -188q0 -31 17.5 -49.5t47.5 -18.5q36 0 80 23l56 -148q-89 -57 -211 -57q-103 0 -167.5 49.5t-64.5 146.5q0 172 279 260z" />
    <glyph glyph-name="tilde" unicode="&#x2dc;" horiz-adv-x="989" 
d="M336 1479q43 0 88 -17t76 -37.5t67.5 -37.5t65.5 -17q76 0 76 100h186q1 -79 -23.5 -146.5t-81.5 -114t-137 -46.5q-45 0 -91 17.5t-77.5 38t-67 38t-61.5 17.5q-38 0 -56.5 -30.5t-18.5 -72.5h-189q2 62 16 114.5t41.5 97.5t75.5 70.5t111 25.5z" />
    <glyph glyph-name="hungarumlaut" unicode="&#x2dd;" horiz-adv-x="931" 
d="M559 1505h279l-189 -311h-241zM211 1505h281l-158 -311h-242z" />
    <glyph glyph-name="uni0307" unicode="&#x307;" horiz-adv-x="548" 
d="M133 1190v264h281v-264h-281z" />
    <glyph glyph-name="uni0312" unicode="&#x312;" horiz-adv-x="0" 
d="M117 1493h135l-66 -350h-174z" />
    <glyph glyph-name="uni0326" unicode="&#x326;" horiz-adv-x="0" 
d="M-20 -713l-23 80q77 19 129.5 60.5t58.5 101.5h-151v287h311v-191q0 -123 -89 -217.5t-236 -120.5z" />
    <glyph glyph-name="uni0394" unicode="&#x394;" horiz-adv-x="1669" 
d="M1163 281l-332 825l-333 -825h665zM20 0l627 1464h373l627 -1464h-1627z" />
    <glyph glyph-name="uni03A9" unicode="&#x3a9;" horiz-adv-x="1656" 
d="M827 1464q210 0 376.5 -83t263 -239t96.5 -360q0 -137 -59.5 -272t-174.5 -229h187v-281h-607v270q132 59 212.5 186.5t80.5 286.5q0 195 -96 313t-279 118t-278.5 -118t-95.5 -313q0 -160 78 -287t210 -186v-270h-602v281h187q-115 94 -174.5 229t-59.5 272
q0 204 96 360t262.5 239t376.5 83z" />
    <glyph glyph-name="uni03BC" unicode="&#x3bc;" horiz-adv-x="1214" 
d="M373 -358h-271v1413h326v-625q0 -89 40 -141.5t128 -52.5q92 0 140 70.5t48 172.5v576h326v-1055h-283l-14 100q-87 -131 -252 -131q-120 0 -188 62v-389z" />
    <glyph glyph-name="pi" unicode="&#x3c0;" horiz-adv-x="1427" 
d="M801 389v387h-211v-776h-326v776h-172v281h1223v-281h-189v-414q0 -54 35 -90t94 -36q14 0 78 8v-262q-8 -1 -31 -5t-43 -6t-40 -2q-225 0 -321.5 104t-96.5 316z" />
    <glyph glyph-name="uni0E3F" unicode="&#xe3f;" horiz-adv-x="1372" 
d="M569 254v354h-92v-354h92zM764 608v-352q94 6 146.5 50t52.5 126q0 162 -199 176zM569 866v314h-92v-314h92zM764 1174v-304q135 20 135 152q0 131 -135 152zM569 1434v219h195v-219h31q68 0 130 -12.5t120.5 -41t101 -71.5t68.5 -109t26 -147q0 -102 -49 -184t-141 -124
q115 -36 180 -125t65 -223q0 -85 -24.5 -152.5t-67 -113t-102.5 -75.5t-128.5 -43t-148.5 -13h-61v-219h-195v219h-436v1434h436z" />
    <glyph glyph-name="uni1E44" unicode="&#x1e44;" horiz-adv-x="1490" 
d="M1010 1434h346v-1434h-371l-508 854v-854h-344v1434h365l512 -891v891zM604 1569v264h281v-264h-281z" />
    <glyph glyph-name="uni1E45" unicode="&#x1e45;" 
d="M713 1085q184 0 285.5 -111.5t101.5 -289.5v-684h-326v625q0 192 -168 192q-93 0 -140.5 -70t-47.5 -172v-575h-326v1055h285l16 -111q109 141 320 141zM446 1190v264h281v-264h-281z" />
    <glyph glyph-name="Wgrave" unicode="&#x1e80;" horiz-adv-x="2099" 
d="M1722 1434h355l-383 -1434h-408l-237 940l-238 -940h-405l-386 1434h357l250 -1012l256 1012h331l256 -1012zM688 1872h299l205 -311h-256z" />
    <glyph glyph-name="wgrave" unicode="&#x1e81;" horiz-adv-x="1781" 
d="M1409 1055h350l-307 -1055h-369l-192 684l-191 -684h-368l-312 1055h351l170 -738l184 738h332l182 -738zM520 1493h299l205 -311h-256z" />
    <glyph glyph-name="Wacute" unicode="&#x1e82;" horiz-adv-x="2099" 
d="M1722 1434h355l-383 -1434h-408l-237 940l-238 -940h-405l-386 1434h357l250 -1012l256 1012h331l256 -1012zM1135 1872h301l-250 -311h-254z" />
    <glyph glyph-name="wacute" unicode="&#x1e83;" horiz-adv-x="1781" 
d="M1409 1055h350l-307 -1055h-369l-192 684l-191 -684h-368l-312 1055h351l170 -738l184 738h332l182 -738zM973 1493h301l-250 -311h-254z" />
    <glyph glyph-name="Wdieresis" unicode="&#x1e84;" horiz-adv-x="2099" 
d="M1722 1434h355l-383 -1434h-408l-237 940l-238 -940h-405l-386 1434h357l250 -1012l256 1012h331l256 -1012zM1102 1571v264h278v-264h-278zM719 1571v264h280v-264h-280z" />
    <glyph glyph-name="wdieresis" unicode="&#x1e85;" horiz-adv-x="1781" 
d="M1409 1055h350l-307 -1055h-369l-192 684l-191 -684h-368l-312 1055h351l170 -738l184 738h332l182 -738zM944 1192v264h279v-264h-279zM561 1192v264h281v-264h-281z" />
    <glyph glyph-name="Germandbls" unicode="&#x1e9e;" horiz-adv-x="1376" 
d="M686 1464q102 0 192.5 -27.5t152 -71t101.5 -86t62 -83.5v-131l-250 -270q117 -20 197 -79.5t115.5 -140t35.5 -180.5q0 -91 -30 -164.5t-79 -121t-115 -80t-136 -46.5t-144 -14q-148 0 -247 45v254q28 -18 79 -28.5t97 -10.5q107 0 168 54t61 149q0 182 -303 182v254
l227 250q-1 1 -8.5 7l-12.5 10t-15.5 11.5t-19.5 13t-21.5 12.5t-25 12t-26 9.5t-29 6.5t-30.5 2q-99 0 -152 -64.5t-53 -174.5v-963h-344v920q0 265 141 404.5t412 139.5z" />
    <glyph glyph-name="uni1EB8" unicode="&#x1eb8;" horiz-adv-x="1236" 
d="M133 1434h1010v-283h-666v-291h617v-280h-617v-299h666v-281h-1010v1434zM498 -465v264h280v-264h-280z" />
    <glyph glyph-name="uni1EB9" unicode="&#x1eb9;" horiz-adv-x="1230" 
d="M618 846q-96 0 -154 -57.5t-77 -145.5h471q-21 94 -80.5 148.5t-159.5 54.5zM618 1087q180 0 313.5 -85t194.5 -232q64 -149 39 -332h-784q13 -102 77.5 -167.5t172.5 -65.5q170 0 229 123h297q-58 -178 -197 -268.5t-325 -90.5q-251 0 -414.5 154.5t-163.5 404.5
q0 243 159 401t402 158zM756 -463h-281v264h281v-264z" />
    <glyph glyph-name="uni1EBC" unicode="&#x1ebc;" horiz-adv-x="1236" 
d="M133 1434h1010v-281h-666v-291h617v-280h-617v-301h666v-281h-1010v1434zM481 1858q43 0 88 -17t76 -37.5t67.5 -37.5t65.5 -17q76 0 76 100h186q1 -79 -23.5 -146.5t-81 -114t-136.5 -46.5q-57 0 -114 28t-104 55.5t-79 27.5q-38 0 -57 -30.5t-19 -72.5h-188
q2 62 16 114.5t41.5 97.5t75 70.5t110.5 25.5z" />
    <glyph glyph-name="uni1EBD" unicode="&#x1ebd;" horiz-adv-x="1230" 
d="M618 844q-97 0 -154.5 -57t-76.5 -146h471q-21 94 -80.5 148.5t-159.5 54.5zM618 1085q181 0 314 -84.5t194 -232.5q64 -147 39 -330h-784q13 -103 77.5 -169t172.5 -66q79 0 139 31t90 94h297q-58 -178 -197 -268.5t-325 -90.5q-251 0 -414.5 154.5t-163.5 404.5
q0 243 159 400t402 157zM457 1479q43 0 88 -17t76 -37.5t67.5 -37.5t65.5 -17q75 0 75 100h187q1 -79 -23.5 -146.5t-81.5 -114t-137 -46.5q-45 0 -91 17.5t-77.5 38t-67 38t-61.5 17.5q-38 0 -57 -30.5t-19 -72.5h-188q2 62 16 114.5t41.5 97.5t75.5 70.5t111 25.5z" />
    <glyph glyph-name="uni1ECA" unicode="&#x1eca;" horiz-adv-x="614" 
d="M166 -465v264h280v-264h-280zM133 0v1434h344v-1434h-344z" />
    <glyph glyph-name="uni1ECB" unicode="&#x1ecb;" horiz-adv-x="514" 
d="M117 -465v264h278v-264h-278zM92 1155v279h328v-279h-328zM94 0v1055h324v-1055h-324z" />
    <glyph glyph-name="uni1ECC" unicode="&#x1ecc;" horiz-adv-x="1585" 
d="M651 -465v264h281v-264h-281zM791 1174q-76 0 -138.5 -24.5t-105.5 -66.5t-72.5 -100.5t-43 -125t-13.5 -140.5q0 -75 13.5 -141.5t43 -125t72.5 -101t105.5 -67t138.5 -24.5q95 0 168.5 37t117.5 101.5t66 145.5t22 175q0 93 -22 174t-66 145t-117.5 101t-168.5 37z
M791 1464q171 0 309.5 -58.5t227 -160t136 -237t47.5 -291.5q0 -157 -47.5 -292.5t-136 -237.5t-227 -161t-309.5 -59t-309 59t-226.5 161t-136 238t-47.5 292t47.5 291.5t136 237t226.5 160t309 58.5z" />
    <glyph glyph-name="uni1ECD" unicode="&#x1ecd;" horiz-adv-x="1255" 
d="M487 -465v264h281v-264h-281zM627 827q-84 0 -144 -44t-87 -110.5t-27 -146.5t27 -146t87 -109.5t144 -43.5q85 0 145 44t86.5 110t26.5 145q0 80 -27 146.5t-87 110.5t-144 44zM627 1085q250 0 410.5 -157t160.5 -402q0 -244 -161 -401.5t-410 -157.5q-248 0 -409 157
t-161 402q0 246 160.5 402.5t409.5 156.5z" />
    <glyph glyph-name="uni1EE4" unicode="&#x1ee4;" horiz-adv-x="1423" 
d="M571 -465v264h279v-264h-279zM965 537v897h344v-912q0 -134 -46 -241t-127 -175t-189.5 -103.5t-235.5 -35.5t-234.5 35.5t-189.5 103t-128 174.5t-46 242v912h344v-897q0 -134 67 -208.5t187 -74.5q122 0 188 75t66 208z" />
    <glyph glyph-name="uni1EE5" unicode="&#x1ee5;" 
d="M436 -465v264h281v-264h-281zM754 479v576h325v-1055h-282l-17 111q-113 -142 -319 -142q-185 0 -287 112t-102 290v684h325v-625q0 -89 40 -141.5t128 -52.5q93 0 141 70.5t48 172.5z" />
    <glyph glyph-name="Ygrave" unicode="&#x1ef2;" horiz-adv-x="1411" 
d="M999 1434h390l-512 -961v-473h-345v473l-512 961h388l297 -615zM338 1872h299l205 -311h-256z" />
    <glyph glyph-name="ygrave" unicode="&#x1ef3;" horiz-adv-x="1163" 
d="M582 406l213 649h348l-406 -1114q-28 -88 -54.5 -147t-65.5 -111t-89 -81.5t-119.5 -46t-162.5 -16.5q-44 0 -92 10v261q36 -9 77 -9q70 0 115 36.5t64 94.5l24 68h-28l-383 1055h348zM199 1493h299l204 -311h-256z" />
    <glyph glyph-name="uni1EF8" unicode="&#x1ef8;" horiz-adv-x="1411" 
d="M999 1434h390l-512 -961v-473h-345v473l-512 961h388l297 -615zM547 1858q43 0 88 -17t76 -37.5t67.5 -37.5t65.5 -17q76 0 76 100h186q1 -79 -23.5 -146.5t-81.5 -114t-137 -46.5q-57 0 -114 28t-104 55.5t-79 27.5q-38 0 -56.5 -30.5t-18.5 -72.5h-189q2 62 16 114.5
t41.5 97.5t75.5 70.5t111 25.5z" />
    <glyph glyph-name="uni1EF9" unicode="&#x1ef9;" horiz-adv-x="1163" 
d="M582 406l213 649h348l-406 -1114q-28 -88 -54.5 -147t-65.5 -111t-89 -81.5t-119.5 -46t-162.5 -16.5q-44 0 -92 10v261q36 -9 77 -9q70 0 115 36.5t64 94.5l24 68h-28l-383 1055h348zM424 1479q43 0 88 -17t76 -37.5t67.5 -37.5t65.5 -17q76 0 76 100h186
q1 -79 -23.5 -146.5t-81.5 -114t-137 -46.5q-45 0 -91 17.5t-77.5 38t-67 38t-61.5 17.5q-38 0 -56.5 -30.5t-18.5 -72.5h-189q2 62 16 114.5t41.5 97.5t75.5 70.5t111 25.5z" />
    <glyph glyph-name="endash" unicode="&#x2013;" horiz-adv-x="1050" 
d="M135 453v284h783v-284h-783z" />
    <glyph glyph-name="emdash" unicode="&#x2014;" horiz-adv-x="1396" 
d="M0 453v282h1395v-282h-1395z" />
    <glyph glyph-name="uni2015" unicode="&#x2015;" horiz-adv-x="1867" 
d="M0 453v282h1866v-282h-1866z" />
    <glyph glyph-name="quoteleft" unicode="&#x2018;" horiz-adv-x="593" 
d="M504 1434l41 -113q-202 -54 -223 -207h149v-328h-336v228q0 170 98.5 281t270.5 139z" />
    <glyph glyph-name="quoteright" unicode="&#x2019;" horiz-adv-x="593" 
d="M127 1434h332v-228q0 -171 -98 -281.5t-269 -138.5l-43 111q204 57 225 207h-147v330z" />
    <glyph glyph-name="quotesinglbase" unicode="&#x201a;" horiz-adv-x="593" 
d="M127 330h332v-228q0 -171 -98 -281t-269 -138l-43 110q204 57 225 207h-147v330z" />
    <glyph glyph-name="quotedblleft" unicode="&#x201c;" horiz-adv-x="1017" 
d="M502 1434l43 -113q-205 -54 -226 -207h150v-328h-336v228q0 170 98.5 281t270.5 139zM928 1434l41 -113q-202 -53 -226 -207h150v-328h-334v228q0 170 98.5 281t270.5 139z" />
    <glyph glyph-name="quotedblright" unicode="&#x201d;" horiz-adv-x="1017" 
d="M549 1434h334v-228q0 -172 -98.5 -282t-270.5 -138l-41 111q201 56 225 207h-149v330zM125 1434h334v-228q0 -171 -99 -281.5t-270 -138.5l-43 111q204 57 225 207h-147v330z" />
    <glyph glyph-name="quotedblbase" unicode="&#x201e;" horiz-adv-x="1019" 
d="M551 330h334v-228q0 -171 -98.5 -281t-270.5 -138l-41 110q201 56 225 207h-149v330zM127 330h334v-228q0 -171 -99 -281t-270 -138l-43 110q204 57 225 207h-147v330z" />
    <glyph glyph-name="dagger" unicode="&#x2020;" horiz-adv-x="1056" 
d="M367 1464h325v-362h273v-275h-273v-858h-325v858h-273v275h273v362z" />
    <glyph glyph-name="daggerdbl" unicode="&#x2021;" horiz-adv-x="1056" 
d="M367 1464h325v-274h273v-272h-273v-402h273v-274h-273v-273h-325v273h-273v274h273v402h-273v272h273v274z" />
    <glyph glyph-name="bullet" unicode="&#x2022;" horiz-adv-x="770" 
d="M625 715q0 -100 -70 -171t-170 -71t-171 71t-71 171q0 99 71 169t171 70t170 -69.5t70 -169.5z" />
    <glyph glyph-name="ellipsis" unicode="&#x2026;" horiz-adv-x="1566" 
d="M133 0v328h336v-328h-336zM614 0v328h336v-328h-336zM1098 0v328h334v-328h-334z" />
    <glyph glyph-name="perthousand" unicode="&#x2030;" horiz-adv-x="2775" 
d="M1331 1434h273l-969 -1434h-273zM465 1266q-146 0 -146 -228q0 -227 146 -227q145 0 145 227q0 228 -145 228zM465 1464q181 0 277 -116.5t96 -309.5q0 -196 -97.5 -312t-275.5 -116q-181 0 -277 117t-96 311q0 193 95.5 309.5t277.5 116.5zM1497 623q-147 0 -147 -228
q0 -225 147 -225q145 0 145 225q0 228 -145 228zM1497 821q181 0 276 -116t95 -310q0 -195 -96.5 -310.5t-274.5 -115.5q-181 0 -277 116.5t-96 309.5q0 194 95.5 310t277.5 116zM2308 623q-145 0 -145 -228q0 -225 145 -225q146 0 146 225q0 228 -146 228zM2308 821
q182 0 277.5 -116t95.5 -310q0 -195 -97 -310.5t-276 -115.5q-181 0 -277 116.5t-96 309.5q0 194 96 310t277 116z" />
    <glyph glyph-name="guilsinglleft" unicode="&#x2039;" horiz-adv-x="1050" 
d="M522 1231h393l-423 -514l423 -516h-393l-428 516z" />
    <glyph glyph-name="guilsinglright" unicode="&#x203a;" horiz-adv-x="1050" 
d="M133 1231h395l428 -514l-428 -516h-395l426 516z" />
    <glyph glyph-name="uni203D" unicode="&#x203d;" horiz-adv-x="1259" 
d="M438 0v328h336v-328h-336zM645 1464q107 0 199 -23.5t165 -71t114.5 -126t41.5 -180.5q0 -67 -23.5 -121t-64.5 -92t-83 -67t-92.5 -64t-80.5 -66q-69 -69 -69 -164v-59h-328l-55 598h288v-166q80 55 103 80q43 46 43 107q0 67 -49.5 107t-122.5 40q-162 0 -205 -131
h-334q24 193 171 296t382 103z" />
    <glyph glyph-name="fraction" unicode="&#x2044;" horiz-adv-x="464" 
d="M580 1434h272l-969 -1434h-272z" />
    <glyph glyph-name="uni2070" unicode="&#x2070;" horiz-adv-x="833" 
d="M416 1468q-74 0 -112 -67.5t-38 -173.5q0 -108 38 -177t112 -69t111.5 69t37.5 177q0 107 -37.5 174t-111.5 67zM416 1653q172 0 268 -118t96 -308q0 -191 -95.5 -309.5t-268.5 -118.5t-269 118.5t-96 309.5q0 190 95.5 308t269.5 118z" />
    <glyph glyph-name="uni2074" unicode="&#x2074;" horiz-adv-x="794" 
d="M434 1141v293l-184 -293h184zM37 1092l354 561h256v-512h107v-180h-107v-158h-213v158h-397v131z" />
    <glyph glyph-name="uni2075" unicode="&#x2075;" horiz-adv-x="770" 
d="M676 1653v-180h-371l-18 -154q58 47 159 47q124 0 197.5 -76t73.5 -200q0 -74 -28 -131.5t-76 -91.5t-106 -51t-122 -17q-144 0 -233 67.5t-101 192.5h215q14 -86 119 -86q51 0 88 32t37 87q0 52 -33 85t-88 33q-86 0 -119 -71h-215l64 514h557z" />
    <glyph glyph-name="uni2076" unicode="&#x2076;" horiz-adv-x="774" 
d="M401 1214q-49 0 -84.5 -32.5t-35.5 -85.5q0 -56 34 -86.5t84 -30.5q51 0 84 32t33 87q0 51 -31.5 83.5t-83.5 32.5zM438 1356q130 0 206.5 -74t76.5 -199q0 -119 -82 -201.5t-233 -82.5q-172 0 -262.5 106t-90.5 291q0 206 92.5 331.5t266.5 125.5q131 0 211 -65.5
t100 -192.5h-201q-22 80 -110 80q-66 0 -101.5 -53t-38.5 -128q68 62 166 62z" />
    <glyph glyph-name="uni2077" unicode="&#x2077;" horiz-adv-x="698" 
d="M655 1653v-162q-123 -139 -185 -316.5t-62 -375.5h-224q0 164 66 351.5t174 322.5h-387v180h618z" />
    <glyph glyph-name="uni2078" unicode="&#x2078;" horiz-adv-x="819" 
d="M408 967q18 0 38 4t44 13.5t39.5 31.5t15.5 53q0 51 -43 76.5t-94 25.5q-50 0 -92 -26t-42 -76q0 -31 15.5 -53t39 -31.5t43 -13.5t36.5 -4zM408 1483q-19 0 -37 -3.5t-37 -12t-30 -26t-11 -42.5q0 -34 27 -58t88 -24q62 0 89 24t27 58q0 46 -34.5 65t-81.5 19zM408 1653
q150 0 238.5 -62.5t88.5 -171.5q0 -57 -30 -100t-84 -66q66 -25 105.5 -80t39.5 -126q0 -61 -28 -108t-67.5 -72.5t-92 -41.5t-93 -21t-77.5 -5q-42 0 -84 5t-93 21.5t-89.5 42.5t-64.5 72.5t-26 106.5q0 71 40 126t108 80q-55 24 -86 67t-31 99q0 109 88.5 171.5
t237.5 62.5z" />
    <glyph glyph-name="uni2079" unicode="&#x2079;" horiz-adv-x="774" 
d="M375 1470q-50 0 -83.5 -31t-33.5 -87q0 -51 31.5 -83t83.5 -32q49 0 85 32.5t36 84.5q0 56 -34.5 86t-84.5 30zM369 1653q171 0 261.5 -107t90.5 -293q0 -205 -91.5 -329.5t-264.5 -124.5q-133 0 -213.5 65t-100.5 193h201q22 -82 110 -82q37 0 65 17.5t43 46t22 57.5
t8 59q-59 -59 -164 -59q-129 0 -206 73.5t-77 196.5q0 119 82.5 203t233.5 84z" />
    <glyph glyph-name="uni2080" unicode="&#x2080;" horiz-adv-x="833" 
d="M416 338q-74 0 -112 -68t-38 -174q0 -108 38 -177t112 -69t111.5 69t37.5 177q0 107 -37.5 174.5t-111.5 67.5zM416 522q172 0 268 -118t96 -308q0 -191 -95.5 -309.5t-268.5 -118.5t-269 118.5t-96 309.5q0 190 95.5 308t269.5 118z" />
    <glyph glyph-name="uni2081" unicode="&#x2081;" horiz-adv-x="532" 
d="M258 522h180v-854h-213v533h-174v170q42 0 66.5 1.5t55 10t46.5 24t27.5 44.5t11.5 71z" />
    <glyph glyph-name="uni2082" unicode="&#x2082;" horiz-adv-x="759" 
d="M389 520q60 0 113 -14t97.5 -43t70.5 -79.5t26 -117.5q0 -51 -16.5 -92t-52.5 -75.5t-65 -54.5t-83 -52q-43 -26 -68 -43t-55 -45.5t-45 -57.5h396v-178h-654v68q-1 64 16.5 119.5t42.5 92.5t66 72.5t72.5 55.5t77.5 45q98 51 125 75q34 31 34 66q0 40 -27 61t-73 21
q-107 0 -121 -125h-215q12 139 101 220t237 81z" />
    <glyph glyph-name="uni2083" unicode="&#x2083;" horiz-adv-x="782" 
d="M397 522q138 0 223 -61.5t85 -169.5q0 -59 -29.5 -106t-81.5 -70q64 -22 100.5 -71.5t36.5 -117.5q0 -85 -50 -145t-124.5 -86.5t-163.5 -26.5q-148 0 -240.5 77.5t-99.5 215.5h205q4 -57 41 -88t94 -31q49 0 84 22.5t35 78.5q0 41 -29.5 66.5t-93.5 25.5h-84v147h72
q46 0 80.5 20.5t34.5 63.5q0 80 -103 80q-48 0 -77.5 -23.5t-32.5 -68.5h-203q9 125 96 196.5t225 71.5z" />
    <glyph glyph-name="uni2084" unicode="&#x2084;" horiz-adv-x="794" 
d="M434 12v293l-184 -293h184zM37 -37l354 561h256v-512h107v-180h-107v-158h-213v158h-397v131z" />
    <glyph glyph-name="uni2085" unicode="&#x2085;" horiz-adv-x="770" 
d="M676 522v-180h-371l-18 -154q60 48 159 48q124 0 197.5 -76.5t73.5 -200.5q0 -74 -28 -131.5t-76 -91.5t-106 -51t-122 -17q-144 0 -233 67.5t-101 192.5h215q14 -86 119 -86q51 0 88 32t37 87q0 52 -33 85.5t-88 33.5q-85 0 -119 -72h-215l64 514h557z" />
    <glyph glyph-name="uni2086" unicode="&#x2086;" horiz-adv-x="774" 
d="M401 84q-49 0 -84.5 -32.5t-35.5 -86.5q0 -56 34 -86.5t84 -30.5q51 0 84 32t33 87q0 52 -31.5 84.5t-83.5 32.5zM438 225q130 0 206.5 -73.5t76.5 -198.5q0 -119 -82 -202t-233 -83q-171 0 -262 106.5t-91 291.5q0 206 92.5 331t266.5 125q131 0 211 -65.5t100 -192.5
h-201q-22 80 -110 80q-66 0 -101.5 -52.5t-38.5 -127.5q67 61 166 61z" />
    <glyph glyph-name="uni2087" unicode="&#x2087;" horiz-adv-x="698" 
d="M655 522v-162q-123 -139 -185 -316.5t-62 -375.5h-224q0 164 66 351.5t174 322.5h-387v180h618z" />
    <glyph glyph-name="uni2088" unicode="&#x2088;" horiz-adv-x="819" 
d="M408 -164q18 0 38 4t44 14t39.5 32t15.5 53q0 51 -43 76.5t-94 25.5q-50 0 -92 -26t-42 -76q0 -31 15.5 -53t39 -32t43 -14t36.5 -4zM408 352q-19 0 -37 -3.5t-37 -12t-30 -26t-11 -42.5q0 -34 27 -58t88 -24q62 0 89 24t27 58q0 46 -34.5 65t-81.5 19zM408 522
q151 0 239 -62t88 -171q0 -57 -30 -100t-84 -66q66 -25 105.5 -80.5t39.5 -126.5q0 -61 -28 -108t-67.5 -72.5t-92 -41.5t-93 -21t-77.5 -5q-42 0 -84 5t-93 21.5t-89.5 42.5t-64.5 72.5t-26 106.5q0 71 40 126.5t108 80.5q-55 24 -86 67t-31 99q0 109 88.5 171t237.5 62z
" />
    <glyph glyph-name="uni2089" unicode="&#x2089;" horiz-adv-x="774" 
d="M375 340q-50 0 -83.5 -31.5t-33.5 -87.5q0 -51 31.5 -83t83.5 -32q49 0 85 32.5t36 84.5q0 56 -34.5 86.5t-84.5 30.5zM369 522q171 0 261.5 -106.5t90.5 -292.5q0 -206 -91.5 -330.5t-264.5 -124.5q-133 0 -213.5 65t-100.5 193h201q22 -82 110 -82q37 0 65 17.5
t43 46.5t22 58t8 59q-60 -60 -164 -60q-129 0 -206 74t-77 197q0 119 82.5 202.5t233.5 83.5z" />
    <glyph glyph-name="colonmonetary" unicode="&#x20a1;" horiz-adv-x="1552" 
d="M440 543l226 618q-82 -28 -139.5 -99t-83 -159t-25.5 -186q0 -88 22 -174zM659 274l310 852q-49 31 -105 43l-305 -833q52 -45 100 -62zM672 -219h-193l78 217q-40 11 -106 41l-95 -258h-192l131 364q-108 101 -165.5 249t-57.5 323q0 214 82.5 382t244 266.5t379.5 98.5
l68 189h194l-75 -207q52 -11 108 -33l88 240h195l-121 -330q206 -161 233 -457h-346q-6 49 -20 90l-254 -696q116 21 187.5 103.5t86.5 203.5h346q-26 -281 -211.5 -439.5t-478.5 -158.5h-37z" />
    <glyph glyph-name="franc" unicode="&#x20a3;" horiz-adv-x="1335" 
d="M182 193h-164v210h164v1031h1010v-281h-664v-315h617v-281h-617v-154h281v-210h-281v-193h-346v193z" />
    <glyph glyph-name="lira" unicode="&#x20a4;" horiz-adv-x="1388" 
d="M729 1464q258 0 396 -110t159 -359h-377q-9 101 -53 148t-129 47q-75 0 -119.5 -50.5t-44.5 -133.5q0 -48 12 -109h293v-195h-260q4 -58 4 -88h256v-194h-293q-35 -81 -98 -135h819v-285h-1202v248q131 62 178 172h-178v194h193q-2 16 -9.5 46t-9.5 42h-174v195h125
q-8 41 -8 94q0 222 141 347.5t379 125.5z" />
    <glyph glyph-name="uni20A6" unicode="&#x20a6;" horiz-adv-x="1779" 
d="M623 590h157l-151 254h-6v-254zM1128 590h27v254h-172zM279 393h-187v197h187v254h-187v196h187v394h364l227 -394h285v394h346v-394h185v-196h-185v-254h185v-197h-185v-393h-371l-233 393h-274v-393h-344v393z" />
    <glyph glyph-name="peseta" unicode="&#x20a7;" horiz-adv-x="3315" 
d="M727 1153h-244v-379h244q94 0 155.5 48t61.5 141q0 94 -60 142t-157 48zM133 0v1434h606q121 0 220 -27.5t174 -83.5t116 -147.5t41 -212.5q0 -123 -41.5 -215t-117.5 -146t-173.5 -80t-218.5 -26h-256v-496h-350zM1591 1169v197h326v-311h229v-254h-229v-414
q0 -76 38.5 -109.5t119.5 -33.5q47 0 71 8v-266q-108 -17 -182 -17q-192 0 -282.5 98t-90.5 295v439h-176v254h60q116 0 116 114zM2738 1085q137 0 244 -37.5t176 -121.5t76 -207h-295q-20 145 -203 145q-67 0 -105 -25.5t-38 -68.5q0 -34 18 -57.5t64.5 -39.5t72 -21.5
t93.5 -16.5q7 -1 10 -2q70 -11 123.5 -24.5t108.5 -38.5t90.5 -59t58 -86.5t22.5 -119.5q0 -72 -27 -129.5t-73 -95.5t-110 -63.5t-134 -36.5t-149 -11q-220 0 -361 100t-147 291h311q11 -172 217 -172q71 0 119.5 24t48.5 75q0 17 -5.5 32t-18 27t-24.5 22t-34 18.5t-37 14
t-42.5 12t-41.5 9.5t-43 8.5t-39 7.5q-64 12 -115 26.5t-103 40t-86.5 58.5t-56.5 83t-22 112q0 85 40 150t107.5 102.5t146 56t163.5 18.5z" />
    <glyph glyph-name="uni20A9" unicode="&#x20a9;" horiz-adv-x="2242" 
d="M655 596h88l58 225h-201zM1034 596h174l-57 225h-59zM1499 596h86l57 225h-200zM371 401h-279v195h225l-61 225h-164v197h113l-113 416h357l102 -416h299l104 416h332l107 -416h297l104 416h354l-110 -416h110v-197h-163l-60 -225h223v-195h-276l-107 -401h-405l-103 401
h-272l-102 -401h-406z" />
    <glyph glyph-name="Euro" unicode="&#x20ac;" horiz-adv-x="1245" 
d="M848 1464q184 0 313 -73v-310q-54 46 -129.5 73.5t-146.5 27.5q-115 0 -196 -58t-126 -157h322v-195h-373q-2 -18 -2 -55q0 -38 2 -58h373v-194h-322q45 -98 127 -155.5t195 -57.5q71 0 146.5 27.5t129.5 72.5v-309q-131 -74 -313 -74q-252 0 -420.5 134.5t-230.5 361.5
h-156v194h125q-2 18 -2 58q0 37 2 55h-125v195h154q62 229 230.5 363t422.5 134z" />
    <glyph glyph-name="uni20AD" unicode="&#x20ad;" horiz-adv-x="1669" 
d="M281 635h-189v209h189v590h344v-590h6l497 590h431l-502 -590h510v-209h-416l424 -635h-410l-368 561l-172 -188v-373h-344v635z" />
    <glyph glyph-name="uni20AE" unicode="&#x20ae;" horiz-adv-x="1386" 
d="M864 891l244 74v-205l-244 -76v-115l244 74v-205l-244 -73v-365h-344v260l-244 -76v207l244 74v115l-244 -74v205l244 73v369h-448v281h1241v-281h-449v-262z" />
    <glyph glyph-name="uni20B2" unicode="&#x20b2;" horiz-adv-x="1562" 
d="M672 274v887q-84 -26 -142.5 -96.5t-85 -159t-26.5 -188.5q0 -98 26 -185t85 -158t143 -100zM881 518v-254q97 21 158 87t85 167h-243zM672 1458v193h209v-193q237 -27 391.5 -165.5t189.5 -364.5h-352q-22 91 -81 152.5t-148 84.5v-389h608v-776h-232l-24 178
q-125 -174 -352 -203v-194h-209v194q-280 35 -440 239t-160 503q0 196 69.5 354t206.5 260.5t324 126.5z" />
    <glyph glyph-name="uni20B4" unicode="&#x20b4;" horiz-adv-x="1632" 
d="M582 313q0 -43 22 -75t59 -49t77 -25t83 -8q216 0 496 100v-289q-99 -39 -233.5 -64.5t-270.5 -25.5q-90 0 -172 13.5t-161 46.5t-137 82.5t-93 128t-35 176.5q0 46 10 94h-155v196h1487v-196h-906q-71 -42 -71 -105zM1559 797h-1487v196h858q119 49 119 140
q0 78 -61 113.5t-157 35.5q-203 0 -493 -102v288q102 39 235.5 65t268.5 26q87 0 168 -15t155 -48.5t128.5 -82.5t87 -123t32.5 -164q0 -74 -18 -133h164v-196z" />
    <glyph glyph-name="uni20B8" unicode="&#x20b8;" horiz-adv-x="1386" 
d="M72 1010h1241v-281h-449v-729h-344v729h-448v281zM72 1153v281h1241v-281h-1241z" />
    <glyph glyph-name="uni20B9" unicode="&#x20b9;" horiz-adv-x="1302" 
d="M612 0l-233 438h-287v279h334q145 0 207 100h-541v242h537q-61 96 -203 96h-334v279h1118v-242h-268q33 -57 49 -133h219v-242h-217q-48 -235 -262 -325l273 -492h-392z" />
    <glyph glyph-name="uni20BD" unicode="&#x20bd;" horiz-adv-x="1536" 
d="M899 1153h-244v-379h244q94 0 155.5 48t61.5 141q0 94 -60 142t-157 48zM918 403v-256h-263v-147h-350v147h-213v256h213v103h-213v256h213v672h606q121 0 220 -27.5t174 -83.5t116 -147.5t41 -212.5q0 -123 -41.5 -215t-117.5 -146t-173.5 -80t-218.5 -26h-256v-93h263z
" />
    <glyph glyph-name="uni20BF" unicode="&#x20bf;" horiz-adv-x="1372" 
d="M731 608h-254v-354h254q109 0 170.5 44t61.5 132q0 178 -232 178zM698 1180h-221v-316h225q90 0 143.5 37.5t53.5 120.5q0 158 -201 158zM623 -221v221h-80v-221h-211v221h-199v1434h199v215h211v-215h80v215h211v-217q80 -4 150 -27t129 -66.5t93.5 -117t34.5 -168.5
q0 -102 -49 -184t-141 -124q116 -38 180.5 -126.5t64.5 -221.5q0 -105 -36 -183t-100.5 -123.5t-145.5 -67.5t-180 -23v-221h-211z" />
    <glyph glyph-name="uni2113" unicode="&#x2113;" horiz-adv-x="1007" 
d="M602 1206q-70 0 -70 -121v-335q67 50 101.5 139t34.5 190q0 127 -66 127zM578 1466q166 0 250.5 -100.5t84.5 -265.5q0 -202 -98.5 -361.5t-282.5 -244.5v-156q0 -59 34.5 -93t95.5 -34q38 0 98 12v-225q-85 -29 -174 -29q-102 0 -177.5 27.5t-118 76.5t-63 109
t-20.5 131v103q-83 -13 -156 -13v195q95 4 156 18v408q0 96 21.5 175t65 139.5t116 94t168.5 33.5z" />
    <glyph glyph-name="uni2116" unicode="&#x2116;" horiz-adv-x="2441" 
d="M1927 1051q-84 0 -122 -57t-38 -138q0 -37 8 -69.5t25.5 -61t50 -45t76.5 -16.5q84 0 121 55.5t37 136.5t-37 138t-121 57zM2316 0h-778v266h778v-266zM1020 543v891h346v-1434h-371l-508 854v-854h-344v1434h365zM1927 1268q194 0 312 -115t118 -297
q0 -187 -118.5 -299.5t-311.5 -112.5q-196 0 -313 114.5t-117 297.5q0 185 119.5 298.5t310.5 113.5z" />
    <glyph glyph-name="trademark" unicode="&#x2122;" horiz-adv-x="1949" 
d="M133 1434h696v-174h-241v-639h-215v639h-240v174zM893 1434h270l191 -525l188 525h273v-813h-218v458l-165 -458h-156l-168 458v-458h-215v813z" />
    <glyph glyph-name="estimated" unicode="&#x212e;" horiz-adv-x="1609" 
d="M313 1051v-303h985v299q0 57 -30 104q-182 264 -463 264q-284 0 -463 -266q-29 -47 -29 -98zM1487 717v-29h-1174v-299q0 -63 33 -110q91 -129 202 -195t257 -66q272 0 436 236h111q-91 -133 -230.5 -209t-316.5 -76q-156 0 -286 61.5t-215 165.5t-132 238.5t-47 282.5
q0 149 47 284t132 238.5t215 165t286 61.5q157 0 287.5 -61.5t215.5 -165t132 -238.5t47 -284z" />
    <glyph glyph-name="uni2150" unicode="&#x2150;" horiz-adv-x="1781" 
d="M158 0l968 1434h273l-969 -1434h-272zM1110 823h619v-161q-123 -139 -185.5 -317t-62.5 -376h-224q0 164 66 351.5t174 322.5h-387v180zM258 1466h180v-854h-213v533h-174v170q42 0 66.5 1.5t55 10t46.5 24t27.5 44.5t11.5 71z" />
    <glyph glyph-name="uni2151" unicode="&#x2151;" horiz-adv-x="1730" 
d="M1333 651q-50 0 -83 -31.5t-33 -87.5q0 -51 31 -82.5t83 -31.5q49 0 85 32.5t36 84.5q0 56 -34.5 86t-84.5 30zM1327 834q171 0 261.5 -107t90.5 -293q0 -205 -91.5 -329.5t-264.5 -124.5q-133 0 -213 65t-100 193h200q22 -82 111 -82q37 0 64.5 17.5t42.5 46t22 57.5
t8 59q-60 -60 -164 -60q-129 0 -205.5 74t-76.5 197q0 119 82 203t233 84zM260 1466h180v-854h-213v533h-174v170q42 0 66.5 1.5t55 10t46.5 24t27.5 44.5t11.5 71zM141 0l969 1434h272l-968 -1434h-273z" />
    <glyph glyph-name="uni2152" unicode="&#x2152;" horiz-adv-x="2308" 
d="M1890 639q-74 0 -111.5 -67.5t-37.5 -174.5q0 -108 37.5 -176.5t111.5 -68.5t112 68.5t38 176.5q0 106 -38 174t-112 68zM1210 823h181v-854h-213v533h-174v170q35 0 56 1t48 5.5t43 14.5t31 26t21.5 42.5t6.5 61.5zM1890 823q173 0 269 -118t96 -308q0 -191 -96 -309.5
t-269 -118.5t-268.5 118.5t-95.5 309.5t95 308.5t269 117.5zM258 1466h180v-854h-213v533h-174v170q42 0 66.5 1.5t55 10t46.5 24t27.5 44.5t11.5 71zM141 0l969 1434h272l-968 -1434h-273z" />
    <glyph glyph-name="onethird" unicode="&#x2153;" horiz-adv-x="1779" 
d="M258 1466h180v-854h-213v533h-174v170q42 0 66.5 1.5t55 10t46.5 24t27.5 44.5t11.5 71zM143 0l969 1434h272l-968 -1434h-273zM1395 823q138 0 222.5 -61.5t84.5 -169.5q0 -59 -29.5 -106t-81.5 -70q64 -22 101 -71.5t37 -117.5q0 -85 -50 -145t-124.5 -86.5
t-163.5 -26.5q-148 0 -240.5 77.5t-99.5 215.5h204q4 -57 41.5 -88t94.5 -31q49 0 83.5 22.5t34.5 78.5q0 41 -29.5 66.5t-93.5 25.5h-83v147h71q46 0 80.5 20.5t34.5 63.5q0 80 -103 80q-48 0 -77.5 -23.5t-32.5 -68.5h-203q9 125 96.5 196.5t225.5 71.5z" />
    <glyph glyph-name="twothirds" unicode="&#x2154;" horiz-adv-x="2004" 
d="M389 1464q60 0 113 -14t97.5 -43t70.5 -79.5t26 -117.5q0 -51 -16.5 -92t-52.5 -75.5t-65 -54.5t-83 -52q-44 -27 -68.5 -43t-54.5 -44.5t-45 -57.5h396v-179h-654v68q-1 64 16.5 119.5t42.5 92.5t66 72.5t72.5 55.5t77.5 45q98 51 125 75q34 31 34 66q0 40 -27 61
t-73 21q-107 0 -121 -125h-215q12 139 101 220t237 81zM371 0l968 1434h273l-969 -1434h-272zM1620 823q138 0 222.5 -61.5t84.5 -169.5q0 -60 -29.5 -106.5t-80.5 -69.5q64 -22 100.5 -71.5t36.5 -117.5q0 -85 -50 -145t-124.5 -86.5t-163.5 -26.5q-148 0 -240.5 77.5
t-99.5 215.5h205q4 -57 41 -88t94 -31q49 0 84 22.5t35 78.5q0 41 -29.5 66.5t-93.5 25.5h-84v147h71q46 0 80.5 20.5t34.5 63.5q0 80 -102 80q-48 0 -78 -23.5t-33 -68.5h-203q9 125 96.5 196.5t225.5 71.5z" />
    <glyph glyph-name="uni2155" unicode="&#x2155;" horiz-adv-x="1767" 
d="M258 1466h180v-854h-213v533h-174v170q42 0 66.5 1.5t55 10t46.5 24t27.5 44.5t11.5 71zM143 0l969 1434h272l-968 -1434h-273zM1116 823h557v-180h-370l-19 -154q60 48 160 48q123 0 196.5 -76.5t73.5 -200.5q0 -74 -28 -131.5t-76 -91.5t-106 -51t-122 -17
q-144 0 -232.5 67.5t-100.5 192.5h215q14 -86 118 -86q51 0 88 32t37 87q0 52 -33 85.5t-88 33.5q-84 0 -118 -72h-215z" />
    <glyph glyph-name="uni2156" unicode="&#x2156;" horiz-adv-x="1992" 
d="M389 1464q60 0 113 -14t97.5 -43t70.5 -79.5t26 -117.5q0 -51 -16.5 -92t-52.5 -75.5t-65 -54.5t-83 -52q-44 -27 -68.5 -43t-54.5 -44.5t-45 -57.5h396v-179h-654v68q-1 64 16.5 119.5t42.5 92.5t66 72.5t72.5 55.5t77.5 45q98 51 125 75q34 31 34 66q0 40 -27 61
t-73 21q-107 0 -121 -125h-215q12 139 101 220t237 81zM371 0l968 1434h273l-969 -1434h-272zM1341 823h557v-180h-370l-19 -154q60 48 160 48q123 0 196.5 -76.5t73.5 -200.5q0 -74 -28 -131.5t-75.5 -91.5t-105.5 -51t-122 -17q-144 0 -233 67.5t-101 192.5h215
q14 -86 119 -86q51 0 88 32t37 87q0 52 -33 85.5t-88 33.5q-85 0 -119 -72h-215z" />
    <glyph glyph-name="uni2157" unicode="&#x2157;" horiz-adv-x="2017" 
d="M397 1466q138 0 223 -61.5t85 -169.5q0 -59 -29.5 -106t-81.5 -70q64 -22 100.5 -71.5t36.5 -117.5q0 -85 -50 -145t-124.5 -86.5t-163.5 -26.5q-148 0 -240.5 77.5t-99.5 215.5h205q4 -57 41 -88t94 -31q49 0 84 22.5t35 78.5q0 41 -29.5 66.5t-93.5 25.5h-84v147h72
q46 0 80.5 20.5t34.5 63.5q0 80 -103 80q-48 0 -77.5 -23.5t-32.5 -68.5h-203q9 125 96 196.5t225 71.5zM393 0l969 1434h272l-968 -1434h-273zM1366 823h557v-180h-371l-18 -154q60 48 160 48q123 0 196.5 -76.5t73.5 -200.5q0 -74 -28 -131.5t-76 -91.5t-106 -51t-122 -17
q-144 0 -233 67.5t-101 192.5h215q14 -86 119 -86q51 0 88 32t37 87q0 52 -33 85.5t-88 33.5q-84 0 -118 -72h-215z" />
    <glyph glyph-name="uni2158" unicode="&#x2158;" horiz-adv-x="2050" 
d="M250 952h184v293zM37 772v131l354 561h256v-512h107v-180h-107v-158h-213v158h-397zM426 0l969 1434h272l-969 -1434h-272zM1399 823h557v-180h-371l-18 -154q60 48 159 48q124 0 197.5 -76.5t73.5 -200.5q0 -74 -28 -131.5t-76 -91.5t-106 -51t-122 -17
q-144 0 -233 67.5t-101 192.5h215q14 -86 119 -86q51 0 88 32t37 87q0 52 -33 85.5t-88 33.5q-85 0 -119 -72h-215z" />
    <glyph glyph-name="uni2159" unicode="&#x2159;" horiz-adv-x="1771" 
d="M1399 385q-49 0 -85 -33t-36 -86q0 -56 34.5 -86t84.5 -30q51 0 83.5 31.5t32.5 86.5q0 52 -31 84.5t-83 32.5zM1436 526q130 0 206 -73.5t76 -198.5q0 -119 -82 -202t-233 -83q-171 0 -261.5 106t-90.5 292q0 206 92 331t266 125q131 0 211 -65.5t100 -192.5h-200
q-22 80 -111 80q-66 0 -101 -52.5t-38 -127.5q67 61 166 61zM258 1466h180v-854h-213v533h-174v170q42 0 66.5 1.5t55 10t46.5 24t27.5 44.5t11.5 71zM143 0l969 1434h272l-968 -1434h-273z" />
    <glyph glyph-name="uni215A" unicode="&#x215a;" horiz-adv-x="2009" 
d="M1636 385q-49 0 -84.5 -32.5t-35.5 -86.5q0 -56 34 -86t84 -30q51 0 84 31.5t33 86.5q0 52 -31.5 84.5t-83.5 32.5zM1673 526q130 0 206.5 -73.5t76.5 -198.5q0 -119 -82.5 -202t-233.5 -83q-171 0 -261.5 106t-90.5 292q0 206 92.5 331t266.5 125q131 0 211 -65.5
t100 -192.5h-201q-22 80 -110 80q-66 0 -101.5 -52.5t-38.5 -127.5q67 61 166 61zM119 1466h557v-180h-371l-18 -153q58 47 159 47q124 0 197.5 -76.5t73.5 -200.5q0 -74 -28 -131.5t-76 -91.5t-106 -51t-122 -17q-144 0 -233 67.5t-101 192.5h215q14 -86 119 -86
q51 0 88 32t37 87q0 52 -33 85.5t-88 33.5q-85 0 -119 -72h-215zM381 0l969 1434h272l-969 -1434h-272z" />
    <glyph glyph-name="oneeighth" unicode="&#x215b;" horiz-adv-x="1816" 
d="M1405 653q-19 0 -37 -3.5t-37 -12t-30 -26t-11 -42.5q0 -34 27 -58t88 -24q62 0 89.5 24t27.5 58q0 46 -35 65t-82 19zM1405 137q18 0 38 4t44 14t39.5 32t15.5 53q0 51 -43 76.5t-94 25.5q-49 0 -91 -26t-42 -76q0 -31 15.5 -53t38.5 -32t42.5 -14t36.5 -4zM1405 823
q151 0 239.5 -62t88.5 -171q0 -56 -30 -99.5t-85 -66.5q66 -25 105.5 -80.5t39.5 -126.5q0 -61 -28 -108t-67.5 -72.5t-92 -41.5t-93 -21t-77.5 -5q-42 0 -84 5t-93 21.5t-89 42.5t-64 72.5t-26 106.5q0 72 39.5 127t107.5 80q-55 24 -86 67t-31 99q0 109 88.5 171t237.5 62
zM258 1466h180v-854h-213v533h-174v170q42 0 66.5 1.5t55 10t46.5 24t27.5 44.5t11.5 71zM143 0l969 1434h272l-968 -1434h-273z" />
    <glyph glyph-name="threeeighths" unicode="&#x215c;" horiz-adv-x="2066" 
d="M1655 653q-19 0 -37 -3.5t-37 -12t-30 -26t-11 -42.5q0 -34 27 -58t88 -24q62 0 89.5 24t27.5 58q0 46 -35 65t-82 19zM1655 137q18 0 38 4t44 14t39.5 32t15.5 53q0 51 -43 76.5t-94 25.5q-49 0 -91 -26t-42 -76q0 -31 15.5 -53t38.5 -32t42.5 -14t36.5 -4zM1655 823
q151 0 239 -62t88 -171q0 -57 -30 -100t-84 -66q66 -25 105.5 -80.5t39.5 -126.5q0 -61 -28 -108t-67.5 -72.5t-92 -41.5t-93 -21t-77.5 -5q-42 0 -84 5t-93 21.5t-89.5 42.5t-64.5 72.5t-26 106.5q0 71 40 126.5t108 80.5q-55 24 -86 67t-31 99q0 109 88.5 171t237.5 62z
M397 1466q138 0 223 -61.5t85 -169.5q0 -59 -29.5 -106t-81.5 -70q64 -22 100.5 -71.5t36.5 -117.5q0 -85 -50 -145t-124.5 -86.5t-163.5 -26.5q-148 0 -240.5 77.5t-99.5 215.5h205q4 -57 41 -88t94 -31q49 0 84 22.5t35 78.5q0 41 -29.5 66.5t-93.5 25.5h-84v147h72
q46 0 80.5 20.5t34.5 63.5q0 80 -103 80q-48 0 -77.5 -23.5t-32.5 -68.5h-203q9 125 96 196.5t225 71.5zM393 0l969 1434h272l-968 -1434h-273z" />
    <glyph glyph-name="fiveeighths" unicode="&#x215d;" horiz-adv-x="2054" 
d="M1642 653q-44 0 -79 -18.5t-35 -65.5q0 -34 27 -58t87 -24q62 0 89.5 24t27.5 58q0 46 -35 65t-82 19zM1642 137q18 0 38 4t44.5 14t40 32t15.5 53q0 50 -43.5 76t-94.5 26q-49 0 -91 -26t-42 -76q0 -31 15.5 -53t38.5 -32t42.5 -14t36.5 -4zM1642 823q151 0 239.5 -62
t88.5 -171q0 -56 -30 -99.5t-85 -66.5q66 -25 106 -80.5t40 -126.5q0 -61 -28 -108t-68 -72.5t-92.5 -41.5t-93 -21t-77.5 -5q-42 0 -84 5t-93 21.5t-89 42.5t-64 72.5t-26 106.5q0 71 40 126.5t108 80.5q-55 24 -86 67t-31 99q0 109 88 171t237 62zM119 1466h557v-180h-371
l-18 -153q58 47 159 47q124 0 197.5 -76.5t73.5 -200.5q0 -74 -28 -131.5t-76 -91.5t-106 -51t-122 -17q-144 0 -233 67.5t-101 192.5h215q14 -86 119 -86q51 0 88 32t37 87q0 52 -33 85.5t-88 33.5q-85 0 -119 -72h-215zM381 0l969 1434h272l-969 -1434h-272z" />
    <glyph glyph-name="seveneighths" unicode="&#x215e;" horiz-adv-x="1878" 
d="M1466 653q-44 0 -79 -18.5t-35 -65.5q0 -34 27 -58t87 -24q62 0 89.5 24t27.5 58q0 46 -35 65t-82 19zM1466 137q18 0 38 4t44.5 14t40 32t15.5 53q0 50 -43.5 76t-94.5 26q-49 0 -91 -26t-42 -76q0 -31 15.5 -53t38.5 -32t42.5 -14t36.5 -4zM1466 823q151 0 239.5 -62
t88.5 -171q0 -56 -30 -99.5t-85 -66.5q66 -25 106 -80.5t40 -126.5q0 -61 -28 -108t-68 -72.5t-92.5 -41.5t-93 -21t-77.5 -5q-42 0 -84 5t-93 21.5t-89 42.5t-64 72.5t-26 106.5q0 72 39.5 127t107.5 80q-55 24 -85.5 67t-30.5 99q0 109 88 171t237 62zM37 1466h618v-161
q-123 -139 -185 -317t-62 -376h-224q0 164 66 351.5t174 322.5h-387v180zM207 0l969 1434h272l-969 -1434h-272z" />
    <glyph glyph-name="uni215F" unicode="&#x215f;" horiz-adv-x="997" 
d="M258 1466h180v-854h-213v533h-174v170q42 0 66.5 1.5t55 10t46.5 24t27.5 44.5t11.5 71zM1112 1434h272l-968 -1434h-273z" />
    <glyph glyph-name="uni2189" unicode="&#x2189;" horiz-adv-x="2033" 
d="M418 1282q-74 0 -112 -68t-38 -174q0 -108 38 -176.5t112 -68.5t111.5 68.5t37.5 176.5q0 107 -37.5 174.5t-111.5 67.5zM410 0l968 1434h273l-969 -1434h-272zM1649 823q138 0 222.5 -61.5t84.5 -169.5q0 -59 -29.5 -106t-81.5 -70q64 -22 100.5 -71.5t36.5 -117.5
q0 -85 -49.5 -145t-123.5 -86.5t-164 -26.5q-148 0 -240.5 77.5t-99.5 215.5h204q4 -57 41.5 -88t94.5 -31q118 0 118 101q0 41 -29.5 66.5t-93.5 25.5h-84v147h72q46 0 80.5 20.5t34.5 63.5q0 80 -103 80q-48 0 -77.5 -23.5t-32.5 -68.5h-203q9 125 96.5 196.5t225.5 71.5z
M418 1466q172 0 268 -118t96 -308q0 -191 -95.5 -309.5t-268.5 -118.5t-269 118.5t-96 309.5q0 190 95.5 308t269.5 118z" />
    <glyph glyph-name="arrowleft" unicode="&#x2190;" horiz-adv-x="1736" 
d="M20 717l719 719l213 -213l-354 -355h1044v-303h-1044l354 -354l-213 -213z" />
    <glyph glyph-name="arrowup" unicode="&#x2191;" horiz-adv-x="1480" 
d="M20 745l719 719l719 -719l-213 -213l-354 355v-1022h-303v1022l-355 -355z" />
    <glyph glyph-name="arrowright" unicode="&#x2192;" horiz-adv-x="1736" 
d="M782 1223l213 213l719 -719l-719 -719l-213 213l355 354h-1045v303h1045z" />
    <glyph glyph-name="arrowdown" unicode="&#x2193;" horiz-adv-x="1480" 
d="M233 901l355 -354v1022h303v-1022l354 354l213 -213l-719 -719l-719 719z" />
    <glyph glyph-name="arrowboth" unicode="&#x2194;" horiz-adv-x="2627" 
d="M1673 1223l213 213l719 -719l-719 -719l-213 213l355 354h-1430l354 -354l-213 -213l-719 719l719 719l213 -213l-354 -355h1430z" />
    <glyph glyph-name="arrowupdn" unicode="&#x2195;" horiz-adv-x="1480" 
d="M233 367l355 -355v1430l-355 -355l-213 213l719 719l719 -719l-213 -213l-354 355v-1430l354 355l213 -213l-719 -719l-719 719z" />
    <glyph glyph-name="uni2196" unicode="&#x2196;" horiz-adv-x="1423" 
d="M92 37v1018h1018v-303h-502l723 -723l-215 -213l-721 723v-502h-303z" />
    <glyph glyph-name="uni2197" unicode="&#x2197;" horiz-adv-x="1423" 
d="M313 752v303h1018v-1018h-303v502l-723 -723l-213 213l723 723h-502z" />
    <glyph glyph-name="uni2198" unicode="&#x2198;" horiz-adv-x="1423" 
d="M1028 516v502h303v-1018h-1018v303h502l-723 723l213 213z" />
    <glyph glyph-name="uni2199" unicode="&#x2199;" horiz-adv-x="1423" 
d="M92 0v1018h303v-502l723 723l213 -215l-723 -721h502v-303h-1018z" />
    <glyph glyph-name="uni21A9" unicode="&#x21a9;" horiz-adv-x="2158" 
d="M598 868h944q91 0 155 64t64 155t-64.5 156.5t-154.5 65.5h-135v301h135q142 0 262.5 -70t190 -190.5t69.5 -262.5q0 -106 -41 -203t-111 -167t-167 -111t-203 -41h-944l354 -354l-213 -213l-719 719l719 719l213 -213z" />
    <glyph glyph-name="uni21AA" unicode="&#x21aa;" horiz-adv-x="2160" 
d="M1559 565h-943q-106 0 -203 41t-167 111t-111 167t-41 203q0 142 69.5 262.5t190 190.5t262.5 70h136v-301h-136q-90 0 -154.5 -65.5t-64.5 -156.5t64 -155t155 -64h945l-357 355l215 213l719 -719l-719 -719l-215 213z" />
    <glyph glyph-name="arrowdblleft" unicode="&#x21d0;" horiz-adv-x="1785" 
d="M20 717l740 741l215 -215l-174 -172h891v-301h-1192l-51 -53l51 -51h1192v-301h-891l174 -175l-215 -213z" />
    <glyph glyph-name="arrowdblright" unicode="&#x21d2;" horiz-adv-x="1785" 
d="M809 1243l213 215l741 -741l-741 -740l-213 213l174 175h-891v301h1192l51 51l-51 53h-1192v301h891z" />
    <glyph glyph-name="arrowdblboth" unicode="&#x21d4;" horiz-adv-x="2750" 
d="M2302 717l-51 53h-1751l-51 -53l51 -51h1751zM1776 1243l213 215l739 -741l-739 -740l-213 213l172 175h-1147l174 -175l-215 -213l-740 740l740 741l215 -215l-174 -172h1147z" />
    <glyph glyph-name="partialdiff" unicode="&#x2202;" horiz-adv-x="1331" 
d="M639 737q-111 0 -171 -68t-60 -182q0 -108 58.5 -179.5t164.5 -71.5q107 0 168 68.5t75 178.5q2 100 -66 177t-169 77zM582 991q88 0 171.5 -33.5t139.5 -99.5q-33 129 -127 219.5t-215 131t-260 40.5l2 260q198 0 368.5 -54t299.5 -156t202.5 -262t73.5 -361
q0 -114 -20 -215t-66 -192t-114.5 -157t-172.5 -104.5t-233 -38.5q-154 0 -276 64t-192.5 185.5t-70.5 281.5q0 220 132 355.5t358 135.5z" />
    <glyph glyph-name="product" unicode="&#x220f;" horiz-adv-x="1519" 
d="M133 1434h1251v-1434h-344v1151h-563v-1151h-344v1434z" />
    <glyph glyph-name="summation" unicode="&#x2211;" horiz-adv-x="1476" 
d="M133 1434h1210v-281h-718l448 -436l-432 -436h702v-281h-1210v252l504 465l-504 465v252z" />
    <glyph glyph-name="minus" unicode="&#x2212;" horiz-adv-x="1050" 
d="M135 453v284h783v-284h-783z" />
    <glyph glyph-name="uni2215" unicode="&#x2215;" horiz-adv-x="1243" 
d="M969 1434h272l-969 -1434h-272z" />
    <glyph glyph-name="radical" unicode="&#x221a;" horiz-adv-x="1703" 
d="M1034 1841h649v-282h-397l-452 -1590h-390l-372 1243h358l211 -798z" />
    <glyph glyph-name="infinity" unicode="&#x221e;" horiz-adv-x="1974" 
d="M567 909q-78 0 -129 -57t-51 -135t51 -134.5t129 -56.5q45 0 85 15.5t75 47t58 58t55 70.5q-33 44 -55.5 70.5t-57.5 58.5t-75 47.5t-85 15.5zM1409 909q-46 0 -86 -15.5t-75.5 -48t-57.5 -58t-55 -70.5q33 -44 55 -70t57.5 -58t75.5 -47.5t86 -15.5q77 0 128.5 56.5
t51.5 134.5t-51.5 135t-128.5 57zM543 1159q255 0 444 -231q189 231 447 231q190 0 318 -124.5t128 -317.5q0 -192 -128.5 -317.5t-317.5 -125.5q-258 0 -447 234q-189 -234 -444 -234q-191 0 -320 125.5t-129 317.5q0 193 129 317.5t320 124.5z" />
    <glyph glyph-name="integral" unicode="&#x222b;" horiz-adv-x="956" 
d="M778 1464q73 0 135 -20v-264q-1 0 -15.5 3.5t-32 6t-36.5 2.5q-60 0 -94 -34t-41 -85l-119 -1155q-6 -67 -31.5 -123.5t-72 -102.5t-122 -72t-173.5 -26q-70 0 -135 21v264q42 -14 84 -14q59 0 92.5 35t38.5 84l119 1157q7 67 33 123t72.5 102t123 72t174.5 26z" />
    <glyph glyph-name="approxequal" unicode="&#x2248;" horiz-adv-x="1427" 
d="M500 823q-37 0 -62 -13t-38 -38t-18 -54t-5 -67h-242q0 67 10.5 128t35.5 118t63 98.5t95.5 66.5t129.5 25q58 0 115 -20t101 -49t84.5 -58t82 -49t78.5 -20q70 0 96.5 45.5t26.5 122.5h241q0 -65 -10.5 -125.5t-35 -117.5t-61.5 -98.5t-93.5 -67t-126.5 -25.5
q-55 0 -112 20.5t-103 49.5t-89 58t-85.5 49.5t-77.5 20.5zM500 299q-37 0 -62 -13t-38 -38t-18 -54t-5 -67h-242q0 67 10.5 128t35.5 118t63 98.5t95.5 66.5t129.5 25q58 0 115 -20t101 -49t84.5 -58t82 -49t78.5 -20q70 0 96.5 45.5t26.5 122.5h241q0 -66 -10.5 -126.5
t-35 -117.5t-61.5 -99t-93.5 -67t-126.5 -25q-55 0 -112 20.5t-103 50t-89 58.5t-85.5 49.5t-77.5 20.5z" />
    <glyph glyph-name="notequal" unicode="&#x2260;" horiz-adv-x="1300" 
d="M758 961l135 200h270l-135 -200h123v-261h-299l-131 -194h430v-262h-608l-135 -201h-273l135 201h-123v262h302l131 194h-433v261h611z" />
    <glyph glyph-name="lessequal" unicode="&#x2264;" horiz-adv-x="1165" 
d="M1030 1386v-294l-561 -224l561 -223v-295l-938 367v303zM1030 283v-283h-938v283h938z" />
    <glyph glyph-name="greaterequal" unicode="&#x2265;" horiz-adv-x="1185" 
d="M133 1386l938 -366v-303l-938 -367v295l559 223l-559 224v294zM133 283h938v-283h-938v283z" />
    <glyph glyph-name="uni2460" unicode="&#x2460;" horiz-adv-x="1579" 
d="M788 1264q-112 0 -213.5 -43.5t-174 -117.5t-115.5 -175t-43 -211q0 -112 43.5 -213.5t117 -174.5t174.5 -116t211 -43q150 0 276 74t198.5 200t72.5 273q0 150 -74 276t-200 198.5t-273 72.5zM745 1143h181v-852h-213v532h-174v170q41 0 66 2t55 10t46.5 23.5t27.5 44
t11 70.5zM788 1434q145 0 278 -57t229 -153t153 -229t57 -278t-57 -278t-153 -229t-229 -153t-278 -57t-278 57t-228.5 153t-152.5 228.5t-57 278.5t57 278.5t152.5 228.5t228.5 153t278 57z" />
    <glyph glyph-name="uni2461" unicode="&#x2461;" horiz-adv-x="1579" 
d="M788 1264q-112 0 -213.5 -43.5t-174 -117.5t-115.5 -175t-43 -211q0 -112 43.5 -213.5t117 -174.5t174.5 -116t211 -43q150 0 276 74t198.5 200t72.5 273q0 150 -74 276t-200 198.5t-273 72.5zM788 1434q145 0 278 -57t229 -153t153 -229t57 -278t-57 -278t-153 -229
t-229 -153t-278 -57t-278 57t-228.5 153t-152.5 228.5t-57 278.5t57 278.5t152.5 228.5t228.5 153t278 57zM805 1143q60 0 113 -14.5t97.5 -43.5t70.5 -79.5t26 -116.5q0 -51 -16.5 -92.5t-52.5 -75.5t-65.5 -54.5t-82.5 -52.5q-38 -23 -56 -35t-42.5 -35t-36.5 -48h360
v-179h-651v41q-1 64 16.5 119.5t42 92.5t65 72t72 55t76.5 44q97 53 122 73q40 34 40 71q0 39 -28 60.5t-72 21.5q-106 0 -123 -127h-213q12 140 101 221.5t237 81.5z" />
    <glyph glyph-name="uni2462" unicode="&#x2462;" horiz-adv-x="1579" 
d="M788 1264q-112 0 -213.5 -43.5t-174 -117.5t-115.5 -175t-43 -211q0 -112 43.5 -213.5t117 -174.5t174.5 -116t211 -43q150 0 276 74t198.5 200t72.5 273q0 150 -74 276t-200 198.5t-273 72.5zM788 1434q145 0 278 -57t229 -153t153 -229t57 -278t-57 -278t-153 -229
t-229 -153t-278 -57t-278 57t-228.5 153t-152.5 228.5t-57 278.5t57 278.5t152.5 228.5t228.5 153t278 57zM793 1143q140 0 223.5 -61t83.5 -171q0 -58 -29.5 -104.5t-81.5 -71.5q65 -20 101 -68.5t36 -117.5q0 -64 -28 -115t-76 -81.5t-106.5 -46t-124.5 -15.5
q-150 0 -242 77.5t-98 213.5h204q3 -56 39.5 -86.5t93.5 -30.5q121 0 121 100q0 41 -30.5 66.5t-94.5 25.5h-82v148h72q45 0 80 20.5t35 63.5q0 80 -105 80q-47 0 -76 -24.5t-32 -70.5h-203q9 125 96.5 197t223.5 72z" />
    <glyph glyph-name="uni2463" unicode="&#x2463;" horiz-adv-x="1579" 
d="M805 631v293l-184 -293h184zM788 1264q-112 0 -213.5 -43.5t-174 -117.5t-115.5 -175t-43 -211q0 -112 43.5 -213.5t117 -174.5t174.5 -116t211 -43q150 0 276 74t198.5 200t72.5 273q0 150 -74 276t-200 198.5t-273 72.5zM408 582l354 561h256v-512h104v-180h-104v-158
h-213v158h-397v131zM788 1434q145 0 278 -57t229 -153t153 -229t57 -278t-57 -278t-153 -229t-229 -153t-278 -57t-278 57t-228.5 153t-152.5 228.5t-57 278.5t57 278.5t152.5 228.5t228.5 153t278 57z" />
    <glyph glyph-name="uni2464" unicode="&#x2464;" horiz-adv-x="1579" 
d="M788 1264q-112 0 -213.5 -43.5t-174 -117.5t-115.5 -175t-43 -211q0 -112 43.5 -213.5t117 -174.5t174.5 -116t211 -43q150 0 276 74t198.5 200t72.5 273q0 150 -74 276t-200 198.5t-273 72.5zM788 1434q145 0 278 -57t229 -153t153 -229t57 -278t-57 -278t-153 -229
t-229 -153t-278 -57t-278 57t-228.5 153t-152.5 228.5t-57 278.5t57 278.5t152.5 228.5t228.5 153t278 57zM461 631l63 497h555v-178h-370l-17 -139q56 47 160 47q123 0 195.5 -76t72.5 -202q0 -73 -27.5 -130t-75 -91t-105 -51t-121.5 -17q-146 0 -234 67.5t-100 192.5h215
q14 -88 116 -88q52 0 88.5 32.5t36.5 88.5q0 52 -32 85t-86 33q-85 0 -121 -71h-213z" />
    <glyph glyph-name="uni2465" unicode="&#x2465;" horiz-adv-x="1579" 
d="M788 1264q-112 0 -213.5 -43.5t-174 -117.5t-115.5 -175t-43 -211q0 -112 43.5 -213.5t117 -174.5t174.5 -116t211 -43q150 0 276 74t198.5 200t72.5 273q0 150 -74 276t-200 198.5t-273 72.5zM801 705q-48 0 -83.5 -32t-35.5 -85q0 -56 34.5 -86.5t84.5 -30.5
q49 0 81.5 32t32.5 87q0 52 -30.5 83.5t-83.5 31.5zM788 1434q145 0 278 -57t229 -153t153 -229t57 -278t-57 -278t-153 -229t-229 -153t-278 -57t-278 57t-228.5 153t-152.5 228.5t-57 278.5t57 278.5t152.5 228.5t228.5 153t278 57zM840 848q129 0 204.5 -74t75.5 -199
q0 -119 -81 -201.5t-232 -82.5q-173 0 -262.5 105.5t-89.5 291.5q0 206 91 330.5t265 124.5q133 0 212 -65t99 -193h-198q-22 82 -111 82q-66 0 -101 -53t-38 -128q65 62 166 62z" />
    <glyph glyph-name="uni2466" unicode="&#x2466;" horiz-adv-x="1579" 
d="M788 1264q-112 0 -213.5 -43.5t-174 -117.5t-115.5 -175t-43 -211q0 -112 43.5 -213.5t117 -174.5t174.5 -116t211 -43q150 0 276 74t198.5 200t72.5 273q0 150 -74 276t-200 198.5t-273 72.5zM788 1434q145 0 278 -57t229 -153t153 -229t57 -278t-57 -278t-153 -229
t-229 -153t-278 -57t-278 57t-228.5 153t-152.5 228.5t-57 278.5t57 278.5t152.5 228.5t228.5 153t278 57zM479 1120h619v-137q-123 -139 -185.5 -316.5t-62.5 -375.5h-221q0 157 60.5 336.5t160.5 314.5h-371v178z" />
    <glyph glyph-name="uni2467" unicode="&#x2467;" horiz-adv-x="1579" 
d="M788 1264q-112 0 -213.5 -43.5t-174 -117.5t-115.5 -175t-43 -211q0 -112 43.5 -213.5t117 -174.5t174.5 -116t211 -43q150 0 276 74t198.5 200t72.5 273q0 150 -74 276t-200 198.5t-273 72.5zM788 459q18 0 37.5 4t43.5 13.5t39.5 31.5t15.5 53q0 50 -43 75.5t-93 25.5
t-92.5 -25.5t-42.5 -75.5q0 -31 15.5 -53t39 -31.5t43 -13.5t37.5 -4zM788 975q-42 0 -78 -19t-36 -65q0 -35 26 -58.5t88 -23.5t88.5 24t26.5 58q0 46 -34.5 65t-80.5 19zM788 1434q145 0 278 -57t229 -153t153 -229t57 -278t-57 -278t-153 -229t-229 -153t-278 -57
t-278 57t-228.5 153t-152.5 228.5t-57 278.5t57 278.5t152.5 228.5t228.5 153t278 57zM788 1143q151 0 238.5 -61.5t87.5 -170.5q0 -115 -115 -168q67 -25 107.5 -79t40.5 -125q0 -61 -28 -108t-68 -72.5t-92.5 -41.5t-93 -21t-77.5 -5q-42 0 -85 5t-94 21.5t-89 42.5
t-64 72.5t-26 106.5q0 71 40.5 125t107.5 79q-115 53 -115 168q0 109 87 170.5t238 61.5z" />
    <glyph glyph-name="uni2468" unicode="&#x2468;" horiz-adv-x="1579" 
d="M788 1264q-112 0 -213.5 -43.5t-174 -117.5t-115.5 -175t-43 -211q0 -112 43.5 -213.5t117 -174.5t174.5 -116t211 -43q150 0 276 74t198.5 200t72.5 273q0 150 -74 276t-200 198.5t-273 72.5zM797 963q-49 0 -83 -32t-34 -87q0 -51 31.5 -83t83.5 -32q50 0 85 32t35 85
q0 55 -34 86t-84 31zM788 1434q145 0 278 -57t229 -153t153 -229t57 -278t-57 -278t-153 -229t-229 -153t-278 -57t-278 57t-228.5 153t-152.5 228.5t-57 278.5t57 278.5t152.5 228.5t228.5 153t278 57zM791 1143q171 0 261.5 -106t90.5 -292q0 -205 -92 -329.5t-265 -124.5
q-269 0 -313 256h201q22 -80 110 -80q49 0 82 31.5t44.5 69t13.5 79.5q-62 -59 -166 -59q-129 0 -206 73t-77 197q0 119 82.5 202t233.5 83z" />
    <glyph glyph-name="uni24EA" unicode="&#x24ea;" horiz-adv-x="1579" 
d="M788 961q-74 0 -111.5 -68t-37.5 -176t37.5 -176t111.5 -68t112 68t38 176t-38 176t-112 68zM788 1143q173 0 269 -117.5t96 -308.5q0 -190 -96 -308t-269 -118q-172 0 -268 118t-96 308q0 192 95 309t269 117zM788 1434q145 0 278 -57t229 -153t153 -229t57 -278
t-57 -278t-153 -229t-229 -153t-278 -57t-278 57t-228.5 153t-152.5 228.5t-57 278.5t57 278.5t152.5 228.5t228.5 153t278 57zM788 1264q-112 0 -213.5 -43.5t-174 -117.5t-115.5 -175t-43 -211q0 -112 43.5 -213.5t117 -174.5t174.5 -116t211 -43q150 0 276 74t198.5 200
t72.5 273q0 150 -74 276t-200 198.5t-273 72.5z" />
    <glyph glyph-name="uni24FF" unicode="&#x24ff;" horiz-adv-x="1579" 
d="M788 1434q145 0 278 -57t229 -153t153 -229t57 -278t-57 -278t-153 -229t-229 -153t-278 -57t-278 57t-228.5 153t-152.5 228.5t-57 278.5t57 278.5t152.5 228.5t228.5 153t278 57zM788 1143q-174 0 -269 -117t-95 -309q0 -190 96 -308t268 -118q173 0 269 118t96 308
q0 191 -96 308.5t-269 117.5zM788 961q74 0 112 -68t38 -176t-38 -176t-112 -68t-111.5 68t-37.5 176t37.5 176t111.5 68z" />
    <glyph glyph-name="filledbox" unicode="&#x25a0;" horiz-adv-x="1699" 
d="M133 0v1434h1434v-1434h-1434z" />
    <glyph glyph-name="uni25A1" unicode="&#x25a1;" horiz-adv-x="1699" 
d="M133 0v1434h1434v-1434h-1434zM465 1102v-770h770v770h-770z" />
    <glyph glyph-name="triagup" unicode="&#x25b2;" horiz-adv-x="1617" 
d="M807 1440l788 -1440h-1575z" />
    <glyph glyph-name="uni25B3" unicode="&#x25b3;" horiz-adv-x="1611" 
d="M805 1450l784 -1450h-1569zM805 780l-246 -458h490z" />
    <glyph glyph-name="uni25B7" unicode="&#x25b7;" horiz-adv-x="1605" 
d="M133 1516l1450 -785l-1450 -784v1569zM455 975v-490l458 246z" />
    <glyph glyph-name="triagrt" unicode="&#x25ba;" horiz-adv-x="1605" 
d="M133 1516l1450 -785l-1450 -784v1569z" />
    <glyph glyph-name="triagdn" unicode="&#x25bc;" horiz-adv-x="1611" 
d="M20 1434h1569l-784 -1450z" />
    <glyph glyph-name="uni25BD" unicode="&#x25bd;" horiz-adv-x="1611" 
d="M20 1434h1569l-784 -1450zM559 1114l246 -459l244 459h-490z" />
    <glyph glyph-name="uni25C0" unicode="&#x25c0;" horiz-adv-x="1605" 
d="M1470 1516v-1569l-1450 784z" />
    <glyph glyph-name="uni25C1" unicode="&#x25c1;" horiz-adv-x="1605" 
d="M1470 1516v-1569l-1450 784zM692 731l459 -246v490z" />
    <glyph glyph-name="lozenge" unicode="&#x25ca;" horiz-adv-x="1331" 
d="M930 717l-264 459l-265 -459l265 -459zM72 717l436 747h315l434 -747l-434 -748h-315z" />
    <glyph glyph-name="circle" unicode="&#x25cb;" horiz-adv-x="1576" 
d="M788 1102q-160 0 -272.5 -112.5t-112.5 -272.5t112.5 -272.5t272.5 -112.5t273 112.5t113 272.5t-113 272.5t-273 112.5zM788 1434q145 0 278 -57t229 -153t153 -229t57 -278t-57 -278t-153 -229t-229 -153t-278 -57t-278 57t-228.5 153t-152.5 228.5t-57 278.5t57 278.5
t152.5 228.5t228.5 153t278 57z" />
    <glyph glyph-name="uni25CF" unicode="&#x25cf;" horiz-adv-x="1579" 
d="M788 0q-145 0 -278 57t-228.5 153t-152.5 228.5t-57 278.5t57 278.5t152.5 228.5t228.5 153t278 57t278 -57t229 -153t153 -229t57 -278t-57 -278t-153 -229t-229 -153t-278 -57z" />
    <glyph glyph-name="uni2776" unicode="&#x2776;" horiz-adv-x="1579" 
d="M926 1143h-181q0 -42 -11 -70.5t-27.5 -44t-46.5 -23.5t-55 -10t-66 -2v-170h174v-532h213v852zM788 1434q145 0 278 -57t229 -153t153 -229t57 -278t-57 -278t-153 -229t-229 -153t-278 -57t-278 57t-228.5 153t-152.5 228.5t-57 278.5t57 278.5t152.5 228.5t228.5 153
t278 57z" />
    <glyph glyph-name="uni2777" unicode="&#x2777;" horiz-adv-x="1579" 
d="M799 1143q-146 0 -236 -82t-102 -221h215q14 127 123 127q44 0 71 -21.5t27 -60.5q0 -27 -23 -52.5t-45 -39t-76 -43.5q-10 -6 -16 -9q-46 -24 -78 -44t-72.5 -55t-65 -72t-42 -92.5t-16.5 -119.5v-41h653v179h-360q11 25 35 48t42 35t56 35q53 32 82.5 52.5t65.5 54.5
t52.5 75.5t16.5 92.5q0 88 -45.5 147t-112 83t-149.5 24zM788 1434q145 0 278 -57t229 -153t153 -229t57 -278t-57 -278t-153 -229t-229 -153t-278 -57t-278 57t-228.5 153t-152.5 228.5t-57 278.5t57 278.5t152.5 228.5t228.5 153t278 57z" />
    <glyph glyph-name="uni2778" unicode="&#x2778;" horiz-adv-x="1579" 
d="M791 291q66 0 124.5 15.5t106.5 46t76 81.5t28 115q0 69 -36 117.5t-101 68.5q52 25 81.5 71.5t29.5 104.5q0 110 -83.5 171t-223.5 61q-136 0 -223.5 -72t-96.5 -197h203q3 46 32 70.5t76 24.5q105 0 105 -80q0 -43 -35 -63.5t-80 -20.5h-72v-148h82q64 0 94.5 -25.5
t30.5 -66.5q0 -100 -121 -100q-57 0 -93.5 30.5t-39.5 86.5h-204q6 -136 98 -213.5t242 -77.5zM788 1434q145 0 278 -57t229 -153t153 -229t57 -278t-57 -278t-153 -229t-229 -153t-278 -57t-278 57t-228.5 153t-152.5 228.5t-57 278.5t57 278.5t152.5 228.5t228.5 153
t278 57z" />
    <glyph glyph-name="uni2779" unicode="&#x2779;" horiz-adv-x="1579" 
d="M1016 1143h-254l-356 -561v-131h397v-158h213v158h106v180h-106v512zM618 631l185 293v-293h-185zM788 1434q145 0 278 -57t229 -153t153 -229t57 -278t-57 -278t-153 -229t-229 -153t-278 -57t-278 57t-228.5 153t-152.5 228.5t-57 278.5t57 278.5t152.5 228.5
t228.5 153t278 57z" />
    <glyph glyph-name="uni277A" unicode="&#x277a;" horiz-adv-x="1579" 
d="M1079 1128h-555l-63 -497h213q36 71 121 71q54 0 86 -33t32 -85q0 -56 -36.5 -88.5t-88.5 -32.5q-102 0 -116 88h-215q12 -125 100 -192.5t234 -67.5q64 0 121.5 17t105 51t75 91t27.5 130q0 126 -72.5 202t-195.5 76q-104 0 -160 -47l17 139h370v178zM788 1434
q145 0 278 -57t229 -153t153 -229t57 -278t-57 -278t-153 -229t-229 -153t-278 -57t-278 57t-228.5 153t-152.5 228.5t-57 278.5t57 278.5t152.5 228.5t228.5 153t278 57z" />
    <glyph glyph-name="uni277B" unicode="&#x277b;" horiz-adv-x="1579" 
d="M840 848q-101 0 -166 -62q3 75 38 128t101 53q89 0 111 -82h198q-20 128 -99 193t-212 65q-174 0 -265 -124.5t-91 -330.5q0 -186 89.5 -291.5t262.5 -105.5q151 0 232 82.5t81 201.5q0 125 -75.5 199t-204.5 74zM788 1434q145 0 278 -57t229 -153t153 -229t57 -278
t-57 -278t-153 -229t-229 -153t-278 -57t-278 57t-228.5 153t-152.5 228.5t-57 278.5t57 278.5t152.5 228.5t228.5 153t278 57zM801 471q-50 0 -84.5 30.5t-34.5 86.5q0 53 35.5 85t83.5 32q53 0 83.5 -31.5t30.5 -83.5q0 -55 -32.5 -87t-81.5 -32z" />
    <glyph glyph-name="uni277C" unicode="&#x277c;" horiz-adv-x="1579" 
d="M1098 983v137h-619v-178h371q-100 -135 -160.5 -314.5t-60.5 -336.5h221q0 198 62.5 375.5t185.5 316.5zM788 1434q145 0 278 -57t229 -153t153 -229t57 -278t-57 -278t-153 -229t-229 -153t-278 -57t-278 57t-228.5 153t-152.5 228.5t-57 278.5t57 278.5t152.5 228.5
t228.5 153t278 57z" />
    <glyph glyph-name="uni277D" unicode="&#x277d;" horiz-adv-x="1579" 
d="M788 1143q-151 0 -238 -61.5t-87 -170.5q0 -115 115 -168q-67 -25 -107.5 -79t-40.5 -125q0 -60 26 -106.5t64 -72.5t89 -42.5t94 -21.5t85 -5q37 0 77.5 5t93 21t92.5 41.5t68 72.5t28 108q0 71 -40.5 125t-107.5 79q115 53 115 168q0 109 -87.5 170.5t-238.5 61.5z
M788 1434q145 0 278 -57t229 -153t153 -229t57 -278t-57 -278t-153 -229t-229 -153t-278 -57t-278 57t-228.5 153t-152.5 228.5t-57 278.5t57 278.5t152.5 228.5t228.5 153t278 57zM788 975q46 0 80.5 -19t34.5 -65q0 -34 -26.5 -58t-88.5 -24t-88 23.5t-26 58.5
q0 47 35 65.5t79 18.5zM788 459q-18 0 -37.5 4t-43 13.5t-39 31.5t-15.5 53q0 50 42.5 75.5t92.5 25.5t93 -25.5t43 -75.5q0 -31 -15.5 -53t-39.5 -31.5t-43.5 -13.5t-37.5 -4z" />
    <glyph glyph-name="uni277E" unicode="&#x277e;" horiz-adv-x="1579" 
d="M791 1143q-151 0 -233.5 -83t-82.5 -202q0 -124 77 -197t206 -73q104 0 166 59q-2 -42 -13.5 -79.5t-44.5 -69t-82 -31.5q-88 0 -110 80h-201q44 -256 313 -256q173 0 265 124.5t92 329.5q0 186 -90.5 292t-261.5 106zM788 1434q145 0 278 -57t229 -153t153 -229t57 -278
t-57 -278t-153 -229t-229 -153t-278 -57t-278 57t-228.5 153t-152.5 228.5t-57 278.5t57 278.5t152.5 228.5t228.5 153t278 57zM797 963q50 0 84 -31t34 -86q0 -53 -35 -85t-85 -32q-52 0 -83.5 32t-31.5 83q0 55 34 87t83 32z" />
    <glyph glyph-name="uni27F5" unicode="&#x27f5;" horiz-adv-x="2471" 
d="M20 717l719 719l213 -213l-354 -355h1782v-303h-1782l354 -354l-213 -213z" />
    <glyph glyph-name="uni27F6" unicode="&#x27f6;" horiz-adv-x="2471" 
d="M1518 1223l213 213l720 -719l-720 -719l-213 213l354 354h-1780v303h1780z" />
    <glyph glyph-name="uni27F7" unicode="&#x27f7;" horiz-adv-x="3418" 
d="M20 717l719 719l213 -213l-354 -355h2220l-354 355l213 213l719 -719l-719 -719l-213 213l354 354h-2220l354 -354l-213 -213z" />
    <glyph glyph-name="uni27F8" unicode="&#x27f8;" horiz-adv-x="2537" 
d="M20 717l740 741l215 -215l-174 -172h1644v-301h-1945l-51 -53l51 -51h1945v-301h-1644l174 -175l-215 -213z" />
    <glyph glyph-name="uni27F9" unicode="&#x27f9;" horiz-adv-x="2539" 
d="M1563 1243l213 215l741 -741l-741 -740l-213 213l172 175h-1643v301h1946l51 51l-51 53h-1946v301h1643z" />
    <glyph glyph-name="uni27FA" unicode="&#x27fa;" horiz-adv-x="3600" 
d="M3152 717l-51 53h-2601l-51 -53l51 -51h2601zM2626 1243l213 215l739 -741l-739 -740l-213 213l172 175h-1997l174 -175l-215 -213l-740 740l740 741l215 -215l-174 -172h1997z" />
    <glyph glyph-name="uni2913" unicode="&#x2913;" horiz-adv-x="1624" 
d="M1423 0h-1224v303h1224v-303zM305 1317l354 -356v579h304v-577l354 354l213 -215l-719 -719l-719 719z" />
    <glyph glyph-name="zero.numr" horiz-adv-x="833" 
d="M416 1282q-74 0 -112 -68t-38 -174q0 -108 38 -176.5t112 -68.5t111.5 68.5t37.5 176.5q0 107 -37.5 174.5t-111.5 67.5zM416 1466q172 0 268 -118t96 -308q0 -191 -95.5 -309.5t-268.5 -118.5t-269 118.5t-96 309.5q0 190 95.5 308t269.5 118z" />
    <glyph glyph-name="five.numr" horiz-adv-x="770" 
d="M676 1466v-180h-371l-18 -153q58 47 159 47q124 0 197.5 -76.5t73.5 -200.5q0 -74 -28 -131.5t-76 -91.5t-106 -51t-122 -17q-144 0 -233 67.5t-101 192.5h215q14 -86 119 -86q51 0 88 32t37 87q0 52 -33 85.5t-88 33.5q-85 0 -119 -72h-215l64 514h557z" />
    <glyph glyph-name="six.numr" horiz-adv-x="774" 
d="M401 1028q-49 0 -84.5 -32.5t-35.5 -86.5q0 -56 34 -86t84 -30q51 0 84 31.5t33 86.5q0 52 -31.5 84.5t-83.5 32.5zM438 1169q130 0 206.5 -73.5t76.5 -198.5q0 -119 -82 -202t-233 -83q-171 0 -262 106.5t-91 291.5q0 206 92.5 331t266.5 125q131 0 211 -65.5
t100 -192.5h-201q-22 80 -110 80q-66 0 -101.5 -52.5t-38.5 -127.5q67 61 166 61z" />
    <glyph glyph-name="seven.numr" horiz-adv-x="698" 
d="M655 1466v-161q-123 -139 -185 -317t-62 -376h-224q0 164 66 351.5t174 322.5h-387v180h618z" />
    <glyph glyph-name="eight.numr" horiz-adv-x="819" 
d="M408 780q18 0 38 4t44 14t39.5 32t15.5 53q0 51 -43 76.5t-94 25.5q-50 0 -92 -26t-42 -76q0 -31 15.5 -53t39 -32t43 -14t36.5 -4zM408 1296q-19 0 -37 -3.5t-37 -12t-30 -26t-11 -42.5q0 -34 27 -58t88 -24q62 0 89 24t27 58q0 46 -34.5 65t-81.5 19zM408 1466
q151 0 239 -62t88 -171q0 -57 -30 -100t-84 -66q66 -25 105.5 -80.5t39.5 -126.5q0 -61 -28 -108t-67.5 -72.5t-92 -41.5t-93 -21t-77.5 -5q-42 0 -84 5t-93 21.5t-89.5 42.5t-64.5 72.5t-26 106.5q0 71 40 126.5t108 80.5q-55 24 -86 67t-31 99q0 109 88.5 171t237.5 62z
" />
    <glyph glyph-name="nine.numr" horiz-adv-x="774" 
d="M375 1282q-50 0 -83.5 -31.5t-33.5 -87.5q0 -51 31.5 -82.5t83.5 -31.5q49 0 85 32t36 84q0 56 -34.5 86.5t-84.5 30.5zM369 1464q171 0 261.5 -106.5t90.5 -292.5q0 -206 -91.5 -330.5t-264.5 -124.5q-133 0 -213.5 65t-100.5 193h201q22 -82 110 -82q37 0 65 17.5
t43 46.5t22 58t8 59q-60 -60 -164 -60q-129 0 -206 74t-77 197q0 119 82.5 202.5t233.5 83.5z" />
    <glyph glyph-name="one.numr" horiz-adv-x="532" 
d="M258 1466h180v-854h-213v533h-174v170q42 0 66.5 1.5t55 10t46.5 24t27.5 44.5t11.5 71z" />
    <glyph glyph-name="two.numr" horiz-adv-x="759" 
d="M389 1464q60 0 113 -14t97.5 -43t70.5 -79.5t26 -117.5q0 -51 -16.5 -92t-52.5 -75.5t-65 -54.5t-83 -52q-44 -27 -68.5 -43t-54.5 -44.5t-45 -57.5h396v-179h-654v68q-1 64 16.5 119.5t42.5 92.5t66 72.5t72.5 55.5t77.5 45q98 51 125 75q34 31 34 66q0 40 -27 61
t-73 21q-107 0 -121 -125h-215q12 139 101 220t237 81z" />
    <glyph glyph-name="three.numr" horiz-adv-x="782" 
d="M397 1466q138 0 223 -61.5t85 -169.5q0 -59 -29.5 -106t-81.5 -70q64 -22 100.5 -71.5t36.5 -117.5q0 -85 -50 -145t-124.5 -86.5t-163.5 -26.5q-148 0 -240.5 77.5t-99.5 215.5h205q4 -57 41 -88t94 -31q49 0 84 22.5t35 78.5q0 41 -29.5 66.5t-93.5 25.5h-84v147h72
q46 0 80.5 20.5t34.5 63.5q0 80 -103 80q-48 0 -77.5 -23.5t-32.5 -68.5h-203q9 125 96 196.5t225 71.5z" />
    <glyph glyph-name="four.numr" horiz-adv-x="794" 
d="M434 952v293l-184 -293h184zM37 903l354 561h256v-512h107v-180h-107v-158h-213v158h-397v131z" />
    <glyph glyph-name="dngb_check" horiz-adv-x="1613" 
d="M1307 1298l233 -233l-932 -932l-536 533l233 235l303 -301z" />
    <glyph glyph-name="dngb_ballotx" horiz-adv-x="1277" 
d="M639 950l332 332l233 -233l-332 -332l332 -334l-233 -233l-332 333l-334 -333l-233 233l334 334l-334 332l233 233z" />
    <glyph glyph-name="zero.dnom" horiz-adv-x="833" 
d="M416 639q-74 0 -112 -68t-38 -174q0 -108 38 -176.5t112 -68.5t111.5 68.5t37.5 176.5q0 107 -37.5 174.5t-111.5 67.5zM416 823q172 0 268 -118t96 -308q0 -191 -95.5 -309.5t-268.5 -118.5t-269 118.5t-96 309.5q0 190 95.5 308t269.5 118z" />
    <glyph glyph-name="one.dnom" horiz-adv-x="532" 
d="M258 823h180v-854h-213v533h-174v170q42 0 66.5 1.5t55 10t46.5 24t27.5 44.5t11.5 71z" />
    <glyph glyph-name="two.dnom" horiz-adv-x="759" 
d="M389 821q60 0 113 -14t97.5 -43t70.5 -79.5t26 -117.5q0 -51 -16.5 -92t-52.5 -75.5t-65 -54.5t-83 -52q-43 -26 -68 -43t-55 -45.5t-45 -57.5h396v-178h-654v68q-1 64 16.5 119.5t42.5 92.5t66 72.5t72.5 55.5t77.5 45q98 51 125 75q34 31 34 66q0 40 -27 61t-73 21
q-107 0 -121 -125h-215q12 139 101 220t237 81z" />
    <glyph glyph-name="three.dnom" horiz-adv-x="782" 
d="M397 823q138 0 223 -61.5t85 -169.5q0 -59 -29.5 -106t-81.5 -70q64 -22 100.5 -71.5t36.5 -117.5q0 -85 -50 -145t-124.5 -86.5t-163.5 -26.5q-148 0 -240.5 77.5t-99.5 215.5h205q4 -57 41 -88t94 -31q49 0 84 22.5t35 78.5q0 41 -29.5 66.5t-93.5 25.5h-84v147h72
q46 0 80.5 20.5t34.5 63.5q0 80 -103 80q-48 0 -77.5 -23.5t-32.5 -68.5h-203q9 125 96 196.5t225 71.5z" />
    <glyph glyph-name="four.dnom" horiz-adv-x="794" 
d="M434 307v293l-184 -293h184zM37 258l354 561h256v-512h107v-180h-107v-158h-213v158h-397v131z" />
    <glyph glyph-name="five.dnom" horiz-adv-x="770" 
d="M676 823v-180h-371l-18 -154q60 48 159 48q124 0 197.5 -76.5t73.5 -200.5q0 -74 -28 -131.5t-76 -91.5t-106 -51t-122 -17q-144 0 -233 67.5t-101 192.5h215q14 -86 119 -86q51 0 88 32t37 87q0 52 -33 85.5t-88 33.5q-85 0 -119 -72h-215l64 514h557z" />
    <glyph glyph-name="six.dnom" horiz-adv-x="774" 
d="M401 385q-49 0 -84.5 -32.5t-35.5 -86.5q0 -56 34 -86t84 -30q51 0 84 31.5t33 86.5q0 52 -31.5 84.5t-83.5 32.5zM438 526q130 0 206.5 -73.5t76.5 -198.5q0 -119 -82 -202t-233 -83q-171 0 -262 106.5t-91 291.5q0 206 92.5 331t266.5 125q131 0 211 -65.5t100 -192.5
h-201q-22 80 -110 80q-66 0 -101.5 -52.5t-38.5 -127.5q67 61 166 61z" />
    <glyph glyph-name="seven.dnom" horiz-adv-x="698" 
d="M655 823v-161q-123 -139 -185 -317t-62 -376h-224q0 164 66 351.5t174 322.5h-387v180h618z" />
    <glyph glyph-name="eight.dnom" horiz-adv-x="819" 
d="M408 137q18 0 38 4t44 14t39.5 32t15.5 53q0 51 -43 76.5t-94 25.5q-50 0 -92 -26t-42 -76q0 -31 15.5 -53t39 -32t43 -14t36.5 -4zM408 653q-19 0 -37 -3.5t-37 -12t-30 -26t-11 -42.5q0 -34 27 -58t88 -24q62 0 89 24t27 58q0 46 -34.5 65t-81.5 19zM408 823
q151 0 239 -62t88 -171q0 -57 -30 -100t-84 -66q66 -25 105.5 -80.5t39.5 -126.5q0 -61 -28 -108t-67.5 -72.5t-92 -41.5t-93 -21t-77.5 -5q-42 0 -84 5t-93 21.5t-89.5 42.5t-64.5 72.5t-26 106.5q0 71 40 126.5t108 80.5q-55 24 -86 67t-31 99q0 109 88.5 171t237.5 62z
" />
    <glyph glyph-name="nine.dnom" horiz-adv-x="774" 
d="M375 641q-50 0 -83.5 -31.5t-33.5 -87.5q0 -51 31.5 -82.5t83.5 -31.5q49 0 85 32t36 84q0 56 -34.5 86.5t-84.5 30.5zM369 823q171 0 261.5 -106.5t90.5 -292.5q0 -206 -91.5 -330.5t-264.5 -124.5q-133 0 -213.5 65t-100.5 193h201q22 -82 110 -82q37 0 65 17.5
t43 46.5t22 58t8 59q-60 -60 -164 -60q-129 0 -206 74t-77 197q0 119 82.5 202.5t233.5 83.5z" />
    <glyph glyph-name="leftLongArrow2" horiz-adv-x="5134" 
d="M20 717l719 719l213 -213l-354 -355h4442v-303h-4442l354 -354l-213 -213z" />
    <glyph glyph-name="rightLongArrow2" horiz-adv-x="5134" 
d="M4178 1223l215 213l719 -719l-719 -719l-215 213l354 354h-4440v303h4440z" />
    <glyph glyph-name="uni2197.case" horiz-adv-x="1423" 
d="M313 752v303h1018v-1018h-303v502l-723 -723l-213 213l723 723h-502z" />
    <glyph glyph-name="uni2198.case" horiz-adv-x="1423" 
d="M1028 516v502h303v-1018h-1018v303h502l-723 723l213 213z" />
    <glyph glyph-name="uni2199.case" horiz-adv-x="1423" 
d="M92 0v1018h303v-502l723 723l213 -215l-723 -721h502v-303h-1018z" />
    <glyph glyph-name="uni2196.case" horiz-adv-x="1423" 
d="M92 37v1018h1018v-303h-502l723 -723l-215 -213l-721 723v-502h-303z" />
    </font>
</defs>
</svg>
