<?xml version="1.0" standalone="no"?>
<!DOCTYPE svg PUBLIC "-//W3C//DTD SVG 1.1//EN" "http://www.w3.org/Graphics/SVG/1.1/DTD/svg11.dtd" >
<svg xmlns="http://www.w3.org/2000/svg" xmlns:xlink="http://www.w3.org/1999/xlink" version="1.1">
<metadata>
Created by FontForge 20201107 at Mon Aug 18 22:31:00 2025
 By 
Copyright (c) 2025 by Khairunnas for Zelowtype. All rights reserved.
</metadata>
<defs>
<font id="ZTNature-Black" horiz-adv-x="617" >
  <font-face 
    font-family="ZT Nature Black"
    font-weight="900"
    font-stretch="normal"
    units-per-em="1000"
    panose-1="0 0 0 0 0 0 0 0 0 0"
    ascent="800"
    descent="-200"
    x-height="515"
    cap-height="700"
    bbox="-200 -383 2508 1122"
    underline-thickness="90"
    underline-position="-235"
    unicode-range="U+000A-2913"
  />
<missing-glyph horiz-adv-x="492" 
d="M81 700h331v-700h-331v700zM116 35h261v630h-261v-630zM159 235q0 -32 19 -56.5t54 -24.5q32 0 53 22t21 54l-18 10q-7 4 -16 -1l-4 -4q-9 -7 -18 0l-2 2q-4 3 -9 3.5t-9 -2.5l-3 -3q-9 -8 -18 1l-5 5q-9 7 -18 1l-10 -8q-9 -5 -17 1zM305 170q-13 -17 -32.5 -27
t-42.5 -10q-39 0 -66.5 27.5t-27.5 66.5q0 20 7.5 37t20 29.5t30 20t36.5 7.5q25 0 48 -13l19 23q4 4 7 0q5 -3 1 -7l-18 -22q26 -20 35 -52l29 3q6 0 6 -5t-5 -5l-29 -3q1 -3 1 -6.5v-6.5q0 -25 -13 -48l24 -20q4 -2 1 -7q-3 -3 -8 -1zM159 466q0 -32 19 -56.5t54 -24.5
q32 0 53 22t21 54l-18 10q-7 4 -16 -1l-4 -4q-9 -8 -18 1l-2 1q-9 9 -18 1l-3 -3q-9 -8 -18 1l-5 5q-9 7 -18 1l-10 -7q-8 -7 -17 0zM305 401q-13 -17 -32.5 -27t-42.5 -10q-19 0 -36.5 7.5t-30 20t-20 30t-7.5 36.5q0 20 7.5 37t20 29.5t30 20t36.5 7.5q25 0 48 -13l19 23
q3 3 7 1q4 -4 1 -8l-18 -22q26 -20 35 -52l29 3q6 0 6 -5t-5 -5l-29 -3q1 -3 1 -6.5v-6.5q0 -25 -13 -48l24 -19q3 -3 1 -8q-3 -3 -8 0z" />
    <glyph glyph-name=".notdef" horiz-adv-x="492" 
d="M81 700h331v-700h-331v700zM116 35h261v630h-261v-630zM159 235q0 -32 19 -56.5t54 -24.5q32 0 53 22t21 54l-18 10q-7 4 -16 -1l-4 -4q-9 -7 -18 0l-2 2q-4 3 -9 3.5t-9 -2.5l-3 -3q-9 -8 -18 1l-5 5q-9 7 -18 1l-10 -8q-9 -5 -17 1zM305 170q-13 -17 -32.5 -27
t-42.5 -10q-39 0 -66.5 27.5t-27.5 66.5q0 20 7.5 37t20 29.5t30 20t36.5 7.5q25 0 48 -13l19 23q4 4 7 0q5 -3 1 -7l-18 -22q26 -20 35 -52l29 3q6 0 6 -5t-5 -5l-29 -3q1 -3 1 -6.5v-6.5q0 -25 -13 -48l24 -20q4 -2 1 -7q-3 -3 -8 -1zM159 466q0 -32 19 -56.5t54 -24.5
q32 0 53 22t21 54l-18 10q-7 4 -16 -1l-4 -4q-9 -8 -18 1l-2 1q-9 9 -18 1l-3 -3q-9 -8 -18 1l-5 5q-9 7 -18 1l-10 -7q-8 -7 -17 0zM305 401q-13 -17 -32.5 -27t-42.5 -10q-19 0 -36.5 7.5t-30 20t-20 30t-7.5 36.5q0 20 7.5 37t20 29.5t30 20t36.5 7.5q25 0 48 -13l19 23
q3 3 7 1q4 -4 1 -8l-18 -22q26 -20 35 -52l29 3q6 0 6 -5t-5 -5l-29 -3q1 -3 1 -6.5v-6.5q0 -25 -13 -48l24 -19q3 -3 1 -8q-3 -3 -8 0z" />
    <glyph glyph-name=".null" horiz-adv-x="333" 
 />
    <glyph glyph-name=".null" horiz-adv-x="333" 
 />
    <glyph glyph-name="uni000D" unicode="&#xd;" horiz-adv-x="600" 
 />
    <glyph glyph-name="uni000A" unicode="&#xa;" horiz-adv-x="333" 
 />
    <glyph glyph-name="space" unicode=" " horiz-adv-x="209" 
 />
    <glyph glyph-name="exclam" unicode="!" horiz-adv-x="343" 
d="M282 715v-151q0 -3 -2 -28.5t-5.5 -62.5t-6.5 -79.5t-6.5 -79t-5.5 -62.5t-2 -30h-166q0 4 -2 30t-5.5 62.5t-6.5 79t-6.5 79.5t-5.5 62.5t-2 28.5v151h222zM270 192v-192h-198v192h198z" />
    <glyph glyph-name="quotedbl" unicode="&#x22;" horiz-adv-x="569" 
d="M257 700v-338h-172l-25 338h197zM508 700l-26 -338h-171v338h197z" />
    <glyph glyph-name="numbersign" unicode="#" horiz-adv-x="847" 
d="M711 700l-15 -127h91v-159h-111l-17 -128h103v-159h-122l-16 -127h-190l16 127h-109l-16 -127h-190l16 127h-91v159h111l16 128h-103v159h123l16 127h190l-16 -127h109l15 127h190zM351 286h128l17 128h-128z" />
    <glyph glyph-name="dollar" unicode="$" horiz-adv-x="710" 
d="M349 715q64 0 118 -14.5t95 -44.5t66.5 -76.5t31.5 -110.5h-214q-12 73 -97 73q-24 0 -45.5 -9.5t-21.5 -37.5q0 -17 14 -28t33 -18.5t39 -11t33 -5.5q48 -8 96 -21t86.5 -37.5t62 -63.5t23.5 -99q0 -65 -27.5 -108.5t-71.5 -69.5t-99 -37t-111 -11q-64 0 -119.5 14.5
t-98 47t-69.5 83t-33 122.5h214q11 -95 114 -95q12 0 24.5 2t23.5 7t18 14t7 24q0 19 -14.5 30.5t-34 19t-40.5 11.5t-35 7q-49 9 -96 22t-84 36.5t-59.5 62t-22.5 99.5t26 103.5t67.5 69t94 38.5t106.5 12zM439 805l-12 -184h-146l-12 184h170zM427 77l12 -184h-170l12 184
h146z" />
    <glyph glyph-name="percent" unicode="%" horiz-adv-x="975" 
d="M805 700l-474 -700h-162l474 700h162zM227 606q-27 0 -42.5 -26t-15.5 -73t15.5 -72.5t42.5 -25.5t42 25.5t15 72.5t-15 73t-42 26zM227 716q87 0 137 -56t50 -153t-50 -152.5t-137 -55.5t-137 55.5t-50 152.5t50 153t137 56zM747 292q-27 0 -42 -26t-15 -73
q0 -46 15 -72t42 -26t42.5 26t15.5 72q0 47 -15.5 73t-42.5 26zM747 402q87 0 137 -56t50 -153t-50 -152.5t-137 -55.5t-136.5 55.5t-49.5 152.5t49.5 153t136.5 56z" />
    <glyph glyph-name="ampersand" unicode="&#x26;" horiz-adv-x="776" 
d="M361 716q47 0 88 -10.5t72.5 -32t49.5 -55.5t18 -81q0 -33 -13 -63t-33.5 -55.5t-45.5 -46t-48 -34.5l306 -338h-255l-314 361q-33 40 -52 79t-19 83q0 53 22 89.5t57 59.5t79 33.5t88 10.5zM357 568q-21 0 -31.5 -13t-10.5 -33q0 -22 9 -39t22 -31q20 16 35.5 34.5
t15.5 39.5t-11 31.5t-29 10.5zM323 158q18 0 37 8.5t38.5 21t38.5 28t35 30.5l103 -142q-39 -29 -73 -51.5t-67.5 -37.5t-70 -22.5t-81.5 -7.5q-54 0 -98.5 13t-76.5 39t-50 64t-18 88q0 66 37.5 114.5t97.5 83.5l123 -122q-14 -10 -25 -23t-11 -30q0 -27 17 -40.5t44 -13.5
zM713 228l-179 -144l-98 122l277 228v-206z" />
    <glyph glyph-name="quotesingle" unicode="'" horiz-adv-x="343" 
d="M283 700l-25 -338h-172l-25 338h222z" />
    <glyph glyph-name="parenleft" unicode="(" horiz-adv-x="406" 
d="M345 763q-27 -51 -48.5 -107t-36.5 -114.5t-22.5 -118.5t-7.5 -117t7.5 -117t22.5 -118.5t36.5 -114.5t48.5 -107h-158q-71 100 -114 218t-43 239t43 239t114 218h158z" />
    <glyph glyph-name="parenright" unicode=")" horiz-adv-x="406" 
d="M219 763q71 -100 114 -218t43 -239t-43 -239t-114 -218h-158q27 51 48.5 107t36.5 114.5t22.5 118.5t7.5 117t-7.5 117t-22.5 118.5t-36.5 114.5t-48.5 107h158z" />
    <glyph glyph-name="asterisk" unicode="*" horiz-adv-x="508" 
d="M419 633l-64 -93l112 8v-134l-111 11l61 -95l-114 -66l-51 101l-47 -101l-116 68l64 93l-113 -9l1 134l111 -10l-61 94l114 66l51 -101l47 101z" />
    <glyph glyph-name="plus" unicode="+" horiz-adv-x="655" 
d="M419 557v-180h175v-176h-175v-180h-182v180h-176v176h176v180h182z" />
    <glyph glyph-name="comma" unicode="," horiz-adv-x="319" 
d="M258 192v-132q0 -49 -15.5 -89t-43.5 -70t-68 -49t-88 -25l-25 67q114 26 129 106h-87v192h198z" />
    <glyph glyph-name="hyphen" unicode="-" horiz-adv-x="526" 
d="M61 374h405v-170h-405v170z" />
    <glyph glyph-name="period" unicode="." horiz-adv-x="319" 
d="M60 192h198v-192h-198v192z" />
    <glyph glyph-name="slash" unicode="/" horiz-adv-x="540" 
d="M539 807l-320 -914h-219l320 914h219z" />
    <glyph glyph-name="zero" unicode="0" horiz-adv-x="713" 
d="M356 536q-49 0 -80.5 -46t-31.5 -140t31.5 -140t80.5 -46q50 0 81.5 46t31.5 140t-31.5 140t-81.5 46zM356 715q84 0 145.5 -29t102 -78.5t60 -116t19.5 -141.5t-19.5 -141.5t-60 -116t-102 -78.5t-145.5 -29t-145 29t-101.5 78.5t-60 116t-19.5 141.5t19.5 141.5t60 116
t101.5 78.5t145 29z" />
    <glyph glyph-name="one" unicode="1" horiz-adv-x="466" 
d="M386 700v-700h-214v407h-142v167h44q69 0 101.5 36t32.5 90h178z" />
    <glyph glyph-name="two" unicode="2" horiz-adv-x="645" 
d="M332 715q53 0 102.5 -12.5t87.5 -39.5t61 -68.5t23 -100.5q0 -75 -39.5 -125t-113.5 -86q-21 -10 -45.5 -23t-48 -27.5t-44 -29t-32.5 -29.5h332v-174h-583v63q0 64 17.5 111.5t48 84.5t73 65.5t91.5 54.5q28 15 52.5 28t43 26t29 27.5t10.5 31.5q0 26 -19 38.5t-48 12.5
q-38 0 -60.5 -24.5t-25.5 -61.5h-214q5 64 29.5 112.5t64 80.5t92.5 48.5t116 16.5z" />
    <glyph glyph-name="three" unicode="3" horiz-adv-x="672" 
d="M341 727q55 0 105 -12t88.5 -37.5t61.5 -64t23 -92.5q0 -56 -29.5 -96t-77.5 -57q61 -14 95 -55t34 -104q0 -59 -26.5 -101.5t-69.5 -69.5t-97.5 -40t-110.5 -13q-73 0 -129.5 20.5t-95.5 56.5t-59.5 85t-22.5 106h206q0 -21 7.5 -38.5t21 -30.5t31.5 -20.5t39 -7.5
q38 0 61 18t23 54q0 32 -21.5 48.5t-69.5 16.5h-71v140h57q14 0 29.5 3t29.5 9.5t23 18t9 28.5q0 28 -17.5 45t-56.5 17q-38 0 -58 -20.5t-23 -51.5h-201q3 55 24.5 100t59 77.5t90 50t118.5 17.5z" />
    <glyph glyph-name="four" unicode="4" horiz-adv-x="704" 
d="M590 700v-403h83v-177h-83v-120h-214v120h-346v130l293 450h267zM261 297h115v187z" />
    <glyph glyph-name="five" unicode="5" horiz-adv-x="657" 
d="M592 527h-317l-13 -97q30 20 65.5 27t70.5 7q50 0 92 -15.5t72.5 -45t47.5 -72.5t17 -99q0 -66 -24.5 -113t-65.5 -77t-94 -43.5t-111 -13.5q-55 0 -107.5 12t-94 39.5t-68.5 72t-32 108.5h214q5 -28 24.5 -46.5t62.5 -18.5q36 0 63 21.5t27 61.5q0 38 -26 59.5t-63 21.5
q-25 0 -49.5 -12t-35.5 -36h-213l55 432h503v-173z" />
    <glyph glyph-name="six" unicode="6" horiz-adv-x="659" 
d="M340 307q-32 0 -53.5 -19t-21.5 -54t21.5 -53.5t53.5 -18.5t54 18.5t22 53.5t-22 54t-54 19zM384 454q50 0 94 -14t77 -42t52 -71t19 -102t-22.5 -104t-61 -75t-89 -45.5t-106.5 -15.5q-73 0 -131.5 21.5t-99.5 64.5t-63.5 108t-22.5 151q0 83 18.5 154t57.5 122.5
t99 80.5t142 29q116 0 189 -57.5t92 -169.5h-199q-8 27 -29.5 38.5t-51.5 11.5q-48 0 -72.5 -34.5t-26.5 -88.5q30 20 64.5 29t70.5 9z" />
    <glyph glyph-name="seven" unicode="7" horiz-adv-x="614" 
d="M583 542q-57 -60 -97 -120.5t-65 -125.5t-36.5 -138t-11.5 -158h-223q0 70 14.5 140t41.5 137.5t65.5 130.5t86.5 118h-328v174h553v-158z" />
    <glyph glyph-name="eight" unicode="8" horiz-adv-x="707" 
d="M353 158q16 0 33 3.5t31.5 11t24 21t9.5 32.5t-9.5 32t-24 21.5t-31.5 12t-33 3.5t-33 -3.5t-31.5 -12t-24 -21.5t-9.5 -32t9.5 -32.5t24 -21t31.5 -11t33 -3.5zM353 543q-14 0 -29.5 -2.5t-28 -9t-21 -17.5t-8.5 -29q0 -54 87 -54t87 54q0 18 -8 29t-21 17.5t-28.5 9
t-29.5 2.5zM353 715q54 0 107 -10t96 -33t69.5 -62t26.5 -96q0 -28 -8.5 -50.5t-23.5 -40.5t-34.5 -31t-40.5 -21q58 -17 94.5 -64t36.5 -110q0 -64 -31 -105t-78.5 -65t-104.5 -33t-109 -9q-53 0 -110 9t-104.5 33t-78 65t-30.5 105q0 63 36.5 110t94.5 64q-21 8 -40.5 21
t-34.5 31t-23.5 40.5t-8.5 50.5q0 57 27 96t69.5 62t96 33t106.5 10z" />
    <glyph glyph-name="nine" unicode="9" horiz-adv-x="659" 
d="M318 538q-32 0 -53.5 -18.5t-21.5 -53.5t21.5 -53.5t53.5 -18.5t53.5 18.5t21.5 53.5t-21.5 53.5t-53.5 18.5zM311 716q73 0 131.5 -21.5t100 -64.5t63.5 -108t22 -151q0 -83 -18.5 -154t-57.5 -122.5t-99 -80.5t-142 -29q-116 0 -188.5 57t-92.5 170h199
q8 -27 29.5 -38.5t51.5 -11.5q48 0 72.5 34t26.5 88q-30 -20 -64.5 -28.5t-70.5 -8.5q-50 0 -94 13.5t-77 42t-52 71.5t-19 101q0 59 22.5 104t61 75.5t89 46t106.5 15.5z" />
    <glyph glyph-name="colon" unicode=":" horiz-adv-x="319" 
d="M60 557h198v-192h-198v192zM60 192h198v-192h-198v192z" />
    <glyph glyph-name="semicolon" unicode=";" horiz-adv-x="319" 
d="M259 557v-192h-198v192h198zM259 192v-132q0 -49 -15.5 -89t-43.5 -70t-68 -49t-88 -25l-25 67q114 26 129 106h-87v192h198z" />
    <glyph glyph-name="less" unicode="&#x3c;" horiz-adv-x="561" 
d="M501 425l-244 -75l244 -75v-202l-460 192v170l460 192v-202z" />
    <glyph glyph-name="equal" unicode="=" horiz-adv-x="604" 
d="M61 480h482v-156h-482v156zM61 254h482v-156h-482v156z" />
    <glyph glyph-name="greater" unicode="&#x3e;" horiz-adv-x="561" 
d="M521 435v-170l-460 -192v202l244 75l-244 75v202z" />
    <glyph glyph-name="question" unicode="?" horiz-adv-x="628" 
d="M326 715q55 0 104 -10.5t86.5 -34.5t59.5 -62.5t22 -94.5q0 -49 -21 -78.5t-50.5 -50t-60 -37t-49.5 -39.5q-10 -11 -15.5 -25t-5.5 -32v-29h-180v20q0 65 16 102t39 60q17 17 35 28t33 21t24.5 21t9.5 29q0 22 -16.5 33t-40.5 11q-44 0 -61.5 -26.5t-18.5 -62.5h-206
q4 70 25.5 119t59.5 79.5t91 44.5t120 14zM405 192v-192h-198v192h198z" />
    <glyph glyph-name="at" unicode="@" horiz-adv-x="930" 
d="M456 386q-19 0 -32.5 -8t-22 -21t-12.5 -29t-4 -32t4.5 -32.5t13 -29.5t22 -21t31.5 -8q19 0 32 8.5t21.5 21.5t12 29t3.5 32t-4 32t-12 29t-21.5 21t-31.5 8zM427 506q26 0 50.5 -9t43.5 -27l6 31h124v-215q0 -28 9 -50t34 -22q17 0 28.5 7.5t18 19.5t9.5 28t3 32
q0 60 -21.5 112t-59.5 90.5t-88.5 61t-109.5 22.5q-58 0 -110 -20t-91 -56.5t-61.5 -87.5t-22.5 -112q0 -69 21 -123t61 -91t96.5 -56t127.5 -19q44 0 89 10.5t83 33.5v-139q-44 -18 -90.5 -26t-94.5 -8q-97 0 -178.5 27.5t-140 80.5t-91 129.5t-32.5 173.5q0 94 34 170
t92.5 129.5t137 82.5t167.5 29q87 0 163 -29.5t132.5 -82.5t89.5 -126t33 -160q0 -50 -12 -92.5t-37.5 -73.5t-65 -48.5t-94.5 -17.5q-31 0 -63.5 14t-55.5 45q-22 -30 -55 -44.5t-71 -14.5q-44 0 -78.5 18t-58.5 47t-36.5 67.5t-12.5 78.5q0 41 11.5 79t34 67t55.5 46.5
t77 17.5z" />
    <glyph glyph-name="A" unicode="A" horiz-adv-x="777" 
d="M522 700l244 -700h-236l-30 105h-224l-32 -105h-234l246 700h266zM325 273h126l-63 216z" />
    <glyph glyph-name="B" unicode="B" horiz-adv-x="692" 
d="M275 277v-121h94q44 0 65.5 14.5t21.5 46.5q0 20 -7 31.5t-18.5 18t-27.5 8.5t-34 2h-94zM275 544v-109h75q15 0 28.5 2t24 8t17 16.5t6.5 27.5q0 18 -6 29t-16.5 16.5t-24.5 7.5t-29 2h-75zM413 700q40 0 80 -9.5t72 -32t52 -59t20 -90.5q0 -51 -25 -89.5t-73 -57.5
q55 -17 89 -58t34 -110q0 -54 -18 -91.5t-49.5 -60t-73 -32.5t-89.5 -10h-371v700h352z" />
    <glyph glyph-name="C" unicode="C" horiz-adv-x="755" 
d="M380 715q75 0 136 -20.5t106 -59.5t71.5 -96t31.5 -131h-214q-3 27 -12 51t-25.5 42t-40 28t-53.5 10q-37 0 -62.5 -16.5t-41.5 -43.5t-23.5 -61t-7.5 -68t7.5 -68t23.5 -61t41.5 -43.5t62.5 -16.5q30 0 53.5 10t40 28t25.5 42t12 51h214q-5 -73 -31.5 -130.5
t-71.5 -96.5t-106 -59.5t-136 -20.5q-83 0 -148 27t-109.5 75.5t-68 115.5t-23.5 147t23.5 147t68 115.5t109.5 75.5t148 27z" />
    <glyph glyph-name="D" unicode="D" horiz-adv-x="741" 
d="M274 526v-352h53q96 0 136.5 46t40.5 130t-40.5 130t-136.5 46h-53zM333 700q83 0 152.5 -20.5t119.5 -63.5t77.5 -109t27.5 -157t-27.5 -157t-77.5 -109t-119.5 -63.5t-152.5 -20.5h-273v700h273z" />
    <glyph glyph-name="E" unicode="E" horiz-adv-x="615" 
d="M574 700v-174h-300v-87h281v-174h-281v-91h300v-174h-514v700h514z" />
    <glyph glyph-name="F" unicode="F" horiz-adv-x="615" 
d="M574 700v-174h-300v-103h281v-174h-281v-249h-214v700h514z" />
    <glyph glyph-name="G" unicode="G" horiz-adv-x="765" 
d="M379 715q69 0 128 -17.5t103 -51.5t72 -84t37 -114h-217q-11 43 -42.5 67t-80.5 24q-37 0 -62.5 -16.5t-41.5 -43.5t-23.5 -61t-7.5 -68t7.5 -68t25 -61t45 -43.5t67.5 -16.5q64 0 96.5 37t32.5 94h99l11 -152q-30 -71 -89.5 -113t-159.5 -42q-83 0 -148 27t-109.5 75.5
t-68 115.5t-23.5 147t23.5 147t68 115.5t109.5 75.5t148 27zM734 395v-395h-131l-41 244h-193v151h365z" />
    <glyph glyph-name="H" unicode="H" horiz-adv-x="745" 
d="M684 700v-700h-214v267h-196v-267h-214v700h214v-260h196v260h214z" />
    <glyph glyph-name="I" unicode="I" horiz-adv-x="335" 
d="M61 700h214v-700h-214v700z" />
    <glyph glyph-name="J" unicode="J" horiz-adv-x="628" 
d="M578 700v-443q0 -69 -20 -120t-56.5 -84.5t-88.5 -50.5t-116 -17q-63 0 -112.5 18.5t-83.5 53t-52 83.5t-18 110h194q2 -37 16.5 -63t54.5 -26q19 0 32 7.5t21 20t11.5 28.5t3.5 33v450h214z" />
    <glyph glyph-name="K" unicode="K" horiz-adv-x="776" 
d="M736 700l-286 -343l-100 -105l-76 -84v-168h-214v700h214v-244l196 244h266zM745 0h-255l-153 251l147 154z" />
    <glyph glyph-name="L" unicode="L" horiz-adv-x="605" 
d="M275 700v-526h300v-174h-514v700h214z" />
    <glyph glyph-name="M" unicode="M" horiz-adv-x="1002" 
d="M941 700v-700h-214v419l-143 -419h-167l-143 419v-419h-214v700h302l139 -402l139 402h301z" />
    <glyph glyph-name="N" unicode="N" horiz-adv-x="753" 
d="M692 700v-700h-228l-190 339v-339h-214v700h225l194 -363v363h213z" />
    <glyph glyph-name="O" unicode="O" horiz-adv-x="777" 
d="M389 536q-40 0 -67.5 -15t-44.5 -40.5t-24.5 -59t-7.5 -71.5q0 -37 7.5 -71t24.5 -59.5t44.5 -40.5t67.5 -15t67.5 15t44.5 40.5t24.5 59.5t7.5 71q0 38 -7.5 71.5t-24.5 59t-44.5 40.5t-67.5 15zM389 715q88 0 155 -28t112 -77.5t68 -116t23 -143.5t-23 -143.5t-68 -116
t-112 -77.5t-155 -28t-155 28t-112 77.5t-68 116t-23 143.5t23 143.5t68 116t112 77.5t155 28z" />
    <glyph glyph-name="P" unicode="P" horiz-adv-x="690" 
d="M277 526v-137h87q32 0 56 16t24 53q0 38 -22.5 53t-57.5 15h-87zM373 700q62 0 114.5 -13.5t90.5 -43t59.5 -75t21.5 -110.5q0 -66 -21.5 -112t-59.5 -74.5t-90.5 -41.5t-114.5 -13h-96v-217h-217v700h313z" />
    <glyph glyph-name="Q" unicode="Q" horiz-adv-x="777" 
d="M389 536q-40 0 -67.5 -15t-44.5 -40.5t-24.5 -59t-7.5 -71.5q0 -37 7.5 -71t24.5 -59.5t44.5 -40.5t67.5 -15t67.5 15t44.5 40.5t24.5 59.5t7.5 71q0 38 -7.5 71.5t-24.5 59t-44.5 40.5t-67.5 15zM389 715q88 0 155 -28t112 -77.5t68 -116t23 -143.5t-23 -143.5t-68 -116
t-112 -77.5t-155 -28t-155 28t-112 77.5t-68 116t-23 143.5t23 143.5t68 116t112 77.5t155 28zM720 -25l-130 -93l-256 357l130 93z" />
    <glyph glyph-name="R" unicode="R" horiz-adv-x="690" 
d="M277 526v-137h87q32 0 56 16t24 53q0 38 -22.5 53t-57.5 15h-87zM373 700q62 0 114.5 -13.5t90.5 -43t59.5 -75t21.5 -110.5q0 -66 -21.5 -112t-59.5 -74.5t-90.5 -41.5t-114.5 -13h-96v-217h-217v700h313zM659 0h-241l-119 233l155 144z" />
    <glyph glyph-name="S" unicode="S" horiz-adv-x="689" 
d="M339 715q63 0 117.5 -14.5t95.5 -44.5t66.5 -76.5t31.5 -110.5h-214q-12 74 -97 74q-24 0 -45.5 -10t-21.5 -37q0 -17 14 -28.5t33 -18.5t39 -11t33 -6q48 -8 96 -21t86 -37.5t61.5 -63.5t23.5 -99q0 -65 -27.5 -108.5t-71.5 -69.5t-99 -37t-110 -11q-64 0 -119.5 15
t-98 47t-69.5 83t-33 123h214q10 -95 113 -95q12 0 25 1.5t24 7t18 14.5t7 24q0 19 -14.5 30.5t-34.5 18.5t-41 11t-35 7q-48 9 -95 22t-84 37t-59.5 62.5t-22.5 99.5q0 60 26 102.5t67.5 69t94 38.5t106.5 12z" />
    <glyph glyph-name="T" unicode="T" horiz-adv-x="688" 
d="M658 700v-174h-207v-526h-214v526h-206v174h627z" />
    <glyph glyph-name="U" unicode="U" horiz-adv-x="720" 
d="M670 700v-433q0 -72 -24 -125.5t-66 -88t-98.5 -51.5t-121.5 -17t-121.5 17t-98 51.5t-65.5 88t-24 125.5v433h214v-425q0 -112 95 -114q96 2 96 114v425h214z" />
    <glyph glyph-name="V" unicode="V" horiz-adv-x="784" 
d="M774 700l-233 -700h-298l-233 700h225l157 -484l156 484h226z" />
    <glyph glyph-name="W" unicode="W" horiz-adv-x="1058" 
d="M1048 700l-176 -700h-255l-88 396l-88 -396h-255l-176 700h221l95 -443l100 443h206l100 -443l95 443h221z" />
    <glyph glyph-name="X" unicode="X" horiz-adv-x="824" 
d="M781 700l-212 -347l214 -353h-250l-121 220l-121 -220h-251l215 353l-212 347h251l118 -215l118 215h251z" />
    <glyph glyph-name="Y" unicode="Y" horiz-adv-x="725" 
d="M715 700l-246 -478v-222h-214v222l-245 478h240l112 -264l112 264h241z" />
    <glyph glyph-name="Z" unicode="Z" horiz-adv-x="672" 
d="M621 700v-167l-317 -359h327v-174h-591v167l307 359h-293v174h567z" />
    <glyph glyph-name="bracketleft" unicode="[" horiz-adv-x="420" 
d="M359 763v-166h-97v-583h97v-165h-299v914h299z" />
    <glyph glyph-name="backslash" unicode="\" horiz-adv-x="540" 
d="M539 -107h-219l-320 914h220z" />
    <glyph glyph-name="bracketright" unicode="]" horiz-adv-x="420" 
d="M360 763v-914h-299v165h97v583h-97v166h299z" />
    <glyph glyph-name="asciicircum" unicode="^" horiz-adv-x="459" 
d="M312 700l107 -293h-149l-40 151l-41 -151h-148l107 293h164z" />
    <glyph glyph-name="underscore" unicode="_" horiz-adv-x="554" 
d="M60 -15h433v-152h-433v152z" />
    <glyph glyph-name="grave" unicode="`" horiz-adv-x="367" 
d="M219 731l107 -162h-151l-134 162h178z" />
    <glyph glyph-name="a" unicode="a" horiz-adv-x="619" 
d="M284 189q-29 -7 -46.5 -17t-17.5 -30t13.5 -29.5t37.5 -9.5q38 0 63 25t25 57v26q-2 -1 -11.5 -4.5t-28.5 -8.5l-14 -3.5t-11 -2.5q-5 -2 -10 -3zM211 295q23 3 44 7q18 2 36 4.5t28 4.5q22 4 31 8.5t9 15.5q0 29 -13 41.5t-39 12.5q-52 0 -59 -52h-188
q14 104 77.5 148.5t165.5 44.5q54 0 99 -10.5t77.5 -35.5t50.5 -66.5t18 -104.5v-154q0 -22 5 -32.5t25 -10.5h11v-131h-84q-39 0 -72 18t-46 60q-19 -24 -39.5 -39.5t-42 -24t-45.5 -11.5t-50 -3q-36 0 -68.5 8t-57 26t-39.5 46.5t-15 68.5q0 42 14.5 70t39.5 46.5t58 28.5
t69 16z" />
    <glyph glyph-name="b" unicode="b" horiz-adv-x="651" 
d="M340 371q-51 0 -77 -33t-26 -80q0 -22 6.5 -42t19 -36t32 -25.5t45.5 -9.5q51 0 76.5 33.5t25.5 79.5q0 22 -5.5 42.5t-17.5 36t-31.5 25t-47.5 9.5zM384 530q60 0 105.5 -21.5t75.5 -59t45.5 -86.5t15.5 -105t-17.5 -105.5t-49.5 -87t-78 -59t-103 -21.5q-48 0 -86 17
t-64 49l-11 -51h-176v700h196v-222q30 29 71 40.5t76 11.5z" />
    <glyph glyph-name="c" unicode="c" horiz-adv-x="600" 
d="M308 530q109 0 180 -56t86 -158h-185q-5 34 -26.5 50.5t-54.5 16.5q-27 0 -44.5 -10.5t-28 -28t-14.5 -40t-4 -46.5t4 -46.5t14.5 -40t28 -28.5t44.5 -11q33 0 54.5 17t26.5 50h185q-15 -102 -86 -158t-180 -56q-62 0 -114 19.5t-89.5 55.5t-58.5 86.5t-21 111.5t21 111
t58.5 86t89.5 55.5t114 19.5z" />
    <glyph glyph-name="d" unicode="d" horiz-adv-x="651" 
d="M311 371q-28 0 -47.5 -9.5t-31.5 -25t-17.5 -36t-5.5 -42.5q0 -46 25.5 -79.5t76.5 -33.5q26 0 45.5 9.5t32 25.5t19 36t6.5 42q0 47 -26 80t-77 33zM267 530q35 0 76 -11.5t71 -40.5v222h196v-700h-176l-11 51q-26 -32 -64 -49t-86 -17q-57 0 -103 21.5t-78 59t-49.5 87
t-17.5 105.5t15.5 105t45.5 86.5t75.5 59t105.5 21.5z" />
    <glyph glyph-name="e" unicode="e" 
d="M308 383q-34 0 -52 -20.5t-25 -52.5h163q-7 33 -27 53t-59 20zM308 530q93 0 161 -42t100 -115q17 -40 21 -83.5t-3 -85.5h-357q7 -34 26.5 -55t59.5 -21q25 0 47.5 7.5t34.5 30.5h181q-16 -50 -42.5 -84.5t-60.5 -56t-75 -31t-87 -9.5q-62 0 -115 19.5t-91.5 55.5
t-60.5 86.5t-22 111.5t21 111t58.5 86t89.5 55.5t114 19.5z" />
    <glyph glyph-name="f" unicode="f" horiz-adv-x="406" 
d="M290 715q26 0 48.5 -4t42.5 -11v-138q-6 2 -16.5 4t-24.5 2q-27 0 -41 -14.5t-14 -31.5v-7h94v-156h-94v-359h-202v359h-73v156h73v22q0 34 10.5 66t35 57t64 40t97.5 15z" />
    <glyph glyph-name="g" unicode="g" horiz-adv-x="616" 
d="M295 370q-23 0 -40 -8.5t-28 -22.5t-16.5 -32t-5.5 -36q0 -41 22 -68.5t68 -27.5t68 29t22 67q0 19 -5.5 37t-17 31.5t-28 22t-39.5 8.5zM262 530q42 0 77 -13t58 -43l14 41h165v-464q0 -77 -20 -130.5t-57 -86.5t-87.5 -48t-112.5 -15q-54 0 -99.5 13t-80 39t-57 65
t-29.5 91h185q4 -27 23.5 -45.5t51.5 -18.5q50 0 72 31t22 82v26q-26 -20 -58 -29.5t-64 -9.5q-56 0 -100.5 19.5t-75.5 53.5t-47.5 81t-16.5 101q0 51 16 98t46.5 83t74.5 57.5t100 21.5z" />
    <glyph glyph-name="h" unicode="h" horiz-adv-x="591" 
d="M372 530q47 0 82.5 -15t59 -41.5t35 -62t11.5 -77.5v-334h-201v291q0 31 -11.5 51t-45.5 20q-35 0 -47.5 -24.5t-12.5 -58.5v-279h-202v700h202v-218q25 26 55.5 37t74.5 11z" />
    <glyph glyph-name="i" unicode="i" horiz-adv-x="282" 
d="M40 700h202v-157h-202v157zM40 515h202v-515h-202v515z" />
    <glyph glyph-name="j" unicode="j" horiz-adv-x="282" 
d="M242 700v-156h-202v156h202zM242 516v-503q0 -58 -11.5 -103t-39.5 -75.5t-73.5 -46.5t-114.5 -16q-16 0 -31 1.5t-30 3.5v162q16 -3 36 -3q27 0 44.5 17t17.5 43v520h202z" />
    <glyph glyph-name="k" unicode="k" horiz-adv-x="642" 
d="M242 700v-314l123 129h252l-204 -203l208 -312h-236l-116 192l-27 -28v-164h-202v700h202z" />
    <glyph glyph-name="l" unicode="l" horiz-adv-x="282" 
d="M40 700h202v-700h-202v700z" />
    <glyph glyph-name="m" unicode="m" horiz-adv-x="890" 
d="M369 530q56 0 93.5 -20.5t58.5 -55.5q23 35 60 55.5t90 20.5q47 0 82.5 -15t59 -41.5t35 -62t11.5 -77.5v-334h-202v296q0 66 -54 66q-29 0 -41 -24.5t-12 -58.5v-279h-201v296q0 66 -55 66q-29 0 -40.5 -24.5t-11.5 -58.5v-279h-202v515h176l11 -50q24 31 60 48t82 17z
" />
    <glyph glyph-name="n" unicode="n" horiz-adv-x="591" 
d="M372 530q47 0 82.5 -15t59 -41.5t35 -62t11.5 -77.5v-334h-201v291q0 31 -11.5 51t-45.5 20q-35 0 -47.5 -24.5t-12.5 -58.5v-279h-202v515h176l11 -50q26 35 60 50t85 15z" />
    <glyph glyph-name="o" unicode="o" 
d="M308 371q-27 0 -44.5 -9.5t-28 -25.5t-14.5 -36.5t-4 -41.5t4 -41.5t14.5 -36.5t28 -26t44.5 -10t44.5 10t28 26t14.5 36.5t4 41.5t-4 41.5t-14.5 36.5t-28 25.5t-44.5 9.5zM308 530q62 0 114 -19.5t89.5 -55.5t58.5 -86t21 -111t-21 -111.5t-58.5 -86.5t-89.5 -55.5
t-114 -19.5t-114 19.5t-89.5 55.5t-58.5 86.5t-21 111.5t21 111t58.5 86t89.5 55.5t114 19.5z" />
    <glyph glyph-name="p" unicode="p" horiz-adv-x="651" 
d="M339 371q-26 0 -45.5 -9.5t-32 -25t-19 -36t-6.5 -42.5q0 -47 26 -80t77 -33q28 0 47.5 9.5t31.5 25t17.5 36t5.5 42.5q0 23 -6.5 43t-19 36t-31.5 25t-45 9zM377 531q57 0 103 -21.5t78 -59t49.5 -87t17.5 -105.5q0 -55 -15.5 -105t-45.5 -87t-75.5 -59t-105.5 -22
q-35 0 -76 11.5t-71 41.5v-251h-196v728h176l11 -50q26 32 64 49t86 17z" />
    <glyph glyph-name="q" unicode="q" horiz-adv-x="652" 
d="M312 371q-25 0 -44.5 -9t-32 -25t-19 -36t-6.5 -43q0 -22 5.5 -42.5t17.5 -36t31.5 -25t47.5 -9.5q51 0 77 33t26 80q0 22 -6.5 42.5t-19 36t-32 25t-45.5 9.5zM274 531q48 0 86 -17t64 -49l11 50h176v-728h-196v251q-30 -30 -71 -41.5t-76 -11.5q-60 0 -105.5 22
t-75.5 59t-45.5 87t-15.5 105q0 56 17.5 105.5t49.5 87t78 59t103 21.5z" />
    <glyph glyph-name="r" unicode="r" horiz-adv-x="442" 
d="M374 530q11 0 20 -0.5t15 -0.5q7 -1 12 -2v-181q-6 1 -13 2q-6 0 -13.5 0.5t-15.5 0.5q-27 0 -52 -9t-43.5 -29.5t-30 -52.5t-11.5 -78v-180h-202v515h176l18 -82q21 50 58.5 73.5t81.5 23.5z" />
    <glyph glyph-name="s" unicode="s" horiz-adv-x="575" 
d="M280 530q53 0 99 -11t80.5 -34.5t54.5 -59t21 -83.5h-181q-2 32 -20 46.5t-50 14.5q-21 0 -33.5 -8.5t-12.5 -23.5q0 -14 9 -23.5t24 -16t35 -10.5t41 -7q38 -5 73.5 -14.5t63.5 -27t44.5 -45.5t16.5 -70q0 -49 -21.5 -82.5t-57.5 -53t-82 -28t-96 -8.5t-96 11t-81.5 35
t-57 60.5t-22.5 87.5h192q2 -39 23 -54t56 -15q18 0 36.5 7t18.5 27q0 17 -12.5 27.5t-30.5 16.5t-38.5 9t-37.5 6q-37 6 -72 16.5t-62 29.5t-43.5 47t-16.5 68q0 45 21 76.5t54.5 51.5t76 29t84.5 9z" />
    <glyph glyph-name="t" unicode="t" horiz-adv-x="440" 
d="M307 667v-152h113v-156h-113v-136q0 -42 19.5 -56t60.5 -14q20 0 33 3v-163q-26 -5 -52.5 -6.5t-52.5 -1.5q-113 0 -161 57t-48 166v151h-86v156h28q33 0 45.5 16.5t12.5 39.5v96h201z" />
    <glyph glyph-name="u" unicode="u" horiz-adv-x="591" 
d="M550 515v-515h-176l-11 50q-26 -35 -60 -50t-84 -15q-47 0 -82.5 15t-59 41.5t-35.5 62.5t-12 78v333h202v-290q0 -32 11.5 -51.5t45.5 -19.5t47 24t13 58v279h201z" />
    <glyph glyph-name="v" unicode="v" horiz-adv-x="639" 
d="M629 515l-177 -515h-266l-176 515h215l94 -336l95 336h215z" />
    <glyph glyph-name="w" unicode="w" horiz-adv-x="907" 
d="M896 515l-138 -515h-234l-70 292l-70 -292h-234l-140 515h217l57 -326l65 326h210l64 -326l56 326h217z" />
    <glyph glyph-name="x" unicode="x" horiz-adv-x="654" 
d="M626 515l-149 -255l152 -260h-224l-75 162l-77 -162h-228l151 260l-149 255h224l74 -156l73 156h228z" />
    <glyph glyph-name="y" unicode="y" horiz-adv-x="593" 
d="M225 516l94 -337l-51 -179h-82l-176 516h215zM582 516l-177 -516q-18 -58 -37.5 -101t-49.5 -71t-75 -42t-114 -14q-11 0 -24 2t-26 5v160q8 -2 17.5 -3.5t22.5 -1.5q36 0 55.5 18t27.5 44l15 49l71 193l79 278h215z" />
    <glyph glyph-name="z" unicode="z" horiz-adv-x="537" 
d="M500 515v-152l-220 -207h227v-156h-477v153l213 206h-200v156h457z" />
    <glyph glyph-name="braceleft" unicode="{" horiz-adv-x="490" 
d="M308 466q0 -29 -2 -57.5t-11 -51t-29 -36.5t-56 -14q36 0 56 -14t29 -37t11 -51.5t2 -57.5v-69q0 -34 14.5 -48t48.5 -14h58v-165h-98q-107 0 -166 50.5t-59 162.5v88q0 45 -16 61t-60 16v156q44 0 60 16t16 60v89q0 111 59.5 162t165.5 51h98v-166h-58
q-34 0 -48.5 -13.5t-14.5 -48.5v-69z" />
    <glyph glyph-name="bar" unicode="|" horiz-adv-x="322" 
d="M60 763h202v-914h-202v914z" />
    <glyph glyph-name="braceright" unicode="}" horiz-adv-x="490" 
d="M159 763q107 0 166 -51t59 -162v-89q0 -44 16 -60t60 -16v-156q-44 0 -60 -16t-16 -61v-88q0 -112 -59 -162.5t-166 -50.5h-98v165h58q34 0 49 14t15 48v69q0 29 1.5 57.5t11 51.5t29 37t55.5 14q-36 0 -55.5 14t-29 36.5t-11 51t-1.5 57.5v69q0 35 -15 48.5t-49 13.5
h-58v166h98z" />
    <glyph glyph-name="asciitilde" unicode="~" horiz-adv-x="663" 
d="M241 317q-18 0 -29 -6t-17 -16.5t-8 -24t-2 -28.5h-144q0 40 8.5 81.5t28.5 75t53 54.5t83 21q38 0 67 -14t53 -31.5t45 -31.5t42 -14q35 0 46 22.5t11 51.5h144q0 -40 -8.5 -81.5t-28.5 -75t-54 -54.5t-84 -21q-35 0 -64.5 14.5t-54.5 31.5t-46.5 31.5t-40.5 14.5z" />
    <glyph glyph-name="uni00A0" unicode="&#xa0;" horiz-adv-x="212" 
 />
    <glyph glyph-name="exclamdown" unicode="&#xa1;" horiz-adv-x="343" 
d="M270 338h-198v192h198v-192zM254 308q0 -3 2 -29t5.5 -63t6.5 -79t6.5 -79t5.5 -62.5t2 -28.5v-152h-222v152q0 3 2 28.5t5.5 62.5t6.5 79t6.5 79t5.5 63t2 29h166z" />
    <glyph glyph-name="cent" unicode="&#xa2;" horiz-adv-x="600" 
d="M308 624q110 0 180.5 -56t85.5 -158h-184q-12 67 -82 67q-27 0 -44 -10.5t-27.5 -28t-14.5 -40t-4 -46.5t4 -46.5t14.5 -40t27.5 -28.5t44 -11q70 0 82 67h184q-15 -102 -85.5 -158t-180.5 -56q-62 0 -114 19.5t-89.5 55.5t-58.5 86.5t-21 111.5t21 111t58.5 86
t89.5 55.5t114 19.5zM361 700v-145h-123v145h123zM361 124v-124h-123v124h123z" />
    <glyph glyph-name="sterling" unicode="&#xa3;" horiz-adv-x="696" 
d="M360 715q67 0 119.5 -12.5t90 -41.5t59 -76t27.5 -116h-235q-2 42 -16.5 60t-45.5 18q-26 0 -41.5 -16t-15.5 -48q0 -36 8.5 -75.5t8.5 -91.5q0 -53 -16.5 -86.5t-40.5 -54.5h394v-175h-616v151q42 16 63 46.5t21 62.5q0 25 -6 50.5t-13.5 51.5t-14 54t-6.5 58
q0 59 20 104t56 75.5t87 46t113 15.5zM447 389v-122h-407v122h407z" />
    <glyph glyph-name="currency" unicode="&#xa4;" horiz-adv-x="607" 
d="M303 432q-34 0 -57.5 -24t-23.5 -58q0 -33 23.5 -57t57.5 -24t58 24t24 57q0 34 -24 58t-58 24zM303 555q26 0 50.5 -6.5t46.5 -17.5l80 78l86 -88l-80 -78q22 -44 22 -93q0 -48 -22 -92l80 -78l-86 -88l-80 78q-22 -11 -46.5 -17.5t-50.5 -6.5t-50.5 6.5t-46.5 17.5
l-80 -78l-86 88l80 78q-22 44 -22 92q0 49 22 93l-80 78l86 88l80 -78q22 11 46.5 17.5t50.5 6.5z" />
    <glyph glyph-name="yen" unicode="&#xa5;" horiz-adv-x="726" 
d="M715 700l-245 -478v-222h-214v222l-246 478h241l112 -264l112 264h240zM156 144h413v-108h-413v108zM156 287h413v-107h-413v107z" />
    <glyph glyph-name="brokenbar" unicode="&#xa6;" horiz-adv-x="323" 
d="M60 807h202v-410h-202v410zM60 302h202v-409h-202v409z" />
    <glyph glyph-name="section" unicode="&#xa7;" horiz-adv-x="572" 
d="M343 499q38 -5 70.5 -15.5t56 -29t37 -46t13.5 -66.5q0 -26 -11.5 -47.5t-31 -38.5t-44.5 -29t-52 -19l-65 88q14 3 28.5 10.5t14.5 25.5q0 17 -13.5 27t-32.5 15.5t-40.5 8t-38.5 5.5q-37 6 -72 16.5t-62 29.5t-43.5 47t-16.5 68q0 45 21 76.5t55 52t76 29.5t85 9
q53 0 99 -11.5t80 -34.5t54 -59t21 -84h-181q-2 32 -20 46.5t-50 14.5q-21 0 -33.5 -8.5t-12.5 -23.5q0 -14 9 -23.5t24 -16t35 -10.5t41 -7zM229 201q-38 5 -70.5 15.5t-56.5 29t-37.5 46.5t-13.5 67q0 26 12 47.5t31.5 38t44.5 29t52 19.5l64 -89q-14 -2 -28 -9.5
t-14 -25.5q0 -17 13.5 -27t32.5 -15.5t40.5 -8t37.5 -5.5q37 -6 72 -16.5t62 -29.5t43.5 -47t16.5 -68q0 -45 -21 -76.5t-54.5 -52t-76 -29.5t-84.5 -9q-53 0 -99 11.5t-80.5 34.5t-54.5 58.5t-21 84.5h181q4 -62 71 -62q20 0 33 9t13 24q0 14 -9 23.5t-24.5 15.5t-35 10
t-40.5 7z" />
    <glyph glyph-name="dieresis" unicode="&#xa8;" horiz-adv-x="449" 
d="M242 719h166v-146h-166v146zM40 719h166v-146h-166v146z" />
    <glyph glyph-name="copyright" unicode="&#xa9;" horiz-adv-x="811" 
d="M405 716q76 0 142.5 -29t116 -78.5t78.5 -116t29 -142.5q0 -75 -29 -141.5t-78.5 -116t-116 -78.5t-142.5 -29q-75 0 -141.5 29t-116 78.5t-78.5 116t-29 141.5q0 76 29 142.5t78.5 116t116 78.5t141.5 29zM405 592q-50 0 -94 -19t-77 -52t-52 -77t-19 -94t19 -94t52 -77
t77 -52t94 -19t94 19t77 52t52 77t19 94t-19 94t-52 77t-77 52t-94 19zM410 542q81 0 128 -43t56 -116h-123q-5 26 -19.5 39.5t-43.5 13.5q-34 0 -48 -26t-14 -60t14 -60t48 -26q29 0 43.5 14t19.5 39h123q-9 -72 -56 -115.5t-128 -43.5q-42 0 -77.5 13.5t-61 38.5t-40 60.5
t-14.5 79.5t14.5 79.5t40 60.5t61 38.5t77.5 13.5z" />
    <glyph glyph-name="ordfeminine" unicode="&#xaa;" horiz-adv-x="522" 
d="M241 457q-23 -6 -36.5 -13.5t-13.5 -22.5q0 -27 38 -27q15 0 28 6t23 15.5t15.5 21t5.5 23.5v13q-2 -1 -9.5 -3.5t-22.5 -6.5q-5 -2 -10 -2.5t-10 -1.5zM184 537q19 3 35 5l28 4t22 3q17 3 24.5 6.5t7.5 11.5q0 41 -41 41t-47 -40h-149q11 79 61.5 113t131.5 34
q42 0 77.5 -8t61 -27t40 -50.5t14.5 -78.5v-117q0 -17 4 -25t20 -8h8v-99h-66q-29 0 -54 12t-36 39q-32 -32 -68 -41.5t-75 -9.5q-28 0 -54 6t-45.5 19.5t-31 35t-11.5 52.5q0 32 11.5 53t31 35t45.5 22t55 12z" />
    <glyph glyph-name="guillemotleft" unicode="&#xab;" horiz-adv-x="858" 
d="M797 606l-205 -256l205 -259h-237l-207 259l207 256h237zM484 606l-206 -256l206 -259h-237l-207 259l207 256h237z" />
    <glyph glyph-name="logicalnot" unicode="&#xac;" horiz-adv-x="705" 
d="M645 43h-170v161h-415v170h585v-331z" />
    <glyph glyph-name="uni00AD" unicode="&#xad;" horiz-adv-x="414" 
d="M41 360h333v-141h-333v141z" />
    <glyph glyph-name="registered" unicode="&#xae;" horiz-adv-x="812" 
d="M376 420v-40h35q17 0 22.5 5.5t5.5 14.5q0 8 -5.5 14t-22.5 6h-35zM416 521q144 0 144 -119q0 -32 -12.5 -58t-35.5 -40l56 -124h-126l-42 104h-24v-104h-122v341h162zM405 716q76 0 142.5 -29t116 -78.5t78.5 -116t29 -142.5q0 -75 -29 -141.5t-78.5 -116t-116 -78.5
t-142.5 -29q-75 0 -141.5 29t-116 78.5t-78.5 116t-29 141.5q0 76 29 142.5t78.5 116t116 78.5t141.5 29zM405 592q-50 0 -94 -19t-77 -52t-52 -77t-19 -94t19 -94t52 -77t77 -52t94 -19t94 19t77 52t52 77t19 94t-19 94t-52 77t-77 52t-94 19z" />
    <glyph glyph-name="macron" unicode="&#xaf;" horiz-adv-x="394" 
d="M40 715h313v-121h-313v121z" />
    <glyph glyph-name="degree" unicode="&#xb0;" horiz-adv-x="423" 
d="M212 610q-26 0 -41 -16t-15 -42t14.5 -42.5t40.5 -16.5t40 16.5t14 42.5q0 25 -13.5 41.5t-39.5 16.5zM210 715q35 0 66.5 -11.5t55 -33t37 -51.5t13.5 -67q0 -36 -13.5 -66t-36.5 -52t-54.5 -34t-67.5 -12t-67 11.5t-54 33t-36 52t-13 67.5t13.5 67t36.5 51.5t54 33
t66 11.5z" />
    <glyph glyph-name="plusminus" unicode="&#xb1;" horiz-adv-x="654" 
d="M418 752v-180h176v-176h-176v-180h-182v180h-176v176h176v180h182zM60 176h534v-176h-534v176z" />
    <glyph glyph-name="twosuperior" unicode="&#xb2;" horiz-adv-x="377" 
d="M193 806q29 0 57 -6.5t50.5 -21.5t36.5 -39.5t14 -60.5q0 -26 -9 -45.5t-23.5 -35t-33.5 -28t-39 -24.5q-18 -11 -35.5 -22.5t-32.5 -25.5h178v-107h-334v40q0 42 12.5 72t32 52.5t43 38t45.5 27.5q29 15 49.5 27t20.5 29q0 11 -9 17.5t-23 6.5q-23 0 -32.5 -13.5
t-11.5 -33.5h-129q6 70 52 111.5t121 41.5z" />
    <glyph glyph-name="threesuperior" unicode="&#xb3;" horiz-adv-x="387" 
d="M196 806q72 0 115 -31.5t43 -85.5q0 -28 -13 -49.5t-36 -33.5q29 -11 45 -33.5t16 -54.5q0 -33 -15 -57.5t-39 -40t-55 -23t-63 -7.5q-38 0 -69.5 11t-54 30.5t-35.5 48t-14 62.5h123q0 -20 14 -34t35 -14q12 0 26.5 6t14.5 28q0 5 -1.5 10.5t-6 10t-13.5 7.5t-24 3h-44
v86h37q12 0 28.5 6t16.5 22q0 29 -36 29t-39 -35h-121q5 65 49 102t116 37z" />
    <glyph glyph-name="acute" unicode="&#xb4;" horiz-adv-x="367" 
d="M326 731l-133 -162h-152l107 162h178z" />
    <glyph glyph-name="paragraph" unicode="&#xb6;" horiz-adv-x="712" 
d="M652 700v-700h-185v517h-37v-517h-184v239h-3q-32 0 -67.5 13t-65.5 40t-50 69t-20 100q0 60 20.5 105t56 75t82 44.5t98.5 14.5h355z" />
    <glyph glyph-name="periodcentered" unicode="&#xb7;" horiz-adv-x="320" 
d="M61 446h198v-192h-198v192z" />
    <glyph glyph-name="cedilla" unicode="&#xb8;" horiz-adv-x="309" 
d="M170 -36q48 -5 73.5 -26t25.5 -68q0 -30 -10.5 -51.5t-29.5 -35t-44.5 -19.5t-54.5 -6q-19 0 -45 5.5t-44 14.5v90l40.5 -13.5t41.5 -7.5q17 0 29 5.5t12 21.5q0 9 -7 13.5t-16 7t-19 2.5h-16h-30l31 103h74z" />
    <glyph glyph-name="onesuperior" unicode="&#xb9;" horiz-adv-x="269" 
d="M228 807v-417h-129v244h-79v102q21 0 39 1.5t31.5 8t21 21t7.5 40.5h109z" />
    <glyph glyph-name="ordmasculine" unicode="&#xba;" horiz-adv-x="528" 
d="M264 594q-19 0 -31.5 -7.5t-20 -19.5t-10.5 -27.5t-3 -31.5t3 -31.5t10.5 -27.5t20 -19t31.5 -7t31.5 7t20 19t11 27.5t3.5 31.5t-3.5 31.5t-11 27.5t-20 19.5t-31.5 7.5zM264 715q48 0 89 -14.5t71 -41t47 -65t17 -86.5q0 -50 -17.5 -88.5t-48 -64.5t-71.5 -39.5
t-87 -13.5q-48 0 -89 14t-70.5 40.5t-46.5 65t-17 86.5q0 50 17.5 88.5t48 65t71 40t86.5 13.5z" />
    <glyph glyph-name="guillemotright" unicode="&#xbb;" horiz-adv-x="858" 
d="M611 606l207 -256l-207 -259h-237l205 259l-205 256h237zM297 606l208 -256l-208 -259h-236l205 259l-205 256h236z" />
    <glyph glyph-name="onequarter" unicode="&#xbc;" horiz-adv-x="869" 
d="M228 716v-417h-129v244h-79v102q21 0 39 1.5t31.5 8t21 21t7.5 40.5h109zM705 700l-474 -700h-162l474 700h162zM803 399v-239h46v-108h-46v-67h-129v67h-193v79l165 268h157zM608 160h66v110z" />
    <glyph glyph-name="onehalf" unicode="&#xbd;" horiz-adv-x="882" 
d="M228 716v-417h-129v244h-79v102q21 0 39 1.5t31.5 8t21 21t7.5 40.5h109zM705 700l-474 -700h-162l474 700h162zM698 401q29 0 57 -6.5t50.5 -21.5t36.5 -39.5t14 -60.5q0 -26 -9 -45.5t-23.5 -35t-33.5 -28t-39 -24.5q-18 -11 -35.5 -22.5t-32.5 -25.5h178v-107h-334v40
q0 42 12.5 72t32 52.5t43 38t45.5 27.5q29 15 49.5 27t20.5 29q0 11 -9 17.5t-23 6.5q-23 0 -32.5 -13.5t-11.5 -33.5h-129q6 70 52 111.5t121 41.5z" />
    <glyph glyph-name="threequarters" unicode="&#xbe;" horiz-adv-x="987" 
d="M196 715q72 0 115 -31.5t43 -85.5q0 -28 -13 -49.5t-36 -33.5q29 -11 45 -33.5t16 -54.5q0 -33 -15 -57.5t-39 -40t-55 -23t-63 -7.5q-38 0 -69.5 11t-54 30.5t-35.5 48t-14 62.5h123q0 -20 14 -34t35 -14q12 0 26.5 6t14.5 28q0 5 -1.5 10.5t-6 10t-13.5 7.5t-24 3h-44
v86h37q12 0 28.5 6t16.5 22q0 29 -36 29t-39 -35h-121q5 65 49 102t116 37zM823 700l-474 -700h-162l474 700h162zM921 399v-239h46v-108h-46v-67h-129v67h-193v79l165 268h157zM726 160h66v110z" />
    <glyph glyph-name="questiondown" unicode="&#xbf;" horiz-adv-x="649" 
d="M432 338h-198v192h198v-192zM423 289q0 -66 -16.5 -103.5t-39.5 -60.5q-17 -16 -35 -27t-32.5 -21t-24 -21t-9.5 -29q0 -22 16 -33t40 -11q44 0 62 26.5t19 62.5h206q-4 -70 -25.5 -119t-59.5 -79.5t-91 -44.5t-120 -14q-55 0 -104 11t-86.5 35t-59.5 62.5t-22 94.5
q0 40 14.5 66.5t36 45.5t47.5 33t48 29q24 16 40 36t16 51v29h180v-19z" />
    <glyph glyph-name="Agrave" unicode="&#xc0;" horiz-adv-x="777" 
d="M522 700l244 -700h-236l-30 105h-224l-32 -105h-234l246 700h266zM325 273h126l-63 216zM357 916l107 -162h-151l-134 162h178z" />
    <glyph glyph-name="Aacute" unicode="&#xc1;" horiz-adv-x="777" 
d="M522 700l244 -700h-236l-30 105h-224l-32 -105h-234l246 700h266zM325 273h126l-63 216zM600 916l-133 -162h-152l107 162h178z" />
    <glyph glyph-name="Acircumflex" unicode="&#xc2;" horiz-adv-x="777" 
d="M522 700l244 -700h-236l-30 105h-224l-32 -105h-234l246 700h266zM325 273h126l-63 216zM473 916l108 -162h-140l-53 76l-53 -76h-140l108 162h170z" />
    <glyph glyph-name="Atilde" unicode="&#xc3;" horiz-adv-x="777" 
d="M522 700l244 -700h-236l-30 105h-224l-32 -105h-234l246 700h266zM325 273h126l-63 216zM307 924q26 0 46.5 -8t38 -18t33 -18t30.5 -8q21 0 28.5 14.5t7.5 33.5h110q0 -30 -7.5 -60.5t-23.5 -55t-41 -40t-61 -15.5q-26 0 -47 8.5t-38.5 18t-32.5 18t-29 8.5
q-20 0 -28 -16t-8 -34h-111q1 33 8.5 64t23 55t40.5 38.5t61 14.5z" />
    <glyph glyph-name="Adieresis" unicode="&#xc4;" horiz-adv-x="777" 
d="M522 700l244 -700h-236l-30 105h-224l-32 -105h-234l246 700h266zM325 273h126l-63 216zM406 904h166v-146h-166v146zM204 904h166v-146h-166v146z" />
    <glyph glyph-name="Aring" unicode="&#xc5;" horiz-adv-x="777" 
d="M522 700l244 -700h-236l-30 105h-224l-32 -105h-234l246 700h266zM325 273h126l-63 216zM389 874q-14 0 -23.5 -9.5t-9.5 -23.5t9.5 -23.5t23.5 -9.5t23 9.5t9 23.5t-9 23.5t-23 9.5zM389 954q24 0 45.5 -8t37.5 -23t25.5 -35.5t9.5 -46.5q0 -25 -9.5 -45.5t-25.5 -35.5
t-37.5 -23t-45.5 -8t-45.5 8t-38 22.5t-26 35.5t-9.5 46q0 24 9.5 45t25.5 36t37.5 23.5t46.5 8.5z" />
    <glyph glyph-name="AE" unicode="&#xc6;" horiz-adv-x="1095" 
d="M622 105h-426v168h426v-168zM1054 526h-300v-87h281v-174h-281v-91h300v-174h-514v522l-147 -271l-6 -46l-120 -205h-256l409 700h634v-174z" />
    <glyph glyph-name="Ccedilla" unicode="&#xc7;" horiz-adv-x="755" 
d="M380 715q75 0 136 -20.5t106 -59.5t71.5 -96t31.5 -131h-214q-3 27 -12 51t-25.5 42t-40 28t-53.5 10q-37 0 -62.5 -16.5t-41.5 -43.5t-23.5 -61t-7.5 -68t7.5 -68t23.5 -61t41.5 -43.5t62.5 -16.5q30 0 53.5 10t40 28t25.5 42t12 51h214q-5 -73 -31.5 -130.5
t-71.5 -96.5t-106 -59.5t-136 -20.5q-83 0 -148 27t-109.5 75.5t-68 115.5t-23.5 147t23.5 147t68 115.5t109.5 75.5t148 27zM408 -36q48 -5 73.5 -26t25.5 -68q0 -30 -10.5 -51.5t-29.5 -35t-44.5 -19.5t-54.5 -6q-19 0 -45 5.5t-44 14.5v90l40.5 -13.5t41.5 -7.5
q17 0 29 5.5t12 21.5q0 9 -7 13.5t-16 7t-19 2.5h-16h-30l31 103h74z" />
    <glyph glyph-name="Egrave" unicode="&#xc8;" horiz-adv-x="615" 
d="M574 700v-174h-300v-87h281v-174h-281v-91h300v-174h-514v700h514zM353 916l107 -162h-151l-134 162h178z" />
    <glyph glyph-name="Eacute" unicode="&#xc9;" horiz-adv-x="615" 
d="M574 700v-174h-300v-87h281v-174h-281v-91h300v-174h-514v700h514zM460 916l-133 -162h-152l107 162h178z" />
    <glyph glyph-name="Ecircumflex" unicode="&#xca;" horiz-adv-x="615" 
d="M574 700v-174h-300v-87h281v-174h-281v-91h300v-174h-514v700h514zM402 916l108 -162h-140l-53 76l-53 -76h-140l108 162h170z" />
    <glyph glyph-name="Edieresis" unicode="&#xcb;" horiz-adv-x="615" 
d="M574 700v-174h-300v-87h281v-174h-281v-91h300v-174h-514v700h514zM335 904h166v-146h-166v146zM133 904h166v-146h-166v146z" />
    <glyph glyph-name="Igrave" unicode="&#xcc;" horiz-adv-x="335" 
d="M61 700h214v-700h-214v700zM137 916l107 -162h-151l-134 162h178z" />
    <glyph glyph-name="Iacute" unicode="&#xcd;" horiz-adv-x="335" 
d="M61 700h214v-700h-214v700zM377 916l-133 -162h-152l107 162h178z" />
    <glyph glyph-name="Icircumflex" unicode="&#xce;" horiz-adv-x="335" 
d="M61 700h214v-700h-214v700zM252 916l108 -162h-140l-53 76l-53 -76h-140l108 162h170z" />
    <glyph glyph-name="Idieresis" unicode="&#xcf;" horiz-adv-x="335" 
d="M61 700h214v-700h-214v700zM185 904h166v-146h-166v146zM-17 904h166v-146h-166v146z" />
    <glyph glyph-name="Eth" unicode="&#xd0;" horiz-adv-x="741" 
d="M16 411h313v-122h-313v122zM274 526v-352h53q96 0 136.5 46t40.5 130t-40.5 130t-136.5 46h-53zM333 700q83 0 152.5 -20.5t119.5 -63.5t77.5 -109t27.5 -157t-27.5 -157t-77.5 -109t-119.5 -63.5t-152.5 -20.5h-273v700h273z" />
    <glyph glyph-name="Ntilde" unicode="&#xd1;" horiz-adv-x="753" 
d="M692 700v-700h-228l-190 339v-339h-214v700h225l194 -363v363h213zM295 924q26 0 46.5 -8t38 -18t33 -18t30.5 -8q21 0 28.5 14.5t7.5 33.5h110q0 -30 -7.5 -60.5t-23.5 -55t-41 -40t-61 -15.5q-26 0 -47 8.5t-38.5 18t-32.5 18t-29 8.5q-20 0 -28 -16t-8 -34h-111
q1 33 8.5 64t23 55t40.5 38.5t61 14.5z" />
    <glyph glyph-name="Ograve" unicode="&#xd2;" horiz-adv-x="777" 
d="M389 536q-40 0 -67.5 -15t-44.5 -40.5t-24.5 -59t-7.5 -71.5q0 -37 7.5 -71t24.5 -59.5t44.5 -40.5t67.5 -15t67.5 15t44.5 40.5t24.5 59.5t7.5 71q0 38 -7.5 71.5t-24.5 59t-44.5 40.5t-67.5 15zM389 715q88 0 155 -28t112 -77.5t68 -116t23 -143.5t-23 -143.5t-68 -116
t-112 -77.5t-155 -28t-155 28t-112 77.5t-68 116t-23 143.5t23 143.5t68 116t112 77.5t155 28zM365 916l107 -162h-151l-134 162h178z" />
    <glyph glyph-name="Oacute" unicode="&#xd3;" horiz-adv-x="777" 
d="M389 536q-40 0 -67.5 -15t-44.5 -40.5t-24.5 -59t-7.5 -71.5q0 -37 7.5 -71t24.5 -59.5t44.5 -40.5t67.5 -15t67.5 15t44.5 40.5t24.5 59.5t7.5 71q0 38 -7.5 71.5t-24.5 59t-44.5 40.5t-67.5 15zM389 715q88 0 155 -28t112 -77.5t68 -116t23 -143.5t-23 -143.5t-68 -116
t-112 -77.5t-155 -28t-155 28t-112 77.5t-68 116t-23 143.5t23 143.5t68 116t112 77.5t155 28zM595 916l-133 -162h-152l107 162h178z" />
    <glyph glyph-name="Ocircumflex" unicode="&#xd4;" horiz-adv-x="777" 
d="M389 536q-40 0 -67.5 -15t-44.5 -40.5t-24.5 -59t-7.5 -71.5q0 -37 7.5 -71t24.5 -59.5t44.5 -40.5t67.5 -15t67.5 15t44.5 40.5t24.5 59.5t7.5 71q0 38 -7.5 71.5t-24.5 59t-44.5 40.5t-67.5 15zM389 715q88 0 155 -28t112 -77.5t68 -116t23 -143.5t-23 -143.5t-68 -116
t-112 -77.5t-155 -28t-155 28t-112 77.5t-68 116t-23 143.5t23 143.5t68 116t112 77.5t155 28zM473 916l108 -162h-140l-53 76l-53 -76h-140l108 162h170z" />
    <glyph glyph-name="Otilde" unicode="&#xd5;" horiz-adv-x="777" 
d="M389 536q-40 0 -67.5 -15t-44.5 -40.5t-24.5 -59t-7.5 -71.5q0 -37 7.5 -71t24.5 -59.5t44.5 -40.5t67.5 -15t67.5 15t44.5 40.5t24.5 59.5t7.5 71q0 38 -7.5 71.5t-24.5 59t-44.5 40.5t-67.5 15zM389 715q88 0 155 -28t112 -77.5t68 -116t23 -143.5t-23 -143.5t-68 -116
t-112 -77.5t-155 -28t-155 28t-112 77.5t-68 116t-23 143.5t23 143.5t68 116t112 77.5t155 28zM307 924q26 0 46.5 -8t38 -18t33 -18t30.5 -8q21 0 28.5 14.5t7.5 33.5h110q0 -30 -7.5 -60.5t-23.5 -55t-41 -40t-61 -15.5q-26 0 -47 8.5t-38.5 18t-32.5 18t-29 8.5
q-20 0 -28 -16t-8 -34h-111q1 33 8.5 64t23 55t40.5 38.5t61 14.5z" />
    <glyph glyph-name="Odieresis" unicode="&#xd6;" horiz-adv-x="777" 
d="M389 536q-40 0 -67.5 -15t-44.5 -40.5t-24.5 -59t-7.5 -71.5q0 -37 7.5 -71t24.5 -59.5t44.5 -40.5t67.5 -15t67.5 15t44.5 40.5t24.5 59.5t7.5 71q0 38 -7.5 71.5t-24.5 59t-44.5 40.5t-67.5 15zM389 715q88 0 155 -28t112 -77.5t68 -116t23 -143.5t-23 -143.5t-68 -116
t-112 -77.5t-155 -28t-155 28t-112 77.5t-68 116t-23 143.5t23 143.5t68 116t112 77.5t155 28zM406 904h166v-146h-166v146zM204 904h166v-146h-166v146z" />
    <glyph glyph-name="multiply" unicode="&#xd7;" horiz-adv-x="636" 
d="M574 417l-128 -128l129 -129l-128 -128l-128 127l-129 -128l-129 128l129 130l-129 128l128 129l129 -128l128 128z" />
    <glyph glyph-name="Oslash" unicode="&#xd8;" horiz-adv-x="777" 
d="M389 536q-40 0 -67.5 -15t-44.5 -40.5t-24.5 -59t-7.5 -71.5q0 -37 7.5 -71t24.5 -59.5t44.5 -40.5t67.5 -15t67.5 15t44.5 40.5t24.5 59.5t7.5 71q0 38 -7.5 71.5t-24.5 59t-44.5 40.5t-67.5 15zM389 715q88 0 155 -28t112 -77.5t68 -116t23 -143.5t-23 -143.5t-68 -116
t-112 -77.5t-155 -28t-155 28t-112 77.5t-68 116t-23 143.5t23 143.5t68 116t112 77.5t155 28zM590 715h153l-556 -730h-152z" />
    <glyph glyph-name="Ugrave" unicode="&#xd9;" horiz-adv-x="720" 
d="M670 700v-433q0 -72 -24 -125.5t-66 -88t-98.5 -51.5t-121.5 -17t-121.5 17t-98 51.5t-65.5 88t-24 125.5v433h214v-425q0 -112 95 -114q96 2 96 114v425h214zM396 916l107 -162h-151l-134 162h178z" />
    <glyph glyph-name="Uacute" unicode="&#xda;" horiz-adv-x="720" 
d="M670 700v-433q0 -72 -24 -125.5t-66 -88t-98.5 -51.5t-121.5 -17t-121.5 17t-98 51.5t-65.5 88t-24 125.5v433h214v-425q0 -112 95 -114q96 2 96 114v425h214zM502 916l-133 -162h-152l107 162h178z" />
    <glyph glyph-name="Ucircumflex" unicode="&#xdb;" horiz-adv-x="720" 
d="M670 700v-433q0 -72 -24 -125.5t-66 -88t-98.5 -51.5t-121.5 -17t-121.5 17t-98 51.5t-65.5 88t-24 125.5v433h214v-425q0 -112 95 -114q96 2 96 114v425h214zM445 916l108 -162h-140l-53 76l-53 -76h-140l108 162h170z" />
    <glyph glyph-name="Udieresis" unicode="&#xdc;" horiz-adv-x="720" 
d="M670 700v-433q0 -72 -24 -125.5t-66 -88t-98.5 -51.5t-121.5 -17t-121.5 17t-98 51.5t-65.5 88t-24 125.5v433h214v-425q0 -112 95 -114q96 2 96 114v425h214zM378 904h166v-146h-166v146zM176 904h166v-146h-166v146z" />
    <glyph glyph-name="Yacute" unicode="&#xdd;" horiz-adv-x="725" 
d="M715 700l-246 -478v-222h-214v222l-245 478h240l112 -264l112 264h241zM505 916l-133 -162h-152l107 162h178z" />
    <glyph glyph-name="Thorn" unicode="&#xde;" horiz-adv-x="700" 
d="M287 418v-137h87q32 0 56.5 15.5t24.5 52.5q0 38 -23 53.5t-58 15.5h-87zM383 592q62 0 115 -14t91 -43t59.5 -75t21.5 -111q0 -66 -21.5 -111.5t-59.5 -74t-91 -41.5t-115 -13h-96v-109h-217v700h217v-108h96z" />
    <glyph glyph-name="germandbls" unicode="&#xdf;" horiz-adv-x="711" 
d="M364 716q42 0 88.5 -10t86 -32.5t65.5 -59t26 -89.5q0 -25 -5 -51t-16.5 -48t-29 -39t-42.5 -25q67 -15 105 -55.5t38 -112.5q0 -59 -24 -99t-61 -64.5t-82 -35t-87 -10.5q-40 0 -69.5 5t-54.5 17v154q11 -8 35.5 -12.5t41.5 -4.5q44 0 65 20.5t21 52.5q0 20 -7 31.5
t-18.5 18.5t-27.5 9t-34 2h-66v158h47q32 0 54 15t22 49q0 26 -19 40.5t-49 14.5q-38 0 -60.5 -23.5t-22.5 -75.5v-456h-214v434q0 142 74.5 212t219.5 70z" />
    <glyph glyph-name="agrave" unicode="&#xe0;" horiz-adv-x="619" 
d="M284 189q-29 -7 -46.5 -17t-17.5 -30t13.5 -29.5t37.5 -9.5q38 0 63 25t25 57v26q-2 -1 -11.5 -4.5t-28.5 -8.5l-14 -3.5t-11 -2.5q-5 -2 -10 -3zM211 295q23 3 44 7q18 2 36 4.5t28 4.5q22 4 31 8.5t9 15.5q0 29 -13 41.5t-39 12.5q-52 0 -59 -52h-188
q14 104 77.5 148.5t165.5 44.5q54 0 99 -10.5t77.5 -35.5t50.5 -66.5t18 -104.5v-154q0 -22 5 -32.5t25 -10.5h11v-131h-84q-39 0 -72 18t-46 60q-19 -24 -39.5 -39.5t-42 -24t-45.5 -11.5t-50 -3q-36 0 -68.5 8t-57 26t-39.5 46.5t-15 68.5q0 42 14.5 70t39.5 46.5t58 28.5
t69 16zM290 731l107 -162h-151l-134 162h178z" />
    <glyph glyph-name="aacute" unicode="&#xe1;" horiz-adv-x="619" 
d="M284 189q-29 -7 -46.5 -17t-17.5 -30t13.5 -29.5t37.5 -9.5q38 0 63 25t25 57v26q-2 -1 -11.5 -4.5t-28.5 -8.5l-14 -3.5t-11 -2.5q-5 -2 -10 -3zM211 295q23 3 44 7q18 2 36 4.5t28 4.5q22 4 31 8.5t9 15.5q0 29 -13 41.5t-39 12.5q-52 0 -59 -52h-188
q14 104 77.5 148.5t165.5 44.5q54 0 99 -10.5t77.5 -35.5t50.5 -66.5t18 -104.5v-154q0 -22 5 -32.5t25 -10.5h11v-131h-84q-39 0 -72 18t-46 60q-19 -24 -39.5 -39.5t-42 -24t-45.5 -11.5t-50 -3q-36 0 -68.5 8t-57 26t-39.5 46.5t-15 68.5q0 42 14.5 70t39.5 46.5t58 28.5
t69 16zM517 731l-133 -162h-152l107 162h178z" />
    <glyph glyph-name="acircumflex" unicode="&#xe2;" horiz-adv-x="619" 
d="M284 189q-29 -7 -46.5 -17t-17.5 -30t13.5 -29.5t37.5 -9.5q38 0 63 25t25 57v26q-2 -1 -11.5 -4.5t-28.5 -8.5l-14 -3.5t-11 -2.5q-5 -2 -10 -3zM211 295q23 3 44 7q18 2 36 4.5t28 4.5q22 4 31 8.5t9 15.5q0 29 -13 41.5t-39 12.5q-52 0 -59 -52h-188
q14 104 77.5 148.5t165.5 44.5q54 0 99 -10.5t77.5 -35.5t50.5 -66.5t18 -104.5v-154q0 -22 5 -32.5t25 -10.5h11v-131h-84q-39 0 -72 18t-46 60q-19 -24 -39.5 -39.5t-42 -24t-45.5 -11.5t-50 -3q-36 0 -68.5 8t-57 26t-39.5 46.5t-15 68.5q0 42 14.5 70t39.5 46.5t58 28.5
t69 16zM394 731l108 -162h-140l-53 76l-53 -76h-140l108 162h170z" />
    <glyph glyph-name="atilde" unicode="&#xe3;" horiz-adv-x="619" 
d="M284 189q-29 -7 -46.5 -17t-17.5 -30t13.5 -29.5t37.5 -9.5q38 0 63 25t25 57v26q-2 -1 -11.5 -4.5t-28.5 -8.5l-14 -3.5t-11 -2.5q-5 -2 -10 -3zM211 295q23 3 44 7q18 2 36 4.5t28 4.5q22 4 31 8.5t9 15.5q0 29 -13 41.5t-39 12.5q-52 0 -59 -52h-188
q14 104 77.5 148.5t165.5 44.5q54 0 99 -10.5t77.5 -35.5t50.5 -66.5t18 -104.5v-154q0 -22 5 -32.5t25 -10.5h11v-131h-84q-39 0 -72 18t-46 60q-19 -24 -39.5 -39.5t-42 -24t-45.5 -11.5t-50 -3q-36 0 -68.5 8t-57 26t-39.5 46.5t-15 68.5q0 42 14.5 70t39.5 46.5t58 28.5
t69 16zM228 739q26 0 46.5 -8t38 -18t33 -18t30.5 -8q21 0 28.5 14.5t7.5 33.5h110q0 -30 -7.5 -60.5t-23.5 -55t-41 -40t-61 -15.5q-26 0 -47 8.5t-38.5 18t-32.5 18t-29 8.5q-20 0 -28 -16t-8 -34h-111q1 33 8.5 64t23 55t40.5 38.5t61 14.5z" />
    <glyph glyph-name="adieresis" unicode="&#xe4;" horiz-adv-x="619" 
d="M284 189q-29 -7 -46.5 -17t-17.5 -30t13.5 -29.5t37.5 -9.5q38 0 63 25t25 57v26q-2 -1 -11.5 -4.5t-28.5 -8.5l-14 -3.5t-11 -2.5q-5 -2 -10 -3zM211 295q23 3 44 7q18 2 36 4.5t28 4.5q22 4 31 8.5t9 15.5q0 29 -13 41.5t-39 12.5q-52 0 -59 -52h-188
q14 104 77.5 148.5t165.5 44.5q54 0 99 -10.5t77.5 -35.5t50.5 -66.5t18 -104.5v-154q0 -22 5 -32.5t25 -10.5h11v-131h-84q-39 0 -72 18t-46 60q-19 -24 -39.5 -39.5t-42 -24t-45.5 -11.5t-50 -3q-36 0 -68.5 8t-57 26t-39.5 46.5t-15 68.5q0 42 14.5 70t39.5 46.5t58 28.5
t69 16zM327 719h166v-146h-166v146zM125 719h166v-146h-166v146z" />
    <glyph glyph-name="aring" unicode="&#xe5;" horiz-adv-x="619" 
d="M284 189q-29 -7 -46.5 -17t-17.5 -30t13.5 -29.5t37.5 -9.5q38 0 63 25t25 57v26q-2 -1 -11.5 -4.5t-28.5 -8.5l-14 -3.5t-11 -2.5q-5 -2 -10 -3zM211 295q23 3 44 7q18 2 36 4.5t28 4.5q22 4 31 8.5t9 15.5q0 29 -13 41.5t-39 12.5q-52 0 -59 -52h-188
q14 104 77.5 148.5t165.5 44.5q54 0 99 -10.5t77.5 -35.5t50.5 -66.5t18 -104.5v-154q0 -22 5 -32.5t25 -10.5h11v-131h-84q-39 0 -72 18t-46 60q-19 -24 -39.5 -39.5t-42 -24t-45.5 -11.5t-50 -3q-36 0 -68.5 8t-57 26t-39.5 46.5t-15 68.5q0 42 14.5 70t39.5 46.5t58 28.5
t69 16zM310 689q-14 0 -23.5 -9.5t-9.5 -23.5t9.5 -23.5t23.5 -9.5t23 9.5t9 23.5t-9 23.5t-23 9.5zM310 769q24 0 45.5 -8t37.5 -23t25.5 -35.5t9.5 -46.5q0 -25 -9.5 -45.5t-25.5 -35.5t-37.5 -23t-45.5 -8t-45.5 8t-38 22.5t-26 35.5t-9.5 46q0 24 9.5 45t25.5 36
t37.5 23.5t46.5 8.5z" />
    <glyph glyph-name="ae" unicode="&#xe6;" horiz-adv-x="945" 
d="M303 530q54 0 99 -10.5t77.5 -35.5t50.5 -66.5t18 -104.5l-189 -102q-2 -1 -11.5 -4.5t-28.5 -8.5l-14 -3.5t-11 -2.5q-5 -2 -10 -3q-29 -7 -46.5 -17t-17.5 -30t13.5 -29.5t37.5 -9.5q19 0 36 7.5t30 20t20.5 28t7.5 30.5l53 -102q-19 -33 -44 -53t-52.5 -31
t-56.5 -14.5t-55 -3.5q-36 0 -68.5 8t-57 26t-39.5 46.5t-15 69.5t14.5 69t39.5 46.5t58 29t69 16.5q23 3 44 6q18 2 36 4.5t28 4.5q22 4 31 8.5t9 15.5q0 29 -13 41.5t-39 12.5q-52 0 -59 -52h-188q14 104 77.5 148.5t165.5 44.5zM636 383q-34 0 -52 -20.5t-25 -52.5h163
q-7 33 -27 53t-59 20zM636 530q93 0 161 -42t100 -115q17 -40 21 -83.5t-4 -85.5h-356q7 -34 26.5 -55t59.5 -21q25 0 47.5 7.5t34.5 30.5h181q-16 -50 -42.5 -84.5t-61 -56t-75.5 -31t-86 -9.5q-62 0 -115 19.5t-91.5 55.5t-60.5 86.5t-22 111.5t21 111t58.5 86t89.5 55.5
t114 19.5z" />
    <glyph glyph-name="ccedilla" unicode="&#xe7;" horiz-adv-x="600" 
d="M308 530q109 0 180 -56t86 -158h-185q-5 34 -26.5 50.5t-54.5 16.5q-27 0 -44.5 -10.5t-28 -28t-14.5 -40t-4 -46.5t4 -46.5t14.5 -40t28 -28.5t44.5 -11q33 0 54.5 17t26.5 50h185q-15 -102 -86 -158t-180 -56q-62 0 -114 19.5t-89.5 55.5t-58.5 86.5t-21 111.5t21 111
t58.5 86t89.5 55.5t114 19.5zM315 -36q48 -5 73.5 -26t25.5 -68q0 -30 -10.5 -51.5t-29.5 -35t-44.5 -19.5t-54.5 -6q-19 0 -45 5.5t-44 14.5v90l40.5 -13.5t41.5 -7.5q17 0 29 5.5t12 21.5q0 9 -7 13.5t-16 7t-19 2.5h-16h-30l31 103h74z" />
    <glyph glyph-name="egrave" unicode="&#xe8;" 
d="M308 383q-34 0 -52 -20.5t-25 -52.5h163q-7 33 -27 53t-59 20zM308 530q93 0 161 -42t100 -115q17 -40 21 -83.5t-3 -85.5h-357q7 -34 26.5 -55t59.5 -21q25 0 47.5 7.5t34.5 30.5h181q-16 -50 -42.5 -84.5t-60.5 -56t-75 -31t-87 -9.5q-62 0 -115 19.5t-91.5 55.5
t-60.5 86.5t-22 111.5t21 111t58.5 86t89.5 55.5t114 19.5zM289 731l107 -162h-151l-134 162h178z" />
    <glyph glyph-name="eacute" unicode="&#xe9;" 
d="M308 383q-34 0 -52 -20.5t-25 -52.5h163q-7 33 -27 53t-59 20zM308 530q93 0 161 -42t100 -115q17 -40 21 -83.5t-3 -85.5h-357q7 -34 26.5 -55t59.5 -21q25 0 47.5 7.5t34.5 30.5h181q-16 -50 -42.5 -84.5t-60.5 -56t-75 -31t-87 -9.5q-62 0 -115 19.5t-91.5 55.5
t-60.5 86.5t-22 111.5t21 111t58.5 86t89.5 55.5t114 19.5zM516 731l-133 -162h-152l107 162h178z" />
    <glyph glyph-name="ecircumflex" unicode="&#xea;" 
d="M308 383q-34 0 -52 -20.5t-25 -52.5h163q-7 33 -27 53t-59 20zM308 530q93 0 161 -42t100 -115q17 -40 21 -83.5t-3 -85.5h-357q7 -34 26.5 -55t59.5 -21q25 0 47.5 7.5t34.5 30.5h181q-16 -50 -42.5 -84.5t-60.5 -56t-75 -31t-87 -9.5q-62 0 -115 19.5t-91.5 55.5
t-60.5 86.5t-22 111.5t21 111t58.5 86t89.5 55.5t114 19.5zM393 731l108 -162h-140l-53 76l-53 -76h-140l108 162h170z" />
    <glyph glyph-name="edieresis" unicode="&#xeb;" 
d="M308 383q-34 0 -52 -20.5t-25 -52.5h163q-7 33 -27 53t-59 20zM308 530q93 0 161 -42t100 -115q17 -40 21 -83.5t-3 -85.5h-357q7 -34 26.5 -55t59.5 -21q25 0 47.5 7.5t34.5 30.5h181q-16 -50 -42.5 -84.5t-60.5 -56t-75 -31t-87 -9.5q-62 0 -115 19.5t-91.5 55.5
t-60.5 86.5t-22 111.5t21 111t58.5 86t89.5 55.5t114 19.5zM326 719h166v-146h-166v146zM124 719h166v-146h-166v146z" />
    <glyph glyph-name="igrave" unicode="&#xec;" horiz-adv-x="282" 
d="M40 515h202v-515h-202v515zM109 731l107 -162h-151l-134 162h178z" />
    <glyph glyph-name="iacute" unicode="&#xed;" horiz-adv-x="282" 
d="M40 515h202v-515h-202v515zM344 731l-133 -162h-152l107 162h178z" />
    <glyph glyph-name="icircumflex" unicode="&#xee;" horiz-adv-x="282" 
d="M40 515h202v-515h-202v515zM226 731l108 -162h-140l-53 76l-53 -76h-140l108 162h170z" />
    <glyph glyph-name="idieresis" unicode="&#xef;" horiz-adv-x="282" 
d="M40 515h202v-515h-202v515zM159 719h166v-146h-166v146zM-43 719h166v-146h-166v146z" />
    <glyph glyph-name="eth" unicode="&#xf0;" horiz-adv-x="670" 
d="M444 749l-191 -243l-57 45l192 243zM322 343q-43 0 -64.5 -26t-21.5 -69q0 -19 5 -36.5t15.5 -31t26 -22t37.5 -8.5t39 9t28 23.5t17 33.5t7 40q-4 35 -28 61t-61 26zM285 499q35 0 72 -12.5t63 -36.5q-15 37 -44 62.5t-66 41.5t-78.5 23t-80.5 7l1 161q98 0 185 -25.5
t152 -76.5t103 -128t38 -180q0 -69 -17 -132.5t-54.5 -112t-96.5 -77t-143 -28.5q-59 0 -110 18.5t-88.5 53.5t-58.5 85t-21 112q0 55 17 100t48.5 77.5t76.5 50t102 17.5z" />
    <glyph glyph-name="ntilde" unicode="&#xf1;" horiz-adv-x="591" 
d="M372 530q47 0 82.5 -15t59 -41.5t35 -62t11.5 -77.5v-334h-201v291q0 31 -11.5 51t-45.5 20q-35 0 -47.5 -24.5t-12.5 -58.5v-279h-202v515h176l11 -50q26 35 60 50t85 15zM214 739q26 0 46.5 -8t38 -18t33 -18t30.5 -8q21 0 28.5 14.5t7.5 33.5h110q0 -30 -7.5 -60.5
t-23.5 -55t-41 -40t-61 -15.5q-26 0 -47 8.5t-38.5 18t-32.5 18t-29 8.5q-20 0 -28 -16t-8 -34h-111q1 33 8.5 64t23 55t40.5 38.5t61 14.5z" />
    <glyph glyph-name="ograve" unicode="&#xf2;" 
d="M308 371q-27 0 -44.5 -9.5t-28 -25.5t-14.5 -36.5t-4 -41.5t4 -41.5t14.5 -36.5t28 -26t44.5 -10t44.5 10t28 26t14.5 36.5t4 41.5t-4 41.5t-14.5 36.5t-28 25.5t-44.5 9.5zM308 530q62 0 114 -19.5t89.5 -55.5t58.5 -86t21 -111t-21 -111.5t-58.5 -86.5t-89.5 -55.5
t-114 -19.5t-114 19.5t-89.5 55.5t-58.5 86.5t-21 111.5t21 111t58.5 86t89.5 55.5t114 19.5zM287 731l107 -162h-151l-134 162h178z" />
    <glyph glyph-name="oacute" unicode="&#xf3;" 
d="M308 371q-27 0 -44.5 -9.5t-28 -25.5t-14.5 -36.5t-4 -41.5t4 -41.5t14.5 -36.5t28 -26t44.5 -10t44.5 10t28 26t14.5 36.5t4 41.5t-4 41.5t-14.5 36.5t-28 25.5t-44.5 9.5zM308 530q62 0 114 -19.5t89.5 -55.5t58.5 -86t21 -111t-21 -111.5t-58.5 -86.5t-89.5 -55.5
t-114 -19.5t-114 19.5t-89.5 55.5t-58.5 86.5t-21 111.5t21 111t58.5 86t89.5 55.5t114 19.5zM517 731l-133 -162h-152l107 162h178z" />
    <glyph glyph-name="ocircumflex" unicode="&#xf4;" 
d="M308 371q-27 0 -44.5 -9.5t-28 -25.5t-14.5 -36.5t-4 -41.5t4 -41.5t14.5 -36.5t28 -26t44.5 -10t44.5 10t28 26t14.5 36.5t4 41.5t-4 41.5t-14.5 36.5t-28 25.5t-44.5 9.5zM308 530q62 0 114 -19.5t89.5 -55.5t58.5 -86t21 -111t-21 -111.5t-58.5 -86.5t-89.5 -55.5
t-114 -19.5t-114 19.5t-89.5 55.5t-58.5 86.5t-21 111.5t21 111t58.5 86t89.5 55.5t114 19.5zM393 731l108 -162h-140l-53 76l-53 -76h-140l108 162h170z" />
    <glyph glyph-name="otilde" unicode="&#xf5;" 
d="M308 371q-27 0 -44.5 -9.5t-28 -25.5t-14.5 -36.5t-4 -41.5t4 -41.5t14.5 -36.5t28 -26t44.5 -10t44.5 10t28 26t14.5 36.5t4 41.5t-4 41.5t-14.5 36.5t-28 25.5t-44.5 9.5zM308 530q62 0 114 -19.5t89.5 -55.5t58.5 -86t21 -111t-21 -111.5t-58.5 -86.5t-89.5 -55.5
t-114 -19.5t-114 19.5t-89.5 55.5t-58.5 86.5t-21 111.5t21 111t58.5 86t89.5 55.5t114 19.5zM227 739q26 0 46.5 -8t38 -18t33 -18t30.5 -8q21 0 28.5 14.5t7.5 33.5h110q0 -30 -7.5 -60.5t-23.5 -55t-41 -40t-61 -15.5q-26 0 -47 8.5t-38.5 18t-32.5 18t-29 8.5
q-20 0 -28 -16t-8 -34h-111q1 33 8.5 64t23 55t40.5 38.5t61 14.5z" />
    <glyph glyph-name="odieresis" unicode="&#xf6;" 
d="M308 371q-27 0 -44.5 -9.5t-28 -25.5t-14.5 -36.5t-4 -41.5t4 -41.5t14.5 -36.5t28 -26t44.5 -10t44.5 10t28 26t14.5 36.5t4 41.5t-4 41.5t-14.5 36.5t-28 25.5t-44.5 9.5zM308 530q62 0 114 -19.5t89.5 -55.5t58.5 -86t21 -111t-21 -111.5t-58.5 -86.5t-89.5 -55.5
t-114 -19.5t-114 19.5t-89.5 55.5t-58.5 86.5t-21 111.5t21 111t58.5 86t89.5 55.5t114 19.5zM326 719h166v-146h-166v146zM124 719h166v-146h-166v146z" />
    <glyph glyph-name="divide" unicode="&#xf7;" horiz-adv-x="654" 
d="M327 593q20 0 37 -7.5t29.5 -20t20 -29.5t7.5 -37q0 -19 -7.5 -36.5t-20 -30t-29.5 -20t-37 -7.5q-19 0 -36.5 7.5t-30 20t-20 30t-7.5 36.5q0 20 7.5 37t20 29.5t30 20t36.5 7.5zM594 377v-176h-534v176h534zM327 173q20 0 37 -7.5t29.5 -20t20 -29.5t7.5 -37
q0 -19 -7.5 -36.5t-20 -30t-29.5 -20t-37 -7.5q-19 0 -36.5 7.5t-30 20t-20 30t-7.5 36.5q0 20 7.5 37t20 29.5t30 20t36.5 7.5z" />
    <glyph glyph-name="oslash" unicode="&#xf8;" 
d="M308 371q-27 0 -44.5 -9.5t-28 -25.5t-14.5 -36.5t-4 -41.5t4 -41.5t14.5 -36.5t28 -26t44.5 -10t44.5 10t28 26t14.5 36.5t4 41.5t-4 41.5t-14.5 36.5t-28 25.5t-44.5 9.5zM308 530q62 0 114 -19.5t89.5 -55.5t58.5 -86t21 -111t-21 -111.5t-58.5 -86.5t-89.5 -55.5
t-114 -19.5t-114 19.5t-89.5 55.5t-58.5 86.5t-21 111.5t21 111t58.5 86t89.5 55.5t114 19.5zM165 -15h-128l414 545h128z" />
    <glyph glyph-name="ugrave" unicode="&#xf9;" horiz-adv-x="591" 
d="M550 515v-515h-176l-11 50q-26 -35 -60 -50t-84 -15q-47 0 -82.5 15t-59 41.5t-35.5 62.5t-12 78v333h202v-290q0 -32 11.5 -51.5t45.5 -19.5t47 24t13 58v279h201zM257 731l107 -162h-151l-134 162h178z" />
    <glyph glyph-name="uacute" unicode="&#xfa;" horiz-adv-x="591" 
d="M550 515v-515h-176l-11 50q-26 -35 -60 -50t-84 -15q-47 0 -82.5 15t-59 41.5t-35.5 62.5t-12 78v333h202v-290q0 -32 11.5 -51.5t45.5 -19.5t47 24t13 58v279h201zM503 731l-133 -162h-152l107 162h178z" />
    <glyph glyph-name="ucircumflex" unicode="&#xfb;" horiz-adv-x="591" 
d="M550 515v-515h-176l-11 50q-26 -35 -60 -50t-84 -15q-47 0 -82.5 15t-59 41.5t-35.5 62.5t-12 78v333h202v-290q0 -32 11.5 -51.5t45.5 -19.5t47 24t13 58v279h201zM380 731l108 -162h-140l-53 76l-53 -76h-140l108 162h170z" />
    <glyph glyph-name="udieresis" unicode="&#xfc;" horiz-adv-x="591" 
d="M550 515v-515h-176l-11 50q-26 -35 -60 -50t-84 -15q-47 0 -82.5 15t-59 41.5t-35.5 62.5t-12 78v333h202v-290q0 -32 11.5 -51.5t45.5 -19.5t47 24t13 58v279h201zM313 719h166v-146h-166v146zM111 719h166v-146h-166v146z" />
    <glyph glyph-name="yacute" unicode="&#xfd;" horiz-adv-x="593" 
d="M225 516l94 -337l-51 -179h-82l-176 516h215zM582 516l-177 -516q-18 -58 -37.5 -101t-49.5 -71t-75 -42t-114 -14q-11 0 -24 2t-26 5v160q8 -2 17.5 -3.5t22.5 -1.5q36 0 55.5 18t27.5 44l15 49l71 193l79 278h215zM509 735l-133 -162h-152l107 162h178z" />
    <glyph glyph-name="thorn" unicode="&#xfe;" horiz-adv-x="661" 
d="M349 144q28 0 47.5 9.5t32 25.5t18 36.5t5.5 42.5q0 23 -6.5 43t-19.5 36t-32 25t-45 9t-45.5 -9.5t-32 -25t-19 -36t-6.5 -42.5q0 -23 6.5 -44t19.5 -36.5t32.5 -24.5t44.5 -9zM387 531q57 0 103 -21.5t78 -59t49.5 -87t17.5 -105.5q0 -55 -15.5 -105t-45.5 -87
t-75.5 -59t-105.5 -22q-35 0 -76 11.5t-71 41.5v-237h-196v914h196v-240q53 56 141 56z" />
    <glyph glyph-name="ydieresis" unicode="&#xff;" horiz-adv-x="593" 
d="M225 516l94 -337l-51 -179h-82l-176 516h215zM582 516l-177 -516q-18 -58 -37.5 -101t-49.5 -71t-75 -42t-114 -14q-11 0 -24 2t-26 5v160q8 -2 17.5 -3.5t22.5 -1.5q36 0 55.5 18t27.5 44l15 49l71 193l79 278h215zM314 719h166v-146h-166v146zM112 719h166v-146h-166
v146z" />
    <glyph glyph-name="Amacron" unicode="&#x100;" horiz-adv-x="777" 
d="M522 700l244 -700h-236l-30 105h-224l-32 -105h-234l246 700h266zM325 273h126l-63 216zM231 900h313v-121h-313v121z" />
    <glyph glyph-name="amacron" unicode="&#x101;" horiz-adv-x="619" 
d="M284 189q-29 -7 -46.5 -17t-17.5 -30t13.5 -29.5t37.5 -9.5q38 0 63 25t25 57v26q-2 -1 -11.5 -4.5t-28.5 -8.5l-14 -3.5t-11 -2.5q-5 -2 -10 -3zM211 295q23 3 44 7q18 2 36 4.5t28 4.5q22 4 31 8.5t9 15.5q0 29 -13 41.5t-39 12.5q-52 0 -59 -52h-188
q14 104 77.5 148.5t165.5 44.5q54 0 99 -10.5t77.5 -35.5t50.5 -66.5t18 -104.5v-154q0 -22 5 -32.5t25 -10.5h11v-131h-84q-39 0 -72 18t-46 60q-19 -24 -39.5 -39.5t-42 -24t-45.5 -11.5t-50 -3q-36 0 -68.5 8t-57 26t-39.5 46.5t-15 68.5q0 42 14.5 70t39.5 46.5t58 28.5
t69 16zM152 715h313v-121h-313v121z" />
    <glyph glyph-name="Abreve" unicode="&#x102;" horiz-adv-x="777" 
d="M522 700l244 -700h-236l-30 105h-224l-32 -105h-234l246 700h266zM325 273h126l-63 216zM389 862q26 0 34.5 15.5t11.5 36.5h111q-2 -75 -40.5 -121t-116.5 -46q-79 0 -117 46t-41 121h111q3 -21 11.5 -36.5t35.5 -15.5z" />
    <glyph glyph-name="abreve" unicode="&#x103;" horiz-adv-x="619" 
d="M284 189q-29 -7 -46.5 -17t-17.5 -30t13.5 -29.5t37.5 -9.5q38 0 63 25t25 57v26q-2 -1 -11.5 -4.5t-28.5 -8.5l-14 -3.5t-11 -2.5q-5 -2 -10 -3zM211 295q23 3 44 7q18 2 36 4.5t28 4.5q22 4 31 8.5t9 15.5q0 29 -13 41.5t-39 12.5q-52 0 -59 -52h-188
q14 104 77.5 148.5t165.5 44.5q54 0 99 -10.5t77.5 -35.5t50.5 -66.5t18 -104.5v-154q0 -22 5 -32.5t25 -10.5h11v-131h-84q-39 0 -72 18t-46 60q-19 -24 -39.5 -39.5t-42 -24t-45.5 -11.5t-50 -3q-36 0 -68.5 8t-57 26t-39.5 46.5t-15 68.5q0 42 14.5 70t39.5 46.5t58 28.5
t69 16zM310 677q26 0 34.5 15.5t11.5 36.5h111q-2 -75 -40.5 -121t-116.5 -46q-79 0 -117 46t-41 121h111q3 -21 11.5 -36.5t35.5 -15.5z" />
    <glyph glyph-name="Aogonek" unicode="&#x104;" horiz-adv-x="777" 
d="M522 700l244 -700h-236l-30 105h-224l-32 -105h-234l246 700h266zM325 273h126l-63 216zM766 0q-32 -16 -48 -38t-16 -48q0 -12 7.5 -21t21.5 -9q8 0 17.5 2.5t16.5 6.5l31 -86q-24 -16 -54 -22.5t-59 -6.5q-25 0 -47.5 6t-39.5 19t-27 32t-10 46q0 30 15 52.5t37.5 37.5
t49 24.5t48.5 13.5z" />
    <glyph glyph-name="aogonek" unicode="&#x105;" horiz-adv-x="619" 
d="M284 189q-29 -7 -46.5 -17t-17.5 -30t13.5 -29.5t37.5 -9.5q38 0 63 25t25 57v26q-2 -1 -11.5 -4.5t-28.5 -8.5l-14 -3.5t-11 -2.5q-5 -2 -10 -3zM211 295q23 3 44 7q18 2 36 4.5t28 4.5q22 4 31 8.5t9 15.5q0 29 -13 41.5t-39 12.5q-52 0 -59 -52h-188
q14 104 77.5 148.5t165.5 44.5q54 0 99 -10.5t77.5 -35.5t50.5 -66.5t18 -104.5v-154q0 -22 5 -32.5t25 -10.5h11v-131h-84q-39 0 -72 18t-46 60q-19 -24 -39.5 -39.5t-42 -24t-45.5 -11.5t-50 -3q-36 0 -68.5 8t-57 26t-39.5 46.5t-15 68.5q0 42 14.5 70t39.5 46.5t58 28.5
t69 16zM558 0q-32 -16 -48 -38t-16 -48q0 -12 7.5 -21t21.5 -9q8 0 17.5 2.5t16.5 6.5l31 -86q-24 -16 -54 -22.5t-59 -6.5q-25 0 -47.5 6t-39.5 19t-27 32t-10 46q0 30 15 52.5t37.5 37.5t49 24.5t48.5 13.5z" />
    <glyph glyph-name="Cacute" unicode="&#x106;" horiz-adv-x="755" 
d="M380 715q75 0 136 -20.5t106 -59.5t71.5 -96t31.5 -131h-214q-3 27 -12 51t-25.5 42t-40 28t-53.5 10q-37 0 -62.5 -16.5t-41.5 -43.5t-23.5 -61t-7.5 -68t7.5 -68t23.5 -61t41.5 -43.5t62.5 -16.5q30 0 53.5 10t40 28t25.5 42t12 51h214q-5 -73 -31.5 -130.5
t-71.5 -96.5t-106 -59.5t-136 -20.5q-83 0 -148 27t-109.5 75.5t-68 115.5t-23.5 147t23.5 147t68 115.5t109.5 75.5t148 27zM590 916l-133 -162h-152l107 162h178z" />
    <glyph glyph-name="cacute" unicode="&#x107;" horiz-adv-x="600" 
d="M308 530q109 0 180 -56t86 -158h-185q-5 34 -26.5 50.5t-54.5 16.5q-27 0 -44.5 -10.5t-28 -28t-14.5 -40t-4 -46.5t4 -46.5t14.5 -40t28 -28.5t44.5 -11q33 0 54.5 17t26.5 50h185q-15 -102 -86 -158t-180 -56q-62 0 -114 19.5t-89.5 55.5t-58.5 86.5t-21 111.5t21 111
t58.5 86t89.5 55.5t114 19.5zM519 731l-133 -162h-152l107 162h178z" />
    <glyph glyph-name="Ccircumflex" unicode="&#x108;" horiz-adv-x="755" 
d="M380 715q75 0 136 -20.5t106 -59.5t71.5 -96t31.5 -131h-214q-3 27 -12 51t-25.5 42t-40 28t-53.5 10q-37 0 -62.5 -16.5t-41.5 -43.5t-23.5 -61t-7.5 -68t7.5 -68t23.5 -61t41.5 -43.5t62.5 -16.5q30 0 53.5 10t40 28t25.5 42t12 51h214q-5 -73 -31.5 -130.5
t-71.5 -96.5t-106 -59.5t-136 -20.5q-83 0 -148 27t-109.5 75.5t-68 115.5t-23.5 147t23.5 147t68 115.5t109.5 75.5t148 27zM462 916l108 -162h-140l-53 76l-53 -76h-140l108 162h170z" />
    <glyph glyph-name="ccircumflex" unicode="&#x109;" horiz-adv-x="600" 
d="M308 530q109 0 180 -56t86 -158h-185q-5 34 -26.5 50.5t-54.5 16.5q-27 0 -44.5 -10.5t-28 -28t-14.5 -40t-4 -46.5t4 -46.5t14.5 -40t28 -28.5t44.5 -11q33 0 54.5 17t26.5 50h185q-15 -102 -86 -158t-180 -56q-62 0 -114 19.5t-89.5 55.5t-58.5 86.5t-21 111.5t21 111
t58.5 86t89.5 55.5t114 19.5zM385 731l108 -162h-140l-53 76l-53 -76h-140l108 162h170z" />
    <glyph glyph-name="Cdotaccent" unicode="&#x10a;" horiz-adv-x="755" 
d="M380 715q75 0 136 -20.5t106 -59.5t71.5 -96t31.5 -131h-214q-3 27 -12 51t-25.5 42t-40 28t-53.5 10q-37 0 -62.5 -16.5t-41.5 -43.5t-23.5 -61t-7.5 -68t7.5 -68t23.5 -61t41.5 -43.5t62.5 -16.5q30 0 53.5 10t40 28t25.5 42t12 51h214q-5 -73 -31.5 -130.5
t-71.5 -96.5t-106 -59.5t-136 -20.5q-83 0 -148 27t-109.5 75.5t-68 115.5t-23.5 147t23.5 147t68 115.5t109.5 75.5t148 27zM294 904h166v-146h-166v146z" />
    <glyph glyph-name="cdotaccent" unicode="&#x10b;" horiz-adv-x="600" 
d="M308 530q109 0 180 -56t86 -158h-185q-5 34 -26.5 50.5t-54.5 16.5q-27 0 -44.5 -10.5t-28 -28t-14.5 -40t-4 -46.5t4 -46.5t14.5 -40t28 -28.5t44.5 -11q33 0 54.5 17t26.5 50h185q-15 -102 -86 -158t-180 -56q-62 0 -114 19.5t-89.5 55.5t-58.5 86.5t-21 111.5t21 111
t58.5 86t89.5 55.5t114 19.5zM217 719h166v-146h-166v146z" />
    <glyph glyph-name="Ccaron" unicode="&#x10c;" horiz-adv-x="755" 
d="M380 715q75 0 136 -20.5t106 -59.5t71.5 -96t31.5 -131h-214q-3 27 -12 51t-25.5 42t-40 28t-53.5 10q-37 0 -62.5 -16.5t-41.5 -43.5t-23.5 -61t-7.5 -68t7.5 -68t23.5 -61t41.5 -43.5t62.5 -16.5q30 0 53.5 10t40 28t25.5 42t12 51h214q-5 -73 -31.5 -130.5
t-71.5 -96.5t-106 -59.5t-136 -20.5q-83 0 -148 27t-109.5 75.5t-68 115.5t-23.5 147t23.5 147t68 115.5t109.5 75.5t148 27zM571 918l-108 -162h-170l-108 162h140l53 -76l53 76h140z" />
    <glyph glyph-name="ccaron" unicode="&#x10d;" horiz-adv-x="600" 
d="M308 530q109 0 180 -56t86 -158h-185q-5 34 -26.5 50.5t-54.5 16.5q-27 0 -44.5 -10.5t-28 -28t-14.5 -40t-4 -46.5t4 -46.5t14.5 -40t28 -28.5t44.5 -11q33 0 54.5 17t26.5 50h185q-15 -102 -86 -158t-180 -56q-62 0 -114 19.5t-89.5 55.5t-58.5 86.5t-21 111.5t21 111
t58.5 86t89.5 55.5t114 19.5zM493 733l-108 -162h-170l-108 162h140l53 -76l53 76h140z" />
    <glyph glyph-name="Dcaron" unicode="&#x10e;" horiz-adv-x="741" 
d="M274 526v-352h53q96 0 136.5 46t40.5 130t-40.5 130t-136.5 46h-53zM333 700q83 0 152.5 -20.5t119.5 -63.5t77.5 -109t27.5 -157t-27.5 -157t-77.5 -109t-119.5 -63.5t-152.5 -20.5h-273v700h273zM564 918l-108 -162h-170l-108 162h140l53 -76l53 76h140z" />
    <glyph glyph-name="dcaron" unicode="&#x10f;" horiz-adv-x="832" 
d="M311 371q-28 0 -47.5 -9.5t-31.5 -25t-17.5 -36t-5.5 -42.5q0 -46 25.5 -79.5t76.5 -33.5q26 0 45.5 9.5t32 25.5t19 36t6.5 42q0 47 -26 80t-77 33zM267 530q35 0 76 -11.5t71 -40.5v222h196v-700h-176l-11 51q-26 -32 -64 -49t-86 -17q-57 0 -103 21.5t-78 59t-49.5 87
t-17.5 105.5t15.5 105t45.5 86.5t75.5 59t105.5 21.5zM832 700l-58 -192h-127l31 192h154z" />
    <glyph glyph-name="Dcroat" unicode="&#x110;" horiz-adv-x="741" 
d="M16 411h313v-122h-313v122zM274 526v-352h53q96 0 136.5 46t40.5 130t-40.5 130t-136.5 46h-53zM333 700q83 0 152.5 -20.5t119.5 -63.5t77.5 -109t27.5 -157t-27.5 -157t-77.5 -109t-119.5 -63.5t-152.5 -20.5h-273v700h273z" />
    <glyph glyph-name="dcroat" unicode="&#x111;" horiz-adv-x="651" 
d="M341 665h313v-121h-313v121zM311 371q-28 0 -47.5 -9.5t-31.5 -25t-17.5 -36t-5.5 -42.5q0 -46 25.5 -79.5t76.5 -33.5q26 0 45.5 9.5t32 25.5t19 36t6.5 42q0 47 -26 80t-77 33zM267 530q35 0 76 -11.5t71 -40.5v222h196v-700h-176l-11 51q-26 -32 -64 -49t-86 -17
q-57 0 -103 21.5t-78 59t-49.5 87t-17.5 105.5t15.5 105t45.5 86.5t75.5 59t105.5 21.5z" />
    <glyph glyph-name="Emacron" unicode="&#x112;" horiz-adv-x="615" 
d="M574 700v-174h-300v-87h281v-174h-281v-91h300v-174h-514v700h514zM160 900h313v-121h-313v121z" />
    <glyph glyph-name="emacron" unicode="&#x113;" 
d="M308 383q-34 0 -52 -20.5t-25 -52.5h163q-7 33 -27 53t-59 20zM308 530q93 0 161 -42t100 -115q17 -40 21 -83.5t-3 -85.5h-357q7 -34 26.5 -55t59.5 -21q25 0 47.5 7.5t34.5 30.5h181q-16 -50 -42.5 -84.5t-60.5 -56t-75 -31t-87 -9.5q-62 0 -115 19.5t-91.5 55.5
t-60.5 86.5t-22 111.5t21 111t58.5 86t89.5 55.5t114 19.5zM151 715h313v-121h-313v121z" />
    <glyph glyph-name="Ebreve" unicode="&#x114;" horiz-adv-x="615" 
d="M574 700v-174h-300v-87h281v-174h-281v-91h300v-174h-514v700h514zM318 862q26 0 34.5 15.5t11.5 36.5h111q-2 -75 -40.5 -121t-116.5 -46q-79 0 -117 46t-41 121h111q3 -21 11.5 -36.5t35.5 -15.5z" />
    <glyph glyph-name="ebreve" unicode="&#x115;" 
d="M308 383q-34 0 -52 -20.5t-25 -52.5h163q-7 33 -27 53t-59 20zM308 530q93 0 161 -42t100 -115q17 -40 21 -83.5t-3 -85.5h-357q7 -34 26.5 -55t59.5 -21q25 0 47.5 7.5t34.5 30.5h181q-16 -50 -42.5 -84.5t-60.5 -56t-75 -31t-87 -9.5q-62 0 -115 19.5t-91.5 55.5
t-60.5 86.5t-22 111.5t21 111t58.5 86t89.5 55.5t114 19.5zM309 677q26 0 34.5 15.5t11.5 36.5h111q-2 -75 -40.5 -121t-116.5 -46q-79 0 -117 46t-41 121h111q3 -21 11.5 -36.5t35.5 -15.5z" />
    <glyph glyph-name="Edotaccent" unicode="&#x116;" horiz-adv-x="615" 
d="M574 700v-174h-300v-87h281v-174h-281v-91h300v-174h-514v700h514zM234 904h166v-146h-166v146z" />
    <glyph glyph-name="edotaccent" unicode="&#x117;" 
d="M308 383q-34 0 -52 -20.5t-25 -52.5h163q-7 33 -27 53t-59 20zM308 530q93 0 161 -42t100 -115q17 -40 21 -83.5t-3 -85.5h-357q7 -34 26.5 -55t59.5 -21q25 0 47.5 7.5t34.5 30.5h181q-16 -50 -42.5 -84.5t-60.5 -56t-75 -31t-87 -9.5q-62 0 -115 19.5t-91.5 55.5
t-60.5 86.5t-22 111.5t21 111t58.5 86t89.5 55.5t114 19.5zM225 719h166v-146h-166v146z" />
    <glyph glyph-name="Eogonek" unicode="&#x118;" horiz-adv-x="615" 
d="M574 700v-173h-300v-88h281v-174h-281v-91h300v-174h-514v700h514zM604 -193q-24 -16 -54 -22.5t-59 -6.5q-25 0 -47.5 6t-39.5 19t-27 32t-10 46q0 30 15 52.5t37.5 37.5t49 24.5t48.5 13.5l57 -9q-32 -16 -48 -38t-16 -48q0 -12 7.5 -21t21.5 -9q8 0 17.5 2.5t16.5 6.5
z" />
    <glyph glyph-name="eogonek" unicode="&#x119;" 
d="M308 383q-34 0 -52 -20.5t-25 -52.5h163q-7 33 -27 53t-59 20zM308 530q93 0 161 -42t100 -115q17 -40 21 -83.5t-3 -85.5h-357q7 -34 26.5 -55t59.5 -21q25 0 47.5 7.5t34.5 30.5h181q-16 -50 -42.5 -84.5t-60.5 -56t-75 -31t-87 -9.5q-62 0 -115 19.5t-91.5 55.5
t-60.5 86.5t-22 111.5t21 111t58.5 86t89.5 55.5t114 19.5zM417 0q-32 -16 -48 -38t-16 -48q0 -12 7.5 -21t21.5 -9q8 0 17.5 2.5t16.5 6.5l31 -86q-24 -16 -54 -22.5t-59 -6.5q-25 0 -47.5 6t-39.5 19t-27 32t-10 46q0 30 15 52.5t37.5 37.5t49 24.5t48.5 13.5z" />
    <glyph glyph-name="Ecaron" unicode="&#x11a;" horiz-adv-x="615" 
d="M574 700v-174h-300v-87h281v-174h-281v-91h300v-174h-514v700h514zM511 918l-108 -162h-170l-108 162h140l53 -76l53 76h140z" />
    <glyph glyph-name="ecaron" unicode="&#x11b;" 
d="M308 383q-34 0 -52 -20.5t-25 -52.5h163q-7 33 -27 53t-59 20zM308 530q93 0 161 -42t100 -115q17 -40 21 -83.5t-3 -85.5h-357q7 -34 26.5 -55t59.5 -21q25 0 47.5 7.5t34.5 30.5h181q-16 -50 -42.5 -84.5t-60.5 -56t-75 -31t-87 -9.5q-62 0 -115 19.5t-91.5 55.5
t-60.5 86.5t-22 111.5t21 111t58.5 86t89.5 55.5t114 19.5zM502 733l-108 -162h-170l-108 162h140l53 -76l53 76h140z" />
    <glyph glyph-name="Gcircumflex" unicode="&#x11c;" horiz-adv-x="765" 
d="M379 715q69 0 128 -17.5t103 -51.5t72 -84t37 -114h-217q-11 43 -42.5 67t-80.5 24q-37 0 -62.5 -16.5t-41.5 -43.5t-23.5 -61t-7.5 -68t7.5 -68t25 -61t45 -43.5t67.5 -16.5q64 0 96.5 37t32.5 94h99l11 -152q-30 -71 -89.5 -113t-159.5 -42q-83 0 -148 27t-109.5 75.5
t-68 115.5t-23.5 147t23.5 147t68 115.5t109.5 75.5t148 27zM734 395v-395h-131l-41 244h-193v151h365zM467 916l108 -162h-140l-53 76l-53 -76h-140l108 162h170z" />
    <glyph glyph-name="gcircumflex" unicode="&#x11d;" horiz-adv-x="616" 
d="M295 370q-23 0 -40 -8.5t-28 -22.5t-16.5 -32t-5.5 -36q0 -41 22 -68.5t68 -27.5t68 29t22 67q0 19 -5.5 37t-17 31.5t-28 22t-39.5 8.5zM262 530q42 0 77 -13t58 -43l14 41h165v-464q0 -77 -20 -130.5t-57 -86.5t-87.5 -48t-112.5 -15q-54 0 -99.5 13t-80 39t-57 65
t-29.5 91h185q4 -27 23.5 -45.5t51.5 -18.5q50 0 72 31t22 82v26q-26 -20 -58 -29.5t-64 -9.5q-56 0 -100.5 19.5t-75.5 53.5t-47.5 81t-16.5 101q0 51 16 98t46.5 83t74.5 57.5t100 21.5zM393 731l108 -162h-140l-53 76l-53 -76h-140l108 162h170z" />
    <glyph glyph-name="Gbreve" unicode="&#x11e;" horiz-adv-x="765" 
d="M379 715q69 0 128 -17.5t103 -51.5t72 -84t37 -114h-217q-11 43 -42.5 67t-80.5 24q-37 0 -62.5 -16.5t-41.5 -43.5t-23.5 -61t-7.5 -68t7.5 -68t25 -61t45 -43.5t67.5 -16.5q64 0 96.5 37t32.5 94h99l11 -152q-30 -71 -89.5 -113t-159.5 -42q-83 0 -148 27t-109.5 75.5
t-68 115.5t-23.5 147t23.5 147t68 115.5t109.5 75.5t148 27zM734 395v-395h-131l-41 244h-193v151h365zM383 862q26 0 34.5 15.5t11.5 36.5h111q-2 -75 -40.5 -121t-116.5 -46q-79 0 -117 46t-41 121h111q3 -21 11.5 -36.5t35.5 -15.5z" />
    <glyph glyph-name="gbreve" unicode="&#x11f;" horiz-adv-x="616" 
d="M295 370q-23 0 -40 -8.5t-28 -22.5t-16.5 -32t-5.5 -36q0 -41 22 -68.5t68 -27.5t68 29t22 67q0 19 -5.5 37t-17 31.5t-28 22t-39.5 8.5zM262 530q42 0 77 -13t58 -43l14 41h165v-464q0 -77 -20 -130.5t-57 -86.5t-87.5 -48t-112.5 -15q-54 0 -99.5 13t-80 39t-57 65
t-29.5 91h185q4 -27 23.5 -45.5t51.5 -18.5q50 0 72 31t22 82v26q-26 -20 -58 -29.5t-64 -9.5q-56 0 -100.5 19.5t-75.5 53.5t-47.5 81t-16.5 101q0 51 16 98t46.5 83t74.5 57.5t100 21.5zM309 677q26 0 34.5 15.5t11.5 36.5h111q-2 -75 -40.5 -121t-116.5 -46
q-79 0 -117 46t-41 121h111q3 -21 11.5 -36.5t35.5 -15.5z" />
    <glyph glyph-name="Gdotaccent" unicode="&#x120;" horiz-adv-x="765" 
d="M379 715q69 0 128 -17.5t103 -51.5t72 -84t37 -114h-217q-11 43 -42.5 67t-80.5 24q-37 0 -62.5 -16.5t-41.5 -43.5t-23.5 -61t-7.5 -68t7.5 -68t25 -61t45 -43.5t67.5 -16.5q64 0 96.5 37t32.5 94h99l11 -152q-30 -71 -89.5 -113t-159.5 -42q-83 0 -148 27t-109.5 75.5
t-68 115.5t-23.5 147t23.5 147t68 115.5t109.5 75.5t148 27zM734 395v-395h-131l-41 244h-193v151h365zM299 904h166v-146h-166v146z" />
    <glyph glyph-name="gdotaccent" unicode="&#x121;" horiz-adv-x="616" 
d="M295 370q-23 0 -40 -8.5t-28 -22.5t-16.5 -32t-5.5 -36q0 -41 22 -68.5t68 -27.5t68 29t22 67q0 19 -5.5 37t-17 31.5t-28 22t-39.5 8.5zM262 530q42 0 77 -13t58 -43l14 41h165v-464q0 -77 -20 -130.5t-57 -86.5t-87.5 -48t-112.5 -15q-54 0 -99.5 13t-80 39t-57 65
t-29.5 91h185q4 -27 23.5 -45.5t51.5 -18.5q50 0 72 31t22 82v26q-26 -20 -58 -29.5t-64 -9.5q-56 0 -100.5 19.5t-75.5 53.5t-47.5 81t-16.5 101q0 51 16 98t46.5 83t74.5 57.5t100 21.5zM225 719h166v-146h-166v146z" />
    <glyph glyph-name="uni0122" unicode="&#x122;" horiz-adv-x="765" 
d="M379 715q69 0 128 -17.5t103 -51.5t72 -84t37 -114h-217q-11 43 -42.5 67t-80.5 24q-37 0 -62.5 -16.5t-41.5 -43.5t-23.5 -61t-7.5 -68t7.5 -68t25 -61t45 -43.5t67.5 -16.5q64 0 96.5 37t32.5 94h99l11 -152q-30 -71 -89.5 -113t-159.5 -42q-83 0 -148 27t-109.5 75.5
t-68 115.5t-23.5 147t23.5 147t68 115.5t109.5 75.5t148 27zM734 395v-395h-131l-41 244h-193v151h365zM268 -334q18 3 35.5 9t32 15.5t24.5 22.5t12 28h-83v168h187v-105q0 -34 -13.5 -65.5t-39.5 -57t-62.5 -42.5t-83.5 -21z" />
    <glyph glyph-name="uni0123" unicode="&#x123;" horiz-adv-x="616" 
d="M295 370q-23 0 -40 -8.5t-28 -22.5t-16.5 -32t-5.5 -36q0 -41 22 -68.5t68 -27.5t68 29t22 67q0 19 -5.5 37t-17 31.5t-28 22t-39.5 8.5zM262 530q42 0 77 -13t58 -43l14 41h165v-464q0 -77 -20 -130.5t-57 -86.5t-87.5 -48t-112.5 -15q-54 0 -99.5 13t-80 39t-57 65
t-29.5 91h185q4 -27 23.5 -45.5t51.5 -18.5q50 0 72 31t22 82v26q-26 -20 -58 -29.5t-64 -9.5q-56 0 -100.5 19.5t-75.5 53.5t-47.5 81t-16.5 101q0 51 16 98t46.5 83t74.5 57.5t100 21.5zM386 831q-18 -3 -35.5 -9t-32 -15.5t-24.5 -22.5t-12 -28h84v-168h-188v105
q0 34 13.5 65.5t39.5 57t63 42.5t84 21z" />
    <glyph glyph-name="Hcircumflex" unicode="&#x124;" horiz-adv-x="745" 
d="M684 700v-700h-214v267h-196v-267h-214v700h214v-260h196v260h214zM457 916l108 -162h-140l-53 76l-53 -76h-140l108 162h170z" />
    <glyph glyph-name="hcircumflex" unicode="&#x125;" horiz-adv-x="591" 
d="M372 530q47 0 82.5 -15t59 -41.5t35 -62t11.5 -77.5v-334h-201v291q0 31 -11.5 51t-45.5 20q-35 0 -47.5 -24.5t-12.5 -58.5v-279h-202v700h202v-218q25 26 55.5 37t74.5 11zM217 916l108 -162h-140l-53 76l-53 -76h-140l108 162h170z" />
    <glyph glyph-name="Hbar" unicode="&#x126;" horiz-adv-x="745" 
d="M14 626h715v-121h-715v121zM684 700v-700h-214v267h-196v-267h-214v700h214v-260h196v260h214z" />
    <glyph glyph-name="hbar" unicode="&#x127;" horiz-adv-x="591" 
d="M2 665h313v-122h-313v122zM372 530q47 0 82.5 -15t59 -41.5t35.5 -62t12 -77.5v-334h-202v291q0 31 -11.5 51t-45.5 20q-35 0 -47.5 -24.5t-12.5 -58.5v-279h-202v700h202v-218q25 26 56 37t74 11z" />
    <glyph glyph-name="Itilde" unicode="&#x128;" horiz-adv-x="335" 
d="M61 700h214v-700h-214v700zM86 924q26 0 46.5 -8t38 -18t33 -18t30.5 -8q21 0 28.5 14.5t7.5 33.5h110q0 -30 -7.5 -60.5t-23.5 -55t-41 -40t-61 -15.5q-26 0 -47 8.5t-38.5 18t-32.5 18t-29 8.5q-20 0 -28 -16t-8 -34h-111q1 33 8.5 64t23 55t40.5 38.5t61 14.5z" />
    <glyph glyph-name="itilde" unicode="&#x129;" horiz-adv-x="282" 
d="M40 515h202v-515h-202v515zM60 739q26 0 46.5 -8t38 -18t33 -18t30.5 -8q21 0 28.5 14.5t7.5 33.5h110q0 -30 -7.5 -60.5t-23.5 -55t-41 -40t-61 -15.5q-26 0 -47 8.5t-38.5 18t-32.5 18t-29 8.5q-20 0 -28 -16t-8 -34h-111q1 33 8.5 64t23 55t40.5 38.5t61 14.5z" />
    <glyph glyph-name="Imacron" unicode="&#x12a;" horiz-adv-x="335" 
d="M61 700h214v-700h-214v700zM10 900h313v-121h-313v121z" />
    <glyph glyph-name="imacron" unicode="&#x12b;" horiz-adv-x="282" 
d="M40 515h202v-515h-202v515zM-16 715h313v-121h-313v121z" />
    <glyph glyph-name="Ibreve" unicode="&#x12c;" horiz-adv-x="335" 
d="M61 700h214v-700h-214v700zM168 862q26 0 34.5 15.5t11.5 36.5h111q-2 -75 -40.5 -121t-116.5 -46q-79 0 -117 46t-41 121h111q3 -21 11.5 -36.5t35.5 -15.5z" />
    <glyph glyph-name="ibreve" unicode="&#x12d;" horiz-adv-x="282" 
d="M40 515h202v-515h-202v515zM142 677q26 0 34.5 15.5t11.5 36.5h111q-2 -75 -40.5 -121t-116.5 -46q-79 0 -117 46t-41 121h111q3 -21 11.5 -36.5t35.5 -15.5z" />
    <glyph glyph-name="Iogonek" unicode="&#x12e;" horiz-adv-x="335" 
d="M61 700h214v-700h-214v700zM274 0q-32 -16 -48 -38t-16 -48q0 -12 7.5 -21t21.5 -9q8 0 17.5 2.5t16.5 6.5l31 -86q-24 -16 -54 -22.5t-59 -6.5q-25 0 -47.5 6t-39.5 19t-27 32t-10 46q0 30 15 52.5t37.5 37.5t49 24.5t48.5 13.5z" />
    <glyph glyph-name="iogonek" unicode="&#x12f;" horiz-adv-x="282" 
d="M40 700h202v-157h-202v157zM40 515h202v-515h-202v515zM242 0q-32 -16 -48 -38t-16 -48q0 -12 7.5 -21t21.5 -9q8 0 17.5 2.5t16.5 6.5l31 -86q-24 -16 -54 -22.5t-59 -6.5q-25 0 -47.5 6t-39.5 19t-27 32t-10 46q0 30 15 52.5t37.5 37.5t49 24.5t48.5 13.5z" />
    <glyph glyph-name="Idotaccent" unicode="&#x130;" horiz-adv-x="335" 
d="M61 700h214v-700h-214v700zM84 904h166v-146h-166v146z" />
    <glyph glyph-name="dotlessi" unicode="&#x131;" horiz-adv-x="282" 
d="M40 515h202v-515h-202v515z" />
    <glyph glyph-name="IJ" unicode="&#x132;" horiz-adv-x="938" 
d="M61 700h214v-700h-214v700zM888 700v-443q0 -69 -20 -120t-56.5 -84.5t-88.5 -50.5t-116 -17q-63 0 -112.5 18.5t-83.5 53t-52 83.5t-18 110h194q2 -37 16.5 -63t54.5 -26q19 0 32 7.5t21 20t11.5 28.5t3.5 33v450h214z" />
    <glyph glyph-name="ij" unicode="&#x133;" horiz-adv-x="564" 
d="M40 700h202v-157h-202v157zM40 515h202v-515h-202v515zM524 700v-156h-202v156h202zM524 516v-503q0 -58 -11.5 -103t-39.5 -75.5t-73.5 -46.5t-114.5 -16q-16 0 -31 1.5t-30 3.5v162q16 -3 36 -3q27 0 44.5 17t17.5 43v520h202z" />
    <glyph glyph-name="Jcircumflex" unicode="&#x134;" horiz-adv-x="628" 
d="M578 700v-443q0 -69 -20 -120t-56.5 -84.5t-88.5 -50.5t-116 -17q-63 0 -112.5 18.5t-83.5 53t-52 83.5t-18 110h194q2 -37 16.5 -63t54.5 -26q19 0 32 7.5t21 20t11.5 28.5t3.5 33v450h214zM553 916l108 -162h-140l-53 76l-53 -76h-140l108 162h170z" />
    <glyph glyph-name="jcircumflex" unicode="&#x135;" horiz-adv-x="282" 
d="M40 515h202v-503q0 -58 -11.5 -103t-39.5 -75.5t-73.5 -46.5t-114.5 -16q-16 0 -31 1.5t-30 3.5v162q16 -3 36 -3q27 0 44.5 17t17.5 43v520zM226 731l108 -162h-140l-53 76l-53 -76h-140l108 162h170z" />
    <glyph glyph-name="uni0136" unicode="&#x136;" horiz-adv-x="776" 
d="M736 700l-286 -343l-100 -105l-76 -84v-168h-214v700h214v-244l196 244h266zM745 0h-255l-153 251l147 154zM242 -334q18 3 35.5 9t32 15.5t24.5 22.5t12 28h-83v168h187v-105q0 -34 -13.5 -65.5t-39.5 -57t-62.5 -42.5t-83.5 -21z" />
    <glyph glyph-name="uni0137" unicode="&#x137;" horiz-adv-x="642" 
d="M242 700v-314l123 129h252l-204 -203l208 -312h-236l-116 192l-27 -28v-164h-202v700h202zM196 -334q18 3 35.5 9t32 15.5t24.5 22.5t12 28h-83v168h187v-105q0 -34 -13.5 -65.5t-39.5 -57t-62.5 -42.5t-83.5 -21z" />
    <glyph glyph-name="kgreenlandic" unicode="&#x138;" horiz-adv-x="642" 
d="M242 515v-129l123 129h252l-204 -203l208 -312h-236l-116 192l-27 -28v-164h-202v515h202z" />
    <glyph glyph-name="Lacute" unicode="&#x139;" horiz-adv-x="605" 
d="M275 700v-526h300v-174h-514v700h214zM374 916l-133 -162h-152l107 162h178z" />
    <glyph glyph-name="lacute" unicode="&#x13a;" horiz-adv-x="282" 
d="M40 700h202v-700h-202v700zM351 916l-133 -162h-152l107 162h178z" />
    <glyph glyph-name="uni013B" unicode="&#x13b;" horiz-adv-x="605" 
d="M275 700v-526h300v-174h-514v700h214zM203 -334q18 3 35.5 9t32 15.5t24.5 22.5t12 28h-83v168h187v-105q0 -34 -13.5 -65.5t-39.5 -57t-62.5 -42.5t-83.5 -21z" />
    <glyph glyph-name="uni013C" unicode="&#x13c;" horiz-adv-x="282" 
d="M40 700h202v-700h-202v700zM27 -334q18 3 35.5 9t32 15.5t24.5 22.5t12 28h-83v168h187v-105q0 -34 -13.5 -65.5t-39.5 -57t-62.5 -42.5t-83.5 -21z" />
    <glyph glyph-name="Lcaron" unicode="&#x13d;" horiz-adv-x="605" 
d="M535 700l-58 -192h-127l31 192h154zM275 700v-526h300v-174h-514v700h214z" />
    <glyph glyph-name="lcaron" unicode="&#x13e;" horiz-adv-x="464" 
d="M463 700l-57 -192h-128l31 192h154zM40 700h202v-700h-202v700z" />
    <glyph glyph-name="Ldot" unicode="&#x13f;" horiz-adv-x="605" 
d="M350 423h166v-146h-166v146zM275 700v-526h300v-174h-514v700h214z" />
    <glyph glyph-name="ldot" unicode="&#x140;" horiz-adv-x="501" 
d="M295 423h166v-146h-166v146zM40 700h202v-700h-202v700z" />
    <glyph glyph-name="Lslash" unicode="&#x141;" horiz-adv-x="605" 
d="M329 495l59 -107l-357 -195l-58 106zM275 700v-526h300v-174h-514v700h214z" />
    <glyph glyph-name="lslash" unicode="&#x142;" horiz-adv-x="282" 
d="M290 495l59 -107l-357 -195l-58 106zM40 700h202v-700h-202v700z" />
    <glyph glyph-name="Nacute" unicode="&#x143;" horiz-adv-x="753" 
d="M692 700v-700h-228l-190 339v-339h-214v700h225l194 -363v363h213zM589 916l-133 -162h-152l107 162h178z" />
    <glyph glyph-name="nacute" unicode="&#x144;" horiz-adv-x="591" 
d="M372 530q47 0 82.5 -15t59 -41.5t35 -62t11.5 -77.5v-334h-201v291q0 31 -11.5 51t-45.5 20q-35 0 -47.5 -24.5t-12.5 -58.5v-279h-202v515h176l11 -50q26 35 60 50t85 15zM543 731l-133 -162h-152l107 162h178z" />
    <glyph glyph-name="uni0145" unicode="&#x145;" horiz-adv-x="753" 
d="M692 700v-700h-228l-190 339v-339h-214v700h225l194 -363v363h213zM262 -334q18 3 35.5 9t32 15.5t24.5 22.5t12 28h-83v168h187v-105q0 -34 -13.5 -65.5t-39.5 -57t-62.5 -42.5t-83.5 -21z" />
    <glyph glyph-name="uni0146" unicode="&#x146;" horiz-adv-x="591" 
d="M372 530q47 0 82.5 -15t59 -41.5t35 -62t11.5 -77.5v-334h-201v291q0 31 -11.5 51t-45.5 20q-35 0 -47.5 -24.5t-12.5 -58.5v-279h-202v515h176l11 -50q26 35 60 50t85 15zM196 -334q18 3 35.5 9t32 15.5t24.5 22.5t12 28h-83v168h187v-105q0 -34 -13.5 -65.5t-39.5 -57
t-62.5 -42.5t-83.5 -21z" />
    <glyph glyph-name="Ncaron" unicode="&#x147;" horiz-adv-x="753" 
d="M692 700v-700h-228l-190 339v-339h-214v700h225l194 -363v363h213zM570 918l-108 -162h-170l-108 162h140l53 -76l53 76h140z" />
    <glyph glyph-name="ncaron" unicode="&#x148;" horiz-adv-x="591" 
d="M372 530q47 0 82.5 -15t59 -41.5t35 -62t11.5 -77.5v-334h-201v291q0 31 -11.5 51t-45.5 20q-35 0 -47.5 -24.5t-12.5 -58.5v-279h-202v515h176l11 -50q26 35 60 50t85 15zM489 733l-108 -162h-170l-108 162h140l53 -76l53 76h140z" />
    <glyph glyph-name="napostrophe" unicode="&#x149;" horiz-adv-x="837" 
d="M618 530q47 0 82 -15t58.5 -41.5t35.5 -62t12 -77.5v-334h-202v291q0 31 -11.5 51t-45.5 20t-46.5 -24.5t-12.5 -58.5v-279h-202v515h176l11 -50q26 35 60 50t85 15zM60 700h198v-132q0 -49 -15.5 -89.5t-43.5 -70.5t-68 -48.5t-88 -24.5l-25 66q114 27 129 107h-87v192z
" />
    <glyph glyph-name="Eng" unicode="&#x14a;" horiz-adv-x="753" 
d="M692 700v-700l-205 -41l-213 380v-339h-214v700h225l194 -363v363h213zM479 136h213v-158q0 -77 -22 -129t-62.5 -83.5t-97.5 -45.5t-126 -14l-1 173q33 0 52 8t28.5 21t12.5 29.5t3 33.5v165z" />
    <glyph glyph-name="eng" unicode="&#x14b;" horiz-adv-x="591" 
d="M372 531q47 0 82.5 -15t59 -41.5t35 -62.5t11.5 -78v-321q0 -58 -11.5 -103t-39.5 -75.5t-73.5 -46.5t-114.5 -16q-16 0 -30.5 1.5t-30.5 3.5v162q17 -3 36 -3q27 0 45 17t18 43v295q0 31 -11.5 51t-45.5 20q-35 0 -47.5 -24t-12.5 -58v-280h-202v516h176l11 -50
q26 34 60 49.5t85 15.5z" />
    <glyph glyph-name="Omacron" unicode="&#x14c;" horiz-adv-x="777" 
d="M389 536q-40 0 -67.5 -15t-44.5 -40.5t-24.5 -59t-7.5 -71.5q0 -37 7.5 -71t24.5 -59.5t44.5 -40.5t67.5 -15t67.5 15t44.5 40.5t24.5 59.5t7.5 71q0 38 -7.5 71.5t-24.5 59t-44.5 40.5t-67.5 15zM389 715q88 0 155 -28t112 -77.5t68 -116t23 -143.5t-23 -143.5t-68 -116
t-112 -77.5t-155 -28t-155 28t-112 77.5t-68 116t-23 143.5t23 143.5t68 116t112 77.5t155 28zM231 900h313v-121h-313v121z" />
    <glyph glyph-name="omacron" unicode="&#x14d;" 
d="M308 371q-27 0 -44.5 -9.5t-28 -25.5t-14.5 -36.5t-4 -41.5t4 -41.5t14.5 -36.5t28 -26t44.5 -10t44.5 10t28 26t14.5 36.5t4 41.5t-4 41.5t-14.5 36.5t-28 25.5t-44.5 9.5zM308 530q62 0 114 -19.5t89.5 -55.5t58.5 -86t21 -111t-21 -111.5t-58.5 -86.5t-89.5 -55.5
t-114 -19.5t-114 19.5t-89.5 55.5t-58.5 86.5t-21 111.5t21 111t58.5 86t89.5 55.5t114 19.5zM151 715h313v-121h-313v121z" />
    <glyph glyph-name="Obreve" unicode="&#x14e;" horiz-adv-x="777" 
d="M389 536q-40 0 -67.5 -15t-44.5 -40.5t-24.5 -59t-7.5 -71.5q0 -37 7.5 -71t24.5 -59.5t44.5 -40.5t67.5 -15t67.5 15t44.5 40.5t24.5 59.5t7.5 71q0 38 -7.5 71.5t-24.5 59t-44.5 40.5t-67.5 15zM389 715q88 0 155 -28t112 -77.5t68 -116t23 -143.5t-23 -143.5t-68 -116
t-112 -77.5t-155 -28t-155 28t-112 77.5t-68 116t-23 143.5t23 143.5t68 116t112 77.5t155 28zM389 862q26 0 34.5 15.5t11.5 36.5h111q-2 -75 -40.5 -121t-116.5 -46q-79 0 -117 46t-41 121h111q3 -21 11.5 -36.5t35.5 -15.5z" />
    <glyph glyph-name="obreve" unicode="&#x14f;" 
d="M308 371q-27 0 -44.5 -9.5t-28 -25.5t-14.5 -36.5t-4 -41.5t4 -41.5t14.5 -36.5t28 -26t44.5 -10t44.5 10t28 26t14.5 36.5t4 41.5t-4 41.5t-14.5 36.5t-28 25.5t-44.5 9.5zM308 530q62 0 114 -19.5t89.5 -55.5t58.5 -86t21 -111t-21 -111.5t-58.5 -86.5t-89.5 -55.5
t-114 -19.5t-114 19.5t-89.5 55.5t-58.5 86.5t-21 111.5t21 111t58.5 86t89.5 55.5t114 19.5zM309 677q26 0 34.5 15.5t11.5 36.5h111q-2 -75 -40.5 -121t-116.5 -46q-79 0 -117 46t-41 121h111q3 -21 11.5 -36.5t35.5 -15.5z" />
    <glyph glyph-name="Ohungarumlaut" unicode="&#x150;" horiz-adv-x="777" 
d="M389 536q-40 0 -67.5 -15t-44.5 -40.5t-24.5 -59t-7.5 -71.5q0 -37 7.5 -71t24.5 -59.5t44.5 -40.5t67.5 -15t67.5 15t44.5 40.5t24.5 59.5t7.5 71q0 38 -7.5 71.5t-24.5 59t-44.5 40.5t-67.5 15zM389 715q88 0 155 -28t112 -77.5t68 -116t23 -143.5t-23 -143.5t-68 -116
t-112 -77.5t-155 -28t-155 28t-112 77.5t-68 116t-23 143.5t23 143.5t68 116t112 77.5t155 28zM593 927l-96 -162h-143l74 162h165zM402 927l-76 -162h-143l54 162h165z" />
    <glyph glyph-name="ohungarumlaut" unicode="&#x151;" 
d="M308 371q-27 0 -44.5 -9.5t-28 -25.5t-14.5 -36.5t-4 -41.5t4 -41.5t14.5 -36.5t28 -26t44.5 -10t44.5 10t28 26t14.5 36.5t4 41.5t-4 41.5t-14.5 36.5t-28 25.5t-44.5 9.5zM308 530q62 0 114 -19.5t89.5 -55.5t58.5 -86t21 -111t-21 -111.5t-58.5 -86.5t-89.5 -55.5
t-114 -19.5t-114 19.5t-89.5 55.5t-58.5 86.5t-21 111.5t21 111t58.5 86t89.5 55.5t114 19.5zM513 742l-96 -162h-143l74 162h165zM322 742l-76 -162h-143l54 162h165z" />
    <glyph glyph-name="OE" unicode="&#x152;" horiz-adv-x="1044" 
d="M1003 700v-173h-301v-88h281v-174h-281v-91h301v-174h-514v700h514zM388 164q46 0 75.5 20t45.5 52v-234q-56 -17 -121 -17q-88 0 -155 28t-112 77.5t-68 116t-23 143.5t23 143.5t68 116t112 77.5t155 28q33 0 63.5 -4t57.5 -12v-235q-16 33 -45.5 52.5t-75.5 19.5
q-40 0 -67.5 -15t-44.5 -40.5t-24.5 -59t-7.5 -71.5q0 -37 7.5 -71t24.5 -59.5t44.5 -40.5t67.5 -15z" />
    <glyph glyph-name="oe" unicode="&#x153;" horiz-adv-x="993" 
d="M308 371q-27 0 -44.5 -9.5t-28 -25.5t-14.5 -36.5t-4 -41.5t4 -41.5t14.5 -36.5t28 -26t44.5 -10t44.5 10t28 26t14.5 36.5t4 41.5t-4 41.5t-14.5 36.5t-28 25.5t-44.5 9.5zM308 530q62 0 114 -19.5t89.5 -55.5t58.5 -86t21 -111t-21 -111.5t-58.5 -86.5t-89.5 -55.5
t-114 -19.5t-114 19.5t-89.5 55.5t-58.5 86.5t-21 111.5t21 111t58.5 86t89.5 55.5t114 19.5zM684 383q-34 0 -52 -20.5t-25 -52.5h163q-8 33 -27.5 53t-58.5 20zM684 530q93 0 161 -42t100 -115q17 -40 21 -83.5t-4 -85.5h-356q7 -34 26.5 -55t59.5 -21q25 0 47.5 7.5
t33.5 30.5h182q-16 -50 -42.5 -84.5t-61 -56t-75.5 -31t-86 -9.5q-62 0 -115 19.5t-91.5 55.5t-60.5 86.5t-22 111.5t21 111t58.5 86t89.5 55.5t114 19.5z" />
    <glyph glyph-name="Racute" unicode="&#x154;" horiz-adv-x="690" 
d="M277 526v-137h87q32 0 56 16t24 53q0 38 -22.5 53t-57.5 15h-87zM373 700q62 0 114.5 -13.5t90.5 -43t59.5 -75t21.5 -110.5q0 -66 -21.5 -112t-59.5 -74.5t-90.5 -41.5t-114.5 -13h-96v-217h-217v700h313zM659 0h-241l-119 233l155 144zM487 916l-133 -162h-152l107 162
h178z" />
    <glyph glyph-name="racute" unicode="&#x155;" horiz-adv-x="442" 
d="M374 530q11 0 20 -0.5t15 -0.5q7 -1 12 -2v-181q-6 1 -13 2q-6 0 -13.5 0.5t-15.5 0.5q-27 0 -52 -9t-43.5 -29.5t-30 -52.5t-11.5 -78v-180h-202v515h176l18 -82q21 50 58.5 73.5t81.5 23.5zM421 731l-133 -162h-152l107 162h178z" />
    <glyph glyph-name="uni0156" unicode="&#x156;" horiz-adv-x="690" 
d="M277 526v-137h87q32 0 56 16t24 53q0 38 -22.5 53t-57.5 15h-87zM373 700q62 0 114.5 -13.5t90.5 -43t59.5 -75t21.5 -110.5q0 -66 -21.5 -112t-59.5 -74.5t-90.5 -41.5t-114.5 -13h-96v-217h-217v700h313zM659 0h-241l-119 233l155 144zM246 -334q18 3 35.5 9t32 15.5
t24.5 22.5t12 28h-83v168h187v-105q0 -34 -13.5 -65.5t-39.5 -57t-62.5 -42.5t-83.5 -21z" />
    <glyph glyph-name="uni0157" unicode="&#x157;" horiz-adv-x="442" 
d="M374 530q11 0 20 -0.5t15 -0.5q7 -1 12 -2v-181q-6 1 -13 2q-6 0 -13.5 0.5t-15.5 0.5q-27 0 -52 -9t-43.5 -29.5t-30 -52.5t-11.5 -78v-180h-202v515h176l18 -82q21 50 58.5 73.5t81.5 23.5zM24 -334q18 3 35.5 9t32 15.5t24.5 22.5t12 28h-83v168h187v-105
q0 -34 -13.5 -65.5t-39.5 -57t-62.5 -42.5t-83.5 -21z" />
    <glyph glyph-name="Rcaron" unicode="&#x158;" horiz-adv-x="690" 
d="M277 526v-137h87q32 0 56 16t24 53q0 38 -22.5 53t-57.5 15h-87zM373 700q62 0 114.5 -13.5t90.5 -43t59.5 -75t21.5 -110.5q0 -66 -21.5 -112t-59.5 -74.5t-90.5 -41.5t-114.5 -13h-96v-217h-217v700h313zM659 0h-241l-119 233l155 144zM538 918l-108 -162h-170
l-108 162h140l53 -76l53 76h140z" />
    <glyph glyph-name="rcaron" unicode="&#x159;" horiz-adv-x="442" 
d="M374 530q11 0 20 -0.5t15 -0.5q7 -1 12 -2v-181q-6 1 -13 2q-6 0 -13.5 0.5t-15.5 0.5q-27 0 -52 -9t-43.5 -29.5t-30 -52.5t-11.5 -78v-180h-202v515h176l18 -82q21 50 58.5 73.5t81.5 23.5zM414 733l-108 -162h-170l-108 162h140l53 -76l53 76h140z" />
    <glyph glyph-name="Sacute" unicode="&#x15a;" horiz-adv-x="689" 
d="M339 715q63 0 117.5 -14.5t95.5 -44.5t66.5 -76.5t31.5 -110.5h-214q-12 74 -97 74q-24 0 -45.5 -10t-21.5 -37q0 -17 14 -28.5t33 -18.5t39 -11t33 -6q48 -8 96 -21t86 -37.5t61.5 -63.5t23.5 -99q0 -65 -27.5 -108.5t-71.5 -69.5t-99 -37t-110 -11q-64 0 -119.5 15
t-98 47t-69.5 83t-33 123h214q10 -95 113 -95q12 0 25 1.5t24 7t18 14.5t7 24q0 19 -14.5 30.5t-34.5 18.5t-41 11t-35 7q-48 9 -95 22t-84 37t-59.5 62.5t-22.5 99.5q0 60 26 102.5t67.5 69t94 38.5t106.5 12zM546 916l-133 -162h-152l107 162h178z" />
    <glyph glyph-name="sacute" unicode="&#x15b;" horiz-adv-x="575" 
d="M280 530q53 0 99 -11t80.5 -34.5t54.5 -59t21 -83.5h-181q-2 32 -20 46.5t-50 14.5q-21 0 -33.5 -8.5t-12.5 -23.5q0 -14 9 -23.5t24 -16t35 -10.5t41 -7q38 -5 73.5 -14.5t63.5 -27t44.5 -45.5t16.5 -70q0 -49 -21.5 -82.5t-57.5 -53t-82 -28t-96 -8.5t-96 11t-81.5 35
t-57 60.5t-22.5 87.5h192q2 -39 23 -54t56 -15q18 0 36.5 7t18.5 27q0 17 -12.5 27.5t-30.5 16.5t-38.5 9t-37.5 6q-37 6 -72 16.5t-62 29.5t-43.5 47t-16.5 68q0 45 21 76.5t54.5 51.5t76 29t84.5 9zM489 731l-133 -162h-152l107 162h178z" />
    <glyph glyph-name="Scircumflex" unicode="&#x15c;" horiz-adv-x="689" 
d="M339 715q63 0 117.5 -14.5t95.5 -44.5t66.5 -76.5t31.5 -110.5h-214q-12 74 -97 74q-24 0 -45.5 -10t-21.5 -37q0 -17 14 -28.5t33 -18.5t39 -11t33 -6q48 -8 96 -21t86 -37.5t61.5 -63.5t23.5 -99q0 -65 -27.5 -108.5t-71.5 -69.5t-99 -37t-110 -11q-64 0 -119.5 15
t-98 47t-69.5 83t-33 123h214q10 -95 113 -95q12 0 25 1.5t24 7t18 14.5t7 24q0 19 -14.5 30.5t-34.5 18.5t-41 11t-35 7q-48 9 -95 22t-84 37t-59.5 62.5t-22.5 99.5q0 60 26 102.5t67.5 69t94 38.5t106.5 12zM429 916l108 -162h-140l-53 76l-53 -76h-140l108 162h170z" />
    <glyph glyph-name="scircumflex" unicode="&#x15d;" horiz-adv-x="575" 
d="M280 530q53 0 99 -11t80.5 -34.5t54.5 -59t21 -83.5h-181q-2 32 -20 46.5t-50 14.5q-21 0 -33.5 -8.5t-12.5 -23.5q0 -14 9 -23.5t24 -16t35 -10.5t41 -7q38 -5 73.5 -14.5t63.5 -27t44.5 -45.5t16.5 -70q0 -49 -21.5 -82.5t-57.5 -53t-82 -28t-96 -8.5t-96 11t-81.5 35
t-57 60.5t-22.5 87.5h192q2 -39 23 -54t56 -15q18 0 36.5 7t18.5 27q0 17 -12.5 27.5t-30.5 16.5t-38.5 9t-37.5 6q-37 6 -72 16.5t-62 29.5t-43.5 47t-16.5 68q0 45 21 76.5t54.5 51.5t76 29t84.5 9zM372 731l108 -162h-140l-53 76l-53 -76h-140l108 162h170z" />
    <glyph glyph-name="Scedilla" unicode="&#x15e;" horiz-adv-x="689" 
d="M339 715q63 0 117.5 -14.5t95.5 -44.5t66.5 -76.5t31.5 -110.5h-214q-12 74 -97 74q-24 0 -45.5 -10t-21.5 -37q0 -17 14 -28.5t33 -18.5t39 -11t33 -6q48 -8 96 -21t86 -37.5t61.5 -63.5t23.5 -99q0 -65 -27.5 -108.5t-71.5 -69.5t-99 -37t-110 -11q-64 0 -119.5 15
t-98 47t-69.5 83t-33 123h214q10 -95 113 -95q12 0 25 1.5t24 7t18 14.5t7 24q0 19 -14.5 30.5t-34.5 18.5t-41 11t-35 7q-48 9 -95 22t-84 37t-59.5 62.5t-22.5 99.5q0 60 26 102.5t67.5 69t94 38.5t106.5 12zM360 -36q48 -5 73.5 -26t25.5 -68q0 -30 -10.5 -51.5
t-29.5 -35t-44.5 -19.5t-54.5 -6q-19 0 -45 5.5t-44 14.5v90l40.5 -13.5t41.5 -7.5q17 0 29 5.5t12 21.5q0 9 -7 13.5t-16 7t-19 2.5h-16h-30l31 103h74z" />
    <glyph glyph-name="scedilla" unicode="&#x15f;" horiz-adv-x="575" 
d="M280 530q53 0 99 -11t80.5 -34.5t54.5 -59t21 -83.5h-181q-2 32 -20 46.5t-50 14.5q-21 0 -33.5 -8.5t-12.5 -23.5q0 -14 9 -23.5t24 -16t35 -10.5t41 -7q38 -5 73.5 -14.5t63.5 -27t44.5 -45.5t16.5 -70q0 -49 -21.5 -82.5t-57.5 -53t-82 -28t-96 -8.5t-96 11t-81.5 35
t-57 60.5t-22.5 87.5h192q2 -39 23 -54t56 -15q18 0 36.5 7t18.5 27q0 17 -12.5 27.5t-30.5 16.5t-38.5 9t-37.5 6q-37 6 -72 16.5t-62 29.5t-43.5 47t-16.5 68q0 45 21 76.5t54.5 51.5t76 29t84.5 9zM303 -36q48 -5 73.5 -26t25.5 -68q0 -30 -10.5 -51.5t-29.5 -35
t-44.5 -19.5t-54.5 -6q-19 0 -45 5.5t-44 14.5v90l40.5 -13.5t41.5 -7.5q17 0 29 5.5t12 21.5q0 9 -7 13.5t-16 7t-19 2.5h-16h-30l31 103h74z" />
    <glyph glyph-name="Scaron" unicode="&#x160;" horiz-adv-x="689" 
d="M339 715q63 0 117.5 -14.5t95.5 -44.5t66.5 -76.5t31.5 -110.5h-214q-12 74 -97 74q-24 0 -45.5 -10t-21.5 -37q0 -17 14 -28.5t33 -18.5t39 -11t33 -6q48 -8 96 -21t86 -37.5t61.5 -63.5t23.5 -99q0 -65 -27.5 -108.5t-71.5 -69.5t-99 -37t-110 -11q-64 0 -119.5 15
t-98 47t-69.5 83t-33 123h214q10 -95 113 -95q12 0 25 1.5t24 7t18 14.5t7 24q0 19 -14.5 30.5t-34.5 18.5t-41 11t-35 7q-48 9 -95 22t-84 37t-59.5 62.5t-22.5 99.5q0 60 26 102.5t67.5 69t94 38.5t106.5 12zM538 918l-108 -162h-170l-108 162h140l53 -76l53 76h140z" />
    <glyph glyph-name="scaron" unicode="&#x161;" horiz-adv-x="575" 
d="M280 530q53 0 99 -11t80.5 -34.5t54.5 -59t21 -83.5h-181q-2 32 -20 46.5t-50 14.5q-21 0 -33.5 -8.5t-12.5 -23.5q0 -14 9 -23.5t24 -16t35 -10.5t41 -7q38 -5 73.5 -14.5t63.5 -27t44.5 -45.5t16.5 -70q0 -49 -21.5 -82.5t-57.5 -53t-82 -28t-96 -8.5t-96 11t-81.5 35
t-57 60.5t-22.5 87.5h192q2 -39 23 -54t56 -15q18 0 36.5 7t18.5 27q0 17 -12.5 27.5t-30.5 16.5t-38.5 9t-37.5 6q-37 6 -72 16.5t-62 29.5t-43.5 47t-16.5 68q0 45 21 76.5t54.5 51.5t76 29t84.5 9zM481 733l-108 -162h-170l-108 162h140l53 -76l53 76h140z" />
    <glyph glyph-name="uni0162" unicode="&#x162;" horiz-adv-x="688" 
d="M367 -36q47 -5 72.5 -26t25.5 -68q0 -30 -10.5 -51.5t-29 -35t-44 -19.5t-54.5 -6q-20 0 -46 5.5t-44 14.5v90l40.5 -13.5t42.5 -7.5q16 0 28 5.5t12 21.5q0 9 -6.5 13.5t-16 7t-19 2.5h-15.5h-31l32 103h73zM658 700v-174h-207v-526h-214v526h-206v174h627z" />
    <glyph glyph-name="uni0163" unicode="&#x163;" horiz-adv-x="440" 
d="M360 0l-11 -36q48 -5 73.5 -26t25.5 -68q0 -30 -10.5 -51.5t-29.5 -35t-44.5 -19.5t-54.5 -6q-19 0 -45 5.5t-44 14.5v90l40.5 -13.5t41.5 -7.5q16 0 28.5 5.5t12.5 21.5q0 9 -7 13.5t-16 7t-19 2.5h-16h-30l31 103h74zM307 666v-151h113v-156h-113v-136q0 -42 19.5 -56
t60.5 -14q20 0 33 3v-164q-26 -4 -52.5 -6t-52.5 -2q-113 0 -161 57.5t-48 166.5v151h-86v156h28q33 0 45.5 16t12.5 40v95h201z" />
    <glyph glyph-name="Tcaron" unicode="&#x164;" horiz-adv-x="688" 
d="M658 700v-174h-207v-526h-214v526h-206v174h627zM537 918l-108 -162h-170l-108 162h140l53 -76l53 76h140z" />
    <glyph glyph-name="tcaron" unicode="&#x165;" horiz-adv-x="440" 
d="M538 763l-57 -192h-127l31 192h153zM106 667h201v-152h113v-156h-113v-136q0 -42 19.5 -56t60.5 -14q20 0 33 3v-163q-26 -5 -52.5 -6.5t-52.5 -1.5q-113 0 -161 57t-48 166v151h-86v156h28q33 0 45.5 16.5t12.5 39.5v96z" />
    <glyph glyph-name="Tbar" unicode="&#x166;" horiz-adv-x="688" 
d="M658 700v-174h-207v-526h-214v526h-206v174h627zM188 408h313v-121h-313v121z" />
    <glyph glyph-name="tbar" unicode="&#x167;" horiz-adv-x="440" 
d="M20 332h400v-114h-400v114zM106 667h201v-152h113v-156h-113v-144q0 -37 21 -49.5t59 -12.5q20 0 33 3v-163q-26 -5 -52.5 -6.5t-52.5 -1.5q-113 0 -161 55t-48 160v159h-86v156h28q33 0 45.5 16.5t12.5 39.5v96z" />
    <glyph glyph-name="Utilde" unicode="&#x168;" horiz-adv-x="720" 
d="M670 700v-433q0 -72 -24 -125.5t-66 -88t-98.5 -51.5t-121.5 -17t-121.5 17t-98 51.5t-65.5 88t-24 125.5v433h214v-425q0 -112 95 -114q96 2 96 114v425h214zM279 924q26 0 46.5 -8t38 -18t33 -18t30.5 -8q21 0 28.5 14.5t7.5 33.5h110q0 -30 -7.5 -60.5t-23.5 -55
t-41 -40t-61 -15.5q-26 0 -47 8.5t-38.5 18t-32.5 18t-29 8.5q-20 0 -28 -16t-8 -34h-111q1 33 8.5 64t23 55t40.5 38.5t61 14.5z" />
    <glyph glyph-name="utilde" unicode="&#x169;" horiz-adv-x="591" 
d="M550 515v-515h-176l-11 50q-26 -35 -60 -50t-84 -15q-47 0 -82.5 15t-59 41.5t-35.5 62.5t-12 78v333h202v-290q0 -32 11.5 -51.5t45.5 -19.5t47 24t13 58v279h201zM214 739q26 0 46.5 -8t38 -18t33 -18t30.5 -8q21 0 28.5 14.5t7.5 33.5h110q0 -30 -7.5 -60.5t-23.5 -55
t-41 -40t-61 -15.5q-26 0 -47 8.5t-38.5 18t-32.5 18t-29 8.5q-20 0 -28 -16t-8 -34h-111q1 33 8.5 64t23 55t40.5 38.5t61 14.5z" />
    <glyph glyph-name="Umacron" unicode="&#x16a;" horiz-adv-x="720" 
d="M670 700v-433q0 -72 -24 -125.5t-66 -88t-98.5 -51.5t-121.5 -17t-121.5 17t-98 51.5t-65.5 88t-24 125.5v433h214v-425q0 -112 95 -114q96 2 96 114v425h214zM203 900h313v-121h-313v121z" />
    <glyph glyph-name="umacron" unicode="&#x16b;" horiz-adv-x="591" 
d="M550 515v-515h-176l-11 50q-26 -35 -60 -50t-84 -15q-47 0 -82.5 15t-59 41.5t-35.5 62.5t-12 78v333h202v-290q0 -32 11.5 -51.5t45.5 -19.5t47 24t13 58v279h201zM138 715h313v-121h-313v121z" />
    <glyph glyph-name="Ubreve" unicode="&#x16c;" horiz-adv-x="720" 
d="M670 700v-433q0 -72 -24 -125.5t-66 -88t-98.5 -51.5t-121.5 -17t-121.5 17t-98 51.5t-65.5 88t-24 125.5v433h214v-425q0 -112 95 -114q96 2 96 114v425h214zM361 862q26 0 34.5 15.5t11.5 36.5h111q-2 -75 -40.5 -121t-116.5 -46q-79 0 -117 46t-41 121h111
q3 -21 11.5 -36.5t35.5 -15.5z" />
    <glyph glyph-name="ubreve" unicode="&#x16d;" horiz-adv-x="591" 
d="M550 515v-515h-176l-11 50q-26 -35 -60 -50t-84 -15q-47 0 -82.5 15t-59 41.5t-35.5 62.5t-12 78v333h202v-290q0 -32 11.5 -51.5t45.5 -19.5t47 24t13 58v279h201zM296 677q26 0 34.5 15.5t11.5 36.5h111q-2 -75 -40.5 -121t-116.5 -46q-79 0 -117 46t-41 121h111
q3 -21 11.5 -36.5t35.5 -15.5z" />
    <glyph glyph-name="Uring" unicode="&#x16e;" horiz-adv-x="720" 
d="M670 700v-433q0 -72 -24 -125.5t-66 -88t-98.5 -51.5t-121.5 -17t-121.5 17t-98 51.5t-65.5 88t-24 125.5v433h214v-425q0 -112 95 -114q96 2 96 114v425h214zM360 874q-14 0 -23.5 -9.5t-9.5 -23.5t9.5 -23.5t23.5 -9.5t23 9.5t9 23.5t-9 23.5t-23 9.5zM360 954
q24 0 45.5 -8t37.5 -23t25.5 -35.5t9.5 -46.5q0 -25 -9.5 -45.5t-25.5 -35.5t-37.5 -23t-45.5 -8t-45.5 8t-38 22.5t-26 35.5t-9.5 46q0 24 9.5 45t25.5 36t37.5 23.5t46.5 8.5z" />
    <glyph glyph-name="uring" unicode="&#x16f;" horiz-adv-x="591" 
d="M550 515v-515h-176l-11 50q-26 -35 -60 -50t-84 -15q-47 0 -82.5 15t-59 41.5t-35.5 62.5t-12 78v333h202v-290q0 -32 11.5 -51.5t45.5 -19.5t47 24t13 58v279h201zM296 689q-14 0 -23.5 -9.5t-9.5 -23.5t9.5 -23.5t23.5 -9.5t23 9.5t9 23.5t-9 23.5t-23 9.5zM296 769
q24 0 45.5 -8t37.5 -23t25.5 -35.5t9.5 -46.5q0 -25 -9.5 -45.5t-25.5 -35.5t-37.5 -23t-45.5 -8t-45.5 8t-38 22.5t-26 35.5t-9.5 46q0 24 9.5 45t25.5 36t37.5 23.5t46.5 8.5z" />
    <glyph glyph-name="Uhungarumlaut" unicode="&#x170;" horiz-adv-x="720" 
d="M670 700v-433q0 -72 -24 -125.5t-66 -88t-98.5 -51.5t-121.5 -17t-121.5 17t-98 51.5t-65.5 88t-24 125.5v433h214v-425q0 -112 95 -114q96 2 96 114v425h214zM565 927l-96 -162h-143l74 162h165zM374 927l-76 -162h-143l54 162h165z" />
    <glyph glyph-name="uhungarumlaut" unicode="&#x171;" horiz-adv-x="591" 
d="M550 515v-515h-176l-11 50q-26 -35 -60 -50t-84 -15q-47 0 -82.5 15t-59 41.5t-35.5 62.5t-12 78v333h202v-290q0 -32 11.5 -51.5t45.5 -19.5t47 24t13 58v279h201zM500 742l-96 -162h-143l74 162h165zM309 742l-76 -162h-143l54 162h165z" />
    <glyph glyph-name="Uogonek" unicode="&#x172;" horiz-adv-x="720" 
d="M670 700v-433q0 -72 -24 -125.5t-66 -88t-98.5 -51.5t-121.5 -17t-121.5 17t-98 51.5t-65.5 88t-24 125.5v433h214v-425q0 -112 95 -114q96 2 96 114v425h214zM471 0q-32 -16 -48 -38t-16 -48q0 -12 7.5 -21t21.5 -9q8 0 17.5 2.5t16.5 6.5l31 -86q-24 -16 -54 -22.5
t-59 -6.5q-25 0 -47.5 6t-39.5 19t-27 32t-10 46q0 30 15 52.5t37.5 37.5t49 24.5t48.5 13.5z" />
    <glyph glyph-name="uogonek" unicode="&#x173;" horiz-adv-x="591" 
d="M550 515v-515h-176l-11 50q-26 -35 -60 -50t-84 -15q-47 0 -82.5 15t-59 41.5t-35.5 62.5t-12 78v333h202v-290q0 -32 11.5 -51.5t45.5 -19.5t47 24t13 58v279h201zM550 0q-32 -16 -48 -38t-16 -48q0 -12 7.5 -21t21.5 -9q8 0 17.5 2.5t16.5 6.5l31 -86
q-24 -16 -54 -22.5t-59 -6.5q-25 0 -47.5 6t-39.5 19t-27 32t-10 46q0 30 15 52.5t37.5 37.5t49 24.5t48.5 13.5z" />
    <glyph glyph-name="Wcircumflex" unicode="&#x174;" horiz-adv-x="1058" 
d="M1048 700l-176 -700h-255l-88 396l-88 -396h-255l-176 700h221l95 -443l100 443h206l100 -443l95 443h221zM614 916l108 -162h-140l-53 76l-53 -76h-140l108 162h170z" />
    <glyph glyph-name="wcircumflex" unicode="&#x175;" horiz-adv-x="907" 
d="M896 515l-138 -515h-234l-70 292l-70 -292h-234l-140 515h217l57 -326l65 326h210l64 -326l56 326h217zM538 731l108 -162h-140l-53 76l-53 -76h-140l108 162h170z" />
    <glyph glyph-name="Ycircumflex" unicode="&#x176;" horiz-adv-x="725" 
d="M715 700l-246 -478v-222h-214v222l-245 478h240l112 -264l112 264h241zM447 916l108 -162h-140l-53 76l-53 -76h-140l108 162h170z" />
    <glyph glyph-name="ycircumflex" unicode="&#x177;" horiz-adv-x="593" 
d="M225 516l94 -337l-51 -179h-82l-176 516h215zM582 516l-177 -516q-18 -58 -37.5 -101t-49.5 -71t-75 -42t-114 -14q-11 0 -24 2t-26 5v160q8 -2 17.5 -3.5t22.5 -1.5q36 0 55.5 18t27.5 44l15 49l71 193l79 278h215zM381 731l108 -162h-140l-53 76l-53 -76h-140l108 162
h170z" />
    <glyph glyph-name="Ydieresis" unicode="&#x178;" horiz-adv-x="725" 
d="M715 700l-246 -478v-222h-214v222l-245 478h240l112 -264l112 264h241zM380 904h166v-146h-166v146zM178 904h166v-146h-166v146z" />
    <glyph glyph-name="Zacute" unicode="&#x179;" horiz-adv-x="672" 
d="M621 700v-167l-317 -359h327v-174h-591v167l307 359h-293v174h567zM534 917l-133 -162h-152l107 162h178z" />
    <glyph glyph-name="zacute" unicode="&#x17a;" horiz-adv-x="537" 
d="M500 515v-152l-220 -207h227v-156h-477v153l213 206h-200v156h457zM470 731l-133 -162h-152l107 162h178z" />
    <glyph glyph-name="Zdotaccent" unicode="&#x17b;" horiz-adv-x="672" 
d="M621 700v-167l-317 -359h327v-174h-591v167l307 359h-293v174h567zM253 904h166v-146h-166v146z" />
    <glyph glyph-name="zdotaccent" unicode="&#x17c;" horiz-adv-x="537" 
d="M500 515v-152l-220 -207h227v-156h-477v153l213 206h-200v156h457zM185 719h166v-146h-166v146z" />
    <glyph glyph-name="Zcaron" unicode="&#x17d;" horiz-adv-x="672" 
d="M621 700v-167l-317 -359h327v-174h-591v167l307 359h-293v174h567zM529 918l-108 -162h-170l-108 162h140l53 -76l53 76h140z" />
    <glyph glyph-name="zcaron" unicode="&#x17e;" horiz-adv-x="537" 
d="M500 515v-152l-220 -207h227v-156h-477v153l213 206h-200v156h457zM462 733l-108 -162h-170l-108 162h140l53 -76l53 76h140z" />
    <glyph glyph-name="uni018F" unicode="&#x18f;" horiz-adv-x="758" 
d="M605 243h-541l-34 152h575v-152zM727 350q0 -80 -21 -147t-65.5 -115.5t-112 -75.5t-160.5 -27q-83 0 -146.5 29t-106 82.5t-64 129.5t-21.5 169l202 -28q0 -93 33 -149.5t100 -56.5q45 0 74 16.5t45.5 43.5t22.5 61t6 68t-7.5 68t-23.5 61t-41.5 43.5t-61.5 16.5
q-50 0 -81 -24t-43 -67h-217q9 64 37 114t72.5 84t103 51.5t127.5 17.5q83 0 148 -27t109.5 -75.5t68 -115.5t23.5 -147z" />
    <glyph glyph-name="florin" unicode="&#x192;" horiz-adv-x="485" 
d="M395 716q21 0 39.5 -3t35.5 -8v-163q-6 2 -16 4t-24 2q-29 0 -45.5 -17t-18.5 -37l-52 -513q-4 -34 -17 -66t-39.5 -57t-67.5 -40.5t-100 -15.5q-22 0 -40 3t-35 8v161q6 -2 16 -3.5t24 -1.5q29 0 43.5 16.5t16.5 37.5l53 514q3 34 17 66t41 57t68.5 40.5t100.5 15.5z
M470 432v-121h-408v121h408z" />
    <glyph glyph-name="uni01F4" unicode="&#x1f4;" horiz-adv-x="765" 
d="M379 715q69 0 128 -17.5t103 -51.5t72 -84t37 -114h-217q-11 43 -42.5 67t-80.5 24q-37 0 -62.5 -16.5t-41.5 -43.5t-23.5 -61t-7.5 -68t7.5 -68t25 -61t45 -43.5t67.5 -16.5q64 0 96.5 37t32.5 94h99l11 -152q-30 -71 -89.5 -113t-159.5 -42q-83 0 -148 27t-109.5 75.5
t-68 115.5t-23.5 147t23.5 147t68 115.5t109.5 75.5t148 27zM734 395v-395h-131l-41 244h-193v151h365zM594 916l-133 -162h-152l107 162h178z" />
    <glyph glyph-name="uni01F5" unicode="&#x1f5;" horiz-adv-x="616" 
d="M295 370q-23 0 -40 -8.5t-28 -22.5t-16.5 -32t-5.5 -36q0 -41 22 -68.5t68 -27.5t68 29t22 67q0 19 -5.5 37t-17 31.5t-28 22t-39.5 8.5zM262 530q42 0 77 -13t58 -43l14 41h165v-464q0 -77 -20 -130.5t-57 -86.5t-87.5 -48t-112.5 -15q-54 0 -99.5 13t-80 39t-57 65
t-29.5 91h185q4 -27 23.5 -45.5t51.5 -18.5q50 0 72 31t22 82v26q-26 -20 -58 -29.5t-64 -9.5q-56 0 -100.5 19.5t-75.5 53.5t-47.5 81t-16.5 101q0 51 16 98t46.5 83t74.5 57.5t100 21.5zM450 731l-133 -162h-152l107 162h178z" />
    <glyph glyph-name="Aringacute" unicode="&#x1fa;" horiz-adv-x="777" 
d="M522 700l244 -700h-236l-30 105h-224l-32 -105h-234l246 700h266zM325 273h126l-63 216zM388 860q-14 0 -23.5 -9.5t-9.5 -23.5t9.5 -23.5t23.5 -9.5t23 9.5t9 23.5t-9 23.5t-23 9.5zM388 940q24 0 45.5 -8t37.5 -23t25.5 -35.5t9.5 -46.5q0 -25 -9.5 -45.5t-25.5 -35.5
t-37.5 -23t-45.5 -8t-45.5 8t-38 22.5t-26 35.5t-9.5 46q0 24 9.5 45t25.5 36t37.5 23.5t46.5 8.5zM595 1122l-133 -162h-152l107 162h178z" />
    <glyph glyph-name="aringacute" unicode="&#x1fb;" horiz-adv-x="619" 
d="M284 189q-29 -7 -46.5 -17t-17.5 -30t13.5 -29.5t37.5 -9.5q38 0 63 25t25 57v26q-2 -1 -11.5 -4.5t-28.5 -8.5l-14 -3.5t-11 -2.5q-5 -2 -10 -3zM211 295q23 3 44 7q18 2 36 4.5t28 4.5q22 4 31 8.5t9 15.5q0 29 -13 41.5t-39 12.5q-52 0 -59 -52h-188
q14 104 77.5 148.5t165.5 44.5q54 0 99 -10.5t77.5 -35.5t50.5 -66.5t18 -104.5v-154q0 -22 5 -32.5t25 -10.5h11v-131h-84q-39 0 -72 18t-46 60q-19 -24 -39.5 -39.5t-42 -24t-45.5 -11.5t-50 -3q-36 0 -68.5 8t-57 26t-39.5 46.5t-15 68.5q0 42 14.5 70t39.5 46.5t58 28.5
t69 16zM310 689q-14 0 -23.5 -9.5t-9.5 -23.5t9.5 -23.5t23.5 -9.5t23 9.5t9 23.5t-9 23.5t-23 9.5zM310 769q24 0 45.5 -8t37.5 -23t25.5 -35.5t9.5 -46.5q0 -25 -9.5 -45.5t-25.5 -35.5t-37.5 -23t-45.5 -8t-45.5 8t-38 22.5t-26 35.5t-9.5 46q0 24 9.5 45t25.5 36
t37.5 23.5t46.5 8.5zM516 956l-133 -162h-152l107 162h178z" />
    <glyph glyph-name="AEacute" unicode="&#x1fc;" horiz-adv-x="1095" 
d="M622 105h-426v168h426v-168zM1054 526h-300v-87h281v-174h-281v-91h300v-174h-514v522l-147 -271l-6 -46l-120 -205h-256l409 700h634v-174zM727 916l-133 -162h-152l107 162h178z" />
    <glyph glyph-name="aeacute" unicode="&#x1fd;" horiz-adv-x="945" 
d="M303 530q54 0 99 -10.5t77.5 -35.5t50.5 -66.5t18 -104.5l-189 -102q-2 -1 -11.5 -4.5t-28.5 -8.5l-14 -3.5t-11 -2.5q-5 -2 -10 -3q-29 -7 -46.5 -17t-17.5 -30t13.5 -29.5t37.5 -9.5q19 0 36 7.5t30 20t20.5 28t7.5 30.5l53 -102q-19 -33 -44 -53t-52.5 -31
t-56.5 -14.5t-55 -3.5q-36 0 -68.5 8t-57 26t-39.5 46.5t-15 69.5t14.5 69t39.5 46.5t58 29t69 16.5q23 3 44 6q18 2 36 4.5t28 4.5q22 4 31 8.5t9 15.5q0 29 -13 41.5t-39 12.5q-52 0 -59 -52h-188q14 104 77.5 148.5t165.5 44.5zM636 383q-34 0 -52 -20.5t-25 -52.5h163
q-7 33 -27 53t-59 20zM636 530q93 0 161 -42t100 -115q17 -40 21 -83.5t-4 -85.5h-356q7 -34 26.5 -55t59.5 -21q25 0 47.5 7.5t34.5 30.5h181q-16 -50 -42.5 -84.5t-61 -56t-75.5 -31t-86 -9.5q-62 0 -115 19.5t-91.5 55.5t-60.5 86.5t-22 111.5t21 111t58.5 86t89.5 55.5
t114 19.5zM676 731l-133 -162h-152l107 162h178z" />
    <glyph glyph-name="Oslashacute" unicode="&#x1fe;" horiz-adv-x="777" 
d="M531 916l-133 -162h-152l107 162h178zM389 536q-40 0 -67.5 -15t-44.5 -40.5t-24.5 -59t-7.5 -71.5q0 -37 7.5 -71t24.5 -59.5t44.5 -40.5t67.5 -15t67.5 15t44.5 40.5t24.5 59.5t7.5 71q0 38 -7.5 71.5t-24.5 59t-44.5 40.5t-67.5 15zM389 715q88 0 155 -28t112 -77.5
t68 -116t23 -143.5t-23 -143.5t-68 -116t-112 -77.5t-155 -28t-155 28t-112 77.5t-68 116t-23 143.5t23 143.5t68 116t112 77.5t155 28zM590 715h153l-556 -730h-152z" />
    <glyph glyph-name="oslashacute" unicode="&#x1ff;" 
d="M515 731l-133 -162h-152l107 162h178zM308 371q-27 0 -44.5 -9.5t-28 -25.5t-14.5 -36.5t-4 -41.5t4 -41.5t14.5 -36.5t28 -26t44.5 -10t44.5 10t28 26t14.5 36.5t4 41.5t-4 41.5t-14.5 36.5t-28 25.5t-44.5 9.5zM308 530q62 0 114 -19.5t89.5 -55.5t58.5 -86t21 -111
t-21 -111.5t-58.5 -86.5t-89.5 -55.5t-114 -19.5t-114 19.5t-89.5 55.5t-58.5 86.5t-21 111.5t21 111t58.5 86t89.5 55.5t114 19.5zM165 -15h-128l414 545h128z" />
    <glyph glyph-name="uni0218" unicode="&#x218;" horiz-adv-x="689" 
d="M339 715q63 0 117.5 -14.5t95.5 -44.5t66.5 -76.5t31.5 -110.5h-214q-12 74 -97 74q-24 0 -45.5 -10t-21.5 -37q0 -17 14 -28.5t33 -18.5t39 -11t33 -6q48 -8 96 -21t86 -37.5t61.5 -63.5t23.5 -99q0 -65 -27.5 -108.5t-71.5 -69.5t-99 -37t-110 -11q-64 0 -119.5 15
t-98 47t-69.5 83t-33 123h214q10 -95 113 -95q12 0 25 1.5t24 7t18 14.5t7 24q0 19 -14.5 30.5t-34.5 18.5t-41 11t-35 7q-48 9 -95 22t-84 37t-59.5 62.5t-22.5 99.5q0 60 26 102.5t67.5 69t94 38.5t106.5 12zM230 -335q18 3 35.5 9t32 15.5t24.5 22.5t12 28h-83v168h187
v-105q0 -34 -13.5 -65.5t-39.5 -57t-62.5 -42.5t-83.5 -21z" />
    <glyph glyph-name="uni0219" unicode="&#x219;" horiz-adv-x="575" 
d="M280 530q53 0 99 -11t80.5 -34.5t54.5 -59t21 -83.5h-181q-2 32 -20 46.5t-50 14.5q-21 0 -33.5 -8.5t-12.5 -23.5q0 -14 9 -23.5t24 -16t35 -10.5t41 -7q38 -5 73.5 -14.5t63.5 -27t44.5 -45.5t16.5 -70q0 -49 -21.5 -82.5t-57.5 -53t-82 -28t-96 -8.5t-96 11t-81.5 35
t-57 60.5t-22.5 87.5h192q2 -39 23 -54t56 -15q18 0 36.5 7t18.5 27q0 17 -12.5 27.5t-30.5 16.5t-38.5 9t-37.5 6q-37 6 -72 16.5t-62 29.5t-43.5 47t-16.5 68q0 45 21 76.5t54.5 51.5t76 29t84.5 9zM159 -334q18 3 35.5 9t32 15.5t24.5 22.5t12 28h-83v168h187v-105
q0 -34 -13.5 -65.5t-39.5 -57t-62.5 -42.5t-83.5 -21z" />
    <glyph glyph-name="uni021A" unicode="&#x21a;" horiz-adv-x="688" 
d="M658 700v-174h-207v-526h-214v526h-206v174h627zM230 -335q18 3 35.5 9t32 15.5t24.5 22.5t12 28h-83v168h187v-105q0 -34 -13.5 -65.5t-39.5 -57t-62.5 -42.5t-83.5 -21z" />
    <glyph glyph-name="uni021B" unicode="&#x21b;" horiz-adv-x="440" 
d="M307 667v-152h113v-156h-113v-136q0 -42 19.5 -56t60.5 -14q20 0 33 3v-163q-26 -5 -52.5 -6.5t-52.5 -1.5q-113 0 -161 57t-48 166v151h-86v156h28q33 0 45.5 16.5t12.5 39.5v96h201zM179 -334q18 3 35.5 9t32 15.5t24.5 22.5t12 28h-83v168h187v-105q0 -34 -13.5 -65.5
t-39.5 -57t-62.5 -42.5t-83.5 -21z" />
    <glyph glyph-name="uni0232" unicode="&#x232;" horiz-adv-x="725" 
d="M715 700l-246 -478v-222h-214v222l-245 478h240l112 -264l112 264h241zM205 900h313v-121h-313v121z" />
    <glyph glyph-name="uni0233" unicode="&#x233;" horiz-adv-x="593" 
d="M225 516l94 -337l-51 -179h-82l-176 516h215zM582 516l-177 -516q-18 -58 -37.5 -101t-49.5 -71t-75 -42t-114 -14q-11 0 -24 2t-26 5v160q8 -2 17.5 -3.5t22.5 -1.5q36 0 55.5 18t27.5 44l15 49l71 193l79 278h215zM139 715h313v-121h-313v121z" />
    <glyph glyph-name="uni0237" unicode="&#x237;" horiz-adv-x="282" 
d="M40 515h202v-503q0 -58 -11.5 -103t-39.5 -75.5t-73.5 -46.5t-114.5 -16q-16 0 -31 1.5t-30 3.5v162q16 -3 36 -3q27 0 44.5 17t17.5 43v520z" />
    <glyph glyph-name="uni0259" unicode="&#x259;" 
d="M308 132q34 0 52 20.5t25 52.5h-163q8 -33 27.5 -53t58.5 -20zM308 -15q-93 0 -161 42t-100 116q-17 39 -21 83t4 86h356q-7 33 -26.5 54.5t-59.5 21.5q-25 0 -47.5 -8t-33.5 -31h-182q16 50 42.5 84.5t61 56t75.5 31t86 9.5q62 0 115 -19.5t91.5 -55.5t60.5 -86t22 -111
t-21 -111.5t-58.5 -86.5t-89.5 -55.5t-114 -19.5z" />
    <glyph glyph-name="circumflex" unicode="&#x2c6;" horiz-adv-x="467" 
d="M318 731l108 -162h-140l-53 76l-53 -76h-140l108 162h170z" />
    <glyph glyph-name="caron" unicode="&#x2c7;" horiz-adv-x="467" 
d="M427 733l-108 -162h-170l-108 162h140l53 -76l53 76h140z" />
    <glyph glyph-name="breve" unicode="&#x2d8;" horiz-adv-x="396" 
d="M199 677q26 0 34.5 15.5t11.5 36.5h111q-2 -75 -40.5 -121t-116.5 -46q-79 0 -117 46t-41 121h111q3 -21 11.5 -36.5t35.5 -15.5z" />
    <glyph glyph-name="dotaccent" unicode="&#x2d9;" horiz-adv-x="287" 
d="M60 719h166v-146h-166v146z" />
    <glyph glyph-name="ring" unicode="&#x2da;" horiz-adv-x="318" 
d="M159 689q-14 0 -23.5 -9.5t-9.5 -23.5t9.5 -23.5t23.5 -9.5t23 9.5t9 23.5t-9 23.5t-23 9.5zM159 769q24 0 45.5 -8t37.5 -23t25.5 -35.5t9.5 -46.5q0 -25 -9.5 -45.5t-25.5 -35.5t-37.5 -23t-45.5 -8t-45.5 8t-38 22.5t-26 35.5t-9.5 46q0 24 9.5 45t25.5 36t37.5 23.5
t46.5 8.5z" />
    <glyph glyph-name="ogonek" unicode="&#x2db;" horiz-adv-x="318" 
d="M247 0q-32 -16 -48 -38t-16 -48q0 -12 7.5 -21t21.5 -9q8 0 17.5 2.5t16.5 6.5l31 -86q-24 -16 -54 -22.5t-59 -6.5q-25 0 -47.5 6t-39.5 19t-27 32t-10 46q0 30 15 52.5t37.5 37.5t49 24.5t48.5 13.5z" />
    <glyph glyph-name="tilde" unicode="&#x2dc;" horiz-adv-x="508" 
d="M173 739q26 0 46.5 -8t38 -18t33 -18t30.5 -8q21 0 28.5 14.5t7.5 33.5h110q0 -30 -7.5 -60.5t-23.5 -55t-41 -40t-61 -15.5q-26 0 -47 8.5t-38.5 18t-32.5 18t-29 8.5q-20 0 -28 -16t-8 -34h-111q1 33 8.5 64t23 55t40.5 38.5t61 14.5z" />
    <glyph glyph-name="hungarumlaut" unicode="&#x2dd;" horiz-adv-x="491" 
d="M450 742l-96 -162h-143l74 162h165zM259 742l-76 -162h-143l54 162h165z" />
    <glyph glyph-name="uni0307" unicode="&#x307;" horiz-adv-x="287" 
d="M60 719h166v-146h-166v146z" />
    <glyph glyph-name="uni0312" unicode="&#x312;" horiz-adv-x="0" 
d="M167 746l-35 -188h-132l56 188h111z" />
    <glyph glyph-name="uni0326" unicode="&#x326;" horiz-adv-x="0" 
d="M-35 -334q18 3 35.5 9t32 15.5t24.5 22.5t12 28h-83v168h187v-105q0 -34 -13.5 -65.5t-39.5 -57t-62.5 -42.5t-83.5 -21z" />
    <glyph glyph-name="uni0394" unicode="&#x394;" horiz-adv-x="873" 
d="M550 715l313 -715h-853l313 715h227zM306 174h257l-129 316z" />
    <glyph glyph-name="uni03A9" unicode="&#x3a9;" horiz-adv-x="817" 
d="M408 715q75 0 142 -22t117.5 -63.5t79.5 -102t29 -137.5q0 -52 -23 -111t-73 -105h80v-174h-319v164q26 13 46.5 34.5t35 48t22.5 56.5t8 61q0 79 -35 125.5t-110 46.5t-110 -46.5t-35 -125.5q0 -31 7.5 -61t21.5 -56.5t34 -48t46 -34.5v-164h-316v174h81
q-50 46 -73.5 105t-23.5 111q0 77 29 137.5t79.5 102t117.5 63.5t142 22z" />
    <glyph glyph-name="uni03BC" unicode="&#x3bc;" horiz-adv-x="621" 
d="M252 224q0 -31 11.5 -51t45.5 -20t47 24.5t13 58.5v279h202v-515h-177l-8 39q-31 -54 -97 -54q-34 0 -63 17t-40 61l-136 118v334h202v-291zM50 250h162v-425h-162v425z" />
    <glyph glyph-name="pi" unicode="&#x3c0;" horiz-adv-x="716" 
d="M670 516v-173h-630v173h630zM326 403v-403h-202v403h202zM577 401v-192q0 -26 17.5 -43t44.5 -17q21 0 36 3v-162q-15 -2 -30 -3.5t-30 -1.5q-69 0 -115 16t-73.5 46.5t-39.5 75.5t-12 103v175h202z" />
    <glyph glyph-name="uni0E3F" unicode="&#xe3f;" horiz-adv-x="692" 
d="M275 277v-121h94q44 0 65.5 14.5t21.5 46.5q0 19 -7 31t-18.5 18.5t-27.5 8.5t-34 2h-94zM275 544v-109h75q15 0 28.5 2t24 8t17 16.5t6.5 27.5q0 18 -6 29t-16.5 16.5t-24.5 7.5t-29 2h-75zM413 700q40 0 80 -9.5t72 -32t52 -59t20 -90.5q0 -51 -25 -89.5t-73 -57.5
q55 -17 89 -58t34 -110q0 -54 -18 -91.5t-49.5 -60t-73 -32.5t-89.5 -10h-371v700h352zM399 807v-914h-105v914h105z" />
    <glyph glyph-name="uni1E44" unicode="&#x1e44;" horiz-adv-x="753" 
d="M692 700v-700h-228l-190 339v-339h-214v700h225l194 -363v363h213zM293 904h166v-146h-166v146z" />
    <glyph glyph-name="uni1E45" unicode="&#x1e45;" horiz-adv-x="591" 
d="M372 530q47 0 82.5 -15t59 -41.5t35 -62t11.5 -77.5v-334h-201v291q0 31 -11.5 51t-45.5 20q-35 0 -47.5 -24.5t-12.5 -58.5v-279h-202v515h176l11 -50q26 35 60 50t85 15zM212 719h166v-146h-166v146z" />
    <glyph glyph-name="Wgrave" unicode="&#x1e80;" horiz-adv-x="1058" 
d="M1048 700l-176 -700h-255l-88 396l-88 -396h-255l-176 700h221l95 -443l100 443h206l100 -443l95 443h221zM506 916l107 -162h-151l-134 162h178z" />
    <glyph glyph-name="wgrave" unicode="&#x1e81;" horiz-adv-x="907" 
d="M896 515l-138 -515h-234l-70 292l-70 -292h-234l-140 515h217l57 -326l65 326h210l64 -326l56 326h217zM426 731l107 -162h-151l-134 162h178z" />
    <glyph glyph-name="Wacute" unicode="&#x1e82;" horiz-adv-x="1058" 
d="M1048 700l-176 -700h-255l-88 396l-88 -396h-255l-176 700h221l95 -443l100 443h206l100 -443l95 443h221zM743 916l-133 -162h-152l107 162h178z" />
    <glyph glyph-name="wacute" unicode="&#x1e83;" horiz-adv-x="907" 
d="M896 515l-138 -515h-234l-70 292l-70 -292h-234l-140 515h217l57 -326l65 326h210l64 -326l56 326h217zM664 731l-133 -162h-152l107 162h178z" />
    <glyph glyph-name="Wdieresis" unicode="&#x1e84;" horiz-adv-x="1058" 
d="M1048 700l-176 -700h-255l-88 396l-88 -396h-255l-176 700h221l95 -443l100 443h206l100 -443l95 443h221zM547 904h166v-146h-166v146zM345 904h166v-146h-166v146z" />
    <glyph glyph-name="wdieresis" unicode="&#x1e85;" horiz-adv-x="907" 
d="M896 515l-138 -515h-234l-70 292l-70 -292h-234l-140 515h217l57 -326l65 326h210l64 -326l56 326h217zM471 719h166v-146h-166v146zM269 719h166v-146h-166v146z" />
    <glyph glyph-name="Germandbls" unicode="&#x1e9e;" horiz-adv-x="701" 
d="M355 716q56 0 99.5 -13.5t76.5 -34t55.5 -45.5t34.5 -48v-80l-105 -107q42 -8 71 -26.5t48 -44t27.5 -57t8.5 -66.5q0 -59 -24 -99t-61 -64.5t-82 -35t-87 -10.5q-40 0 -69.5 5t-54.5 17v154q11 -8 35.5 -12.5t41.5 -4.5q44 0 65 20.5t21 52.5q0 22 -11 34.5t-29 18.5
t-40 7t-45 1v158l89 92q-10 8 -28 17.5t-40 9.5q-38 0 -57.5 -24t-19.5 -69v-462h-214v434q0 142 74.5 212t219.5 70z" />
    <glyph glyph-name="uni1EB8" unicode="&#x1eb8;" horiz-adv-x="615" 
d="M574 700v-174h-300v-88h281v-173h-281v-92h300v-173h-514v700h514zM234 -89h166v-146h-166v146z" />
    <glyph glyph-name="uni1EB9" unicode="&#x1eb9;" 
d="M225 -89h166v-146h-166v146zM308 383q-34 0 -52 -20.5t-25 -52.5h163q-7 33 -27 53t-59 20zM308 530q93 0 161 -42t100 -116q17 -39 21 -83t-3 -86h-357q7 -33 26.5 -54.5t59.5 -21.5q25 0 47.5 8t34.5 31h181q-16 -50 -42.5 -84.5t-60.5 -56.5t-75 -31.5t-87 -9.5
q-62 0 -115 19.5t-91.5 55.5t-60.5 86.5t-22 111.5q0 62 21 112t58.5 86t89.5 55.5t114 19.5z" />
    <glyph glyph-name="uni1EBC" unicode="&#x1ebc;" horiz-adv-x="615" 
d="M574 700v-174h-300v-87h281v-174h-281v-91h300v-174h-514v700h514zM236 924q26 0 46.5 -8t38 -18t33 -18t30.5 -8q21 0 28.5 14.5t7.5 33.5h110q0 -30 -7.5 -60.5t-23.5 -55t-41 -40t-61 -15.5q-26 0 -47 8.5t-38.5 18t-32.5 18t-29 8.5q-20 0 -28 -16t-8 -34h-111
q1 33 8.5 64t23 55t40.5 38.5t61 14.5z" />
    <glyph glyph-name="uni1EBD" unicode="&#x1ebd;" 
d="M308 383q-34 0 -52 -20.5t-25 -52.5h163q-7 33 -27 53t-59 20zM308 530q93 0 161 -42t100 -115q17 -40 21 -83.5t-3 -85.5h-357q7 -34 26.5 -55t59.5 -21q25 0 47.5 7.5t34.5 30.5h181q-16 -50 -42.5 -84.5t-60.5 -56t-75 -31t-87 -9.5q-62 0 -115 19.5t-91.5 55.5
t-60.5 86.5t-22 111.5t21 111t58.5 86t89.5 55.5t114 19.5zM227 739q26 0 46.5 -8t38 -18t33 -18t30.5 -8q21 0 28.5 14.5t7.5 33.5h110q0 -30 -7.5 -60.5t-23.5 -55t-41 -40t-61 -15.5q-26 0 -47 8.5t-38.5 18t-32.5 18t-29 8.5q-20 0 -28 -16t-8 -34h-111q1 33 8.5 64
t23 55t40.5 38.5t61 14.5z" />
    <glyph glyph-name="uni1ECA" unicode="&#x1eca;" horiz-adv-x="335" 
d="M85 -89h166v-146h-166v146zM61 700h214v-700h-214v700z" />
    <glyph glyph-name="uni1ECB" unicode="&#x1ecb;" horiz-adv-x="282" 
d="M58 -89h166v-146h-166v146zM40 700h202v-157h-202v157zM40 515h202v-515h-202v515z" />
    <glyph glyph-name="uni1ECC" unicode="&#x1ecc;" horiz-adv-x="777" 
d="M306 -89h166v-146h-166v146zM389 536q-40 0 -67.5 -15t-44.5 -40.5t-24.5 -59t-7.5 -71.5q0 -37 7.5 -71t24.5 -60t44.5 -41t67.5 -15t67.5 15t44.5 41t24.5 60t7.5 71q0 38 -7.5 71.5t-24.5 59t-44.5 40.5t-67.5 15zM389 715q88 0 155 -28t112 -77.5t68 -116t23 -143.5
t-23 -143.5t-68 -116t-112 -77.5t-155 -28t-155 28t-112 77.5t-68 116t-23 143.5t23 143.5t68 116t112 77.5t155 28z" />
    <glyph glyph-name="uni1ECD" unicode="&#x1ecd;" 
d="M225 -89h166v-146h-166v146zM308 371q-27 0 -44.5 -10t-28 -26t-14.5 -36.5t-4 -41.5t4 -41.5t14.5 -36.5t28 -25.5t44.5 -9.5t44.5 9.5t28 25.5t14.5 36.5t4 41.5t-4 41.5t-14.5 36.5t-28 26t-44.5 10zM308 530q62 0 114 -19.5t89.5 -55.5t58.5 -86t21 -112
q0 -61 -21 -111t-58.5 -86t-89.5 -55.5t-114 -19.5t-114 19.5t-89.5 55.5t-58.5 86t-21 111q0 62 21 112t58.5 86t89.5 55.5t114 19.5z" />
    <glyph glyph-name="uni1EE4" unicode="&#x1ee4;" horiz-adv-x="720" 
d="M278 -89h165v-146h-165v146zM456 700h214v-433q0 -73 -24 -126t-66 -87.5t-98.5 -51.5t-121.5 -17t-121.5 17t-98 51.5t-65.5 87.5t-24 126v433h214v-425q0 -114 95 -114q96 0 96 114v425z" />
    <glyph glyph-name="uni1EE5" unicode="&#x1ee5;" horiz-adv-x="591" 
d="M207 -89h166v-146h-166v146zM349 515h201v-515h-176l-11 50q-26 -35 -60 -50t-84 -15q-47 0 -82.5 15t-59 41.5t-35.5 62t-12 77.5v334h202v-291q0 -31 11.5 -51t45.5 -20t47 24.5t13 58.5v279z" />
    <glyph glyph-name="Ygrave" unicode="&#x1ef2;" horiz-adv-x="725" 
d="M715 700l-246 -478v-222h-214v222l-245 478h240l112 -264l112 264h241zM333 916l107 -162h-151l-134 162h178z" />
    <glyph glyph-name="ygrave" unicode="&#x1ef3;" horiz-adv-x="593" 
d="M225 516l94 -337l-51 -179h-82l-176 516h215zM582 516l-177 -516q-18 -58 -37.5 -101t-49.5 -71t-75 -42t-114 -14q-11 0 -24 2t-26 5v160q8 -2 17.5 -3.5t22.5 -1.5q36 0 55.5 18t27.5 44l15 49l71 193l79 278h215zM264 731l107 -162h-151l-134 162h178z" />
    <glyph glyph-name="uni1EF8" unicode="&#x1ef8;" horiz-adv-x="725" 
d="M715 700l-246 -478v-222h-214v222l-245 478h240l112 -264l112 264h241zM281 924q26 0 46.5 -8t38 -18t33 -18t30.5 -8q21 0 28.5 14.5t7.5 33.5h110q0 -30 -7.5 -60.5t-23.5 -55t-41 -40t-61 -15.5q-26 0 -47 8.5t-38.5 18t-32.5 18t-29 8.5q-20 0 -28 -16t-8 -34h-111
q1 33 8.5 64t23 55t40.5 38.5t61 14.5z" />
    <glyph glyph-name="uni1EF9" unicode="&#x1ef9;" horiz-adv-x="593" 
d="M225 516l94 -337l-51 -179h-82l-176 516h215zM582 516l-177 -516q-18 -58 -37.5 -101t-49.5 -71t-75 -42t-114 -14q-11 0 -24 2t-26 5v160q8 -2 17.5 -3.5t22.5 -1.5q36 0 55.5 18t27.5 44l15 49l71 193l79 278h215zM215 739q26 0 46.5 -8t38 -18t33 -18t30.5 -8
q21 0 28.5 14.5t7.5 33.5h110q0 -30 -7.5 -60.5t-23.5 -55t-41 -40t-61 -15.5q-26 0 -47 8.5t-38.5 18t-32.5 18t-29 8.5q-20 0 -28 -16t-8 -34h-111q1 33 8.5 64t23 55t40.5 38.5t61 14.5z" />
    <glyph glyph-name="endash" unicode="&#x2013;" horiz-adv-x="526" 
d="M61 374h405v-170h-405v170z" />
    <glyph glyph-name="emdash" unicode="&#x2014;" horiz-adv-x="708" 
d="M0 374h707v-170h-707v170z" />
    <glyph glyph-name="uni2015" unicode="&#x2015;" horiz-adv-x="940" 
d="M0 374h940v-170h-940v170z" />
    <glyph glyph-name="quoteleft" unicode="&#x2018;" horiz-adv-x="319" 
d="M300 634q-114 -27 -129 -107h87v-192h-198v132q0 49 15.5 89.5t44 70.5t68 48.5t88.5 24.5z" />
    <glyph glyph-name="quoteright" unicode="&#x2019;" horiz-adv-x="319" 
d="M259 700v-132q0 -49 -15.5 -89t-43.5 -70t-68 -49t-88 -25l-25 67q114 26 129 106h-87v192h198z" />
    <glyph glyph-name="quotesinglbase" unicode="&#x201a;" horiz-adv-x="319" 
d="M259 192v-132q0 -49 -15.5 -89t-43.5 -70t-68 -49t-88 -25l-25 67q114 26 129 106h-87v192h198z" />
    <glyph glyph-name="quotedblleft" unicode="&#x201c;" horiz-adv-x="559" 
d="M301 634q-114 -27 -129 -107h87v-192h-198v132q0 49 15.5 89.5t44 70.5t68 48.5t88.5 24.5zM541 634q-112 -27 -129 -107h87v-192h-198v132q0 49 15.5 89.5t44 70.5t68 48.5t88.5 24.5z" />
    <glyph glyph-name="quotedblright" unicode="&#x201d;" horiz-adv-x="559" 
d="M498 700v-132q0 -49 -15.5 -89t-43.5 -70t-68 -49t-88 -25l-25 67q114 26 129 106h-87v192h198zM258 700v-132q0 -49 -15.5 -89t-43.5 -70t-68 -49t-88 -25l-25 67q114 26 129 106h-87v192h198z" />
    <glyph glyph-name="quotedblbase" unicode="&#x201e;" horiz-adv-x="559" 
d="M499 192v-132q0 -49 -15.5 -89t-43.5 -70t-68 -49t-88 -25l-25 67q114 26 129 106h-87v192h198zM259 192v-132q0 -49 -15.5 -89t-43.5 -70t-68 -49t-88 -25l-25 67q114 26 129 106h-87v192h198z" />
    <glyph glyph-name="dagger" unicode="&#x2020;" horiz-adv-x="523" 
d="M362 716v-175h120v-170h-120v-386h-202v386h-120v170h120v175h202z" />
    <glyph glyph-name="daggerdbl" unicode="&#x2021;" horiz-adv-x="523" 
d="M363 716v-127h120v-170h-120v-137h120v-170h-120v-127h-202v127h-120v170h120v137h-120v170h120v127h202z" />
    <glyph glyph-name="bullet" unicode="&#x2022;" horiz-adv-x="356" 
d="M295 350q0 -24 -9 -45.5t-25 -37.5t-37.5 -25.5t-45.5 -9.5t-45.5 9.5t-37.5 25.5t-25.5 37.5t-9.5 45.5t9.5 45.5t25.5 37.5t37.5 25t45.5 9t45.5 -9t37.5 -25t25 -37.5t9 -45.5z" />
    <glyph glyph-name="ellipsis" unicode="&#x2026;" horiz-adv-x="822" 
d="M60 192h198v-192h-198v192zM312 192h198v-192h-198v192zM563 192h198v-192h-198v192z" />
    <glyph glyph-name="perthousand" unicode="&#x2030;" horiz-adv-x="1376" 
d="M805 700l-474 -700h-162l474 700h162zM227 598q-26 0 -40 -22t-14 -69t14 -69t40 -22q25 0 39 22t14 69t-14 69t-39 22zM227 716q87 0 137 -54.5t50 -154.5t-50 -154t-137 -54t-137 54t-50 154t50 154.5t137 54.5zM747 285q-25 0 -39 -22.5t-14 -69.5t14 -69t39 -22
q26 0 40 22t14 69t-14 69.5t-40 22.5zM747 402q87 0 137 -54.5t50 -154.5t-50 -154t-137 -54t-136.5 54t-49.5 154t49.5 154.5t136.5 54.5zM1148 285q-25 0 -39 -22.5t-14 -69.5t14 -69t39 -22q26 0 40 22t14 69t-14 69.5t-40 22.5zM1148 402q88 0 137.5 -54.5t49.5 -154.5
t-49.5 -154t-137.5 -54q-87 0 -136.5 54t-49.5 154t49.5 154.5t136.5 54.5z" />
    <glyph glyph-name="guilsinglleft" unicode="&#x2039;" horiz-adv-x="545" 
d="M485 606l-206 -256l206 -259h-237l-207 259l207 256h237z" />
    <glyph glyph-name="guilsinglright" unicode="&#x203a;" horiz-adv-x="544" 
d="M296 606l208 -256l-208 -259h-236l205 259l-205 256h236z" />
    <glyph glyph-name="uni203D" unicode="&#x203d;" horiz-adv-x="643" 
d="M339 493v-271h-143l-35 271h178zM409 192v-192h-198v192h198zM330 715q55 0 104 -10.5t86.5 -34.5t59.5 -62.5t22 -94.5q0 -29 -9.5 -51.5t-25.5 -39.5t-35.5 -30.5t-39.5 -26t-38.5 -25.5t-31.5 -29q-10 -13 -16 -27.5t-6 -32.5v-29h-180v20q0 37 5.5 64.5t15 48.5
t22 35.5t25.5 25.5q16 13 32 22.5t28.5 18.5t20.5 19.5t8 26.5q0 22 -16 35t-40 13q-56 0 -70 -43h-211q5 52 28.5 91t61 64.5t88.5 38.5t112 13z" />
    <glyph glyph-name="fraction" unicode="&#x2044;" horiz-adv-x="236" 
d="M436 700l-474 -700h-162l474 700h162z" />
    <glyph glyph-name="uni2070" unicode="&#x2070;" horiz-adv-x="415" 
d="M208 697q-27 0 -42.5 -26t-15.5 -73q0 -46 15.5 -72t42.5 -26t42 26t15 72q0 47 -15 73t-42 26zM208 807q87 0 136.5 -56t49.5 -153t-49.5 -152.5t-136.5 -55.5t-137 55.5t-50 152.5t50 153t137 56z" />
    <glyph glyph-name="uni2074" unicode="&#x2074;" horiz-adv-x="404" 
d="M338 807v-239h46v-108h-46v-67h-129v67h-193v79l165 268h157zM143 568h66v110z" />
    <glyph glyph-name="uni2075" unicode="&#x2075;" horiz-adv-x="383" 
d="M343 700h-177l-5 -48q27 15 69 15q60 0 96 -36.5t36 -98.5q0 -39 -15 -66.5t-39 -44t-54 -24t-61 -7.5q-77 0 -122.5 36t-50.5 99h129q7 -32 43 -32q17 0 31.5 10t14.5 31q0 18 -12.5 29t-32.5 11q-11 0 -24 -5.5t-18 -18.5h-129l31 257h290v-107z" />
    <glyph glyph-name="uni2076" unicode="&#x2076;" horiz-adv-x="385" 
d="M199 577q-16 0 -29 -9.5t-13 -29.5q0 -22 13.5 -30.5t28.5 -8.5t28 8.5t13 30.5q0 18 -11 28.5t-30 10.5zM223 661q65 0 102.5 -35.5t37.5 -96.5q0 -26 -9.5 -51t-29 -44.5t-50 -31.5t-71.5 -12q-88 0 -135 51.5t-47 145.5q0 106 47 163t135 57q69 0 110.5 -33.5
t51.5 -101.5h-120q-4 13 -14 21t-28 8q-14 0 -23.5 -6t-15 -14.5t-8 -18t-2.5 -17.5q30 16 69 16z" />
    <glyph glyph-name="uni2077" unicode="&#x2077;" horiz-adv-x="354" 
d="M334 712q-63 -66 -90 -146t-27 -176h-134q0 37 7.5 78t21.5 82t34.5 79.5t46.5 70.5h-177v107h318v-95z" />
    <glyph glyph-name="uni2078" unicode="&#x2078;" horiz-adv-x="411" 
d="M206 491q2 0 10 0.5t16.5 4t15.5 11t7 20.5q0 11 -5 17.5t-12.5 10.5t-16 5.5t-15.5 1.5t-16 -1.5t-16.5 -5.5t-12.5 -10.5t-5 -17.5q0 -13 7 -20.5t16 -11t17 -4t10 -0.5zM206 706q-5 0 -12.5 -1t-14 -4t-11.5 -9t-5 -16q0 -3 0.5 -7.5t4.5 -9t13 -8t25 -3.5t25 3.5
t13 8t4.5 9t0.5 7.5q0 10 -4.5 16t-11 9t-14 4t-13.5 1zM206 806q81 0 126 -30.5t45 -85.5q0 -26 -13.5 -47t-37.5 -33q30 -13 47.5 -39t17.5 -58q0 -43 -23 -67.5t-53.5 -37t-61.5 -15.5t-47 -3q-21 0 -52.5 3.5t-61 16.5t-50.5 37t-21 66q0 32 17.5 58t46.5 39
q-50 25 -50 80t45 85.5t126 30.5z" />
    <glyph glyph-name="uni2079" unicode="&#x2079;" horiz-adv-x="385" 
d="M186 698q-15 0 -28 -8.5t-13 -30.5q0 -18 11 -29t30 -11q16 0 28.5 9.5t12.5 30.5q0 22 -13 30.5t-28 8.5zM182 807q88 0 135 -51.5t47 -145.5q0 -106 -47 -163t-135 -57q-69 0 -110.5 33.5t-51.5 101.5h120q4 -13 14 -21t28 -8q14 0 23 5.5t15 14t8.5 18.5t2.5 18
q-28 -16 -69 -16q-65 0 -102.5 35t-37.5 97q0 26 9.5 51t29 44.5t50 31.5t71.5 12z" />
    <glyph glyph-name="uni2080" unicode="&#x2080;" horiz-adv-x="415" 
d="M208 145q-27 0 -42.5 -26t-15.5 -73q0 -46 15.5 -72t42.5 -26t42 26t15 72q0 47 -15 73t-42 26zM208 255q87 0 136.5 -56t49.5 -153t-49.5 -152.5t-136.5 -55.5t-137 55.5t-50 152.5t50 153t137 56z" />
    <glyph glyph-name="uni2081" unicode="&#x2081;" horiz-adv-x="269" 
d="M228 255v-417h-129v244h-79v102q21 0 39 1.5t31.5 8t21 21t7.5 40.5h109z" />
    <glyph glyph-name="uni2082" unicode="&#x2082;" horiz-adv-x="377" 
d="M193 254q29 0 57 -6.5t50.5 -21.5t36.5 -39.5t14 -60.5q0 -26 -9 -45.5t-23.5 -35t-33.5 -28t-39 -24.5q-18 -11 -35.5 -22.5t-32.5 -25.5h178v-107h-334v40q0 42 12.5 72t32 52.5t43 38t45.5 27.5q29 15 49.5 27t20.5 29q0 11 -9 17.5t-23 6.5q-23 0 -32.5 -13.5
t-11.5 -33.5h-129q6 70 52 111.5t121 41.5z" />
    <glyph glyph-name="uni2083" unicode="&#x2083;" horiz-adv-x="387" 
d="M196 254q72 0 115 -31.5t43 -85.5q0 -28 -13 -49.5t-36 -33.5q29 -11 45 -33.5t16 -54.5q0 -33 -15 -57.5t-39 -40t-55 -23t-63 -7.5q-38 0 -69.5 11t-54 30.5t-35.5 47.5t-14 63h123q0 -20 14 -34t35 -14q6 0 13 1t13.5 4.5t10.5 10.5t4 18q0 5 -1.5 10.5t-6 10
t-13.5 7.5t-24 3h-44v86h37q12 0 28.5 6t16.5 22q0 29 -36 29t-39 -35h-121q5 65 49 102t116 37z" />
    <glyph glyph-name="uni2084" unicode="&#x2084;" horiz-adv-x="404" 
d="M338 255v-239h46v-108h-46v-67h-129v67h-193v79l165 268h157zM143 16h66v110z" />
    <glyph glyph-name="uni2085" unicode="&#x2085;" horiz-adv-x="383" 
d="M343 148h-177l-5 -48q27 15 69 15q60 0 96 -36.5t36 -98.5q0 -39 -15 -66.5t-39 -44t-54 -24t-61 -7.5q-77 0 -122.5 36t-50.5 99h129q7 -32 43 -32q17 0 31.5 10t14.5 31q0 18 -12.5 29t-32.5 11q-11 0 -24 -5.5t-18 -18.5h-129l31 257h290v-107z" />
    <glyph glyph-name="uni2086" unicode="&#x2086;" horiz-adv-x="385" 
d="M199 25q-16 0 -29 -9.5t-13 -29.5q0 -22 13.5 -30.5t28.5 -8.5t28 8.5t13 30.5q0 18 -11 28.5t-30 10.5zM223 109q65 0 102.5 -35.5t37.5 -96.5q0 -26 -9.5 -51t-29 -44.5t-50 -31.5t-71.5 -12q-88 0 -135 51.5t-47 145.5q0 106 47 163t135 57q69 0 110.5 -33.5
t51.5 -101.5h-120q-4 13 -14 21t-28 8q-14 0 -23.5 -6t-15 -14.5t-8 -18t-2.5 -17.5q30 16 69 16z" />
    <glyph glyph-name="uni2087" unicode="&#x2087;" horiz-adv-x="354" 
d="M334 160q-63 -66 -90 -146t-27 -176h-134q0 37 7.5 78t21.5 82t34.5 79.5t46.5 70.5h-177v107h318v-95z" />
    <glyph glyph-name="uni2088" unicode="&#x2088;" horiz-adv-x="411" 
d="M206 -61q2 0 10 0.5t16.5 4t15.5 11t7 20.5q0 10 -5 17t-12.5 11t-16 5.5t-15.5 1.5t-16 -1.5t-16.5 -5.5t-12.5 -11t-5 -17q0 -13 7 -20.5t16 -11t17 -4t10 -0.5zM206 154q-5 0 -12.5 -1t-14 -4t-11.5 -9t-5 -16q0 -3 0.5 -7.5t4.5 -9t13 -8t25 -3.5t25 3.5t13 8t4.5 9
t0.5 7.5q0 10 -4.5 16t-11 9t-14 4t-13.5 1zM206 254q81 0 126 -30.5t45 -85.5q0 -26 -13.5 -47t-37.5 -33q30 -13 47.5 -39t17.5 -58q0 -43 -23 -67.5t-53.5 -37t-61.5 -15.5t-47 -3q-21 0 -52.5 3.5t-61 16.5t-50.5 37t-21 66q0 32 17.5 58t46.5 39q-50 25 -50 80t45 85.5
t126 30.5z" />
    <glyph glyph-name="uni2089" unicode="&#x2089;" horiz-adv-x="385" 
d="M186 146q-15 0 -28 -8.5t-13 -30.5q0 -18 11 -29t30 -11q16 0 28.5 9.5t12.5 30.5q0 22 -13 30.5t-28 8.5zM182 255q88 0 135 -51.5t47 -145.5q0 -106 -47 -163t-135 -57q-69 0 -110.5 33.5t-51.5 101.5h120q4 -13 14 -21t28 -8q14 0 23 5.5t15 14t8.5 18.5t2.5 18
q-28 -16 -69 -16q-65 0 -102.5 35t-37.5 97q0 26 9.5 51t29 44.5t50 31.5t71.5 12z" />
    <glyph glyph-name="colonmonetary" unicode="&#x20a1;" horiz-adv-x="754" 
d="M379 715q75 0 136 -20.5t106 -59.5t71.5 -96t31.5 -131h-214q-3 27 -12 51t-25.5 42t-40 28t-53.5 10q-37 0 -62.5 -16.5t-41.5 -43.5t-23.5 -61t-7.5 -68t7.5 -68t23.5 -61t41.5 -43.5t62.5 -16.5q30 0 53.5 10t40 28t25.5 42t12 51h214q-5 -73 -31.5 -130.5
t-71.5 -96.5t-106 -59.5t-136 -20.5q-83 0 -148 27t-109.5 75.5t-68 115.5t-23.5 147t23.5 147t68 115.5t109.5 75.5t148 27zM516 807l-333 -914h-100l333 914h100zM546 807h100l-333 -914h-100z" />
    <glyph glyph-name="franc" unicode="&#x20a3;" horiz-adv-x="655" 
d="M584 700v-173h-300v-104h280v-174h-280v-249h-214v700h514zM7 197h407v-121h-407v121z" />
    <glyph glyph-name="lira" unicode="&#x20a4;" horiz-adv-x="696" 
d="M40 305h398v-108h-398v108zM40 448h398v-107h-398v107zM360 715q67 0 119.5 -12.5t90 -41.5t59 -76t27.5 -116h-235q-2 42 -16.5 60t-45.5 18q-26 0 -41.5 -16t-15.5 -48q0 -36 8.5 -75.5t8.5 -91.5q0 -53 -16.5 -86.5t-40.5 -54.5h394v-175h-616v151q42 16 63 46.5
t21 62.5q0 25 -6 50.5t-13.5 51.5t-14 54t-6.5 58q0 59 20 104t56 75.5t87 46t113 15.5z" />
    <glyph glyph-name="uni20A6" unicode="&#x20a6;" horiz-adv-x="869" 
d="M750 700v-700h-228l-190 339v-339h-214v700h225l193 -363v363h214zM40 510h788v-108h-788v108zM40 298h788v-108h-788v108z" />
    <glyph glyph-name="peseta" unicode="&#x20a7;" horiz-adv-x="1695" 
d="M277 526v-137h87q32 0 56 16t24 53q0 38 -22.5 53t-57.5 15h-87zM373 700q62 0 114.5 -13.5t90.5 -43t59.5 -75t21.5 -110.5q0 -66 -21.5 -112t-59.5 -74.5t-90.5 -41.5t-114.5 -13h-96v-217h-217v700h313zM997 667v-152h113v-156h-113v-136q0 -42 19.5 -56t60.5 -14
q20 0 33 3v-163q-26 -5 -52.5 -6.5t-52.5 -1.5q-113 0 -161 57t-48 166v151h-86v156h28q33 0 45.5 16.5t12.5 39.5v96h201zM1400 530q53 0 99 -11t80.5 -34.5t54.5 -59t21 -83.5h-181q-2 32 -20 46.5t-50 14.5q-21 0 -33.5 -8.5t-12.5 -23.5q0 -14 9 -23.5t24 -16t35 -10.5
t41 -7q38 -5 73.5 -14.5t63.5 -27t44.5 -45.5t16.5 -70q0 -49 -21.5 -82.5t-57.5 -53t-82 -28t-96 -8.5t-96 11t-81.5 35t-57 60.5t-22.5 87.5h192q2 -39 23 -54t56 -15q18 0 36.5 7t18.5 27q0 17 -12.5 27.5t-30.5 16.5t-38.5 9t-37.5 6q-37 6 -72 16.5t-62 29.5t-43.5 47
t-16.5 68q0 45 21 76.5t54.5 51.5t76 29t84.5 9z" />
    <glyph glyph-name="uni20A9" unicode="&#x20a9;" horiz-adv-x="1118" 
d="M1078 700l-176 -700h-255l-88 396l-88 -396h-255l-176 700h221l95 -443l100 443h206l100 -443l95 443h221zM40 510h1038v-108h-1038v108zM40 298h1038v-108h-1038v108z" />
    <glyph glyph-name="Euro" unicode="&#x20ac;" horiz-adv-x="600" 
d="M433 475v-108h-413v108h413zM433 331v-107h-413v107h413zM408 716q34 0 75.5 -8.5t76.5 -28.5v-189q-24 23 -60.5 37.5t-68.5 14.5q-39 0 -66.5 -17t-45 -44.5t-25 -62t-7.5 -68.5t7.5 -68t25 -61.5t45 -44.5t66.5 -17q32 0 68.5 14.5t60.5 37.5v-190q-35 -20 -76.5 -28
t-75.5 -8q-83 0 -145.5 27t-104.5 75.5t-63.5 115.5t-21.5 147t21.5 147t63.5 116t104.5 76t145.5 27z" />
    <glyph glyph-name="uni20AD" unicode="&#x20ad;" horiz-adv-x="854" 
d="M805 700l-286 -343l-100 -105l-77 -84v-168h-214v700h214v-244l197 244h266zM553 405l260 -405h-254l-153 251zM40 411h773v-122h-773v122z" />
    <glyph glyph-name="uni20AE" unicode="&#x20ae;" horiz-adv-x="687" 
d="M657 700v-174h-207v-526h-214v526h-206v174h627zM559 191l-432 -129v112l432 129v-112zM559 341l-432 -129v112l432 129v-112z" />
    <glyph glyph-name="uni20B2" unicode="&#x20b2;" horiz-adv-x="765" 
d="M379 715q69 0 128 -18t103 -52t72 -84t37 -114h-217q-11 43 -42.5 67t-80.5 24q-37 0 -62.5 -16.5t-41.5 -43.5t-23.5 -60.5t-7.5 -67.5t7.5 -68t25 -61t45 -43.5t67.5 -16.5q64 0 96.5 37t32.5 94h99l11 -153q-30 -71 -89.5 -113t-159.5 -42q-83 0 -148 27t-109.5 75.5
t-68 116t-23.5 147.5t23.5 147t68 115.5t109.5 75.5t148 27zM369 394h365v-394h-131l-41 243h-193v151zM443 806v-913h-122v913h122z" />
    <glyph glyph-name="uni20B4" unicode="&#x20b4;" horiz-adv-x="850" 
d="M731 538q0 -32 -6.5 -57t-17.5 -45l-322 42q13 2 33 5.5t39 11t33 18.5t14 28q0 28 -21 39.5t-56 11.5q-66 0 -127 -11t-117 -27v172q51 15 112.5 25t141.5 10q54 0 106.5 -12t94 -38.5t67.5 -69t26 -103.5zM30 490h789v-108h-789v108zM30 320h789v-107h-789v107z
M345 159q0 -15 8.5 -24.5t22 -15.5t29 -8t30.5 -2q73 0 131.5 10.5t114.5 26.5v-172q-51 -15 -112.5 -25t-141.5 -10q-55 0 -110.5 11t-99.5 37t-71.5 69.5t-27.5 108.5q0 47 16 84l336 -23q-14 -3 -35 -7t-41 -11t-34.5 -18.5t-14.5 -30.5z" />
    <glyph glyph-name="uni20B8" unicode="&#x20b8;" horiz-adv-x="687" 
d="M657 477v-174h-207v-303h-214v303h-206v174h627zM30 700h627v-174h-627v174z" />
    <glyph glyph-name="uni20B9" unicode="&#x20b9;" horiz-adv-x="626" 
d="M213 700q62 0 114.5 -17.5t90.5 -51t59.5 -84t21.5 -116.5t-21.5 -116t-59.5 -84t-90.5 -51.5t-114.5 -17.5h-173v172h151q51 0 75.5 28.5t24.5 68.5t-24.5 68.5t-75.5 28.5h-151v172h173zM586 565h-546v135h546v-135zM586 366h-546v135h546v-135zM499 0h-241l-119 233
l198 66z" />
    <glyph glyph-name="uni20BD" unicode="&#x20bd;" horiz-adv-x="750" 
d="M337 526v-137h87q32 0 56.5 16t24.5 53q0 38 -23 53t-58 15h-87zM434 700q62 0 114.5 -13.5t90.5 -43t59.5 -75t21.5 -110.5q0 -66 -21.5 -112t-59.5 -74.5t-90.5 -41.5t-114.5 -13h-97v-217h-217v700h314zM40 228v150h277v-150h-277zM40 39v150h395v-150h-395z" />
    <glyph glyph-name="uni20BF" unicode="&#x20bf;" horiz-adv-x="692" 
d="M274 277v-122h94q87 0 87 61q0 20 -7 31.5t-18.5 18.5t-27.5 9t-34 2h-94zM274 544v-109h75q15 0 28.5 2t24 8t17 16.5t6.5 27.5q0 18 -6 29t-16.5 16.5t-24.5 7.5t-29 2h-75zM412 700q40 0 80 -9.5t72 -32t52 -59t20 -90.5q0 -51 -25 -90t-73 -57q55 -17 89 -58.5
t34 -110.5q0 -54 -18 -91t-49.5 -59.5t-73 -32.5t-89.5 -10h-371v700h352zM285 804v-179h-122v179h122zM436 804v-179h-122v179h122zM285 73v-180h-122v180h122zM436 73v-180h-122v180h122z" />
    <glyph glyph-name="uni2113" unicode="&#x2113;" horiz-adv-x="517" 
d="M311 557q-14 0 -17 -11.5t-3 -31.5v-119q40 48 40 115q0 19 -3 33t-17 14zM294 716q47 0 81 -14t57 -39.5t34 -60.5t11 -78q0 -48 -13.5 -90t-38.5 -77.5t-59 -64t-75 -49.5v-64q0 -18 13.5 -32t40.5 -14q14 0 24.5 1.5t16.5 3.5v-138q-20 -7 -42 -11t-48 -4
q-58 0 -98 15.5t-64 40.5t-34.5 57t-10.5 66v32q-17 -1 -34 -1.5t-34 -0.5v108q17 2 34 3t34 3v167q0 52 11.5 96t36.5 76.5t64 50.5t93 18z" />
    <glyph glyph-name="uni2116" unicode="&#x2116;" horiz-adv-x="1230" 
d="M703 700v-700h-229l-190 339v-339h-214v700h225l194 -363v363h214zM773 165h407v-165h-407v165zM977 514q-17 0 -28 -6.5t-18 -17t-9.5 -24t-2.5 -27.5q0 -29 12 -52t46 -23q33 0 45 23t12 52t-12 52t-45 23zM977 646q48 0 88.5 -14.5t70.5 -41t47 -65t17 -86.5
q0 -50 -17.5 -88.5t-48 -65t-71 -40t-86.5 -13.5q-48 0 -89 14t-71 41t-47 65.5t-17 86.5q0 50 17.5 88.5t48 64.5t71.5 40t87 14z" />
    <glyph glyph-name="trademark" unicode="&#x2122;" horiz-adv-x="972" 
d="M416 700v-100h-116v-297h-126v297h-114v100h356zM597 700l77 -229l76 229h162v-397h-127v196l-66 -196h-90l-67 196v-196h-126v397h161z" />
    <glyph glyph-name="estimated" unicode="&#x212e;" horiz-adv-x="786" 
d="M153 365h481v146q0 29 -15 51q-39 56 -94 92.5t-132 36.5q-44 0 -79 -11.5t-62.5 -30.5t-48.5 -42t-36 -46q-14 -22 -14 -48v-148zM726 350v-14h-573v-146q0 -31 16 -54q43 -61 96.5 -94t127.5 -33t125.5 31.5t87.5 83.5h54q-43 -63 -110 -101t-157 -38q-78 0 -140 30
t-104.5 80.5t-65 116.5t-22.5 138t22.5 138.5t65 117t104.5 80.5t140 30q79 0 141 -30t104.5 -80.5t65 -117t22.5 -138.5z" />
    <glyph glyph-name="uni2150" unicode="&#x2150;" horiz-adv-x="907" 
d="M716 700l-474 -700h-162l474 700h162zM228 716v-417h-129v244h-79v102q21 0 39 1.5t31.5 8t21 21t7.5 40.5h109zM886 307q-63 -66 -90 -146t-27 -176h-134q0 37 7.5 78t21.5 82t34.5 79.5t46.5 70.5h-177v107h318v-95z" />
    <glyph glyph-name="uni2151" unicode="&#x2151;" horiz-adv-x="872" 
d="M708 700l-474 -700h-162l474 700h162zM228 716v-417h-129v244h-79v102q21 0 39 1.5t31.5 8t21 21t7.5 40.5h109zM674 303q-15 0 -28 -8.5t-13 -30.5q0 -18 11 -29t30 -11q16 0 28.5 9.5t12.5 30.5q0 22 -13 30.5t-28 8.5zM670 412q88 0 135 -51.5t47 -145.5
q0 -106 -47 -163t-135 -57q-69 0 -110.5 33.5t-51.5 101.5h120q4 -13 14 -21t28 -8q14 0 23 5.5t15 14t8.5 18.5t2.5 18q-28 -16 -69 -16q-65 0 -102.5 35t-37.5 97q0 26 9.5 51t29 44.5t50 31.5t71.5 12z" />
    <glyph glyph-name="uni2152" unicode="&#x2152;" horiz-adv-x="1189" 
d="M723 700l-474 -700h-162l474 700h162zM229 716v-417h-129v244h-79v102q21 0 39 1.5t31.5 8t21 21t7.5 40.5h109zM739 402v-417h-129v244h-79v102q21 0 39 1.5t31.5 8t21 21t7.5 40.5h109zM982 292q-27 0 -42.5 -26t-15.5 -73q0 -46 15.5 -72t42.5 -26t42 26t15 72
q0 47 -15 73t-42 26zM982 402q87 0 136.5 -56t49.5 -153t-49.5 -152.5t-136.5 -55.5t-137 55.5t-50 152.5t50 153t137 56z" />
    <glyph glyph-name="onethird" unicode="&#x2153;" horiz-adv-x="892" 
d="M228 716v-417h-129v244h-79v102q21 0 39 1.5t31.5 8t21 21t7.5 40.5h109zM705 700l-474 -700h-162l474 700h162zM701 401q72 0 115 -31.5t43 -85.5q0 -28 -13 -49.5t-36 -33.5q29 -11 45 -33.5t16 -54.5q0 -33 -15 -57.5t-39 -40t-55 -23t-63 -7.5q-38 0 -69.5 11
t-54 30.5t-35.5 48t-14 62.5h123q0 -20 14 -34t35 -14q12 0 26.5 6t14.5 28q0 5 -1.5 10.5t-6 10t-13.5 7.5t-24 3h-44v86h37q12 0 28.5 6t16.5 22q0 29 -36 29t-39 -35h-121q5 65 49 102t116 37z" />
    <glyph glyph-name="twothirds" unicode="&#x2154;" horiz-adv-x="1000" 
d="M193 715q29 0 57 -6.5t50.5 -21.5t36.5 -39.5t14 -60.5q0 -26 -9 -45.5t-23.5 -35t-33.5 -28t-39 -24.5q-18 -11 -35.5 -22.5t-32.5 -25.5h178v-107h-334v40q0 42 12.5 72t32 52.5t43 38t45.5 27.5q29 15 49.5 27t20.5 29q0 11 -9 17.5t-23 6.5q-23 0 -32.5 -13.5
t-11.5 -33.5h-129q6 70 52 111.5t121 41.5zM813 700l-474 -700h-162l474 700h162zM809 401q72 0 115 -31.5t43 -85.5q0 -28 -13 -49.5t-36 -33.5q29 -11 45 -33.5t16 -54.5q0 -33 -15 -57.5t-39 -40t-55 -23t-63 -7.5q-38 0 -69.5 11t-54 30.5t-35.5 48t-14 62.5h123
q0 -20 14 -34t35 -14q12 0 26.5 6t14.5 28q0 5 -1.5 10.5t-6 10t-13.5 7.5t-24 3h-44v86h37q12 0 28.5 6t16.5 22q0 29 -36 29t-39 -35h-121q5 65 49 102t116 37z" />
    <glyph glyph-name="uni2155" unicode="&#x2155;" horiz-adv-x="888" 
d="M228 716v-417h-129v244h-79v102q21 0 39 1.5t31.5 8t21 21t7.5 40.5h109zM705 700l-474 -700h-162l474 700h162zM848 295h-177l-5 -48q27 15 69 15q60 0 96 -36.5t36 -98.5q0 -39 -15 -66.5t-39 -44t-54 -24t-61 -7.5q-77 0 -122.5 36t-50.5 99h129q7 -32 43 -32
q17 0 31.5 10t14.5 31q0 18 -12.5 29t-32.5 11q-11 0 -24 -5.5t-18 -18.5h-129l31 257h290v-107z" />
    <glyph glyph-name="uni2156" unicode="&#x2156;" horiz-adv-x="996" 
d="M193 715q29 0 57 -6.5t50.5 -21.5t36.5 -39.5t14 -60.5q0 -26 -9 -45.5t-23.5 -35t-33.5 -28t-39 -24.5q-18 -11 -35.5 -22.5t-32.5 -25.5h178v-107h-334v40q0 42 12.5 72t32 52.5t43 38t45.5 27.5q29 15 49.5 27t20.5 29q0 11 -9 17.5t-23 6.5q-23 0 -32.5 -13.5
t-11.5 -33.5h-129q6 70 52 111.5t121 41.5zM813 700l-474 -700h-162l474 700h162zM956 295h-177l-5 -48q27 15 69 15q60 0 96 -36.5t36 -98.5q0 -39 -15 -66.5t-39 -44t-54 -24t-61 -7.5q-77 0 -122.5 36t-50.5 99h129q7 -32 43 -32q17 0 31.5 10t14.5 31q0 18 -12.5 29
t-32.5 11q-11 0 -24 -5.5t-18 -18.5h-129l31 257h290v-107z" />
    <glyph glyph-name="uni2157" unicode="&#x2157;" horiz-adv-x="1006" 
d="M196 715q72 0 115 -31.5t43 -85.5q0 -28 -13 -49.5t-36 -33.5q29 -11 45 -33.5t16 -54.5q0 -33 -15 -57.5t-39 -40t-55 -23t-63 -7.5q-38 0 -69.5 11t-54 30.5t-35.5 48t-14 62.5h123q0 -20 14 -34t35 -14q12 0 26.5 6t14.5 28q0 5 -1.5 10.5t-6 10t-13.5 7.5t-24 3h-44
v86h37q12 0 28.5 6t16.5 22q0 29 -36 29t-39 -35h-121q5 65 49 102t116 37zM823 700l-474 -700h-162l474 700h162zM966 295h-177l-5 -48q27 15 69 15q60 0 96 -36.5t36 -98.5q0 -39 -15 -66.5t-39 -44t-54 -24t-61 -7.5q-77 0 -122.5 36t-50.5 99h129q7 -32 43 -32
q17 0 31.5 10t14.5 31q0 18 -12.5 29t-32.5 11q-11 0 -24 -5.5t-18 -18.5h-129l31 257h290v-107z" />
    <glyph glyph-name="uni2158" unicode="&#x2158;" horiz-adv-x="1043" 
d="M338 716v-239h46v-108h-46v-67h-129v67h-193v79l165 268h157zM143 477h66v110zM860 700l-474 -700h-162l474 700h162zM1003 295h-177l-5 -48q27 15 69 15q60 0 96 -36.5t36 -98.5q0 -39 -15 -66.5t-39 -44t-54 -24t-61 -7.5q-77 0 -122.5 36t-50.5 99h129q7 -32 43 -32
q17 0 31.5 10t14.5 31q0 18 -12.5 29t-32.5 11q-11 0 -24 -5.5t-18 -18.5h-129l31 257h290v-107z" />
    <glyph glyph-name="uni2159" unicode="&#x2159;" horiz-adv-x="890" 
d="M228 716v-417h-129v244h-79v102q21 0 39 1.5t31.5 8t21 21t7.5 40.5h109zM705 700l-474 -700h-162l474 700h162zM704 172q-16 0 -29 -9.5t-13 -29.5q0 -22 13.5 -30.5t28.5 -8.5t28 8.5t13 30.5q0 18 -11 28.5t-30 10.5zM728 256q65 0 102.5 -35.5t37.5 -96.5
q0 -26 -9.5 -51t-29 -44.5t-50 -31.5t-71.5 -12q-88 0 -135 51.5t-47 145.5q0 106 47 163t135 57q69 0 110.5 -33.5t51.5 -101.5h-120q-4 13 -14 21t-28 8q-14 0 -23.5 -6t-15 -14.5t-8 -18t-2.5 -17.5q30 16 69 16z" />
    <glyph glyph-name="uni215A" unicode="&#x215a;" horiz-adv-x="1004" 
d="M343 609h-177l-5 -48q27 15 69 15q60 0 96 -36.5t36 -98.5q0 -39 -15 -66.5t-39 -44t-54 -24t-61 -7.5q-77 0 -122.5 36t-50.5 99h129q7 -32 43 -32q17 0 31.5 10t14.5 31q0 18 -12.5 29t-32.5 11q-11 0 -24 -5.5t-18 -18.5h-129l31 257h290v-107zM819 700l-474 -700
h-162l474 700h162zM818 172q-16 0 -29 -9.5t-13 -29.5q0 -22 13.5 -30.5t28.5 -8.5t28 8.5t13 30.5q0 18 -11 28.5t-30 10.5zM842 256q65 0 102.5 -35.5t37.5 -96.5q0 -26 -9.5 -51t-29 -44.5t-50 -31.5t-71.5 -12q-88 0 -135 51.5t-47 145.5q0 106 47 163t135 57
q69 0 110.5 -33.5t51.5 -101.5h-120q-4 13 -14 21t-28 8q-14 0 -23.5 -6t-15 -14.5t-8 -18t-2.5 -17.5q30 16 69 16z" />
    <glyph glyph-name="oneeighth" unicode="&#x215b;" horiz-adv-x="916" 
d="M228 716v-417h-129v244h-79v102q21 0 39 1.5t31.5 8t21 21t7.5 40.5h109zM705 700l-474 -700h-162l474 700h162zM711 86q2 0 10 0.5t16.5 4t15.5 11t7 20.5q0 11 -5 17.5t-12.5 10.5t-16 5.5t-15.5 1.5t-16 -1.5t-16.5 -5.5t-12.5 -10.5t-5 -17.5q0 -13 7 -20.5t16 -11
t17 -4t10 -0.5zM711 301q-5 0 -12.5 -1t-14 -4t-11.5 -9t-5 -16q0 -3 0.5 -7.5t4.5 -9t13 -8t25 -3.5t25 3.5t13 8t4.5 9t0.5 7.5q0 10 -4.5 16t-11 9t-14 4t-13.5 1zM711 401q81 0 126 -30.5t45 -85.5q0 -26 -13.5 -47t-37.5 -33q30 -13 47.5 -39t17.5 -58q0 -43 -23 -67.5
t-53.5 -37t-61.5 -15.5t-47 -3q-21 0 -52.5 3.5t-61 16.5t-50.5 37t-21 66q0 32 17.5 58t46.5 39q-50 25 -50 80t45 85.5t126 30.5z" />
    <glyph glyph-name="threeeighths" unicode="&#x215c;" horiz-adv-x="1034" 
d="M196 715q72 0 115 -31.5t43 -85.5q0 -28 -13 -49.5t-36 -33.5q29 -11 45 -33.5t16 -54.5q0 -33 -15 -57.5t-39 -40t-55 -23t-63 -7.5q-38 0 -69.5 11t-54 30.5t-35.5 48t-14 62.5h123q0 -20 14 -34t35 -14q12 0 26.5 6t14.5 28q0 5 -1.5 10.5t-6 10t-13.5 7.5t-24 3h-44
v86h37q12 0 28.5 6t16.5 22q0 29 -36 29t-39 -35h-121q5 65 49 102t116 37zM823 700l-474 -700h-162l474 700h162zM829 86q2 0 10 0.5t16.5 4t15.5 11t7 20.5q0 11 -5 17.5t-12.5 10.5t-16 5.5t-15.5 1.5t-16 -1.5t-16.5 -5.5t-12.5 -10.5t-5 -17.5q0 -13 7 -20.5t16 -11
t17 -4t10 -0.5zM829 301q-5 0 -12.5 -1t-14 -4t-11.5 -9t-5 -16q0 -3 0.5 -7.5t4.5 -9t13 -8t25 -3.5t25 3.5t13 8t4.5 9t0.5 7.5q0 10 -4.5 16t-11 9t-14 4t-13.5 1zM829 401q81 0 126 -30.5t45 -85.5q0 -26 -13.5 -47t-37.5 -33q30 -13 47.5 -39t17.5 -58q0 -43 -23 -67.5
t-53.5 -37t-61.5 -15.5t-47 -3q-21 0 -52.5 3.5t-61 16.5t-50.5 37t-21 66q0 32 17.5 58t46.5 39q-50 25 -50 80t45 85.5t126 30.5z" />
    <glyph glyph-name="fiveeighths" unicode="&#x215d;" horiz-adv-x="1030" 
d="M343 609h-177l-5 -48q27 15 69 15q60 0 96 -36.5t36 -98.5q0 -39 -15 -66.5t-39 -44t-54 -24t-61 -7.5q-77 0 -122.5 36t-50.5 99h129q7 -32 43 -32q17 0 31.5 10t14.5 31q0 18 -12.5 29t-32.5 11q-11 0 -24 -5.5t-18 -18.5h-129l31 257h290v-107zM819 700l-474 -700
h-162l474 700h162zM825 86q2 0 10 0.5t16.5 4t15.5 11t7 20.5q0 11 -5 17.5t-12.5 10.5t-16 5.5t-15.5 1.5t-16 -1.5t-16.5 -5.5t-12.5 -10.5t-5 -17.5q0 -13 7 -20.5t16 -11t17 -4t10 -0.5zM825 301q-5 0 -12.5 -1t-14 -4t-11.5 -9t-5 -16q0 -3 0.5 -7.5t4.5 -9t13 -8
t25 -3.5t25 3.5t13 8t4.5 9t0.5 7.5q0 10 -4.5 16t-11 9t-14 4t-13.5 1zM825 401q81 0 126 -30.5t45 -85.5q0 -26 -13.5 -47t-37.5 -33q30 -13 47.5 -39t17.5 -58q0 -43 -23 -67.5t-53.5 -37t-61.5 -15.5t-47 -3q-21 0 -52.5 3.5t-61 16.5t-50.5 37t-21 66q0 32 17.5 58
t46.5 39q-50 25 -50 80t45 85.5t126 30.5z" />
    <glyph glyph-name="seveneighths" unicode="&#x215e;" horiz-adv-x="971" 
d="M334 620q-63 -66 -90 -146t-27 -176h-134q0 37 7.5 78t21.5 82t34.5 79.5t46.5 70.5h-177v107h318v-95zM760 700l-474 -700h-162l474 700h162zM766 86q2 0 10 0.5t16.5 4t15.5 11t7 20.5q0 11 -5 17.5t-12.5 10.5t-16 5.5t-15.5 1.5t-16 -1.5t-16.5 -5.5t-12.5 -10.5
t-5 -17.5q0 -13 7 -20.5t16 -11t17 -4t10 -0.5zM766 301q-5 0 -12.5 -1t-14 -4t-11.5 -9t-5 -16q0 -3 0.5 -7.5t4.5 -9t13 -8t25 -3.5t25 3.5t13 8t4.5 9t0.5 7.5q0 10 -4.5 16t-11 9t-14 4t-13.5 1zM766 401q81 0 126 -30.5t45 -85.5q0 -26 -13.5 -47t-37.5 -33
q30 -13 47.5 -39t17.5 -58q0 -43 -23 -67.5t-53.5 -37t-61.5 -15.5t-47 -3q-21 0 -52.5 3.5t-61 16.5t-50.5 37t-21 66q0 32 17.5 58t46.5 39q-50 25 -50 80t45 85.5t126 30.5z" />
    <glyph glyph-name="uni215F" unicode="&#x215f;" horiz-adv-x="505" 
d="M228 716v-417h-129v244h-79v102q21 0 39 1.5t31.5 8t21 21t7.5 40.5h109zM705 700l-474 -700h-162l474 700h162z" />
    <glyph glyph-name="uni2189" unicode="&#x2189;" horiz-adv-x="1016" 
d="M832 700l-474 -700h-162l474 700h162zM208 606q-27 0 -42.5 -26t-15.5 -73q0 -46 15.5 -72t42.5 -26t42 26t15 72q0 47 -15 73t-42 26zM208 716q87 0 136.5 -56t49.5 -153t-49.5 -152.5t-136.5 -55.5t-137 55.5t-50 152.5t50 153t137 56zM826 401q72 0 115 -31.5
t43 -85.5q0 -28 -13 -49.5t-36 -33.5q29 -11 45 -33.5t16 -54.5q0 -33 -15 -57.5t-39 -40t-55 -23t-63 -7.5q-38 0 -69.5 11t-54 30.5t-35.5 48t-14 62.5h123q0 -20 14 -34t35 -14q12 0 26.5 6t14.5 28q0 5 -1.5 10.5t-6 10t-13.5 7.5t-24 3h-44v86h37q12 0 28.5 6t16.5 22
q0 29 -36 29t-39 -35h-121q5 65 49 102t116 37z" />
    <glyph glyph-name="arrowleft" unicode="&#x2190;" horiz-adv-x="860" 
d="M136 436h684v-172h-684v172zM491 588l-238 -238l238 -238l-121 -122l-360 360l360 360z" />
    <glyph glyph-name="arrowup" unicode="&#x2191;" horiz-adv-x="740" 
d="M284 589h172v-673h-172v673zM730 355l-122 -122l-238 239l-238 -239l-122 122l360 360z" />
    <glyph glyph-name="arrowright" unicode="&#x2192;" horiz-adv-x="860" 
d="M40 436h684v-172h-684v172zM850 350l-360 -360l-122 122l238 238l-238 238l122 122z" />
    <glyph glyph-name="arrowdown" unicode="&#x2193;" horiz-adv-x="740" 
d="M284 784h172v-673h-172v673zM608 466l122 -121l-360 -360l-360 360l122 121l238 -238z" />
    <glyph glyph-name="arrowboth" unicode="&#x2194;" horiz-adv-x="1318" 
d="M491 588l-238 -238l238 -238l-121 -122l-360 360l360 360zM1181 436v-172h-1045v172h1045zM1307 350l-360 -360l-121 122l238 238l-238 238l121 122z" />
    <glyph glyph-name="arrowupdn" unicode="&#x2195;" horiz-adv-x="740" 
d="M730 648l-122 -121l-238 238l-238 -238l-122 121l360 360zM456 -163h-172v1045h172v-1045zM608 192l122 -121l-360 -360l-360 360l122 121l238 -238z" />
    <glyph glyph-name="uni2196" unicode="&#x2196;" horiz-adv-x="706" 
d="M190 487l476 -476l-122 -122l-476 476zM549 515v-172h-337v-337h-172v509h509z" />
    <glyph glyph-name="uni2197" unicode="&#x2197;" horiz-adv-x="706" 
d="M516 487l122 -122l-476 -476l-122 122zM666 515v-509h-172v337h-337v172h509z" />
    <glyph glyph-name="uni2198" unicode="&#x2198;" horiz-adv-x="706" 
d="M638 150l-122 -122l-476 476l122 122zM666 509v-509h-509v172h337v337h172z" />
    <glyph glyph-name="uni2199" unicode="&#x2199;" horiz-adv-x="706" 
d="M666 504l-476 -476l-122 122l476 476zM212 509v-337h337v-172h-509v509h172z" />
    <glyph glyph-name="uni21A9" unicode="&#x21a9;" horiz-adv-x="1079" 
d="M771 264h-634v172h634v-172zM371 710l121 -122l-238 -238l238 -238l-121 -122l-360 360zM771 264v172q40 0 67.5 27.5t27.5 67.5q0 20 -7.5 37t-20 30t-30 20.5t-37.5 7.5h-65v172h65q56 0 104.5 -21t84.5 -57.5t57 -85t21 -103.5t-21 -104t-57 -85t-84.5 -57t-104.5 -21
z" />
    <glyph glyph-name="uni21AA" unicode="&#x21aa;" horiz-adv-x="1079" 
d="M943 264h-635v172h635v-172zM709 710l359 -360l-359 -360l-122 122l238 238l-238 238zM308 264q-55 0 -103.5 21t-85 57t-57.5 85t-21 104t21 103.5t57.5 85t85 57.5t103.5 21h66v-172h-66q-19 0 -36.5 -7.5t-30.5 -20.5t-20.5 -30t-7.5 -37t7.5 -37.5t20.5 -30t30.5 -20
t36.5 -7.5v-172z" />
    <glyph glyph-name="arrowdblleft" unicode="&#x21d0;" horiz-adv-x="907" 
d="M229 538h638v-172h-638v172zM229 334h638v-172h-638v172zM512 609l-259 -259l259 -258l-122 -122l-380 380l380 380z" />
    <glyph glyph-name="arrowdblright" unicode="&#x21d2;" horiz-adv-x="907" 
d="M40 334h637v-172h-637v172zM40 538h637v-172h-637v172zM897 350l-381 -380l-121 122l258 258l-258 259l121 121z" />
    <glyph glyph-name="arrowdblboth" unicode="&#x21d4;" horiz-adv-x="1414" 
d="M512 609l-259 -259l259 -258l-122 -122l-380 380l380 380zM229 334h956v-172h-956v172zM229 538h956v-172h-956v172zM1404 350l-380 -380l-122 122l259 258l-259 259l122 121z" />
    <glyph glyph-name="partialdiff" unicode="&#x2202;" horiz-adv-x="670" 
d="M321 343q-43 0 -64.5 -26t-21.5 -69q0 -19 5 -36.5t15.5 -31t26 -22t37.5 -8.5t39 9t28 23.5t17 33.5t7 40q-4 35 -28 61t-61 26zM284 499q35 0 72 -12.5t63 -36.5q-15 37 -44 62.5t-66 41.5t-78.5 23t-80.5 7l1 161q98 0 185 -25.5t152 -76.5t103 -128t38 -180
q0 -69 -17 -132.5t-54.5 -112t-96.5 -77t-143 -28.5q-59 0 -110 18.5t-88.5 53.5t-58.5 85t-21 112q0 55 17 100t48.5 77.5t76.5 50t102 17.5z" />
    <glyph glyph-name="product" unicode="&#x220f;" horiz-adv-x="763" 
d="M703 700v-700h-214v527h-215v-527h-214v700h643z" />
    <glyph glyph-name="summation" unicode="&#x2211;" horiz-adv-x="744" 
d="M683 700v-173h-315l197 -177l-187 -176h305v-174h-623v154l234 196l-234 196v154h623z" />
    <glyph glyph-name="minus" unicode="&#x2212;" horiz-adv-x="526" 
d="M61 374h405v-170h-405v170z" />
    <glyph glyph-name="uni2215" unicode="&#x2215;" horiz-adv-x="636" 
d="M636 700l-474 -700h-162l474 700h162z" />
    <glyph glyph-name="radical" unicode="&#x221a;" horiz-adv-x="882" 
d="M872 899v-174h-183l-230 -740h-237l-202 636h223l98 -355l194 633h337z" />
    <glyph glyph-name="infinity" unicode="&#x221e;" horiz-adv-x="990" 
d="M698 427q-20 0 -36 -6.5t-29.5 -17.5t-25 -24.5t-22.5 -28.5q11 -14 22.5 -28t25 -24.5t29.5 -17t36 -6.5q32 0 51.5 22.5t19.5 53.5q0 32 -19.5 54.5t-51.5 22.5zM292 427q-32 0 -52 -22.5t-20 -54.5q0 -31 20 -53.5t52 -22.5q39 0 65 23.5t47 52.5q-10 15 -21.5 28.5
t-25 24.5t-29.5 17.5t-36 6.5zM275 581q70 0 122.5 -25t97.5 -77q44 52 96.5 77t122.5 25q49 0 92 -17t74.5 -47.5t50 -73t18.5 -93.5t-18.5 -93.5t-50 -72.5t-74.5 -47t-92 -17q-70 0 -122.5 25t-96.5 77q-45 -52 -97.5 -77t-122.5 -25q-49 0 -92 17t-74.5 47t-50 72.5
t-18.5 93.5t18.5 93.5t50 73t74.5 47.5t92 17z" />
    <glyph glyph-name="integral" unicode="&#x222b;" horiz-adv-x="485" 
d="M395 716q21 0 39.5 -3t35.5 -8v-163q-6 2 -16 4t-24 2q-29 0 -45.5 -17t-18.5 -37l-52 -513q-4 -34 -17 -66t-39.5 -57t-67.5 -40.5t-100 -15.5q-22 0 -40 3t-35 8v161q6 -2 16 -3.5t24 -1.5q29 0 43.5 16.5t16.5 37.5l53 514q3 34 17 66t41 57t68.5 40.5t100.5 15.5z
" />
    <glyph glyph-name="approxequal" unicode="&#x2248;" horiz-adv-x="703" 
d="M261 390q-18 0 -29 -6t-17 -16.5t-8 -24t-2 -28.5h-144q0 40 8.5 81.5t28.5 75t53 55t83 21.5q38 0 67 -14t53 -31.5t45 -31.5t42 -14q18 0 29 6t17 16.5t8.5 23.5t2.5 28h144q0 -40 -8.5 -81.5t-28.5 -75.5t-54 -55t-84 -21q-35 0 -64.5 14.5t-54.5 31.5t-46.5 31.5
t-40.5 14.5zM261 122q-18 0 -29 -6t-17 -16.5t-8 -24t-2 -28.5h-144q0 40 8.5 81.5t28.5 75t53 54.5t83 21q38 0 67 -14t53 -31.5t45 -31.5t42 -14q35 0 46 22.5t11 51.5h144q0 -40 -8.5 -81.5t-28.5 -75t-54 -54.5t-84 -21q-35 0 -64.5 14.5t-54.5 31.5t-46.5 31.5
t-40.5 14.5z" />
    <glyph glyph-name="notequal" unicode="&#x2260;" horiz-adv-x="652" 
d="M577 253v-155h-503v155h503zM577 480v-156h-503v156h503zM591 562l-369 -546h-162l369 546h162z" />
    <glyph glyph-name="lessequal" unicode="&#x2264;" horiz-adv-x="560" 
d="M500 523l-232 -78l232 -78v-177l-460 164v182l460 164v-177zM500 0h-460v170h460v-170z" />
    <glyph glyph-name="greaterequal" unicode="&#x2265;" horiz-adv-x="580" 
d="M520 536v-182l-460 -164v177l232 78l-232 78v177zM520 170v-170h-460v170h460z" />
    <glyph glyph-name="uni2460" unicode="&#x2460;" horiz-adv-x="761" 
d="M457 558v-416h-130v243h-79v103q21 0 39.5 1t32 8t21 21t7.5 40h109zM380 700q72 0 136 -27.5t111.5 -75t75 -111.5t27.5 -136t-27.5 -136t-75 -111.5t-111.5 -75t-136 -27.5t-136 27.5t-111.5 75t-75 111.5t-27.5 136t27.5 136t75 111.5t111.5 75t136 27.5zM380 602
q-52 0 -98 -20t-80.5 -54.5t-54 -80t-19.5 -97.5t20 -98t54.5 -80.5t80 -54t97.5 -19.5q53 0 98.5 20t80 54.5t54 80t19.5 97.5q0 53 -20 98.5t-54.5 80t-80 54t-97.5 19.5z" />
    <glyph glyph-name="uni2461" unicode="&#x2461;" horiz-adv-x="761" 
d="M391 558q29 0 57 -6.5t50 -21.5t36 -39.5t14 -60.5q0 -26 -9 -46t-23.5 -35.5t-33 -27.5t-38.5 -24q-9 -6 -18 -11.5t-18 -10.5h145v-107h-334v14q0 42 12.5 72t32 52.5t43 38t45.5 27.5q29 15 49.5 27t20.5 28q0 11 -9 18t-23 7q-23 0 -32.5 -14t-11.5 -34h-129
q6 70 52 112t122 42zM380 700q72 0 136 -27.5t111.5 -75t75 -111.5t27.5 -136t-27.5 -136t-75 -111.5t-111.5 -75t-136 -27.5t-136 27.5t-111.5 75t-75 111.5t-27.5 136t27.5 136t75 111.5t111.5 75t136 27.5zM380 602q-52 0 -98 -20t-80.5 -54.5t-54 -80t-19.5 -97.5
t20 -98t54.5 -80.5t80 -54t97.5 -19.5q53 0 98.5 20t80 54.5t54 80t19.5 97.5q0 53 -20 98.5t-54.5 80t-80 54t-97.5 19.5z" />
    <glyph glyph-name="uni2462" unicode="&#x2462;" horiz-adv-x="761" 
d="M383 558q72 0 114.5 -31.5t42.5 -85.5q0 -28 -13 -50t-36 -33q29 -11 45.5 -34t16.5 -55q0 -33 -15 -57t-39.5 -39.5t-55.5 -23t-63 -7.5q-76 0 -123 41.5t-50 110.5h123q1 -21 15 -34.5t35 -13.5q6 0 13 1t13 4.5t10.5 10.5t4.5 18q0 10 -7.5 20.5t-37.5 10.5h-44v86h36
q13 0 29 6t16 22q0 29 -36 29q-17 0 -27 -9t-12 -26h-120q4 64 48.5 101.5t116.5 37.5zM380 700q72 0 136 -27.5t111.5 -75t75 -111.5t27.5 -136t-27.5 -136t-75 -111.5t-111.5 -75t-136 -27.5t-136 27.5t-111.5 75t-75 111.5t-27.5 136t27.5 136t75 111.5t111.5 75
t136 27.5zM380 602q-52 0 -98 -20t-80.5 -54.5t-54 -80t-19.5 -97.5t20 -98t54.5 -80.5t80 -54t97.5 -19.5q53 0 98.5 20t80 54.5t54 80t19.5 97.5q0 53 -20 98.5t-54.5 80t-80 54t-97.5 19.5z" />
    <glyph glyph-name="uni2463" unicode="&#x2463;" horiz-adv-x="761" 
d="M319 320h65v110zM513 558v-238h47v-108h-47v-67h-129v67h-192v78l165 268h156zM380 700q72 0 136 -27.5t111.5 -75t75 -111.5t27.5 -136t-27.5 -136t-75 -111.5t-111.5 -75t-136 -27.5t-136 27.5t-111.5 75t-75 111.5t-27.5 136t27.5 136t75 111.5t111.5 75t136 27.5z
M380 602q-52 0 -98 -20t-80.5 -54.5t-54 -80t-19.5 -97.5t20 -98t54.5 -80.5t80 -54t97.5 -19.5q53 0 98.5 20t80 54.5t54 80t19.5 97.5q0 53 -20 98.5t-54.5 80t-80 54t-97.5 19.5z" />
    <glyph glyph-name="uni2464" unicode="&#x2464;" horiz-adv-x="761" 
d="M532 544v-107h-179l-3 -33q14 8 31.5 11t37.5 3q60 0 96 -36t36 -98q0 -39 -15 -66.5t-39 -44t-54 -24t-61 -7.5q-77 0 -122.5 35.5t-50.5 98.5h129q7 -31 43 -31q17 0 31 10t14 31q0 18 -12 29t-32 11q-11 0 -24 -5.5t-18 -18.5h-129l31 242h290zM380 700
q72 0 136 -27.5t111.5 -75t75 -111.5t27.5 -136t-27.5 -136t-75 -111.5t-111.5 -75t-136 -27.5t-136 27.5t-111.5 75t-75 111.5t-27.5 136t27.5 136t75 111.5t111.5 75t136 27.5zM380 602q-52 0 -98 -20t-80.5 -54.5t-54 -80t-19.5 -97.5t20 -98t54.5 -80.5t80 -54
t97.5 -19.5q53 0 98.5 20t80 54.5t54 80t19.5 97.5q0 53 -20 98.5t-54.5 80t-80 54t-97.5 19.5z" />
    <glyph glyph-name="uni2465" unicode="&#x2465;" horiz-adv-x="761" 
d="M386 329q-16 0 -29 -9.5t-13 -29.5q0 -22 13.5 -30.5t28.5 -8.5t28 8.5t13 30.5q0 18 -11 28.5t-30 10.5zM410 413q65 0 102.5 -35.5t37.5 -96.5q0 -26 -9.5 -51t-29 -44.5t-50 -31.5t-71.5 -12q-88 0 -135 51.5t-47 145.5q0 105 47 162t135 57q69 0 110.5 -33t51.5 -102
h-120q-4 14 -14 22t-28 8q-14 0 -23 -6t-15 -14.5t-8.5 -18.5t-2.5 -18q29 17 69 17zM380 700q72 0 136 -27.5t111.5 -75t75 -111.5t27.5 -136t-27.5 -136t-75 -111.5t-111.5 -75t-136 -27.5t-136 27.5t-111.5 75t-75 111.5t-27.5 136t27.5 136t75 111.5t111.5 75t136 27.5z
M380 602q-52 0 -98 -20t-80.5 -54.5t-54 -80t-19.5 -97.5t20 -98t54.5 -80.5t80 -54t97.5 -19.5q53 0 98.5 20t80 54.5t54 80t19.5 97.5q0 53 -20 98.5t-54.5 80t-80 54t-97.5 19.5z" />
    <glyph glyph-name="uni2466" unicode="&#x2466;" horiz-adv-x="761" 
d="M539 463q-63 -66 -90 -146t-27 -175h-134q0 34 6 71.5t18 75t29.5 74t39.5 67.5h-160v106h318v-73zM380 700q72 0 136 -27.5t111.5 -75t75 -111.5t27.5 -136t-27.5 -136t-75 -111.5t-111.5 -75t-136 -27.5t-136 27.5t-111.5 75t-75 111.5t-27.5 136t27.5 136t75 111.5
t111.5 75t136 27.5zM380 602q-52 0 -98 -20t-80.5 -54.5t-54 -80t-19.5 -97.5t20 -98t54.5 -80.5t80 -54t97.5 -19.5q53 0 98.5 20t80 54.5t54 80t19.5 97.5q0 53 -20 98.5t-54.5 80t-80 54t-97.5 19.5z" />
    <glyph glyph-name="uni2467" unicode="&#x2467;" horiz-adv-x="761" 
d="M380 243q2 0 10 0.5t17 4t16 11t7 20.5q0 11 -5.5 17.5t-13 10.5t-16 5.5t-15.5 1.5t-15.5 -1.5t-16 -5.5t-13 -10.5t-5.5 -17.5q0 -13 7 -20.5t16 -11t17 -4t10 -0.5zM380 458q-3 0 -10 -1t-14.5 -4t-13 -9t-5.5 -16q0 -3 0.5 -7.5t4.5 -9t13 -8t25 -3.5t25 3.5t13 8
t4.5 9t0.5 7.5q0 10 -4.5 16t-11 9t-14 4t-13.5 1zM380 559q81 0 126 -31t45 -86t-50 -80q29 -13 46.5 -39t17.5 -58q0 -43 -23 -67.5t-53.5 -37t-61.5 -15.5t-47 -3q-21 0 -52.5 3.5t-61 16.5t-50.5 37t-21 66q0 32 17.5 58t46.5 39q-50 25 -50 80t45 86t126 31zM380 700
q72 0 136 -27.5t111.5 -75t75 -111.5t27.5 -136t-27.5 -136t-75 -111.5t-111.5 -75t-136 -27.5t-136 27.5t-111.5 75t-75 111.5t-27.5 136t27.5 136t75 111.5t111.5 75t136 27.5zM380 602q-52 0 -98 -20t-80.5 -54.5t-54 -80t-19.5 -97.5t20 -98t54.5 -80.5t80 -54
t97.5 -19.5q53 0 98.5 20t80 54.5t54 80t19.5 97.5q0 53 -20 98.5t-54.5 80t-80 54t-97.5 19.5z" />
    <glyph glyph-name="uni2468" unicode="&#x2468;" horiz-adv-x="761" 
d="M386 450q-15 0 -28.5 -9t-13.5 -30q0 -18 11 -29t31 -11q15 0 28 9.5t13 30.5t-13.5 30t-27.5 9zM381 558q88 0 135 -51t47 -145q0 -106 -47 -163t-135 -57q-69 0 -110.5 33t-51.5 102h121q6 -29 41 -29q14 0 23.5 5.5t15 14t8 18.5t2.5 18q-28 -16 -69 -16
q-65 0 -102.5 35t-37.5 97q0 26 9.5 50.5t29 44t50 31.5t71.5 12zM380 700q72 0 136 -27.5t111.5 -75t75 -111.5t27.5 -136t-27.5 -136t-75 -111.5t-111.5 -75t-136 -27.5t-136 27.5t-111.5 75t-75 111.5t-27.5 136t27.5 136t75 111.5t111.5 75t136 27.5zM380 602
q-52 0 -98 -20t-80.5 -54.5t-54 -80t-19.5 -97.5t20 -98t54.5 -80.5t80 -54t97.5 -19.5q53 0 98.5 20t80 54.5t54 80t19.5 97.5q0 53 -20 98.5t-54.5 80t-80 54t-97.5 19.5z" />
    <glyph glyph-name="uni24EA" unicode="&#x24ea;" horiz-adv-x="761" 
d="M380 449q-27 0 -42 -26t-16 -73q1 -47 16 -73t42 -26t42 26t16 73q-1 47 -16 73t-42 26zM380 558q87 0 137 -55.5t50 -152.5t-50 -152.5t-137 -55.5t-137 55.5t-50 152.5t50 152.5t137 55.5zM380 700q72 0 136 -27.5t111.5 -75t75 -111.5t27.5 -136t-27.5 -136
t-75 -111.5t-111.5 -75t-136 -27.5t-136 27.5t-111.5 75t-75 111.5t-27.5 136t27.5 136t75 111.5t111.5 75t136 27.5zM380 602q-52 0 -98 -20t-80.5 -54.5t-54 -80t-19.5 -97.5t20 -98t54.5 -80.5t80 -54t97.5 -19.5q53 0 98.5 20t80 54.5t54 80t19.5 97.5q0 53 -20 98.5
t-54.5 80t-80 54t-97.5 19.5z" />
    <glyph glyph-name="uni24FF" unicode="&#x24ff;" horiz-adv-x="761" 
d="M380 700q72 0 136 -27.5t111.5 -75t75 -111.5t27.5 -136t-27.5 -136t-75 -111.5t-111.5 -75t-136 -27.5t-136 27.5t-111.5 75t-75 111.5t-27.5 136t27.5 136t75 111.5t111.5 75t136 27.5zM380 558q-87 0 -137 -55.5t-50 -152.5t50 -152.5t137 -55.5t137 55.5t50 152.5
t-50 152.5t-137 55.5zM380 449q27 0 42 -26t16 -73q-1 -47 -16 -73t-42 -26t-42 26t-16 73q1 47 16 73t42 26z" />
    <glyph glyph-name="filledbox" unicode="&#x25a0;" horiz-adv-x="820" 
d="M60 700h700v-700h-700v700z" />
    <glyph glyph-name="uni25A1" unicode="&#x25a1;" horiz-adv-x="820" 
d="M60 700h700v-700h-700v700zM260 200h300v300h-300v-300z" />
    <glyph glyph-name="triagup" unicode="&#x25b2;" horiz-adv-x="830" 
d="M819 0h-809l404 706z" />
    <glyph glyph-name="uni25B3" unicode="&#x25b3;" horiz-adv-x="823" 
d="M812 0h-802l401 717zM334 190h154l-77 138z" />
    <glyph glyph-name="uni25B7" unicode="&#x25b7;" horiz-adv-x="787" 
d="M777 350l-717 -401v802zM250 273l138 77l-138 77v-154z" />
    <glyph glyph-name="triagrt" unicode="&#x25ba;" horiz-adv-x="787" 
d="M777 350l-717 -401v802z" />
    <glyph glyph-name="triagdn" unicode="&#x25bc;" horiz-adv-x="823" 
d="M813 700l-401 -717l-401 717h802z" />
    <glyph glyph-name="uni25BD" unicode="&#x25bd;" horiz-adv-x="823" 
d="M812 700l-401 -717l-401 717h802zM411 372l77 138h-154z" />
    <glyph glyph-name="uni25C0" unicode="&#x25c0;" horiz-adv-x="787" 
d="M727 -51l-717 401l717 401v-802z" />
    <glyph glyph-name="uni25C1" unicode="&#x25c1;" horiz-adv-x="787" 
d="M727 -51l-717 401l717 401v-802zM537 273v154l-138 -77z" />
    <glyph glyph-name="lozenge" unicode="&#x25ca;" horiz-adv-x="694" 
d="M444 716l220 -366l-220 -365h-194l-220 365l220 366h194zM233 350l114 -189l114 189l-114 190z" />
    <glyph glyph-name="circle" unicode="&#x25cb;" horiz-adv-x="760" 
d="M380 500q-31 0 -58.5 -12t-47.5 -32t-32 -47.5t-12 -58.5t12 -58.5t32 -47.5t47.5 -32t58.5 -12t58.5 12t47.5 32t32 47.5t12 58.5t-12 58.5t-32 47.5t-47.5 32t-58.5 12zM380 700q72 0 136 -27.5t111.5 -75t75 -111.5t27.5 -136t-27.5 -136t-75 -111.5t-111.5 -75
t-136 -27.5t-136 27.5t-111.5 75t-75 111.5t-27.5 136t27.5 136t75 111.5t111.5 75t136 27.5z" />
    <glyph glyph-name="uni25CF" unicode="&#x25cf;" horiz-adv-x="761" 
d="M380 0q-72 0 -136 27.5t-111.5 75t-75 111.5t-27.5 136t27.5 136t75 111.5t111.5 75t136 27.5t136 -27.5t111.5 -75t75 -111.5t27.5 -136t-27.5 -136t-75 -111.5t-111.5 -75t-136 -27.5z" />
    <glyph glyph-name="uni2776" unicode="&#x2776;" horiz-adv-x="761" 
d="M348 558q0 -26 -7.5 -40t-21 -21t-32 -8t-39.5 -1v-103h79v-243h130v416h-109zM380 700q72 0 136 -27.5t111.5 -75t75 -111.5t27.5 -136t-27.5 -136t-75 -111.5t-111.5 -75t-136 -27.5t-136 27.5t-111.5 75t-75 111.5t-27.5 136t27.5 136t75 111.5t111.5 75t136 27.5z
" />
    <glyph glyph-name="uni2777" unicode="&#x2777;" horiz-adv-x="761" 
d="M385 558q-75 0 -121 -42t-52 -112h129q2 20 11.5 34t32.5 14q14 0 23 -7t9 -18q0 -16 -20.5 -28t-49.5 -27q-22 -12 -45.5 -27.5t-43 -38t-32 -52.5t-12.5 -72v-14h334v107h-145q9 5 18 10.5t17 11.5q20 12 39 24t33.5 27.5t23.5 35.5t9 46q0 36 -14 60.5t-36.5 39.5
t-50.5 21.5t-57 6.5zM380 700q72 0 136 -27.5t111.5 -75t75 -111.5t27.5 -136t-27.5 -136t-75 -111.5t-111.5 -75t-136 -27.5t-136 27.5t-111.5 75t-75 111.5t-27.5 136t27.5 136t75 111.5t111.5 75t136 27.5z" />
    <glyph glyph-name="uni2778" unicode="&#x2778;" horiz-adv-x="761" 
d="M380 142q32 0 63 7.5t55.5 23t39.5 39.5t15 57q0 32 -16.5 55t-45.5 34q23 11 36 33t13 50q0 54 -42.5 85.5t-114.5 31.5t-116.5 -37.5t-48.5 -101.5h120q2 17 12 26t27 9q36 0 36 -29q0 -16 -16 -22t-29 -6h-36v-86h44q30 0 37.5 -10.5t7.5 -20.5q0 -11 -4.5 -18
t-10.5 -10.5t-13 -4.5t-13 -1q-21 0 -35 13.5t-15 34.5h-123q3 -69 50 -110.5t123 -41.5zM380 700q72 0 136 -27.5t111.5 -75t75 -111.5t27.5 -136t-27.5 -136t-75 -111.5t-111.5 -75t-136 -27.5t-136 27.5t-111.5 75t-75 111.5t-27.5 136t27.5 136t75 111.5t111.5 75
t136 27.5z" />
    <glyph glyph-name="uni2779" unicode="&#x2779;" horiz-adv-x="761" 
d="M192 290v-78h192v-67h129v67h47v108h-47v238h-156zM380 700q72 0 136 -27.5t111.5 -75t75 -111.5t27.5 -136t-27.5 -136t-75 -111.5t-111.5 -75t-136 -27.5t-136 27.5t-111.5 75t-75 111.5t-27.5 136t27.5 136t75 111.5t111.5 75t136 27.5zM384 320h-65l65 110v-110z" />
    <glyph glyph-name="uni277A" unicode="&#x277a;" horiz-adv-x="761" 
d="M211 302h129q5 13 18 18.5t24 5.5q20 0 32 -11t12 -29q0 -21 -14 -31t-31 -10q-36 0 -43 31h-129q5 -63 50.5 -98.5t122.5 -35.5q31 0 61 7.5t54 24t39 44t15 66.5q0 62 -36 98t-96 36q-20 0 -37.5 -3t-31.5 -11l3 33h179v107h-290zM380 700q72 0 136 -27.5t111.5 -75
t75 -111.5t27.5 -136t-27.5 -136t-75 -111.5t-111.5 -75t-136 -27.5t-136 27.5t-111.5 75t-75 111.5t-27.5 136t27.5 136t75 111.5t111.5 75t136 27.5z" />
    <glyph glyph-name="uni277B" unicode="&#x277b;" horiz-adv-x="761" 
d="M386 251q-15 0 -28.5 8.5t-13.5 30.5q0 20 13 29.5t29 9.5q19 0 30 -10.5t11 -28.5q0 -22 -13 -30.5t-28 -8.5zM410 413q-40 0 -69 -17q0 8 2.5 18t8.5 18.5t15 14.5t23 6q18 0 28 -8t14 -22h120q-10 69 -51.5 102t-110.5 33q-88 0 -135 -57t-47 -162q0 -94 47 -145.5
t135 -51.5q41 0 71.5 12t50 31.5t29 44.5t9.5 51q0 61 -37.5 96.5t-102.5 35.5zM380 700q72 0 136 -27.5t111.5 -75t75 -111.5t27.5 -136t-27.5 -136t-75 -111.5t-111.5 -75t-136 -27.5t-136 27.5t-111.5 75t-75 111.5t-27.5 136t27.5 136t75 111.5t111.5 75t136 27.5z" />
    <glyph glyph-name="uni277C" unicode="&#x277c;" horiz-adv-x="761" 
d="M539 536h-318v-106h160q-22 -31 -39.5 -67.5t-29.5 -74t-18 -75t-6 -71.5h134q0 95 27 175t90 146v73zM380 700q72 0 136 -27.5t111.5 -75t75 -111.5t27.5 -136t-27.5 -136t-75 -111.5t-111.5 -75t-136 -27.5t-136 27.5t-111.5 75t-75 111.5t-27.5 136t27.5 136t75 111.5
t111.5 75t136 27.5z" />
    <glyph glyph-name="uni277D" unicode="&#x277d;" horiz-adv-x="761" 
d="M380 559q-81 0 -126 -31t-45 -86t50 -80q-29 -13 -46.5 -39t-17.5 -58q0 -42 21 -66t50.5 -37t61 -16.5t52.5 -3.5q16 0 47 3t61.5 15.5t53.5 37t23 67.5q0 32 -17.5 58t-46.5 39q50 25 50 80t-45 86t-126 31zM380 458q6 0 13.5 -1t14 -4t11 -9t4.5 -16q0 -3 -0.5 -7.5
t-4.5 -9t-13 -8t-25 -3.5t-25 3.5t-13 8t-4.5 9t-0.5 7.5q0 10 5 16t11.5 9t14 4t12.5 1zM380 243q-2 0 -10 0.5t-17 4t-16 11t-7 20.5q0 11 5.5 17.5t13 10.5t16 5.5t15.5 1.5t15.5 -1.5t16 -5.5t13 -10.5t5.5 -17.5q0 -13 -7 -20.5t-16 -11t-17 -4t-10 -0.5zM380 700
q72 0 136 -27.5t111.5 -75t75 -111.5t27.5 -136t-27.5 -136t-75 -111.5t-111.5 -75t-136 -27.5t-136 27.5t-111.5 75t-75 111.5t-27.5 136t27.5 136t75 111.5t111.5 75t136 27.5z" />
    <glyph glyph-name="uni277E" unicode="&#x277e;" horiz-adv-x="761" 
d="M386 450q14 0 27.5 -9t13.5 -30t-13 -30.5t-28 -9.5q-20 0 -31 11t-11 29q0 21 13.5 30t28.5 9zM381 558q-41 0 -71.5 -12t-50 -31.5t-29 -44t-9.5 -50.5q0 -62 37.5 -97t102.5 -35q41 0 69 16q0 -8 -2.5 -18t-8 -18.5t-15 -14t-23.5 -5.5q-35 0 -41 29h-121
q10 -69 51.5 -102t110.5 -33q88 0 135 57t47 163q0 94 -47 145t-135 51zM380 700q72 0 136 -27.5t111.5 -75t75 -111.5t27.5 -136t-27.5 -136t-75 -111.5t-111.5 -75t-136 -27.5t-136 27.5t-111.5 75t-75 111.5t-27.5 136t27.5 136t75 111.5t111.5 75t136 27.5z" />
    <glyph glyph-name="uni27F5" unicode="&#x27f5;" horiz-adv-x="1219" 
d="M136 436h1043v-172h-1043v172zM491 588l-238 -238l238 -238l-121 -122l-360 360l360 360z" />
    <glyph glyph-name="uni27F6" unicode="&#x27f6;" horiz-adv-x="1219" 
d="M40 436h1043v-172h-1043v172zM1209 350l-360 -360l-121 122l238 238l-238 238l121 122z" />
    <glyph glyph-name="uni27F7" unicode="&#x27f7;" horiz-adv-x="1704" 
d="M1693 350l-360 -360l-121 122l238 238l-238 238l121 122zM1567 264h-1431v172h1431v-172zM491 588l-238 -238l238 -238l-121 -122l-360 360l360 360z" />
    <glyph glyph-name="uni27F8" unicode="&#x27f8;" horiz-adv-x="1287" 
d="M229 538h1018v-172h-1018v172zM229 334h1018v-172h-1018v172zM512 609l-259 -259l259 -258l-122 -122l-380 380l380 380z" />
    <glyph glyph-name="uni27F9" unicode="&#x27f9;" horiz-adv-x="1288" 
d="M40 334h1018v-172h-1018v172zM40 538h1018v-172h-1018v172zM1277 350l-380 -380l-122 122l259 258l-259 259l122 121z" />
    <glyph glyph-name="uni27FA" unicode="&#x27fa;" horiz-adv-x="1843" 
d="M512 609l-259 -259l259 -258l-122 -122l-380 380l380 380zM1613 334v-172h-1384v172h1384zM1613 538v-172h-1384v172h1384zM1832 350l-380 -380l-121 122l258 258l-258 259l121 121z" />
    <glyph glyph-name="uni2913" unicode="&#x2913;" horiz-adv-x="800" 
d="M314 786h172v-457h-172v457zM638 685l122 -122l-360 -360l-360 360l122 122l238 -239zM101 172h598v-172h-598v172z" />
    <glyph glyph-name="zero.numr" horiz-adv-x="415" 
d="M208 606q-27 0 -42.5 -26t-15.5 -73q0 -46 15.5 -72t42.5 -26t42 26t15 72q0 47 -15 73t-42 26zM208 716q87 0 136.5 -56t49.5 -153t-49.5 -152.5t-136.5 -55.5t-137 55.5t-50 152.5t50 153t137 56z" />
    <glyph glyph-name="five.numr" horiz-adv-x="383" 
d="M343 609h-177l-5 -48q27 15 69 15q60 0 96 -36.5t36 -98.5q0 -39 -15 -66.5t-39 -44t-54 -24t-61 -7.5q-77 0 -122.5 36t-50.5 99h129q7 -32 43 -32q17 0 31.5 10t14.5 31q0 18 -12.5 29t-32.5 11q-11 0 -24 -5.5t-18 -18.5h-129l31 257h290v-107z" />
    <glyph glyph-name="six.numr" horiz-adv-x="385" 
d="M199 485q-16 0 -29 -9.5t-13 -29.5q0 -22 13.5 -30.5t28.5 -8.5t28 8.5t13 30.5q0 18 -11 28.5t-30 10.5zM223 569q65 0 102.5 -35.5t37.5 -96.5q0 -26 -9.5 -51t-29 -44.5t-50 -31.5t-71.5 -12q-88 0 -135 51.5t-47 145.5q0 106 47 163t135 57q69 0 110.5 -33.5
t51.5 -101.5h-120q-4 13 -14 21t-28 8q-14 0 -23.5 -6t-15 -14.5t-8 -18t-2.5 -17.5q30 16 69 16z" />
    <glyph glyph-name="seven.numr" horiz-adv-x="354" 
d="M334 620q-63 -66 -90 -146t-27 -176h-134q0 37 7.5 78t21.5 82t34.5 79.5t46.5 70.5h-177v107h318v-95z" />
    <glyph glyph-name="eight.numr" horiz-adv-x="411" 
d="M206 399q2 0 10 0.5t16.5 4t15.5 11t7 20.5q0 11 -5 17.5t-12.5 10.5t-16 5.5t-15.5 1.5t-16 -1.5t-16.5 -5.5t-12.5 -10.5t-5 -17.5q0 -13 7 -20.5t16 -11t17 -4t10 -0.5zM206 614q-5 0 -12.5 -1t-14 -4t-11.5 -9t-5 -16q0 -3 0.5 -7.5t4.5 -9t13 -8t25 -3.5t25 3.5
t13 8t4.5 9t0.5 7.5q0 10 -4.5 16t-11 9t-14 4t-13.5 1zM206 714q81 0 126 -30.5t45 -85.5q0 -26 -13.5 -47t-37.5 -33q30 -13 47.5 -39t17.5 -58q0 -43 -23 -67.5t-53.5 -37t-61.5 -15.5t-47 -3q-21 0 -52.5 3.5t-61 16.5t-50.5 37t-21 66q0 32 17.5 58t46.5 39
q-50 25 -50 80t45 85.5t126 30.5z" />
    <glyph glyph-name="nine.numr" horiz-adv-x="385" 
d="M186 606q-15 0 -28 -8.5t-13 -30.5q0 -18 11 -29t30 -11q16 0 28.5 9.5t12.5 30.5q0 22 -13 30.5t-28 8.5zM182 715q88 0 135 -51.5t47 -145.5q0 -106 -47 -163t-135 -57q-69 0 -110.5 33.5t-51.5 101.5h120q4 -13 14 -21t28 -8q14 0 23 5.5t15 14t8.5 18.5t2.5 18
q-28 -16 -69 -16q-65 0 -102.5 35t-37.5 97q0 26 9.5 51t29 44.5t50 31.5t71.5 12z" />
    <glyph glyph-name="one.numr" horiz-adv-x="269" 
d="M228 716v-417h-129v244h-79v102q21 0 39 1.5t31.5 8t21 21t7.5 40.5h109z" />
    <glyph glyph-name="two.numr" horiz-adv-x="377" 
d="M193 715q29 0 57 -6.5t50.5 -21.5t36.5 -39.5t14 -60.5q0 -26 -9 -45.5t-23.5 -35t-33.5 -28t-39 -24.5q-18 -11 -35.5 -22.5t-32.5 -25.5h178v-107h-334v40q0 42 12.5 72t32 52.5t43 38t45.5 27.5q29 15 49.5 27t20.5 29q0 11 -9 17.5t-23 6.5q-23 0 -32.5 -13.5
t-11.5 -33.5h-129q6 70 52 111.5t121 41.5z" />
    <glyph glyph-name="three.numr" horiz-adv-x="387" 
d="M196 715q72 0 115 -31.5t43 -85.5q0 -28 -13 -49.5t-36 -33.5q29 -11 45 -33.5t16 -54.5q0 -33 -15 -57.5t-39 -40t-55 -23t-63 -7.5q-38 0 -69.5 11t-54 30.5t-35.5 48t-14 62.5h123q0 -20 14 -34t35 -14q12 0 26.5 6t14.5 28q0 5 -1.5 10.5t-6 10t-13.5 7.5t-24 3h-44
v86h37q12 0 28.5 6t16.5 22q0 29 -36 29t-39 -35h-121q5 65 49 102t116 37z" />
    <glyph glyph-name="four.numr" horiz-adv-x="404" 
d="M338 716v-239h46v-108h-46v-67h-129v67h-193v79l165 268h157zM143 477h66v110z" />
    <glyph glyph-name="dngb_uni2713" horiz-adv-x="805" 
d="M775 514l-468 -469l-276 273l141 142l134 -133l328 328z" />
    <glyph glyph-name="dngb_uni2717" horiz-adv-x="644" 
d="M613 199l-141 -141l-442 442l141 141zM613 500l-442 -442l-141 141l442 442z" />
    <glyph glyph-name="zero.dnom" horiz-adv-x="415" 
d="M208 292q-27 0 -42.5 -26t-15.5 -73q0 -46 15.5 -72t42.5 -26t42 26t15 72q0 47 -15 73t-42 26zM208 402q87 0 136.5 -56t49.5 -153t-49.5 -152.5t-136.5 -55.5t-137 55.5t-50 152.5t50 153t137 56z" />
    <glyph glyph-name="one.dnom" horiz-adv-x="269" 
d="M228 402v-417h-129v244h-79v102q21 0 39 1.5t31.5 8t21 21t7.5 40.5h109z" />
    <glyph glyph-name="two.dnom" horiz-adv-x="377" 
d="M193 401q29 0 57 -6.5t50.5 -21.5t36.5 -39.5t14 -60.5q0 -26 -9 -45.5t-23.5 -35t-33.5 -28t-39 -24.5q-18 -11 -35.5 -22.5t-32.5 -25.5h178v-107h-334v40q0 42 12.5 72t32 52.5t43 38t45.5 27.5q29 15 49.5 27t20.5 29q0 11 -9 17.5t-23 6.5q-23 0 -32.5 -13.5
t-11.5 -33.5h-129q6 70 52 111.5t121 41.5z" />
    <glyph glyph-name="three.dnom" horiz-adv-x="387" 
d="M196 401q72 0 115 -31.5t43 -85.5q0 -28 -13 -49.5t-36 -33.5q29 -11 45 -33.5t16 -54.5q0 -33 -15 -57.5t-39 -40t-55 -23t-63 -7.5q-38 0 -69.5 11t-54 30.5t-35.5 48t-14 62.5h123q0 -20 14 -34t35 -14q12 0 26.5 6t14.5 28q0 5 -1.5 10.5t-6 10t-13.5 7.5t-24 3h-44
v86h37q12 0 28.5 6t16.5 22q0 29 -36 29t-39 -35h-121q5 65 49 102t116 37z" />
    <glyph glyph-name="four.dnom" horiz-adv-x="404" 
d="M338 399v-239h46v-108h-46v-67h-129v67h-193v79l165 268h157zM143 160h66v110z" />
    <glyph glyph-name="five.dnom" horiz-adv-x="383" 
d="M343 295h-177l-5 -48q27 15 69 15q60 0 96 -36.5t36 -98.5q0 -39 -15 -66.5t-39 -44t-54 -24t-61 -7.5q-77 0 -122.5 36t-50.5 99h129q7 -32 43 -32q17 0 31.5 10t14.5 31q0 18 -12.5 29t-32.5 11q-11 0 -24 -5.5t-18 -18.5h-129l31 257h290v-107z" />
    <glyph glyph-name="six.dnom" horiz-adv-x="385" 
d="M199 172q-16 0 -29 -9.5t-13 -29.5q0 -22 13.5 -30.5t28.5 -8.5t28 8.5t13 30.5q0 18 -11 28.5t-30 10.5zM223 256q65 0 102.5 -35.5t37.5 -96.5q0 -26 -9.5 -51t-29 -44.5t-50 -31.5t-71.5 -12q-88 0 -135 51.5t-47 145.5q0 106 47 163t135 57q69 0 110.5 -33.5
t51.5 -101.5h-120q-4 13 -14 21t-28 8q-14 0 -23.5 -6t-15 -14.5t-8 -18t-2.5 -17.5q30 16 69 16z" />
    <glyph glyph-name="seven.dnom" horiz-adv-x="354" 
d="M334 307q-63 -66 -90 -146t-27 -176h-134q0 37 7.5 78t21.5 82t34.5 79.5t46.5 70.5h-177v107h318v-95z" />
    <glyph glyph-name="eight.dnom" horiz-adv-x="411" 
d="M206 86q2 0 10 0.5t16.5 4t15.5 11t7 20.5q0 11 -5 17.5t-12.5 10.5t-16 5.5t-15.5 1.5t-16 -1.5t-16.5 -5.5t-12.5 -10.5t-5 -17.5q0 -13 7 -20.5t16 -11t17 -4t10 -0.5zM206 301q-5 0 -12.5 -1t-14 -4t-11.5 -9t-5 -16q0 -3 0.5 -7.5t4.5 -9t13 -8t25 -3.5t25 3.5t13 8
t4.5 9t0.5 7.5q0 10 -4.5 16t-11 9t-14 4t-13.5 1zM206 401q81 0 126 -30.5t45 -85.5q0 -26 -13.5 -47t-37.5 -33q30 -13 47.5 -39t17.5 -58q0 -43 -23 -67.5t-53.5 -37t-61.5 -15.5t-47 -3q-21 0 -52.5 3.5t-61 16.5t-50.5 37t-21 66q0 32 17.5 58t46.5 39q-50 25 -50 80
t45 85.5t126 30.5z" />
    <glyph glyph-name="nine.dnom" horiz-adv-x="385" 
d="M186 293q-15 0 -28 -8.5t-13 -30.5q0 -18 11 -29t30 -11q16 0 28.5 9.5t12.5 30.5q0 22 -13 30.5t-28 8.5zM182 402q88 0 135 -51.5t47 -145.5q0 -106 -47 -163t-135 -57q-69 0 -110.5 33.5t-51.5 101.5h120q4 -13 14 -21t28 -8q14 0 23 5.5t15 14t8.5 18.5t2.5 18
q-28 -16 -69 -16q-65 0 -102.5 35t-37.5 97q0 26 9.5 51t29 44.5t50 31.5t71.5 12z" />
    <glyph glyph-name="leftLongArrow2" horiz-adv-x="2519" 
d="M136 436h2342v-172h-2342v172zM491 588l-238 -238l238 -238l-121 -122l-360 360l360 360z" />
    <glyph glyph-name="rightLongArrow2" horiz-adv-x="2519" 
d="M40 436h2342v-172h-2342v172zM2508 350l-360 -360l-121 122l238 238l-238 238l121 122z" />
    <glyph glyph-name="uni2197.case" horiz-adv-x="706" 
d="M516 487l122 -122l-476 -476l-122 122zM666 515v-509h-172v337h-337v172h509z" />
    <glyph glyph-name="uni2198.case" horiz-adv-x="706" 
d="M638 150l-122 -122l-476 476l122 122zM666 509v-509h-509v172h337v337h172z" />
    <glyph glyph-name="uni2199.case" horiz-adv-x="706" 
d="M666 504l-476 -476l-122 122l476 476zM212 509v-337h337v-172h-509v509h172z" />
    <glyph glyph-name="uni2196.case" horiz-adv-x="706" 
d="M190 487l476 -476l-122 -122l-476 476zM549 515v-172h-337v-337h-172v509h509z" />
    </font>
</defs>
</svg>
